<svg xmlns="http://www.w3.org/2000/svg" viewBox="0 0 48 48" width="48" height="48" fill="none" stroke="currentColor" stroke-linecap="round" stroke-linejoin="round"><g fill="none"><path stroke="currentColor" stroke-linejoin="round" stroke-width="4" d="M38 8H10a2 2 0 0 0-2 2v28a2 2 0 0 0 2 2h28a2 2 0 0 0 2-2V10a2 2 0 0 0-2-2Z" /><path stroke="currentColor" stroke-linejoin="round" stroke-width="4" d="M30 18H18v12h12z" /><path stroke="currentColor" stroke-linecap="round" stroke-linejoin="round" stroke-width="4" d="M14.91 2v6" /><path stroke="currentColor" stroke-linecap="round" stroke-linejoin="round" stroke-width="4" d="M14.91 40v6" /><path stroke="currentColor" stroke-linecap="round" stroke-linejoin="round" stroke-width="4" d="M24 2v6" /><path stroke="currentColor" stroke-linecap="round" stroke-linejoin="round" stroke-width="4" d="M24 40v6" /><path stroke="currentColor" stroke-linecap="round" stroke-linejoin="round" stroke-width="4" d="M33.09 2v6" /><path stroke="currentColor" stroke-linecap="round" stroke-linejoin="round" stroke-width="4" d="M33.09 40v6" /><path stroke="currentColor" stroke-linecap="round" stroke-linejoin="round" stroke-width="4" d="M2 14.91h6" /><path stroke="currentColor" stroke-linecap="round" stroke-linejoin="round" stroke-width="4" d="M40 14.91h6" /><path stroke="currentColor" stroke-linecap="round" stroke-linejoin="round" stroke-width="4" d="M2 24h6" /><path stroke="currentColor" stroke-linecap="round" stroke-linejoin="round" stroke-width="4" d="M40 24h6" /><path stroke="currentColor" stroke-linecap="round" stroke-linejoin="round" stroke-width="4" d="M2 33.09h6" /><path stroke="currentColor" stroke-linecap="round" stroke-linejoin="round" stroke-width="4" d="M40 33.09h6" /></g></svg>