<svg xmlns="http://www.w3.org/2000/svg" viewBox="0 0 48 48" width="48" height="48" fill="none" stroke="currentColor" stroke-linecap="round" stroke-linejoin="round"><g fill="none"><path stroke="currentColor" stroke-linecap="round" stroke-linejoin="round" stroke-width="4" d="M38 4H10a2 2 0 0 0-2 2v36a2 2 0 0 0 2 2h28a2 2 0 0 0 2-2V6a2 2 0 0 0-2-2" /><path stroke="currentColor" stroke-linecap="round" stroke-linejoin="round" stroke-width="4" d="m30 23l-3.465-3.465m0 0a5 5 0 1 0-7.071-7.07a5 5 0 0 0 7.072 7.07M17 30h14m-14 6h7" /></g></svg>