<svg xmlns="http://www.w3.org/2000/svg" viewBox="0 0 24 24" width="48" height="48"><g fill="none" fill-rule="evenodd"><path fill="currentColor" d="M12 4a8 8 0 1 0 0 16a8 8 0 0 0 0-16m-1 6a1 1 0 0 0-1 1h1zm-1 5v-2h1v2a1 1 0 0 0 1 1h2a2 2 0 0 0 2-2v-4a2 2 0 0 0-2-2h-3a3 3 0 0 0-3 3v4a1 1 0 1 0 2 0m4-1h-1v-1h1zm0-3h-1v-1h1zM4.799 6.6a1 1 0 0 0-1.6-1.2A10.96 10.96 0 0 0 1 12c0 2.475.819 4.762 2.2 6.6a1 1 0 1 0 1.599-1.2A8.96 8.96 0 0 1 3 12c0-2.027.67-3.895 1.799-5.4M20.8 5.4a1 1 0 1 0-1.599 1.2A8.96 8.96 0 0 1 21 12c0 2.027-.67 3.895-1.799 5.4a1 1 0 0 0 1.6 1.2A10.96 10.96 0 0 0 23 12c0-2.475-.819-4.762-2.2-6.6" /></g></svg>