<svg xmlns="http://www.w3.org/2000/svg" viewBox="0 0 24 24" width="48" height="48"><g fill="none"><path fill="currentColor" d="m3.13 7.378l3.396 3.396l-.996 3.984a1 1 0 0 0 1.905.596l.035-.111L7.78 14h1.972l.623.624l.155.618a1 1 0 0 0 1.082.752l.114-.02l4.896 4.896A9.96 9.96 0 0 1 12 22C6.477 22 2 17.523 2 12c0-1.54.348-2.997.969-4.3zM12 2c5.523 0 10 4.477 10 10a9.96 9.96 0 0 1-2.05 6.067l-.207.262l.964.964a1 1 0 0 1-1.32 1.497l-.094-.083l-16-16a1 1 0 0 1 1.32-1.497l.094.083l.964.964A9.96 9.96 0 0 1 12 2m4 6h-2a1 1 0 0 0-1 1v2.586l2 2V10h1a1 1 0 0 1 1 1v2a1 1 0 0 1-1 1h-.586l1.761 1.761A3 3 0 0 0 19 13v-2a3 3 0 0 0-3-3m-6.575.01l1.811 1.812l-.077-.307A2 2 0 0 0 9.426 8.01" /></g></svg>