<svg xmlns="http://www.w3.org/2000/svg" viewBox="0 0 24 24" width="48" height="48"><g fill="none"><path fill="currentColor" d="M9.107 5.448c.598-1.75 3.016-1.803 3.725-.159l.06.16l.807 2.36a4 4 0 0 0 2.276 2.411l.217.081l2.36.806c1.75.598 1.803 3.016.16 3.725l-.16.06l-2.36.807a4 4 0 0 0-2.412 2.276l-.081.216l-.806 2.361c-.598 1.75-3.016 1.803-3.724.16l-.062-.16l-.806-2.36a4 4 0 0 0-2.276-2.412l-.216-.081l-2.36-.806c-1.751-.598-1.804-3.016-.16-3.724l.16-.062l2.36-.806A4 4 0 0 0 8.22 8.025l.081-.216zM19 2a1 1 0 0 1 .898.56l.048.117l.35 1.026l1.027.35a1 1 0 0 1 .118 1.845l-.118.048l-1.026.35l-.35 1.027a1 1 0 0 1-1.845.117l-.048-.117l-.35-1.026l-1.027-.35a1 1 0 0 1-.118-1.845l.118-.048l1.026-.35l.35-1.027A1 1 0 0 1 19 2" /></g></svg>