<svg xmlns="http://www.w3.org/2000/svg" viewBox="0 0 24 24" width="48" height="48"><g fill="none" fill-rule="evenodd"><path fill="currentColor" d="M19.71 2.837c.733.147 1.306.72 1.453 1.453a3.56 3.56 0 0 1-.773 2.995l-2.751 3.252l1.944 7.131a1.25 1.25 0 0 1-.322 1.213l-1.302 1.302a1.01 1.01 0 0 1-1.597-.224l-2.942-5.296l-2.858 2.381l.21 1.053a1.25 1.25 0 0 1-.341 1.13L8.767 20.89a1.01 1.01 0 0 1-1.617-.263L5.89 18.11l-2.516-1.26a1.01 1.01 0 0 1-.263-1.617l1.664-1.664a1.25 1.25 0 0 1 1.129-.341l1.053.21l2.381-2.857l-5.296-2.943a1.01 1.01 0 0 1-.224-1.597L5.12 4.739a1.25 1.25 0 0 1 1.213-.322l7.13 1.944l3.253-2.751a3.56 3.56 0 0 1 2.995-.773Zm-.492 1.945a1.56 1.56 0 0 0-1.211.354l-3.65 3.089a1.01 1.01 0 0 1-.918.203L6.226 6.46l-.067.066l5.195 2.886a1.01 1.01 0 0 1 .285 1.53L8.115 15.17a1.01 1.01 0 0 1-.974.344l-1.237-.247l-.408.408l1.557.779a1.1 1.1 0 0 1 .492.492l.78 1.557l.407-.408l-.247-1.237a1.01 1.01 0 0 1 .344-.974l4.229-3.524a1.01 1.01 0 0 1 1.53.285l2.885 5.195l.066-.067l-1.967-7.213a1.01 1.01 0 0 1 .204-.918l3.088-3.65c.285-.337.412-.777.354-1.211Z" /></g></svg>