<svg xmlns="http://www.w3.org/2000/svg" viewBox="0 0 24 24" width="48" height="48"><g fill="none"><path fill="currentColor" d="M12 4a9 9 0 1 1 0 18a9 9 0 0 1 0-18m0 2a7 7 0 1 0 0 14a7 7 0 0 0 0-14m0 2a1 1 0 0 1 .993.883L13 9v3.586l1.813 1.812a1 1 0 0 1-1.32 1.498l-.095-.084l-2.105-2.105a1 1 0 0 1-.286-.59l-.007-.13V9a1 1 0 0 1 1-1m4.634-5.03a1 1 0 0 1 1.367-.364a12 12 0 0 1 3.271 2.776a1 1 0 0 1-1.544 1.27a10 10 0 0 0-2.729-2.315a1 1 0 0 1-.365-1.366ZM6 2.607a1 1 0 1 1 1.002 1.731a10 10 0 0 0-2.729 2.316a1 1 0 1 1-1.544-1.27A12 12 0 0 1 6 2.607" /></g></svg>