<svg xmlns="http://www.w3.org/2000/svg" viewBox="0 0 24 24" width="48" height="48"><g fill="none"><path fill="currentColor" d="M12 4a9 9 0 1 1 0 18a9 9 0 0 1 0-18m0 4a1 1 0 0 0-.993.883L11 9v3.986a1 1 0 0 0 .202.617l.09.104l2.106 2.105a1 1 0 0 0 1.498-1.32l-.084-.094L13 12.586V9a1 1 0 0 0-1-1m6-5.394a12 12 0 0 1 3.272 2.776a1 1 0 0 1-1.544 1.27a10 10 0 0 0-2.729-2.315a1 1 0 1 1 1.002-1.731Zm-10.634.365A1 1 0 0 1 7 4.337a10 10 0 0 0-2.729 2.316a1 1 0 1 1-1.544-1.27a12 12 0 0 1 3.271-2.777a1 1 0 0 1 1.367.365Z" /></g></svg>