<svg xmlns="http://www.w3.org/2000/svg" viewBox="0 0 24 24" width="48" height="48"><g fill="none" fill-rule="evenodd"><path fill="currentColor" fill-rule="nonzero" d="M12 2c5.523 0 10 4.477 10 10a9.95 9.95 0 0 1-1.59 5.414a1 1 0 0 1-.113.19l-.072.085A9.99 9.99 0 0 1 12 22C6.477 22 2 17.523 2 12S6.477 2 12 2m5.984 4.695A8 8 0 0 0 4 12a8 8 0 0 0 13.924 5.377l-1.667-.779l-1.74-.816l-.819-.376a9 9 0 0 1-.928 1.114C11.648 17.641 10.52 18 9.5 18C7.632 18 6 16.82 6 15c0-1.684 1.48-3 3-3c1.267 0 2.494.334 3.887.884q.234-.452.444-.917l.203-.467H9a1 1 0 0 1-.117-1.993L9 9.5h2V9H8a1 1 0 0 1-.117-1.993L8 7h3V6a1 1 0 0 1 1.993-.117L13 6v1h3a1 1 0 0 1 .117 1.993L16 9h-3v.5h2a1 1 0 0 1 .939 1.342a25 25 0 0 1-1.21 2.835l.781.36l3.09 1.449l.489.226a8 8 0 0 0-1.105-9.017M9 14c-.48 0-1 .484-1 1c0 .38.368 1 1.5 1l.2-.009c.448-.04 1.002-.232 1.655-.886a6 6 0 0 0 .442-.497C10.687 14.194 9.827 14 9 14" /></g></svg>