<svg xmlns="http://www.w3.org/2000/svg" viewBox="0 0 24 24" width="48" height="48"><g fill="none" fill-rule="evenodd"><path fill="currentColor" d="M7.457 5.027q.339-.44.7-.829A4.99 4.99 0 0 0 12 6a4.99 4.99 0 0 0 3.844-1.802q.36.388.7.83C17.896 6.79 19 9.25 19 12s-1.103 5.209-2.457 6.973q-.339.44-.7.829A4.99 4.99 0 0 0 12 18a4.99 4.99 0 0 0-3.844 1.802q-.36-.388-.7-.83C6.104 17.21 5 14.75 5 12s1.103-5.209 2.457-6.973M13 9a1 1 0 1 0-2 0a1 1 0 1 0 0 2v2a1 1 0 1 0 0 2a1 1 0 1 0 2 0a1 1 0 1 0 0-2v-2a1 1 0 1 0 0-2M9.66 21.122c.723.5 1.547.878 2.34.878s1.617-.378 2.34-.878A3 3 0 0 0 12 20c-.946 0-1.79.438-2.34 1.122M12 2c.793 0 1.617.378 2.34.878A3 3 0 0 1 12 4c-.946 0-1.79-.438-2.34-1.122C10.383 2.378 11.207 2 12 2" /></g></svg>