<svg xmlns="http://www.w3.org/2000/svg" viewBox="0 0 24 24" width="48" height="48"><g fill="none" fill-rule="evenodd"><path fill="currentColor" d="M8.017 2.861a4.218 4.218 0 1 1 5.89 6.04l-.166.149l-1.241 1.06l4.099 4.783c.33-.688.661-1.482.988-2.399a1.5 1.5 0 1 1 2.826 1.01c-.477 1.335-.981 2.488-1.51 3.48l-.2.364l1.436 1.675a1.5 1.5 0 0 1-2.172 2.064l-.106-.112l-.947-1.105a9 9 0 0 1-.964.915C14.232 22.192 12.484 22.5 11 22.5c-3.23 0-6.5-2.576-6.5-6.5c0-1.136.43-2.183.945-3.043c.521-.871 1.193-1.659 1.827-2.307q.37-.377.726-.701l.232-.21l-.599-.698a4.44 4.44 0 0 1 .073-5.858l.159-.167zm2.166 9.157c-.247.22-.508.466-.767.731c-.538.55-1.038 1.15-1.396 1.748c-.365.61-.52 1.114-.52 1.503c0 2.076 1.73 3.5 3.5 3.5c1.016 0 2.018-.192 3.05-1.036c.23-.188.466-.412.709-.683l.183-.21zm1.678-7.035a1.22 1.22 0 0 0-1.623-.09l-.1.09l-.154.154l-.1.11c-.402.495-.43 1.2-.066 1.724l.09.118l.64.745l1.244-1.064l.1-.097a1.22 1.22 0 0 0-.03-1.69Z" /></g></svg>