<svg xmlns="http://www.w3.org/2000/svg" viewBox="0 0 24 24" width="48" height="48"><g fill="none" fill-rule="evenodd"><path fill="currentColor" d="M12 2c5.523 0 10 4.477 10 10s-4.477 10-10 10S2 17.523 2 12S6.477 2 12 2m0 11a5 5 0 0 0-3.307 1.25a1 1 0 0 0 1.323 1.5A3 3 0 0 1 12 15a2.98 2.98 0 0 1 1.984.75a1 1 0 1 0 1.324-1.5A5 5 0 0 0 12 13M7.106 8.553a1 1 0 0 0 .447 1.341l2 1a1 1 0 1 0 .894-1.788l-2-1a1 1 0 0 0-1.341.447m8.447-.447l-2 1a1 1 0 1 0 .894 1.788l2-1a1 1 0 1 0-.894-1.788" /></g></svg>