<svg xmlns="http://www.w3.org/2000/svg" viewBox="0 0 24 24" width="48" height="48"><g fill="none" fill-rule="evenodd"><path fill="currentColor" d="M15.992 3.013C17.326 2.236 19 3.197 19 4.741V8a3 3 0 1 1 0 6v3c0 1.648-1.881 2.589-3.2 1.6l-2.06-1.546A8.66 8.66 0 0 0 10 15.446v2.844a2.71 2.71 0 0 1-5.316.744l-1.57-5.496a4.7 4.7 0 0 1 3.326-7.73l3.018-.168a9.34 9.34 0 0 0 4.19-1.259zM5.634 15.078l.973 3.407A.71.71 0 0 0 8 18.29v-3.01l-1.56-.087a5 5 0 0 1-.806-.115M20 11a1 1 0 0 0-1-1v2a1 1 0 0 0 1-1" /></g></svg>