<svg xmlns="http://www.w3.org/2000/svg" viewBox="0 0 24 24" width="48" height="48"><g fill="none"><path fill="currentColor" d="M20 8a2 2 0 0 1 1.995 1.85L22 10v9a2 2 0 0 1-1.85 1.995L20 21H10a2 2 0 0 1-1.995-1.85L8 19v-9a2 2 0 0 1 1.85-1.994L10 8zm-9.06-4.342a1 1 0 0 1-.598 1.282c-1.879.683-3.26 2.042-4.262 3.516s-1.584 3.008-1.875 3.935c-.231.735-.948.801-1.233.76c-.284-.04-.972-.307-.972-1.095V7a1 1 0 0 1 2 0v.995q.2-.33.426-.664c1.15-1.693 2.835-3.4 5.232-4.271a1 1 0 0 1 1.282.598" /></g></svg>