<svg xmlns="http://www.w3.org/2000/svg" viewBox="0 0 24 24" width="48" height="48"><g fill="none"><path fill="currentColor" d="M15.6 3a.9.9 0 0 1 0 1.8c-1 0-1.739.625-2.232 1.666c1.259-.53 2.607-.713 3.814-.39c1.652.443 2.912 1.38 3.507 2.97c.569 1.52.47 3.485-.172 5.884c-.515 1.923-1.446 3.596-2.71 4.695c-1.287 1.118-2.922 1.633-4.691 1.16a5.7 5.7 0 0 1-1.117-.434a5.7 5.7 0 0 1-1.116.434c-1.769.473-3.404-.042-4.69-1.16c-1.265-1.1-2.195-2.772-2.71-4.695c-.643-2.399-.741-4.365-.173-5.883c.596-1.59 1.856-2.528 3.508-2.97c.732-.196 1.515-.207 2.3-.066C8.29 5.246 7.97 4.189 8.077 4c.131-.225 1.663-.544 2.909.175c.445.257.793.613 1.05.973C12.749 3.976 13.899 3 15.6 3" /></g></svg>