<svg xmlns="http://www.w3.org/2000/svg" viewBox="0 0 24 24" width="48" height="48"><g fill="none" fill-rule="evenodd"><path fill="currentColor" d="M18 2a4 4 0 0 1 4 4v12a4 4 0 0 1-4 4H6a4 4 0 0 1-4-4V6a4 4 0 0 1 4-4zm-2.6 10.669l-1.339 1.507l-.555-1.249a1 1 0 0 0-1.66-.258l-1.34 1.507l-.555-1.249a1 1 0 0 0-1.661-.258l-2.37 2.667a1 1 0 1 0 1.494 1.328l1.34-1.506l.554 1.248a1 1 0 0 0 1.662.258l1.339-1.506l.555 1.248a1 1 0 0 0 1.661.258l1.34-1.506l.554 1.248a1 1 0 1 0 1.828-.812l-1.185-2.667a1 1 0 0 0-1.661-.258m.902-5.657a1 1 0 0 0-.812.235l-.09.089l-1.339 1.506l-.555-1.248a1 1 0 0 0-1.571-.347l-.09.089l-1.34 1.506l-.554-1.248a1 1 0 0 0-1.572-.347l-.09.089l-2.37 2.666a1 1 0 0 0 1.406 1.418l.09-.089l1.338-1.507l.555 1.249a1 1 0 0 0 1.572.347l.09-.089l1.339-1.507l.555 1.249a1 1 0 0 0 1.571.347l.09-.089l1.34-1.507l.554 1.249a1 1 0 0 0 1.87-.703l-.042-.11l-1.185-2.666a1 1 0 0 0-.76-.582" /></g></svg>