<svg xmlns="http://www.w3.org/2000/svg" viewBox="0 0 24 24" width="48" height="48"><g fill="none" fill-rule="evenodd"><path fill="currentColor" d="M9.306 4.637c.921-1.843 3.55-1.843 4.472 0l2.235 4.47q.288-.598.41-1.27a2.833 2.833 0 1 1 5.579.993a10.6 10.6 0 0 1-3.19 5.876l.764 1.527a2.833 2.833 0 0 1-5.068 2.534l-.712-1.423a10.7 10.7 0 0 1-4.508 0l-.712 1.423a2.833 2.833 0 1 1-5.068-2.534l.763-1.527a10.7 10.7 0 0 1-1.743-2.12a2.833 2.833 0 0 1 4.505-3.403zm-.861 6.194c.433.347.925.623 1.458.81l1.192-2.383a.5.5 0 0 1 .894 0l4.307 8.615a.833.833 0 0 0 1.491-.745L11.99 5.53a.5.5 0 0 0-.894 0zm3.627 3.066a6.95 6.95 0 0 1-6.435-3.255a.833.833 0 1 0-1.413.883a8.62 8.62 0 0 0 8.641 3.958zm-6.188 2.056l-.588 1.175a.833.833 0 1 0 1.491.745l.572-1.145q-.772-.331-1.475-.775m11.985-3.133a8.6 8.6 0 0 0 2.164-4.34a.833.833 0 0 0-1.64-.292a6.9 6.9 0 0 1-1.334 3.012z" /></g></svg>