<svg xmlns="http://www.w3.org/2000/svg" viewBox="0 0 24 24" width="48" height="48"><g fill="none" fill-rule="evenodd"><path fill="currentColor" d="M11.5 3.7a2.3 2.3 0 0 1 2.057 1.272l2.733 5.465a6.17 6.17 0 0 0 1.314-2.84a2.3 2.3 0 0 1 4.529.806a10.8 10.8 0 0 1-3.68 6.361l1.104 2.208a2.3 2.3 0 1 1-4.114 2.057l-1.059-2.118a10.8 10.8 0 0 1-2.884.39a10.8 10.8 0 0 1-2.884-.39l-1.059 2.118a2.3 2.3 0 0 1-4.114-2.057l1.104-2.208a10.9 10.9 0 0 1-2.21-2.544a2.3 2.3 0 1 1 3.9-2.44q.216.346.473.657l2.733-5.465A2.3 2.3 0 0 1 11.5 3.7m-.756 8.955a6.3 6.3 0 0 0 1.512 0l-.756-1.512z" /></g></svg>