<svg xmlns="http://www.w3.org/2000/svg" viewBox="0 0 24 24" width="48" height="48"><g fill="none"><path fill="currentColor" d="M10.47 7.758c-.25-1.001-.59-2.173-1.235-3.093C8.544 3.68 7.501 2.983 5.993 3A4 4 0 0 0 6 11a1 1 0 1 0 0-2a2 2 0 1 1 0-4h.013c.765-.01 1.22.293 1.584.813c.411.587.683 1.43.933 2.43c.243.973.863 3.946 1.428 6.708a1357 1357 0 0 1 1.058 5.23a1 1 0 0 0 1.964.016a1461 1461 0 0 1 1.068-5.268c.566-2.77 1.186-5.741 1.422-6.686c.25-1 .522-1.843.933-2.43c.364-.52.82-.823 1.584-.813H18a2 2 0 1 1 0 4a1 1 0 1 0 0 2a4 4 0 0 0 .007-8c-1.508-.017-2.55.679-3.242 1.665c-.645.92-.985 2.092-1.235 3.093c-.25.998-.88 4.026-1.442 6.77l-.087.43l-.084-.408c-.56-2.738-1.19-5.766-1.447-6.792" /></g></svg>