<svg xmlns="http://www.w3.org/2000/svg" viewBox="0 0 24 24" width="48" height="48"><g fill="none" fill-rule="evenodd"><path fill="currentColor" d="M6 2a4 4 0 0 0-4 4v12a4 4 0 0 0 4 4h12a4 4 0 0 0 4-4V6a4 4 0 0 0-4-4zm7.57 4.918c-.468.67-.707 1.505-.873 2.172c-.128.513-.406 1.77-.697 3.116c-.29-1.338-.565-2.591-.697-3.116c-.166-.667-.405-1.503-.873-2.172c-.515-.735-1.308-1.265-2.437-1.252a3 3 0 0 0 .007 6a1 1 0 1 0 0-2a1 1 0 1 1 0-2h.013c.385-.005.59.132.779.4c.235.336.405.844.571 1.51c.162.645.574 2.54.95 4.3a1034 1034 0 0 1 .704 3.309a1 1 0 0 0 1.962.02a1141 1141 0 0 1 .71-3.343c.379-1.764.791-3.66.948-4.287c.166-.665.336-1.173.571-1.51c.188-.267.393-.404.779-.399H16a1 1 0 1 1 0 2a1 1 0 0 0 0 2a3 3 0 0 0 .007-6c-1.129-.013-1.922.517-2.437 1.252" /></g></svg>