<svg xmlns="http://www.w3.org/2000/svg" viewBox="0 0 24 24" width="48" height="48"><g fill="none" fill-rule="evenodd"><path fill="currentColor" d="M6.778 2.025a1 1 0 0 1 .777.143c1.191.794 2.842 1.284 4.718 1.558c1.862.273 3.86.322 5.685.296a2.01 2.01 0 0 1 2.036 1.854l.006.153V8.97a2.01 2.01 0 0 1-2.042 2.007a56 56 0 0 0-1.296-.004l-.662.01V21a1 1 0 0 1-.883.993L15 22h-3a1 1 0 0 1-.993-.883L11 21v-9.498c-1.348.291-2.532.721-3.445 1.33a1 1 0 0 1-.777.143c-.391-.09-.559-.29-.694-.548l-.147-.314l-.057-.126l-.126-.302a10 10 0 0 1-.206-.573A11.8 11.8 0 0 1 5 7.5c0-1.526.271-2.755.548-3.612c.093-.286.186-.531.27-.732l.119-.27c.179-.386.389-.758.84-.861ZM14 11.083q-.503.039-1 .096V20h1zM7.478 4.422A9.7 9.7 0 0 0 7 7.5c0 1.338.247 2.39.478 3.078c1.354-.662 2.926-1.052 4.505-1.283C13.998 9 16.131 8.973 18 9l.003-.364L18 6c-1.87.027-4.001 0-6.017-.295c-1.58-.23-3.151-.621-4.505-1.283" /></g></svg>