<svg xmlns="http://www.w3.org/2000/svg" viewBox="0 0 24 24" width="48" height="48"><g fill="none"><path fill="currentColor" d="M7.555 2.168a1 1 0 0 0-.777-.143c-.452.103-.662.475-.841.862a9 9 0 0 0-.389 1A11.8 11.8 0 0 0 5 7.5c0 1.526.271 2.755.548 3.612c.14.429.28.766.389 1.001c.188.407.303.74.84.862a1 1 0 0 0 .778-.143c.913-.609 2.097-1.039 3.445-1.33V21a1 1 0 0 0 1 1h3a1 1 0 0 0 1-1V10.984a52 52 0 0 1 1.958-.006A2.01 2.01 0 0 0 20 8.97V6.03a2.01 2.01 0 0 0-2.042-2.007c-1.825.026-3.823-.023-5.685-.296c-1.876-.274-3.527-.764-4.718-1.558Z" /></g></svg>