<svg xmlns="http://www.w3.org/2000/svg" viewBox="0 0 24 24" width="48" height="48"><g fill="none"><path fill="currentColor" d="M12 2c5.523 0 10 4.477 10 10s-4.477 10-10 10S2 17.523 2 12S6.477 2 12 2m0 2a8 8 0 1 0 2.97.57a3 3 0 0 1-4.954 2.68a1 1 0 0 1 1.224-1.577l.099.077A1 1 0 1 0 12 4m2.64 11.232a1 1 0 0 1 .128 1.408C14.096 17.447 13.124 18 12 18s-2.096-.553-2.768-1.36a1 1 0 0 1 1.536-1.28c.359.43.798.64 1.232.64s.873-.21 1.232-.64a1 1 0 0 1 1.408-.128M8.5 10a1.5 1.5 0 1 1 0 3a1.5 1.5 0 0 1 0-3m7 0a1.5 1.5 0 1 1 0 3a1.5 1.5 0 0 1 0-3" /></g></svg>