<svg xmlns="http://www.w3.org/2000/svg" viewBox="0 0 24 24" width="48" height="48"><g fill="none" fill-rule="evenodd"><path fill="currentColor" d="M12 2c5.523 0 10 4.477 10 10s-4.477 10-10 10S2 17.523 2 12S6.477 2 12 2m0 2a7.96 7.96 0 0 0-4.5 1.385c.41.464.777.968 1.096 1.503l.044-.02a1 1 0 0 1 .948 1.757l-.146.075c.256.732.43 1.502.509 2.3H10a1 1 0 1 1 0 2h-.05a10 10 0 0 1-.508 2.3l.044.02a1 1 0 1 1-.846 1.812l-.044-.02a10 10 0 0 1-1.097 1.503A7.96 7.96 0 0 0 12 20a7.96 7.96 0 0 0 4.5-1.385q-.616-.699-1.096-1.503l-.044.02a1 1 0 0 1-.846-1.812l.043-.02a10 10 0 0 1-.508-2.3H14a1 1 0 1 1 0-2h.05a10 10 0 0 1 .507-2.3l-.043-.02a1 1 0 0 1 .846-1.813l.044.021A10 10 0 0 1 16.5 5.385A7.96 7.96 0 0 0 12 4m6 2.708a8 8 0 0 0-.773 1.032a1 1 0 0 1-.845 1.809q-.226.702-.32 1.453a1 1 0 0 1 0 1.996q.094.751.32 1.453a1 1 0 0 1 .845 1.808q.346.548.773 1.033A7.97 7.97 0 0 0 20 12a7.97 7.97 0 0 0-2-5.292m-12 0A7.97 7.97 0 0 0 4 12a7.97 7.97 0 0 0 2 5.292a8 8 0 0 0 .773-1.033a1 1 0 0 1 .845-1.808q.226-.702.32-1.453a1 1 0 0 1 0-1.996q-.094-.751-.32-1.453a1 1 0 0 1-.845-1.809A8 8 0 0 0 6 6.708" /></g></svg>