<svg xmlns="http://www.w3.org/2000/svg" viewBox="0 0 24 24" width="48" height="48"><g fill="none"><path fill="currentColor" d="M12 9a1 1 0 0 1 1 1v9h2a1 1 0 1 1 0 2H9a1 1 0 1 1 0-2h2v-9a1 1 0 0 1 1-1M7.05 3.636a1 1 0 0 1 0 1.414A6.98 6.98 0 0 0 5 10c0 1.933.782 3.682 2.05 4.95a1 1 0 0 1-1.414 1.414A8.98 8.98 0 0 1 3 10a8.98 8.98 0 0 1 2.636-6.364a1 1 0 0 1 1.414 0m11.314 0A8.98 8.98 0 0 1 21 10a8.98 8.98 0 0 1-2.636 6.364a1 1 0 0 1-1.414-1.414A6.98 6.98 0 0 0 19 10a6.98 6.98 0 0 0-2.05-4.95a1 1 0 0 1 1.414-1.414M9.879 6.464a1 1 0 0 1 0 1.415A3 3 0 0 0 9 10c0 .829.335 1.577.879 2.121a1 1 0 1 1-1.415 1.415A5 5 0 0 1 7 10c0-1.38.56-2.632 1.464-3.536a1 1 0 0 1 1.415 0m5.657 0A5 5 0 0 1 17 10c0 1.38-.56 2.632-1.464 3.536a1 1 0 1 1-1.415-1.415A3 3 0 0 0 15 10c0-.829-.335-1.577-.879-2.121a1 1 0 0 1 1.415-1.415" /></g></svg>