<svg xmlns="http://www.w3.org/2000/svg" viewBox="0 0 24 24" width="48" height="48"><g fill="none"><path fill="currentColor" d="M12 2a9.96 9.96 0 0 1 6.5 2.4a10 10 0 0 0-2.096 2.488l-.044-.02a1 1 0 1 0-.846 1.812l.043.02a10 10 0 0 0-.508 2.3H15a1 1 0 1 0 0 2h.05a10 10 0 0 0 .507 2.3l-.043.02a1 1 0 1 0 .846 1.812l.044-.02c.56.94 1.27 1.78 2.096 2.488A9.96 9.96 0 0 1 12 22a9.96 9.96 0 0 1-6.5-2.4a10 10 0 0 0 2.096-2.488l.044.02a1 1 0 1 0 .846-1.812l-.043-.02A10 10 0 0 0 8.95 13H9a1 1 0 1 0 0-2h-.05a10 10 0 0 0-.507-2.3l.043-.02a1 1 0 0 0-.846-1.813l-.044.021c-.56-.94-1.27-1.78-2.096-2.488A9.96 9.96 0 0 1 12 2M4.115 5.849A8 8 0 0 1 5.773 7.74a1 1 0 0 0 .845 1.81q.226.7.32 1.452a1 1 0 0 0 0 1.996q-.094.751-.32 1.453a1 1 0 0 0-.845 1.809a8 8 0 0 1-1.658 1.891A9.96 9.96 0 0 1 2 12c0-2.32.79-4.455 2.115-6.151m15.77 0A9.96 9.96 0 0 1 22 12c0 2.32-.79 4.455-2.115 6.151a8 8 0 0 1-1.658-1.891a1 1 0 0 0-.845-1.81a8 8 0 0 1-.32-1.452a1 1 0 0 0 0-1.996q.094-.751.32-1.453a1 1 0 0 0 .845-1.809a8 8 0 0 1 1.658-1.891" /></g></svg>