<svg xmlns="http://www.w3.org/2000/svg" viewBox="0 0 24 24" width="48" height="48"><g fill="none" fill-rule="evenodd"><path fill="currentColor" d="M19.071 4.929c3.905 3.905 3.905 10.237 0 14.142s-10.237 3.905-14.142 0s-3.905-10.237 0-14.142s10.237-3.905 14.142 0M12 13.414L7.094 18.32a7.97 7.97 0 0 0 4.687 1.677a7.98 7.98 0 0 1 1.677-5.125zm2.887 2.887a6 6 0 0 0-1.109 3.5a7.95 7.95 0 0 0 3.128-1.48zm-5.76-5.759a7.98 7.98 0 0 1-5.124 1.677a8 8 0 0 0 1.47 4.408l.207.279L10.586 12zm10.674 3.236a6 6 0 0 0-3.256.944l-.244.165l2.02 2.019a7.95 7.95 0 0 0 1.48-3.128m-1.48-6.684L13.413 12l1.458 1.458a7.98 7.98 0 0 1 5.125-1.677a8 8 0 0 0-1.47-4.408l-.207-.279Zm-6.102-3.091a8 8 0 0 1-1.477 4.857l-.2.268L12 10.586l4.906-4.906a7.97 7.97 0 0 0-4.687-1.677m-6.54 3.091a7.95 7.95 0 0 0-1.48 3.128a6 6 0 0 0 3.256-.944l.244-.165zm4.543-2.895a7.95 7.95 0 0 0-3.128 1.48L9.113 7.7a6 6 0 0 0 1.109-3.5Z" /></g></svg>