<svg xmlns="http://www.w3.org/2000/svg" viewBox="0 0 24 24" width="48" height="48"><g fill="none"><path fill="currentColor" d="m12 13.414l1.458 1.458A8 8 0 0 0 12.091 22a9.97 9.97 0 0 1-6.138-2.034l-.282-.223zm2.887 2.887l3.442 3.442a9.94 9.94 0 0 1-4.21 2.031a6.01 6.01 0 0 1 .768-5.473m-5.76-5.759L10.587 12l-6.33 6.329A9.97 9.97 0 0 1 2 11.909a8 8 0 0 0 7.128-1.367Zm12.647 3.576a9.9 9.9 0 0 1-1.8 3.918l-.23.293l-3.443-3.442a6.01 6.01 0 0 1 5.473-.769m-2.03-8.447A9.97 9.97 0 0 1 22 12.09a8 8 0 0 0-6.878 1.18l-.25.187L13.414 12zM11.908 2a9.97 9.97 0 0 1 6.138 2.033l.282.223L12 10.586l-1.458-1.458A8 8 0 0 0 11.909 2ZM4.257 5.67l3.442 3.442a6.01 6.01 0 0 1-5.473.769a9.94 9.94 0 0 1 2.03-4.211Zm5.625-3.445a6.01 6.01 0 0 1-.611 5.24l-.158.233L5.67 4.257a9.94 9.94 0 0 1 4.21-2.031Z" /></g></svg>