<svg xmlns="http://www.w3.org/2000/svg" viewBox="0 0 24 24" width="48" height="48"><g fill="none" fill-rule="evenodd"><path fill="currentColor" d="M18.5 2a3.5 3.5 0 0 1 1.796 6.505A9 9 0 1 1 3 12c0-1.24.25-2.42.704-3.495a3.5 3.5 0 1 1 4.8-4.8A9 9 0 0 1 12 2.999c1.24 0 2.42.25 3.495.704A3.5 3.5 0 0 1 18.5 2M12 5a7 7 0 1 0 0 14a7 7 0 0 0 0-14m0 7a1.5 1.5 0 0 1 1.012 2.608a.5.5 0 0 0 .488.392a1 1 0 1 1 0 2a2.5 2.5 0 0 1-1.5-.5a2.5 2.5 0 0 1-1.5.5a1 1 0 1 1 0-2a.5.5 0 0 0 .488-.392A1.5 1.5 0 0 1 12 12M9 9a1 1 0 0 1 .993.883L10 10v1a1 1 0 0 1-1.993.117L8 11v-1a1 1 0 0 1 1-1m6 0a1 1 0 0 1 1 1v1a1 1 0 1 1-2 0v-1a1 1 0 0 1 1-1M5.5 4a1.5 1.5 0 0 0-.817 2.758a9 9 0 0 1 2.075-2.075A1.5 1.5 0 0 0 5.5 4m13 0a1.5 1.5 0 0 0-1.258.683a9 9 0 0 1 2.075 2.075A1.499 1.499 0 0 0 18.5 4" /></g></svg>