<svg xmlns="http://www.w3.org/2000/svg" viewBox="0 0 24 24" width="48" height="48"><g fill="none"><path fill="currentColor" d="M12 3a7 7 0 0 1 7 7v3.764l1.822 3.644A1.1 1.1 0 0 1 19.838 19H4.162a1.1 1.1 0 0 1-.984-1.592L5 13.764V10a7 7 0 0 1 7-7m0 2a5 5 0 0 0-5 5v3.764a2 2 0 0 1-.211.894L5.619 17h12.763l-1.17-2.342a2 2 0 0 1-.212-.894V10a5 5 0 0 0-5-5m4.88-2.63a1 1 0 0 1 1.406-.147a10 10 0 0 1 2.61 3.206a1 1 0 0 1-1.778.915a8 8 0 0 0-2.09-2.567a1 1 0 0 1-.148-1.406Zm-9.76 0a1 1 0 0 1-.148 1.407a8 8 0 0 0-2.084 2.555a1 1 0 1 1-1.776-.918a10 10 0 0 1 2.602-3.191a1 1 0 0 1 1.406.148ZM9 20h6a2 2 0 0 1-2 2h-2a2 2 0 0 1-2-2" /></g></svg>