<svg xmlns="http://www.w3.org/2000/svg" viewBox="0 0 24 24" width="48" height="48"><g fill="none" fill-rule="evenodd"><path fill="currentColor" d="M6.972 3.777a1 1 0 1 0-1.258-1.554a10 10 0 0 0-2.602 3.19a1 1 0 1 0 1.776.919a8 8 0 0 1 2.084-2.555m11.314-1.554a1 1 0 1 0-1.258 1.554a8 8 0 0 1 2.09 2.568a1 1 0 1 0 1.778-.916a10 10 0 0 0-2.61-3.206M5 10a7 7 0 0 1 14 0v3.764l1.822 3.644A1.1 1.1 0 0 1 19.838 19H4.162a1.1 1.1 0 0 1-.984-1.592L5 13.764zm4 10h6a2 2 0 0 1-2 2h-2a2 2 0 0 1-2-2" /></g></svg>