<svg xmlns="http://www.w3.org/2000/svg" viewBox="0 0 24 24" width="48" height="48"><g fill="none"><path fill="currentColor" d="m8.11 13.768l3.536 3.535a.5.5 0 0 0 .707 0l3.536-3.535a.5.5 0 0 1 .707 0l1.556 1.555a.5.5 0 0 1 0 .707l-5.799 5.799a.5.5 0 0 1-.707 0L5.848 16.03a.5.5 0 0 1 0-.707l1.556-1.555a.5.5 0 0 1 .707 0Zm12.094-3.735l.069.058l1.556 1.555a.5.5 0 0 1 .058.638l-.058.07l-1.556 1.555a.5.5 0 0 1-.638.058l-.069-.058l-1.556-1.556a.5.5 0 0 1-.057-.637l.057-.07l1.556-1.555a.5.5 0 0 1 .562-.101zm-15.77.058l1.556 1.555a.5.5 0 0 1 0 .707L4.434 13.91a.5.5 0 0 1-.707 0L2.17 12.353a.5.5 0 0 1 0-.707l1.556-1.555a.5.5 0 0 1 .707 0Zm7.85-.058l.07.058l1.555 1.555a.5.5 0 0 1 .058.638l-.058.07l-1.555 1.555a.5.5 0 0 1-.638.058l-.07-.058l-1.555-1.556a.5.5 0 0 1-.058-.637l.058-.07l1.555-1.555a.5.5 0 0 1 .562-.101zm.07-7.862l5.798 5.798a.5.5 0 0 1 0 .707l-1.556 1.556a.5.5 0 0 1-.707 0l-3.535-3.535a.5.5 0 0 0-.708 0l-3.535 3.535a.5.5 0 0 1-.707 0L5.848 8.676a.5.5 0 0 1 0-.707l5.798-5.798a.5.5 0 0 1 .707 0Z" /></g></svg>