<svg xmlns="http://www.w3.org/2000/svg" viewBox="0 0 24 24" width="48" height="48"><g fill="none" fill-rule="evenodd"><path fill="currentColor" d="m19.778 9.525l1.768 1.768a1 1 0 0 1 0 1.414l-8.839 8.839a1 1 0 0 1-1.414 0l-1.768-1.768a1 1 0 0 1 0-1.414l8.839-8.839a1 1 0 0 1 1.414 0m-.707 2.121l-7.425 7.425l.354.354L19.425 12zM14.828 5.99a1 1 0 0 1 1.32-.084l.095.084l1.767 1.767a1 1 0 0 1 .084 1.32l-.084.095l-8.838 8.838a1 1 0 0 1-1.32.084l-.095-.084l-1.767-1.767a1 1 0 0 1-.084-1.32l.084-.095zm.708 2.12L8.11 15.537l.353.353l7.425-7.425l-.353-.353ZM4.222 9.526a1 1 0 0 1 1.32-.083l.094.083l1.768 1.768a1 1 0 0 1 .083 1.32l-.083.094l-1.768 1.768a1 1 0 0 1-1.32.083l-.094-.083l-1.768-1.768a1 1 0 0 1-.083-1.32l.083-.094zm.707 2.121L4.575 12l.354.354l.353-.354zm6.364-9.192a1 1 0 0 1 1.32-.083l.094.083l1.768 1.768a1 1 0 0 1 .083 1.32l-.083.094l-5.303 5.303a1 1 0 0 1-1.32.083l-.095-.083L5.99 9.172a1 1 0 0 1-.084-1.32l.084-.095zM12 4.575l-3.89 3.89l.354.353l3.89-3.89z" /></g></svg>