<svg xmlns="http://www.w3.org/2000/svg" viewBox="0 0 24 24" width="48" height="48"><g fill="none"><path fill="currentColor" d="m19.921 9.75l.07.058l1.838 1.838a.5.5 0 0 1 .058.638l-.058.07l-9.476 9.475a.5.5 0 0 1-.637.058l-.07-.058l-1.838-1.839a.5.5 0 0 1-.058-.637l.058-.07l9.475-9.475a.5.5 0 0 1 .562-.101zm-3.75-3.76l1.84 1.838a.5.5 0 0 1 0 .707l-9.476 9.476a.5.5 0 0 1-.707 0l-1.839-1.839a.5.5 0 0 1 0-.707l9.476-9.475a.5.5 0 0 1 .707 0ZM4.01 9.808a.5.5 0 0 1 .637-.058l.07.058l1.838 1.838a.5.5 0 0 1 .058.638l-.058.07l-1.838 1.838a.5.5 0 0 1-.638.058l-.07-.058l-1.838-1.838a.5.5 0 0 1-.058-.638l.058-.07zm8.274-7.695l.07.058l1.838 1.839a.5.5 0 0 1 .058.638l-.058.069l-5.657 5.657a.5.5 0 0 1-.638.058l-.069-.058l-1.839-1.839a.5.5 0 0 1-.057-.638l.057-.069l5.657-5.657a.5.5 0 0 1 .562-.1z" /></g></svg>