<svg xmlns="http://www.w3.org/2000/svg" viewBox="0 0 24 24" width="48" height="48"><g fill="none" fill-rule="evenodd"><path fill="currentColor" d="M4.747 5.105a.94.94 0 0 0-.41.892l.314 3.287A3 3 0 0 0 7.637 12H9a1 1 0 0 1 .371 1.928l-2.34.937c-.885.354-1.122 1.32-.664 1.932c.288.384.576.731.84.996c.233.233.532.485.865.74c.619.475 1.625.214 1.94-.734l1.04-3.115a1 1 0 0 1 1.897 0l1.038 3.115c.316.948 1.322 1.21 1.941.735a9 9 0 0 0 .865-.741c.265-.265.553-.612.84-.996c.458-.612.222-1.578-.664-1.932l-2.34-.937A1 1 0 0 1 15 12h1.363a3 3 0 0 0 2.986-2.716l.314-3.287a.94.94 0 0 0-.41-.892a.75.75 0 0 0-.858-.001c-2.645 1.708-4.05 3.442-5.5 6.343a1 1 0 0 1-1.79 0c-1.45-2.901-2.855-4.635-5.5-6.343a.75.75 0 0 0-.858.001m-2.4 1.082C2.13 3.913 4.567 2.053 6.69 3.424C9.13 5 10.662 6.639 12 8.9c1.338-2.261 2.87-3.9 5.31-5.476c2.123-1.371 4.56.49 4.344 2.763l-.314 3.287a5 5 0 0 1-2.783 4.02c1.329 1.039 1.818 2.978.677 4.502c-.317.423-.669.853-1.027 1.211c-.317.317-.69.628-1.062.914c-1.88 1.441-4.375.35-5.055-1.69l-.09-.269l-.09.27c-.68 2.04-3.175 3.13-5.055 1.689a11 11 0 0 1-1.062-.914a11.5 11.5 0 0 1-1.027-1.211c-1.141-1.524-.651-3.463.678-4.502a5 5 0 0 1-2.784-4.02z" /></g></svg>