<svg xmlns="http://www.w3.org/2000/svg" viewBox="0 0 24 24" width="48" height="48"><g fill="none"><path fill="currentColor" d="M16.75 1.272a1 1 0 0 1 1 1v1a1 1 0 1 1-2 0v-1a1 1 0 0 1 1-1m-3.897 2.25a1 1 0 0 1 1.366-.366l.866.5a1 1 0 0 1-1 1.732l-.866-.5a1 1 0 0 1-.366-1.366m7.428 1.366a1 1 0 1 0-1-1.732l-.866.5a1 1 0 1 0 1 1.732zm-3.506.842a1 1 0 0 1 .366 1.366l-.275.476l.866.5a1 1 0 0 1 .48 1.066l-.121.59c1.874 2.426 2.274 5.783.676 8.55c-2.142 3.71-6.98 4.837-10.767 2.65c-3.788-2.187-5.231-6.94-3.089-10.65c1.598-2.768 4.705-4.1 7.743-3.689l.45-.4a1 1 0 0 1 1.164-.117l.866.5l.275-.476a1 1 0 0 1 1.366-.366m-2.883 2.434l-.268.238a1 1 0 0 1-.86.232c-2.428-.485-4.901.531-6.12 2.643c-1.547 2.68-.553 6.24 2.356 7.919c2.908 1.68 6.489.76 8.035-1.919c1.22-2.112.863-4.761-.77-6.622a1 1 0 0 1-.247-.728l.018-.132l.072-.352zM12 10.035a1 1 0 0 1 .002 2a1.96 1.96 0 0 0-1.702.983a1 1 0 1 1-1.732-1A3.96 3.96 0 0 1 12 10.035m7.416-3.879l.866.5a1 1 0 1 1-1 1.732l-.866-.5a1 1 0 1 1 1-1.732" /></g></svg>