<svg xmlns="http://www.w3.org/2000/svg" viewBox="0 0 24 24" width="48" height="48"><g fill="none"><path fill="currentColor" d="M16.75 1.272a1 1 0 0 1 1 1v1a1 1 0 1 1-2 0v-1a1 1 0 0 1 1-1m-3.897 2.25a1 1 0 0 1 1.366-.366l.866.5a1 1 0 0 1-1 1.732l-.866-.5a1 1 0 0 1-.366-1.366m7.428 1.366a1 1 0 1 0-1-1.732l-.866.5a1 1 0 1 0 1 1.732zM15.41 6.096a1 1 0 0 1 1.784.895l-.052.105l-.275.476l.866.5a1 1 0 0 1 .497.94l-.017.126l-.121.59c1.874 2.426 2.274 5.783.676 8.55c-2.142 3.71-6.98 4.837-10.767 2.65c-3.788-2.187-5.231-6.94-3.089-10.65c1.55-2.684 4.518-4.018 7.466-3.721l.277.032l.45-.4a1 1 0 0 1 1.05-.174l.114.057l.866.5zM11.502 9.53a3.96 3.96 0 0 0-3.432 1.982a1 1 0 0 0 1.668 1.098l.064-.098c.335-.58.922-.926 1.546-.976l.156-.006a1 1 0 0 0-.002-2m7.913-3.375l.866.5a1 1 0 1 1-1 1.732l-.866-.5a1 1 0 1 1 1-1.732" /></g></svg>