<svg xmlns="http://www.w3.org/2000/svg" viewBox="0 0 24 24" width="48" height="48"><g fill="none"><path fill="currentColor" d="M10.268 20.158c.363.167.655.334.853.457c.285.177.524.385.88.385c.348 0 .595-.21.878-.385c.198-.123.49-.29.853-.457c.733-.339 1.711-.658 2.768-.658c1.279 0 2.438.468 3.18.862a1.59 1.59 0 0 0 1.514-.02c.427-.236.806-.71.806-1.342V6.5c0-.621-.295-1.263-.898-1.629c-.774-.47-2.516-1.371-4.602-1.371c-1.443 0-2.715.43-3.607.842c-.354.164-.656.328-.893.468c-.237-.14-.539-.304-.893-.468C10.215 3.931 8.943 3.5 7.5 3.5c-2.086 0-3.828.9-4.602 1.371A1.89 1.89 0 0 0 2 6.5V19c0 .633.379 1.106.806 1.342c.423.233.996.295 1.515.02c.741-.394 1.9-.862 3.179-.862c1.057 0 2.035.32 2.768.658" /></g></svg>