<svg xmlns="http://www.w3.org/2000/svg" viewBox="0 0 24 24" width="48" height="48"><g fill="none"><path fill="currentColor" d="M2 5a2 2 0 0 1 2-2h6c.77 0 1.469.292 2 .768A3 3 0 0 1 14 3a1 1 0 0 1 .102 1.995l-.204.01A1 1 0 0 0 13 6v12h7v-6a1 1 0 1 1 2 0v6a2 2 0 0 1-2 2h-7.008a1 1 0 0 1-1.984 0H4a2 2 0 0 1-2-2zm18-4a1 1 0 0 1 .946.677l.13.378c.3.879.99 1.57 1.87 1.87l.377.129a1 1 0 0 1 0 1.892l-.378.13c-.879.3-1.57.99-1.87 1.87l-.129.377a1 1 0 0 1-1.892 0l-.13-.378a3 3 0 0 0-1.87-1.87l-.377-.129a1 1 0 0 1 0-1.892l.378-.13c.879-.3 1.57-.99 1.87-1.87l.129-.377l.062-.146A1 1 0 0 1 20 1m0 3.196a5 5 0 0 1-.804.804q.449.355.804.803q.356-.447.803-.803A5 5 0 0 1 20 4.196M4 18h7V6a1 1 0 0 0-1-1H4z" /></g></svg>