<svg xmlns="http://www.w3.org/2000/svg" viewBox="0 0 24 24" width="48" height="48"><g fill="none"><path fill="currentColor" d="M12.642 3.81c.402-.25.894-.294 1.328-.129l.142.063l7.444 3.761a1.51 1.51 0 0 1 .763 1.775c-.39 1.331-.347 1.89-.092 2.521c.24.595.1 1.342-.46 1.781l-.127.09l-10.284 6.509c-.431.273-.98.315-1.457.082l-3.84-1.895l-1.604-.805l-1.14-.582l-.696-.365l-.36-.196l-.261-.15C.978 15.655.66 14.405.666 13.45c.004-.971.338-2.184 1.265-2.85l.3-.207l.858-.561l2.045-1.306zm7.391 6.878l-8.673 5.49q-.106.067-.219.115c-.11.408-.148.701-.144.973c.002.163.02.328.055.517l.042.197l9.148-5.79a4.3 4.3 0 0 1-.21-1.245zM2.8 12.678a2.3 2.3 0 0 0-.134.78c-.003.672.237 1.023.365 1.1l.308.175l.626.333l1.77.903L9.01 17.6a5 5 0 0 1-.014-.303a5.3 5.3 0 0 1 .18-1.4L2.8 12.677Zm16.657-3.992l-5.995-3.03L6.702 9.9l-2.198 1.399l6.026 3.04zm-6.843-1.35a1 1 0 0 1 1.244-.47l.106.048l2.1 1.1a1 1 0 0 1-.822 1.82l-.106-.048l-2.1-1.1a1 1 0 0 1-.422-1.35" /></g></svg>