<svg xmlns="http://www.w3.org/2000/svg" viewBox="0 0 24 24" width="48" height="48"><g fill="none" fill-rule="evenodd"><path fill="currentColor" d="M3 4a2 2 0 0 1 2-2h2c.364 0 .706.097 1 .268A2 2 0 0 1 9 2h2c.727 0 1.364.388 1.714.969c.21-.168.456-.296.732-.37l1.932-.517a2 2 0 0 1 2.45 1.414l4.14 15.455a2 2 0 0 1-1.414 2.45l-1.932.517a2 2 0 0 1-2.45-1.414L13 8.663V20a2 2 0 0 1-2 2H9a2 2 0 0 1-1-.268A2 2 0 0 1 7 22H5a2 2 0 0 1-2-2zm2 0h2v16H5zm6 16H9V4h2zm2.964-15.469l1.931-.517l4.142 15.455l-1.932.517z" /></g></svg>