<svg xmlns="http://www.w3.org/2000/svg" viewBox="0 0 24 24" width="48" height="48"><g fill="none" fill-rule="evenodd"><path fill="currentColor" d="M7.654 2.703a1 1 0 0 1 1.154.37A4.5 4.5 0 0 0 12.5 5c1.108 0 2.12-.399 2.903-1.061a1 1 0 0 1 1.636.624A4 4 0 0 0 21 8a1 1 0 0 1 .8 1.6A3.98 3.98 0 0 0 21 12c0 .902.297 1.731.8 2.4A1 1 0 0 1 21 16a4 4 0 0 0-3.97 3.51a1 1 0 0 1-1.817.446A4.5 4.5 0 0 0 11.5 18a4.48 4.48 0 0 0-3.06 1.2a1 1 0 0 1-1.631-.427A4 4 0 0 0 3 16a1 1 0 0 1-.8-1.6c.503-.669.8-1.498.8-2.4s-.297-1.73-.8-2.4A1 1 0 0 1 3 8a4 4 0 0 0 3.99-4.285a1 1 0 0 1 .664-1.012m1.073 3.09A6.01 6.01 0 0 1 4.58 9.79c.271.684.42 1.43.42 2.21s-.149 1.526-.42 2.21a6 6 0 0 1 3.574 2.717A6.47 6.47 0 0 1 11.5 16c1.543 0 2.96.538 4.075 1.436a6.01 6.01 0 0 1 3.846-3.226A6 6 0 0 1 19 12c0-.78.148-1.525.42-2.21a6.01 6.01 0 0 1-3.967-3.498A6.5 6.5 0 0 1 12.5 7a6.47 6.47 0 0 1-3.773-1.206Z" /></g></svg>