<svg xmlns="http://www.w3.org/2000/svg" viewBox="0 0 24 24" width="48" height="48"><g fill="none"><path fill="currentColor" d="M4 2.5a1.5 1.5 0 1 0 0 3a1.5 1.5 0 0 0 0-3m4 0a1.5 1.5 0 1 0 0 3a1.5 1.5 0 0 0 0-3m4 0a1.5 1.5 0 1 0 0 3a1.5 1.5 0 0 0 0-3m4 0a1.5 1.5 0 1 0 0 3a1.5 1.5 0 0 0 0-3m-12 4a1.5 1.5 0 1 0 0 3a1.5 1.5 0 0 0 0-3m8 0a1.5 1.5 0 1 0 0 3a1.5 1.5 0 0 0 0-3m-8 4a1.5 1.5 0 1 0 0 3a1.5 1.5 0 0 0 0-3m4 0a1.5 1.5 0 1 0 0 3a1.5 1.5 0 0 0 0-3m4 0a1.5 1.5 0 1 0 0 3a1.5 1.5 0 0 0 0-3m4 0a1.5 1.5 0 1 0 0 3a1.5 1.5 0 0 0 0-3m-12 4a1.5 1.5 0 1 0 0 3a1.5 1.5 0 0 0 0-3m8 0a1.5 1.5 0 1 0 0 3a1.5 1.5 0 0 0 0-3m-8 4a1.5 1.5 0 1 0 0 3a1.5 1.5 0 0 0 0-3m4 0a1.5 1.5 0 1 0 0 3a1.5 1.5 0 0 0 0-3m4 0a1.5 1.5 0 1 0 0 3a1.5 1.5 0 0 0 0-3m4 0a1.5 1.5 0 1 0 0 3a1.5 1.5 0 0 0 0-3M21.5 4a1.5 1.5 0 0 0-3 0v16a1.5 1.5 0 0 0 3 0z" /></g></svg>