<svg xmlns="http://www.w3.org/2000/svg" viewBox="0 0 24 24" width="48" height="48"><g fill="none"><path fill="currentColor" d="M4 18.5a1.5 1.5 0 1 1 0 3a1.5 1.5 0 0 1 0-3m4 0a1.5 1.5 0 1 1 0 3a1.5 1.5 0 0 1 0-3m4 0a1.5 1.5 0 1 1 0 3a1.5 1.5 0 0 1 0-3m4 0a1.5 1.5 0 1 1 0 3a1.5 1.5 0 0 1 0-3m4 0a1.5 1.5 0 1 1 0 3a1.5 1.5 0 0 1 0-3m-16-4a1.5 1.5 0 1 1 0 3a1.5 1.5 0 0 1 0-3m8 0a1.5 1.5 0 1 1 0 3a1.5 1.5 0 0 1 0-3m8 0a1.5 1.5 0 1 1 0 3a1.5 1.5 0 0 1 0-3m-16-4a1.5 1.5 0 1 1 0 3a1.5 1.5 0 0 1 0-3m4 0a1.5 1.5 0 1 1 0 3a1.5 1.5 0 0 1 0-3m4 0a1.5 1.5 0 1 1 0 3a1.5 1.5 0 0 1 0-3m4 0a1.5 1.5 0 1 1 0 3a1.5 1.5 0 0 1 0-3m4 0a1.5 1.5 0 1 1 0 3a1.5 1.5 0 0 1 0-3m-16-4a1.5 1.5 0 1 1 0 3a1.5 1.5 0 0 1 0-3m8 0a1.5 1.5 0 1 1 0 3a1.5 1.5 0 0 1 0-3m8 0a1.5 1.5 0 1 1 0 3a1.5 1.5 0 0 1 0-3m0-4a1.5 1.5 0 0 1 .144 2.993L20 5.5H4a1.5 1.5 0 0 1-.144-2.993L4 2.5z" /></g></svg>