<svg xmlns="http://www.w3.org/2000/svg" viewBox="0 0 24 24" width="48" height="48"><g fill="none" fill-rule="evenodd"><path fill="currentColor" d="M19.073 6.493c.736.065 1.455.432 1.902 1.179C21.537 8.609 22 9.997 22 12s-.463 3.39-1.025 4.328c-.447.747-1.166 1.114-1.902 1.18c-.705.062-1.415-.147-2-.498l-3.027-1.816A3 3 0 0 1 12 16a3 3 0 0 1-2.046-.806L6.927 17.01c-.585.351-1.295.56-2 .497c-.736-.065-1.455-.432-1.902-1.179C2.463 15.391 2 14.003 2 12s.463-3.39 1.025-4.328c.447-.747 1.166-1.114 1.902-1.18c.705-.062 1.415.147 2 .498l3.027 1.816A3 3 0 0 1 12 8c.79 0 1.51.306 2.046.806l3.027-1.816c.585-.351 1.295-.56 2-.498Zm-.97 2.212l-3.132 1.878q.03.205.029.417h1a1 1 0 1 1 0 2h-1q0 .211-.029.417l3.131 1.878c.295.177.587.239.794.22c.178-.016.284-.082.363-.214c.355-.593.741-1.617.741-3.301s-.386-2.708-.74-3.3c-.08-.133-.186-.2-.364-.215c-.207-.019-.499.043-.794.22ZM5.197 8.482l-.094.003c-.178.015-.284.082-.363.214C4.386 9.292 4 10.316 4 12s.386 2.708.74 3.3c.08.133.186.2.364.215c.178.016.417-.027.668-.151l.126-.069l3.13-1.878l-.02-.207L9 13H8a1 1 0 0 1-.117-1.993L8 11h1l.007-.21l.022-.207l-3.131-1.878a1.5 1.5 0 0 0-.7-.223ZM12 10a1 1 0 0 0-1 1v2a1 1 0 1 0 2 0v-2a1 1 0 0 0-1-1" /></g></svg>