<svg xmlns="http://www.w3.org/2000/svg" viewBox="0 0 24 24" width="48" height="48"><g fill="none" fill-rule="evenodd"><path fill="currentColor" d="M8.316 2.551a1 1 0 1 0-.632 1.897c.15.05.214.228.13.363L6.99 6.129a2.245 2.245 0 0 0 1.194 3.32a1 1 0 0 0 .632-1.898a.245.245 0 0 1-.13-.362l.824-1.318a2.245 2.245 0 0 0-1.194-3.32m4 0a1 1 0 0 0-.632 1.897c.15.05.214.228.13.363l-.824 1.318a2.245 2.245 0 0 0 1.194 3.32a1 1 0 0 0 .632-1.898a.245.245 0 0 1-.13-.362l.824-1.318a2.245 2.245 0 0 0-1.194-3.32m4 0a1 1 0 0 0-.632 1.897c.15.05.214.228.13.363l-.824 1.318a2.245 2.245 0 0 0 1.194 3.32a1 1 0 0 0 .632-1.898a.245.245 0 0 1-.13-.362l.824-1.318a2.245 2.245 0 0 0-1.194-3.32M4 10a1 1 0 0 0-1 1v1a8 8 0 0 0 5.715 7.669c.356.106.34.286.313.58a5 5 0 0 0-.016.21A1.483 1.483 0 0 0 10.5 22h3c.821 0 1.523-.674 1.488-1.541q-.006-.113-.016-.21c-.027-.294-.043-.474.313-.58A8 8 0 0 0 21 12v-1a1 1 0 0 0-1-1z" /></g></svg>