<svg xmlns="http://www.w3.org/2000/svg" viewBox="0 0 24 24" width="48" height="48"><g fill="none" fill-rule="evenodd"><path fill="currentColor" d="M15 3a4 4 0 0 1 4 4v1.126a4.002 4.002 0 0 1-1.801 7.794a1 1 0 1 0-.398 1.96a6 6 0 0 0 2.09.054A4.002 4.002 0 0 1 12 19.646a4.002 4.002 0 0 1-6.89-1.712a6 6 0 0 0 2.089-.054a1 1 0 1 0-.398-1.96A4 4 0 0 1 5 15.874a4.002 4.002 0 0 1 0-7.748V7a4 4 0 0 1 7-2.646A4 4 0 0 1 15 3m-3 3a1 1 0 0 0-.993.883L11 7v4.535A4 4 0 0 0 9 11a1 1 0 1 0 0 2a2 2 0 0 1 1.995 1.85L11 15v2a1 1 0 0 0 1.993.117L13 17v-2.006A2 2 0 0 1 15 13a1 1 0 1 0 0-2a4 4 0 0 0-1.775.414l-.225.121V7a1 1 0 0 0-1-1" /></g></svg>