<svg xmlns="http://www.w3.org/2000/svg" viewBox="0 0 24 24" width="48" height="48"><g fill="none" fill-rule="evenodd"><path fill="currentColor" d="M9 3a4 4 0 0 0-4 4v1.126a4.002 4.002 0 0 0 0 7.748V17a4 4 0 0 0 7 2.646A4 4 0 0 0 19 17v-1.126a4.002 4.002 0 0 0 0-7.748V7a4 4 0 0 0-7-2.646A4 4 0 0 0 9 3m8 6V7a2 2 0 1 0-4 0v4.535A4 4 0 0 1 15 11a1 1 0 1 1 0 2a2 2 0 0 0-2 2v2a2 2 0 1 0 4 0v-1.126a4 4 0 0 1-.333-.102a1 1 0 1 1 .666-1.886A2 2 0 1 0 18 10a1 1 0 0 1-1-1m-8 4a2 2 0 0 1 2 2v2a2 2 0 1 1-4 0v-1.126q.17-.044.333-.102a1 1 0 1 0-.666-1.886A2 2 0 1 1 6 10a1 1 0 0 0 1-1V7a2 2 0 1 1 4 0v4.535A4 4 0 0 0 9 11a1 1 0 1 0 0 2" /></g></svg>