<svg xmlns="http://www.w3.org/2000/svg" viewBox="0 0 24 24" width="48" height="48"><g fill="none" fill-rule="evenodd"><path fill="currentColor" d="M18 4a1 1 0 0 1 .993.883L19 5v1.565l.116.101l.277.231q.076.063.158.126c.533.415 1.177.832 1.765 1.028a1 1 0 1 1-.632 1.898a7 7 0 0 1-1.43-.694L19 9.091V14h3a1 1 0 0 1 .117 1.993L22 16h-3v3a1 1 0 0 1-1.993.117L17 19v-3H7v3a1 1 0 0 1-1.993.117L5 19v-3H2a1 1 0 0 1-.117-1.993L2 14h3V9.09c-.496.331-1.078.657-1.684.859a1 1 0 0 1-.632-1.898c.588-.196 1.232-.613 1.765-1.028l.158-.126l.277-.231L5 6.565V5a1 1 0 0 1 1.993-.117L7 5v1.722a4.8 4.8 0 0 0 .937.997C8.71 8.338 9.993 9 12 9s3.29-.662 4.063-1.28c.393-.315.664-.626.832-.851L17 6.722V5a1 1 0 0 1 1-1m-1 5.517a7.6 7.6 0 0 1-1.666.895l-.334.121V14h2zm-4 1.436a10.5 10.5 0 0 1-1.677.026L11 10.953V14h2zM7 9.517V14h2v-3.467l-.334-.12a7.6 7.6 0 0 1-1.428-.733z" /></g></svg>