<svg xmlns="http://www.w3.org/2000/svg" viewBox="0 0 24 24" width="48" height="48"><g fill="none" fill-rule="evenodd"><path fill="currentColor" d="M18 4a1 1 0 0 1 1 1v1.565l.116.101l.277.231q.076.063.158.126c.533.415 1.177.832 1.765 1.028a1 1 0 1 1-.632 1.898c-.606-.202-1.188-.528-1.684-.858V14h3a1 1 0 1 1 0 2h-3v3a1 1 0 1 1-2 0v-3H7v3a1 1 0 1 1-2 0v-3H2a1 1 0 1 1 0-2h3V9.09c-.496.331-1.078.657-1.684.859a1 1 0 0 1-.632-1.898c.588-.196 1.232-.613 1.765-1.028l.158-.126l.277-.231L5 6.565V5a1 1 0 0 1 2 0v1.722a4.8 4.8 0 0 0 .937.997C8.71 8.338 9.993 9 12 9s3.29-.662 4.063-1.28c.393-.315.664-.626.832-.851L17 6.722V5a1 1 0 0 1 1-1m-9 6.533V14h2v-3.047a9 9 0 0 1-1.699-.324zm6 0a8.7 8.7 0 0 1-1.634.378l-.366.042V14h2z" /></g></svg>