<svg xmlns="http://www.w3.org/2000/svg" viewBox="0 0 24 24" width="48" height="48"><g fill="none" fill-rule="evenodd"><path fill="currentColor" d="M20.894 20.448A1 1 0 0 1 20 21H5.5c-.632 0-.932-.563-1.2-1.045a11 11 0 0 1-.738-1.616c-.5-1.364-.917-3.293-.548-5.503a11.6 11.6 0 0 1 1.428-3.993c.655-1.109 1.931-1.42 2.991-1.137l2.187.586l1.035-3.864a3 3 0 1 1 5.796 1.553l-1.036 3.864l1.358.364c1.654.443 2.51 2.119 2.278 3.655c-.11.73-.154 1.447-.065 1.968c.114.67.531 1.537.985 2.306c.38.644.74 1.142.816 1.244c.227.308.281.719.107 1.066m-7.082-16.21a1 1 0 0 0-1.225.708l-1.294 4.83a1 1 0 0 1-1.225.707l-3.152-.845c-.383-.103-.646.043-.751.221a9 9 0 0 0-.703 1.495l11.51 3.053c.025-.294.061-.578.101-.842c.105-.691-.297-1.285-.818-1.424l-2.323-.623a1 1 0 0 1-.707-1.225l1.294-4.83a1 1 0 0 0-.707-1.224Zm3.272 12.267L4.966 13.291c-.26 1.724.067 3.248.474 4.36c.208.569.434 1.022.605 1.329l.012.02h1.7c-.377-.792-.763-1.866-.77-2.993a1 1 0 1 1 1.999-.014c.005.776.307 1.614.656 2.308c.138.276.277.515.392.7h8.125c-.403-.7-.86-1.61-1.075-2.496" /></g></svg>