<svg xmlns="http://www.w3.org/2000/svg" viewBox="0 0 24 24" width="48" height="48"><g fill="none"><path fill="currentColor" d="M20.447 6.106a1 1 0 0 1 .447 1.341c-.353.707-1 1.326-1.652 1.76c-.291.194-.62.376-.966.517c.29.71.499 1.475.616 2.276H21a1 1 0 1 1 0 2h-2.012a10 10 0 0 1-.74 3.327c.572.33.963.86 1.209 1.35A5.5 5.5 0 0 1 20 21a1 1 0 0 1-1.993.117L18 21c0-.374-.101-.966-.332-1.428c-.13-.26-.26-.409-.385-.489C16.03 20.844 14.177 22 12 22s-4.03-1.156-5.283-2.917c-.126.08-.255.23-.385.49A3.5 3.5 0 0 0 6 21a1 1 0 1 1-2 0a5.5 5.5 0 0 1 .543-2.322c.246-.492.637-1.02 1.209-1.35A10 10 0 0 1 5.012 14H3a1 1 0 1 1 0-2h2.108a9.8 9.8 0 0 1 .616-2.276a5.5 5.5 0 0 1-.966-.517c-.651-.434-1.3-1.053-1.652-1.76a1 1 0 0 1 1.73-.996l.058.102c.147.293.5.674.973.99C6.353 7.867 6.781 8 7 8h10c.219 0 .647-.133 1.133-.457c.415-.277.736-.603.908-.876l.065-.114a1 1 0 0 1 1.341-.447M16.208 10H7.792C7.294 11.004 7 12.202 7 13.5c0 3.309 1.837 5.773 4 6.364V13a1 1 0 1 1 2 0v6.864c2.163-.591 4-3.055 4-6.364c0-1.298-.294-2.496-.792-3.5M12 3a5 5 0 0 1 4.33 2.5L17.2 7H6.8l.869-1.5A5 5 0 0 1 12 3" /></g></svg>