<svg xmlns="http://www.w3.org/2000/svg" viewBox="0 0 24 24" width="48" height="48"><g fill="none"><path fill="currentColor" d="M14 20a1 1 0 1 1 0 2h-4a1 1 0 1 1 0-2zM12 2c1.176 0 2.298.228 3.328.638a3.01 3.01 0 0 0 1 3.859l.106.066l.06.094A3.01 3.01 0 0 0 18.999 8c.556 0 1.011-.149 1.362-.328a9 9 0 0 1-4 11.202a1 1 0 0 1-.485.126H8.124a1 1 0 0 1-.485-.126A9 9 0 0 1 12 2m0 5a1 1 0 0 0-.946.677l-.13.378c-.3.879-.99 1.57-1.87 1.87l-.377.129a1 1 0 0 0 0 1.892l.378.13c.879.3 1.57.99 1.87 1.87l.129.377a1 1 0 0 0 1.892 0l.13-.378c.3-.879.99-1.57 1.87-1.87l.377-.129a1 1 0 0 0 0-1.892l-.378-.13a3 3 0 0 1-1.87-1.87l-.129-.377A1 1 0 0 0 12 7m7-5c.361 0 .598.187.694.277c.116.11.198.25.269.391a1 1 0 0 0 .4.386c.133.073.257.142.364.256a1.01 1.01 0 0 1 0 1.38c-.107.114-.23.183-.365.256a1 1 0 0 0-.4.386c-.077.144-.147.276-.268.39a1.01 1.01 0 0 1-1.39 0c-.12-.113-.19-.247-.267-.39a1 1 0 0 0-.4-.386a1.3 1.3 0 0 1-.364-.256a1.01 1.01 0 0 1 .001-1.38a1.3 1.3 0 0 1 .364-.256a1 1 0 0 0 .4-.386c.076-.143.147-.277.267-.39C18.4 2.186 18.638 2 19 2" /></g></svg>