<svg xmlns="http://www.w3.org/2000/svg" viewBox="0 0 24 24" width="48" height="48"><g fill="none" fill-rule="evenodd"><path fill="currentColor" d="M19 5a3 3 0 0 1 3 3v8a3 3 0 0 1-3 3H5a3 3 0 0 1-3-3V8a3 3 0 0 1 3-3zm0 2H5a1 1 0 0 0-1 1v8a1 1 0 0 0 1 1h14a1 1 0 0 0 1-1V8a1 1 0 0 0-1-1m-5.5 2a1 1 0 0 1 1 1v.586l1.293-1.293a1 1 0 1 1 1.414 1.414L15.914 12l1.293 1.293a1 1 0 1 1-1.414 1.414L14.586 13.5H14.5v.5a1 1 0 1 1-2 0v-4a1 1 0 0 1 1-1M9.25 9A2.75 2.75 0 0 1 12 11.75v.5a2.75 2.75 0 1 1-5.5 0v-.5A2.75 2.75 0 0 1 9.25 9m0 2a.75.75 0 0 0-.75.75v.5a.75.75 0 0 0 1.5 0v-.5a.75.75 0 0 0-.75-.75" /></g></svg>