<svg xmlns="http://www.w3.org/2000/svg" viewBox="0 0 24 24" width="48" height="48"><g fill="none" fill-rule="evenodd"><path fill="currentColor" d="M12 3a1 1 0 0 1 1 1v.055a8.96 8.96 0 0 1 4.618 1.913l.039-.04a1 1 0 0 1 1.414 1.415l-.04.04A8.96 8.96 0 0 1 20.946 12H21a1 1 0 1 1 0 2h-.055a8.96 8.96 0 0 1-1.913 4.618l.04.039a1 1 0 0 1-1.415 1.414l-.04-.04a9 9 0 0 1-1.256.843a1 1 0 0 1-.485.126H8.124a1 1 0 0 1-.485-.126a9 9 0 0 1-1.257-.842l-.039.04a1 1 0 0 1-1.414-1.415l.04-.04A8.96 8.96 0 0 1 3.054 14H3a1 1 0 1 1 0-2h.055a8.96 8.96 0 0 1 1.913-4.618l-.04-.039A1 1 0 1 1 6.344 5.93l.04.04A8.96 8.96 0 0 1 11 4.054V4a1 1 0 0 1 1-1M8.343 16a13.3 13.3 0 0 0 1.093 3h2.296A11.25 11.25 0 0 1 12 6.596A11.24 11.24 0 0 1 14 13c0 2.695-.95 4.757-1.732 6h2.296a13.3 13.3 0 0 0 1.093-3h.843a1 1 0 1 0 0-2h-.537a13 13 0 0 0 .01-1.842a1 1 0 0 0 .104-.052l.866-.5a1 1 0 1 0-1-1.732l-.278.16a13.3 13.3 0 0 0-1.449-3.676A7 7 0 0 0 12 6a7 7 0 0 0-2.216.358a13.3 13.3 0 0 0-1.449 3.676l-.278-.16a1 1 0 0 0-1 1.732l.866.5q.05.03.103.052A13 13 0 0 0 8.037 14H7.5a1 1 0 1 0 0 2z" /></g></svg>