<svg xmlns="http://www.w3.org/2000/svg" viewBox="0 0 24 24" width="48" height="48"><g fill="none"><path fill="currentColor" d="M16.586 15.172L18 16.585l1.414-1.413a1.001 1.001 0 0 1 1.415 1.414L19.414 18l1.415 1.414a1.001 1.001 0 0 1-1.415 1.415L18 19.414l-1.414 1.415a1 1 0 0 1-1.414-1.415L16.585 18l-1.413-1.414a1 1 0 1 1 1.414-1.414M21 12v1.01a3 3 0 0 0-3 .748A3 3 0 1 0 13.758 18a3 3 0 0 0-.747 3H5a2 2 0 0 1-2-2v-7zm-5-9a1 1 0 0 1 1 1v1h2a2 2 0 0 1 2 2v3H3V7a2 2 0 0 1 2-2h2V4a1 1 0 0 1 2 0v1h6V4a1 1 0 0 1 1-1" /></g></svg>