<svg xmlns="http://www.w3.org/2000/svg" viewBox="0 0 24 24" width="48" height="48"><g fill="none" fill-rule="evenodd"><path fill="currentColor" d="M16 4a2 2 0 0 1 2 2v2.209l2.095-1.29A1.25 1.25 0 0 1 22 7.983v8.034a1.25 1.25 0 0 1-1.905 1.063L18 15.79V18a2 2 0 0 1-2 2H4a2 2 0 0 1-2-2v-5a1 1 0 1 1 2 0v5h12V6h-5a1 1 0 1 1 0-2zm4 5.326l-2 1.233v2.882l2 1.233zM4 2a1 1 0 0 1 .946.677l.13.378c.3.879.99 1.57 1.87 1.87l.377.129a1 1 0 0 1 0 1.892l-.378.13c-.879.3-1.57.99-1.87 1.87l-.129.377a1 1 0 0 1-1.892 0l-.13-.378a3 3 0 0 0-1.87-1.87l-.377-.129a1 1 0 0 1 0-1.892l.378-.13c.879-.3 1.57-.99 1.87-1.87l.129-.377C3.222 2.285 3.552 2 4 2m0 3.196A5 5 0 0 1 3.196 6q.449.355.804.803q.356-.447.803-.803A5 5 0 0 1 4 5.196" /></g></svg>