<svg xmlns="http://www.w3.org/2000/svg" viewBox="0 0 24 24" width="48" height="48"><g fill="none"><path fill="currentColor" d="M14.793 3a1.5 1.5 0 0 1 .9.3a3 3 0 0 0 .338 5.539l.378.13a1 1 0 0 1 .623.622l.129.378A3 3 0 0 0 22 11.236V19a2 2 0 0 1-2 2H4a2 2 0 0 1-2-2V7a2 2 0 0 1 2-2h2.586l1.56-1.56A1.5 1.5 0 0 1 9.207 3zM12 7.5a5 5 0 1 0 0 10a5 5 0 0 0 0-10m0 2a3 3 0 1 1 0 6a3 3 0 0 1 0-6M20 2a1 1 0 0 1 .898.56l.048.117l.13.378a3 3 0 0 0 1.684 1.8l.185.07l.378.129a1 1 0 0 1 .118 1.844l-.118.048l-.378.13a3 3 0 0 0-1.8 1.684l-.07.185l-.129.378a1 1 0 0 1-1.844.117l-.048-.117l-.13-.378a3 3 0 0 0-1.684-1.8l-.185-.07l-.378-.129a1 1 0 0 1-.118-1.844l.118-.048l.378-.13a3 3 0 0 0 1.8-1.684l.07-.185l.129-.378A1 1 0 0 1 20 2" /></g></svg>