<svg xmlns="http://www.w3.org/2000/svg" viewBox="0 0 24 24" width="48" height="48"><g fill="none" fill-rule="evenodd"><path fill="currentColor" d="M14.586 3A2 2 0 0 1 16 3.586L17.414 5H20a2 2 0 0 1 2 2v12a2 2 0 0 1-2 2H4a2 2 0 0 1-2-2V7a2 2 0 0 1 2-2h2.586L8 3.586A2 2 0 0 1 9.414 3zm-5.93 9.5a1 1 0 0 0-.963.693l-.645 2a1 1 0 0 0 1.903.616a4.498 4.498 0 0 0 6.906-.99a1 1 0 1 0-1.713-1.031a2.502 2.502 0 0 1-4.54-.573a1 1 0 0 0-.948-.715M12 8a4.49 4.49 0 0 0-3.857 2.18a1 1 0 1 0 1.714 1.032A2.5 2.5 0 0 1 12 10c1.131 0 2.09.752 2.397 1.785a1 1 0 0 0 1.867.132l.043-.11l.645-2a1 1 0 0 0-1.903-.616A4.48 4.48 0 0 0 12 8" /></g></svg>