<svg xmlns="http://www.w3.org/2000/svg" viewBox="0 0 24 24" width="48" height="48"><g fill="none"><path fill="currentColor" d="M14.586 3A2 2 0 0 1 16 3.586L17.414 5H20a2 2 0 0 1 2 2v12a2 2 0 0 1-2 2H4a2 2 0 0 1-2-2V7a2 2 0 0 1 2-2h2.586L8 3.586A2 2 0 0 1 9.414 3zm0 2H9.414L8 6.414A2 2 0 0 1 6.586 7H4v12h16V7h-2.586A2 2 0 0 1 16 6.414zm-5.93 7.5a1 1 0 0 1 .947.715a2.502 2.502 0 0 0 4.54.573a1 1 0 1 1 1.713 1.032a4.498 4.498 0 0 1-6.905.99a1 1 0 0 1-1.932-.504l.03-.113l.644-2a1 1 0 0 1 .963-.693M12 8a4.5 4.5 0 0 1 3.05 1.19a1 1 0 0 1 1.902.617l-.645 2a1 1 0 0 1-1.91-.022a2.502 2.502 0 0 0-4.54-.573a1 1 0 1 1-1.714-1.032A4.51 4.51 0 0 1 12 8" /></g></svg>