<svg xmlns="http://www.w3.org/2000/svg" viewBox="0 0 24 24" width="48" height="48"><g fill="none" fill-rule="evenodd"><path fill="currentColor" d="M18.664 15.058a1 1 0 0 1 .78 1.838l-.108.046l-4.363 1.558l4.363 1.558a1 1 0 0 1-.56 1.917l-.112-.033L12 19.562l-6.664 2.38a1 1 0 0 1-.78-1.838l.108-.046L9.027 18.5l-4.363-1.558a1 1 0 0 1 .56-1.917l.112.033L12 17.438zM11.23 2.892l.707-.46l.22-.133c.49-.277 1.03-.46 1.497-.054c.28.242.373.583.323.93l-.04.205l-.015.14q-.01.128.008.307c.086.771.611 1.322 1.155 1.821l.457.416l.342.323c.812.792 1.708 1.86 2.085 3.37c.454 1.814.006 3.441-1.182 4.587C15.641 15.452 13.921 16 12 16c-3.169 0-6-2.052-6-5.5c0-2.696 1.782-4.825 3.342-6.19a18 18 0 0 1 1.89-1.418m.99 6.372L12 9l-.221.264l-.237.301l-.187.252l-.2.284C10.609 10.9 10 11.997 10 12.917c0 1.15.896 2.083 2 2.083s2-.933 2-2.083c0-.92-.609-2.017-1.155-2.816l-.2-.284l-.187-.252z" /></g></svg>