<svg xmlns="http://www.w3.org/2000/svg" viewBox="0 0 24 24" width="48" height="48"><g fill="none" fill-rule="evenodd"><path fill="currentColor" d="M18 2a4 4 0 0 1 4 4v12a4 4 0 0 1-4 4H6a4 4 0 0 1-4-4V6a4 4 0 0 1 4-4zm-2.667 8.333a3 3 0 0 0-1.545 5.572a6 6 0 0 1-.43.079c-1.86.266-4.026-.307-5.341-1.677a1 1 0 1 0-1.442 1.386c1.843 1.918 4.696 2.61 7.066 2.27c1.197-.171 2.353-.616 3.228-1.385a4.21 4.21 0 0 0 1.464-3.245a3 3 0 0 0-3-3m0 2a1 1 0 1 1 0 2a1 1 0 0 1 0-2m2.092-4.026c-1.843-1.918-4.696-2.61-7.066-2.27c-1.197.171-2.353.616-3.228 1.385a4.21 4.21 0 0 0-1.464 3.245a3 3 0 1 0 4.545-2.572a6 6 0 0 1 .43-.079c1.86-.266 4.026.308 5.341 1.677a1 1 0 1 0 1.442-1.386m-8.758 1.36a1 1 0 1 1 0 2a1 1 0 0 1 0-2" /></g></svg>