<svg xmlns="http://www.w3.org/2000/svg" viewBox="0 0 24 24" width="48" height="48"><g fill="none" fill-rule="evenodd"><path fill="currentColor" d="M17 10a4 4 0 0 1 4 4c0 1.942-.835 3.497-2.147 4.595c-1.289 1.079-3.005 1.695-4.803 1.899c-3.568.404-7.811-.79-10.324-3.86a1 1 0 0 1 1.548-1.267c1.987 2.43 5.494 3.486 8.551 3.14a8.3 8.3 0 0 0 2.332-.596a4.001 4.001 0 0 1 .843-7.91m0 2a2 2 0 1 0 0 4a2 2 0 0 0 0-4m3.274-4.633a1 1 0 0 1-1.548 1.267c-1.987-2.43-5.494-3.486-8.551-3.14a8.4 8.4 0 0 0-2.332.595A4.001 4.001 0 0 1 7 14a4 4 0 0 1-4-4c0-1.941.835-3.497 2.147-4.595C6.436 4.327 8.152 3.71 9.95 3.507c3.568-.404 7.811.79 10.324 3.86M7 8a2 2 0 1 0 0 4a2 2 0 0 0 0-4" /></g></svg>