<svg xmlns="http://www.w3.org/2000/svg" viewBox="0 0 24 24" width="48" height="48"><g fill="none" fill-rule="evenodd"><path fill="currentColor" d="m17.522 3.38l3.098 3.098a1.5 1.5 0 0 1-.586 2.484l-2.55.85a5 5 0 0 1-1.241 5.016l-1.415 1.414a5 5 0 0 1-5.016 1.242l-.85 2.55a1.5 1.5 0 0 1-2.484.586L3.38 17.522a1.5 1.5 0 0 1 .586-2.484l2.55-.85A5 5 0 0 1 7.757 9.17l1.415-1.414a5 5 0 0 1 5.016-1.241l.85-2.55a1.5 1.5 0 0 1 2.484-.587ZM7.487 15.971l-2.121.707l1.954 1.955l.707-2.122zm3.099-6.8l-1.414 1.414a3 3 0 1 0 4.242 4.242l1.414-1.414a3 3 0 1 0-4.242-4.243Zm6.094-3.806l-.707 2.121l.54.54l2.121-.707z" /></g></svg>