<svg xmlns="http://www.w3.org/2000/svg" viewBox="0 0 24 24" width="48" height="48"><g fill="none" fill-rule="evenodd"><path fill="currentColor" d="M3 4a1 1 0 0 1 1-1h1a2.99 2.99 0 0 1 2.288 1.06A4 4 0 0 1 14 7v6.918A4.7 4.7 0 0 1 17.785 12A3.215 3.215 0 0 1 21 15.215v.285a3.5 3.5 0 0 1-3.5 3.5H17a5 5 0 0 1-2.492-.665A4 4 0 0 1 10.738 21H10a1 1 0 1 1 0-2h.737a2 2 0 0 0 1.923-1.45l.21-.732A5 5 0 0 1 12 14V7a2 2 0 1 0-4 0v8a1 1 0 1 1-2 0V6a1 1 0 0 0-1-1H4a1 1 0 0 1-1-1m12.093 12.316A3 3 0 0 0 17 17h.5a1.5 1.5 0 0 0 1.5-1.5v-.285c0-.671-.544-1.215-1.215-1.215a2.69 2.69 0 0 0-2.588 1.952z" /></g></svg>