<svg xmlns="http://www.w3.org/2000/svg" viewBox="0 0 24 24" width="48" height="48"><g fill="none" fill-rule="evenodd"><path fill="currentColor" d="M15.764 4a3 3 0 0 1 2.683 1.658l1.386 2.771q.366-.15.72-.324a1 1 0 0 1 .894 1.79a32 32 0 0 1-.725.312l.961 1.923A3 3 0 0 1 22 13.473V16a3 3 0 0 1-1 2.236V19.5a1.5 1.5 0 0 1-3 0V19H6v.5a1.5 1.5 0 0 1-3 0v-1.264c-.614-.55-1-1.348-1-2.236v-2.528a3 3 0 0 1 .317-1.341l.953-1.908q-.362-.152-.715-.327a1.01 1.01 0 0 1-.45-1.343a1 1 0 0 1 1.342-.448q.355.175.72.324l1.386-2.77A3 3 0 0 1 8.236 4zM7.5 13a1.5 1.5 0 1 0 0 3a1.5 1.5 0 0 0 0-3m9 0a1.5 1.5 0 1 0 0 3a1.5 1.5 0 0 0 0-3m-.736-7H8.236a1 1 0 0 0-.832.445l-.062.108l-1.27 2.538C7.62 9.555 9.706 10 12 10c2.142 0 4.101-.388 5.61-.817l.317-.092l-1.269-2.538a1 1 0 0 0-.77-.545L15.765 6Z" /></g></svg>