<svg xmlns="http://www.w3.org/2000/svg" viewBox="0 0 24 24" width="48" height="48"><g fill="none"><path fill="currentColor" d="M12 2c2.56 0 4.898.964 6.667 2.547a1 1 0 1 1-1.334 1.49a8 8 0 1 0 0 11.926a1 1 0 1 1 1.334 1.49A9.97 9.97 0 0 1 12 22C6.477 22 2 17.523 2 12S6.477 2 12 2M8.964 8.65a1.192 1.192 0 0 1 1.654-.953l.325.143l.44.202l.349.169l.39.196l.43.223l.462.251l.494.28l.249.145l.469.282l.428.268l.564.368l.464.318l.455.328l.083.061c.635.477.64 1.429.001 1.909l-.283.209l-.393.276l-.496.335l-.387.25l-.43.27l-.473.283q-.123.073-.252.147l-.498.282l-.466.253l-.43.224l-.39.196l-.505.242l-.4.181l-.202.088a1.192 1.192 0 0 1-1.651-.954l-.054-.499l-.03-.334l-.042-.599l-.024-.46l-.018-.506l-.01-.549v-.579l.01-.548l.018-.506l.024-.46l.042-.599l.071-.73z" /></g></svg>