<svg xmlns="http://www.w3.org/2000/svg" viewBox="0 0 24 24" width="48" height="48"><g fill="none" fill-rule="evenodd"><path fill="currentColor" d="M20 5a2 2 0 0 1 2 2v10a2 2 0 0 1-2 2H4a2 2 0 0 1-2-2V7a2 2 0 0 1 2-2zM4.125 14L4 14.003v2.006a.875.875 0 0 1 1 .866l-.002.063L4.99 17h2.006L7 16.875A2.875 2.875 0 0 0 4.125 14m15.75 0a2.875 2.875 0 0 0-2.87 2.706l-.005.169q0 .063.003.125h2.006a.875.875 0 0 1 .991-.991v-2.006zM12 8a4 4 0 1 0 0 8a4 4 0 0 0 0-8m0 2a2 2 0 1 1 0 4a2 2 0 0 1 0-4M7 7H5v.125a.875.875 0 0 1-1 .866v2.006l.125.003A2.875 2.875 0 0 0 7 7.125zm12.009 0h-2.006L17 7.125a2.875 2.875 0 0 0 2.706 2.87l.232.004l.062-.002V7.991a.875.875 0 0 1-1-.866l.002-.063z" /></g></svg>