<svg xmlns="http://www.w3.org/2000/svg" viewBox="0 0 24 24" width="48" height="48"><g fill="none"><path fill="currentColor" d="m11.287 4.717l.307-.13c2.85-1.268 5.68-1.237 7.531-.996l.41.058l.372.063l.333.065l.29.063c.864.198 1.404.937 1.464 1.731l.006.15v11.585c0 1.027-.976 1.701-1.893 1.49l-.28-.062l-.325-.062l-.365-.06a14 14 0 0 0-.616-.079l-.453-.04c-1.483-.104-3.414.001-5.355.79l-.307.13c-2.63 1.17-5.244 1.234-7.087 1.047l-.444-.05l-.41-.06l-.372-.063l-.172-.032l-.45-.095c-.865-.198-1.405-.937-1.465-1.731L2 18.279V6.694c0-1.027.976-1.702 1.893-1.49l.28.062l.325.062l.365.06c1.536.23 3.972.326 6.424-.671M12 8a4 4 0 1 0 0 8a4 4 0 0 0 0-8m0 2a2 2 0 1 1 0 4a2 2 0 0 1 0-4" /></g></svg>