<svg xmlns="http://www.w3.org/2000/svg" viewBox="0 0 24 24" width="48" height="48"><g fill="none" fill-rule="evenodd"><path fill="currentColor" d="M18.296 3.045a1 1 0 0 1 .687.77l1.341 7.155c.13.687.171 1.367.136 2.03H21a1 1 0 1 1 0 2h-.894a8.6 8.6 0 0 1-.551 1.363l1.07.856a1 1 0 1 1-1.25 1.562l-.936-.749A8.43 8.43 0 0 1 12 21a8.43 8.43 0 0 1-6.44-2.968l-.935.749a1 1 0 1 1-1.25-1.562l1.07-.856A8.4 8.4 0 0 1 3.895 15H3a1 1 0 1 1 0-2h.54a8.5 8.5 0 0 1 .136-2.03l1.341-7.154a1 1 0 0 1 1.69-.523l2.414 2.414A1 1 0 0 0 9.828 6h4.344a1 1 0 0 0 .707-.293l2.414-2.414a1 1 0 0 1 1.003-.248m-5.743 11.56l-.553.277l-.553-.276a1 1 0 1 0-.894 1.788l.553.277a2 2 0 0 0 1.788 0l.553-.277a1 1 0 1 0-.894-1.788ZM9.5 10a1.5 1.5 0 1 0 0 3a1.5 1.5 0 0 0 0-3m5 0a1.5 1.5 0 1 0 0 3a1.5 1.5 0 0 0 0-3" /></g></svg>