<svg xmlns="http://www.w3.org/2000/svg" viewBox="0 0 24 24" width="48" height="48"><g fill="none"><path fill="currentColor" d="M12.707 2.808a2 2 0 0 1 2.701-.117l.127.117l5.657 5.656a2 2 0 0 1 .117 2.702l-.117.127l-9.9 9.9a2 2 0 0 1-2.7.116l-.128-.117l-5.657-5.656a2 2 0 0 1-.116-2.702l.116-.127l9.9-9.9Zm7.071 12.728a1 1 0 0 1 1.497 1.32l-.083.094l-4.242 4.242a1 1 0 0 1-1.498-1.32l.083-.094zM14.121 4.222l-9.9 9.9l5.658 5.656l9.899-9.9zm-5.303 9.546a.5.5 0 0 1 .638-.058l.069.058l.707.707a.5.5 0 0 1 .058.638l-.058.069l-.707.707a.5.5 0 0 1-.638.058l-.07-.058l-.706-.707a.5.5 0 0 1-.058-.638l.058-.07zm-.354-10.96a1 1 0 0 1 0 1.414L4.222 8.464A1 1 0 1 1 2.807 7.05L7.05 2.808a1 1 0 0 1 1.414 0" /></g></svg>