<svg xmlns="http://www.w3.org/2000/svg" viewBox="0 0 24 24" width="48" height="48"><g fill="none"><path fill="currentColor" d="M5 5v14h14V5zm4 10.5h6v-1H9zm0-6h2v-1H9zm8 6.5l-.008.153a1.5 1.5 0 0 1-1.339 1.34l-.153.007h-7a1.5 1.5 0 0 1-1.492-1.347L7 16v-2a1.5 1.5 0 0 1 1.5-1.5h7A1.5 1.5 0 0 1 17 14zm-4-6l-.008.153a1.5 1.5 0 0 1-1.339 1.34l-.153.007h-3a1.5 1.5 0 0 1-1.492-1.347L7 10V8a1.5 1.5 0 0 1 1.5-1.5h3A1.5 1.5 0 0 1 13 8zm8 9a2 2 0 0 1-2 2H5a2 2 0 0 1-2-2V5a2 2 0 0 1 2-2h14a2 2 0 0 1 2 2z" /></g></svg>