<svg xmlns="http://www.w3.org/2000/svg" viewBox="0 0 24 24" width="48" height="48"><g fill="none"><path fill="currentColor" d="M12 2q.279 0 .555.016a1 1 0 1 1-.11 1.996a8 8 0 0 0-7.09 12.444c.166.247.213.556.13.84l-.51 1.727l1.728-.507l.109-.026a1 1 0 0 1 .732.155a8 8 0 0 0 12.444-7.09a1 1 0 1 1 1.996-.11Q22 11.721 22 12c0 5.523-4.477 10-10 10a9.96 9.96 0 0 1-5.166-1.439l-3.052.898a1 1 0 0 1-1.241-1.241l.897-3.053A9.96 9.96 0 0 1 2 12C2 6.477 6.477 2 12 2m-3.5 8.5a1.5 1.5 0 1 1 0 3a1.5 1.5 0 0 1 0-3m7 0a1.5 1.5 0 1 1 0 3a1.5 1.5 0 0 1 0-3M19 1a1 1 0 0 1 .946.677l.13.378c.3.879.99 1.57 1.87 1.87l.377.129a1 1 0 0 1 0 1.892l-.378.13c-.879.3-1.57.99-1.87 1.87l-.129.377a1 1 0 0 1-1.892 0l-.13-.378a3 3 0 0 0-1.87-1.87l-.377-.129a1 1 0 0 1 0-1.892l.378-.13c.879-.3 1.57-.99 1.87-1.87l.129-.377l.062-.146A1 1 0 0 1 19 1m0 3.196a5 5 0 0 1-.804.804q.449.355.804.803q.356-.447.803-.803A5 5 0 0 1 19 4.196" /></g></svg>