<svg xmlns="http://www.w3.org/2000/svg" viewBox="0 0 24 24" width="48" height="48"><g fill="none"><path fill="currentColor" d="M21.059 11.003a1 1 0 0 1 .918 1.076C21.618 16.65 17.138 20 12 20c-.652 0-1.289-.056-1.907-.157l-.114.089a7 7 0 0 1-.34.258c-.568.4-1.39.81-2.639.81a1 1 0 0 1-1-1c0-.389.046-.742.009-1.229a2 2 0 0 0-.085-.484q-.013-.032-.022-.048C3.576 16.718 2 14.296 2 11.5C2 6.643 6.656 3 12 3q.553 0 1.092.05a1 1 0 0 1-.184 1.992A10 10 0 0 0 12 5c-4.597 0-8 3.073-8 6.5c0 2.014 1.142 3.872 3.042 5.097c.427.275.648.687.767 1.02c.12.34.17.698.194 1.003q.006.096.008.197c.19-.078.344-.17.475-.263a5 5 0 0 0 .251-.19c.077-.06.182-.146.28-.216c.14-.1.537-.387 1.062-.333l.106.017l.442.072Q11.295 18 12 18c4.402 0 7.727-2.831 7.983-6.08a1 1 0 0 1 1.076-.917M20 1a1 1 0 0 1 .946.677l.13.378c.3.879.99 1.57 1.87 1.87l.377.129a1 1 0 0 1 0 1.892l-.378.13c-.879.3-1.57.99-1.87 1.87l-.129.377a1 1 0 0 1-1.892 0l-.13-.378a3 3 0 0 0-1.87-1.87l-.377-.129a1 1 0 0 1 0-1.892l.378-.13c.879-.3 1.57-.99 1.87-1.87l.129-.377l.062-.146A1 1 0 0 1 20 1m0 3.196a5 5 0 0 1-.804.804q.449.355.804.803q.356-.447.803-.803A5 5 0 0 1 20 4.196" /></g></svg>