<svg xmlns="http://www.w3.org/2000/svg" viewBox="0 0 24 24" width="48" height="48"><g fill="none"><path fill="currentColor" d="M20 12q0-.452-.049-.89a1 1 0 0 1 1.988-.22Q22 11.437 22 12c0 5.523-4.477 10-10 10H4a2 2 0 0 1-2-2v-8C2 6.477 6.477 2 12 2q.563 0 1.11.06a1 1 0 0 1-.22 1.989A8 8 0 0 0 4 12v8h8a8 8 0 0 0 8-8m-8 2a1 1 0 1 1 0 2H9a1 1 0 1 1 0-2zm3-4a1 1 0 1 1 0 2H9a1 1 0 1 1 0-2zm4-9a1 1 0 0 1 .946.677l.13.378c.3.879.99 1.57 1.87 1.87l.377.129a1 1 0 0 1 0 1.892l-.378.13c-.879.3-1.57.99-1.87 1.87l-.129.377a1 1 0 0 1-1.892 0l-.13-.378a3 3 0 0 0-1.87-1.87l-.377-.129a1 1 0 0 1 0-1.892l.378-.13c.879-.3 1.57-.99 1.87-1.87l.129-.377l.062-.146A1 1 0 0 1 19 1m0 3.196a5 5 0 0 1-.804.804q.449.355.804.803q.356-.447.803-.803A5 5 0 0 1 19 4.196" /></g></svg>