<svg xmlns="http://www.w3.org/2000/svg" viewBox="0 0 24 24" width="48" height="48"><g fill="none" fill-rule="evenodd"><path fill="currentColor" d="M12 5c-4.597 0-8 3.073-8 6.5c0 2.014 1.141 3.872 3.042 5.096c.738.476.939 1.403.972 2.222c.753-.31 1.258-1.16 2.172-.986q.875.166 1.814.168c4.597 0 8-3.073 8-6.5S16.597 5 12 5M2 11.5C2 6.643 6.656 3 12 3s10 3.643 10 8.5S17.344 20 12 20q-.981-.001-1.911-.155c-.093.073-.253.205-.45.344C9.07 20.59 8.249 21 7 21a1 1 0 0 1-1-1c0-.55.143-1.234-.094-1.756C3.577 16.723 2 14.298 2 11.5" /></g></svg>