<svg xmlns="http://www.w3.org/2000/svg" viewBox="0 0 24 24" width="48" height="48"><g fill="none"><path fill="currentColor" d="M2.222 11.121a1 1 0 0 1 1.32-.083l.094.083l4.242 4.243a1 1 0 0 1-1.32 1.497l-.094-.083l-4.242-4.242a1 1 0 0 1 0-1.415m20.556-5.656a1 1 0 0 1 .083 1.32l-.083.094l-9.829 9.828a1.1 1.1 0 0 1-1.46.086l-.096-.085l-4.171-4.172a1 1 0 0 1 1.32-1.498l.094.083l3.535 3.536l9.193-9.192a1 1 0 0 1 1.414 0m-5 0a1 1 0 0 1 .083 1.32l-.083.094l-4.95 4.95a1 1 0 0 1-1.497-1.32l.083-.095l4.95-4.95a1 1 0 0 1 1.414 0Z" /></g></svg>