<svg xmlns="http://www.w3.org/2000/svg" viewBox="0 0 24 24" width="48" height="48"><g fill="none"><path fill="currentColor" d="M6.483 19.184a1 1 0 0 1 1.373-.34a8 8 0 0 0 2.235.927a1 1 0 1 1-.48 1.941a10 10 0 0 1-2.789-1.155a1 1 0 0 1-.34-1.373m9.662-.34a1 1 0 0 1 1.033 1.713a10 10 0 0 1-2.79 1.155a1 1 0 0 1-.479-1.942a8 8 0 0 0 2.236-.926M3.019 13.179a1 1 0 0 1 1.21.73a8 8 0 0 0 .926 2.236a1 1 0 0 1-1.711 1.033a10 10 0 0 1-1.156-2.79a1 1 0 0 1 .73-1.21m16.75.73a1 1 0 0 1 1.943.48q-.18.727-.474 1.437q-.295.711-.681 1.352a1 1 0 0 1-1.713-1.034a8 8 0 0 0 .926-2.235M15.535 8.38a1 1 0 0 1 1.414 1.414l-5.656 5.657c-.39.39-1.024.39-1.415 0L7.05 12.623a1 1 0 0 1 1.414-1.414l2.121 2.121zM3.444 6.822a1 1 0 1 1 1.711 1.034a8 8 0 0 0-.925 2.235a1 1 0 0 1-1.942-.48a10 10 0 0 1 1.156-2.789m15.74-.34a1 1 0 0 1 1.373.34a10 10 0 0 1 1.155 2.789a1 1 0 0 1-1.942.48a8 8 0 0 0-.926-2.235a1 1 0 0 1 .34-1.373M13.179 3.02a1 1 0 0 1 1.21-.73a10 10 0 0 1 2.789 1.155a1 1 0 0 1-1.034 1.711a8 8 0 0 0-2.235-.925a1 1 0 0 1-.73-1.211m-3.568-.73a1 1 0 0 1 .48 1.94a8 8 0 0 0-2.235.926a1 1 0 0 1-1.034-1.711a10 10 0 0 1 2.789-1.156" /></g></svg>