<svg xmlns="http://www.w3.org/2000/svg" viewBox="0 0 24 24" width="48" height="48"><g fill="none" fill-rule="evenodd"><path fill="currentColor" d="M10 2c2.222 0 5.757 1.108 6.949 4.684c.436 1.308.38 2.473.225 3.621l-.261 1.732c-.185 1.305-.319 2.85-.05 4.963H18a1 1 0 0 1 1 1v3a1 1 0 0 1-1 1H6a1 1 0 0 1-1-1v-3a1 1 0 0 1 1-1h1.106c.232-1.144.9-2.718 2.564-4.356c.182-.18.29-.387.335-.592c-.342.217-.683.418-1.01.601l-.482.262l-.453.235l-.417.207l-.537.252l-.287.129l-.119.052a1.48 1.48 0 0 1-1.64-.316l-1.477-1.477a1.5 1.5 0 0 1-.188-1.893l3.451-5.176l-.74-1.48A1 1 0 0 1 7 2zm7 17H7v1h10zM10 4H8.618l.276.553a1 1 0 0 1 .004.886l-.066.116l-3.545 5.318l.94.94l.37-.173l.208-.1l.456-.227c.798-.409 1.766-.96 2.628-1.604a1 1 0 0 1 1.318.084c1.205 1.205.993 3.043-.015 4.152l-.12.125c-1.084 1.067-1.61 2.047-1.859 2.786L9.167 17h5.682a19.4 19.4 0 0 1 .046-4.97l.077-.546l.17-1.116c.178-1.2.244-2.047-.09-3.052C14.242 4.892 11.777 4 10 4M9 7a1 1 0 1 1 0 2a1 1 0 0 1 0-2" /></g></svg>