<svg xmlns="http://www.w3.org/2000/svg" viewBox="0 0 24 24" width="48" height="48"><g fill="none" fill-rule="evenodd"><path fill="currentColor" d="M7 2h3c2.222 0 5.757 1.108 6.949 4.684c.545 1.636.322 3.047.096 4.481q-.03.18-.057.362c-.217 1.414-.43 3.078-.125 5.473H18a1 1 0 0 1 1 1v3a1 1 0 0 1-1 1H6a1 1 0 0 1-1-1v-3a1 1 0 0 1 1-1h1.106c.232-1.144.9-2.718 2.564-4.356c.182-.18.29-.387.335-.592A25 25 0 0 1 6.7 13.79a1.48 1.48 0 0 1-1.64-.316l-1.477-1.477a1.5 1.5 0 0 1-.188-1.893l3.451-5.176l-.74-1.48A1 1 0 0 1 7 2m2 7a1 1 0 1 0 0-2a1 1 0 0 0 0 2" /></g></svg>