<svg xmlns="http://www.w3.org/2000/svg" viewBox="0 0 24 24" width="48" height="48"><g fill="none"><path fill="currentColor" d="M20.132 5.99a3 3 0 0 0-1.345-.777a3 3 0 1 0-5.606 2.07l-.808.81l-.034-.005c-.927-.117-1.956-.048-2.969.152c-2 .396-4.149 1.347-5.502 2.7c-1.366 1.366-1.93 2.978-1.786 4.591c.142 1.583.954 3.062 2.14 4.247s2.664 1.999 4.247 2.14c1.613.145 3.225-.42 4.592-1.786c1.352-1.353 2.304-3.5 2.7-5.502c.2-1.012.268-2.042.152-2.968l-.005-.034l.809-.81a3.001 3.001 0 0 0 3.415-4.828" /></g></svg>