<svg xmlns="http://www.w3.org/2000/svg" viewBox="0 0 24 24" width="48" height="48"><g fill="none" fill-rule="evenodd"><path fill="currentColor" d="m12.373 8.092l.809-.809a3.001 3.001 0 1 1 5.605-2.07a3 3 0 1 1-2.07 5.606l-.809.809l.005.034c.116.926.047 1.956-.153 2.968c-.395 2.001-1.347 4.15-2.7 5.502c-1.366 1.366-2.978 1.93-4.591 1.786c-1.583-.141-3.061-.954-4.247-2.14c-1.186-1.185-1.998-2.663-2.14-4.247c-.144-1.613.42-3.225 1.786-4.591C5.221 9.587 7.37 8.636 9.37 8.24c1.013-.2 2.042-.269 2.969-.152zm5.575-.979a1 1 0 0 0-2.058 1.705l-.737.736a3.1 3.1 0 0 0-.707-.707l.736-.736a1 1 0 0 0 0-1.414a1 1 0 1 1 1.705-.644a1 1 0 0 0 1.06 1.06Zm-12.665 5.24c.99-.99 2.73-1.806 4.475-2.15c.86-.17 1.668-.214 2.33-.13c.677.084 1.101.288 1.326.513s.429.65.514 1.326c.084.663.04 1.47-.13 2.33c-.345 1.744-1.161 3.485-2.152 4.476c-.976.977-2.016 1.296-2.999 1.208c-1.013-.09-2.075-.626-3.01-1.562c-.937-.935-1.472-1.998-1.563-3.01c-.088-.984.232-2.023 1.209-3Z" /></g></svg>