<svg xmlns="http://www.w3.org/2000/svg" viewBox="0 0 24 24" width="48" height="48"><g fill="none" fill-rule="evenodd"><path fill="currentColor" d="M12 2a1 1 0 0 1 .894.553l.804 1.607A9 9 0 1 1 3 13a9 9 0 0 1 7.302-8.84l.804-1.607A1 1 0 0 1 12 2M5.013 12.563a7 7 0 0 0 .488 3.045q.412.131.45.14c1.659.412 3.479.248 5.22-.895l.248-.17c2.35-1.679 4.853-1.941 7.112-1.38q.258.064.456.127a7 7 0 0 0-.492-3.045l-.446-.141c-1.658-.412-3.478-.248-5.22.896l-.248.17c-2.349 1.678-4.852 1.94-7.112 1.38a8 8 0 0 1-.456-.127m.415-1.98q.482.156.523.166c1.659.411 3.479.247 5.22-.896l.248-.17c1.814-1.296 3.72-1.748 5.535-1.628a7.003 7.003 0 0 0-11.526 2.53m13.146 4.827l-.525-.166c-1.658-.412-3.478-.248-5.22.896l-.248.17c-1.817 1.298-3.726 1.749-5.543 1.627a7.003 7.003 0 0 0 11.536-2.527" /></g></svg>