<svg xmlns="http://www.w3.org/2000/svg" viewBox="0 0 24 24" width="48" height="48"><g fill="none" fill-rule="evenodd"><path fill="currentColor" d="M12.894 2.553a1 1 0 0 0-1.788 0l-.804 1.607a9 9 0 1 0 3.396 0zm4.06 5.502c-1.815-.12-3.72.331-5.535 1.628l-.248.17c-1.742 1.143-3.561 1.307-5.22.896a23 23 0 0 1-.523-.165a7 7 0 0 0-.415 1.979q.2.063.456.127c2.26.56 4.763.298 7.112-1.38l.248-.17c1.742-1.144 3.561-1.308 5.22-.896l.446.141a7 7 0 0 0-1.54-2.33m2.033 5.375a8 8 0 0 0-.456-.127c-2.26-.561-4.763-.299-7.112 1.38l-.248.17c-1.742 1.143-3.561 1.307-5.22.896a19 19 0 0 1-.45-.142c.354.88.88 1.67 1.537 2.33c1.817.122 3.726-.329 5.543-1.627l.248-.17c1.742-1.144 3.561-1.308 5.22-.896l.525.166a7 7 0 0 0 .413-1.98" /></g></svg>