<svg xmlns="http://www.w3.org/2000/svg" viewBox="0 0 24 24" width="48" height="48"><g fill="none" fill-rule="evenodd"><path fill="currentColor" d="M12 2c5.523 0 10 4.477 10 10s-4.477 10-10 10S2 17.523 2 12S6.477 2 12 2M4.546 9.09a8.002 8.002 0 0 0 6.096 10.796l.248.038l1.708-2.96a5 5 0 0 1-4.86-2.35zM19.419 9H16c.628.836 1 1.874 1 3c0 .942-.26 1.823-.713 2.575l-3.08 5.335A8.002 8.002 0 0 0 19.419 9M12 9a3 3 0 1 0 0 6a3 3 0 0 0 0-6m0-5a7.98 7.98 0 0 0-6.134 2.864l-.172.213L7.4 10.034a5 5 0 0 1 4.362-3.028L12 7h6.245A7.99 7.99 0 0 0 12 4" /></g></svg>