<svg xmlns="http://www.w3.org/2000/svg" viewBox="0 0 24 24" width="48" height="48"><g fill="none"><path fill="currentColor" d="M6.342 19.161a1.5 1.5 0 0 1 2.036-.593a7.6 7.6 0 0 0 1.544.64a1.5 1.5 0 0 1-.835 2.881a10.6 10.6 0 0 1-2.153-.89a1.5 1.5 0 0 1-.592-2.038m9.285-.596a1.5 1.5 0 0 1 1.448 2.628a10.6 10.6 0 0 1-2.153.893a1.5 1.5 0 0 1-.838-2.88a7.6 7.6 0 0 0 1.543-.64M2.935 13.064a1.5 1.5 0 0 1 1.86 1.021a7.6 7.6 0 0 0 .639 1.543a1.5 1.5 0 1 1-2.628 1.447a10.6 10.6 0 0 1-.893-2.152a1.5 1.5 0 0 1 1.022-1.86m16.272 1.014a1.5 1.5 0 0 1 2.882.835a10.6 10.6 0 0 1-.89 2.153a1.5 1.5 0 0 1-2.63-1.444a7.6 7.6 0 0 0 .638-1.544M2.802 6.934a1.5 1.5 0 0 1 2.629 1.444a7.6 7.6 0 0 0-.639 1.544a1.5 1.5 0 0 1-2.88-.835a10.6 10.6 0 0 1 .89-2.153m16.354-.599a1.5 1.5 0 0 1 2.038.59a10.6 10.6 0 0 1 .892 2.152a1.5 1.5 0 0 1-2.88.838a7.6 7.6 0 0 0-.64-1.543a1.5 1.5 0 0 1 .59-2.037M9.078 1.913a1.5 1.5 0 0 1 .837 2.881a7.6 7.6 0 0 0-1.543.64a1.5 1.5 0 0 1-1.446-2.628a10.6 10.6 0 0 1 2.152-.893m3.976 1.02a1.5 1.5 0 0 1 1.858-1.022a10.6 10.6 0 0 1 2.154.89a1.5 1.5 0 0 1-1.444 2.63a7.6 7.6 0 0 0-1.544-.639a1.5 1.5 0 0 1-1.024-1.858" /></g></svg>