<svg xmlns="http://www.w3.org/2000/svg" viewBox="0 0 24 24" width="48" height="48"><g fill="none" fill-rule="evenodd"><path fill="currentColor" d="M10 13a1 1 0 0 1 1 1v3a4 4 0 1 1-4-4zm7 0a4 4 0 1 1-4 4v-3a1 1 0 0 1 1-1zm0-10a1 1 0 0 1 .946.677l.13.378a3 3 0 0 0 1.869 1.87l.378.129a1 1 0 0 1 0 1.892l-.378.13a3 3 0 0 0-1.87 1.869l-.129.378a1 1 0 0 1-1.892 0l-.13-.378a3 3 0 0 0-1.869-1.87l-.378-.129a1 1 0 0 1 0-1.892l.378-.13a3 3 0 0 0 1.87-1.869l.129-.378A1 1 0 0 1 17 3M7 3a4 4 0 0 1 4 4v3a1 1 0 0 1-1 1H7a4 4 0 1 1 0-8" /></g></svg>