<svg xmlns="http://www.w3.org/2000/svg" viewBox="0 0 24 24" width="48" height="48"><g fill="none"><path fill="currentColor" d="M9 15H7a2 2 0 1 0 2 2zm10 2a2 2 0 0 0-2-2h-2v2a2 2 0 1 0 4 0M9 7a2 2 0 1 0-2 2h2zm8-4a1 1 0 0 1 .946.677l.13.378c.3.879.99 1.57 1.87 1.87l.377.129a1 1 0 0 1 0 1.892l-.378.13c-.879.3-1.57.99-1.87 1.87l-.129.377a1 1 0 0 1-1.892 0l-.13-.378a3 3 0 0 0-1.87-1.87l-.377-.129a1 1 0 0 1 0-1.892l.378-.13c.879-.3 1.57-.99 1.87-1.87l.129-.377l.062-.146A1 1 0 0 1 17 3m0 3.196a5 5 0 0 1-.804.804q.449.355.804.803q.356-.447.803-.803A5 5 0 0 1 17 6.196M11 17a4 4 0 1 1-4-4h3a1 1 0 0 1 1 1zm10 0a4 4 0 0 1-8 0v-3a1 1 0 0 1 1-1h3a4 4 0 0 1 4 4m-10-7a1 1 0 0 1-1 1H7a4 4 0 1 1 4-4z" /></g></svg>