<svg xmlns="http://www.w3.org/2000/svg" viewBox="0 0 24 24" width="48" height="48"><g fill="none"><path fill="currentColor" d="M5 15v4h4v-4zm10 0v4h4v-4zM5 5v4h4V5zm12-2a1 1 0 0 1 .946.677l.13.378c.3.879.99 1.57 1.87 1.87l.377.129a1 1 0 0 1 0 1.892l-.378.13c-.879.3-1.57.99-1.87 1.87l-.129.377a1 1 0 0 1-1.892 0l-.13-.378a3 3 0 0 0-1.87-1.87l-.377-.129a1 1 0 0 1 0-1.892l.378-.13c.879-.3 1.57-.99 1.87-1.87l.129-.377C16.222 3.285 16.552 3 17 3m0 3.196a5 5 0 0 1-.804.804q.449.355.804.803q.356-.447.803-.803A5 5 0 0 1 17 6.196M11 19a2 2 0 0 1-2 2H5a2 2 0 0 1-2-2v-4a2 2 0 0 1 2-2h4a2 2 0 0 1 2 2zm10 0a2 2 0 0 1-2 2h-4a2 2 0 0 1-2-2v-4a2 2 0 0 1 2-2h4a2 2 0 0 1 2 2zM11 9a2 2 0 0 1-2 2H5a2 2 0 0 1-2-2V5a2 2 0 0 1 2-2h4a2 2 0 0 1 2 2z" /></g></svg>