<svg xmlns="http://www.w3.org/2000/svg" viewBox="0 0 24 24" width="48" height="48"><g fill="none" fill-rule="evenodd"><path fill="currentColor" d="M12 2a9 9 0 0 1 9 9c0 3.074-1.676 5.59-3.442 7.395a20.4 20.4 0 0 1-2.876 2.416l-.426.29l-.2.133l-.377.24l-.336.205l-.416.242a1.87 1.87 0 0 1-1.854 0l-.416-.242l-.52-.32l-.192-.125l-.41-.273a20.6 20.6 0 0 1-3.093-2.566C4.676 16.589 3 14.074 3 11a9 9 0 0 1 9-9m0 4a1 1 0 0 0-1 1v5a1 1 0 0 0 .293.707l2.5 2.5a1 1 0 0 0 1.414-1.414L13 11.586V7a1 1 0 0 0-1-1" /></g></svg>