<svg xmlns="http://www.w3.org/2000/svg" viewBox="0 0 24 24" width="48" height="48"><g fill="none" fill-rule="evenodd"><path fill="currentColor" d="M7.91 6.91a5.501 5.501 0 0 1 10.267.23a5.001 5.001 0 0 1 .525 9.562A5 5 0 0 1 14 20H6.36a4.36 4.36 0 0 1-1.852-8.308A5.5 5.5 0 0 1 7.911 6.91Zm2.615-.385a5.5 5.5 0 0 1 4.652 3.614a5.005 5.005 0 0 1 3.772 4.142a3 3 0 0 0-1.653-5.267a1 1 0 0 1-.88-.778a3.502 3.502 0 0 0-5.89-1.711ZM10 8.5a3.5 3.5 0 0 0-3.487 3.802a1 1 0 0 1-.746 1.053A2.362 2.362 0 0 0 6.36 18H14a3 3 0 0 0 3-3a3 3 0 0 0-2.704-2.986a1 1 0 0 1-.88-.778A3.5 3.5 0 0 0 10 8.5" /></g></svg>