<svg xmlns="http://www.w3.org/2000/svg" viewBox="0 0 24 24" width="48" height="48"><g fill="none"><path fill="currentColor" d="M14.5 16a2.5 2.5 0 1 1-1.667 4.363a1 1 0 0 1 1.235-1.568l.099.078A.5.5 0 1 0 14.5 18H7a1 1 0 1 1 0-2zm-3-14a6.5 6.5 0 0 1 6.086 4.212a6.002 6.002 0 0 1 1.25 11.077a4.51 4.51 0 0 0-3.306-3.17a5 5 0 0 0-8.86-4.62A3 3 0 0 0 6.267 11H3q-.315 0-.61.062A5.02 5.02 0 0 1 5 8.416A6.5 6.5 0 0 1 11.5 2M11 9a3 3 0 1 1 0 6H3a1 1 0 1 1 0-2h8a1 1 0 1 0-.803-1.596l-.064.097a1 1 0 0 1-1.731-1.002A3 3 0 0 1 11 9" /></g></svg>