<svg xmlns="http://www.w3.org/2000/svg" viewBox="0 0 24 24" width="48" height="48"><g fill="none"><path fill="currentColor" d="M14.5 16a2.5 2.5 0 1 1-1.667 4.363a1 1 0 0 1 1.235-1.568l.099.078A.5.5 0 1 0 14.5 18H7a1 1 0 1 1 0-2zm-3-14a6.5 6.5 0 0 1 6.086 4.212A6.002 6.002 0 0 1 19.6 16.799a1 1 0 0 1-1.201-1.598a4.001 4.001 0 0 0-1.75-7.148a1 1 0 0 1-.804-.727a4.5 4.5 0 0 0-8.817 1.68a1 1 0 0 1-.754 1.082a3 3 0 0 0-1.525.928a1 1 0 1 1-1.5-1.324A5 5 0 0 1 5 8.416A6.5 6.5 0 0 1 11.5 2M11 9a3 3 0 1 1 0 6H3a1 1 0 1 1 0-2h8a1 1 0 1 0-.803-1.596l-.064.097a1 1 0 0 1-1.731-1.002A3 3 0 0 1 11 9" /></g></svg>