<svg xmlns="http://www.w3.org/2000/svg" viewBox="0 0 24 24" width="48" height="48"><g fill="none"><path fill="currentColor" d="M14.5 19a1.5 1.5 0 1 1 0 3a1.5 1.5 0 0 1 0-3m-4-2a1.5 1.5 0 1 1 0 3a1.5 1.5 0 0 1 0-3m1-15a6.5 6.5 0 0 1 6.086 4.212a6.002 6.002 0 0 1 .19 11.52A3.5 3.5 0 0 0 14.5 13a1.52 1.52 0 0 1-1.199-.599a3.5 3.5 0 0 0-6.012 3.492a1.54 1.54 0 0 1 0 1.216q-.184.422-.253.892H7a5 5 0 0 1-2-9.584A6.5 6.5 0 0 1 11.5 2m3 13a1.5 1.5 0 1 1 0 3a1.5 1.5 0 0 1 0-3m-4-2a1.5 1.5 0 1 1 0 3a1.5 1.5 0 0 1 0-3" /></g></svg>