<svg xmlns="http://www.w3.org/2000/svg" viewBox="0 0 24 24" width="48" height="48"><g fill="none" fill-rule="evenodd"><path fill="currentColor" d="M12 5a3 3 0 0 0-2.582 4.528a1 1 0 0 1-.998 1.501a3 3 0 1 0 1.317 5.417a1 1 0 0 1 1.555 1.036A20 20 0 0 1 10.565 20h2.87c-.302-.81-.54-1.691-.727-2.518a1 1 0 0 1 1.555-1.036a3 3 0 1 0 1.317-5.417a1 1 0 0 1-.998-1.5A3 3 0 0 0 12 5M7 8a5 5 0 1 1 9.883 1.078a5.002 5.002 0 0 1-1.705 9.855c.203.602.43 1.136.68 1.552A1 1 0 0 1 15 22H9a1 1 0 0 1-.857-1.515c.25-.416.476-.95.679-1.552a5 5 0 0 1-1.705-9.855A5 5 0 0 1 7 8" /></g></svg>