<svg xmlns="http://www.w3.org/2000/svg" viewBox="0 0 24 24" width="48" height="48"><g fill="none"><path fill="currentColor" d="M12 5c2.592 0 4.986.465 6.77 1.258c.89.396 1.674.893 2.247 1.496c.53.557.914 1.243.975 2.029L22 10v4c0 .878-.404 1.639-.983 2.246c-.573.603-1.356 1.1-2.247 1.496C16.986 18.535 14.592 19 12 19s-4.986-.465-6.77-1.258c-.89-.396-1.674-.893-2.247-1.496c-.53-.557-.914-1.243-.975-2.029L2 14v-4c0-.878.404-1.639.983-2.246c.573-.603 1.356-1.1 2.247-1.496C7.014 5.465 9.408 5 12 5m8 8.08c-.375.246-.79.466-1.23.662C16.986 14.535 14.592 15 12 15s-4.986-.465-6.77-1.258A9 9 0 0 1 4 13.08V14c0 .227.1.518.432.868c.337.354.872.719 1.61 1.047C7.516 16.57 9.622 17 12 17s4.484-.43 5.958-1.085c.738-.328 1.273-.693 1.61-1.047c.333-.35.432-.641.432-.868z" /></g></svg>