<svg xmlns="http://www.w3.org/2000/svg" viewBox="0 0 24 24" width="48" height="48"><g fill="none" fill-rule="evenodd"><path fill="currentColor" d="M4 12a7 7 0 0 1 13.491-2.625a1 1 0 0 0 1.854-.75A9.003 9.003 0 1 0 3.27 16.61l-.78 2.649a1.008 1.008 0 0 0 1.252 1.252l2.65-.78a8.95 8.95 0 0 0 3.485 1.2a1 1 0 1 0 .248-1.985a6.95 6.95 0 0 1-2.88-1.038a1.43 1.43 0 0 0-1.171-.168l-1.152.339l.339-1.152c.12-.408.047-.834-.168-1.17A6.96 6.96 0 0 1 4 12m16 4.5a3.5 3.5 0 1 0-1.627 2.957a1.26 1.26 0 0 1 .91-.175a1.26 1.26 0 0 1 .174-.91A3.5 3.5 0 0 0 20 16.5M16.5 11a5.5 5.5 0 0 1 4.821 8.148l.386 1.311a1.005 1.005 0 0 1-1.248 1.248l-1.31-.386A5.5 5.5 0 1 1 16.5 11" /></g></svg>