<svg xmlns="http://www.w3.org/2000/svg" viewBox="0 0 24 24" width="48" height="48"><g fill="none" fill-rule="evenodd"><path fill="currentColor" d="M12 2a1 1 0 0 1 .993.883L13 3v2.17a3 3 0 0 1 1.093 4.98l-.144.131l1.834 4.77a8 8 0 0 0 2.18-1.718a1 1 0 1 1 1.49 1.334a10 10 0 0 1-2.578 2.066l-.37.197l1.428 3.711a1 1 0 0 1-1.818.824l-.048-.106l-1.428-3.711a10.05 10.05 0 0 1-4.915.092l-.363-.092l-1.428 3.711a1 1 0 0 1-1.902-.607l.036-.111l3.984-10.36a3 3 0 0 1 .776-5.043L11 5.17V3a1 1 0 0 1 1-1m1.917 13.77l-1.835-4.771L12 11l-.082-.001l-1.835 4.77A8 8 0 0 0 12 16c.66 0 1.303-.08 1.917-.23M12 7a1 1 0 1 0 0 2a1 1 0 0 0 0-2" /></g></svg>