<svg xmlns="http://www.w3.org/2000/svg" viewBox="0 0 24 24" width="48" height="48"><g fill="none" fill-rule="evenodd"><path fill="currentColor" d="M6.593 16.744a1 1 0 0 1-.246 1.393a1.3 1.3 0 0 0-.319.294l-.024.042l.035.058c.03.04.078.095.16.165c.23.196.62.417 1.19.623C8.523 19.728 10.153 20 12 20c1.848 0 3.478-.272 4.61-.68c.57-.207.961-.428 1.19-.624a1 1 0 0 0 .16-.165l.036-.058l-.024-.04a1.2 1.2 0 0 0-.314-.293a1 1 0 1 1 1.151-1.635c.598.421 1.191 1.074 1.191 1.968c0 .753-.426 1.339-.9 1.744c-.48.41-1.114.732-1.81.984c-1.402.505-3.272.799-5.29.799s-3.888-.294-5.29-.8c-.696-.25-1.33-.574-1.809-.983c-.475-.405-.901-.99-.901-1.744c0-.898.598-1.553 1.2-1.975a1 1 0 0 1 1.393.246M12 2a8 8 0 1 1 0 16a8 8 0 0 1 0-16m0 2a6 6 0 1 0 0 12a6 6 0 0 0 0-12m0 2a4 4 0 1 1 0 8a4 4 0 0 1 0-8m0 2a2 2 0 1 0 0 4a2 2 0 0 0 0-4" /></g></svg>