<svg xmlns="http://www.w3.org/2000/svg" viewBox="0 0 24 24" width="48" height="48"><g fill="none"><path fill="currentColor" d="M19.26 16.877c.413.402.74.932.74 1.596c0 .753-.426 1.339-.9 1.745c-.48.408-1.114.731-1.81.983c-1.402.505-3.272.799-5.29.799s-3.888-.294-5.29-.8c-.696-.25-1.33-.574-1.809-.982c-.475-.406-.901-.992-.901-1.745c0-.663.327-1.194.74-1.596A9.97 9.97 0 0 0 12 20c2.859 0 5.438-1.2 7.26-3.123M12 2a8 8 0 1 1 0 16a8 8 0 0 1 0-16m0 4a4 4 0 1 0 0 8a4 4 0 0 0 0-8m0 2a2 2 0 1 1 0 4a2 2 0 0 1 0-4" /></g></svg>