<svg xmlns="http://www.w3.org/2000/svg" viewBox="0 0 24 24" width="48" height="48"><g fill="none"><path fill="currentColor" d="M4.74 16.877A9.97 9.97 0 0 0 12 20a9.96 9.96 0 0 0 4.797-1.224l.302-.172l.77.77a1.7 1.7 0 0 0 1.622.446c-.12.147-.254.28-.392.398c-.479.408-1.113.731-1.81.983c-1.401.505-3.271.799-5.289.799s-3.888-.294-5.29-.8c-.696-.25-1.33-.574-1.809-.982c-.475-.406-.901-.992-.901-1.745c0-.663.327-1.194.74-1.596M12 2a8 8 0 0 1 6.461 12.718l-.186.244l1.503 1.503a1 1 0 0 1-1.32 1.497l-.094-.083L4.222 3.737a1 1 0 0 1 1.32-1.497l.094.083l1.402 1.402A7.97 7.97 0 0 1 12 2M4.868 6.373l3.159 3.16a4 4 0 0 0 4.44 4.44l3.16 3.16a8 8 0 0 1-10.76-10.76ZM12 6c-.768 0-1.486.217-2.095.592l1.499 1.498a2 2 0 0 1 2.506 2.506l1.498 1.499A4 4 0 0 0 12 6" /></g></svg>