<svg xmlns="http://www.w3.org/2000/svg" viewBox="0 0 24 24" width="48" height="48"><g fill="none" fill-rule="evenodd"><path fill="currentColor" d="M12 2c.632 0 1.204.201 1.593.73c.235.32.366.702.399 1.081L14 4a2 2 0 0 0 2.38 1.964l.181-.043A1.124 1.124 0 0 1 18 7a2 2 0 0 0 1.85 1.995L20 9c.696 0 1.725.412 1.889 1.505q.11.733.111 1.495c0 5.523-4.477 10-10 10S2 17.523 2 12S6.477 2 12 2M9.5 14a1.5 1.5 0 1 0 0 3a1.5 1.5 0 0 0 0-3m6-2a1.5 1.5 0 1 0 0 3a1.5 1.5 0 0 0 0-3m-6-4a1.5 1.5 0 1 0 0 3a1.5 1.5 0 0 0 0-3" /></g></svg>