<svg xmlns="http://www.w3.org/2000/svg" viewBox="0 0 24 24" width="48" height="48"><g fill="none"><path fill="currentColor" d="M13.15 1.063a1 1 0 0 1 1.286.585l1.233 3.285a2 2 0 0 1-.702 2.325l-1.33.959l1.223 3.352c.726 1.99 1.087 4.13 1.35 6.224c.114.907.185 1.694.23 2.255c.025.335.059.672.059 1.009a1 1 0 0 1-1.998-.011c0-.28-.034-.564-.056-.843c-.042-.536-.11-1.29-.22-2.16a37 37 0 0 0-.588-3.437a2.4 2.4 0 0 1-.6.206q-.046.009-.093.015a1 1 0 0 1-.093.197l-4 6.5a1 1 0 0 1-1.703-1.049l3.818-6.205q-.152-.129-.284-.284L8.783 11.73l-.003-.004l-1.027.742l1.801 1.2a1 1 0 1 1-1.109 1.665l-2.4-1.6a1.5 1.5 0 0 1-.046-2.465l7.797-5.63l-1.233-3.286a1 1 0 0 1 .586-1.288m-2.745 9.488l1.808 2.148a.451.451 0 0 0 .768-.445l-1.029-2.82zM10 5a1 1 0 1 0-2 0a1 1 0 0 0 2 0m2 0a3 3 0 1 1-6 0a3 3 0 0 1 6 0" /></g></svg>