<svg xmlns="http://www.w3.org/2000/svg" viewBox="0 0 24 24" width="48" height="48"><g fill="none" fill-rule="evenodd"><path fill="currentColor" d="M12 2a8.5 8.5 0 0 1 5.331 15.12l-.226.177l.71 2.84a1.5 1.5 0 0 1-1.324 1.857L16.36 22H7.64a1.5 1.5 0 0 1-1.481-1.735l.026-.129l.71-2.84A8.5 8.5 0 0 1 12 2m3.22 16H8.78l-.5 2h7.44zm.89-8.44a.12.12 0 0 0-.22 0a2.9 2.9 0 0 1-.854 1.101l-.177.129l-.177.107a.12.12 0 0 0-.038.171l.038.035l.177.107a2.83 2.83 0 0 1 1.03 1.23a.12.12 0 0 0 .193.04l.028-.04l.073-.155a2.9 2.9 0 0 1 .958-1.075a3 3 0 0 1 .176-.107a.118.118 0 0 0 0-.206A2.8 2.8 0 0 1 16.28 9.89l-.097-.175zM13.184 5.6a.201.201 0 0 0-.368 0a4.8 4.8 0 0 1-.887 1.347a4.7 4.7 0 0 1-1.125.882a.196.196 0 0 0 0 .342a4.7 4.7 0 0 1 2.012 2.228c.07.16.297.16.368 0a4.8 4.8 0 0 1 .887-1.347a4.7 4.7 0 0 1 1.124-.88a.196.196 0 0 0 0-.343A4.7 4.7 0 0 1 13.184 5.6" /></g></svg>