<svg xmlns="http://www.w3.org/2000/svg" viewBox="0 0 24 24" width="48" height="48"><g fill="none" fill-rule="evenodd"><path fill="currentColor" d="M12 3a6 6 0 0 1 5.678 4.057a4.001 4.001 0 0 1 2.31 6.603q-.015.088-.045.174l-.035.085l-2.464 5.338a3 3 0 0 1-2.53 1.737L14.72 21H9.28a3 3 0 0 1-2.637-1.57l-.087-.173l-2.464-5.338a1 1 0 0 1-.08-.259a4.001 4.001 0 0 1 2.31-6.603A6 6 0 0 1 12 3m5 12H7c-.077 0-.045.182.05.462l.097.263l.189.46l.222.503l.31.672l.504 1.06a1 1 0 0 0 .908.58h5.44a1 1 0 0 0 .908-.58l.658-1.391l.232-.51l.146-.334l.131-.314l.11-.282c.128-.352.183-.589.095-.589M12 5a4 4 0 0 0-3.92 3.2a1 1 0 0 1-1.013.801L7 9a2 2 0 0 0-.15 3.995L7 13h10a2 2 0 0 0 .15-3.995L17 9l-.067.001a1 1 0 0 1-1.013-.8A4 4 0 0 0 12 5" /></g></svg>