<svg xmlns="http://www.w3.org/2000/svg" viewBox="0 0 24 24" width="48" height="48"><g fill="none"><path fill="currentColor" d="M16.122 5.021A4 4 0 0 0 12.646 3l-.846.005A4 4 0 0 0 8 6.998V11H6a1 1 0 1 0 0 2h2v3c-.018.632-.163 1.251-.659 1.685c-.22.204-.524.288-.788.42c-1.069.535-.47 2.155.69 1.865c.291-.082.56-.231.861-.28c1.34-.307 2.643-.036 3.927.368c1.685.498 3.788.65 5.416-.164a1 1 0 1 0-.894-1.788c-1.38.69-3.203.27-4.584-.164a9.8 9.8 0 0 0-2.218-.383A4.8 4.8 0 0 0 10 16v-3h3a1 1 0 1 0 0-2h-3V6.998C10.04 5.91 10.88 5 12 5l.807.006a2 2 0 0 1 1.628 1.1l.729 1.443a1 1 0 0 0 1.73-.996z" /></g></svg>