<svg xmlns="http://www.w3.org/2000/svg" viewBox="0 0 24 24" width="48" height="48"><g fill="none"><path fill="currentColor" d="M16.567 4.792A4.5 4.5 0 0 0 12.646 2.5l-.858.005A4.5 4.5 0 0 0 7.5 6.998V10.5H6a1.5 1.5 0 0 0 0 3h1.5V16c-.014.486-.103.972-.488 1.309c-.2.174-.45.233-.683.35c-1.603.801-.704 3.231 1.035 2.796c.294-.082.57-.208.867-.281c1.252-.282 2.465-.012 3.66.364c1.819.538 3.472.514 4.874.131c1.049-.286 2.207-1.078 1.577-2.34c-.507-1.014-1.49-.843-2.366-.554c-1.313.358-2.603.085-3.868-.313a11 11 0 0 0-1.717-.353A6.3 6.3 0 0 0 10.5 16v-2.5H13a1.5 1.5 0 0 0 0-3h-2.5V6.998c.039-.814.654-1.498 1.5-1.498l.787.007a1.5 1.5 0 0 1 1.2.822l.742 1.468a1.5 1.5 0 0 0 2.613-1.468z" /></g></svg>