<svg xmlns="http://www.w3.org/2000/svg" viewBox="0 0 24 24" width="48" height="48"><g fill="none"><path fill="currentColor" d="M5.804 4.02a1 1 0 0 1 1.177.784l2.127 10.64l1.922-7.687a1 1 0 0 1 1.94 0l1.922 7.686l2.127-10.64a1 1 0 0 1 1.962.393L18.22 9H19a1 1 0 1 1 0 2h-1a1 1 0 0 1-.177-.016L17.42 13H19a1 1 0 0 1 0 2h-1.98l-.865 4.324c-.251 1.255-2.03 1.298-2.34.056L12 12.123l-1.814 7.257c-.31 1.242-2.09 1.2-2.341-.056L6.98 15H5a1 1 0 1 1 0-2h1.58l-.403-2.016Q6.091 10.999 6 11H5a1 1 0 1 1 0-2h.78l-.76-3.804a1 1 0 0 1 .784-1.177" /></g></svg>