<svg xmlns="http://www.w3.org/2000/svg" viewBox="0 0 24 24" width="48" height="48"><g fill="none"><path fill="currentColor" d="M5.706 3.53A1.5 1.5 0 0 1 7.47 4.705l1.692 8.459l1.382-5.529a1.5 1.5 0 0 1 2.91 0l1.382 5.529l1.692-8.46a1.5 1.5 0 0 1 2.942.59L18.83 8.5H19a1.5 1.5 0 0 1 0 3h-.77l-.2 1H19a1.5 1.5 0 0 1 0 3h-1.57l-.785 3.922c-.355 1.778-2.876 1.838-3.316.079L12 14.185L10.67 19.5c-.439 1.76-2.96 1.7-3.315-.079L6.57 15.5H5a1.5 1.5 0 1 1 0-3h.97l-.2-1H5a1.5 1.5 0 1 1 0-3h.17l-.64-3.206A1.5 1.5 0 0 1 5.705 3.53" /></g></svg>