<svg xmlns="http://www.w3.org/2000/svg" viewBox="0 0 24 24" width="48" height="48"><g fill="none"><path fill="currentColor" d="M19 3H5a2 2 0 0 0-2 2v14a2 2 0 0 0 2 2h3a1 1 0 0 0 .77-.37A1 1 0 0 0 9 19.8s-.27-1.38-.53-3s-.41-2.6-.47-3.37a9.64 9.64 0 0 0 2.4-4.14c.396-1.396.598-2.84.6-4.29h2c0 1.91.4 5.88 3 8.43c-.12 2.1-1 6.33-1 6.37a1 1 0 0 0 .21.83A1 1 0 0 0 16 21h3a2 2 0 0 0 2-2V5a2 2 0 0 0-2-2M5 19v-5h1c.07.81.21 1.86.42 3.16c.11.68.23 1.32.32 1.84zm1.59-7H5V5h4a13.8 13.8 0 0 1-.52 3.71A7.45 7.45 0 0 1 6.59 12M19 19h-1.79c.24-1.32.6-3.45.74-5H19zm0-7h-1.58C15.34 10 15 6.62 15 5h4z" /></g></svg>