<svg xmlns="http://www.w3.org/2000/svg" viewBox="0 0 24 24" width="48" height="48"><g fill="none" fill-rule="evenodd"><path fill="currentColor" d="M6.195 5.71c.23.193.62.412 1.192.616C8.52 6.731 10.15 7 12 7s3.48-.27 4.613-.674c.571-.204.962-.423 1.192-.617c.211-.179.211-.24 0-.418c-.23-.194-.62-.413-1.192-.617C15.48 4.269 13.85 4 12 4s-3.48.27-4.613.674c-.571.204-.962.423-1.192.617c-.211.179-.211.24 0 .418M18 7.916a8 8 0 0 1-.714.293c-1.4.5-3.27.79-5.286.79c-2.017 0-3.886-.29-5.286-.79A8 8 0 0 1 6 7.917v10.569c.01.024.049.1.195.223c.23.194.62.413 1.192.617C8.52 19.731 10.15 20 12 20s3.48-.27 4.613-.674c.571-.204.962-.423 1.192-.617c.146-.124.186-.2.195-.223zM20 5.5v13c0 .754-.43 1.337-.905 1.737c-.479.405-1.113.724-1.809.973c-1.4.5-3.27.79-5.286.79c-2.017 0-3.886-.29-5.286-.79c-.696-.249-1.33-.568-1.81-.973C4.43 19.837 4 19.254 4 18.5v-13c0-.754.43-1.337.905-1.737c.479-.405 1.113-.724 1.809-.973C8.114 2.29 9.984 2 12 2c2.017 0 3.886.29 5.286.79c.696.249 1.33.568 1.81.973c.474.4.904.983.904 1.737" /></g></svg>