<svg xmlns="http://www.w3.org/2000/svg" viewBox="0 0 24 24" width="48" height="48"><g fill="none" fill-rule="evenodd"><path fill="currentColor" d="M12 2a9.96 9.96 0 0 1 6.33 2.258l-5.037 5.034a3 3 0 1 0 1.5 1.614l-.085-.2l5.034-5.036A9.96 9.96 0 0 1 22 12c0 5.523-4.477 10-10 10S2 17.523 2 12S6.477 2 12 2m-7 9h-.938a8 8 0 0 0-.034 1.67l.034.33H5a1 1 0 0 0 .117-1.993zm14.938 0H19a1 1 0 0 0-.117 1.993L19 13h.938a8 8 0 0 0 .034-1.67zM12 11a1 1 0 1 1 0 2a1 1 0 0 1 0-2M7.094 5.68a8 8 0 0 0-1.16 1.104l-.254.31l.663.663a1 1 0 0 0 1.498-1.32l-.084-.094zM12 4a8 8 0 0 0-1 .062V5a1 1 0 1 0 2 0v-.938A8 8 0 0 0 12 4" /></g></svg>