<svg xmlns="http://www.w3.org/2000/svg" viewBox="0 0 24 24" width="48" height="48"><g fill="none" fill-rule="evenodd"><path fill="currentColor" d="M12 2C6.477 2 2 6.477 2 12s4.477 10 10 10s10-4.477 10-10S17.523 2 12 2m-1.25 5.157a5 5 0 0 1 4.978 8.176a1 1 0 0 0 1.49 1.334A7 7 0 0 0 10.25 5.22a1 1 0 0 0 .498 1.936ZM7.156 10.75a1 1 0 0 0-1.936-.498a7.01 7.01 0 0 0 1.562 6.416a1 1 0 1 0 1.49-1.334A4.98 4.98 0 0 1 7 12q.002-.651.157-1.25ZM12 14a2 2 0 1 0-.518-3.932L7.707 6.293a1 1 0 0 0-1.414 1.414l3.775 3.775A2 2 0 0 0 12 14" /></g></svg>