<svg xmlns="http://www.w3.org/2000/svg" viewBox="0 0 24 24" width="48" height="48"><g fill="none"><path fill="currentColor" d="M12 2c5.523 0 10 4.477 10 10s-4.477 10-10 10S2 17.523 2 12S6.477 2 12 2m0 2a8 8 0 1 0 0 16a8 8 0 0 0 0-16m0 2a6 6 0 0 1 4.8 9.6a1 1 0 1 1-1.6-1.2a4 4 0 0 0-4.002-6.32a1 1 0 0 1-.397-1.96A6 6 0 0 1 12 6m-5.88 4.801a1 1 0 1 1 1.96.398q-.079.388-.08.801c0 .902.297 1.731.8 2.4a1 1 0 0 1-1.6 1.2A5.98 5.98 0 0 1 6 12q0-.615.12-1.199m2.587-3.508l2.775 2.775a2 2 0 1 1-1.414 1.414L7.293 8.707a1 1 0 0 1 1.414-1.414" /></g></svg>