<svg xmlns="http://www.w3.org/2000/svg" viewBox="0 0 24 24" width="48" height="48"><g fill="none"><path fill="currentColor" d="M4 3a1 1 0 0 1 1 1c0 .996.427 2.063 1.086 3.077a6 6 0 0 1 1.207-1.784a1 1 0 0 1 1.414 1.414c-.659.66-.965 1.525-1.146 2.187c.38.385.75.713 1.073.967A7 7 0 0 1 12 9c1.22 0 2.367.312 3.366.86c.323-.253.694-.58 1.073-.966c-.181-.662-.487-1.528-1.146-2.187a1 1 0 0 1 1.414-1.414a6 6 0 0 1 1.207 1.784C18.574 6.063 19 4.996 19 4a1 1 0 1 1 2 0c0 1.814-.895 3.526-1.887 4.85a14.5 14.5 0 0 1-2.11 2.254A6.98 6.98 0 0 1 19 16c0 1.792-.675 3.43-1.783 4.667a1 1 0 1 1-1.49-1.334a5 5 0 1 0-7.454 0a1 1 0 1 1-1.49 1.334A6.98 6.98 0 0 1 5 16c0-1.906.762-3.634 1.997-4.896a14.5 14.5 0 0 1-2.11-2.254C3.896 7.526 3 5.814 3 4a1 1 0 0 1 1-1" /></g></svg>