<svg xmlns="http://www.w3.org/2000/svg" viewBox="0 0 24 24" width="48" height="48"><g fill="none" fill-rule="evenodd"><path fill="currentColor" d="M5.41 3.654C6.143 3.219 7.011 3 8 3c1.03 0 1.9.55 2.475.889c.675.398 1.09.611 1.525.611s.85-.213 1.525-.611C14.101 3.549 14.97 3 16 3c.99 0 1.858.219 2.59.654s1.273 1.054 1.656 1.768c.75 1.396.92 3.192.817 4.94c-.105 1.775-.5 3.631-1.001 5.245c-.498 1.601-1.124 3.038-1.73 3.948c-.696 1.043-1.663 1.562-2.688 1.418c-.941-.132-1.672-.793-2.038-1.526c-.391-.782-.572-1.655-.915-2.458c-.085-.2-.379-1.003-.69-.989c-.375 0-.577.72-.692.99c-.343.802-.523 1.675-.914 2.457c-.367.733-1.098 1.394-2.038 1.526c-1.026.144-1.993-.375-2.689-1.418c-.606-.91-1.232-2.347-1.73-3.948c-.501-1.614-.896-3.47-1-5.244c-.104-1.75.066-3.545.816-4.941c.383-.714.924-1.333 1.656-1.768m.438 11.36c.47 1.51 1.027 2.746 1.484 3.431c.152.228.424.592.747.547c.164-.023.393-.172.527-.44c.371-.742.537-1.585.864-2.35c.2-.469.468-.986.84-1.399c.387-.428.947-.803 1.69-.803s1.303.375 1.69.803c.372.413.64.93.84 1.4c.327.764.493 1.607.865 2.35c.133.267.362.416.527.44c.322.044.594-.32.746-.548c.457-.685 1.015-1.92 1.484-3.431c.465-1.498.821-3.192.915-4.77c.094-1.601-.09-2.958-.583-3.876c-.238-.443-.54-.772-.916-.995S16.69 5 16 5c-.39 0-.777.21-1.51.641c-.595.352-1.454.859-2.49.859c-1.066 0-1.944-.537-2.541-.889C8.762 5.201 8.382 5 8 5c-.689 0-1.192.15-1.568.373q-.56.333-.916.995c-.493.918-.677 2.275-.582 3.877c.093 1.577.449 3.271.914 4.769" /></g></svg>