<svg xmlns="http://www.w3.org/2000/svg" viewBox="0 0 24 24" width="48" height="48"><g fill="none" fill-rule="evenodd"><path fill="currentColor" d="M14.707 2.293a1 1 0 0 1 0 1.414L10.414 8h2.172l5.707-5.707a1 1 0 1 1 1.414 1.414L15.414 8h4.524a1 1 0 0 1 .992.876a9 9 0 0 1-5.336 9.377l.376 1.505A1 1 0 0 1 15 21H9a1 1 0 0 1-.97-1.242l.376-1.505A9 9 0 0 1 3.07 8.876A1 1 0 0 1 4.062 8h3.524l5.707-5.707a1 1 0 0 1 1.414 0M5 10a7 7 0 0 0 4.893 6.678a1 1 0 0 1 .67 1.196L10.28 19h3.438l-.281-1.126a1 1 0 0 1 .67-1.196A7 7 0 0 0 19 10z" /></g></svg>