<svg xmlns="http://www.w3.org/2000/svg" viewBox="0 0 24 24" width="48" height="48"><g fill="none" fill-rule="evenodd"><path fill="currentColor" d="M12 2c5.523 0 10 4.477 10 10s-4.477 10-10 10S2 17.523 2 12S6.477 2 12 2m-1.707 14.293a1 1 0 0 0 0 1.414l1 1a1 1 0 0 0 1.414 0l1-1a1 1 0 0 0-1.414-1.414l-.293.293l-.293-.293a1 1 0 0 0-1.414 0m-2.586-6a1 1 0 0 0-1.32-.083l-.094.083l-1 1a1 1 0 0 0-.083 1.32l.083.094l1 1a1 1 0 0 0 1.497-1.32l-.083-.094L7.414 12l.293-.293a1 1 0 0 0 0-1.414m10 0a1 1 0 0 0-1.497 1.32l.083.094l.293.293l-.293.293a1 1 0 0 0 1.32 1.497l.094-.083l1-1a1 1 0 0 0 .083-1.32l-.083-.094zm-5-5a1 1 0 0 0-1.32-.083l-.094.083l-1 1a1 1 0 0 0 1.32 1.497l.094-.083l.293-.293l.293.293a1 1 0 0 0 1.497-1.32l-.083-.094z" /></g></svg>