<svg xmlns="http://www.w3.org/2000/svg" viewBox="0 0 24 24" width="48" height="48"><g fill="none" fill-rule="evenodd"><path fill="currentColor" d="M12 4a8 8 0 1 0 0 16a8 8 0 0 0 0-16M2 12C2 6.477 6.477 2 12 2s10 4.477 10 10s-4.477 10-10 10S2 17.523 2 12m10 4.586l-.293-.293a1 1 0 0 0-1.414 1.414l1 1a1 1 0 0 0 1.414 0l1-1a1 1 0 0 0-1.414-1.414zm-4.293-4.879L7.414 12l.293.293a1 1 0 1 1-1.414 1.414l-1-1a1 1 0 0 1 0-1.414l1-1a1 1 0 1 1 1.414 1.414M12 7.414l-.293.293a1 1 0 1 1-1.414-1.414l1-1a1 1 0 0 1 1.414 0l1 1a1 1 0 0 1-1.414 1.414zm5.707 2.879l1 1a1 1 0 0 1 0 1.414l-1 1a1 1 0 0 1-1.414-1.414l.293-.293l-.293-.293a1 1 0 0 1 1.414-1.414" /></g></svg>