<svg xmlns="http://www.w3.org/2000/svg" viewBox="0 0 24 24" width="48" height="48"><g fill="none" fill-rule="evenodd"><path fill="currentColor" d="M15.003 4c.744 0 1.53.26 2.25.547l.527.216c1.26.528 1.968 1.636 2.517 2.853c.891 1.975 1.51 4.608 1.724 6.61c.102.95.127 1.906-.056 2.549c-.197.687-.867 1.173-1.518 1.555l-.322.183l-.334.186q-.26.144-.525.284l-.522.27l-.717.357l-.577.284a1 1 0 1 1-.894-1.788l.79-.39l-.58-.609c-1.39.57-3.027.893-4.766.893s-3.376-.322-4.766-.893l-.58.608l.793.39a1 1 0 1 1-.894 1.79l-.544-.27c-.402-.2-.805-.398-1.203-.607l-.928-.505l-.321-.183c-.651-.382-1.322-.868-1.518-1.555c-.184-.643-.158-1.598-.057-2.55c.214-2.001.833-4.634 1.724-6.609c.549-1.217 1.257-2.325 2.517-2.853C7.059 4.413 8.072 4 9 4c.603 0 1.077.555.99 1.147A14 14 0 0 1 12 5c.691 0 1.366.05 2.014.148A1.012 1.012 0 0 1 15.004 4ZM8.75 10.5a1.75 1.75 0 1 0 0 3.5a1.75 1.75 0 0 0 0-3.5m6.5 0a1.75 1.75 0 1 0 0 3.5a1.75 1.75 0 0 0 0-3.5" /></g></svg>