<svg xmlns="http://www.w3.org/2000/svg" viewBox="0 0 24 24" width="48" height="48"><g fill="none" fill-rule="evenodd"><path fill="currentColor" d="M12 2c5.523 0 10 4.477 10 10s-4.477 10-10 10S2 17.523 2 12S6.477 2 12 2m0 2a8 8 0 1 0 0 16a8 8 0 0 0 0-16m-.816 12.551a1 1 0 0 1 .74 1.854l-.108.044l-1.5.5a1 1 0 0 1-.74-1.854l.108-.044zm5.023-.758l.5.5a1 1 0 0 1-1.414 1.414l-.5-.5a1 1 0 0 1 1.414-1.414M12 8a4 4 0 1 1 0 8a4 4 0 0 1 0-8m-5.106 4.553l.5 1a1 1 0 1 1-1.788.894l-.5-1a1 1 0 1 1 1.788-.894m9.899.24a1 1 0 0 1 1.32-.083l.094.083l.5.5a1 1 0 0 1-1.32 1.497l-.094-.083l-.5-.5a1 1 0 0 1 0-1.414M12 10a2 2 0 1 0 0 4a2 2 0 0 0 0-4M6.707 8.293l.5.5a1 1 0 0 1-1.414 1.414l-.5-.5a1 1 0 0 1 1.414-1.414m10-2a1 1 0 0 1 .083 1.32l-.083.094l-.5.5a1 1 0 0 1-1.497-1.32l.083-.094l.5-.5a1 1 0 0 1 1.414 0m-6.656-1.11a1 1 0 0 1 1.152-.662l.113.03l1.5.5a1 1 0 0 1-.52 1.928l-.112-.03l-1.5-.5a1 1 0 0 1-.633-1.265" /></g></svg>