<svg xmlns="http://www.w3.org/2000/svg" viewBox="0 0 24 24" width="48" height="48"><g fill="none"><path fill="currentColor" d="M12.01 19.5a1.5 1.5 0 0 1 0 3H12a1.5 1.5 0 0 1 0-3zm-5.808-.458a1.5 1.5 0 0 1 2.049-.549l.009.005a1.5 1.5 0 1 1-1.501 2.598l-.008-.005a1.5 1.5 0 0 1-.549-2.049m9.543-.556a1.5 1.5 0 0 1 2.049.55l.005.008a1.5 1.5 0 0 1-2.598 1.5l-.005-.009a1.5 1.5 0 0 1 .55-2.049m2.758-2.74a1.5 1.5 0 1 1 2.598 1.5l-.005.008a1.5 1.5 0 1 1-2.598-1.5zm-15.038-.55a1.5 1.5 0 1 1 1.5 2.598l-.009.005a1.5 1.5 0 0 1-1.5-2.598zM3.01 10.5a1.5 1.5 0 0 1 0 3H3a1.5 1.5 0 0 1 0-3zm17.99 0a1.5 1.5 0 0 1 0 3h-.01a1.5 1.5 0 0 1 0-3zM2.906 6.75a1.5 1.5 0 0 1 2.05-.549l.009.005a1.5 1.5 0 0 1-1.5 2.598l-.009-.005a1.5 1.5 0 0 1-.55-2.049m16.138-.549a1.5 1.5 0 0 1 1.5 2.598l-.009.005a1.5 1.5 0 0 1-1.5-2.598zM6.76 2.904a1.5 1.5 0 0 1 1.5 2.598l-.009.005a1.5 1.5 0 0 1-1.5-2.598zm8.441.55a1.5 1.5 0 0 1 2.05-.55l.009.005a1.5 1.5 0 0 1-1.5 2.598l-.009-.005a1.5 1.5 0 0 1-.55-2.049M12.01 1.5a1.5 1.5 0 0 1 0 3H12a1.5 1.5 0 0 1 0-3z" /></g></svg>