<svg xmlns="http://www.w3.org/2000/svg" viewBox="0 0 24 24" width="48" height="48"><g fill="none"><path fill="currentColor" d="M12 11a1 1 0 0 1 1 1v6.584l1.293-1.292a1 1 0 0 1 1.414 1.416l-2.824 2.819c-.253.252-.5.473-.883.473c-.336 0-.566-.169-.788-.38l-2.919-2.912a1 1 0 0 1 1.414-1.416L11 18.584V12a1 1 0 0 1 1-1m-.5-9c2.784 0 5.16 1.75 6.086 4.212a6.003 6.003 0 0 1 .395 11.453a3 3 0 0 0-.858-1.785a3 3 0 0 0-1.914-.873L15 15v-3a3 3 0 0 0-5.995-.176L9 12v3a3 3 0 0 0-2.123.88a3 3 0 0 0-.875 2.02A5.002 5.002 0 0 1 5 8.416A6.5 6.5 0 0 1 11.5 2" /></g></svg>