<svg xmlns="http://www.w3.org/2000/svg" viewBox="0 0 24 24" width="48" height="48"><g fill="none"><path fill="currentColor" d="M9.051 4.684a1 1 0 0 1 1.265-.632a4 4 0 0 1 1.546.952a3 3 0 0 1 .276 0a4 4 0 0 1 1.546-.952a1 1 0 0 1 .632 1.897a2 2 0 0 0-.232.094q.146.195.254.413l4.278-.95A2.78 2.78 0 0 1 21.688 9.5a2.78 2.78 0 0 1-3.072 3.995l-5.252-1.167a1.4 1.4 0 0 1-.377.511A1 1 0 0 1 13 13v6a1 1 0 1 1-2 0v-6q0-.082.013-.16a1.4 1.4 0 0 1-.377-.512l-5.252 1.167A2.78 2.78 0 0 1 2.312 9.5a2.78 2.78 0 0 1 3.072-3.995l4.278.951q.108-.218.254-.413a2 2 0 0 0-.232-.094a1 1 0 0 1-.633-1.265" /></g></svg>