<svg xmlns="http://www.w3.org/2000/svg" viewBox="0 0 24 24" width="48" height="48"><g fill="none" fill-rule="evenodd"><path fill="currentColor" d="M13.684 4.051a1 1 0 0 1 .632 1.897a2 2 0 0 0-.232.095q.097.129.178.27l.076.143l4.278-.95A2.78 2.78 0 0 1 21.356 10a2.78 2.78 0 0 1-2.571 4.527l-.169-.032l-5.252-1.168a1.5 1.5 0 0 1-.257.395l-.107.105V19a1 1 0 0 1-1.993.116L11 19v-5.172a1.4 1.4 0 0 1-.29-.356l-.074-.145l-5.252 1.168A2.78 2.78 0 0 1 2.644 10a2.78 2.78 0 0 1 2.571-4.527l.169.032l4.278.95q.108-.218.254-.412a2 2 0 0 0-.232-.095a1 1 0 0 1 .632-1.897a4 4 0 0 1 1.546.952L12 5l.138.003a4 4 0 0 1 1.546-.952M19.22 11h-5.307l-.085.382l5.222 1.16a.78.78 0 1 0 .275-1.535zm-9.133 0H4.78a.78.78 0 1 0 .073 1.557l.097-.015l5.222-1.16zM12 7c-.354 0-.625.3-.603.641l.013.094l.59 2.655l.59-2.655A.604.604 0 0 0 12 7m7.05.457l-4.576 1.017l-.116.526h4.861a.78.78 0 1 0-.169-1.543M4 8.22c0 .431.35.78.78.78h4.862l-.117-.525L4.95 7.457A.78.78 0 0 0 4 8.22" /></g></svg>