<svg xmlns="http://www.w3.org/2000/svg" viewBox="0 0 24 24" width="48" height="48"><g fill="none" fill-rule="evenodd"><path fill="currentColor" d="M12 2c5.523 0 10 4.477 10 10s-4.477 10-10 10S2 17.523 2 12S6.477 2 12 2m1.617 11.984A12.02 12.02 0 0 0 7.28 18.46A7.96 7.96 0 0 0 12 20a8 8 0 0 0 3.028-.593a33 33 0 0 0-1.411-5.424Zm1.978-.403c.532 1.543.96 3.135 1.274 4.768a8 8 0 0 0 2.922-4.523a12.1 12.1 0 0 0-4.196-.245m-3.244-2.669a19.1 19.1 0 0 1-8.35.984L4 12c0 1.927.682 3.695 1.817 5.076a14.02 14.02 0 0 1 7.072-4.963a33 33 0 0 0-.538-1.2Zm6.137-3.593a19 19 0 0 1-4.288 2.825q.351.75.668 1.517c1.7-.26 3.45-.206 5.13.161a7.96 7.96 0 0 0-1.51-4.503M8.574 4.77a8.02 8.02 0 0 0-4.298 5.145a17.1 17.1 0 0 0 7.157-.8A33 33 0 0 0 8.574 4.77M12 4q-.721 0-1.405.123a35 35 0 0 1 2.703 4.235a17 17 0 0 0 3.826-2.502A7.97 7.97 0 0 0 12 4" /></g></svg>