<svg xmlns="http://www.w3.org/2000/svg" viewBox="0 0 24 24" width="48" height="48"><g fill="none"><path fill="currentColor" d="M13.774 14.439a32.8 32.8 0 0 1 1.536 7A10 10 0 0 1 12 22a9.95 9.95 0 0 1-5.567-1.692a12.03 12.03 0 0 1 7.34-5.87Zm7.799.463a10.02 10.02 0 0 1-4.355 5.63a35 35 0 0 0-1.46-6.468a12.06 12.06 0 0 1 5.815.838m-9.428-4.417q.499 1.018.93 2.073a14.03 14.03 0 0 0-8.207 6.451a10.08 10.08 0 0 1-2.827-7.922c3.343.708 6.87.502 10.104-.602m7.575-4.841a10.07 10.07 0 0 1 2.24 7.26a14.1 14.1 0 0 0-6.9-.77a35 35 0 0 0-1.055-2.398a19 19 0 0 0 5.715-4.092M7.266 3.19a33 33 0 0 1 3.93 5.502a17.13 17.13 0 0 1-8.776.43A10.03 10.03 0 0 1 7.266 3.19M12 2c2.388 0 4.581.837 6.3 2.234a17 17 0 0 1-5.22 3.726a35 35 0 0 0-3.86-5.568A10 10 0 0 1 12 2" /></g></svg>