<svg xmlns="http://www.w3.org/2000/svg" viewBox="0 0 24 24" width="48" height="48"><g fill="none"><path fill="currentColor" d="M10.924 15.792a1 1 0 0 1 1.932.518l-.259.966a1 1 0 0 1-1.932-.518zM11.5 2a6.5 6.5 0 0 1 6.086 4.212a6.002 6.002 0 0 1-.387 11.668a1 1 0 1 1-.398-1.96a4.002 4.002 0 0 0-.15-7.868a1 1 0 0 1-.806-.726a4.5 4.5 0 0 0-8.817 1.68a1 1 0 0 1-.753 1.082a3.002 3.002 0 0 0-.169 5.777l.169.047a1 1 0 0 1-.481 1.941A5.002 5.002 0 0 1 5 8.416A6.5 6.5 0 0 1 11.5 2m.32 18.174a1 1 0 1 0-1.931-.518l-.259.966a1 1 0 0 0 1.932.518z" /></g></svg>