<svg xmlns="http://www.w3.org/2000/svg" viewBox="0 0 24 24" width="48" height="48"><g fill="none"><path fill="currentColor" d="M19 3a2 2 0 0 1 2 2v5a2 2 0 0 1-2 2h-5v7a2 2 0 0 1-2 2H5a2 2 0 0 1-2-2V5a2 2 0 0 1 2-2zm-7 9H5v7h7zm-2 4a1 1 0 1 1 0 2H7a1 1 0 1 1 0-2zm0-3a1 1 0 1 1 0 2H7a1 1 0 1 1 0-2zm2-8H5v5h7zm7 0h-5v5h5zm-2.48 1.17c.563 0 1.015.028 1.3.053c.167.014.27.173.2.31l-.12.228a12.4 12.4 0 0 1-1.198 1.797c-.093.113-.277.108-.374-.011l-.162-.207a12.7 12.7 0 0 1-1.155-1.822c-.068-.135.019-.278.176-.292l.39-.03c.258-.014.577-.026.943-.026" /></g></svg>