<svg xmlns="http://www.w3.org/2000/svg" viewBox="0 0 24 24" width="48" height="48"><g fill="none" fill-rule="evenodd"><path fill="currentColor" d="m8.619 3.5l3.379 1.95l3.379-1.95c.478-.276 1.253-.276 1.732 0l4.242 2.45c.479.275.479.723 0 1L17.974 8.9l3.377 1.95c.479.275.479.723 0 1l-3.155 1.82V17a1 1 0 0 1-.5.866l-5.196 3a1 1 0 0 1-1 0l-5.196-3a1 1 0 0 1-.5-.866v-3.327l-3.16-1.824c-.478-.276-.478-.724 0-1L6.022 8.9L2.644 6.95c-.478-.276-.478-.724 0-1L6.887 3.5c.478-.276 1.253-.276 1.732 0m3.379 8.848l-3.38 1.95c-.226.131-.518.2-.814.207v1.918L12 18.845l4.196-2.422v-1.918a1.75 1.75 0 0 1-.82-.207zM16.243 9.9l-2.51 1.45l2.51 1.449l2.51-1.45zm-8.49 0l-2.511 1.45l2.51 1.449l2.511-1.45zM12 7.45L9.49 8.9L12 10.35l2.51-1.45zM7.753 5L5.242 6.45l2.51 1.449l2.511-1.45zm8.49 0l-2.511 1.45l2.51 1.449l2.511-1.45z" /></g></svg>