<svg xmlns="http://www.w3.org/2000/svg" viewBox="0 0 24 24" width="48" height="48"><g fill="none" fill-rule="evenodd"><path fill="currentColor" d="M17.303 4c.45 0 .914.152 1.284.476A9.98 9.98 0 0 1 22 12c0 3-1.323 5.693-3.413 7.524a1.93 1.93 0 0 1-1.114.469l-.17.007H6.697c-.45 0-.914-.152-1.284-.476A9.98 9.98 0 0 1 2 12c0-3 1.322-5.693 3.413-7.524a1.93 1.93 0 0 1 1.114-.469L6.697 4zm1.627 12H5.07c.435.753.99 1.428 1.638 2h10.584a8 8 0 0 0 1.638-2m.818-6H4.252A8 8 0 0 0 4 12a8 8 0 0 0 .252 2h15.496A8 8 0 0 0 20 12a8 8 0 0 0-.252-2m-2.456-4H6.708a8 8 0 0 0-1.444 1.682L5.07 8h13.86a8 8 0 0 0-1.366-1.749z" /></g></svg>