<svg xmlns="http://www.w3.org/2000/svg" viewBox="0 0 24 24" width="48" height="48"><g fill="none"><path fill="currentColor" d="m8.907 2.6l3.083 3.918l1.961-3.397a1 1 0 0 1 1.366-.366l3.464 2a1 1 0 0 1 .119 1.652l-3.918 3.082l3.397 1.962a1 1 0 0 1 .366 1.366l-2 3.464a1 1 0 0 1-.577.457L16.82 20H17a1 1 0 0 1 0 2H7a1 1 0 1 1 0-2h.18l.83-4.144l-2.791-1.611a1 1 0 0 1-.118-1.652L9.018 9.51L5.621 7.55a1 1 0 0 1-.366-1.366l2-3.464a1 1 0 0 1 1.652-.12M12.165 13h-.33L9.95 16.352L9.22 20h5.56l-.73-3.648L12.166 13Zm.335 3a.5.5 0 0 1 .492.41l.008.09v1a.5.5 0 0 1-.41.492L12.5 18h-1a.5.5 0 0 1-.492-.41L11 17.5v-1a.5.5 0 0 1 .41-.492L11.5 16zm-2.463-4.747l-2.539 1.999l1.32.761l1.5-2.598zm3.878-.07l-.161.28l1.998 2.539l.761-1.32l-2.598-1.5Zm-2.098-2.366l-.5.866l.866.5l.5-.866zm-3.569-3.82l-.761 1.32l2.598 1.5l.161-.28zm6.935-.01l-1.5 2.598l.28.161l2.539-1.998z" /></g></svg>