<svg xmlns="http://www.w3.org/2000/svg" viewBox="0 0 24 24" width="48" height="48"><g fill="none" fill-rule="evenodd"><path fill="currentColor" d="M7 9a5 5 0 0 1 10 0c0 2.098-1.39 3.376-2.528 4.966c-.716 1.002-1.352 2.229-1.47 3.966C12.92 19.15 12.047 20 11 20a2 2 0 0 1-2-2c0-1.454 1.065-2.472 2.625-3.72c1.398-1.117 2.87-2.138 3.345-4.037c.319-1.276.05-2.367-.606-3.14A3.15 3.15 0 0 0 12 6a3 3 0 0 0-2.905 2.25a1 1 0 0 0 1.936.5A1 1 0 0 1 12 8c.276 0 .616.134.84.397c.192.227.371.636.19 1.36c-.333 1.334-1.645 2.155-2.655 2.962C8.935 13.872 7 15.454 7 18a4 4 0 0 0 4 4c2.267 0 3.856-1.843 3.998-3.932c.085-1.263.53-2.14 1.101-2.939C17.506 13.163 19 11.587 19 9a7 7 0 1 0-13.903 1.165a1 1 0 0 0 1.972-.33A5 5 0 0 1 7 9" /></g></svg>