<svg xmlns="http://www.w3.org/2000/svg" viewBox="0 0 24 24" width="48" height="48"><g fill="none"><path fill="currentColor" d="M12 2c5.523 0 10 4.477 10 10s-4.477 10-10 10S2 17.523 2 12S6.477 2 12 2M9.523 13c.09 1.982.438 3.726.934 5.002c.29.746.612 1.282.917 1.614c.304.331.517.384.626.384s.322-.053.626-.384c.305-.332.627-.868.917-1.614c.496-1.276.845-3.02.934-5.002zm-5.459 0a8 8 0 0 0 4.8 6.36a10 10 0 0 1-.271-.633C7.994 17.187 7.61 15.189 7.52 13zm12.416 0c-.09 2.189-.474 4.187-1.073 5.727q-.127.328-.271.633a8 8 0 0 0 4.8-6.36zm-1.344-8.361q.144.306.271.634c.599 1.54.982 3.538 1.073 5.727h3.456a8 8 0 0 0-4.8-6.361M12 4c-.109 0-.322.053-.626.384c-.305.332-.627.868-.917 1.614c-.496 1.276-.844 3.02-.934 5.002h4.954c-.09-1.982-.438-3.726-.934-5.002c-.29-.746-.612-1.282-.917-1.614C12.322 4.053 12.109 4 12 4m-3.137.639A8 8 0 0 0 4.064 11h3.457c.09-2.189.473-4.187 1.072-5.727q.127-.328.27-.634" /></g></svg>