<svg xmlns="http://www.w3.org/2000/svg" viewBox="0 0 24 24" width="48" height="48"><g fill="none" fill-rule="evenodd"><path fill="currentColor" d="M2 12C2 6.477 6.477 2 12 2s10 4.477 10 10s-4.477 10-10 10S2 17.523 2 12m2 0a8 8 0 0 1 3.595-6.68C6.62 7.095 6 9.445 6 12c0 2.59.673 4.962 1.683 6.736A8 8 0 0 1 4 12m16 0c0 2.79-1.43 5.248-3.595 6.68C17.38 16.905 18 14.555 18 12s-.62-4.906-1.595-6.68A8 8 0 0 1 20 12m-9 7.611c-.48-.332-1.012-.9-1.518-1.76C8.62 16.388 8 14.317 8 12c0-2.328.587-4.4 1.429-5.86C9.94 5.253 10.49 4.675 11 4.348zm2 .04V4.348c.51.327 1.06.905 1.571 1.792C15.413 7.6 16 9.672 16 12s-.587 4.4-1.429 5.86c-.511.887-1.061 1.465-1.571 1.791" /></g></svg>