<svg xmlns="http://www.w3.org/2000/svg" viewBox="0 0 24 24" width="48" height="48"><g fill="none"><path fill="currentColor" d="M13.649 2.135a10 10 0 0 0-3.298 0c-.336.456-.664 1.045-.963 1.764c-.282.676-.53 1.446-.736 2.291A29 29 0 0 1 12 6c1.155 0 2.278.066 3.348.19a15.6 15.6 0 0 0-.735-2.29c-.3-.72-.628-1.31-.964-1.765m2.093 6.123A27 27 0 0 0 12 8c-1.318 0-2.576.092-3.742.258A27 27 0 0 0 8 12c0 1.318.092 2.576.258 3.742C9.424 15.908 10.682 16 12 16s2.576-.091 3.742-.258C15.908 14.576 16 13.318 16 12s-.091-2.576-.258-3.742m2.068 7.09c.124-1.07.19-2.193.19-3.348a29 29 0 0 0-.19-3.348a15.6 15.6 0 0 1 2.29.736c.72.3 1.31.627 1.765.963a10 10 0 0 1 0 3.298c-.455.336-1.045.664-1.764.964c-.676.281-1.446.53-2.291.735m-2.462 2.462A29 29 0 0 1 12 18a29 29 0 0 1-3.348-.19c.206.845.454 1.615.736 2.29c.3.72.627 1.31.963 1.765a10 10 0 0 0 3.298 0c.336-.455.664-1.045.964-1.764c.281-.676.53-1.446.735-2.291m1.066 3.166l.045-.106c.415-.996.758-2.143 1.014-3.397a19 19 0 0 0 3.016-.862l.487-.197a10.04 10.04 0 0 1-4.562 4.562m-8.828 0l-.045-.106c-.415-.996-.758-2.143-1.014-3.397a19 19 0 0 1-3.016-.862l-.487-.197a10.04 10.04 0 0 0 4.562 4.562M6.19 15.348A29 29 0 0 1 6 12c0-1.155.066-2.278.19-3.348c-.845.206-1.615.454-2.29.736c-.72.3-1.31.627-1.765.963a10 10 0 0 0 0 3.298c.456.336 1.045.664 1.764.964c.676.281 1.446.53 2.291.735m.337-8.82A19 19 0 0 1 7.39 3.51l.197-.487a10.04 10.04 0 0 0-4.562 4.562l.106-.045c.996-.415 2.143-.758 3.397-1.014m10.946 0a19 19 0 0 0-.862-3.017l-.197-.487a10.04 10.04 0 0 1 4.562 4.562l-.106-.045c-.996-.415-2.143-.758-3.397-1.014" /></g></svg>