<svg xmlns="http://www.w3.org/2000/svg" viewBox="0 0 24 24" width="48" height="48"><g fill="none"><path fill="currentColor" d="M19 17a3 3 0 1 1-2.83 4H15a1 1 0 1 1 0-2h1.17A3 3 0 0 1 19 17m.106-13.447a1 1 0 1 1 1.788.894l-.374.731l-.476.89l-.412.739l-.354.62l-.393.666l-.283.468l-.453.731l-.321.504l-.336.516l-.35.524l-.364.53l-.377.536l-.39.538l-.402.54c-1.496 1.973-3.26 3.955-5.192 5.451C8.494 19.921 6.312 21 4 21a1 1 0 1 1 0-2c1.688 0 3.444-.796 5.192-2.15c1.74-1.348 3.383-3.178 4.824-5.08l.199-.264l.39-.531l.377-.53l.364-.525l.35-.52l.337-.51l.477-.749l.443-.717l.534-.898l.357-.619l.412-.739l.41-.762zM19 19a1 1 0 1 0 0 2a1 1 0 0 0 0-2m-7 0a1 1 0 0 1 .117 1.993L12 21h-1a1 1 0 0 1-.117-1.993L11 19z" /></g></svg>