<svg xmlns="http://www.w3.org/2000/svg" viewBox="0 0 24 24" width="48" height="48"><g fill="none" fill-rule="evenodd"><path fill="currentColor" d="m16.724 3.03l4.243 4.243a2 2 0 0 1 0 2.828l-8.899 8.9H20a1 1 0 1 1 0 2H3.996a1 1 0 0 1-1-1v-5.243a2 2 0 0 1 .586-1.414L13.896 3.03a2 2 0 0 1 2.828 0M5 0a1 1 0 0 1 .946.677l.13.378a3 3 0 0 0 1.869 1.87l.378.129a1 1 0 0 1 0 1.892l-.378.13a3 3 0 0 0-1.87 1.869l-.129.378a1 1 0 0 1-1.892 0l-.13-.378a3 3 0 0 0-1.869-1.87l-.378-.129a1 1 0 0 1 0-1.892l.378-.13a3 3 0 0 0 1.87-1.869l.129-.378A1 1 0 0 1 5 0" /></g></svg>