<svg xmlns="http://www.w3.org/2000/svg" viewBox="0 0 24 24" width="48" height="48"><g fill="none"><path fill="currentColor" d="M13.896 3.03a2 2 0 0 1 2.829 0l4.242 4.242a2 2 0 0 1 0 2.83L10.653 20.415a2 2 0 0 1-1.414.586H3.996a1 1 0 0 1-1-1v-5.243a2 2 0 0 1 .586-1.414zM17 17a1 1 0 0 1 .946.677c.06.177.2.316.377.377a1 1 0 0 1 0 1.892a.6.6 0 0 0-.377.377a1 1 0 0 1-1.892 0a.6.6 0 0 0-.377-.377a1 1 0 0 1 0-1.892c.177-.06.316-.2.377-.377l.062-.146A1 1 0 0 1 17 17M13.584 6.17l4.243 4.243l1.726-1.726l-4.243-4.243zM5 0a1 1 0 0 1 .946.677l.13.378c.3.879.99 1.57 1.87 1.87l.377.129a1 1 0 0 1 0 1.892l-.378.13c-.879.3-1.57.99-1.87 1.87l-.129.377a1 1 0 0 1-1.892 0l-.13-.378a3 3 0 0 0-1.87-1.87l-.377-.129a1 1 0 0 1 0-1.892l.378-.13c.879-.3 1.57-.99 1.87-1.87l.129-.377C4.222.285 4.552 0 5 0m0 3.196A5 5 0 0 1 4.196 4q.449.355.804.803q.356-.447.803-.803A5 5 0 0 1 5 3.196m-.004 15.805H9.24l7.174-7.174l-4.243-4.243l-7.174 7.174z" /></g></svg>