<svg xmlns="http://www.w3.org/2000/svg" viewBox="0 0 24 24" width="48" height="48"><g fill="none"><path fill="currentColor" d="m10.756 6.17l7.071 7.071l-7.174 7.174a2 2 0 0 1-1.415.586H4.006a1.01 1.01 0 0 1-1.01-1.01v-5.233a2 2 0 0 1 .586-1.414zM17 17c.361 0 .598.186.694.277c.116.11.198.25.269.391a1 1 0 0 0 .4.386c.133.073.257.142.364.256a1.01 1.01 0 0 1 0 1.38c-.107.114-.23.183-.365.256a1 1 0 0 0-.4.386c-.077.143-.147.276-.268.39a1.01 1.01 0 0 1-1.39 0c-.12-.113-.19-.247-.267-.39a1 1 0 0 0-.4-.386a1.3 1.3 0 0 1-.364-.256a1.01 1.01 0 0 1 .001-1.38c.106-.113.23-.185.364-.256a1 1 0 0 0 .4-.386c.076-.143.147-.277.267-.39A1 1 0 0 1 17 17m-.276-13.97l4.243 4.242a2 2 0 0 1 0 2.83l-1.726 1.725l-7.071-7.071l1.726-1.726a2 2 0 0 1 2.828 0M5 0a1 1 0 0 1 .946.677l.13.378c.3.879.99 1.57 1.87 1.87l.377.129a1 1 0 0 1 0 1.892l-.378.13c-.879.3-1.57.99-1.87 1.87l-.129.377a1 1 0 0 1-1.892 0l-.13-.378a3 3 0 0 0-1.87-1.87l-.377-.129a1 1 0 0 1 0-1.892l.378-.13c.879-.3 1.57-.99 1.87-1.87l.129-.377A1 1 0 0 1 5 0" /></g></svg>