<svg xmlns="http://www.w3.org/2000/svg" viewBox="0 0 24 24" width="48" height="48"><g fill="none"><path fill="currentColor" d="M13.896 3.03a2 2 0 0 1 2.829 0l4.242 4.242a2 2 0 0 1 0 2.83L12.068 19H20a1 1 0 0 1 0 2H9.259l-.02.001H3.996a1 1 0 0 1-1-1v-5.243a2 2 0 0 1 .586-1.414zM5 0a1 1 0 0 1 .946.677l.13.378c.3.879.99 1.57 1.87 1.87l.377.129a1 1 0 0 1 0 1.892l-.378.13c-.879.3-1.57.99-1.87 1.87l-.129.377a1 1 0 0 1-1.892 0l-.13-.378a3 3 0 0 0-1.87-1.87l-.377-.129a1 1 0 0 1 0-1.892l.378-.13c.879-.3 1.57-.99 1.87-1.87l.129-.377C4.222.285 4.552 0 5 0m0 3.196A5 5 0 0 1 4.196 4q.449.355.804.803q.356-.447.803-.803A5 5 0 0 1 5 3.196m-.004 15.805h3.987L9 19h.24L19.553 8.688L15.31 4.444L4.996 14.758z" /></g></svg>