<svg xmlns="http://www.w3.org/2000/svg" viewBox="0 0 24 24" width="48" height="48"><g fill="none" fill-rule="evenodd"><path fill="currentColor" d="M12.916 3.244a3 3 0 0 0-1.832 0L4.55 5.34a1 1 0 0 0-.556.45L1.757 9.654a1 1 0 0 0 .56 1.453l7.14 2.292a1 1 0 0 0 1.171-.451l.372-.642v2.317a1 1 0 0 1-1.306.952l-5.838-1.873v3.278a2 2 0 0 0 1.388 1.905l5.84 1.872a3 3 0 0 0 1.832 0l5.84-1.872a2 2 0 0 0 1.389-1.905l-.002-3.278l-5.837 1.873A1 1 0 0 1 13 14.622v-2.317l.371.642a1 1 0 0 0 1.171.45l7.141-2.29a1 1 0 0 0 .56-1.454L20.006 5.79a1 1 0 0 0-.556-.45zm2.953 3.048L12 7.533L8.13 6.292l3.564-1.144a1 1 0 0 1 .611 0z" /></g></svg>