<svg xmlns="http://www.w3.org/2000/svg" viewBox="0 0 24 24" width="48" height="48"><g fill="none"><path fill="currentColor" d="m8.464 7.05l8.485 8.485L13.485 19H20a1 1 0 0 1 0 2H8.894a1.5 1.5 0 0 1-1.061-.44l-5.025-5.025a2 2 0 0 1 0-2.828zm7.071-4.242l5.657 5.656a2 2 0 0 1 0 2.829l-2.828 2.828L9.88 5.636l2.828-2.828a2 2 0 0 1 2.828 0M4 0a1 1 0 0 1 .946.677l.13.378a3 3 0 0 0 1.87 1.87l.377.13a1 1 0 0 1 0 1.891l-.378.13c-.879.3-1.57.99-1.87 1.87l-.129.377a1.001 1.001 0 0 1-1.892.001l-.128-.379a3 3 0 0 0-1.871-1.87l-.38-.129a1 1 0 0 1 .002-1.892l.378-.13c.879-.3 1.57-.99 1.87-1.87l.129-.377A1 1 0 0 1 4 0" /></g></svg>