<svg xmlns="http://www.w3.org/2000/svg" viewBox="0 0 24 24" width="48" height="48"><g fill="none"><path fill="currentColor" d="M12.707 2.808a2 2 0 0 1 2.828 0l5.657 5.657a2 2 0 0 1 0 2.828L13.485 19H20a1 1 0 1 1 0 2H9.1a2 2 0 0 1-1.413-.586l-4.88-4.879a2 2 0 0 1 0-2.828zM4.222 14.12L9.1 19h1.556l4.878-4.879l-5.657-5.657zm7.071-7.071l5.657 5.657l2.828-2.828l-5.657-5.657zM4 0a1 1 0 0 1 .946.677l.13.378c.3.879.99 1.57 1.87 1.87l.377.129a1 1 0 0 1 0 1.892l-.378.13c-.879.3-1.57.99-1.87 1.87l-.129.377a1 1 0 0 1-1.892 0l-.13-.378a3 3 0 0 0-1.87-1.87l-.377-.129a1 1 0 0 1 0-1.892l.378-.13c.879-.3 1.57-.99 1.87-1.87l.129-.377C3.222.285 3.552 0 4 0m0 3.196A5 5 0 0 1 3.196 4q.449.355.804.803q.356-.447.803-.803A5 5 0 0 1 4 3.196" /></g></svg>