<svg xmlns="http://www.w3.org/2000/svg" viewBox="0 0 24 24" width="48" height="48"><g fill="none" fill-rule="evenodd"><path fill="currentColor" d="M12 4C9.213 4 6.737 5.257 4.974 6.813C4.09 7.594 3.36 8.47 2.846 9.344C2.34 10.201 2 11.13 2 12s.34 1.799.846 2.656c.514.873 1.243 1.75 2.128 2.531C6.737 18.743 9.214 20 12 20c2.787 0 5.263-1.257 7.026-2.813c.885-.781 1.614-1.658 2.128-2.531C21.66 13.799 22 12.87 22 12s-.34-1.799-.846-2.656c-.514-.873-1.243-1.75-2.128-2.531C17.263 5.257 14.786 4 12 4m2 8c.36 0 .697-.095.989-.261A3 3 0 1 1 12.26 9.01A2 2 0 0 0 14 12" /></g></svg>