<svg xmlns="http://www.w3.org/2000/svg" viewBox="0 0 24 24" width="48" height="48"><g fill="none"><path fill="currentColor" d="M7.488 5a1 1 0 0 0-.958.713l-2.026 6.753a4.502 4.502 0 0 1 6.25 2.565q.12-.03.246-.031h2q.128 0 .245.03a4.502 4.502 0 0 1 6.25-2.564L17.47 5.713A1 1 0 0 0 16.512 5H16a1 1 0 1 1 0-2h.512a3 3 0 0 1 2.873 2.138l2.235 7.45a9 9 0 0 1 .38 2.586V16.5a4.5 4.5 0 0 1-8.973.5h-2.054A4.5 4.5 0 0 1 2 16.5v-1.326a9 9 0 0 1 .38-2.586l2.235-7.45A3 3 0 0 1 7.488 3H8a1 1 0 0 1 0 2z" /></g></svg>