<svg xmlns="http://www.w3.org/2000/svg" viewBox="0 0 24 24" width="48" height="48"><g fill="none" fill-rule="evenodd"><path fill="currentColor" d="M7.775 5.573c-.97.977-1.597 2.395-1.85 4.126a1 1 0 0 1-1.27.816c-.276-.08-.449.172-.536.406c-.113.304-.147.745-.016 1.235c.114.425.517 1.31 1.09 1.257a1 1 0 0 1 1.039.672C7.248 17.057 9.799 19 12 19s4.752-1.943 5.768-4.915a1 1 0 0 1 1.042-.673c.573.055.977-.831 1.091-1.256c.131-.49.097-.931-.016-1.235c-.088-.235-.261-.487-.538-.406a1 1 0 0 1-1.272-.815c-.253-1.731-.88-3.15-1.85-4.126C15.272 4.614 13.91 4 12 4s-3.272.615-4.225 1.573m-1.419-1.41C7.726 2.785 9.622 2 12 2s4.273.785 5.644 2.164c1.156 1.163 1.88 2.69 2.25 4.373q.083.015.164.038c.869.232 1.429.916 1.702 1.65c.273.736.299 1.605.073 2.449c-.317 1.183-1.165 2.35-2.402 2.665C18.079 18.59 15.086 21 12 21s-6.08-2.412-7.431-5.662c-1.235-.317-2.081-1.483-2.398-2.664c-.226-.844-.2-1.713.073-2.45c.273-.733.833-1.417 1.702-1.65q.08-.021.16-.036c.37-1.684 1.094-3.21 2.25-4.374Z" /></g></svg>