<svg xmlns="http://www.w3.org/2000/svg" viewBox="0 0 24 24" width="48" height="48"><g fill="none" fill-rule="evenodd"><path fill="currentColor" d="M9 3a1 1 0 0 1 .993.883L10 4l.002.562l.019 1.185l.045 1.478l.068 1.567l.018.35l3.334-2a1 1 0 0 1 1.507.74L15 8v2.132l4.445-2.964a1 1 0 0 1 1.548.71L21 8v12a1 1 0 0 1-.883.993L20 21H4a1 1 0 0 1-.995-1.1l.096-.976l.173-1.856l.183-2.137l.123-1.566l.078-1.091l.126-1.974l.091-1.7l.076-1.85l.026-.92L4 4.34v-.337a1 1 0 0 1 .883-.997L5 3zm4 6.766l-2.717 1.63l.089 1.299l.105 1.408l.123 1.52l.143 1.631l.163 1.746H19V9.869l-4.445 2.963A1 1 0 0 1 13 12zM8.007 5H5.993l-.035 1.54l-.062 1.65l-.087 1.74l-.058.986l-.094 1.435l-.18 2.416l-.15 1.79l-.176 1.936l-.048.507h3.794l-.14-1.493l-.124-1.41l-.11-1.33l-.18-2.416l-.094-1.435l-.106-1.894l-.05-1.092l-.057-1.594l-.022-.894zM13 14a1 1 0 0 1 1 1v1a1 1 0 1 1-2 0v-1a1 1 0 0 1 1-1m4 0a1 1 0 0 1 .993.883L18 15v1a1 1 0 0 1-1.993.117L16 16v-1a1 1 0 0 1 1-1" /></g></svg>