<svg xmlns="http://www.w3.org/2000/svg" viewBox="0 0 24 24" width="48" height="48"><g fill="none" fill-rule="evenodd"><path fill="currentColor" d="M8.69 5a3.69 3.69 0 0 0-3.168 5.583A5.67 5.67 0 0 1 8.69 9.62c1.172 0 2.263.355 3.168.963a3.67 3.67 0 0 0 .522-1.893a3.68 3.68 0 0 0-1.086-2.614A3.68 3.68 0 0 0 8.69 5m1.893 7.142a3.67 3.67 0 0 0-1.893-.522a3.68 3.68 0 0 0-2.614 1.086a3.69 3.69 0 0 0 4.507 5.772a5.67 5.67 0 0 1-.963-3.168c0-1.172.355-2.263.963-3.168M12 19.939A5.69 5.69 0 0 1 4.061 12A5.69 5.69 0 0 1 12 4.061A5.69 5.69 0 0 1 19.939 12A5.69 5.69 0 0 1 12 19.939m6.478-6.522a5.67 5.67 0 0 1-3.168.963a5.67 5.67 0 0 1-3.168-.963a3.67 3.67 0 0 0-.522 1.893c0 1.022.414 1.945 1.086 2.614a3.69 3.69 0 0 0 5.772-4.507m-5.061-1.559a3.67 3.67 0 0 0 1.893.522a3.68 3.68 0 0 0 2.614-1.086a3.69 3.69 0 0 0-4.507-5.772c.608.905.963 1.996.963 3.168a5.67 5.67 0 0 1-.963 3.168" /></g></svg>