<svg xmlns="http://www.w3.org/2000/svg" viewBox="0 0 24 24" width="48" height="48"><g fill="none" fill-rule="evenodd"><path fill="currentColor" d="M4.212 5.627c-.777-.359-1.68.204-1.783 1.114c-.092.819-.269 2.718-.269 5.291c0 2.604.18 4.518.272 5.319c.1.866.943 1.372 1.714 1.018c.692-.318 2.294-1.1 4.385-2.408c1.072-.67 1.97-1.29 2.67-1.8c.059 1.515.167 2.627.231 3.19c.1.866.943 1.372 1.714 1.018c.692-.318 2.294-1.1 4.385-2.408s3.516-2.42 4.117-2.91c.67-.546.686-1.592.042-2.117c-.597-.487-2.042-1.616-4.115-2.913c-2.05-1.282-3.66-2.07-4.363-2.394c-.777-.359-1.68.204-1.783 1.114c-.063.559-.165 1.62-.224 3.054a45 45 0 0 0-2.63-1.774c-2.05-1.282-3.66-2.07-4.363-2.394M4.1 11.961c0-1.69.08-3.073.157-4.02c.797.402 1.944 1.02 3.292 1.864a42 42 0 0 1 3.21 2.213a42 42 0 0 1-3.167 2.178a42 42 0 0 1-3.327 1.884a50 50 0 0 1-.165-4.12Zm9.002.41a1.4 1.4 0 0 0 0-.822a49 49 0 0 1 .155-3.608c.797.402 1.944 1.02 3.292 1.864a42 42 0 0 1 3.21 2.213a42 42 0 0 1-3.167 2.178a42 42 0 0 1-3.327 1.884a49 49 0 0 1-.163-3.71Z" /></g></svg>