<svg xmlns="http://www.w3.org/2000/svg" viewBox="0 0 24 24" width="48" height="48"><g fill="none" fill-rule="evenodd"><path fill="currentColor" d="m13.212 5.627l.356.168l.458.224l.553.283l.417.22l.693.38l.503.287l.533.313l.56.34q.143.087.29.179l.575.366l.54.353l.503.34l.466.324l.625.449l.367.27l.607.466l.432.345c.644.525.627 1.57-.043 2.117l-.307.247l-.562.435l-.73.54l-.426.302l-.465.323l-.505.34l-.266.176l-.56.362l-.295.185l-.558.344l-.532.318l-.503.292l-.474.267l-.442.242l-.599.317l-.354.181l-.712.348l-.21.099c-.772.354-1.616-.152-1.715-1.018l-.075-.74l-.068-.834l-.032-.492l-.03-.54l-.026-.583l-.496.355l-.269.189l-.58.396l-.636.42l-.689.44l-.558.343l-.787.467l-.722.41l-.442.242l-.599.317l-.354.181l-.712.348l-.21.099c-.772.354-1.616-.152-1.715-1.018l-.054-.517l-.062-.705l-.061-.88l-.04-.768l-.023-.56l-.023-.906l-.008-.647v-.683l.008-.667l.015-.631l.034-.875l.042-.783l.064-.891l.048-.546l.044-.433l.013-.118c.103-.91 1.006-1.473 1.783-1.114l.356.168l.458.224l.553.283l.417.22l.454.247l.487.274l.255.146l.533.313l.56.34a47 47 0 0 1 1.588 1.021l.574.392l.52.368l.24.173l.027-.592l.03-.544l.052-.72l.068-.772l.045-.427c.103-.91 1.006-1.473 1.783-1.114" /></g></svg>