<svg xmlns="http://www.w3.org/2000/svg" viewBox="0 0 24 24" width="48" height="48"><g fill="none" fill-rule="evenodd"><path fill="currentColor" d="M19.788 5.627c.777-.359 1.68.204 1.783 1.114c.092.819.269 2.718.269 5.291c0 2.604-.18 4.518-.272 5.319c-.1.866-.943 1.372-1.714 1.018c-.692-.318-2.294-1.1-4.385-2.408a46 46 0 0 1-2.67-1.8a44 44 0 0 1-.231 3.19c-.1.866-.943 1.372-1.714 1.018c-.692-.318-2.294-1.1-4.385-2.408s-3.516-2.42-4.117-2.91c-.67-.546-.686-1.592-.042-2.117c.597-.487 2.041-1.616 4.115-2.913c2.05-1.282 3.66-2.07 4.363-2.394c.777-.359 1.68.204 1.783 1.114c.063.559.165 1.62.224 3.054a45 45 0 0 1 2.63-1.774c2.05-1.282 3.66-2.07 4.363-2.394m.113 6.334c0-1.69-.08-3.073-.157-4.02a42 42 0 0 0-3.292 1.864a42 42 0 0 0-3.21 2.213a42 42 0 0 0 3.167 2.178a42 42 0 0 0 3.327 1.884c.08-.95.165-2.37.165-4.12Zm-9.002.41a1.4 1.4 0 0 1 0-.822a49 49 0 0 0-.155-3.608a42 42 0 0 0-3.292 1.864a42 42 0 0 0-3.21 2.213a42 42 0 0 0 3.167 2.178a42 42 0 0 0 3.327 1.884c.073-.874.151-2.147.163-3.71Z" /></g></svg>