<svg xmlns="http://www.w3.org/2000/svg" viewBox="0 0 24 24" width="48" height="48"><g fill="none" fill-rule="evenodd"><path fill="currentColor" d="M19.788 5.627c.777-.359 1.68.204 1.783 1.114l.027.25l.062.653l.065.845l.044.751l.026.554l.02.593l.016.631l.008.667v.683l-.008.647l-.023.907l-.022.56l-.04.767l-.062.88l-.062.705l-.054.517c-.1.866-.943 1.372-1.714 1.018l-.608-.29l-.315-.157l-.545-.28l-.408-.218l-.442-.242l-.474-.267l-.503-.292l-.532-.318l-.558-.344l-.69-.439l-.635-.42l-.58-.397l-.525-.37l-.24-.174l-.04.86l-.049.755l-.067.835l-.062.62l-.013.12c-.1.866-.943 1.372-1.714 1.018l-.608-.29l-.315-.157l-.545-.28l-.408-.218l-.442-.242l-.722-.41l-.518-.305l-.27-.162l-.557-.344l-.58-.368l-.275-.179l-.523-.348l-.485-.331l-.446-.314l-.594-.43l-.344-.258l-.562-.435l-.308-.247c-.67-.546-.686-1.592-.042-2.117l.432-.345l.607-.465l.367-.271l.407-.294l.684-.479l.503-.34l.54-.353l.575-.366l.573-.353l.277-.166l.533-.313l.503-.286l.47-.26l.436-.234l.757-.39l.589-.287l.225-.105c.777-.359 1.68.204 1.783 1.114l.045.427l.051.558l.052.68l.048.797l.028.592l.492-.353q.26-.185.547-.38l.599-.403a47 47 0 0 1 .992-.638l.573-.353l.277-.166l.533-.313l.503-.286l.47-.26l.436-.234l.757-.39l.589-.287z" /></g></svg>