<svg xmlns="http://www.w3.org/2000/svg" viewBox="0 0 24 24" width="48" height="48"><g fill="none" fill-rule="evenodd"><path fill="currentColor" d="m7.705 5.544l-1.85 1.48a96 96 0 0 1 4.893 3.966c.64.555.692 1.529.115 2.149a94 94 0 0 1-4.308 4.342l.063.105a180 180 0 0 0 5.01-4.047a1.5 1.5 0 0 1 1.996.053a94 94 0 0 1 3.83 3.824l.538-.36a94 94 0 0 0-3.366-4.208a1.505 1.505 0 0 1 .12-2.072a58 58 0 0 0 3.378-3.416l-1.159-1.49a96 96 0 0 1-2.954 3.705a1.5 1.5 0 0 1-2.247.056a92 92 0 0 0-4.059-4.087m-.91-1.834a1.5 1.5 0 0 1 1.961.077a94 94 0 0 1 4.084 4.068a95 95 0 0 0 2.915-3.702a1.504 1.504 0 0 1 2.39-.024l1.815 2.335c.44.566.421 1.372-.062 1.915a59 59 0 0 1-3.443 3.535a97 97 0 0 1 3.459 4.37c.515.691.34 1.668-.371 2.142l-1.331.888a1.5 1.5 0 0 1-1.929-.224a92 92 0 0 0-3.706-3.736c-1.694 1.42-3.43 2.792-5.172 4.156a1.5 1.5 0 0 1-2.21-.41l-.562-.934a1.5 1.5 0 0 1 .262-1.869a92 92 0 0 0 4.146-4.137a94 94 0 0 0-4.896-3.92a1.503 1.503 0 0 1-.04-2.377z" /></g></svg>