<svg xmlns="http://www.w3.org/2000/svg" viewBox="0 0 24 24" width="48" height="48"><g fill="none" fill-rule="evenodd"><path fill="currentColor" d="M6.373 10.279c-.45-.361-.428-.906-.194-1.374a6 6 0 0 1 3.47-3.009l.086-.029l-.235-.705a2.635 2.635 0 1 1 5 0l-.235.705l.086.03a6 6 0 0 1 3.47 3.008c.233.468.255 1.013-.194 1.374c.542.751.767 1.737.542 2.683c-.213.899-.37 1.817-.37 2.538s.157 1.639.37 2.538C18.62 19.94 17.257 22 15.151 22H8.85c-2.106 0-3.47-2.06-3.019-3.962c.213-.9.37-1.817.37-2.538s-.157-1.64-.37-2.538c-.224-.946 0-1.932.542-2.683m5.343-6.52a.636.636 0 0 1 .887.77l-.394 1.18a1.5 1.5 0 0 0 .949 1.898l.56.187a4 4 0 0 1 1.804 1.228a3 3 0 0 0-.37-.022H8.848q-.19 0-.371.022a4 4 0 0 1 1.803-1.228l.56-.187a1.5 1.5 0 0 0 .95-1.898l-.394-1.18c-.1-.3.036-.628.319-.769m-3.94 8.742C7.588 11.706 8.183 11 8.85 11h6.302c.666 0 1.26.706 1.072 1.5c-.224.947-.423 2.044-.423 3c0 .955.199 2.053.423 2.999c.189.795-.406 1.5-1.072 1.5H8.85c-.666 0-1.261-.705-1.073-1.5q.06-.246.114-.505a1 1 0 0 0 .11.006h3a1 1 0 1 0 0-2H8.183a8 8 0 0 0 0-1H11a1 1 0 1 0 0-2H7.889q-.054-.255-.113-.5" /></g></svg>