<svg xmlns="http://www.w3.org/2000/svg" viewBox="0 0 24 24" width="48" height="48"><g fill="none" fill-rule="evenodd"><path fill="currentColor" d="M12 2a3 3 0 0 0-2.931 3.642q-.587.271-1.11.641a3 3 0 1 0-2.931 5.077a7 7 0 0 0 0 1.28a3 3 0 1 0 2.93 5.077q.43.304.902.541l-.809 2.426a1 1 0 0 0 1.898.632l.808-2.426a7 7 0 0 0 2.486 0l.808 2.426a1 1 0 0 0 1.898-.632l-.809-2.426a7 7 0 0 0 .9-.54a3 3 0 1 0 2.93-5.077a7 7 0 0 0 .001-1.281a3 3 0 1 0-2.931-5.077a7 7 0 0 0-1.109-.641A3 3 0 0 0 12 2m2.498 14.332a5 5 0 0 0 .595-.403a3 3 0 0 1 .37-1.929a3 3 0 0 1 1.487-1.286a5 5 0 0 0 0-1.428A3 3 0 0 1 15.463 10a3 3 0 0 1-.371-1.929a5 5 0 0 0-1.236-.715A3 3 0 0 1 12 8c-.701 0-1.346-.24-1.857-.644c-.447.18-.863.421-1.236.715A3 3 0 0 1 8.536 10a3 3 0 0 1-1.485 1.286a5 5 0 0 0 0 1.428a2.995 2.995 0 0 1 1.856 3.216q.283.221.595.402l1.55-4.648a1 1 0 0 1 1.897 0l1.55 4.648Z" /></g></svg>