<svg xmlns="http://www.w3.org/2000/svg" viewBox="0 0 24 24" width="48" height="48"><g fill="none"><path fill="currentColor" d="M4.143 5.985a1 1 0 0 1 1.372-.342L8.8 7.613a6.22 6.22 0 0 0 6.4 0l3.285-1.97a1 1 0 0 1 1.03 1.714L16.23 9.328a8 8 0 0 1-1.267.618l-.343 3.78a2.5 2.5 0 0 1-.545 1.34l1.873 5.618a1 1 0 1 1-1.896.632l-1.775-5.324q-.073.006-.147.008h-.26q-.074-.002-.147-.008l-1.775 5.324a1 1 0 1 1-1.896-.632l1.872-5.618a2.5 2.5 0 0 1-.544-1.34l-.344-3.78a8 8 0 0 1-1.265-.618l-3.286-1.97a1 1 0 0 1-.342-1.373m8.766 4.463A8 8 0 0 1 12 10.5q-.458 0-.91-.052l.282 3.097a.5.5 0 0 0 .498.455h.26a.5.5 0 0 0 .498-.455zM13 5a1 1 0 1 0-2 0a1 1 0 0 0 2 0m2 0a3 3 0 1 1-6 0a3 3 0 0 1 6 0" /></g></svg>