<svg xmlns="http://www.w3.org/2000/svg" viewBox="0 0 24 24" width="48" height="48"><g fill="none" fill-rule="evenodd"><path fill="currentColor" d="M12 2v6.5a1.5 1.5 0 0 0 1.5 1.5H20v10a2 2 0 0 1-2 2H6a2 2 0 0 1-2-2V4a2 2 0 0 1 2-2zm0 16a1 1 0 1 0 0 2a1 1 0 0 0 0-2m0-6a2.5 2.5 0 0 0-2.5 2.5a1 1 0 1 0 2 0a.5.5 0 1 1 .809.393c-.22.173-.53.424-.784.737c-.174.214-.384.594-.384.948s.234.844.859.844c.402 0 .847-.374 1.254-.717q.15-.128.292-.24A2.5 2.5 0 0 0 12 12m2-9.957a2 2 0 0 1 1 .543L19.414 7a2 2 0 0 1 .543 1H14z" /></g></svg>