<svg xmlns="http://www.w3.org/2000/svg" viewBox="0 0 24 24" width="48" height="48"><g fill="none"><path fill="currentColor" d="M13.586 2A2 2 0 0 1 15 2.586L19.414 7A2 2 0 0 1 20 8.414V20a2 2 0 0 1-2 2H6a2 2 0 0 1-2-2v-8a1 1 0 1 1 2 0v8h12V10h-4.5A1.5 1.5 0 0 1 12 8.5V4h-1a1 1 0 1 1 0-2zM5 1a1 1 0 0 1 .946.677l.13.378c.3.879.99 1.57 1.87 1.87l.377.129a1 1 0 0 1 0 1.892l-.378.13c-.879.3-1.57.99-1.87 1.87l-.129.377a1 1 0 0 1-1.892 0l-.13-.378a3 3 0 0 0-1.87-1.87l-.377-.129a1 1 0 0 1 0-1.892l.378-.13c.879-.3 1.57-.99 1.87-1.87l.191-.523A1 1 0 0 1 5 1m9 7h3.586L14 4.414zM5 4.196A5 5 0 0 1 4.196 5q.449.355.804.803q.356-.447.803-.803A5 5 0 0 1 5 4.196" /></g></svg>