<svg xmlns="http://www.w3.org/2000/svg" viewBox="0 0 24 24" width="48" height="48"><g fill="none"><path fill="currentColor" d="m16.303 2.373l.103.114a1.5 1.5 0 0 1-.102 2.008l-5.122 5.122a.5.5 0 0 0 .707.707l2.294-2.293a1.5 1.5 0 0 1 2.121 0l.103.114a1.5 1.5 0 0 1-.103 2.007l-1.586 1.586a.5.5 0 0 0 .707.707l1.056-1.055a1.25 1.25 0 0 1 1.768 0l.085.095c.4.49.372 1.215-.085 1.672l-1.056 1.056a.5.5 0 0 0 0 .707l.078.064a.5.5 0 0 0 .629-.064l.349-.348a1.25 1.25 0 0 1 1.767-.001l.085.095c.4.491.372 1.215-.085 1.673l-3.36 3.358a7 7 0 0 1-9.926-9.87l7.452-7.454a1.5 1.5 0 0 1 2.121 0m-8.734.811c.591.124 1.09.457 1.501.868c.315.316.604.705.87 1.151L6.451 8.69L5.18 5.247c-.212-.573-.074-1.373.626-1.766l.208-.106a2.46 2.46 0 0 1 1.555-.191" /></g></svg>