<svg xmlns="http://www.w3.org/2000/svg" viewBox="0 0 24 24" width="48" height="48"><g fill="none"><path fill="currentColor" d="M9.5 2a2.5 2.5 0 0 1 2.495 2.336L12 4.5v4.605l5.442.605a4 4 0 0 1 3.553 3.772l.005.203V14a8 8 0 0 1-7.75 7.996L13 22h-.674a8 8 0 0 1-7.024-4.171l-.131-.251l-2.842-5.684c-.36-.72-.093-1.683.747-2.028c1.043-.427 2.034-.507 3.055.012q.333.17.654.414l.215.17V4.5A2.5 2.5 0 0 1 9.5 2M4.488 3.45a1 1 0 1 1 1.023 1.72c-.6.357-1.039.729-1.322 1.004a5 5 0 0 0-.263.274l-.121.145a1 1 0 0 1-1.394.215a1.01 1.01 0 0 1-.218-1.398a5.4 5.4 0 0 1 .6-.669a9.2 9.2 0 0 1 1.695-1.29Zm9.91-.57a9.6 9.6 0 0 1 2.532 1.604c.315.28.628.584.878.927a1 1 0 0 1-.219 1.397c-.41.3-.971.23-1.314-.122l-.147-.175l-.097-.11l-.14-.147l-.085-.085l-.204-.19A7.6 7.6 0 0 0 13.6 4.716a1 1 0 1 1 .798-1.834Z" /></g></svg>