<svg xmlns="http://www.w3.org/2000/svg" viewBox="0 0 24 24" width="48" height="48"><g fill="none" fill-rule="evenodd"><path fill="currentColor" d="M12 4a8 8 0 0 0-8 8c0 1.638.28 3.208.796 4.667a1 1 0 1 1-1.885.666A16 16 0 0 1 2 12C2 6.477 6.477 2 12 2s10 4.477 10 10a4 4 0 0 1-4 4a3.95 3.95 0 0 1-3.897-3.302l-.178-1.068A1.95 1.95 0 0 0 12 10a2 2 0 0 0-2 2a8 8 0 0 0 5.364 7.556a1 1 0 1 1-.659 1.888A10 10 0 0 1 8 12a4 4 0 0 1 4-4a3.95 3.95 0 0 1 3.897 3.302l.178 1.068c.157.94.971 1.63 1.925 1.63a2 2 0 0 0 2-2a8 8 0 0 0-8-8m0 3a5 5 0 0 0-5 5c0 3.285 1.439 6.233 3.724 8.25a1 1 0 0 1-1.323 1.5A12.97 12.97 0 0 1 5 12a7 7 0 0 1 14 0a1 1 0 1 1-2 0a5 5 0 0 0-5-5m0 4a1 1 0 0 1 1 1a5 5 0 0 0 5.834 4.93a1 1 0 0 1 .332 1.973A7 7 0 0 1 11 12a1 1 0 0 1 1-1" /></g></svg>