<svg xmlns="http://www.w3.org/2000/svg" viewBox="0 0 24 24" width="48" height="48"><g fill="none"><path fill="currentColor" d="M9.746 1.13a2.533 2.533 0 0 1 3.058 1.642l.777 2.322l.586-1.471a2.538 2.538 0 0 1 4.766 1.742L17.15 10.71l.459.046a3 3 0 0 1 2.547 3.933l-.712 2.137a7.566 7.566 0 0 1-14.564-.75l-.824-3.714c-.18-.417-.266-.875-.383-1.312a2.5 2.5 0 0 1 2.798-3.116A2.49 2.49 0 0 1 8.57 6.388l-.603-2.115a2.533 2.533 0 0 1 1.78-3.142m1.269 11a.386.386 0 0 0-.004.745l4.252 1.16a1 1 0 0 1 .57 1.52l-1 1.5a1 1 0 0 1-1.665-1.11l.23-.345l-2.913-.795a2.38 2.38 0 0 1-1.631-1.54a2.5 2.5 0 0 1-.658-.218a2.5 2.5 0 0 1-1.758.818l.395 1.777a5.567 5.567 0 0 0 10.715.551l.712-2.136a1 1 0 0 0-.849-1.311l-6.26-.626a.4.4 0 0 0-.136.01M5.959 9.92a.5.5 0 0 0-.353.612c.1.377.192.752.329 1.115a.498.498 0 0 0 .895-.408l-.295-1.06a.5.5 0 0 0-.576-.26m2.696-1.527a.5.5 0 0 0-.353.613l.517 1.931a.5.5 0 0 0 .261.316c.174-.282.403-.522.67-.708c-.174-.647-.36-1.291-.545-1.936a.5.5 0 0 0-.55-.216m1.609-5.33a.533.533 0 0 0-.374.66c.613 2.148 1.25 4.283 1.828 6.438v.005l3.392.34l1.925-5.774a.538.538 0 0 0-1.01-.369L14.43 8.37a1 1 0 0 1-1.877-.053l-1.645-4.909a.533.533 0 0 0-.643-.346" /></g></svg>