<svg xmlns="http://www.w3.org/2000/svg" viewBox="0 0 24 24" width="48" height="48"><g fill="none" fill-rule="evenodd"><path fill="currentColor" d="M9.5 1A2.5 2.5 0 0 0 7 3.5v6.962a4.7 4.7 0 0 0-.87-.584c-1.02-.518-2.01-.438-3.053-.012c-.84.345-1.107 1.308-.747 2.028l2.842 5.684A8 8 0 0 0 12.326 22H13a8 8 0 0 0 8-8V6.5a2.5 2.5 0 0 0-5 0v1.55a2.5 2.5 0 0 0-2 .45a2.5 2.5 0 0 0-2-.45V3.5A2.5 2.5 0 0 0 9.5 1m6.5 9.5a.5.5 0 1 0-1 0v.5a1 1 0 1 1-2 0v-.5a.5.5 0 1 0-1 0V12a1 1 0 1 1-2 0V3.5a.5.5 0 1 0-1 0V13a1 1 0 0 1-1.78.625c-.925-1.156-1.517-1.72-1.995-1.964a1.2 1.2 0 0 0-.835-.117l2.57 5.14A6 6 0 0 0 12.326 20H13a6 6 0 0 0 6-6V6.5a.5.5 0 1 0-1 0V12a1 1 0 1 1-2 0z" /></g></svg>