<svg xmlns="http://www.w3.org/2000/svg" viewBox="0 0 24 24" width="48" height="48"><g fill="none" fill-rule="evenodd"><path fill="currentColor" d="M17.128 2.51a1 1 0 0 1 1.744.98l-.142.243c-.255.416-.622.878-1.276 1.122c-.698.26-1.56.208-2.63.018c-.475-.084-.774-.029-.962.05a.9.9 0 0 0-.285.186c.59.086 1.135.219 1.603.394c.427.16.843.375 1.17.665c.292.26.585.648.64 1.158L17 7.5v12c0 .596-.326 1.044-.65 1.332c-.328.29-.743.505-1.17.665c-.863.323-1.987.503-3.18.503s-2.317-.18-3.18-.503c-.427-.16-.843-.375-1.17-.665c-.292-.26-.585-.648-.64-1.158L7 19.5v-12c0-.596.326-1.044.65-1.332c.327-.29.743-.505 1.17-.665c.7-.262 1.571-.43 2.512-.484c.1-.272.23-.539.394-.79c.31-.471.753-.896 1.365-1.152c.61-.255 1.31-.31 2.084-.173q.21.038.383.062l.32.04q.072.008.137.013l.235.013l.098.002l.163-.006l.066-.007l.105-.018l.092-.029l.045-.025c.058-.043.144-.145.31-.44Zm-6.127 4.542c-.589.064-1.096.18-1.478.324l-.135.053c-.123.055-.123.087 0 .141l.135.054c.526.198 1.288.344 2.176.371L12 8a1 1 0 0 1-.999-.948m1.998 0a1 1 0 0 1-.886.942L12 8c1.016 0 1.892-.156 2.477-.376l.135-.054c.123-.054.123-.086 0-.14l-.135-.054A6.2 6.2 0 0 0 13 7.052Z" /></g></svg>