<svg xmlns="http://www.w3.org/2000/svg" viewBox="0 0 24 24" width="48" height="48"><g fill="none"><path fill="currentColor" d="M17.656 7.77a.847.847 0 1 1 .936 1.402l-.1.045l-4.198 1.572c-.093.035-.165-.067-.124-.14l.025-.03l3.461-2.85ZM17 3.34a.847.847 0 0 1 .23 1.272l-2.849 3.46c-.071.088-.21.008-.17-.098l1.572-4.198A.847.847 0 0 1 17 3.34m4.014 7.825a.847.847 0 1 1 0 1.67l-4.422-.736c-.112-.019-.112-.179 0-.197zm-6.804 4.861c-.034-.092.068-.165.142-.124l.03.026l2.848 3.46a.847.847 0 1 1-1.402.937l-.045-.101zm.084-2.815l4.198 1.572a.847.847 0 1 1-.836 1.447l-3.46-2.849c-.088-.071-.008-.21.098-.17m-4.505 2.815l-1.572 4.198a.847.847 0 1 1-1.448-.836l2.85-3.46c.071-.088.21-.008.17.098m.016-2.645l-3.461 2.85a.847.847 0 1 1-.836-1.448l4.198-1.572c.106-.04.186.099.099.17M2 12.001c0 .523.47.92.986.835l4.422-.737c.112-.019.112-.179 0-.197l-4.422-.737A.847.847 0 0 0 2 12ZM5.072 8a.847.847 0 0 1 1.182-.295l.09.065l3.46 2.849c.077.062.025.176-.06.177l-.038-.006l-4.198-1.573A.847.847 0 0 1 5.072 8m3.145-4.224l1.572 4.198c.04.106-.099.186-.17.099l-2.85-3.461a.847.847 0 1 1 1.448-.836m2.948 1.21a.847.847 0 1 1 1.67 0L12.1 9.408c-.019.112-.179.112-.197 0l-.737-4.422Zm1.67 14.028a.847.847 0 1 1-1.67 0l.737-4.422c.018-.112.178-.112.197 0z" /></g></svg>