<svg xmlns="http://www.w3.org/2000/svg" viewBox="0 0 24 24" width="48" height="48"><g fill="none" fill-rule="evenodd"><path fill="currentColor" d="M13.362 3.536c.484.093 1.191.335 1.532 1.017c.747 1.494.13 2.914-.532 3.797c-.432.576-.988 1.118-1.635 1.45c-.135.07-.41.2-.727.2c-.591 0-1.17-.269-1.645-.605c-.09.306-.177.642-.252.998a10.6 10.6 0 0 0-.24 2.078c1.053-.34 2.13-.304 3.058.22a6.5 6.5 0 0 1 2.357-1.173c1.3-.341 2.86-.294 4.277.65c1.015.677 1.784 1.952 1.939 3.347c.162 1.454-.343 3.044-1.87 4.266c-1.078.862-2.721 1.195-4.233 1.316c-1.565.126-3.218.04-4.501-.103c-2.378-.264-4.204-.928-5.48-1.613c-.837-.45-1.982-1.072-2.345-2.025c-.245-.646-.181-1.43-.121-2.102c.08-.881.276-1.981.643-3.173c.732-2.379 2.165-5.194 4.776-7.352c.803-.664 2.147-1.076 3.272-1.214c.58-.071 1.19-.081 1.727.021" /></g></svg>