<svg xmlns="http://www.w3.org/2000/svg" viewBox="0 0 24 24" width="48" height="48"><g fill="none" fill-rule="evenodd"><path fill="currentColor" d="M7.747 5.592a24.3 24.3 0 0 1 3.672-3.406a1 1 0 0 1 1.162 0a25 25 0 0 1 3.672 3.406C18.584 8.256 20 11.088 20 14a8 8 0 1 1-16 0c0-2.912 1.415-5.743 3.747-8.408m4.696-.958A19 19 0 0 0 12 4.265l-.443.37a23 23 0 0 0-2.304 2.274C7.21 9.243 6 11.663 6 14c0 1.429.5 2.74 1.333 3.77a5 5 0 0 1-.023-.464c0-1.673.796-3.265 2.095-4.75c.6-.685 1.28-1.331 2.018-1.87a1 1 0 0 1 1.163 0c.74.53 1.42 1.187 2.018 1.87c1.3 1.485 2.095 3.077 2.095 4.75q0 .228-.022.452A5.98 5.98 0 0 0 18 14c0-2.338-1.21-4.757-3.253-7.091a23 23 0 0 0-2.304-2.275m-.439 8.152c-.385.342-.755.7-1.094 1.088c-1.01 1.154-1.6 2.334-1.6 3.432a2.694 2.694 0 0 0 5.389 0c0-1.098-.59-2.278-1.6-3.432c-.19-.218-1.133-1.121-1.095-1.088" /></g></svg>