<svg xmlns="http://www.w3.org/2000/svg" viewBox="0 0 24 24" width="48" height="48"><g fill="none"><path fill="currentColor" d="M21 20a1 1 0 0 1 .117 1.993L21 22H3a1 1 0 0 1-.117-1.993L3 20zM7.93 4.177l6.563 5.36l4.573-.855a3 3 0 0 1 2.953 1.152l.162.219c.18.257.316.524.245.868a2.91 2.91 0 0 1-2.1 2.23L5.208 17.2a1.5 1.5 0 0 1-1.614-.585L.93 12.833a.5.5 0 0 1 .28-.77l1.623-.436a1.5 1.5 0 0 1 1.379.322l.746.656l.01.002l4.2-1.64a.01.01 0 0 0 .004-.016L4.447 5.196a.5.5 0 0 1 .257-.8l1.89-.506a1.5 1.5 0 0 1 1.336.287" /></g></svg>