<svg xmlns="http://www.w3.org/2000/svg" viewBox="0 0 24 24" width="48" height="48"><g fill="none" fill-rule="evenodd"><path fill="currentColor" d="M15.31 3a5.69 5.69 0 0 1 4.629 9A5.69 5.69 0 0 1 12 19.939A5.69 5.69 0 0 1 4.061 12A5.69 5.69 0 0 1 12 4.061A5.67 5.67 0 0 1 15.31 3m3.168 10.417a5.67 5.67 0 0 1-3.168.963h-.094a4 4 0 0 1-3.534 1.608a3.67 3.67 0 0 0 1.024 1.936a3.69 3.69 0 0 0 5.772-4.507M8.012 11.682a3.67 3.67 0 0 0-1.936 1.024a3.69 3.69 0 0 0 4.507 5.772a5.67 5.67 0 0 1-.963-3.168v-.094a4 4 0 0 1-1.608-3.534M12 10a2 2 0 1 0 0 4a2 2 0 0 0 0-4m3.31-5c-.692 0-1.34.19-1.893.522c.608.905.963 1.996.963 3.168v.094a4 4 0 0 1 1.608 3.534a3.7 3.7 0 0 0 1.936-1.024A3.69 3.69 0 0 0 15.31 5M8.69 5a3.69 3.69 0 0 0-3.168 5.583A5.67 5.67 0 0 1 8.69 9.62h.094a4 4 0 0 1 3.534-1.608a3.7 3.7 0 0 0-1.024-1.936A3.68 3.68 0 0 0 8.69 5" /></g></svg>