<svg xmlns="http://www.w3.org/2000/svg" viewBox="0 0 24 24" width="48" height="48"><g fill="none"><path fill="currentColor" d="M7.76 11.24q.156 0 .31.01a3.99 3.99 0 0 0 1.28 3.747q-.109.606-.11 1.243a6.97 6.97 0 0 0 1.53 4.368a5.69 5.69 0 0 1-7.72-6.047a5 5 0 0 1 4.71-3.321m12.848 1.99a5.69 5.69 0 0 1-6.047 7.72a5 5 0 0 1-3.312-5.02a3.99 3.99 0 0 0 3.747-1.28q.607.109 1.244.11a6.97 6.97 0 0 0 4.368-1.53M12 10a2 2 0 1 1 0 4a2 2 0 0 1 0-4m3.31-7a5.69 5.69 0 0 1 5.641 6.44a5 5 0 0 1-5.021 3.31a3.99 3.99 0 0 0-1.28-3.747q.109-.606.11-1.243a6.97 6.97 0 0 0-1.53-4.368A5.7 5.7 0 0 1 15.31 3M8.69 3q.381 0 .75.049a5 5 0 0 1 3.31 5.021a3.99 3.99 0 0 0-3.747 1.28a7 7 0 0 0-1.243-.11a6.97 6.97 0 0 0-4.368 1.53A5.69 5.69 0 0 1 8.69 3" /></g></svg>