<svg xmlns="http://www.w3.org/2000/svg" viewBox="0 0 24 24" width="48" height="48"><g fill="none"><path fill="currentColor" d="M10.499 2.601C10.89 2.299 11.42 2 12 2s1.11.299 1.501.601c.424.327.836.773 1.197 1.295q.276.399.516.87a7.1 7.1 0 0 1 2.945-.786C19.287 3.927 20 4.876 20 5.798V8a8 8 0 0 1-7 7.938v3.07c1.076-.669 2.662-1.454 4.758-1.978a1 1 0 1 1 .485 1.94c-3.218.805-5.036 2.29-5.45 2.658c-.233.208-.464.372-.793.372c-.325 0-.556-.16-.787-.367c-.401-.358-2.22-1.854-5.456-2.663a1 1 0 1 1 .486-1.94c2.095.524 3.68 1.31 4.757 1.978v-3.07A8 8 0 0 1 4 8V5.784c0-.909.692-1.85 1.807-1.82c.734.02 1.854.168 3 .763c.152-.298.32-.577.495-.83c.36-.523.773-.97 1.197-1.296" /></g></svg>