<svg xmlns="http://www.w3.org/2000/svg" viewBox="0 0 24 24" width="48" height="48"><g fill="none" fill-rule="evenodd"><path fill="currentColor" d="M7 3.34c1.026-.592 2.209-.55 3.24-.131a5.35 5.35 0 0 1 1.82 1.254a5.9 5.9 0 0 1 1.805-1.21c.997-.413 2.14-.487 3.135.087s1.503 1.602 1.644 2.671c.09.688.038 1.428-.147 2.17a5.3 5.3 0 0 1 1.996.947C21.373 9.812 22 10.816 22 12c0 1.178-.62 2.178-1.493 2.86a5.3 5.3 0 0 1-1.928.939c.197.721.25 1.453.152 2.138c-.156 1.097-.71 2.134-1.73 2.723c-1.027.593-2.21.55-3.241.131a5.35 5.35 0 0 1-1.819-1.254c-.55.53-1.165.946-1.806 1.21c-.997.413-2.14.487-3.135-.087s-1.502-1.602-1.644-2.671a5.9 5.9 0 0 1 .147-2.17a5.35 5.35 0 0 1-1.996-.947C2.627 14.188 2 13.185 2 12c0-1.178.62-2.177 1.493-2.86A5.3 5.3 0 0 1 5.42 8.2a5.3 5.3 0 0 1-.152-2.138C5.425 4.966 5.979 3.929 7 3.34m2.487 1.72C8.89 4.82 8.375 4.855 8 5.071c-.373.216-.661.64-.751 1.273c-.081.571.012 1.265.33 1.959l.114.231l.75 1.413l-1.598.056c-.871.03-1.614.315-2.119.71C4.224 11.108 4 11.57 4 12c0 .433.226.898.734 1.293c.464.36 1.126.628 1.902.692l.237.013l1.5.043l-.618 1.368c-.384.851-.5 1.675-.416 2.318c.085.645.353 1.023.661 1.201s.77.22 1.37-.028c.54-.224 1.125-.662 1.634-1.3l.166-.22l.876-1.218l.787 1.278c.461.747 1.082 1.255 1.68 1.499c.597.242 1.112.206 1.487-.01c.373-.216.661-.64.751-1.273c.081-.571-.012-1.265-.33-1.959l-.114-.231l-.75-1.412l1.598-.057c.871-.03 1.614-.315 2.119-.71c.502-.394.726-.856.726-1.287c0-.433-.226-.898-.734-1.293c-.464-.36-1.126-.627-1.902-.692l-.236-.013l-1.5-.043l.617-1.368c.384-.85.5-1.674.416-2.318S16.308 5.25 16 5.072s-.77-.22-1.37.028c-.54.224-1.125.662-1.633 1.3l-.167.22l-.876 1.218l-.787-1.278c-.461-.747-1.082-1.255-1.68-1.499ZM12 8a4 4 0 1 1 0 8a4 4 0 0 1 0-8m0 2a2 2 0 1 0 0 4a2 2 0 0 0 0-4" /></g></svg>