<svg xmlns="http://www.w3.org/2000/svg" viewBox="0 0 24 24" width="48" height="48"><g fill="none" fill-rule="evenodd"><path fill="currentColor" d="M12 4c5.015 0 9.244 3.356 10.57 7.942a1 1 0 0 1-.4 1.106l-.102.06l-7.891 4.082l.283.146a1 1 0 0 1-.813 1.824l-.106-.048l-1.54-.796l-1.541.796a1 1 0 0 1-1.02-1.717l.1-.06l.284-.145l-7.892-4.082a1 1 0 0 1-.501-1.166C2.756 7.356 6.985 4 12.001 4Zm0 9c-1.18 0-2.2.681-2.69 1.672L12 16.064l2.691-1.392A3 3 0 0 0 12.001 13Zm0-7a9 9 0 0 0-8.386 5.726l3.919 2.027A5 5 0 0 1 12 11a5 5 0 0 1 4.468 2.753l3.919-2.027A9 9 0 0 0 12 6" /></g></svg>