<svg xmlns="http://www.w3.org/2000/svg" viewBox="0 0 24 24" width="48" height="48"><g fill="none"><path fill="currentColor" d="M12 2c5.523 0 10 4.477 10 10s-4.477 10-10 10S2 17.523 2 12S6.477 2 12 2m3.408 2.76l-2.82 2.049a1 1 0 0 1-1.067.069l-.109-.069l-2.82-2.049a8 8 0 0 0-2.19 1.525l-.234.239l1.077 3.313a1 1 0 0 1-.264 1.036l-.1.082l-2.819 2.048c.114.91.38 1.771.773 2.559l.153.292h3.485a1 1 0 0 1 .909.582l.042.109l1.078 3.315a8 8 0 0 0 2.63.06l.367-.06l1.077-3.315a1 1 0 0 1 .834-.684l.117-.007h3.485a8 8 0 0 0 .876-2.512l.05-.339l-2.82-2.048a1 1 0 0 1-.395-.994l.032-.124l1.077-3.313A8 8 0 0 0 15.71 4.91zm-3.996 3.431a1 1 0 0 1 1.067-.069l.109.069l2.853 2.073a1 1 0 0 1 .395.993l-.032.125l-1.09 3.354a1 1 0 0 1-.834.684l-.117.007h-3.526a1 1 0 0 1-.909-.582l-.042-.109l-1.09-3.354a1 1 0 0 1 .264-1.036l.1-.082z" /></g></svg>