<svg xmlns="http://www.w3.org/2000/svg" viewBox="0 0 24 24" width="48" height="48"><g fill="none"><path fill="currentColor" d="M17.015 3.055a1 1 0 0 1 1.26 1.548l-.098.079l-2.101 1.501a1.96 1.96 0 0 0-.794 1.937l.032.152l3.343-3.343a1 1 0 0 1 1.497 1.32l-.083.094l-3.343 3.343c.705.18 1.485-.04 1.986-.63l.103-.132l1.501-2.101a1 1 0 0 1 1.694 1.055l-.067.107l-1.5 2.102a3.97 3.97 0 0 1-5.054 1.216l-.18-.1l-2.297 2.296l4.157 4.158a1 1 0 0 1 .083 1.32l-.083.094a1 1 0 0 1-1.32.083l-.094-.083l-4.157-4.158l-4.157 4.158a1 1 0 0 1-1.32.083l-.094-.083a1 1 0 0 1-.083-1.32l.083-.094l4.157-4.158l-1.61-1.61a4.5 4.5 0 0 1-1.355.473l-.25.037a3.89 3.89 0 0 1-3.279-1.15C2.663 10.319 2.132 9.15 2 8.027c-.13-1.105.12-2.289.93-3.098c.809-.81 1.992-1.06 3.097-.93c1.123.133 2.293.664 3.222 1.593a3.89 3.89 0 0 1 1.15 3.278c-.06.505-.207.984-.406 1.401l-.104.204l1.61 1.61l2.298-2.296a3.97 3.97 0 0 1 .944-5.103l.172-.13z" /></g></svg>