<svg xmlns="http://www.w3.org/2000/svg" viewBox="0 0 24 24" width="48" height="48"><g fill="none"><path fill="currentColor" d="M7.43 3.561c2.874-1.694 6.618-2.324 9.18-.354c1.052.81 1.44 2.007 1.671 2.97l.077.355l.07.363c.106.57.214 1.15.467 1.66c.227.457.534.863.863 1.256l.402.466c.382.438.765.876 1.067 1.367c.42.684.746 1.489.8 2.474c.053.977-.166 2.056-.713 3.288c-1.852 4.166-6.837 5.282-11.025 4.28C6.037 20.67 2 17.356 2 12c0-3.64 2.515-6.72 5.43-8.439M12 7a5 5 0 1 0 0 10a5 5 0 0 0 0-10m0 2a3 3 0 1 1 0 6a3 3 0 0 1 0-6" /></g></svg>