<svg xmlns="http://www.w3.org/2000/svg" viewBox="0 0 24 24" width="48" height="48"><g fill="none"><path fill="currentColor" d="M3.146 5.737C4.39 5.076 7.16 4 12 4s7.61 1.076 8.854 1.737c.895.477 1.127 1.496.828 2.293l-2.576 6.87a1.517 1.517 0 0 1-1.843.92a23 23 0 0 0-2.108-.498a4.16 4.16 0 0 1-.141 5.011l-.233.292a1 1 0 0 1-1.562-1.25l.233-.291a2.16 2.16 0 0 0-.16-2.877a4.2 4.2 0 0 1-.836-1.199a18 18 0 0 1 2.7.314a4 4 0 0 0-.449-.53a2.16 2.16 0 0 1-.16-2.876l.234-.291a1 1 0 1 0-1.562-1.25l-.233.292a4.16 4.16 0 0 0-.53 4.341a13 13 0 0 0-1.52.034a4.16 4.16 0 0 1 .078 5.291l-.233.292a1 1 0 0 1-1.562-1.25l.233-.291a2.16 2.16 0 0 0-.16-2.877a4.2 4.2 0 0 1-.652-.846c.69-.136 1.48-.258 2.297-.32a4 4 0 0 0-.23-.248a2.16 2.16 0 0 1-.16-2.877l.234-.291a1 1 0 1 0-1.562-1.25l-.233.292a4.16 4.16 0 0 0-.346 4.694c-.812.16-1.486.34-1.903.46a1.517 1.517 0 0 1-1.843-.921L2.318 8.03c-.299-.797-.067-1.816.828-2.293" /></g></svg>