<svg xmlns="http://www.w3.org/2000/svg" viewBox="0 0 24 24" width="48" height="48"><g fill="none"><path fill="currentColor" d="M10.625 10.22a1 1 0 0 1 .156 1.405l-.233.291a2.16 2.16 0 0 0 .036 2.743l.123.134a4.16 4.16 0 0 1 .307 5.54l-.233.292a1 1 0 1 1-1.562-1.25l.233-.291a2.16 2.16 0 0 0-.036-2.743l-.123-.134a4.16 4.16 0 0 1-.307-5.54l.233-.292a1 1 0 0 1 1.406-.156Zm2.594.155a1 1 0 0 1 1.634 1.147l-.072.103l-.233.291a2.16 2.16 0 0 0 .036 2.743l.123.134a4.16 4.16 0 0 1 .439 5.367l-.132.173l-.233.292a1 1 0 0 1-1.634-1.147l.072-.103l.233-.291a2.16 2.16 0 0 0-.036-2.743l-.123-.134a4.16 4.16 0 0 1-.439-5.367l.132-.173zM12 4c3.228 0 5.535.478 7.083.993l.403.14l.366.142q.087.034.17.07l.312.136q.075.034.143.067l.26.128q.061.03.118.061c.895.477 1.127 1.496.828 2.293l-2.746 7.321a1 1 0 0 1-1.872-.702l2.707-7.22l-.21-.101l-.242-.11l-.277-.113l-.312-.118l-.17-.06l-.365-.118l-.402-.118l-.215-.058l-.459-.113l-.244-.054l-.516-.102C15.196 6.15 13.754 6 11.999 6c-2.159 0-3.844.228-5.118.52l-.459.113l-.215.058l-.402.118l-.366.119l-.33.118l-.151.059l-.277.114l-.243.109l-.21.1l2.708 7.22a1 1 0 1 1-1.872.703l-2.746-7.32c-.299-.798-.067-1.817.828-2.294l.243-.124q.065-.033.134-.065l.295-.135q.156-.068.33-.138l.367-.141l.403-.141C6.466 4.478 8.773 4 12 4" /></g></svg>