<svg xmlns="http://www.w3.org/2000/svg" viewBox="0 0 24 24" width="48" height="48"><g fill="none" fill-rule="evenodd"><path fill="currentColor" d="M12 3a2.5 2.5 0 0 1 1 4.792v1.916a2.5 2.5 0 0 1 0 4.584v1.916a2.5 2.5 0 0 1 1.292 1.292h1.916a2.5 2.5 0 1 1 0 2h-1.916A2.5 2.5 0 1 1 11 16.208v-1.916a2.5 2.5 0 0 1 0-4.584V7.792A2.5 2.5 0 0 1 9.708 6.5H7.792a2.5 2.5 0 1 1 0-2h1.916A2.5 2.5 0 0 1 12 3M5.5 16a2.5 2.5 0 1 1 0 5a2.5 2.5 0 0 1 0-5m6.5 2a.5.5 0 1 0 0 1a.5.5 0 0 0 0-1m6.5 0a.5.5 0 1 0 0 1a.5.5 0 0 0 0-1m-13 0a.5.5 0 1 0 0 1a.5.5 0 0 0 0-1m0-8.5a2.5 2.5 0 1 1 0 5a2.5 2.5 0 0 1 0-5m13 0a2.5 2.5 0 1 1 0 5a2.5 2.5 0 0 1 0-5m-6.5 2a.5.5 0 1 0 0 1a.5.5 0 0 0 0-1m-6.5 0a.5.5 0 1 0 0 1a.5.5 0 0 0 0-1m13 0a.5.5 0 1 0 0 1a.5.5 0 0 0 0-1m0-8.5a2.5 2.5 0 1 1 0 5a2.5 2.5 0 0 1 0-5m-13 2a.5.5 0 1 0 0 1a.5.5 0 0 0 0-1M12 5a.5.5 0 1 0 0 1a.5.5 0 0 0 0-1m6.5 0a.5.5 0 1 0 0 1a.5.5 0 0 0 0-1" /></g></svg>