<svg xmlns="http://www.w3.org/2000/svg" viewBox="0 0 24 24" width="48" height="48"><g fill="none" fill-rule="evenodd"><path fill="currentColor" d="M19 4a3 3 0 0 1 2.995 2.824L22 7v10a3 3 0 0 1-2.824 2.995L19 20H5a3 3 0 0 1-2.995-2.824L2 17V7a3 3 0 0 1 2.824-2.995L5 4zm0 2H5a1 1 0 0 0-.993.883L4 7v10a1 1 0 0 0 .883.993L5 18h14a1 1 0 0 0 .993-.883L20 17V7a1 1 0 0 0-.883-.993zm-6.646 2.992a2.6 2.6 0 0 1 3.4-1.033l.152.08l.593.344a2.714 2.714 0 0 1 .994 3.708a3.29 3.29 0 0 1-2.91 1.642l-.205-.01l.968 1.677a1 1 0 0 1-1.668 1.098l-.064-.098L12 13.605L10.386 16.4a1 1 0 0 1-1.784-.895l.052-.105l.968-1.677a3.29 3.29 0 0 1-3.115-1.632a2.714 2.714 0 0 1 .842-3.614l.152-.094l.594-.343a2.6 2.6 0 0 1 3.46.806l.091.146l.354.612zm1.732 1l-.7 1.212l.619.357a1.286 1.286 0 0 0 1.756-.47a.714.714 0 0 0-.262-.976l-.594-.343a.6.6 0 0 0-.82.22m-4.172 0a.6.6 0 0 0-.731-.262l-.088.042l-.594.343a.714.714 0 0 0-.262.976a1.286 1.286 0 0 0 1.64.53l.117-.06l.618-.357z" /></g></svg>