<svg xmlns="http://www.w3.org/2000/svg" viewBox="0 0 24 24" width="48" height="48"><g fill="none" fill-rule="evenodd"><path fill="currentColor" d="M20 13v5a3 3 0 0 1-3 3h-4v-8zm-9 0v8H7a3 3 0 0 1-3-3v-5zM9 2a4 4 0 0 1 3 1.354A4 4 0 0 1 15 2h.5A1.5 1.5 0 0 1 17 3.5V4c0 .729-.195 1.412-.535 2H19a2 2 0 0 1 2 2v2c0 .364-.097.706-.268 1H13V8a1 1 0 1 0-2 0v3H3.268A2 2 0 0 1 3 10V8a2 2 0 0 1 2-2h2.535A4 4 0 0 1 7 4v-.5A1.5 1.5 0 0 1 8.5 2Zm0 2a2 2 0 0 0 2 2a2 2 0 0 0-2-2m6 0a2 2 0 0 0-2 2a2 2 0 0 0 2-2" /></g></svg>