<svg xmlns="http://www.w3.org/2000/svg" viewBox="0 0 24 24" width="48" height="48"><g fill="none" fill-rule="evenodd"><path fill="currentColor" d="M17.883 2a2 2 0 0 1 1.987 2.22l-1.777 16A2 2 0 0 1 16.105 22h-8.21a2 2 0 0 1-1.988-1.78l-1.778-16A2 2 0 0 1 6.117 2zm0 2H6.117l.425 3.823a8 8 0 0 1 1.087-.134c1.199-.07 2.856.074 4.765.892c1.591.682 2.934.788 3.86.733a6 6 0 0 0 1.055-.15zm-.805 7.24q-.319.047-.707.07c-1.199.071-2.856-.073-4.765-.89c-1.591-.683-2.934-.789-3.86-.734a6 6 0 0 0-.982.134L7.895 20h8.21zM11 13a1 1 0 1 1-2 0a1 1 0 0 1 2 0m2 4a1 1 0 1 0 0-2a1 1 0 0 0 0 2" /></g></svg>