<svg xmlns="http://www.w3.org/2000/svg" viewBox="0 0 24 24" width="48" height="48"><g fill="none"><path fill="currentColor" d="M2.17 10.154c2.009 2.155 4.855 3.52 7.752 3.795c.29 2.96 1.629 5.96 3.973 7.872q-.922.177-1.895.179C6.477 22 2 17.523 2 12q.001-.947.17-1.846m19.698.216q.131.796.132 1.63a10 10 0 0 1-5.699 9.03c-2.483-1.32-4.026-4.157-4.37-7.06c3.324-.203 7.134-1.471 9.937-3.6m-5.863-7.536a10.04 10.04 0 0 1 5.276 5.437c-2.443 2.135-6.166 3.484-9.393 3.699q.032-.407.098-.806c.534-3.199 1.69-6.406 4.02-8.33M12 2q.924.002 1.802.162c-2.252 2.389-3.3 5.738-3.788 8.674q-.09.54-.127 1.098c-2.757-.324-5.407-1.825-7-4.058A10 10 0 0 1 12 2" /></g></svg>