<svg xmlns="http://www.w3.org/2000/svg" viewBox="0 0 24 24" width="48" height="48"><g fill="none" fill-rule="evenodd"><path fill="currentColor" d="M12 2c4.634 0 8.532 3.152 9.667 7.43l.071.287C21.91 10.45 22 11.215 22 12c0 5.523-4.477 10-10 10S2 17.523 2 12S6.477 2 12 2m-7.996 9.748L4 11.874V12a8 8 0 0 0 7.75 7.996L12 20l.177-.002c-1.29-1.757-2.048-3.916-2.257-6.05a12.4 12.4 0 0 1-5.916-2.2m15.986-.156c-2.487 1.384-5.415 2.217-8.056 2.379c.249 2.103 1.122 4.167 2.523 5.645a8 8 0 0 0 5.533-8.024m-5.457-7.183c-1.38 1.887-2.145 4.344-2.547 6.755a9 9 0 0 0-.097.806c2.537-.17 5.405-1.043 7.713-2.47a8.02 8.02 0 0 0-5.07-5.09M12 4a8 8 0 0 0-7.608 5.518a10.4 10.4 0 0 0 5.494 2.416q.037-.556.128-1.098c.376-2.26 1.076-4.727 2.378-6.827Q12.198 4 12 4" /></g></svg>