<svg xmlns="http://www.w3.org/2000/svg" viewBox="0 0 24 24" width="48" height="48"><g fill="none"><path fill="currentColor" d="M4.813 7.463a8.5 8.5 0 0 1 8.4-3.877a1.5 1.5 0 0 1-.426 2.97a5.5 5.5 0 0 0-5.94 7.366c.644 1.735.947 4.406-.859 6.213l-.705.705a1.5 1.5 0 0 1-2.121-2.121l.704-.706c.537-.537.679-1.674.169-3.046a8.49 8.49 0 0 1 .778-7.504M18.717 3.16a1.5 1.5 0 0 1 2.122 2.121l-.712.711c-.531.54-.668 1.675-.16 3.041A8.503 8.503 0 0 1 9.704 20.186a1.501 1.501 0 0 1 .811-2.888a5.503 5.503 0 0 0 6.64-7.22a8 8 0 0 1-.263-.85l-3.125 3.125a1.5 1.5 0 1 1-2.12-2.12z" /></g></svg>