<svg xmlns="http://www.w3.org/2000/svg" viewBox="0 0 24 24" width="48" height="48"><g fill="none"><path fill="currentColor" d="M5.236 7.73a8 8 0 0 1 8.927-3.433a1 1 0 1 1-.541 1.925a6.003 6.003 0 0 0-7.244 7.874c.622 1.674.852 4.09-.743 5.685l-.705.705a1 1 0 0 1-1.415-1.414l.706-.705c.748-.75.815-2.143.283-3.575a7.99 7.99 0 0 1 .732-7.063M19.07 3.513a1 1 0 0 1 1.414 1.415l-.703.703c-.749.749-.816 2.143-.283 3.576a8.004 8.004 0 0 1-9.66 10.497a1 1 0 0 1 .542-1.926a6.003 6.003 0 0 0 7.244-7.874a7.7 7.7 0 0 1-.42-1.697L13.414 12A1 1 0 1 1 12 10.586z" /></g></svg>