<svg xmlns="http://www.w3.org/2000/svg" viewBox="0 0 24 24" width="48" height="48"><g fill="none" fill-rule="evenodd"><path fill="currentColor" d="M12 12c1.873 0 3.57.62 4.815 1.487c1.183.825 2.185 2.051 2.185 3.37c0 .724-.309 1.324-.796 1.77c-.458.421-1.056.694-1.672.88C15.301 19.88 13.68 20 12 20s-3.301-.12-4.532-.493c-.616-.186-1.214-.459-1.673-.88C5.31 18.182 5 17.582 5 16.858c0-1.319 1.002-2.545 2.185-3.37C8.43 12.62 10.127 12 12 12m0 2c-1.44 0-2.743.48-3.67 1.127c-.989.69-1.33 1.392-1.33 1.73c0 .304.352.494.672.614l.205.07l.17.052c.94.284 2.32.407 3.953.407c1.508 0 2.799-.105 3.728-.344l.304-.087l.19-.06c.343-.117.778-.314.778-.652s-.341-1.04-1.33-1.73C14.744 14.481 13.44 14 12 14m7-1c1.044 0 1.992.345 2.693.833c.64.447 1.307 1.19 1.307 2.096c0 1.335-1.297 1.813-2.463 1.98l-.3.037l-.289.025l-.138.008c.122-.345.19-.72.19-1.122a3.8 3.8 0 0 0-.107-.888c.386-.03.703-.08.939-.151c.104-.032.01-.13-.1-.215l-.107-.078l-.076-.051a2.7 2.7 0 0 0-.995-.418c-.38-.76-.964-1.418-1.586-1.943A4.8 4.8 0 0 1 19 13M5 13q.537.002 1.032.113c-.622.525-1.206 1.183-1.586 1.943a2.7 2.7 0 0 0-.995.418l-.128.088c-.127.092-.276.22-.155.256c.236.071.553.122.94.151a3.7 3.7 0 0 0-.108.888c0 .402.068.777.19 1.122l-.28-.02l-.296-.03c-1.202-.147-2.614-.607-2.614-2c0-.905.666-1.649 1.307-2.096A4.76 4.76 0 0 1 5 13m13.5-6a2.5 2.5 0 1 1 0 5a2.5 2.5 0 0 1 0-5m-13 0a2.5 2.5 0 1 1 0 5a2.5 2.5 0 0 1 0-5M12 3a4 4 0 1 1 0 8a4 4 0 0 1 0-8m6.5 6a.5.5 0 1 0 0 1a.5.5 0 0 0 0-1m-13 0a.5.5 0 1 0 0 1a.5.5 0 0 0 0-1M12 5a2 2 0 1 0 0 4a2 2 0 0 0 0-4" /></g></svg>