<svg xmlns="http://www.w3.org/2000/svg" viewBox="0 0 24 24" width="48" height="48"><g fill="none" fill-rule="evenodd"><path fill="currentColor" d="M12 4a8 8 0 1 0 0 16a8 8 0 0 0 0-16M2 12C2 6.477 6.477 2 12 2s10 4.477 10 10s-4.477 10-10 10S2 17.523 2 12m6.5-2c-.195 0-.444.124-.606.448a1 1 0 0 1-1.788-.896C6.542 8.68 7.413 8 8.5 8s1.957.68 2.394 1.552a1 1 0 0 1-1.788.896C8.944 10.124 8.696 10 8.5 10m7 0c-.195 0-.444.124-.606.448a1 1 0 1 1-1.788-.896C13.543 8.68 14.413 8 15.5 8s1.957.68 2.394 1.552a1 1 0 0 1-1.788.896c-.162-.324-.41-.448-.606-.448m-6.896 4.338a1 1 0 0 1 1.412-.088c.53.468 1.223.75 1.984.75s1.455-.282 1.984-.75a1 1 0 1 1 1.324 1.5A4.98 4.98 0 0 1 12 17a4.98 4.98 0 0 1-3.308-1.25a1 1 0 0 1-.088-1.412" /></g></svg>