<svg xmlns="http://www.w3.org/2000/svg" viewBox="0 0 24 24" width="48" height="48"><g fill="none" fill-rule="evenodd"><path fill="currentColor" d="M15.5 4a1.5 1.5 0 0 1 1.493 1.356L17 5.5v.082a8 8 0 0 1 4.995 7.131L22 13v2a1 1 0 0 1-.9.995q-.934.094-1.83.14C16.415 18.889 14.162 20 11.939 20c-1.144 0-2.198-.296-3.216-.693a30 30 0 0 1-1.535-.664l-1.06-.489l-.533-.24c-.637-.283-1.048-.336-1.328-.33l-.152.007l-.502.062a2 2 0 0 1-.22.011a1.52 1.52 0 0 1-1.1-.457a1 1 0 0 1 .002-1.416l.092-.08l3.615-2.812a8 8 0 0 1 7.752-7.895L14.085 5A1.5 1.5 0 0 1 15.5 4m-8 10.266l-1.937 1.508q.386.111.843.312l.433.195l1.549.711c.361.163.71.314 1.061.451c.904.353 1.695.557 2.489.557c1.144 0 2.478-.427 4.292-1.852c-2.704-.13-5.297-.656-8.154-1.672zm9.93-6.19c.182.45.341.925.473 1.414c.385 1.428.554 3.063.3 4.684a33 33 0 0 0 1.797-.09V13a6 6 0 0 0-2.57-4.923ZM14 7a6 6 0 0 0-5.963 5.33c2.902 1.102 5.464 1.668 8.141 1.813c.268-1.37.147-2.823-.206-4.133c-.344-1.278-.883-2.331-1.397-2.983A6 6 0 0 0 14 7" /></g></svg>