<svg xmlns="http://www.w3.org/2000/svg" viewBox="0 0 24 24" width="48" height="48"><g fill="none" fill-rule="evenodd"><path fill="currentColor" d="M5 10a8 8 0 1 1 13 6.245V20.5a1.5 1.5 0 0 1-1.5 1.5h-5a1.5 1.5 0 0 1-1.5-1.5V19H8.766a3 3 0 0 1-2.977-2.628l-.14-1.123l-.747-.149a1.5 1.5 0 0 1-1.09-2.048l1.19-2.858zm8-6a6 6 0 0 0-5.996 6.226c.008.21-.027.43-.115.64l-.997 2.393l.502.1a1.5 1.5 0 0 1 1.194 1.285l.185 1.48a1 1 0 0 0 .993.876H10.5a1.5 1.5 0 0 1 1.5 1.5V20h4v-3.994c0-.497.244-.937.609-1.212A6 6 0 0 0 13 4" /></g></svg>