<svg xmlns="http://www.w3.org/2000/svg" viewBox="0 0 24 24" width="48" height="48"><g fill="none"><path fill="currentColor" d="M13 3a1 1 0 0 1 .993.883L14 4v16a1 1 0 0 1-1.993.117L12 20v-7H5v7a1 1 0 0 1-1.993.117L3 20V4a1 1 0 0 1 1.993-.117L5 4v7h7V4a1 1 0 0 1 1-1m4.657 9.68a2.7 2.7 0 0 1 1.873.219a2.77 2.77 0 0 1 1.45 3.15a2.9 2.9 0 0 1-.542 1.103l-.135.157L18.724 19h1.63a1 1 0 0 1 .117 1.993l-.117.007H16.65a1.01 1.01 0 0 1-1.01-1.01c0-.292.023-.569.191-.807l.081-.1l2.93-3.138c.475-.51.056-1.514-.699-1.326a.664.664 0 0 0-.502.644c0 .577-.383 1.094-1 1.094s-1-.517-1-1.094c0-1.222.832-2.287 2.017-2.584Z" /></g></svg>