<svg xmlns="http://www.w3.org/2000/svg" viewBox="0 0 24 24" width="48" height="48"><g fill="none" fill-rule="evenodd"><path fill="currentColor" d="M21.998 10.393c.065-2.892-1.409-5.37-3.504-6.592c-1.96-1.142-4.422-1.148-6.494.537c-2.072-1.685-4.534-1.679-6.494-.537c-2.095 1.221-3.569 3.7-3.504 6.592v.026c.095 3.599 2.902 6.775 7.679 9.612c.331.198.662.398 1.006.573c.406.206.85.396 1.313.396s.907-.19 1.313-.396c.344-.175.675-.375 1.006-.573c4.788-2.844 7.598-6.029 7.679-9.638M12 6.623c.306 0 .611-.117.843-.351c1.508-1.526 3.25-1.555 4.644-.743c1.444.842 2.56 2.628 2.511 4.82c-.056 2.511-2.04 5.194-6.7 7.962c-.406.242-.836.56-1.298.689V6.622Z" /></g></svg>