<svg xmlns="http://www.w3.org/2000/svg" viewBox="0 0 24 24" width="48" height="48"><g fill="none" fill-rule="evenodd"><path fill="currentColor" d="M6.546 5.51c-1.46.834-2.594 2.63-2.544 4.838c.056 2.512 2.04 5.195 6.7 7.963l.298.178V6.119c-1.463-1.366-3.119-1.37-4.454-.608Zm-.992-1.736c2.175-1.242 4.948-1.087 7.12 1.19c.207.215.326.506.326.81V20a1 1 0 0 1-1 1c-.463 0-.907-.19-1.313-.396c-.362-.184-.739-.414-1.006-.573c-4.788-2.844-7.598-6.029-7.679-9.638c-.065-2.914 1.43-5.408 3.552-6.62Z" /></g></svg>