<svg xmlns="http://www.w3.org/2000/svg" viewBox="0 0 24 24" width="48" height="48"><g fill="none"><path fill="currentColor" d="M8 16a1 1 0 0 1 1 1v.268l.232-.134a1 1 0 1 1 1 1.732L10 19l.232.134a1 1 0 0 1-1 1.732L9 20.732V21a1 1 0 1 1-2 0v-.268l-.232.134a1 1 0 1 1-1-1.732L6 19l-.232-.134a1 1 0 1 1 1-1.732l.232.134V17a1 1 0 0 1 1-1m8 0a1 1 0 0 1 1 1v.268l.232-.134a1 1 0 1 1 1 1.732L18 19l.232.134a1 1 0 0 1-1 1.732L17 20.732V21a1 1 0 1 1-2 0v-.268l-.232.134a1 1 0 1 1-1-1.732L14 19l-.232-.134a1 1 0 1 1 1-1.732l.232.134V17a1 1 0 0 1 1-1M11.5 2a6.5 6.5 0 0 1 6.086 4.212a6.002 6.002 0 0 1 2.61 10.077a3 3 0 0 0-1.916-1.239a3 3 0 0 0-1.549-.96a3 3 0 0 0-.17-1.09a3 3 0 0 0-.23-2.5a3 3 0 0 0-2.05-1.45A3 3 0 0 0 12 8c-.913 0-1.73.407-2.28 1.05a3 3 0 0 0-2.05 1.45a3 3 0 0 0-.23 2.5a3 3 0 0 0-.171 1.09a3 3 0 0 0-1.55.96a3 3 0 0 0-2.05 1.45l-.082.154A5 5 0 0 1 5 8.416A6.5 6.5 0 0 1 11.5 2m.5 8a1 1 0 0 1 1 1v.268l.232-.134a1 1 0 1 1 1 1.732L14 13l.232.134a1 1 0 0 1-1 1.732L13 14.732V15a1 1 0 1 1-2 0v-.268l-.232.134a1 1 0 1 1-1-1.732L10 13l-.232-.134a1 1 0 1 1 1-1.732l.232.134V11a1 1 0 0 1 1-1" /></g></svg>