<svg xmlns="http://www.w3.org/2000/svg" viewBox="0 0 24 24" width="48" height="48"><g fill="none"><path fill="currentColor" d="M7.032 14.136a1 1 0 0 1 .707 1.225l-1.553 5.796a1 1 0 0 1-1.932-.518l1.553-5.795a1 1 0 0 1 1.225-.708m10.5 0a1 1 0 0 1 .707 1.225l-1.553 5.796a1 1 0 1 1-1.932-.518l1.553-5.795a1 1 0 0 1 1.225-.708m-7 0a1 1 0 0 1 .707 1.225l-1.553 5.796a1 1 0 0 1-1.932-.518l1.553-5.795a1 1 0 0 1 1.225-.707Zm2.275.708a1 1 0 0 1 1.956.403l-.024.114l-1.553 5.796a1 1 0 0 1-1.955-.404l.023-.114zM11.5 2a6.5 6.5 0 0 1 6.086 4.212a6.002 6.002 0 0 1 2.43 10.246l.155-.58a3 3 0 0 0-4.647-3.213a2.99 2.99 0 0 0-3.5 0a2.99 2.99 0 0 0-3.5 0a3 3 0 0 0-4.648 1.66l-.553 2.063A5 5 0 0 1 5 8.416A6.5 6.5 0 0 1 11.5 2" /></g></svg>