<svg xmlns="http://www.w3.org/2000/svg" viewBox="0 0 24 24" width="48" height="48"><g fill="none"><path fill="currentColor" d="M9.889 19.656a1 1 0 0 1 1.931.518l-.258.966a1 1 0 0 1-1.932-.518zm-2.196-1.862a1 1 0 0 1 .708 1.224l-.26.966a1 1 0 1 1-1.931-.517l.259-.966a1 1 0 0 1 1.224-.707m7.334 0a1 1 0 0 1 .707 1.224l-.259.966a1 1 0 1 1-1.932-.517l.26-.966a1 1 0 0 1 1.224-.707m-2.878-2.709a1 1 0 0 1 .707 1.225l-.259.966a1 1 0 0 1-1.932-.518l.259-.966a1 1 0 0 1 1.225-.707M11.5 2a6.5 6.5 0 0 1 6.086 4.212A6.002 6.002 0 0 1 19.6 16.799a1 1 0 1 1-1.202-1.598A3.98 3.98 0 0 0 20 12a4 4 0 0 0-3.344-3.948a1.01 1.01 0 0 1-.81-.732A4.5 4.5 0 0 0 7.027 9a1.01 1.01 0 0 1-.76 1.09a3.002 3.002 0 0 0-1.252 5.16a1 1 0 1 1-1.324 1.5A5 5 0 0 1 5 8.416A6.5 6.5 0 0 1 11.5 2M8.729 13.93a1 1 0 0 1 .707 1.225l-.259.966a1 1 0 0 1-1.932-.518l.259-.966a1 1 0 0 1 1.225-.707m7.333 0a1 1 0 0 1 .707 1.225l-.258.966a1 1 0 0 1-1.932-.518l.258-.966a1 1 0 0 1 1.225-.707" /></g></svg>