<svg xmlns="http://www.w3.org/2000/svg" viewBox="0 0 24 24" width="48" height="48"><g fill="none"><path fill="currentColor" d="M11.5 2a6.5 6.5 0 0 1 6.086 4.212a6.002 6.002 0 0 1 2.308 10.353a3 3 0 0 0-.88-.471a3 3 0 0 0-.146-1.594A3 3 0 0 0 15 10.632a3 3 0 0 0-3 .518a3 3 0 0 0-3-.518A3 3 0 0 0 5.132 14.5a3 3 0 0 0-.138 1.63a3 3 0 0 0-1.94-.058A5 5 0 0 1 5 8.416A6.5 6.5 0 0 1 11.5 2M7.232 12.732a1 1 0 0 1 1.32-.083l.094.083l.354.354l.354-.354a1 1 0 0 1 1.497 1.32l-.083.094l-.354.354l.354.354a1 1 0 0 1-1.32 1.497l-.094-.083L9 15.914l-.354.354a1 1 0 0 1-1.497-1.32l.083-.095l.354-.353l-.354-.354a1 1 0 0 1 0-1.414m7.414 0l.354.354l.354-.354a1 1 0 0 1 1.414 1.414l-.354.354l.354.354a1 1 0 0 1-1.415 1.414L15 15.914l-.354.354a1 1 0 0 1-1.414-1.415l.354-.353l-.354-.354a1 1 0 0 1 1.414-1.414m-7.878 6.914a1 1 0 1 0-1.414-1.414L5 18.586l-.354-.354a1 1 0 0 0-1.414 1.414l.354.354l-.354.354a1 1 0 0 0 1.414 1.414L5 21.414l.354.354a1 1 0 0 0 1.414-1.415L6.414 20zm12-1.414a1 1 0 0 1 0 1.414l-.354.354l.354.354a1 1 0 0 1-1.415 1.414L17 21.414l-.354.354a1 1 0 0 1-1.414-1.415l.354-.353l-.354-.354a1 1 0 0 1 1.414-1.414l.354.354l.354-.354a1 1 0 0 1 1.414 0m-6 1.414a1 1 0 0 0-1.415-1.414l-.353.354l-.354-.354a1 1 0 0 0-1.414 1.414l.354.354l-.354.354a1 1 0 0 0 1.414 1.414l.354-.354l.354.354a1 1 0 0 0 1.414-1.415L12.414 20z" /></g></svg>