<svg xmlns="http://www.w3.org/2000/svg" viewBox="0 0 24 24" width="48" height="48"><g fill="none" fill-rule="evenodd"><path fill="currentColor" d="M12 2c.84 0 1.473.553 1.893 1.096c.442.573.814 1.343 1.115 2.214C15.613 7.062 16 9.425 16 12s-.387 4.938-.992 6.69c-.301.871-.673 1.64-1.115 2.214C13.473 21.447 12.84 22 12 22C6.477 22 2 17.523 2 12S6.477 2 12 2m0 2.013c-.048.027-.154.103-.31.305c-.26.338-.545.887-.807 1.644C10.363 7.468 10 9.605 10 12c0 2.389.384 4.524.915 6.032c.267.758.556 1.312.817 1.654l.065.081l.108.12l.043.04l.065.053l.069-.051c.056-.047.133-.124.228-.247c.26-.338.545-.887.807-1.644c.52-1.506.883-3.642.883-6.038c0-2.395-.363-4.532-.883-6.038c-.262-.757-.546-1.306-.807-1.644a1.5 1.5 0 0 0-.243-.259zm-2.676.445a8.003 8.003 0 0 0 .047 15.1q-.183-.408-.342-.862C8.412 16.946 8 14.582 8 12c0-2.575.387-4.938.992-6.69q.154-.446.332-.852" /></g></svg>