<svg xmlns="http://www.w3.org/2000/svg" viewBox="0 0 24 24" width="48" height="48"><g fill="none" fill-rule="evenodd"><path fill="currentColor" d="M4.318 12.31c-.202-.156-.278-.262-.305-.31c.027-.048.103-.154.305-.31c.338-.26.887-.545 1.644-.807C7.468 10.363 9.605 10 12 10s4.532.363 6.038.883c.757.262 1.306.546 1.644.807c.185.143.265.244.298.297c-.036.05-.116.145-.294.28c-.342.262-.896.55-1.654.818c-1.508.531-3.643.915-6.032.915c-2.395 0-4.532-.363-6.038-.883c-.757-.262-1.306-.546-1.644-.807M12 8c-2.575 0-4.938.387-6.69.992c-.871.301-1.64.673-2.214 1.115C2.553 10.527 2 11.16 2 12c0 5.523 4.477 10 10 10s10-4.477 10-10c0-.84-.553-1.473-1.096-1.893c-.573-.442-1.343-.814-2.214-1.115C16.938 8.387 14.575 8 12 8m7.558 6.63q-.408.182-.862.341C16.946 15.588 14.582 16 12 16c-2.575 0-4.938-.387-6.69-.992a11 11 0 0 1-.852-.332a8.003 8.003 0 0 0 15.1-.047" /></g></svg>