<svg xmlns="http://www.w3.org/2000/svg" viewBox="0 0 24 24" width="48" height="48"><g fill="none"><path fill="currentColor" d="M10.927 2.053a10.4 10.4 0 0 0-1.092 1.705c-1.113 2.15-1.83 5.06-1.83 8.238c0 3.188.763 6.1 1.897 8.245c.333.63.704 1.205 1.106 1.706c-5.055-.5-9.004-4.765-9.004-9.951c0-5.159 3.907-9.405 8.923-9.943m2.391.418c.853.67 1.376 1.913 1.694 2.834c.605 1.752.992 4.116.992 6.69c0 2.576-.387 4.94-.992 6.691c-.314.909-.828 2.132-1.66 2.808l-.138-.116c-.52-.455-1.058-1.152-1.544-2.071c-.97-1.836-1.666-4.424-1.666-7.311c0-2.898.658-5.487 1.607-7.318c.475-.917 1.005-1.61 1.527-2.06a4 4 0 0 1 .18-.147" /></g></svg>