<svg xmlns="http://www.w3.org/2000/svg" viewBox="0 0 24 24" width="48" height="48"><g fill="none" fill-rule="evenodd"><path fill="currentColor" d="m13 2.423l3.33 1.922a2 2 0 0 1 1 1.732v3.846l3.33 1.922a2 2 0 0 1 1 1.732v3.846a2 2 0 0 1-1 1.732l-3.33 1.922a2 2 0 0 1-2 0L12 19.155l-3.33 1.922a2 2 0 0 1-2 0l-3.33-1.922a2 2 0 0 1-1-1.732v-3.846a2 2 0 0 1 1-1.732l3.33-1.922V6.077a2 2 0 0 1 1-1.732L11 2.423a2 2 0 0 1 2 0m-5.33 9.232l-3.33 1.922v3.846l3.33 1.922L11 17.423v-3.846zm11.99 1.922l-3.33-1.922L13 13.577v3.846l3.33 1.922l3.33-1.922zM12 4.155L8.67 6.077v3.846L12 11.845l3.33-1.922V6.077z" /></g></svg>