<svg xmlns="http://www.w3.org/2000/svg" viewBox="0 0 24 24" width="48" height="48"><g fill="none"><path fill="currentColor" d="M18.555 6.668a1 1 0 0 1 .277 1.387l-2 3a1 1 0 0 1-1.346.302l-1.574-.944q.087.28.088.587v2h.41a1.5 1.5 0 0 1 1.48 1.747l-.403 2.417a1 1 0 0 1-1.973-.328L13.82 15h-1.38l-.417 2.917a2 2 0 0 1-.317.826l-1.874 2.812a1 1 0 0 1-1.664-1.11l1.874-2.811l.4-2.804A1 1 0 0 1 10 14v-3q0-.145.022-.285l-.705.141l-.347 1.386a1 1 0 0 1-1.94-.484l.423-1.693l.03-.104a1.5 1.5 0 0 1 1.132-1.004l3.931-.786a3 3 0 0 1 2.132.369l1.018.611l1.472-2.206a1 1 0 0 1 1.387-.277M12 2a3 3 0 1 1 0 6a3 3 0 0 1 0-6" /></g></svg>