<svg xmlns="http://www.w3.org/2000/svg" viewBox="0 0 24 24" width="48" height="48"><g fill="none" fill-rule="evenodd"><path fill="currentColor" d="M16.612 3.956c-2.747-1.221-6.05.278-6.38 3.473A45 45 0 0 0 10 12c0 1.73.097 3.269.231 4.57c.33 3.196 3.634 4.695 6.381 3.474l.225-.1a8.694 8.694 0 0 0 0-15.889l-.225-.1Zm-4.391 3.679c.17-1.642 1.883-2.605 3.579-1.852l.225.1a6.694 6.694 0 0 1 0 12.234l-.225.1c-1.696.753-3.41-.21-3.58-1.852A43 43 0 0 1 12 12c0-1.656.093-3.126.22-4.365ZM3 6a1 1 0 1 0 0 2h5a1 1 0 0 0 0-2zm0 5a1 1 0 1 0 0 2h5a1 1 0 1 0 0-2zm-1 6a1 1 0 0 1 1-1h5a1 1 0 1 1 0 2H3a1 1 0 0 1-1-1" /></g></svg>