<svg xmlns="http://www.w3.org/2000/svg" viewBox="0 0 24 24" width="48" height="48"><g fill="none"><path fill="currentColor" d="M13 5a1 1 0 1 0-2 0a1 1 0 0 0 2 0m1 8h.41a1.5 1.5 0 0 1 1.48 1.747l-.404 2.417a1 1 0 0 1-1.972-.328L13.82 15h-1.38l-.417 2.917a2 2 0 0 1-.317.826l-1.874 2.812a1 1 0 1 1-1.664-1.11l1.874-2.811l.4-2.804A1 1 0 0 1 10 14v-3.219l.002-.062l-.686.137l-.346 1.386a1 1 0 1 1-1.94-.484l.423-1.693l.03-.104a1.5 1.5 0 0 1 1.131-1.004l3.932-.786a3 3 0 0 1 2.132.369l1.018.611l1.472-2.206a1 1 0 1 1 1.664 1.11l-2 3a1 1 0 0 1-1.347.302l-1.516-.91q.029.163.031.334zm1-8a3 3 0 1 1-6 0a3 3 0 0 1 6 0" /></g></svg>