<svg xmlns="http://www.w3.org/2000/svg" viewBox="0 0 24 24" width="48" height="48"><g fill="none" fill-rule="evenodd"><path fill="currentColor" d="m12 14.026l7.865 5.407l.084.25a1 1 0 0 1-.83 1.31L19 21H5a1 1 0 0 1-.98-1.2l.031-.116l.084-.25zm4.956-3.407l.021.15l1.839 5.516l-5.05-3.472zm-9.912 0l3.19 2.194l-5.05 3.472l1.839-5.516zM15 3a1 1 0 0 1 .514.142l.11.077l5 4a1 1 0 0 1-.498 1.773L20 9h-4.22L12 11.599L8.22 9H4a1 1 0 0 1-.718-1.696l.093-.085l5-4a1 1 0 0 1 .49-.21L9 3zm1.347 3.358L16.44 7h.71l-.802-.642Zm-8.694 0L6.851 7h.71zM14.133 5H9.867l-.285 2h4.836z" /></g></svg>