<svg xmlns="http://www.w3.org/2000/svg" viewBox="0 0 24 24" width="48" height="48"><g fill="none"><path fill="currentColor" d="M11.5 8c.652 0 1.204.416 1.411.997l2.081 2.081L16 11.28V11a1 1 0 1 1 2 0v10a1 1 0 1 1-2 0v-7.68l-1.696-.34a1 1 0 0 1-.511-.273L13 11.914V14.5q0 .1-.015.198l1.32 2.2c.106.175.16.363.199.561l.486 3.4a1 1 0 0 1-1.98.283l-.47-3.302l-1.006-1.674l-2.64 5.281a1 1 0 0 1-1.789-.894l2.914-5.827A1.5 1.5 0 0 1 10 14.5v-5A1.5 1.5 0 0 1 11.5 8m-3 0l.103.005A1 1 0 0 1 9.5 9v5a1 1 0 0 1-1 1H7a1 1 0 0 1-1-1v-4a2 2 0 0 1 2-2zM12 2a3 3 0 1 1 0 6a3 3 0 0 1 0-6" /></g></svg>