<svg xmlns="http://www.w3.org/2000/svg" viewBox="0 0 24 24" width="48" height="48"><g fill="none"><path fill="currentColor" d="M3.34 7C6.101 2.217 12.217.58 17 3.34a10 10 0 0 1 4.682 11.173c-.217.832-1.222 1.074-1.808.531l-.084-.087l-2.252-2.587c-.685-.787.008-1.972.997-1.81l.11.023l1.282.335a8 8 0 1 0-2.06 6.524a1 1 0 1 1 1.468 1.358C16.233 22.151 11.123 23.04 7 20.66C2.217 17.9.58 11.783 3.34 7M12 6a1 1 0 0 1 .993.883L13 7v4.586l2.707 2.707a1 1 0 0 1-1.32 1.497l-.094-.083l-3-3a1 1 0 0 1-.284-.576L11 12V7a1 1 0 0 1 1-1" /></g></svg>