<svg xmlns="http://www.w3.org/2000/svg" viewBox="0 0 24 24" width="48" height="48"><g fill="none" fill-rule="evenodd"><path fill="currentColor" d="m13.2 2.65l7 5.25a2 2 0 0 1 .8 1.6V19a2 2 0 0 1-2 2H5a2 2 0 0 1-2-2V9.5a2 2 0 0 1 .8-1.6l7-5.25a2 2 0 0 1 2.4 0M12 15a1 1 0 1 0 0 2a1 1 0 0 0 0-2m0-3a4 4 0 0 0-2.634.99a1 1 0 0 0 1.317 1.505A2 2 0 0 1 12 14c.505 0 .964.186 1.317.495a1 1 0 0 0 1.317-1.505A4 4 0 0 0 12 12m0-3c-1.765 0-3.38.654-4.61 1.732a1 1 0 1 0 1.318 1.505A4.98 4.98 0 0 1 12 11c1.262 0 2.412.466 3.292 1.237a1 1 0 0 0 1.318-1.505A6.98 6.98 0 0 0 12 9" /></g></svg>