<svg xmlns="http://www.w3.org/2000/svg" viewBox="0 0 24 24" width="48" height="48"><g fill="none"><path fill="currentColor" d="M10 21v-6.812a2.5 2.5 0 0 1-.643-1.412l-.267-2.409a108 108 0 0 1-3.426-.294l-.562-.056L4.947 10l-.04-.004h-.01l-.003-.002h-.001a1 1 0 0 1 .214-1.988h.013l.038.005l.15.015a142 142 0 0 0 2.396.228c1.457.125 3.168.246 4.296.246s2.839-.121 4.296-.246c.722-.062 1.373-.124 1.843-.171l.703-.072l.039-.004l.009-.001h.002a1 1 0 0 1 .215 1.988h-.002l-.002.001l-.01.001l-.04.004l-.155.017l-.562.056a108 108 0 0 1-3.427.294l-.267 2.41c-.04.36-.158.694-.332.99l1.378 1.103a1.5 1.5 0 0 1 .124 2.233l-1.605 1.604a1 1 0 1 1-1.414-1.414l1.209-1.211l-1.404-1.123a2.5 2.5 0 0 1-.44.041H12v6a1 1 0 0 1-2 0m1.346-8.444a.5.5 0 0 0 .497.444h.314a.5.5 0 0 0 .497-.444l.229-2.056h-1.766zM13 5a1 1 0 1 0-2 0a1 1 0 0 0 2 0m2 0a3 3 0 1 1-6 0a3 3 0 0 1 6 0" /></g></svg>