<svg xmlns="http://www.w3.org/2000/svg" viewBox="0 0 24 24" width="48" height="48"><g fill="none" fill-rule="evenodd"><path fill="currentColor" d="m20.255 5.52l.087.298l.089.338l.044.185l.089.4l.085.443l.081.485q.038.253.074.528l.065.572c.08.791.131 1.7.131 2.731s-.05 1.94-.13 2.731l-.066.572q-.035.275-.074.528l-.08.485l-.086.443l-.089.4l-.089.36l-.088.317l-.043.144c-.331 1.087-1.464 1.505-2.394 1.195l-1.18-.393l-.4.933a2 2 0 0 1-2.47 1.11l-5.096-1.7a2 2 0 0 1-1.206-2.684l.269-.628L7 15.055l-1.368.456A2 2 0 0 1 3 13.613V9.388A2 2 0 0 1 5.632 7.49L7 7.946l10.861-3.62c.93-.31 2.063.107 2.394 1.194M9.682 15.948l-.335.78l5.096 1.7l.335-.781zm8.706-9.69L8 9.721v3.558l10.388 3.463l.077-.283l.08-.327l.04-.18l.078-.394a18 18 0 0 0 .076-.439l.07-.485c.112-.847.191-1.887.191-3.134s-.08-2.287-.19-3.134l-.071-.485q-.037-.23-.076-.44l-.079-.393l-.08-.349zM5 9.388v4.225l1-.334V9.721z" /></g></svg>