<svg xmlns="http://www.w3.org/2000/svg" viewBox="0 0 24 24" width="48" height="48"><g fill="none" fill-rule="evenodd"><path fill="currentColor" d="M20.255 5.52c-.331-1.087-1.464-1.504-2.394-1.194L7 7.946L5.632 7.49A2 2 0 0 0 3 9.388v4.225a2 2 0 0 0 2.632 1.897L7 15.054l.778.26l-.269.627a2 2 0 0 0 1.206 2.685l5.096 1.698a2 2 0 0 0 2.47-1.109l.4-.933l1.18.393c.93.31 2.063-.108 2.394-1.195c.325-1.064.745-3.015.745-5.98s-.42-4.916-.745-5.98m-5.477 12.127l-5.096-1.699l-.335.78l5.096 1.7z" /></g></svg>