<svg xmlns="http://www.w3.org/2000/svg" viewBox="0 0 24 24" width="48" height="48"><g fill="none" fill-rule="evenodd"><path fill="currentColor" d="M17.03 14.758a1 1 0 0 1 1.962.37l-.022.115L18.28 18H19v-1a1 1 0 0 1 1.993-.116L21 17v1a1 1 0 0 1 .117 1.993L21 20v1a1 1 0 0 1-1.993.117L19 21v-1h-2a1 1 0 0 1-.993-1.113l.023-.13zM13.5 14a2.5 2.5 0 0 1 2.5 2.5v.325c0 .675-.241 1.327-.68 1.839L14.174 20H15a1 1 0 0 1 0 2h-3a1 1 0 0 1-.76-1.65l2.561-2.988a.83.83 0 0 0 .199-.537V16.5a.5.5 0 1 0-1 0a1 1 0 1 1-2 0a2.5 2.5 0 0 1 2.5-2.5M12 3a9 9 0 0 1 8.796 10.913a3 3 0 0 0-2.068-1.823a3 3 0 0 0-2.724.67A4.5 4.5 0 0 0 9 16.5c0 .886.384 1.682.994 2.23l-.272.318a3 3 0 0 0-.68 1.455A9 9 0 0 1 12 3m-1 3a1 1 0 0 0-1 1v3H9a1 1 0 1 0 0 2h2a1 1 0 0 0 1-1V7a1 1 0 0 0-1-1" /></g></svg>