<svg xmlns="http://www.w3.org/2000/svg" viewBox="0 0 24 24" width="48" height="48"><g fill="none" fill-rule="evenodd"><path fill="currentColor" d="M11.5 4.719a5.5 5.5 0 0 1 7.953 7.596l-.174.182l-6.717 6.718a2 2 0 0 1-2.702.116l-.127-.116l-1.768-1.768l-2.12 2.121a1 1 0 0 1-1.498-1.32l.083-.094l2.121-2.122l-1.768-1.767a2 2 0 0 1-.116-2.701l.116-.128l6.718-6.717Zm3.89 4.596l-4.243 4.243a1 1 0 1 0 1.415 1.414l4.242-4.243a1 1 0 0 0-1.414-1.414m-.707-2.121a1 1 0 0 0-1.32-.084l-.094.084l-4.243 4.242a1 1 0 0 0 1.32 1.498l.094-.083l4.243-4.243a1 1 0 0 0 0-1.414" /></g></svg>