<svg xmlns="http://www.w3.org/2000/svg" viewBox="0 0 24 24" width="48" height="48"><g fill="none"><path fill="currentColor" d="M11.5 4.72a5.5 5.5 0 0 1 7.953 7.595l-.174.183l-6.717 6.717a2 2 0 0 1-2.702.117l-.127-.117l-1.768-1.768l-2.12 2.122a1 1 0 0 1-1.498-1.32l.083-.095l2.121-2.121l-1.768-1.768a2 2 0 0 1-.116-2.701l.116-.127l6.718-6.718Zm1.415 1.414L6.198 12.85l4.95 4.95l6.717-6.718a3.5 3.5 0 0 0-4.95-4.95Zm2.475 3.182a1 1 0 0 1 1.497 1.32l-.083.094l-4.242 4.242a1 1 0 0 1-1.498-1.32l.083-.094zm-.707-2.122a1 1 0 0 1 0 1.414l-4.243 4.243a1 1 0 1 1-1.414-1.414l4.243-4.243a1 1 0 0 1 1.414 0" /></g></svg>