<svg xmlns="http://www.w3.org/2000/svg" viewBox="0 0 24 24" width="48" height="48"><g fill="none" fill-rule="evenodd"><path fill="currentColor" d="M12 2a5 5 0 0 1 4.645 3.147a4.5 4.5 0 0 1 3.31 4.995a1.7 1.7 0 0 1-.193.531l-.067.12l-5.967 10.23c-.745 1.276-2.549 1.321-3.369.137l-.087-.137l-5.967-10.23c-.111-.19-.228-.432-.26-.651a4.5 4.5 0 0 1 3.31-4.995A5 5 0 0 1 12 2m4.758 9.858c-1.268.34-2.911.642-4.758.642a18.4 18.4 0 0 1-4.46-.564l-.298-.078L12 20.015zM15.5 7A2.5 2.5 0 0 0 13 9.5v.967c1.68-.11 3.116-.474 4.11-.8l.398-.136l.34-.126l.147-.058A2.5 2.5 0 0 0 15.5 7m-7 0a2.5 2.5 0 0 0-2.495 2.347l.31.12l.37.132c.995.34 2.516.75 4.315.868V9.5A2.5 2.5 0 0 0 8.5 7M12 4c-.956 0-1.81.448-2.359 1.146c.942.246 1.764.79 2.359 1.525a4.5 4.5 0 0 1 2.359-1.525A3 3 0 0 0 12 4" /></g></svg>