<svg xmlns="http://www.w3.org/2000/svg" viewBox="0 0 24 24" width="48" height="48"><g fill="none" fill-rule="evenodd"><path fill="currentColor" fill-rule="nonzero" d="M19 3a2 2 0 0 1 2 2v10a2 2 0 0 1-2 2h-3.968c.038.545.105.962.18 1.28l.065.247l.066.202l.032.085l.062.141l.055.105l.045.072l.042.056c.446.344.424.86.34 1.116c-.087.262-.382.696-.961.696H9.042c-.579 0-.874-.434-.96-.696c-.085-.256-.107-.772.339-1.116l.043-.056l.045-.072l.054-.105l.062-.14c.128-.321.278-.881.343-1.815H5a2 2 0 0 1-2-2V5a2 2 0 0 1 2-2zm-5.971 14H10.97a10 10 0 0 1-.252 1.798l-.052.202h2.666a9 9 0 0 1-.283-1.699zM19 14H5v1h14zm0-9H5v7h14z" /></g></svg>