<svg xmlns="http://www.w3.org/2000/svg" viewBox="0 0 24 24" width="48" height="48"><g fill="none"><path fill="currentColor" d="M20 17.5a1.5 1.5 0 0 1 .144 2.993L20 20.5H4a1.5 1.5 0 0 1-.144-2.993L4 17.5zm0-5a1.5 1.5 0 0 1 0 3h-9a1.5 1.5 0 0 1 0-3zM3.643 9.173l.29.152l.344.188q.093.051.191.108l.416.244l.457.282a24 24 0 0 1 .953.635l.407.292l.183.136l.46.355l.124.1c.214.173.205.52-.02.702l-.261.207l-.319.242l-.375.274l-.429.3l-.234.158l-.247.163q-.254.165-.488.308l-.445.268l-.398.229l-.346.189l-.29.15c-.253.13-.525-.036-.551-.332l-.04-.51l-.036-.65l-.018-.504l-.01-.556v-.608l.011-.586l.02-.527l.026-.464l.042-.566c.027-.316.325-.51.583-.38ZM20 7.5a1.5 1.5 0 0 1 0 3h-9a1.5 1.5 0 0 1 0-3zm0-5a1.5 1.5 0 0 1 0 3H4a1.5 1.5 0 1 1 0-3z" /></g></svg>