<svg xmlns="http://www.w3.org/2000/svg" viewBox="0 0 24 24" width="48" height="48"><g fill="none"><path fill="currentColor" d="M20 17.5a1.5 1.5 0 0 1 .144 2.993L20 20.5H4a1.5 1.5 0 0 1-.144-2.993L4 17.5zm0-5a1.5 1.5 0 0 1 0 3h-9a1.5 1.5 0 0 1 0-3zM7.065 9.173c.257-.132.556.063.583.38l.042.565l.026.464l.02.527l.006.286l.006.613l-.005.58l-.014.53l-.021.476l-.039.605l-.026.324c-.027.297-.299.461-.552.332l-.29-.15l-.345-.19l-.398-.228l-.217-.129l-.467-.288l-.249-.16q-.254-.164-.481-.32l-.43-.3l-.374-.274l-.457-.35l-.122-.099c-.226-.182-.236-.529-.02-.703l.26-.208l.323-.246l.379-.278l.434-.305q.231-.157.487-.324l.243-.156l.457-.282l.416-.244l.369-.207zM20 7.5a1.5 1.5 0 0 1 0 3h-9a1.5 1.5 0 0 1 0-3zm0-5a1.5 1.5 0 0 1 0 3H4a1.5 1.5 0 1 1 0-3z" /></g></svg>