<svg xmlns="http://www.w3.org/2000/svg" viewBox="0 0 24 24" width="48" height="48"><g fill="none"><path fill="currentColor" d="M20 18a1 1 0 0 1 .117 1.993L20 20H4a1 1 0 0 1-.117-1.993L4 18zm0-5a1 1 0 0 1 0 2h-9a1 1 0 0 1 0-2zM3.643 9.173l.29.151l.344.189q.093.051.191.108l.416.244l.224.136l.475.302q.385.25.711.48l.407.291l.183.136l.322.246l.262.208c.214.174.205.521-.02.703l-.261.206l-.319.243l-.375.274l-.208.147l-.455.311l-.248.163q-.253.165-.487.308l-.445.268l-.398.228l-.346.19l-.29.15c-.253.13-.525-.036-.551-.332l-.04-.51l-.036-.65l-.018-.504l-.01-.556v-.609l.011-.585l.02-.527l.025-.464l.043-.566c.027-.317.325-.51.583-.38ZM20 8a1 1 0 0 1 0 2h-9a1 1 0 0 1 0-2zm0-5a1 1 0 1 1 0 2H4a1 1 0 1 1 0-2z" /></g></svg>