<svg xmlns="http://www.w3.org/2000/svg" viewBox="0 0 24 24" width="48" height="48"><g fill="none"><path fill="currentColor" d="M20 18a1 1 0 1 1 0 2H4a1 1 0 1 1 0-2zm0-5a1 1 0 0 1 .117 1.993L20 15h-9a1 1 0 0 1-.117-1.993L11 13zM7.065 9.173c.257-.132.556.062.583.379l.042.566l.026.464l.02.527l.006.286l.006.612l-.005.58l-.014.53l-.021.477l-.039.605l-.026.324c-.027.296-.299.461-.552.332l-.29-.15l-.345-.19l-.398-.228l-.217-.129l-.467-.288l-.496-.322l-.456-.31l-.207-.148l-.375-.274l-.457-.35l-.122-.099c-.226-.182-.236-.529-.02-.703l.26-.208l.323-.246l.379-.278l.434-.305q.232-.158.487-.325l.243-.155l.457-.282l.416-.244l.369-.207zM20 8a1 1 0 1 1 0 2h-9a1 1 0 1 1 0-2zm0-5a1 1 0 1 1 0 2H4a1 1 0 0 1 0-2z" /></g></svg>