<svg xmlns="http://www.w3.org/2000/svg" viewBox="0 0 24 24" width="48" height="48"><g fill="none" fill-rule="evenodd"><path fill="currentColor" d="m17.303 3.161l3.536 3.536a1 1 0 0 1-1.414 1.414L18.01 9.525l1.767 1.768a1 1 0 1 1-1.414 1.414L17.657 12L12 17.657a3 3 0 0 1-4.242 0l-3.122 3.121a1 1 0 0 1-1.414-1.414l3.121-3.121a3 3 0 0 1 0-4.243L12 6.343l-.707-.707a1 1 0 1 1 1.414-1.414l1.768 1.767l1.414-1.414a1 1 0 1 1 1.414-1.414m-3.889 4.596L12 9.172l.707.706a1 1 0 0 1-1.414 1.415l-.707-.707l-.707.707l.707.707a1 1 0 1 1-1.414 1.414l-.707-.707l-.707.707a1 1 0 0 0 0 1.415l1.414 1.414a1 1 0 0 0 1.414 0l5.657-5.657zm3.89-1.768l-1.415 1.415l.707.707l1.415-1.414z" /></g></svg>