<svg xmlns="http://www.w3.org/2000/svg" viewBox="0 0 24 24" width="48" height="48"><g fill="none"><path fill="currentColor" d="M12 3c5.344 0 10 3.643 10 8.5S17.344 20 12 20q-.789 0-1.546-.1l-2.9 1.932a1 1 0 0 1-1.535-1.028l.445-2.221C3.828 17.09 2 14.517 2 11.5C2 6.643 6.656 3 12 3m0 2c-4.597 0-8 3.073-8 6.5c0 2.335 1.544 4.475 4.017 5.635a1 1 0 0 1 .556 1.101l-.119.593l1.211-.808a1 1 0 0 1 .72-.154q.781.132 1.615.133c4.597 0 8-3.073 8-6.5S16.597 5 12 5m-2 2a1 1 0 0 1 1 1v4.485l.009-.117a1 1 0 0 1 .21-.493l2-2.5a1 1 0 0 1 1.562 1.25l-1.5 1.875l1.5 1.875a1 1 0 1 1-1.562 1.25l-2-2.5a1 1 0 0 1-.219-.61V15a1 1 0 1 1-2 0V8a1 1 0 0 1 1-1" /></g></svg>