<svg xmlns="http://www.w3.org/2000/svg" viewBox="0 0 24 24" width="48" height="48"><g fill="none"><path fill="currentColor" d="M10.438 4.368a6.5 6.5 0 1 1 2.252 10.66l-.269-.11l-.02-.004h-.61v1.578a1.25 1.25 0 0 1-1.122 1.244l-.128.006H8.963v1.578a1.25 1.25 0 0 1-1.122 1.244l-.128.006H3.73a1.01 1.01 0 0 1-1.004-.9l-.006-.11v-2.61a1.5 1.5 0 0 1 .34-.951l.1-.11l5.5-5.501l.01-.037a.3.3 0 0 0-.004-.081a6.5 6.5 0 0 1 1.772-5.902m4.242 2.828a1.5 1.5 0 1 0 2.122 2.121a1.5 1.5 0 0 0-2.122-2.12Z" /></g></svg>