<svg xmlns="http://www.w3.org/2000/svg" viewBox="0 0 24 24" width="48" height="48"><g fill="none" fill-rule="evenodd"><path fill="currentColor" d="M10.75 2a3.75 3.75 0 0 1 3.718 3.269a4.5 4.5 0 0 1 3.93 2.25l2 3.463a4.5 4.5 0 0 1-7.796 4.5l-1.105-1.915a5 5 0 0 1-.684.563l.157.628a1 1 0 0 1-.075.69l-.277.552l.277.553a1 1 0 0 1 0 .894l-.395.79v.263a2.5 2.5 0 0 1-5 0v-4.17a5.001 5.001 0 0 1 1.559-9.24A3.75 3.75 0 0 1 10.75 2M9 9a1 1 0 0 1-2 0V7.174a2.999 2.999 0 0 0-.125 5.608a1 1 0 0 1 .625.927V18.5a.5.5 0 0 0 1 0V18a1 1 0 0 1 .105-.447L8.882 17l-.277-.553a1 1 0 0 1 0-.894l.334-.67l-.25-1a1 1 0 0 1 .555-1.152A2.998 2.998 0 0 0 9 7.173zm7.665-.481a2.5 2.5 0 0 0-4.036-.41a4.98 4.98 0 0 1 .081 3.56l1.625 2.813a2.5 2.5 0 0 0 4.33-2.5zM10.75 4a1.75 1.75 0 0 0-1.634 1.126a5 5 0 0 1 2.375 1.297a4.5 4.5 0 0 1 1.008-.685A1.75 1.75 0 0 0 10.75 4" /></g></svg>