<svg xmlns="http://www.w3.org/2000/svg" viewBox="0 0 24 24" width="48" height="48"><g fill="none"><path fill="currentColor" d="M8.5 2a5.5 5.5 0 0 1 3.327 9.878l-.191.139a.2.2 0 0 0-.05.043l-.468.94l.554 1.108c.28.56.281 1.22.004 1.781l-.558 1.127l.448.887a2 2 0 0 1-.37 2.315l-1.482 1.483a1.01 1.01 0 0 1-1.415.011L6.61 20.081A2 2 0 0 1 6 18.643v-6.194c0 .008.003.001-.013-.022a.3.3 0 0 0-.11-.094A5.5 5.5 0 0 1 8.5 2m11.313 4.076a5.5 5.5 0 0 1-.966 4.791l-.149.184a.2.2 0 0 0-.036.055l-.21 1.028l.822.928a2 2 0 0 1 .465 1.719l-.247 1.233l.662.74a2 2 0 0 1 .241 2.333l-1.047 1.816a1.01 1.01 0 0 1-1.364.377l-2.053-1.139a2 2 0 0 1-.961-1.23l-1.544-5.76a7.5 7.5 0 0 0 1.386-1.605c.22.23.393.518.486.864l1.603 5.983l1.201.665l.561-.97l-.662-.74a2 2 0 0 1-.47-1.726l.246-1.234l-.82-.927a2 2 0 0 1-.464-1.728l.21-1.027c.065-.317.202-.59.366-.816l.102-.129a3.502 3.502 0 0 0-2.006-5.7a7.5 7.5 0 0 0-1.502-1.998a5.5 5.5 0 0 1 6.15 4.013M8.5 3.999a3.5 3.5 0 0 0-1.847 6.472l.179.105c.614.333 1.168 1 1.168 1.873v6.194l.988.954l.793-.793l-.448-.886a2 2 0 0 1-.008-1.789l.558-1.128l-.554-1.107a2 2 0 0 1 0-1.79l.469-.938a2.1 2.1 0 0 1 .565-.692l.131-.099A3.5 3.5 0 0 0 8.5 4m0 2a1.5 1.5 0 1 1 0 3a1.5 1.5 0 0 1 0-3" /></g></svg>