<svg xmlns="http://www.w3.org/2000/svg" viewBox="0 0 24 24" width="48" height="48"><g fill="none" fill-rule="evenodd"><path fill="currentColor" d="M8.5 2a5.5 5.5 0 0 1 2.453 10.422c-.177.09-.25.408-.335.578l.554 1.109a2 2 0 0 1 .004 1.78l-.558 1.128l.494.978a2 2 0 0 1-.184 2.102L9.79 21.612a1.01 1.01 0 0 1-1.588-.007L6.92 19.95a2 2 0 0 1-.42-1.226v-6.04a.34.34 0 0 0-.15-.123A5.5 5.5 0 0 1 8.5 2m11.313 4.076a5.5 5.5 0 0 1-1.67 5.543c-.148.132-.136.459-.174.645l.822.928c.415.468.588 1.105.465 1.72l-.247 1.232l.73.817a2 2 0 0 1 .366 2.078l-.706 1.757a1.01 1.01 0 0 1-1.536.405l-1.667-1.265a2 2 0 0 1-.723-1.076l-1.633-6.095A7.48 7.48 0 0 0 16 7.5c0-2.14-.898-4.07-2.336-5.436a5.5 5.5 0 0 1 6.149 4.012M8.5 6a1.5 1.5 0 1 0 0 3a1.5 1.5 0 0 0 0-3" /></g></svg>