<svg xmlns="http://www.w3.org/2000/svg" viewBox="0 0 24 24" width="48" height="48"><g fill="none" fill-rule="evenodd"><path fill="currentColor" d="M4 12a8 8 0 1 1 16 0a8 8 0 0 1-16 0m8-10C6.477 2 2 6.477 2 12s4.477 10 10 10s10-4.477 10-10S17.523 2 12 2m-1.5 8.5a1.5 1.5 0 1 1 2.355 1.233a1 1 0 0 0-.416.985L12.82 15h-1.64l.38-2.282a1 1 0 0 0-.415-.985A1.5 1.5 0 0 1 10.5 10.5M12 7a3.5 3.5 0 0 0-2.505 5.945l-.481 2.89A1 1 0 0 0 10 17h4a1 1 0 0 0 .986-1.164l-.481-2.891A3.5 3.5 0 0 0 12 7" /></g></svg>