<svg xmlns="http://www.w3.org/2000/svg" viewBox="0 0 24 24" width="48" height="48"><g fill="none" fill-rule="evenodd"><path fill="currentColor" d="M14.612 20.926c-.96-.318-8.532-3.026-12.495-10.455a1 1 0 0 1 .386-1.34C5.704 7.305 8.083 2.6 8.105 2.554a1 1 0 0 1 1.654-.204c.025.03 2.845 3.198 8.325 3.655a1.001 1.001 0 0 1 .706 1.61c-2.764 3.553-2.846 9.985-2.808 11.824q.128.078.264.134a.86.86 0 0 0 .473.068c.127-.022.322-.095.574-.347c.83-.83 1.78-1.056 2.63-.917c.789.128 1.42.554 1.784.917a1 1 0 0 1-1.414 1.414a1.4 1.4 0 0 0-.691-.357c-.225-.037-.526-.012-.895.357c-.498.498-1.053.8-1.645.903a2.85 2.85 0 0 1-1.559-.181a4.2 4.2 0 0 1-.891-.503ZM5.109 9.722a9.3 9.3 0 0 0 1.79.216a11.4 11.4 0 0 0 1.973-.13a30 30 0 0 1-.67-3.58c.423-.604.776-1.164 1.049-1.621c.242.2.527.421.857.652c.134 1.424.386 2.8.713 4.099c1.233-.378 2.612-.971 4.126-1.872q.642.172 1.347.299c-.3.54-.561 1.107-.789 1.69c-1.483.84-2.863 1.42-4.13 1.805a31 31 0 0 0 .74 2.033a27 27 0 0 0 1.902 3.84c-.026.509-.038.97-.042 1.369c-.57-.252-1.29-.6-2.093-1.058a30 30 0 0 1-1.622-3.402a33 33 0 0 1-.837-2.318c-.94.16-1.8.213-2.573.193a11.5 11.5 0 0 1-1.522-.138a18 18 0 0 1-.992-1.471q.396-.286.773-.606" /></g></svg>