<svg xmlns="http://www.w3.org/2000/svg" viewBox="0 0 24 24" width="48" height="48"><g fill="none" fill-rule="evenodd"><path fill="currentColor" d="M12 2a1 1 0 0 1 1 1v1h1a1 1 0 0 1 1 1a3 3 0 0 1 3 3v8a3 3 0 0 1-3 3h-.54a9.4 9.4 0 0 1-.24 1.492a7 7 0 0 1-.086.315l-.082.253a3 3 0 0 1-.157.385a1.01 1.01 0 0 1-1.342.45a1 1 0 0 1-.453-1.332c.08-.177.133-.368.18-.555c.062-.25.128-.586.171-1.008h-1.026a5.7 5.7 0 0 1-.53 1.697a4.7 4.7 0 0 1-.439.716a3 3 0 0 1-.248.293a1 1 0 0 1-1.425-1.403c.132-.148.235-.324.323-.5c.101-.204.208-.47.284-.803H9a3 3 0 0 1-3-3V8a3 3 0 0 1 3-3a1 1 0 0 1 1-1h1V3a1 1 0 0 1 1-1m3 5h-.17c.11.313.17.65.17 1v8c0 .35-.06.687-.17 1H15a1 1 0 0 0 1-1V8a1 1 0 0 0-1-1m-3 0a1 1 0 0 0-1 1v8a1 1 0 1 0 2 0V8a1 1 0 0 0-1-1M9.17 7H9a1 1 0 0 0-.993.883L8 8v8a1 1 0 0 0 .883.993L9 17h.17a3 3 0 0 1-.163-.791L9 16V8q.001-.421.11-.81z" /></g></svg>