<svg xmlns="http://www.w3.org/2000/svg" viewBox="0 0 24 24" width="48" height="48"><g fill="none" fill-rule="evenodd"><path fill="currentColor" d="M12 2a1 1 0 0 1 1 1v1h1a1 1 0 0 1 1 1a3 3 0 0 1 3 3v8a3 3 0 0 1-3 3h-.54a9.4 9.4 0 0 1-.24 1.492a7 7 0 0 1-.086.315l-.082.253l-.037.104l-.057.142l-.064.141a1 1 0 0 1-1.793-.884c.079-.177.132-.368.179-.555c.062-.25.128-.586.171-1.008h-1.026a5.7 5.7 0 0 1-.53 1.697a4.7 4.7 0 0 1-.439.716a3 3 0 0 1-.248.293a1 1 0 0 1-1.425-1.403c.132-.148.235-.324.323-.5c.101-.204.208-.47.284-.803H9a3 3 0 0 1-3-3V8a3 3 0 0 1 3-3a1 1 0 0 1 1-1h1V3a1 1 0 0 1 1-1m-1 5a2 2 0 0 0-1.995 1.85L9 9v6a2 2 0 0 0 1.85 1.995L11 17zm2 0v10a2 2 0 0 0 2-2V9a2 2 0 0 0-2-2" /></g></svg>