<svg xmlns="http://www.w3.org/2000/svg" viewBox="0 0 24 24" width="48" height="48"><g fill="none" fill-rule="evenodd"><path fill="currentColor" d="M18.089 2.624a1 1 0 0 0-1.099.155q-.149.135-.282.285c-.151.167-.35.407-.542.708c-.373.583-.79 1.5-.638 2.577c.151 1.077.804 1.844 1.324 2.301c.145.129.288.24.418.333c-.316.89-.193 1.761-.025 2.363q.06.21.125.389c-.787.548-1.193 1.344-1.403 1.94a5 5 0 0 0-.185.658c-.865.125-1.548.574-1.995.958c-.328.28-.654.61-.885.979c-.554.887-.615 1.996-.327 2.936c.292.952.99 1.87 2.109 2.243a1 1 0 0 0 .74-1.855l-.108-.043c-.312-.104-.573-.347-.736-.692c.46.25 1.023.44 1.67.44c1.088 0 1.938-.54 2.463-.99a5.3 5.3 0 0 0 .869-.955a1 1 0 0 0-.002-1.111l-.046-.067q.287-.098.57-.26c.943-.544 1.409-1.437 1.639-2.09c.094-.269.157-.518.197-.72l.047-.264l.024-.194l.007-.083a1 1 0 0 0-.555-.96l-.047-.023c.192-.221.365-.477.504-.774c.46-.986.329-1.984.143-2.651a4.8 4.8 0 0 0-.498-1.19a1.01 1.01 0 0 0-1.007-.47l-.071.013c.032-.27.034-.558-.008-.857c-.151-1.077-.805-1.843-1.324-2.301a4.8 4.8 0 0 0-1.066-.728m-12.178 0a1 1 0 0 1 1.099.155q.149.135.282.285c.151.167.35.407.542.708c.373.583.79 1.5.638 2.577c-.151 1.077-.804 1.844-1.324 2.301a5 5 0 0 1-.418.333c.316.89.193 1.761.025 2.363q-.06.21-.125.389c.786.548 1.193 1.344 1.403 1.94c.085.243.144.468.185.658c.865.125 1.548.574 1.995.958c.328.28.654.61.885.979c.554.887.615 1.996.327 2.936c-.292.952-.99 1.87-2.109 2.243a1 1 0 0 1-.74-1.855l.108-.043c.312-.104.573-.347.736-.692c-.46.25-1.023.44-1.67.44c-1.088 0-1.937-.54-2.463-.99a5.4 5.4 0 0 1-.625-.635a4 4 0 0 1-.244-.32a1 1 0 0 1 .002-1.111l.046-.067a3.3 3.3 0 0 1-.57-.26c-.943-.544-1.409-1.437-1.639-2.09a5 5 0 0 1-.197-.72l-.047-.264l-.024-.194a1 1 0 0 1 .547-1.044l.048-.022a3.3 3.3 0 0 1-.504-.774c-.46-.986-.329-1.984-.143-2.651a4.8 4.8 0 0 1 .498-1.19a1.01 1.01 0 0 1 1.007-.47l.071.013a3.3 3.3 0 0 1 .008-.857c.151-1.077.804-1.843 1.324-2.301a4.8 4.8 0 0 1 1.066-.728" /></g></svg>