<svg xmlns="http://www.w3.org/2000/svg" viewBox="0 0 24 24" width="48" height="48"><g fill="none"><path fill="currentColor" d="M16.5 3.206A5 5 0 0 1 18.716 9.2a5.002 5.002 0 0 1-3.926 8.755c.044.37.05.754.02 1.127c-.075.885-.376 1.897-1.103 2.624a1 1 0 0 1-1.497-1.32l.083-.094c.273-.273.472-.76.523-1.376q.014-.168.012-.328a5 5 0 0 1-7.544-5.79a5.002 5.002 0 0 1 4.917-8.515a5 5 0 0 1 6.3-1.078ZM11.498 5.88l-.096.156a1 1 0 0 1-1.366.366a3 3 0 1 0-3 5.196a1 1 0 0 1 .366 1.366a3 3 0 0 0 5.196 3a1 1 0 0 1 1.366-.366a3 3 0 0 0 3.156-5.1l-.156-.096a1 1 0 0 1-.366-1.366a3 3 0 0 0-5.1-3.156M12 9.5a1.5 1.5 0 1 1 0 3a1.5 1.5 0 0 1 0-3" /></g></svg>