<svg xmlns="http://www.w3.org/2000/svg" viewBox="0 0 24 24" width="48" height="48"><g fill="none" fill-rule="evenodd"><path fill="currentColor" d="M13.5 5A3.5 3.5 0 0 0 10 8.5c0 .223.058.515.185.94c.057.193.123.395.196.62l.018.056q.122.367.248.79c.328 1.116.615 2.506.352 4.18a4 4 0 1 1-2.298-3.707a30 30 0 0 0-.223-.704c-.072-.22-.145-.445-.21-.663C8.13 9.548 8 9.027 8 8.5a5.5 5.5 0 1 1 11 0c0 .957-.315 1.92-.713 2.808c-.401.894-.93 1.8-1.427 2.64l-.133.224c-.459.773-.88 1.484-1.202 2.147C15.165 17.061 15 17.61 15 18a2 2 0 1 0 4 0a1 1 0 1 1 2 0a4 4 0 0 1-8 0c0-.86.335-1.749.725-2.553c.36-.744.827-1.53 1.276-2.285l.139-.234c.502-.848.974-1.662 1.323-2.439c.352-.785.537-1.446.537-1.989C17 6.563 15.434 5 13.5 5M7 13a2 2 0 1 0 0 4a2 2 0 0 0 0-4" /></g></svg>