<svg xmlns="http://www.w3.org/2000/svg" viewBox="0 0 24 24" width="48" height="48"><g fill="none"><path fill="currentColor" d="M6.12 4.526a1 1 0 0 1 1.354-.407l13 7a1 1 0 0 1-.948 1.762l-4.934-2.657a2 2 0 0 1-.296.467l-1.938 2.261a3 3 0 0 1-1.712.992l-1.17 2.338l-.48 4.818a1 1 0 0 1-1.991-.2l.5-5a1 1 0 0 1 .1-.347l.998-1.996l-3.025.378l-1.746 2.62a1 1 0 1 1-1.664-1.11l1.873-2.81c.264-.35.617-.6 1.063-.655l2.93-.368c.056-.28.175-.557.366-.812l1.978-2.637q.057-.076.117-.145L6.526 5.88a1 1 0 0 1-.407-1.355m6.65 4.87a.48.48 0 0 0-.792-.033L10 12c.323 0 .624-.097.84-.35zM17 5a1 1 0 1 0-2 0a1 1 0 0 0 2 0m2 0a3 3 0 1 1-6 0a3 3 0 0 1 6 0" /></g></svg>