<svg xmlns="http://www.w3.org/2000/svg" viewBox="0 0 24 24" width="48" height="48"><g fill="none" fill-rule="evenodd"><path fill="currentColor" d="M12 2c5.523 0 10 4.477 10 10s-4.477 10-10 10S2 17.523 2 12S6.477 2 12 2m2.313 14.434A5 5 0 0 1 12 17a5 5 0 0 1-2.079-.451l-.234-.115l-2.183 2.184A7.96 7.96 0 0 0 12 20a7.96 7.96 0 0 0 4.237-1.213l.26-.17zm-8.93-8.93A7.96 7.96 0 0 0 4 12c0 1.667.51 3.215 1.382 4.496l2.184-2.183A5 5 0 0 1 7 12c0-.835.204-1.621.566-2.313L5.382 7.504Zm13.235 0l-2.184 2.183c.362.692.566 1.479.566 2.313s-.204 1.621-.566 2.313l2.184 2.183A7.96 7.96 0 0 0 20 12c0-1.667-.51-3.215-1.382-4.496M12 9a3 3 0 1 0 0 6a3 3 0 0 0 0-6m0-5a7.96 7.96 0 0 0-4.237 1.213l-.26.17l2.184 2.183A5 5 0 0 1 12 7c.742 0 1.446.162 2.079.451l.234.115l2.183-2.184A7.96 7.96 0 0 0 12 4" /></g></svg>