<svg xmlns="http://www.w3.org/2000/svg" viewBox="0 0 24 24" width="48" height="48"><g fill="none"><path fill="currentColor" d="M12 13a1 1 0 0 1 1 1v1.268l1.098-.634a1 1 0 1 1 1 1.732L14 17l1.098.634a1 1 0 1 1-1 1.732L13 18.732V20a1 1 0 1 1-2 0v-1.268l-1.098.634a1 1 0 1 1-1-1.732L10 17l-1.098-.634a1 1 0 1 1 1-1.732l1.098.634V14a1 1 0 0 1 1-1m-.5-11a6.5 6.5 0 0 1 6.086 4.212a6.002 6.002 0 0 1-.07 11.595a3 3 0 0 0-.32-.807a2.999 2.999 0 0 0-2.598-4.5a2.999 2.999 0 0 0-5.196 0A2.999 2.999 0 0 0 6.803 17a3 3 0 0 0-.354.97a5 5 0 0 1-1.448-9.554A6.5 6.5 0 0 1 11.5 2" /></g></svg>