<svg xmlns="http://www.w3.org/2000/svg" viewBox="0 0 24 24" width="48" height="48"><g fill="none"><path fill="currentColor" d="m17.303 9.524l3.182 3.182a5.5 5.5 0 1 1-7.778 7.778l-1.06-1.06a1.5 1.5 0 1 1 2.12-2.122l1.062 1.061a2.5 2.5 0 0 0 3.535-3.536l-3.182-3.182a2.5 2.5 0 0 0-2.681-.56q-.242.096-.454.196l-.464.217c-.62.28-1.097.4-1.704-.206c-.872-.872-.646-1.677.417-2.41a5.5 5.5 0 0 1 7.007.642m-6.01-6.01l1.06 1.06a1.5 1.5 0 0 1-2.12 2.122l-1.061-1.06A2.5 2.5 0 1 0 5.636 9.17l3.182 3.182a2.5 2.5 0 0 0 2.681.56q.242-.096.454-.196l.464-.217c.62-.28 1.098-.4 1.704.206c.872.872.646 1.677-.417 2.41a5.5 5.5 0 0 1-7.007-.642l-3.182-3.182a5.5 5.5 0 1 1 7.778-7.778Z" /></g></svg>