<svg xmlns="http://www.w3.org/2000/svg" viewBox="0 0 24 24" width="48" height="48"><g fill="none"><path fill="currentColor" d="M10.232 10.231a5 5 0 0 1 6.89-.172l.181.172l2.828 2.829a5 5 0 0 1-6.89 7.243l-.18-.172l-2.122-2.122a1 1 0 0 1 1.32-1.497l.094.083l2.122 2.122a3 3 0 0 0 4.377-4.1l-.135-.143l-2.828-2.828a3 3 0 0 0-4.243 0a1 1 0 0 1-1.414-1.415M3.868 3.867a5 5 0 0 1 6.89-.172l.181.172L13.06 5.99a1 1 0 0 1-1.32 1.497l-.094-.083l-2.121-2.121A3 3 0 0 0 5.147 9.38l.135.144l2.829 2.829a3 3 0 0 0 4.242 0a1 1 0 1 1 1.415 1.414a5 5 0 0 1-6.89.172l-.182-.172l-2.828-2.829a5 5 0 0 1 0-7.07Z" /></g></svg>