<svg xmlns="http://www.w3.org/2000/svg" viewBox="0 0 24 24" width="48" height="48"><g fill="none" fill-rule="evenodd"><path fill="currentColor" d="M16.95 4a1 1 0 0 0-1.414-1.414l-3.89 3.889a.5.5 0 0 1-.707 0L8.464 4A1 1 0 1 0 7.05 5.414L8.636 7H5a2 2 0 0 0-2 2v10a2 2 0 0 0 2 2h14a2 2 0 0 0 2-2V9a2 2 0 0 0-2-2h-5.05zm-7.487 7.92a1.045 1.045 0 0 1 1.458-.842c.355.154 1.028.467 1.868.952s1.449.912 1.76 1.142a1.045 1.045 0 0 1 0 1.683c-.31.229-.914.652-1.76 1.14c-.847.49-1.515.8-1.868.954a1.045 1.045 0 0 1-1.458-.842a19 19 0 0 1-.109-2.094c0-.966.066-1.708.11-2.092" /></g></svg>