<svg xmlns="http://www.w3.org/2000/svg" viewBox="0 0 24 24" width="48" height="48"><g fill="none"><path fill="currentColor" d="M12.191 19.998a1 1 0 1 1 .047 2L12 22l-.238-.003a1 1 0 1 1 .047-2L12 20zm3.972-1.165a1 1 0 1 1 1.043 1.707a10 10 0 0 1-.412.238a1 1 0 0 1-.96-1.755a8 8 0 0 0 .33-.19Zm-9.701.332a1 1 0 0 1 1.375-.332q.162.1.33.19a1 1 0 0 1-.961 1.755a10 10 0 0 1-.412-.238a1 1 0 0 1-.332-1.375M12 6a6 6 0 1 1 0 12a6 6 0 0 1 0-12m7.023 9.834a1 1 0 0 1 1.755.96q-.114.21-.238.412a1 1 0 0 1-1.707-1.043q.1-.162.19-.33ZM3.62 15.437a1 1 0 0 1 1.358.397a8 8 0 0 0 .19.33a1 1 0 1 1-1.707 1.042a10 10 0 0 1-.238-.412a1 1 0 0 1 .397-1.357M12 10a2 2 0 1 0 0 4a2 2 0 0 0 0-4m-8.974.785a1 1 0 0 1 .976 1.024l-.001.287l.001.095a1 1 0 0 1-2 .047l-.001-.357l.002-.12a1 1 0 0 1 1.023-.976m17.948 0a1 1 0 0 1 1.023.977L22 12l-.003.238a1 1 0 1 1-2-.047L20 12l-.002-.191a1 1 0 0 1 .976-1.024m-1.81-4.323a1 1 0 0 1 1.375.332q.125.203.239.412a1 1 0 1 1-1.755.96a8 8 0 0 0-.19-.33a1 1 0 0 1 .332-1.374ZM3.46 6.794a1 1 0 0 1 1.707 1.043q-.1.162-.19.33a1 1 0 1 1-1.755-.961q.115-.21.238-.412m11.977-3.175a1 1 0 0 1 1.357-.397q.21.115.412.238a1 1 0 0 1-1.043 1.707a8 8 0 0 0-.33-.19a1 1 0 0 1-.396-1.358m-8.231-.397a1 1 0 1 1 .96 1.755a8 8 0 0 0-.33.19A1 1 0 0 1 6.795 3.46q.203-.123.412-.238ZM12 2l.238.003a1 1 0 0 1-.047 2L12 4l-.191.002a1 1 0 0 1-.047-2z" /></g></svg>