<svg xmlns="http://www.w3.org/2000/svg" viewBox="0 0 24 24" width="48" height="48"><g fill="none" fill-rule="evenodd"><path fill="currentColor" d="M16.95 2.586a1 1 0 0 1 0 1.414l-3 3H19a2 2 0 0 1 2 2v10a2 2 0 0 1-2 2H5a2 2 0 0 1-2-2V9a2 2 0 0 1 2-2h3.636L7.05 5.414A1 1 0 0 1 8.465 4l2.474 2.475a.5.5 0 0 0 .707 0l3.89-3.89a1 1 0 0 1 1.414 0M19 9H5v10h14zM8.98 11.547a1.232 1.232 0 0 1 1.72-.994a22 22 0 0 1 2.2 1.123a22 22 0 0 1 2.075 1.346c.668.494.67 1.489 0 1.984A22 22 0 0 1 12.9 16.35c-.997.576-1.785.943-2.2 1.124a1.23 1.23 0 0 1-1.72-.993a23 23 0 0 1-.128-2.467c0-1.14.078-2.014.128-2.467m1.902 1.306a23 23 0 0 0 0 2.32a23 23 0 0 0 2.008-1.16a23 23 0 0 0-2.008-1.16" /></g></svg>