<svg xmlns="http://www.w3.org/2000/svg" viewBox="0 0 24 24" width="48" height="48"><g fill="none" fill-rule="evenodd"><path fill="currentColor" d="M3 5a2 2 0 0 1 2-2h2a1 1 0 0 1 0 2H5v2a1 1 0 0 1-2 0zm0 14a2 2 0 0 0 2 2h2a1 1 0 1 0 0-2H5v-2a1 1 0 1 0-2 0zM19 3a2 2 0 0 1 2 2v2a1 1 0 1 1-2 0V5h-2a1 1 0 1 1 0-2zm2 16a2 2 0 0 1-2 2h-2a1 1 0 1 1 0-2h2v-2a1 1 0 1 1 2 0zM16.955 8.358a1 1 0 0 0-1.313-1.313l-9.9 4.243a1 1 0 0 0 .17 1.893l3.986.92l.92 3.987a1 1 0 0 0 1.894.17zm-5.998 3.935l-1.614-.372l4.789-2.053l-2.053 4.79l-.373-1.615a1 1 0 0 0-.749-.75" /></g></svg>