<svg xmlns="http://www.w3.org/2000/svg" viewBox="0 0 24 24" width="48" height="48"><g fill="none"><path fill="currentColor" d="M13.5 21a1.5 1.5 0 0 1-3 0v-3a1.5 1.5 0 0 1 3 0zm0-15a1.5 1.5 0 0 1-3 0V3a1.5 1.5 0 0 1 3 0zm9 6a1.5 1.5 0 0 0-1.5-1.5h-3a1.5 1.5 0 0 0 0 3h3a1.5 1.5 0 0 0 1.5-1.5M6 10.5a1.5 1.5 0 0 1 0 3H3a1.5 1.5 0 0 1 0-3zm13.425 8.925a1.5 1.5 0 0 0 0-2.122l-2.122-2.121a1.5 1.5 0 1 0-2.121 2.121l2.121 2.122a1.5 1.5 0 0 0 2.122 0M8.818 6.697a1.5 1.5 0 0 1-2.121 2.121L4.575 6.697a1.5 1.5 0 0 1 2.122-2.122zm10.607-2.122a1.5 1.5 0 0 0-2.122 0l-2.121 2.122a1.5 1.5 0 1 0 2.121 2.121l2.122-2.121a1.5 1.5 0 0 0 0-2.122M6.697 15.182a1.5 1.5 0 1 1 2.121 2.121l-2.121 2.122a1.5 1.5 0 0 1-2.122-2.122z" /></g></svg>