<svg xmlns="http://www.w3.org/2000/svg" viewBox="0 0 24 24" width="48" height="48"><g fill="none"><path fill="currentColor" d="M12 6a2 2 0 1 0 0-4a2 2 0 0 0 0 4M5.01 7.626a2 2 0 1 1-1.236 3.804A2 2 0 0 1 5.01 7.626M6.122 3.91a2 2 0 1 1 2.351 3.236a2 2 0 0 1-2.35-3.236m2.351 12.944a2 2 0 1 1-2.35 3.236a2 2 0 0 1 2.35-3.236m-4.7-4.284a2 2 0 1 1 1.237 3.804a2 2 0 0 1-1.236-3.804M12 18a2 2 0 1 0 0 4a2 2 0 0 0 0-4m6.32-.704a2 2 0 1 1-3.235 2.352a2 2 0 0 1 3.235-2.352m-.614-3.442a2 2 0 1 1 3.805 1.236a2 2 0 0 1-3.805-1.236m3.805-4.944a2 2 0 1 1-3.805 1.236a2 2 0 0 1 3.805-1.236m-6.427-4.558a2 2 0 1 1 3.236 2.351a2 2 0 0 1-3.236-2.35" /></g></svg>