<svg xmlns="http://www.w3.org/2000/svg" viewBox="0 0 24 24" width="48" height="48"><g fill="none"><path fill="currentColor" d="M12 5a1.5 1.5 0 1 1 0-3a1.5 1.5 0 0 1 0 3M7.885 6.337A1.5 1.5 0 1 1 6.122 3.91a1.5 1.5 0 0 1 1.763 2.427M3.452 10.8a1.5 1.5 0 1 0 .927-2.853a1.5 1.5 0 0 0-.927 2.853m1.89 3.363a1.5 1.5 0 1 1-2.853.927a1.5 1.5 0 0 1 2.854-.927m2.875 5.595a1.5 1.5 0 1 0-2.427-1.763a1.5 1.5 0 0 0 2.427 1.763M12 19a1.5 1.5 0 1 1 0 3a1.5 1.5 0 0 1 0-3m6.21-1.005a1.5 1.5 0 1 0-2.427 1.763a1.5 1.5 0 0 0 2.427-1.763m.447-3.832a1.5 1.5 0 1 1 2.853.927a1.5 1.5 0 0 1-2.853-.927m.963-6.216a1.5 1.5 0 1 0 .927 2.853a1.5 1.5 0 0 0-.927-2.853m-3.506-1.61a1.5 1.5 0 1 1 1.764-2.427a1.5 1.5 0 0 1-1.764 2.427" /></g></svg>