<svg xmlns="http://www.w3.org/2000/svg" viewBox="0 0 24 24" width="48" height="48"><g fill="none" fill-rule="evenodd"><path fill="currentColor" d="M17.553 16.106a1 1 0 0 1 1.283.345l.058.102l2 4a1 1 0 0 1-.765 1.439L20 22H4a1 1 0 0 1-.945-1.328l.05-.12l2-4a1 1 0 0 1 1.836.788l-.047.107L5.618 20h12.764l-1.276-2.553a1 1 0 0 1 .447-1.341M12 2a7 7 0 0 1 7 7c0 2.382-1.289 4.317-2.623 5.69a15.7 15.7 0 0 1-2.418 2.008l-.373.246l-.332.209l-.149.09l-.257.148c-.528.3-1.168.3-1.696 0l-.257-.149l-.31-.189l-.171-.109l-.373-.246a15.7 15.7 0 0 1-2.418-2.008C6.289 13.317 5 11.382 5 9a7 7 0 0 1 7-7m0 5a2 2 0 1 0 0 4a2 2 0 0 0 0-4" /></g></svg>