<svg xmlns="http://www.w3.org/2000/svg" viewBox="0 0 24 24" width="48" height="48"><g fill="none" fill-rule="evenodd"><path fill="currentColor" d="M12 2a9 9 0 0 1 9 9c0 3.074-1.676 5.59-3.442 7.395a20.4 20.4 0 0 1-2.876 2.416l-.426.29l-.2.133l-.377.24l-.336.205l-.416.242a1.87 1.87 0 0 1-1.854 0l-.416-.242l-.52-.32l-.192-.125l-.41-.273a20.6 20.6 0 0 1-3.093-2.566C4.676 16.589 3 14.074 3 11a9 9 0 0 1 9-9m0 2a7 7 0 0 0-7 7c0 2.322 1.272 4.36 2.871 5.996a18 18 0 0 0 2.222 1.91l.458.326q.222.155.427.288l.39.25l.343.209l.289.169l.455-.269l.367-.23q.293-.186.627-.417l.458-.326a18 18 0 0 0 2.222-1.91C17.728 15.361 19 13.322 19 11a7 7 0 0 0-7-7m0 3a4 4 0 1 1 0 8a4 4 0 0 1 0-8m0 2a2 2 0 1 0 0 4a2 2 0 0 0 0-4" /></g></svg>