<svg xmlns="http://www.w3.org/2000/svg" viewBox="0 0 24 24" width="48" height="48"><g fill="none" fill-rule="evenodd"><path fill="currentColor" d="M14.125 19.972c-.222.164-.463.3-.728.37c-.746.2-1.561-.098-2.273-.298c-4.773-1.343-7.97-3.446-8.887-6.584c-.732-2.506-.028-5.016 1.52-6.576c1.434-1.445 3.56-2.031 5.741-1.092c1.42-1.904 3.555-2.46 5.519-1.925c2.12.577 3.984 2.399 4.603 4.935q.182.746.183 1.519q.384.197.72.48c1.157.979 1.775 2.642 1.43 4.371c-.44 2.206-2.485 3.755-5.41 4.861c-.501.19-1.049.425-1.596.329c-.304-.054-.576-.21-.822-.39m-9.968-7.073c-.535-1.833.003-3.581 1.02-4.606c.976-.984 2.423-1.35 4.023-.414c.559.327 1.28.133 1.6-.428c.918-1.611 2.354-2.018 3.691-1.654c1.394.38 2.734 1.624 3.186 3.479q.083.334.11.685a3.7 3.7 0 0 0-1.06.301c-1.074-1.047-2.496-1.253-3.75-.791c-1.422.523-2.572 1.875-2.84 3.618c-.273 1.785.57 3.525 2.139 5.198c-.198-.05-.403-.11-.61-.168c-4.631-1.303-6.9-3.135-7.509-5.22m7.958.493c.16-1.05.839-1.781 1.553-2.045c.66-.242 1.393-.115 1.95.69a1.104 1.104 0 0 0 1.545.273c.8-.567 1.532-.435 2.068.018c.582.492.968 1.412.76 2.453c-.225 1.13-1.368 2.328-4.155 3.381c-.177.067-.353.139-.535.192c-.153-.113-.294-.24-.438-.363c-2.258-1.943-2.923-3.46-2.748-4.6Z" /></g></svg>