<svg xmlns="http://www.w3.org/2000/svg" viewBox="0 0 24 24" width="48" height="48"><g fill="none"><path fill="currentColor" d="M9.498 5.793c1.42-1.904 3.555-2.46 5.519-1.925c2.12.577 3.984 2.398 4.603 4.934q.048.195.083.39a4.45 4.45 0 0 0-2.774-.07c-1.287-.952-2.881-1.112-4.298-.59c-1.775.655-3.161 2.316-3.482 4.406c-.41 2.676 1.22 5.08 3.525 7.124l.388.336c-.313.022-.631-.027-.935-.092a10 10 0 0 1-.466-.112l-.537-.15C6.35 18.701 3.154 16.6 2.237 13.46c-.732-2.506-.028-5.015 1.52-6.575c1.434-1.445 3.56-2.031 5.741-1.092m1.628 7.448c.428-2.792 3.657-4.168 5.315-1.772a.104.104 0 0 0 .144.025c2.377-1.684 4.94.713 4.387 3.483q-.48 2.41-4.47 4l-.435.17l-.263.108c-.227.089-.467.16-.684.122c-.216-.038-.417-.188-.6-.348l-.31-.28q-3.47-2.986-3.084-5.508" /></g></svg>