<svg xmlns="http://www.w3.org/2000/svg" viewBox="0 0 24 24" width="48" height="48"><g fill="none"><path fill="currentColor" d="m10.137 6.74l.168 2.188l.25-.166A1 1 0 0 0 11 7.93V4a1 1 0 1 1 2 0v3.93a1 1 0 0 0 .445.832l.25.166l.168-2.188c.121-1.574 1.932-2.394 3.194-1.447l.585.438a7 7 0 0 1 2.718 4.536l1.08 7.019c.358 2.327-1.982 4.141-4.147 3.214l-1.055-.453a5 5 0 0 1-3.015-4.979l.296-3.853l-1.183-.79a3 3 0 0 1-.336-.26a3 3 0 0 1-.336.26l-1.183.79l.296 3.853a5 5 0 0 1-3.015 4.98l-1.056.452c-2.164.927-4.505-.887-4.147-3.214l1.08-7.019a7 7 0 0 1 2.719-4.536l.584-.438c1.263-.947 3.074-.127 3.195 1.447" /></g></svg>