<svg xmlns="http://www.w3.org/2000/svg" viewBox="0 0 24 24" width="48" height="48"><g fill="none" fill-rule="evenodd"><path fill="currentColor" d="M19 14a1 1 0 0 1 .898.56l.048.117l.13.378a3 3 0 0 0 1.684 1.8l.185.07l.378.129a1 1 0 0 1 .118 1.844l-.118.048l-.378.13a3 3 0 0 0-1.8 1.684l-.07.185l-.129.378a1 1 0 0 1-1.844.118l-.048-.118l-.13-.378a3 3 0 0 0-1.684-1.8l-.185-.07l-.378-.129a1 1 0 0 1-.118-1.844l.118-.048l.378-.13a3 3 0 0 0 1.8-1.684l.07-.185l.129-.378A1 1 0 0 1 19 14m1-10a2 2 0 0 1 1.995 1.85L22 6v5a1 1 0 0 1-1.993.117L20 11V8.635l-7.04 5.867a1.5 1.5 0 0 1-1.797.092l-.123-.092L4 8.635V18h8a1 1 0 0 1 .117 1.993L12 20H4a2 2 0 0 1-1.995-1.85L2 18V6a2 2 0 0 1 1.85-1.995L4 4zm-1 13.196a5 5 0 0 1-.804.804q.448.356.804.804q.355-.448.804-.804a5 5 0 0 1-.804-.804M20 6H4v.032l8 6.666l8-6.666z" /></g></svg>