<svg xmlns="http://www.w3.org/2000/svg" viewBox="0 0 24 24" width="48" height="48"><g fill="none"><path fill="currentColor" d="M19 14a1 1 0 0 1 .898.56l.048.117l.13.378a3 3 0 0 0 1.684 1.8l.185.07l.378.129a1 1 0 0 1 .118 1.844l-.118.048l-.378.13a3 3 0 0 0-1.8 1.684l-.07.185l-.129.378a1 1 0 0 1-1.844.118l-.048-.118l-.13-.378a3 3 0 0 0-1.684-1.8l-.185-.07l-.378-.129a1 1 0 0 1-.118-1.844l.118-.048l.378-.13a3 3 0 0 0 1.8-1.684l.07-.185l.129-.378A1 1 0 0 1 19 14m3-7.032v7.522l-.032-.081l-.129-.379a3 3 0 0 0-5.61-.179l-.068.18l-.13.378a1 1 0 0 1-.516.58l-.106.043l-.379.129a3 3 0 0 0-1.404 4.673l.138.166H4a2 2 0 0 1-1.995-1.85L2 18V6.968l9.04 7.534a1.5 1.5 0 0 0 1.797.092l.123-.092zM20 4c.564 0 1.073.233 1.436.608l.116.13L12 12.698l-9.552-7.96a2 2 0 0 1 1.366-.73L4 4z" /></g></svg>