<svg xmlns="http://www.w3.org/2000/svg" viewBox="0 0 24 24" width="48" height="48"><g fill="none" fill-rule="evenodd"><path fill="currentColor" d="M11.553 3.106a1 1 0 0 1 .894 0c.71.354 1.58 1.18 2.267 2.237c.42.647.798 1.42 1.033 2.289c.723-.448 1.507-.77 2.437-1.08a1 1 0 0 1 1.297.752c.257 1.285.412 2.558.191 3.807a6.1 6.1 0 0 1-.833 2.184a7.5 7.5 0 0 1 1.716.873a1 1 0 0 1 .374 1.203c-.29.724-1.022 1.504-2.37 2.155c-1.215.587-2.99 1.099-5.563 1.383A1 1 0 0 1 13 19v2a1 1 0 1 1-2 0v-2q0-.046.004-.091c-2.574-.284-4.348-.796-5.564-1.383c-1.347-.651-2.079-1.43-2.368-2.155a1 1 0 0 1 .373-1.203a7.5 7.5 0 0 1 1.716-.873a6.2 6.2 0 0 1-.833-2.184c-.22-1.25-.065-2.522.192-3.807a1 1 0 0 1 1.296-.753c.93.31 1.715.633 2.437 1.08a8.2 8.2 0 0 1 1.033-2.288c.687-1.057 1.558-1.883 2.267-2.237M13 16.895V14a1 1 0 1 0-2 0v2.895q.476.056 1 .101q.525-.044 1-.101" /></g></svg>