<svg xmlns="http://www.w3.org/2000/svg" viewBox="0 0 24 24" width="48" height="48"><g fill="none" fill-rule="evenodd"><path fill="currentColor" d="M12 2c5.523 0 10 4.477 10 10s-4.477 10-10 10S2 17.523 2 12S6.477 2 12 2m1.817 12h-3.634a2 2 0 0 0-1.87 1.293l-.053.158l-.88 3.08A7.96 7.96 0 0 0 12 20a7.96 7.96 0 0 0 4.356-1.289l.264-.18l-.88-3.08a2 2 0 0 0-1.757-1.444zm-2.281-6.84l-1.393 3.482a2 2 0 0 0-.143.743v.515a.1.1 0 0 0 .1.1h3.8a.1.1 0 0 0 .1-.1v-.515c0-.254-.049-.506-.143-.743l-1.393-3.481a.5.5 0 0 0-.928 0Z" /></g></svg>