<svg xmlns="http://www.w3.org/2000/svg" viewBox="0 0 24 24" width="48" height="48"><g fill="none" fill-rule="evenodd"><path fill="currentColor" d="M12 17.978a6.5 6.5 0 1 1 0-10.956a6.5 6.5 0 1 1 0 10.956M4 12.5a4.5 4.5 0 0 1 6.429-4.067A6.47 6.47 0 0 0 9 12.5c0 1.54.535 2.953 1.429 4.067A4.5 4.5 0 0 1 4 12.5m9.571-4.067a4.5 4.5 0 1 1 0 8.133A6.47 6.47 0 0 0 15 12.5c0-1.54-.535-2.953-1.429-4.067M12 9.671c.625.773 1 1.757 1 2.829a4.48 4.48 0 0 1-1 2.829a4.48 4.48 0 0 1-1-2.829c0-1.072.375-2.056 1-2.829" /></g></svg>