<svg xmlns="http://www.w3.org/2000/svg" viewBox="0 0 24 24" width="48" height="48"><g fill="none"><path fill="currentColor" d="M8.758 2.808a4.998 4.998 0 0 1 8.53 3.486a5 5 0 0 1 3.491 8.534l-4.95 4.95l.353.354a1.5 1.5 0 0 1-2.121 2.121l-.707-.707a2.5 2.5 0 0 1 0-3.536l5.303-5.303a2.001 2.001 0 0 0-2.829-2.829l-3.888 3.89a1.5 1.5 0 0 1-1.557.353a1.5 1.5 0 0 1-.57-2.477l3.891-3.89A1.998 1.998 0 0 0 10.88 4.93l-6.013 6.013a1.5 1.5 0 0 1-2.12-2.122zm2.475 2.474a1.5 1.5 0 0 1 2.12 2.122l-3.889 3.89a2 2 0 0 0 2.83 2.827l3.888-3.89a1.5 1.5 0 0 1 2.12 2.123l-3.888 3.888a5 5 0 1 1-7.071-7.07z" /></g></svg>