<svg xmlns="http://www.w3.org/2000/svg" viewBox="0 0 24 24" width="48" height="48"><g fill="none"><path fill="currentColor" d="M9.112 3.161a4.498 4.498 0 0 1 7.65 3.658a4.5 4.5 0 0 1 3.662 7.656l-5.303 5.304l.707.707a1 1 0 1 1-1.414 1.414l-.707-.707a2 2 0 0 1 0-2.83l5.304-5.302a2.5 2.5 0 0 0-3.536-3.536l-3.889 3.89a1 1 0 0 1-1.173.178l-.004-.002a1 1 0 0 1-.242-1.593l3.89-3.89a2.498 2.498 0 0 0-3.53-3.533l-6.013 6.013A1 1 0 0 1 3.1 9.173zm2.474 2.475A1 1 0 0 1 13 7.05l-3.89 3.89a2.5 2.5 0 0 0 3.537 3.535l3.888-3.889A1 1 0 1 1 17.95 12l-3.888 3.889a4.5 4.5 0 0 1-6.365-6.364z" /></g></svg>