<svg xmlns="http://www.w3.org/2000/svg" viewBox="0 0 24 24" width="48" height="48"><g fill="none"><path fill="currentColor" d="M8 6a6 6 0 1 1 0 12A6 6 0 0 1 8 6m9 1c1.5 0 2.5 2.239 2.5 5s-1 5-2.5 5s-2.5-2.239-2.5-5s1-5 2.5-5m4 .5c.38 0 .712.827.88 2.246l.047.443l.019.235l.03.494l.01.259l.012.541L22 12l-.002.282l-.012.541l-.01.26l-.03.493l-.02.235l-.045.443c-.169 1.42-.5 2.246-.881 2.246c-.38 0-.712-.827-.88-2.246l-.047-.443l-.019-.235l-.03-.494l-.01-.259l-.012-.541v-.564l.012-.541l.01-.26l.03-.493l.02-.235l.045-.443c.169-1.42.5-2.246.881-2.246" /></g></svg>