<svg xmlns="http://www.w3.org/2000/svg" viewBox="0 0 24 24" width="48" height="48"><g fill="none" fill-rule="evenodd"><path fill="currentColor" d="M14.767 3a2.996 2.996 0 0 0 1.263 4.839l.378.129a1 1 0 0 1 .624.624l.13.378A2.995 2.995 0 0 0 22 10.233L21.999 16a3 3 0 0 1-3 3H7.333L4 21.5c-.824.618-2 .03-2-1V6a3 3 0 0 1 3-3zM11 12H8a1 1 0 1 0 0 2h3a1 1 0 1 0 0-2m2-4H8a1 1 0 0 0 0 2h5a1 1 0 1 0 0-2m7-7a1 1 0 0 1 .946.677l.13.378c.3.879.99 1.57 1.87 1.87l.377.129a1 1 0 0 1 0 1.892l-.378.13c-.879.3-1.57.99-1.87 1.87l-.129.377a1 1 0 0 1-1.892 0l-.13-.378a3 3 0 0 0-1.87-1.87l-.377-.129a1 1 0 0 1 0-1.892l.378-.13c.879-.3 1.57-.99 1.87-1.87l.129-.377A1 1 0 0 1 20 1" /></g></svg>