<svg xmlns="http://www.w3.org/2000/svg" viewBox="0 0 24 24" width="48" height="48"><g fill="none"><path fill="currentColor" d="M13 3a1 1 0 1 1 0 2h-2.5A6.5 6.5 0 0 0 4 11.5c0 4.959 3.371 7.963 7 8.433V19a1 1 0 0 1 1-1h1.5a6.5 6.5 0 0 0 6.485-6.065a1 1 0 0 1 1.996.13A8.5 8.5 0 0 1 13.5 20H13v1a1 1 0 0 1-1 1C6.984 22 2 18.087 2 11.5A8.5 8.5 0 0 1 10.5 3zm-4.5 7a1.5 1.5 0 1 1 0 3a1.5 1.5 0 0 1 0-3m7 0a1.5 1.5 0 1 1 0 3a1.5 1.5 0 0 1 0-3M20 1a1 1 0 0 1 .946.677l.13.378c.3.879.99 1.57 1.87 1.87l.377.129a1 1 0 0 1 0 1.892l-.378.13c-.879.3-1.57.99-1.87 1.87l-.129.377a1 1 0 0 1-1.892 0l-.13-.378a3 3 0 0 0-1.87-1.87l-.377-.129a1 1 0 0 1 0-1.892l.378-.13c.879-.3 1.57-.99 1.87-1.87l.129-.377l.062-.146A1 1 0 0 1 20 1m0 3.196a5 5 0 0 1-.804.804q.449.355.804.803q.356-.447.803-.803A5 5 0 0 1 20 4.196" /></g></svg>