<svg xmlns="http://www.w3.org/2000/svg" viewBox="0 0 24 24" width="48" height="48"><g fill="none"><path fill="currentColor" d="M12 2c5.523 0 10 4.477 10 10s-4.477 10-10 10a9.96 9.96 0 0 1-4.863-1.26l-.305-.178l-3.032.892a1.01 1.01 0 0 1-1.28-1.145l.026-.109l.892-3.032A9.96 9.96 0 0 1 2 12C2 6.477 6.477 2 12 2m0 2a8 8 0 0 0-6.759 12.282c.198.312.283.696.216 1.077l-.039.163l-.441 1.501l1.501-.441c.433-.128.883-.05 1.24.177A8 8 0 1 0 12 4M9.793 9.793a1 1 0 0 1 1.32-.083l.094.083l2.293 2.293l2.293-2.293a1 1 0 0 1 1.497 1.32l-.083.094l-3 3a1 1 0 0 1-1.32.083l-.094-.083l-2.293-2.293l-2.293 2.293a1 1 0 0 1-1.497-1.32l.083-.094z" /></g></svg>