<svg xmlns="http://www.w3.org/2000/svg" viewBox="0 0 24 24" width="48" height="48"><g fill="none"><path fill="currentColor" d="M20 1a1 1 0 0 1 .946.677l.13.378c.3.879.99 1.57 1.87 1.87l.377.129a1 1 0 0 1 0 1.892l-.378.13c-.879.3-1.57.99-1.87 1.87l-.129.377a1 1 0 0 1-1.892 0l-.13-.378a3 3 0 0 0-1.87-1.87l-.377-.129a1 1 0 0 1 0-1.892l.378-.13c.879-.3 1.57-.99 1.87-1.87l.129-.377l.062-.146A1 1 0 0 1 20 1m0 3.196a5 5 0 0 1-.804.804q.449.355.804.803q.356-.447.803-.803A5 5 0 0 1 20 4.196M8 19l2.134-1.6a2 2 0 0 1 1.199-.4H19a1 1 0 0 0 1-1v-4a1 1 0 1 1 2 0v4a3 3 0 0 1-3 3h-7.667L8 21.5c-.824.618-2 .03-2-1V19H5a3 3 0 0 1-3-3V6a3 3 0 0 1 3-3h8a1 1 0 1 1 0 2H5a1 1 0 0 0-1 1v10a1 1 0 0 0 1 1h1.5A1.5 1.5 0 0 1 8 18.5z" /></g></svg>