<svg xmlns="http://www.w3.org/2000/svg" viewBox="0 0 24 24" width="48" height="48"><g fill="none" fill-rule="evenodd"><path fill="currentColor" d="M8.07 5.002c-1.595-.11-2.865.816-3.753 1.979c-.893 1.17-1.522 2.72-1.87 4.268c-.346 1.547-.433 3.189-.154 4.564c.272 1.336.964 2.71 2.42 3.145c1.389.415 2.635-.175 3.587-.976c.954-.802 1.78-1.946 2.446-3.051c.522-.867.968-1.75 1.318-2.504c.35.753.796 1.637 1.317 2.504c.666 1.105 1.492 2.249 2.446 3.051c.952.801 2.198 1.391 3.587.976c1.456-.435 2.148-1.809 2.42-3.145c.28-1.375.192-3.017-.154-4.564c-.348-1.548-.977-3.099-1.87-4.268c-.887-1.163-2.157-2.09-3.752-1.979c-1.734.12-2.97 1.469-3.687 2.488a11 11 0 0 0-.307.465a10 10 0 0 0-.308-.465c-.717-1.02-1.953-2.367-3.687-2.488Zm2.85 5.025c-.283.715-.97 2.348-1.888 3.873c-.621 1.032-1.313 1.958-2.02 2.552s-1.262.728-1.725.59c-.396-.118-.817-.56-1.034-1.627c-.208-1.027-.157-2.375.146-3.728c.304-1.353.838-2.614 1.508-3.493c.675-.885 1.369-1.242 2.024-1.196c.766.053 1.53.705 2.188 1.642c.368.523.643 1.052.8 1.386Zm2.288 0c.282.715.97 2.348 1.887 3.873c.622 1.032 1.314 1.958 2.02 2.552c.708.595 1.262.728 1.726.59c.395-.118.816-.56 1.033-1.627c.209-1.027.158-2.375-.146-3.728s-.837-2.614-1.508-3.493c-.675-.885-1.368-1.242-2.024-1.196c-.766.053-1.53.705-2.188 1.642a9.6 9.6 0 0 0-.8 1.386Z" /></g></svg>