<svg xmlns="http://www.w3.org/2000/svg" viewBox="0 0 24 24" width="48" height="48"><g fill="none" fill-rule="evenodd"><path fill="currentColor" d="M19.946 1.677a1 1 0 0 0-1.893 0l-.129.378a3 3 0 0 1-1.87 1.87l-.377.129a1 1 0 0 0 0 1.892l.378.13a3 3 0 0 1 1.87 1.869l.128.378a1 1 0 0 0 1.893 0l.13-.378a3 3 0 0 1 1.869-1.87l.378-.129a1 1 0 0 0 0-1.892l-.378-.13a3 3 0 0 1-1.87-1.869zM18.196 5q.448-.355.804-.804q.355.448.804.804a5 5 0 0 0-.804.804A5 5 0 0 0 18.196 5M12 2a5 5 0 0 0-5 5v5a5 5 0 0 0 10 0v-2a1 1 0 1 0-2 0v2a3 3 0 0 1-6 0V7a3 3 0 0 1 3.75-2.906a1 1 0 1 0 .5-1.936A5 5 0 0 0 12 2m1 17.938a8.004 8.004 0 0 0 6.919-6.796a1 1 0 0 0-1.98-.284a6.002 6.002 0 0 1-11.878 0a1 1 0 0 0-1.98.284A8.004 8.004 0 0 0 11 19.938V21a1 1 0 1 0 2 0z" /></g></svg>