<svg xmlns="http://www.w3.org/2000/svg" viewBox="0 0 24 24" width="48" height="48"><g fill="none"><path fill="currentColor" d="M4.93 12.01a1 1 0 0 1 1.13.848a6 6 0 0 0 7.832 4.838l.293-.107l1.509 1.509a8 8 0 0 1-2.336.787l-.358.053V21a1 1 0 0 1-1.993.117L11 21v-1.062a8.005 8.005 0 0 1-6.919-6.796a1 1 0 0 1 .848-1.132ZM12 2a5 5 0 0 1 4.995 4.783L17 7v5a5 5 0 0 1-.691 2.538l-.137.22l.719.719c.542-.76.91-1.652 1.048-2.619a1 1 0 0 1 1.98.284a7.96 7.96 0 0 1-1.412 3.513l-.187.25l2.165 2.166a1 1 0 0 1-1.32 1.497l-.094-.083L3.515 4.93a1 1 0 0 1 1.32-1.497l.094.083l2.23 2.23A5 5 0 0 1 12 2m-5 8.404l6.398 6.398A5 5 0 0 1 7 12z" /></g></svg>