<svg xmlns="http://www.w3.org/2000/svg" viewBox="0 0 24 24" width="48" height="48"><g fill="none"><path fill="currentColor" d="M14.011 4.624a7 7 0 0 1 1.599 6.393l-.071.262l3.4 4.373a2.7 2.7 0 0 1 .387 2.632a.8.8 0 0 0 .369.015l.12-.03a1 1 0 0 1 .633 1.897a2.77 2.77 0 0 1-1.992-.074a2.8 2.8 0 0 1-.556-.314a2.7 2.7 0 0 1-2.584-.22l-.164-.119l-4.372-3.4a7 7 0 0 1-6.654-1.526a21.4 21.4 0 0 0 5.764-4.118a21.4 21.4 0 0 0 4.121-5.77Zm-1.592-1.31A19.4 19.4 0 0 1 8.476 8.98a19.4 19.4 0 0 1-5.662 3.94a7.003 7.003 0 0 1 9.605-9.607Z" /></g></svg>