<svg xmlns="http://www.w3.org/2000/svg" viewBox="0 0 24 24" width="48" height="48"><g fill="none" fill-rule="evenodd"><path fill="currentColor" d="M15.682 3.282a2 2 0 0 1 2.701-.116l.127.116l.707.708a2 2 0 0 1 .117 2.7l-.116.128l-.708.707a2 2 0 0 1-.194.17a2 2 0 0 1-.397 1.826l-.116.125l-.99.99A6.5 6.5 0 0 1 19 15.5c0 1.644-.61 3.145-1.616 4.29l-.194.21H20a1 1 0 0 1 .117 1.993L20 22H4a1 1 0 0 1-.117-1.993L4 20h8.5a4.5 4.5 0 0 0 3.075-7.786l-.18-.16l-3.249 3.25a2 2 0 0 1-2.7.116l-.128-.117l-2.121-2.121a2 2 0 0 1-.117-2.701l.117-.127l5.657-5.657a2 2 0 0 1 1.95-.513l.082-.1l.089-.094zM6.49 13.89l2.12 2.121a1 1 0 1 1-1.413 1.415l-2.122-2.122A1 1 0 1 1 6.49 13.89m10.606-9.192l-.707.707l.707.707l.707-.707z" /></g></svg>