<svg xmlns="http://www.w3.org/2000/svg" viewBox="0 0 24 24" width="48" height="48"><g fill="none"><path fill="currentColor" d="M14.116 6.817a.46.46 0 0 1 .652.312l.01.08l.41 10.255a.92.92 0 0 1-.293.71l-.09.072l-2.485 1.776a.55.55 0 0 1-.554.05l-.086-.05l-2.485-1.776a.92.92 0 0 1-.38-.668l-.003-.114l.41-10.255a.46.46 0 0 1 .587-.422l.076.03l1.705.853a.92.92 0 0 0 .707.047l.113-.047zm6.302-2.693a.55.55 0 0 1 .783.373l.012.089l.82 14.75a.55.55 0 0 1-.699.561l-.08-.03l-4.824-2.226a.55.55 0 0 1-.308-.39l-.01-.087l-.43-10.308a.55.55 0 0 1 .225-.468l.078-.047zm-16.836 0l4.433 2.217a.55.55 0 0 1 .304.515l-.43 10.308a.55.55 0 0 1-.319.477l-4.823 2.226a.55.55 0 0 1-.78-.53l.82-14.751a.55.55 0 0 1 .795-.462" /></g></svg>