<svg xmlns="http://www.w3.org/2000/svg" viewBox="0 0 24 24" width="48" height="48"><g fill="none" fill-rule="evenodd"><path fill="currentColor" d="M19.96 3.65a1.1 1.1 0 0 1 1.54.822l.013.12l.817 15.194a1.1 1.1 0 0 1-1.419 1.112l-.107-.04l-4.897-2.067l-3.257 1.983a1.25 1.25 0 0 1-1.163.072l-.137-.072l-3.257-1.983l-4.897 2.067A1.1 1.1 0 0 1 1.67 19.9v-.114l.817-15.194a1.1 1.1 0 0 1 1.441-.986l.112.044L9.4 6.083L12 7.166l2.601-1.084zm-5.904 4.826l-1.575.657a1.25 1.25 0 0 1-.828.047l-.134-.047l-1.575-.657l-.342 8.892L12 18.828l2.398-1.46zm5.53-2.46l-3.56 1.616l.368 9.193l3.862 1.631zm-15.173 0l-.668 12.44l3.861-1.63l.368-9.194l-3.56-1.617Z" /></g></svg>