<svg xmlns="http://www.w3.org/2000/svg" viewBox="0 0 24 24" width="48" height="48"><g fill="none"><path fill="currentColor" d="M13 3a1 1 0 1 0-2 0v1H5a2 2 0 0 0-2 2v12a2 2 0 0 0 2 2h6v1a1 1 0 1 0 2 0zm1 2a1 1 0 0 1 1-1h1a1 1 0 1 1 0 2h-1a1 1 0 0 1-1-1m4 0a1 1 0 0 1 1-1a2 2 0 0 1 2 2a1 1 0 1 1-2 0a1 1 0 0 1-1-1m2 3a1 1 0 0 1 1 1v1a1 1 0 1 1-2 0V9a1 1 0 0 1 1-1m0 5a1 1 0 0 1 1 1v1a1 1 0 1 1-2 0v-1a1 1 0 0 1 1-1m0 4a1 1 0 0 1 1 1a2 2 0 0 1-2 2a1 1 0 1 1 0-2a1 1 0 0 1 1-1m-6 2a1 1 0 0 1 1-1h1a1 1 0 1 1 0 2h-1a1 1 0 0 1-1-1" /></g></svg>