<svg xmlns="http://www.w3.org/2000/svg" viewBox="0 0 24 24" width="48" height="48"><g fill="none"><path fill="currentColor" d="M14 7.468a.23.23 0 0 0-.043-.148a.26.26 0 0 0-.122-.088a.27.27 0 0 0-.15-.01a.23.23 0 0 0-.127.087l-2.633 3.176a2.5 2.5 0 0 1-3.85 0L4.442 7.31a.23.23 0 0 0-.127-.087a.27.27 0 0 0-.15.01a.26.26 0 0 0-.122.088a.23.23 0 0 0-.043.148v9.147a.385.385 0 0 0 .77 0v-4.408a1 1 0 0 1 1.766-.642l2.08 2.487a.5.5 0 0 0 .768 0l2.08-2.487a1 1 0 0 1 1.766.642v4.408a.385.385 0 0 0 .77 0zm6 6.032a.5.5 0 0 0-1 0v3a.5.5 0 0 0 1 0zm0-6a.5.5 0 1 0-1 0a.5.5 0 0 0 1 0m2 9a2.5 2.5 0 0 1-5 0v-3a2.5 2.5 0 0 1 5 0zm0-9a2.5 2.5 0 1 1-5 0a2.5 2.5 0 0 1 5 0m-6 9.115a2.385 2.385 0 0 1-4.77 0v-1.654l-.312.374a2.5 2.5 0 0 1-3.836 0l-.312-.374v1.654a2.385 2.385 0 0 1-4.77 0V7.468C2 5.36 4.638 4.409 5.982 6.032L8.615 9.21a.5.5 0 0 0 .77 0l2.633-3.177C13.362 4.41 16 5.36 16 7.468z" /></g></svg>