<svg xmlns="http://www.w3.org/2000/svg" viewBox="0 0 24 24" width="48" height="48"><g fill="none"><path fill="currentColor" d="M9 16a1 1 0 0 1 1 1v.268l.232-.134a1 1 0 1 1 1 1.732L11 19l.232.134a1 1 0 0 1-1 1.732L10 20.732V21a1 1 0 1 1-2 0v-.268l-.232.134a1 1 0 1 1-1-1.732L7 19l-.232-.134a1 1 0 1 1 1-1.732l.232.134V17a1 1 0 0 1 1-1m2.5-14a6.5 6.5 0 0 1 6.086 4.212a6.002 6.002 0 0 1-1.346 11.783l.04-.046a3 3 0 0 0 2.05-1.449c.456-.79.512-1.702.23-2.5a3 3 0 0 0-.23-2.5a3 3 0 0 0-2.05-1.45A3 3 0 0 0 14 9c-.913 0-1.73.407-2.28 1.05a3 3 0 0 0-2.05 1.45a3 3 0 0 0-.23 2.5l-.011.03a3 3 0 0 0-2.71 1.02a2.99 2.99 0 0 0-2.356 2.199A5 5 0 0 1 5 8.416A6.5 6.5 0 0 1 11.5 2m2.5 9a1 1 0 0 1 1 1v.268l.232-.134a1 1 0 1 1 1 1.732L16 14l.232.134a1 1 0 0 1-1 1.732L15 15.732V16a1 1 0 1 1-2 0v-.268l-.232.134a1 1 0 1 1-1-1.732L12 14l-.232-.134a1 1 0 1 1 1-1.732l.232.134V12a1 1 0 0 1 1-1" /></g></svg>