<svg xmlns="http://www.w3.org/2000/svg" viewBox="0 0 24 24" width="48" height="48"><g fill="none" fill-rule="evenodd"><path fill="currentColor" d="M12 2c5.523 0 10 4.477 10 10s-4.477 10-10 10S2 17.523 2 12S6.477 2 12 2m-2 13.464v4.284A8 8 0 0 0 12 20c1.458 0 2.824-.39 4.001-1.071l-6-3.465ZM8 12l-3.71 2.142a8.02 8.02 0 0 0 3.457 4.635L8 18.93zm12 0l-6 3.464l3.708 2.141a7.97 7.97 0 0 0 2.286-5.295zm-8.01-2.316l-2 1.168l.01 2.315l2.01 1.149l2-1.168l-.01-2.315zM6.291 6.395A7.97 7.97 0 0 0 4 12l6-3.464zM16 5.07V12l3.71-2.142A8.02 8.02 0 0 0 16 5.07M12 4c-1.458 0-2.824.39-4.001 1.071L14 8.536V4.252A8 8 0 0 0 12 4" /></g></svg>