<svg xmlns="http://www.w3.org/2000/svg" viewBox="0 0 24 24" width="48" height="48"><g fill="none" fill-rule="evenodd"><path fill="currentColor" d="M19.66 4.216C20.867 4.022 22 4.944 22 6.2v9.6c0 1.256-1.132 2.178-2.34 1.985a48.5 48.5 0 0 0-6.66-.612v1.362c.713.049 1.38.14 1.914.229c.442.073.884.157 1.32.264c.526.13.868.685.736 1.215a1 1 0 0 1-1.212.727a16 16 0 0 0-1.172-.233A16 16 0 0 0 12 20.5c-.924 0-1.865.116-2.586.236c-.392.066-.785.139-1.171.234a1 1 0 0 1-.486-1.94a17 17 0 0 1 1.329-.266c.534-.09 1.2-.18 1.914-.229v-1.362a48.5 48.5 0 0 0-6.66.612C3.133 17.978 2 17.055 2 15.8V6.2c0-1.256 1.132-2.178 2.34-1.984a47.5 47.5 0 0 0 15.32 0m.323 1.974h-.007a49.5 49.5 0 0 1-15.952 0h-.011l-.01.006L4 6.2v9.6l.003.004l.01.005l.004.001h.007a49.5 49.5 0 0 1 15.952 0h.011l.01-.006l.003-.003V6.2l-.003-.004l-.01-.005z" /></g></svg>