<svg xmlns="http://www.w3.org/2000/svg" viewBox="0 0 24 24" width="48" height="48"><g fill="none"><path fill="currentColor" d="M12 2a1 1 0 0 1 .993.883L13 3.01a1 1 0 0 1-1.993.117L11 3a1 1 0 0 1 1-1m5.65 15.65a1 1 0 0 1 1.32-.083l.101.09a1 1 0 0 1-1.32 1.497l-.094-.083a1 1 0 0 1-.007-1.421m-12.714 0a1 1 0 0 1 1.497 1.32l-.083.094a1 1 0 0 1-1.504-1.313zm5.817-12.54a1 1 0 0 1 .99 1.566a4 4 0 0 0 5.58 5.58a1 1 0 0 1 1.566.99A7.002 7.002 0 0 1 5 12c0-3.44 2.482-6.3 5.753-6.889Zm6.632 4.056a1 1 0 0 1 1.263.636q.074.221.131.448a1 1 0 1 1-1.936.498a5 5 0 0 0-.094-.319a1 1 0 0 1 .636-1.263m-2.186-2.341a1 1 0 0 1 1.41-.094q.351.308.659.659a1 1 0 1 1-1.505 1.317a5 5 0 0 0-.47-.471a1 1 0 0 1-.094-1.411m-2.667-.886a1 1 0 0 1 1.217-.72q.227.06.448.132a1 1 0 1 1-.627 1.9a5 5 0 0 0-.32-.094a1 1 0 0 1-.718-1.218M4.929 4.93a1 1 0 0 1 1.32-.084l.094.083A1 1 0 0 1 5.03 6.433l-.094-.083a1 1 0 0 1-.007-1.42m12.728 0a1 1 0 0 1 1.497 1.32l-.09.1a1 1 0 0 1-1.497-1.32zM22 12a1 1 0 0 1-.883.993L20.99 13a1 1 0 0 1-.117-1.993L21 11a1 1 0 0 1 1 1m-10 7.99a1 1 0 0 1 .993.884L13 21a1 1 0 0 1-1.993.117L11 20.99a1 1 0 0 1 1-1M4.01 12a1 1 0 0 1-.883.993L3 13a1 1 0 0 1-.117-1.993L3.01 11a1 1 0 0 1 1 1" /></g></svg>