<svg xmlns="http://www.w3.org/2000/svg" viewBox="0 0 24 24" width="48" height="48"><g fill="none" fill-rule="evenodd"><path fill="currentColor" d="M3.788 17.291q-.223.423-.38.71H3a1 1 0 1 0 0 2h18a1 1 0 1 0 0-2h-.409q-.155-.287-.38-.71a95 95 0 0 1-1.586-3.138c-1.235-2.56-2.654-5.81-3.462-8.671A2.025 2.025 0 0 0 13.22 4c-.154 0-.31-.008-.461.03L12 4.22l-.758-.19c-.15-.038-.307-.03-.461-.03c-.922 0-1.702.624-1.944 1.482c-.808 2.862-2.228 6.111-3.462 8.67a95 95 0 0 1-1.587 3.14m6.974-11.266a37 37 0 0 1-.813 2.51l.777.777l.38-.759a1 1 0 0 1 1.601-.26l1.019 1.019l.352-.704a38 38 0 0 1-.84-2.583A.04.04 0 0 0 13.22 6h-.097l-.88.22a1 1 0 0 1-.486 0l-.88-.22h-.096a.04.04 0 0 0-.02.025m4.298 5.091l-.166.331a1 1 0 0 1-1.601.26l-1.019-1.019l-.38.76a1 1 0 0 1-1.601.26l-1.13-1.131a79 79 0 0 1-1.986 4.445A97 97 0 0 1 5.676 18h12.648a97 97 0 0 1-1.5-2.979a81 81 0 0 1-1.764-3.905" /></g></svg>