<svg xmlns="http://www.w3.org/2000/svg" viewBox="0 0 24 24" width="48" height="48"><g fill="none" fill-rule="evenodd"><path fill="currentColor" d="m11.3 5.75l3.499 6.062l.902-1.562c.577-1 2.02-1 2.598 0l4.33 7.5A1.5 1.5 0 0 1 21.33 20H17v-.002l-.072.002H3.072a1.5 1.5 0 0 1-1.3-2.25l6.929-12c.577-1 2.02-1 2.598 0M10 12.202l-.945.63l-.116.066a1 1 0 0 1-.878 0l-.116-.066l-.739-.493L3.938 18h12.124l-3.268-5.66l-.74.492l-.115.066a1 1 0 0 1-.878 0l-.116-.066zM17 12l-1.046 1.812l2.273 3.938l.065.124l.051.126h2.121zm-7-4.5l-1.792 3.104l.292.194l.945-.63a1 1 0 0 1 1.11 0l.945.63l.292-.194z" /></g></svg>