<svg xmlns="http://www.w3.org/2000/svg" viewBox="0 0 24 24" width="48" height="48"><g fill="none" fill-rule="evenodd"><path fill="currentColor" d="M20.314 8.038c-1.407-.965-3.372-1.96-5.387-2.036c-.806-.03-1.482.305-2.167.645q-.287.145-.581.28c-.155.069-.203.069-.358 0a16 16 0 0 1-.58-.28c-.685-.34-1.362-.676-2.168-.645c-2.015.076-3.98 1.071-5.387 2.036C2.763 8.67 1 9.684 1 11c0 1.451 1.937 3.116 2.914 3.948C5.73 16.496 8.451 18 12 18s6.27-1.504 8.086-3.05C21.102 14.083 23 12.512 23 11c0-1.277-1.794-2.35-2.686-2.962M12 13c3.153 0 6.182-.49 9-1.391A17.8 17.8 0 0 0 16.367 11c-1.512 0-2.977.188-4.367.54A17.8 17.8 0 0 0 7.633 11c-1.609 0-3.164.213-4.633.609A29.5 29.5 0 0 0 12 13" /></g></svg>