<svg xmlns="http://www.w3.org/2000/svg" viewBox="0 0 24 24" width="48" height="48"><g fill="none"><path fill="currentColor" d="M8.464 6.707a1 1 0 0 1 0-1.414l2.758-2.758a1.1 1.1 0 0 1 1.556 0l2.757 2.758a1 1 0 1 1-1.414 1.414L13 5.586V11h5.414l-1.121-1.121a1 1 0 0 1 1.414-1.415l2.758 2.758a1.1 1.1 0 0 1 0 1.556l-2.758 2.758a1 1 0 0 1-1.414-1.415L18.414 13H13v5.414l1.121-1.121a1 1 0 0 1 1.414 1.414l-2.757 2.758a1.1 1.1 0 0 1-1.556 0l-2.758-2.758a1 1 0 1 1 1.415-1.414l1.12 1.121V13H5.587l1.121 1.121a1 1 0 1 1-1.414 1.415l-2.758-2.758a1.1 1.1 0 0 1 0-1.556l2.758-2.758A1 1 0 0 1 6.707 9.88L5.586 11H11V5.587l-1.121 1.12a1 1 0 0 1-1.415 0" /></g></svg>