<svg xmlns="http://www.w3.org/2000/svg" viewBox="0 0 24 24" width="48" height="48"><g fill="none"><path fill="currentColor" d="M5.134 3.009c8.231 1.112 14.745 7.626 15.857 15.857a1 1 0 0 1-1.982.268c-.992-7.34-6.804-13.151-14.143-14.143a1 1 0 0 1 .268-1.982m.065 9.16a8.51 8.51 0 0 1 6.631 6.632A1 1 0 0 1 10.85 20H5a1 1 0 0 1-1-1v-5.85a1 1 0 0 1 1.2-.98m-.04-4.496A13.51 13.51 0 0 1 16.328 18.84a1 1 0 0 1-1.975.318a11.51 11.51 0 0 0-9.512-9.512a1 1 0 0 1 .318-1.974M6 14.499v3.5h3.501A6.52 6.52 0 0 0 6 14.5M19.999 3a1 1 0 0 1 1 1v4.007l-.012.157a1 1 0 0 1-1.774.46a22.6 22.6 0 0 0-3.83-3.832a1 1 0 0 1 .616-1.786z" /></g></svg>