<svg xmlns="http://www.w3.org/2000/svg" viewBox="0 0 24 24" width="48" height="48"><g fill="none"><path fill="currentColor" d="M5.134 3.01c8.231 1.111 14.746 7.625 15.857 15.856a1.001 1.001 0 0 1-1.982.268c-.991-7.339-6.804-13.15-14.143-14.142a1 1 0 0 1 .268-1.983m.065 9.16A8.51 8.51 0 0 1 11.83 18.8a1 1 0 0 1-.98 1.2H5a1 1 0 0 1-1-1v-5.85a1 1 0 0 1 1.2-.98m-.04-4.497a13.51 13.51 0 0 1 11.17 11.168a1.001 1.001 0 0 1-1.975.319A11.51 11.51 0 0 0 4.84 9.648a1 1 0 0 1 .318-1.975M20 3a1 1 0 0 1 1 1v4.007l-.012.157a1.001 1.001 0 0 1-1.775.46a22.7 22.7 0 0 0-3.83-3.832A1 1 0 0 1 16 3.006z" /></g></svg>