<svg xmlns="http://www.w3.org/2000/svg" viewBox="0 0 24 24" width="48" height="48"><g fill="none"><path fill="currentColor" d="M12 2.657a7.4 7.4 0 0 1 2.317.376a4 4 0 1 0 6.001 5.201q.26.37.505.739c1 1.5.851 3.207.004 4.467c-.836 1.244-2.349 2.056-4.074 1.907a86 86 0 0 0-1.59-.123l-.787-.05l.857 3.002a3 3 0 0 1-2.705 3.819l-.18.005h-.697a3 3 0 0 1-2.928-3.65l.044-.174l.857-3.001c-.78.043-1.585.103-2.377.172c-1.725.15-3.238-.663-4.074-1.907c-.847-1.26-.996-2.968.004-4.467a32 32 0 0 1 1.978-2.677C7.108 3.952 9.495 2.657 12 2.657m4.433 1.425c.855.575 1.665 1.318 2.412 2.214l.11.132a2 2 0 1 1-2.522-2.346" /></g></svg>