<svg xmlns="http://www.w3.org/2000/svg" viewBox="0 0 24 24" width="48" height="48"><g fill="none" fill-rule="evenodd"><path fill="currentColor" d="m17.94 2.434l.19.117l1.98 1.32a2 2 0 0 1 .883 1.498l.007.166v12.539a2 2 0 0 1-1.692 1.976l-.155.018l-11.529.887a2 2 0 0 1-1.646-.663l-.107-.131L3.6 17.133a3 3 0 0 1-.592-1.584L3 15.333V4.926A2 2 0 0 1 4.692 2.95l.155-.018l11.388-.876a3 3 0 0 1 1.704.378ZM19 7.08L8 7.926V18.92l11-.846zM16 8.5a1 1 0 0 1 1 1v7a1 1 0 0 1-1 1h-.5a1 1 0 0 1-.852-.476L12 12.72V17a1 1 0 1 1-2 0v-7a1 1 0 0 1 1-1h.5a1 1 0 0 1 .852.476L15 13.779V9.5a1 1 0 0 1 1-1m.388-4.45l-10.143.78l1.137 1.137l10.998-.845l-1.36-.907a1 1 0 0 0-.632-.165" /></g></svg>