<svg xmlns="http://www.w3.org/2000/svg" viewBox="0 0 24 24" width="48" height="48"><g fill="none" fill-rule="evenodd"><path fill="currentColor" d="M5 6a3 3 0 0 1 6 0v2a3 3 0 0 1-6 0zm3-1a1 1 0 0 0-1 1v2a1 1 0 0 0 2 0V6a1 1 0 0 0-1-1m9.707-.707a1 1 0 0 0-1.414 0L13.465 7.12a1 1 0 0 0 1.414 1.415L16 7.414V20a1 1 0 1 0 2 0V7.414l1.121 1.122a1 1 0 1 0 1.415-1.415zM5 15a3 3 0 0 1 5.995-.176l.005.186c0 .408-.039.799-.107 1.171c-.264 1.433-.964 2.58-1.57 3.352c-.307.39-.598.694-.815.904c-.124.12-.25.238-.385.345a1 1 0 0 1-1.34-1.479L7.118 19l.224-.228A7 7 0 0 0 7.971 18A3 3 0 0 1 5 15m3-1a1 1 0 1 0 0 2a1 1 0 0 0 0-2" /></g></svg>