<svg xmlns="http://www.w3.org/2000/svg" viewBox="0 0 24 24" width="48" height="48"><g fill="none" fill-rule="evenodd"><path fill="currentColor" fill-rule="nonzero" d="M9 12a1 1 0 0 1 1-1h1v-1a1 1 0 1 1 2 0v1h1a1 1 0 1 1 0 2h-1v1a1 1 0 1 1-2 0v-1h-1a1 1 0 0 1-1-1" /><path fill="currentColor" d="M3.139 6.742a17.54 17.54 0 0 1 17.722 0a1.96 1.96 0 0 1 .88 2.266l-2.57 8.567A2 2 0 0 1 17.257 19H6.744a2 2 0 0 1-1.916-1.425l-2.57-8.567a1.96 1.96 0 0 1 .881-2.266m1.04 1.709L6.744 17h10.512l2.565-8.55a15.54 15.54 0 0 0-15.642 0" /></g></svg>