<svg xmlns="http://www.w3.org/2000/svg" viewBox="0 0 24 24" width="48" height="48"><g fill="none" fill-rule="evenodd"><path fill="currentColor" d="M10 2a4 4 0 0 1 3.46 1.99l.098.182l.638-.368a4 4 0 0 1 5.475 5.446l-.113.186l.638.368a4 4 0 0 1-1.979 7.464L18 17.264V18a4 4 0 0 1-7.459 2.01l-.1-.182l-.637.368a4 4 0 0 1-5.475-5.446l.113-.186l-.638-.368a4 4 0 0 1 1.979-7.464L6 6.736V6a4 4 0 0 1 4-4m4.702 10.787l-.068 4.06a1 1 0 0 1-.391.777l-.109.072l-1.956 1.13a2.002 2.002 0 0 0 3.817-.677L16 18v-4.434zm-2.033 1.947l-3.55 1.97l-.118.056a1 1 0 0 1-.75-.006l-.117-.058l-1.956-1.13l-.09.136a2 2 0 0 0 2.578 2.835l.138-.073l3.84-2.217zm2.688-5.415l-1.324.735l3.482 2.089l.107.074a1 1 0 0 1 .37.653L18 13v2.26l.162.008a2 2 0 0 0 1.167-3.649l-.133-.083zM6 8.741a2.001 2.001 0 0 0-1.328 3.64l.132.083l3.84 2.217l1.323-.735l-3.481-2.088a1 1 0 0 1-.477-.728L6 11zm6.014 2.434l-.722.4l-.014.826l.708.425l.722-.401l.014-.826zM10 4a2 2 0 0 0-1.995 1.85L8 6v4.434l1.298.779l.068-4.06l.01-.13a1 1 0 0 1 .381-.647l.109-.072l1.957-1.13l-.068-.135A2 2 0 0 0 10 4m7.928 2.268a2 2 0 0 0-2.594-.805l-.138.073l-3.84 2.217l-.025 1.513l3.55-1.97a1 1 0 0 1 .868-.05l.117.058l1.957 1.13c.442-.62.51-1.465.105-2.166" /></g></svg>