<svg xmlns="http://www.w3.org/2000/svg" viewBox="0 0 24 24" width="48" height="48"><g fill="none" fill-rule="evenodd"><path fill="currentColor" d="m22.017 3.874l-.59 1.581l-.732 1.697c-.679 1.455-1.612 3.156-2.728 4.33c-1.065 1.12-2.673 2.153-3.96 2.886a5 5 0 0 1-1.36 4.557c-2.27 2.27-4.807 2.27-6.694 1.71a9.1 9.1 0 0 1-2.864-1.43l-.865-.718a.394.394 0 0 1 .027-.624l.332-.237c.728-.53 1.479-1.182 1.658-2.08q.172-1.388.197-1.513c.138-.689.43-1.471 1.137-2.18a5 5 0 0 1 4.557-1.36c.733-1.287 1.765-2.895 2.886-3.96c1.174-1.116 2.875-2.05 4.33-2.728l1.696-.733l1.582-.589a1.094 1.094 0 0 1 1.39 1.39ZM6.99 13.268c-.353.352-.506.734-.591 1.157q-.171 1.389-.197 1.514c-.18.904-.709 1.65-1.15 2.148a7.3 7.3 0 0 0 1.471.63c1.384.412 3.09.412 4.71-1.207a3 3 0 1 0-4.243-4.242m4.99-1.975a5 5 0 0 1 1.227 1.228c.391-.227.795-.473 1.19-.732l-.03-.067a3.3 3.3 0 0 0-.66-.93a3.4 3.4 0 0 0-.817-.603l-.18-.086c-.258.395-.504.798-.73 1.19m7.442-6.215c-.384.159-.8.34-1.23.54c-1.408.657-2.866 1.48-3.796 2.364q-.236.225-.47.493c.362.2.782.49 1.195.904c.414.413.703.833.904 1.195q.268-.234.493-.47c.884-.93 1.707-2.388 2.364-3.797c.2-.43.38-.846.54-1.229" /></g></svg>