<svg xmlns="http://www.w3.org/2000/svg" viewBox="0 0 24 24" width="48" height="48"><g fill="none"><path fill="currentColor" d="m11.197 2.749l.138.073l7.794 4.5a2 2 0 0 1 .805 2.593l-.073.139l-6 10.392a2 2 0 0 1-2.593.805l-.139-.073l-7.794-4.5a2 2 0 0 1-.805-2.594l.073-.138l4.5-7.794l-1.732-1a1 1 0 0 1 .896-1.785l.104.053l1.732 1l.5-.866a2 2 0 0 1 2.445-.87zM16.428 12H6.036l-1.7 2.946l7.793 4.5L16.43 12Zm3.875-.77L20.5 11l.076.087l.198.235l.177.22l.197.258l.204.284c.338.489.648 1.04.648 1.416a1.5 1.5 0 0 1-3 0c0-.452.446-1.155.852-1.7l.197-.258zm-9.968-6.676l-.5.866l.866.5a1 1 0 1 1-1 1.732l-.866-.5L7.191 10h10.392l.546-.946z" /></g></svg>