<svg xmlns="http://www.w3.org/2000/svg" viewBox="0 0 24 24" width="48" height="48"><g fill="none" fill-rule="evenodd"><path fill="currentColor" d="M12.267 3.452c-.23-.187-.5-.325-.798-.397a2 2 0 0 0-.89-.055h-5.58a2 2 0 0 0-2 2v10.903a5 5 0 0 0 .671 2.6a4.97 4.97 0 0 0 1.82 1.822a4.97 4.97 0 0 0 2.5.676a4.97 4.97 0 0 0 2.591-.718l9.445-5.453a2 2 0 0 0 .732-2.732l-2.79-4.831a2 2 0 0 0-.87-1.025zM13 13.34V6.185l3.098 1.789zm6.026-.242l-5.366 3.098L17.238 10zM9.5 16a1.5 1.5 0 1 1-3 0a1.5 1.5 0 0 1 3 0" /></g></svg>