<svg xmlns="http://www.w3.org/2000/svg" viewBox="0 0 24 24" width="48" height="48"><g fill="none"><path fill="currentColor" d="M3.293 16.293a1 1 0 0 1 1.497 1.32l-.083.094l-1 1a1 1 0 0 1-1.497-1.32l.083-.094zm5.483-9.158a5.25 5.25 0 0 1 2.724 4.603v.524a5.25 5.25 0 0 1-2.724 4.602c-1.487.816-3.445-.005-3.63-1.845l-.057-.65a31 31 0 0 1 0-4.737l.058-.651C5.33 7.14 7.289 6.32 8.776 7.135M7.136 9.18l-.053.605a29 29 0 0 0 0 4.43l.054.605c.034.342.404.44.677.291A3.25 3.25 0 0 0 9.5 12.262v-.524a3.25 3.25 0 0 0-1.686-2.85c-.273-.149-.643-.05-.677.292ZM3 11a1 1 0 1 1 0 2H2a1 1 0 1 1 0-2zm.707-5.707l1 1a1 1 0 0 1-1.414 1.414l-1-1a1 1 0 0 1 1.414-1.414m18 0a1 1 0 0 0-1.414 0l-1 1a1 1 0 0 0 1.414 1.414l1-1a1 1 0 0 0 0-1.414M18.853 8.98c-.184-1.84-2.143-2.661-3.629-1.846a5.25 5.25 0 0 0-2.724 4.603v.524a5.25 5.25 0 0 0 2.724 4.602c1.486.816 3.445-.005 3.63-1.845l.057-.65a31 31 0 0 0 0-4.737zm-1.99.199l.054.605a29 29 0 0 1 0 4.43l-.054.605c-.034.342-.404.44-.677.291a3.25 3.25 0 0 1-1.686-2.849v-.524a3.25 3.25 0 0 1 1.686-2.85c.273-.149.643-.05.677.292m2.43 8.527a1 1 0 0 1 1.414-1.414l1 1a1 1 0 0 1-1.414 1.414zM23 12a1 1 0 0 0-1-1h-1a1 1 0 1 0 0 2h1a1 1 0 0 0 1-1" /></g></svg>