<svg xmlns="http://www.w3.org/2000/svg" viewBox="0 0 24 24" width="48" height="48"><g fill="none" fill-rule="evenodd"><path fill="currentColor" d="M13.406 4.015c1.06.184 2.05.574 2.925 1.127a2.526 2.526 0 0 1 4.249.294a2.388 2.388 0 0 1-.713 4.56a8.112 8.112 0 0 1-7.86 10.123l-.183-.002A3.5 3.5 0 0 1 9.5 21H5a3 3 0 0 1-1.483-5.608a3.75 3.75 0 0 1 5.658-2.86a5.226 5.226 0 0 0 3.148-7.12a1 1 0 0 1 1.083-1.397M7.25 14a1.75 1.75 0 0 0-1.75 1.75l.003.1l.008.098a1 1 0 0 1-.644 1.048l-.11.033A1 1 0 0 0 5 19h4.5c.464 0 .879-.21 1.155-.543a1.5 1.5 0 0 0-.78-2.41l-.13-.027a1 1 0 0 1-.805-.727A1.75 1.75 0 0 0 7.25 14m7.46-7.477a7.22 7.22 0 0 1-4.09 7.583l.045.093a3.5 3.5 0 0 1 2.293 3.846A6.114 6.114 0 0 0 14.71 6.523m3.651-.403a.53.53 0 0 0-.475.297a8 8 0 0 1 1.181 1.592h.544a.389.389 0 0 0 .064-.772a1 1 0 0 1-.762-.605l-.042-.122a.53.53 0 0 0-.51-.39" /></g></svg>