<svg xmlns="http://www.w3.org/2000/svg" viewBox="0 0 24 24" width="48" height="48"><g fill="none" fill-rule="evenodd"><path fill="currentColor" d="M7.25 13c1.27 0 2.34.862 2.656 2.033a2.5 2.5 0 0 1-.242 4.962L9.5 20H5a2 2 0 0 1-.483-3.941A2.75 2.75 0 0 1 7.25 13M12 4c1.569 0 3.032.452 4.267 1.232a2.526 2.526 0 0 1 4.313.204a2.388 2.388 0 0 1-.83 4.569a8 8 0 0 1-6.437 9.888a4.5 4.5 0 0 0-1.926-6.48A4.75 4.75 0 0 0 7.249 11a4.73 4.73 0 0 0-3.245 1.281L4 12a8 8 0 0 1 8-8m6.361 2.12a.53.53 0 0 0-.516.418q.5.535.899 1.156l.19.315h.677a.389.389 0 0 0 .064-.773a1 1 0 0 1-.762-.604l-.042-.123a.53.53 0 0 0-.51-.389" /></g></svg>