<svg xmlns="http://www.w3.org/2000/svg" viewBox="0 0 24 24" width="48" height="48"><g fill="none" fill-rule="evenodd"><path fill="currentColor" d="M13.406 4.015a8.1 8.1 0 0 1 2.925 1.127a2.526 2.526 0 0 1 4.249.294a2.388 2.388 0 0 1-.712 4.56a8.114 8.114 0 0 1-6.644 10.033a4.5 4.5 0 0 0-1.837-6.615a4.8 4.8 0 0 0-1.156-1.362a5.22 5.22 0 0 0 2.554-4.49a5.2 5.2 0 0 0-.461-2.15a1 1 0 0 1 1.082-1.397M7.25 13c1.27 0 2.34.862 2.656 2.033a2.5 2.5 0 0 1-.242 4.962L9.5 20H5a2 2 0 0 1-.483-3.941A2.75 2.75 0 0 1 7.25 13m11.111-6.88a.53.53 0 0 0-.475.297a8 8 0 0 1 1.181 1.592h.544a.389.389 0 0 0 .064-.773a1 1 0 0 1-.762-.604l-.042-.122a.53.53 0 0 0-.51-.39" /></g></svg>