<svg xmlns="http://www.w3.org/2000/svg" viewBox="0 0 24 24" width="48" height="48"><g fill="none"><path fill="currentColor" d="M12.138 4.538a2 2 0 0 1 2.031.328l.126.115l4.724 4.724a2 2 0 0 1 .5 1.997l-.057.16l-2.365 5.913a2 2 0 0 1-1.605 1.24l-5.079.635q-.196.023-.41.056l-.444.072l-.232.042l-.723.14l-.495.106l-.745.167l-.955.228l-1.552.396l-.646.174a1.01 1.01 0 0 1-1.265-1.134l.034-.146l.295-1.112l.264-1.048l.228-.955l.167-.745l.105-.496l.141-.722l.08-.457l.064-.428l.66-5.28a2 2 0 0 1 1.09-1.536l.151-.069zm.742 1.857L6.968 8.76l-.584 4.672l-.048.396a27 27 0 0 1-.385 2.192l-.171.786l3.288-3.288a2 2 0 1 1 1.414 1.414L7.194 18.22l.392-.087l.784-.165a28 28 0 0 1 1.473-.26l5.397-.676l2.365-5.912zm2.363-3.294a1 1 0 0 1 1.32-.084l.094.084l4.242 4.242a1 1 0 0 1-1.32 1.498l-.094-.084l-4.242-4.242a1 1 0 0 1 0-1.414" /></g></svg>