<svg xmlns="http://www.w3.org/2000/svg" viewBox="0 0 24 24" width="48" height="48"><g fill="none"><path fill="currentColor" d="M16.243 3.515a3 3 0 1 1 4.242 4.243l-.707.706l.707.708a2 2 0 0 1 0 2.828l-4.242 4.242a1.001 1.001 0 0 1-1.415-1.414l4.243-4.242l-.707-.707l-9.9 9.9a1 1 0 0 1-.51.273l-3.536.707a1 1 0 0 1-1.177-1.177l.707-3.535l.04-.143a1 1 0 0 1 .234-.369zM5.85 16.735l-.354 1.768l1.769-.354l.492-.493l-1.414-1.414zm1.907-1.907l1.414 1.414l7.778-7.778l-1.414-1.414zM7 1a1 1 0 0 1 .946.677l.13.378c.3.879.99 1.57 1.87 1.87l.377.129a1 1 0 0 1 0 1.892l-.378.13c-.879.3-1.57.99-1.87 1.87l-.129.377a1 1 0 0 1-1.892 0l-.13-.378a3 3 0 0 0-1.87-1.87l-.377-.129a1 1 0 0 1 0-1.892l.378-.13c.879-.3 1.57-.99 1.87-1.87l.129-.377C6.222 1.285 6.552 1 7 1m12.071 3.929a1 1 0 0 0-1.414 0l-.708.707l1.414 1.414l.708-.707a1 1 0 0 0 0-1.414M7 4.196A5 5 0 0 1 6.196 5q.449.355.804.803q.356-.447.803-.803A5 5 0 0 1 7 4.196" /></g></svg>