<svg xmlns="http://www.w3.org/2000/svg" viewBox="0 0 24 24" width="48" height="48"><g fill="none" fill-rule="evenodd"><path fill="currentColor" d="M16.243 3.515a3 3 0 0 1 4.377 4.098l-.135.144l-.707.707l.707.708a2 2 0 0 1 .117 2.7l-.117.128l-4.242 4.243a1 1 0 0 1-1.498-1.32l.083-.095l4.243-4.242l-.707-.707l-9.878 9.878a1.1 1.1 0 0 1-.437.268l-.125.033l-3.491.698a1.01 1.01 0 0 1-1.206-1.072l.017-.117l.698-3.49a1.1 1.1 0 0 1 .215-.466l.086-.097zm-9.9 12.728l-.493.493l-.354 1.767l1.768-.353l.493-.493l-1.414-1.415Zm9.193-9.193l-7.779 7.778l1.415 1.415l7.778-7.779zm3.534-2.12a1 1 0 0 0-1.32-.083l-.094.083l-.707.707l1.414 1.414l.707-.707l.083-.094a1 1 0 0 0-.083-1.32" /></g></svg>