<svg xmlns="http://www.w3.org/2000/svg" viewBox="0 0 24 24" width="48" height="48"><g fill="none"><path fill="currentColor" d="m14.295 4.98l4.724 4.725a2 2 0 0 1 .443 2.157l-2.365 5.913a2 2 0 0 1-1.605 1.24l-5.079.635q-.196.023-.41.056l-.444.072l-.232.042l-.723.14l-.495.105l-.745.168l-.955.228l-1.552.396l-.646.174a1.01 1.01 0 0 1-1.265-1.134l.034-.146l.295-1.112l.264-1.048l.228-.955l.167-.745l.105-.496l.141-.722l.08-.457l.064-.428l.66-5.28a2 2 0 0 1 1.241-1.605l5.913-2.365a2 2 0 0 1 2.157.443Zm-3.71 5.605a2 2 0 0 0-.507 1.968a1 1 0 0 0-.2.154L5.82 16.765a.2.2 0 0 0-.053.098l-.089.385l-.178.743l-.086.351a.2.2 0 0 0 .244.244l.717-.175l.763-.178a.2.2 0 0 0 .097-.054l4.058-4.058a1 1 0 0 0 .154-.199a2 2 0 1 0-.861-3.337Zm4.658-7.484a1 1 0 0 1 1.32-.084l.094.084L20.9 7.343a1 1 0 0 1-1.32 1.498l-.095-.084l-4.242-4.242a1 1 0 0 1 0-1.414" /></g></svg>