<svg xmlns="http://www.w3.org/2000/svg" viewBox="0 0 24 24" width="48" height="48"><g fill="none" fill-rule="evenodd"><path fill="currentColor" d="M20.485 3.515a3 3 0 0 1 0 4.242l-.707.707l.707.707a2 2 0 0 1 0 2.829l-4.242 4.242a1.001 1.001 0 0 1-1.415-1.414l4.243-4.242l-.707-.708l-9.9 9.9a1 1 0 0 1-.51.274l-3.536.707a1 1 0 0 1-1.177-1.177l.707-3.536a1 1 0 0 1 .274-.51L16.243 3.514a3 3 0 0 1 4.242 0M7 1a1 1 0 0 1 .946.677l.13.378c.3.879.99 1.57 1.87 1.87l.377.129a1 1 0 0 1 0 1.892l-.378.13c-.879.3-1.57.99-1.87 1.87l-.129.377a1 1 0 0 1-1.892 0l-.13-.378a3 3 0 0 0-1.87-1.87l-.377-.129a1 1 0 0 1 0-1.892l.378-.13c.879-.3 1.57-.99 1.87-1.87l.129-.377A1 1 0 0 1 7 1m10.657 3.929l-.707.707l1.414 1.414l.707-.707a1 1 0 0 0-1.414-1.414" /></g></svg>