<svg xmlns="http://www.w3.org/2000/svg" viewBox="0 0 24 24" width="48" height="48"><g fill="none"><path fill="currentColor" d="M19.708 17.293a1 1 0 0 1 0 1.414l-1.5 1.5a3.12 3.12 0 0 1-4.415 0a1.12 1.12 0 0 0-1.585 0l-.5.5a1.001 1.001 0 0 1-1.415-1.414l.5-.5a3.123 3.123 0 0 1 4.271-.135l.144.135a1.12 1.12 0 0 0 1.585 0l1.5-1.5c.39-.39 1.025-.39 1.415 0m.31-13.31a2.5 2.5 0 0 1 0 3.536L8.444 19.095c-.18.18-.405.312-.65.382l-2.84.807a1 1 0 0 1-1.235-1.235l.807-2.84a1.5 1.5 0 0 1 .382-.65L16.482 3.983a2.5 2.5 0 0 1 3.537 0m-2.12 1.414L6.413 16.88l-.281.99l.988-.282L18.605 6.104a.5.5 0 0 0-.707-.707M6 1a1 1 0 0 1 .946.677l.13.378c.3.879.99 1.57 1.87 1.87l.377.129a1 1 0 0 1 0 1.892l-.378.13c-.879.3-1.57.99-1.87 1.87l-.129.377a1 1 0 0 1-1.892 0l-.13-.378a3 3 0 0 0-1.87-1.87l-.377-.129a1 1 0 0 1 0-1.892l.378-.13c.879-.3 1.57-.99 1.87-1.87l.129-.377l.062-.146A1 1 0 0 1 6 1m0 3.196A5 5 0 0 1 5.196 5q.449.355.804.803q.356-.447.803-.803A5 5 0 0 1 6 4.196" /></g></svg>