<svg xmlns="http://www.w3.org/2000/svg" viewBox="0 0 24 24" width="48" height="48"><g fill="none"><path fill="currentColor" d="M18.293 17.293a1 1 0 0 1 1.497 1.32l-.083.094l-1.5 1.5a3.12 3.12 0 0 1-4.414 0a1.12 1.12 0 0 0-1.488-.087l-.098.087l-.5.5a1 1 0 0 1-1.497-1.32l.083-.094l.5-.5a3.12 3.12 0 0 1 4.414 0a1.12 1.12 0 0 0 1.488.087l.098-.087zm-1.81-13.31A2.5 2.5 0 0 1 20.14 7.39l-.122.13L8.442 19.095a1.5 1.5 0 0 1-.505.333l-.145.049l-2.837.807a1 1 0 0 1-1.262-1.13l.025-.107l.807-2.838a1.5 1.5 0 0 1 .28-.536l.102-.114z" /></g></svg>