<svg xmlns="http://www.w3.org/2000/svg" viewBox="0 0 24 24" width="48" height="48"><g fill="none" fill-rule="evenodd"><path fill="currentColor" d="M15.328 3.722a3 3 0 0 1 4.099-.135l.144.135l.707.707a3 3 0 0 1 .135 4.098l-.135.144l-2.975 2.975l3.182 3.182a2 2 0 0 1 .117 2.702l-.117.127l-2.828 2.828a2 2 0 0 1-2.701.117l-.128-.117l-3.182-3.182l-2.363 2.364a1.5 1.5 0 0 1-.7.395l-.16.03l-3.92.53a1 1 0 0 1-1.135-1.011l.01-.115l.53-3.919a1.5 1.5 0 0 1 .316-.738l.109-.122l2.364-2.363l-3.182-3.182a2 2 0 0 1-.117-2.702l.117-.127l2.828-2.828a2 2 0 0 1 2.701-.117l.128.117l3.182 3.182zm.561 9.339l-2.828 2.828l.353.354l.707-.707a1 1 0 0 1 1.498 1.32l-.083.094l-.707.707l1.414 1.414l2.828-2.828zM7.757 4.929L4.93 7.757l1.414 1.415l.707-.707a1 1 0 0 1 1.414 1.414l-.707.707l.354.353l2.828-2.828z" /></g></svg>