<svg xmlns="http://www.w3.org/2000/svg" viewBox="0 0 24 24" width="48" height="48"><g fill="none" fill-rule="evenodd"><path fill="currentColor" d="M18.293 17.293a1 1 0 0 1 1.498 1.32l-.084.094l-1.5 1.5a3.12 3.12 0 0 1-4.414 0a1.12 1.12 0 0 0-1.488-.087l-.098.087l-.5.5a1 1 0 0 1-1.497-1.32l.083-.094l.5-.5a3.12 3.12 0 0 1 4.414 0a1.12 1.12 0 0 0 1.488.087l.098-.087zm-1.81-13.31a2.5 2.5 0 0 1 3.657 3.405l-.122.131L8.443 19.094a1.5 1.5 0 0 1-.506.333l-.145.05l-2.837.807a1 1 0 0 1-1.261-1.13l.024-.107l.807-2.838a1.5 1.5 0 0 1 .28-.537l.102-.113zm2.12 1.415a.5.5 0 0 0-.637-.058l-.07.058L6.414 16.88l-.28.988l.987-.28L18.604 6.104a.5.5 0 0 0 0-.707" /></g></svg>