<svg xmlns="http://www.w3.org/2000/svg" viewBox="0 0 24 24" width="48" height="48"><g fill="none" fill-rule="evenodd"><path fill="currentColor" d="m19.571 3.722l.707.707a3 3 0 0 1 0 4.242l-2.975 2.975l3.182 3.182a2 2 0 0 1 0 2.829l-2.828 2.828a2 2 0 0 1-2.829 0l-3.182-3.182l-2.363 2.364a1.5 1.5 0 0 1-.86.426l-3.92.53a1 1 0 0 1-1.126-1.127l.53-3.919a1.5 1.5 0 0 1 .426-.86l2.364-2.363l-3.182-3.182a2 2 0 0 1 0-2.829l2.828-2.828a2 2 0 0 1 2.829 0l3.182 3.182l2.974-2.975a3 3 0 0 1 4.243 0m-3.682 9.339l-2.828 2.828l.353.354l.707-.707a1 1 0 0 1 1.498 1.32l-.083.094l-.707.707l1.414 1.414l2.828-2.828zm-1.268-5.804l-8.755 8.755l-.331 2.453l2.453-.332l8.755-8.754zM7.757 4.93L4.93 7.757l1.414 1.415l.707-.707a1 1 0 0 1 1.498 1.32l-.084.094l-.707.707l.354.353l2.828-2.828zm8.986.207l-.707.707l2.12 2.121l.708-.707a1 1 0 0 0 0-1.414l-.707-.707a1 1 0 0 0-1.414 0" /></g></svg>