<svg xmlns="http://www.w3.org/2000/svg" viewBox="0 0 24 24" width="48" height="48"><g fill="none"><path fill="currentColor" d="M18.293 17.294a1 1 0 0 1 1.414 1.414l-1.5 1.5a3.12 3.12 0 0 1-4.414 0a1.12 1.12 0 0 0-1.586 0l-.5.5a1 1 0 1 1-1.414-1.414l.5-.5a3.12 3.12 0 0 1 4.414 0a1.12 1.12 0 0 0 1.586 0zm-1.81-13.31a2.5 2.5 0 0 1 3.535 3.536L8.442 19.095a1.5 1.5 0 0 1-.65.382l-2.837.807a1.001 1.001 0 0 1-1.237-1.236l.807-2.838a1.5 1.5 0 0 1 .382-.65zM6 1a1 1 0 0 1 .946.677l.129.377c.3.88.992 1.57 1.87 1.871l.378.13a1 1 0 0 1 0 1.891l-.377.13c-.88.3-1.57.99-1.87 1.87l-.13.377a1.001 1.001 0 0 1-1.892 0l-.129-.378a3 3 0 0 0-1.87-1.87l-.379-.129a1 1 0 0 1 0-1.892l.379-.13c.879-.3 1.57-.99 1.87-1.87l.129-.377A1 1 0 0 1 6 1" /></g></svg>