<svg xmlns="http://www.w3.org/2000/svg" viewBox="0 0 24 24" width="48" height="48"><g fill="none"><path fill="currentColor" d="M17 17c.361 0 .598.187.694.278c.116.11.198.249.269.39a1 1 0 0 0 .4.386c.133.073.257.143.363.256a1.01 1.01 0 0 1 .001 1.38c-.106.114-.23.183-.365.256a1 1 0 0 0-.4.386c-.077.143-.146.277-.267.39a1.01 1.01 0 0 1-1.39 0c-.12-.114-.19-.247-.268-.39a1 1 0 0 0-.4-.386a1.3 1.3 0 0 1-.364-.255a1.01 1.01 0 0 1 .001-1.381a1.3 1.3 0 0 1 .364-.256a1 1 0 0 0 .4-.386c.077-.143.147-.277.267-.39c.096-.09.333-.278.695-.278M13.768 5.282l4.95 4.95l-9.092 9.09a1.5 1.5 0 0 1-.723.401l-4.455 1.028a1 1 0 0 1-1.2-1.2l1.028-4.455a1.5 1.5 0 0 1 .4-.723zm6.364-2.121l.707.707a3 3 0 0 1 0 4.242l-.707.707l-4.95-4.95l.707-.706a3 3 0 0 1 4.243 0M6 0a1 1 0 0 1 .946.677l.129.377c.3.88.992 1.57 1.87 1.871l.378.13a1 1 0 0 1 0 1.891l-.377.13c-.88.3-1.57.99-1.87 1.87l-.13.377a1.001 1.001 0 0 1-1.892 0l-.129-.378a3 3 0 0 0-1.87-1.87l-.379-.129a1 1 0 0 1 0-1.892l.379-.13c.879-.3 1.57-.99 1.87-1.87l.129-.377A1 1 0 0 1 6 0" /></g></svg>