<svg xmlns="http://www.w3.org/2000/svg" viewBox="0 0 24 24" width="48" height="48"><g fill="none"><path fill="currentColor" d="M11 21v-4.086l-3.793 3.793A1 1 0 0 1 5.5 20v-3H4a1 1 0 0 1-1-1V8.5a1 1 0 0 1 1-1h1.5V4a1 1 0 0 1 1.633-.774L11 6.39V3a1 1 0 1 1 2 0v3.39l3.867-3.164A1 1 0 0 1 18.5 4v3.5H20a1 1 0 0 1 1 1V16a1 1 0 0 1-1 1h-1.5v3a1 1 0 0 1-1.707.707L13 16.914V21a1 1 0 1 1-2 0m-3.5-6.586v3.172l3.5-3.5v-3.172zm5.5-.328l3.5 3.5v-3.172l-3.5-3.5zm5.207-.793A1 1 0 0 1 18.5 14v1h.5V9.5h-4.586zM5 15h.5v-1a1 1 0 0 1 .293-.707L9.586 9.5H5zm9.802-7.5H16.5V6.11zM7.5 7.5h1.698L7.5 6.11z" /></g></svg>