<svg xmlns="http://www.w3.org/2000/svg" viewBox="0 0 24 24" width="48" height="48"><g fill="none" fill-rule="evenodd"><path fill="currentColor" d="M20 3a2 2 0 0 1 2 2v14a2 2 0 0 1-2 2H4a2 2 0 0 1-2-2v-6a1 1 0 1 1 2 0v2.1l4.995-4.994a1.25 1.25 0 0 1 1.768 0l4.065 4.066l1.238-1.238a1.25 1.25 0 0 1 1.768 0L20 15.101V5h-8a1 1 0 1 1 0-2zM9.879 12.05L4 17.93V19h16v-1.071l-3.05-3.05l-.707.707l.207.207a1 1 0 0 1-1.414 1.414zM5 2a1 1 0 0 1 .898.56l.048.117l.13.378a3 3 0 0 0 1.684 1.8l.185.07l.378.129a1 1 0 0 1 .117 1.844l-.117.048l-.378.13a3 3 0 0 0-1.8 1.684l-.07.185l-.129.378a1 1 0 0 1-1.844.117l-.048-.117l-.13-.378a3 3 0 0 0-1.684-1.8l-.185-.07l-.378-.129a1 1 0 0 1-.117-1.844l.117-.048l.378-.13a3 3 0 0 0 1.8-1.684l.07-.185l.129-.378A1 1 0 0 1 5 2m10.5 5a1.5 1.5 0 1 1 0 3a1.5 1.5 0 0 1 0-3M5 5.196A5 5 0 0 1 4.196 6q.448.355.804.804q.355-.448.804-.804A5 5 0 0 1 5 5.196" /></g></svg>