<svg xmlns="http://www.w3.org/2000/svg" viewBox="0 0 24 24" width="48" height="48"><g fill="none" fill-rule="evenodd"><path fill="currentColor" d="M18.615 4.212A1 1 0 0 1 19 5v2.101A7 7 0 0 1 20.71 10H21a1 1 0 0 1 1 1v3a1 1 0 0 1-.553.894l-1.456.729A7 7 0 0 1 18 17.745V19a1 1 0 0 1-1 1h-3a1 1 0 0 1-1-1h-1a1 1 0 0 1-1 1H8a1 1 0 0 1-1-1v-1.255a7 7 0 0 1-2.736-3.836A3 3 0 0 1 2 11v-.5a1 1 0 0 1 2 0v.5a1 1 0 0 0 .037.272A7 7 0 0 1 11 5h2.877l3.88-.97a1 1 0 0 1 .858.182M10 18a1 1 0 0 1 1-1h3a1 1 0 0 1 1 1h1v-.803a1 1 0 0 1 .5-.865a5.03 5.03 0 0 0 1.896-1.947a1 1 0 0 1 .431-.416L20 13.382V12h-.083a1 1 0 0 1-.986-.835a5 5 0 0 0-1.598-2.892A1 1 0 0 1 17 7.528V6.28l-2.758.69A1 1 0 0 1 14 7h-3a5 5 0 0 0-2.5 9.332a1 1 0 0 1 .5.865V18zm6-6a1 1 0 1 0 0-2a1 1 0 0 0 0 2" /></g></svg>