<svg xmlns="http://www.w3.org/2000/svg" viewBox="0 0 24 24" width="48" height="48"><g fill="none"><path fill="currentColor" d="M11.5 3a4.5 4.5 0 0 1 4.336 3.292l.052.205l1.87-.467a1 1 0 0 1 1.233.84L19 7v1.81a6.5 6.5 0 0 1 1.364 1.882l.138.308H21a1 1 0 0 1 .993.883L22 12v3a1 1 0 0 1-.445.832l-.108.062l-1.168.585a6.5 6.5 0 0 1-2.02 2.325l-.259.174V20a1 1 0 0 1-.883.993L17 21h-3a1 1 0 0 1-.993-.883L13 20h-1a1 1 0 0 1-.883.993L11 21H8a1 1 0 0 1-.993-.883L7 20v-1.022a6.5 6.5 0 0 1-2.854-4.101a3 3 0 0 1-2.14-2.693L2 12v-.5a1 1 0 0 1 1.993-.117L4 11.5v.5q.002.224.09.415a6.5 6.5 0 0 1 2.938-4.411A4.5 4.5 0 0 1 11.5 3M17 8.28l-2.758.69l-.12.023L14 9h-3.5a4.5 4.5 0 0 0-2.045 8.51a1 1 0 0 1 .537.766L9 18.4v.6h1a1 1 0 0 1 .883-.993L11 18h3a1 1 0 0 1 .993.883L15 19h1v-.6a1 1 0 0 1 .545-.89a4.52 4.52 0 0 0 2.068-2.18a1 1 0 0 1 .347-.417l.119-.07l.921-.461V13h-.207a1 1 0 0 1-.962-.728a4.5 4.5 0 0 0-1.468-2.244a1 1 0 0 1-.355-.644L17 9.257zM16 11a1 1 0 1 1 0 2a1 1 0 0 1 0-2m-4.5-6a2.5 2.5 0 0 0-2.478 2.169A6.5 6.5 0 0 1 10.5 7h3.377l.07-.017A2.5 2.5 0 0 0 11.5 5" /></g></svg>