<svg xmlns="http://www.w3.org/2000/svg" viewBox="0 0 24 24" width="48" height="48"><g fill="none"><path fill="currentColor" d="M12.555 2.168A1 1 0 0 1 13 3v2.807q.366-.048.732-.08c1.045-.095 2.505-.12 3.647.347c1.473.604 2.615 2.103 3.335 3.25c.46.73.876 1.493 1.209 2.29A1.002 1.002 0 0 1 21 13h-2.807q.048.365.08.732c.095 1.045.12 2.505-.348 3.647c-.603 1.473-2.102 2.615-3.249 3.335c-.731.46-1.493.876-2.29 1.209A1 1 0 0 1 11 21v-2.807a18 18 0 0 1-.732.08c-1.045.095-2.505.12-3.647-.348c-1.473-.603-2.615-2.103-3.335-3.249a15.7 15.7 0 0 1-1.209-2.291A1.002 1.002 0 0 1 3 11h2.807a18 18 0 0 1-.08-.733c-.095-1.044-.12-2.504.348-3.646c.603-1.473 2.102-2.616 3.249-3.336c.731-.46 1.493-.875 2.29-1.208a1 1 0 0 1 .94.09ZM12 11a1 1 0 1 0 0 2a1 1 0 0 0 0-2" /></g></svg>