<svg xmlns="http://www.w3.org/2000/svg" viewBox="0 0 24 24" width="48" height="48"><g fill="none" fill-rule="evenodd"><path fill="currentColor" d="M9.673 3.447a2 2 0 0 1 2.169-1.643l.148.02l3.94.695a2 2 0 0 1 1.642 2.169l-.02.148l-.174.984a1 1 0 0 1 .825 1.043l-.014.116l-.695 3.94a1 1 0 0 1-.231 1.982l-.116-.013l-.52 2.954a1 1 0 0 1-.233 1.983l-.116-.013l-.774 4.363a1 1 0 0 1-.865.818l-.12.007H6.397a1 1 0 0 1-.999-1.05l.014-.124l1.019-5.75a1 1 0 0 1 .232-1.984l.116.014l.52-2.955a1 1 0 0 1 .232-1.983l.116.014l.695-3.94a1 1 0 0 1 1.027-.825l.131.014l.174-.985ZM8.4 16.422L7.589 21H9.56l.402-2.277a1 1 0 1 1 1.97.347L11.59 21h2.09l.627-3.536zm.869-4.923l-.521 2.954l1.97.347l.173-.985a1 1 0 0 1 1.983.232l-.014.116l-.173.985l1.97.347l.52-2.954zm.868-4.924l-.521 2.954l1.97.347l.173-.985a1 1 0 0 1 1.97.348l-.174.985l1.97.347l.52-2.955zm1.505-2.781l-.173.985l3.94.694l.173-.985z" /></g></svg>