<svg xmlns="http://www.w3.org/2000/svg" viewBox="0 0 24 24" width="48" height="48"><g fill="none" fill-rule="evenodd"><path fill="currentColor" d="M6 2a4 4 0 0 0-4 4v12a4 4 0 0 0 4 4h12a4 4 0 0 0 4-4V6a4 4 0 0 0-4-4zm1.79 14.853a1 1 0 0 0 1.754.961a12 12 0 0 0 1.418-4.828h2.076a12 12 0 0 0 1.418 4.828a1 1 0 1 0 1.754-.961a10 10 0 0 1-1.165-3.868h.97a1 1 0 0 0 0-2h-.967a10 10 0 0 1 1.162-3.838a1 1 0 1 0-1.754-.961a12 12 0 0 0-1.415 4.8H10.96a12 12 0 0 0-1.416-4.8a1 1 0 1 0-1.754.961a10 10 0 0 1 1.162 3.839h-.937a1 1 0 1 0 0 2h.94a10 10 0 0 1-1.165 3.867" /></g></svg>