<svg xmlns="http://www.w3.org/2000/svg" viewBox="0 0 24 24" width="48" height="48"><g fill="none" fill-rule="evenodd"><path fill="currentColor" d="M11.5 3a1 1 0 0 1 .993.883L12.5 4v7.19l6.94-1.892a1 1 0 0 1 1.227.702A9.5 9.5 0 1 1 11.5 3m1 11a2.5 2.5 0 1 0 0 5a2.5 2.5 0 0 0 0-5m0 2a.5.5 0 1 1 0 1a.5.5 0 0 1 0-1m4.5-3a1 1 0 0 0-.993.883L16 14.01a1 1 0 0 0 1.993.117L18 14a1 1 0 0 0-1-1m-9.5-1a1.5 1.5 0 1 0 0 3a1.5 1.5 0 0 0 0-3m7.794-9.956a9.52 9.52 0 0 1 5.149 3.869a1 1 0 0 1-.258 1.365l-.101.063l-5.608 3.038A1 1 0 0 1 13 9.473l.012-.125l1-6.5a1 1 0 0 1 1.282-.804M8 8a1 1 0 0 0-.993.883L7 9.01a1 1 0 0 0 1.993.117L9 9a1 1 0 0 0-1-1m7.798-3.612l-.503 3.273l2.807-1.521a7.5 7.5 0 0 0-2.304-1.752" /></g></svg>