<svg xmlns="http://www.w3.org/2000/svg" viewBox="0 0 24 24" width="48" height="48"><g fill="none" fill-rule="evenodd"><path fill="currentColor" d="M20.989 12.446a9 9 0 0 1-13.1 7.563a28 28 0 0 0 2.813-1.129a50 50 0 0 0 4.048-2.117a50 50 0 0 0 3.858-2.448a28 28 0 0 0 2.381-1.869M11.999 3c2.226 0 4.263.808 5.834 2.146l.317-.072l.167-.034l.346-.064l.359-.054c1.275-.167 2.706-.072 3.37 1.078c.762 1.32-.058 2.784-.957 3.862l-.225.262l-.223.243c-1.394 1.478-3.703 3.201-6.987 5.097s-5.93 3.034-7.908 3.503l-.159.036l-.331.069l-.346.06c-1.347.205-2.918.133-3.649-1.132c-.663-1.15-.03-2.436.751-3.457l.226-.284l.115-.136l.227-.258l.22-.24A9 9 0 0 1 12 3ZM3.872 15.869l-.154.213c-.165.235-.347.525-.374.788v.128c.14.25.637.252 1.002.225l.304-.03a9 9 0 0 1-.778-1.325Zm16.785-8.867c-.202-.15-.533-.164-.834-.145l-.285.025q-.066.008-.124.013q.436.631.761 1.334l.161-.225c.189-.273.42-.662.357-.922L20.66 7l-.004.002Z" /></g></svg>