<svg xmlns="http://www.w3.org/2000/svg" viewBox="0 0 24 24" width="48" height="48"><g fill="none" fill-rule="evenodd"><path fill="currentColor" d="M12 3c2.225 0 4.263.808 5.833 2.146c.931-.22 1.785-.322 2.507-.26c.76.064 1.603.337 2.052 1.114c.407.704.352 1.49.076 2.204c-.272.702-.787 1.427-1.481 2.163l-.114.12a9 9 0 0 1-14.62 8.44l-.16.04c-.985.233-1.87.317-2.615.2c-.757-.118-1.465-.465-1.87-1.167c-.45-.777-.264-1.644.06-2.334c.308-.655.823-1.344 1.479-2.04A9 9 0 0 1 12 3M3.345 17.009c-.143-.709 1-1.75 1.406-2.167a1.53 1.53 0 0 0 .4-1.386a7 7 0 0 1 11.531-6.66a1.53 1.53 0 0 0 1.402.348c.563-.144 2.039-.613 2.581-.135c.336.704-.971 1.832-1.38 2.239l-.01.01c-1.236 1.23-3.281 2.746-6.275 4.474c-2.992 1.728-5.326 2.74-7.01 3.197l-.015.004c-.527.143-2.209.689-2.63.076m5.288 1.13c1.538-.614 3.33-1.499 5.367-2.675s3.698-2.284 4.998-3.31A7 7 0 0 1 8.633 18.14Z" /></g></svg>