<svg xmlns="http://www.w3.org/2000/svg" viewBox="0 0 24 24" width="48" height="48"><g fill="none"><path fill="currentColor" d="M10 18a2 2 0 1 1 0 4a2 2 0 0 1 0-4m2-16a3 3 0 0 1 .03 6h2.619l2.226-1.781a1 1 0 0 1 1.25 1.562l-2.5 2A1 1 0 0 1 15 10h-1.105q0 .096-.01.193l-.39 3.907l1.373 2.404c.04.083.08.163.102.254l.821 3.285a1 1 0 0 1-.29 1.957H15a1 1 0 0 1-.97-.758l-.967-3.865L11.705 15h-.723L9.63 16.689a1.5 1.5 0 0 1-2.232.123l-.43-.43a1 1 0 0 1-1.175-1.589l.576-.568a1 1 0 0 1 1.338.068l.71.709l1.117-1.397l.324-3.235l-.377.064l-.774.773a1 1 0 0 1-1.414-1.414l1-1c.161-.137.329-.244.543-.28l2.404-.4c.25-.088.493-.094.751-.112A3 3 0 0 1 9.001 5a3 3 0 0 1 3-3m0 2a1 1 0 1 0 0 2a1 1 0 0 0 0-2" /></g></svg>