<svg xmlns="http://www.w3.org/2000/svg" viewBox="0 0 24 24" width="48" height="48"><g fill="none" fill-rule="evenodd"><path fill="currentColor" d="M12 2c5.523 0 10 4.477 10 10s-4.477 10-10 10S2 17.523 2 12S6.477 2 12 2m0 2a8 8 0 1 0 0 16a8 8 0 0 0 0-16M8.964 8.65a1.192 1.192 0 0 1 1.654-.953l.325.143l.44.202l.349.169l.39.196l.43.223l.462.251l.494.28l.249.145l.469.282l.428.268l.564.368l.464.318l.455.328l.083.061c.635.477.64 1.429.001 1.909l-.283.209l-.393.276l-.496.335l-.387.25l-.43.27l-.473.283q-.123.073-.252.147l-.498.282l-.466.253l-.43.224l-.39.196l-.505.242l-.4.181l-.202.088a1.192 1.192 0 0 1-1.651-.954l-.054-.499l-.03-.334l-.042-.599l-.024-.46l-.018-.506l-.01-.549v-.579l.01-.548l.018-.506l.024-.46l.042-.599l.071-.73zm1.884 1.355l-.027.467l-.021.525l-.012.58v.618l.012.58l.02.525l.028.467l.416-.21l.226-.118l.488-.262l.53-.299l.522-.309l.242-.148l.444-.28l.39-.255l-.392-.257l-.444-.281l-.496-.3a30 30 0 0 0-.793-.453l-.488-.262l-.442-.227z" /></g></svg>