<svg xmlns="http://www.w3.org/2000/svg" viewBox="0 0 24 24" width="48" height="48"><g fill="none"><path fill="currentColor" d="M12 2c5.523 0 10 4.477 10 10s-4.477 10-10 10S2 17.523 2 12S6.477 2 12 2M8.964 8.65l-.053.5l-.03.333l-.042.6l-.024.46l-.018.505l-.01.549v.578l.01.549l.018.506l.024.46l.042.6l.071.73l.013.102a1.192 1.192 0 0 0 1.651.954l.456-.202l.651-.309l.39-.196l.43-.224l.466-.253l.498-.282l.493-.29l.231-.14l.43-.27l.388-.25l.342-.229l.653-.46l.177-.131a1.192 1.192 0 0 0-.001-1.908l-.406-.297l-.275-.193l-.32-.218l-.565-.368l-.428-.268l-.47-.282l-.499-.288l-.478-.265l-.447-.238l-.41-.21l-.54-.263l-.439-.202l-.23-.102l-.095-.04a1.192 1.192 0 0 0-1.654.952" /></g></svg>