<svg xmlns="http://www.w3.org/2000/svg" viewBox="0 0 24 24" width="48" height="48"><g fill="none" fill-rule="evenodd"><path fill="currentColor" d="M13.099 3a2.1 2.1 0 0 1 2.02 1.526l.038.161l1.451 7.255a2 2 0 0 0 1.318 1.502l.158.046l1.696.424a1.5 1.5 0 0 1 1.128 1.611l-.021.139l-.694 3.469A2 2 0 0 1 17.83 20.7l-.146-.036l-3.057-.874A5 5 0 0 1 12 17.983a5 5 0 0 1-2.38 1.73l-.246.077l-3.057.874a2 2 0 0 1-2.475-1.384l-.035-.147l-.694-3.47a1.5 1.5 0 0 1 .973-1.709l.134-.04l1.696-.424a2 2 0 0 0 1.437-1.388l.039-.16l1.45-7.255A2.1 2.1 0 0 1 12 3.31c.32-.196.696-.31 1.099-.31m4.707 12.482l-.655 2.95l1.081.309l.6-3.002zm-11.612 0l-1.026.257l.6 3.002l1.081-.31zM13.099 5a.1.1 0 0 0-.099.099v9.884a3 3 0 0 0 2.003 2.83l.221.068l.734-3.301a4 4 0 0 1-1.311-2.245l-1.45-7.255a.1.1 0 0 0-.098-.08m-2.198 0a.1.1 0 0 0-.097.08l-1.451 7.255a4 4 0 0 1-1.31 2.245l.733 3.301l.048-.014A3 3 0 0 0 11 14.983V5.099A.1.1 0 0 0 10.9 5Z" /></g></svg>