<svg xmlns="http://www.w3.org/2000/svg" viewBox="0 0 24 24" width="48" height="48"><g fill="none" fill-rule="evenodd"><path fill="currentColor" d="M13.196 5.22c.074-.187.17-.386.287-.58c.152-.254.307-.443.438-.556a.6.6 0 0 1 .118-.085A1 1 0 0 0 14 2c-.586 0-1.061.288-1.39.572c-.337.294-.62.667-.842 1.039c-.27.449-.504.984-.64 1.504c-.599.16-1.137.48-1.606.898c-.998-.723-2.176-1.11-3.411-.891c-1.673.294-2.865 1.59-3.526 3.17c-.667 1.59-.865 3.6-.501 5.663c.363 2.064 1.237 3.884 2.407 5.15c1.162 1.258 2.726 2.068 4.398 1.773a4 4 0 0 0 1.235-.437A3.5 3.5 0 0 0 12 21c.688 0 1.32-.21 1.877-.559c.379.21.792.36 1.234.437c1.672.295 3.236-.515 4.398-1.772c1.17-1.267 2.043-3.087 2.407-5.151s.166-4.073-.5-5.664c-.662-1.579-1.854-2.875-3.527-3.17c-1.235-.217-2.413.169-3.411.892a4.1 4.1 0 0 0-1.282-.794ZM9.704 7.135a1 1 0 0 1 .36 1.368C9.428 9.594 9 11.184 9 13c0 2.056.548 3.81 1.314 4.884a1 1 0 1 1-1.628 1.161C7.623 17.554 7 15.365 7 13c0-2.102.491-4.054 1.337-5.504a1 1 0 0 1 1.367-.36Zm4.592 0a1 1 0 0 1 1.367.36C16.51 8.946 17 10.898 17 13c0 2.365-.623 4.554-1.686 6.045a1 1 0 1 1-1.628-1.16C14.452 16.81 15 15.055 15 13c0-1.816-.428-3.405-1.064-4.496a1 1 0 0 1 .36-1.368Z" /></g></svg>