<svg xmlns="http://www.w3.org/2000/svg" viewBox="0 0 24 24" width="48" height="48"><g fill="none" fill-rule="evenodd"><path fill="currentColor" d="M12 2c1.89 0 3.657.524 5.165 1.435A3.5 3.5 0 0 0 17 4.5a2 2 0 0 0 1.644 1.968l-.003.11c0 .346.1.751.356 1.103a2 2 0 0 0 2.884 2.766q.118.76.119 1.553c0 5.523-4.477 10-10 10S2 17.523 2 12S6.477 2 12 2m2.684 10.551c-.508.17-1.036.396-1.576.666q-.415.208-.801.428l-.377.22c-.223.134-.389.24-.485.303a1 1 0 1 0 1.11 1.664l.294-.186l.11-.066c.327-.196.68-.392 1.044-.574c.46-.23.904-.42 1.313-.557a1 1 0 1 0-.632-1.898M9.5 9a1.5 1.5 0 1 0 0 3a1.5 1.5 0 0 0 0-3m5-2a1.5 1.5 0 1 0 0 3a1.5 1.5 0 0 0 0-3m6 1a1 1 0 1 1 0 2a1 1 0 0 1 0-2m0-6a2.5 2.5 0 0 1 1.546 4.464l-.568.47c-.327.262-.666.488-.978.488c-.625 0-.86-.49-.86-.844s.211-.734.385-.948c.254-.313.565-.564.784-.737A.5.5 0 1 0 20 4.5a1 1 0 1 1-2 0A2.5 2.5 0 0 1 20.5 2" /></g></svg>