<svg xmlns="http://www.w3.org/2000/svg" viewBox="0 0 24 24" width="48" height="48"><g fill="none"><path fill="currentColor" d="M6.342 19.161a1.5 1.5 0 0 1 2.037-.593a7.6 7.6 0 0 0 1.544.64a1.5 1.5 0 0 1-.835 2.881a10.6 10.6 0 0 1-2.154-.89a1.5 1.5 0 0 1-.592-2.038m9.286-.595a1.5 1.5 0 1 1 1.446 2.628a10.6 10.6 0 0 1-2.151.892a1.5 1.5 0 0 1-.838-2.88a7.6 7.6 0 0 0 1.543-.64M2.935 13.063a1.5 1.5 0 0 1 1.86 1.021a7.6 7.6 0 0 0 .64 1.543a1.5 1.5 0 0 1-2.628 1.447a10.6 10.6 0 0 1-.893-2.152a1.5 1.5 0 0 1 1.021-1.86m16.273 1.014a1.5 1.5 0 1 1 2.88.835a10.6 10.6 0 0 1-.89 2.154a1.5 1.5 0 0 1-2.629-1.445a7.6 7.6 0 0 0 .639-1.544M9.08 1.911a1.5 1.5 0 0 1 .833 2.882A7.52 7.52 0 0 0 4.792 9.92a1.5 1.5 0 1 1-2.883-.83A10.52 10.52 0 0 1 9.08 1.911m10.076 4.424a1.5 1.5 0 0 1 2.037.59a10.6 10.6 0 0 1 .893 2.152a1.5 1.5 0 0 1-2.881.838a7.6 7.6 0 0 0-.64-1.543a1.5 1.5 0 0 1 .591-2.037m-6.101-3.401a1.5 1.5 0 0 1 1.858-1.023a10.6 10.6 0 0 1 2.152.89a1.5 1.5 0 1 1-1.444 2.63a7.6 7.6 0 0 0-1.543-.639a1.5 1.5 0 0 1-1.023-1.858" /></g></svg>