<svg xmlns="http://www.w3.org/2000/svg" viewBox="0 0 24 24" width="48" height="48"><g fill="none"><path fill="currentColor" d="M6.483 19.184a1 1 0 0 1 1.373-.34a8 8 0 0 0 2.234.926a1 1 0 0 1-.48 1.942a10 10 0 0 1-2.787-1.155a1 1 0 0 1-.34-1.373m9.66-.34a1 1 0 0 1 1.035 1.713a10 10 0 0 1-2.789 1.155a1 1 0 1 1-.48-1.942a8 8 0 0 0 2.235-.926M3.02 13.18a1 1 0 0 1 1.21.73a8 8 0 0 0 .927 2.235a1 1 0 0 1-1.713 1.034a10 10 0 0 1-1.155-2.789a1 1 0 0 1 .73-1.21m16.75.73a1 1 0 0 1 1.942.48a10 10 0 0 1-1.154 2.79a1 1 0 0 1-1.713-1.035a8 8 0 0 0 .926-2.234M9.614 2.288a1 1 0 0 1 .475 1.943a8.01 8.01 0 0 0-5.858 5.858a1 1 0 0 1-1.944-.475a10.02 10.02 0 0 1 7.327-7.326m9.57 4.196a1 1 0 0 1 1.374.34a10 10 0 0 1 1.154 2.788a1 1 0 0 1-1.941.48a8 8 0 0 0-.926-2.235a1 1 0 0 1 .34-1.373M13.18 3.02a1 1 0 0 1 1.211-.73a10 10 0 0 1 2.79 1.155a1 1 0 0 1-1.035 1.712a8 8 0 0 0-2.234-.926a1 1 0 0 1-.732-1.21" /></g></svg>