<svg xmlns="http://www.w3.org/2000/svg" viewBox="0 0 24 24" width="48" height="48"><g fill="none"><path fill="currentColor" d="M20.262 2.434a1 1 0 0 1 .944.454c.991 1.49.747 3.71-.467 5.007a1 1 0 0 1-.03.37a16 16 0 0 1-.75 2.135c-.551 1.263-1.328 2.54-2.423 3.636c-2.05 2.05-4.742 2.991-6.844 3.43a19 19 0 0 1-1.491.25l-.52.06l-.466.041q-.219.016-.406.027l-.101.83l-.064.593l-.027.29L7.5 21c-.047.54-.448 1-1 1a1 1 0 0 1-1-1c0-.156.009-.35.023-.57l.037-.467l.048-.505l.085-.77l.028-.248c.205-1.732.446-3.427.987-5.09c.625-1.92 1.75-4.379 3.756-6.386c1.574-1.573 3.433-2.61 5.107-3.29l.452-.176l.44-.16q.108-.038.215-.073l.42-.136l.402-.12l.568-.155l.519-.126l.315-.069l.546-.105l.577-.091zM5 1a1 1 0 0 1 .898.56l.048.117l.13.378a3 3 0 0 0 1.684 1.8l.185.07l.378.129a1 1 0 0 1 .117 1.844l-.117.048l-.378.13a3 3 0 0 0-1.8 1.684l-.07.185l-.129.378a1 1 0 0 1-1.844.117l-.048-.117l-.13-.378a3 3 0 0 0-1.684-1.8l-.185-.07l-.378-.129a1 1 0 0 1-.117-1.844l.117-.048l.378-.13a3 3 0 0 0 1.8-1.684l.07-.185l.129-.378A1 1 0 0 1 5 1" /></g></svg>