<svg xmlns="http://www.w3.org/2000/svg" viewBox="0 0 24 24" width="48" height="48"><g fill="none" fill-rule="evenodd"><path fill="currentColor" d="M6.81 17.844c-.032.247-.273 2.729-.31 3.156c-.047.54-.448 1-1 1a1 1 0 0 1-1-1c0-.571.116-1.67.221-2.56c.205-1.732.446-3.427.987-5.09c.625-1.92 1.75-4.379 3.757-6.386c3.934-3.934 9.652-4.515 9.797-4.53a1 1 0 0 1 .944.454c.991 1.49.747 3.71-.467 5.007a1 1 0 0 1-.03.37a16 16 0 0 1-.75 2.135c-.551 1.263-1.328 2.54-2.423 3.636c-2.05 2.05-4.742 2.991-6.844 3.43a19.4 19.4 0 0 1-2.883.378Z" /></g></svg>