<svg xmlns="http://www.w3.org/2000/svg" viewBox="0 0 24 24" width="48" height="48"><g fill="none"><path fill="currentColor" d="M16.868 18.983a1 1 0 0 1 .707 1.225l-.259.966a1 1 0 0 1-1.932-.518l.26-.966a1 1 0 0 1 1.224-.707m-7 0a1 1 0 0 1 .707 1.225l-.259.966a1 1 0 0 1-1.932-.518l.26-.966a1 1 0 0 1 1.224-.707m4.15-2.415a1 1 0 0 1 .73 1.11l-.023.115l-.518 1.932a1 1 0 0 1-1.955-.404l.023-.114l.518-1.932a1 1 0 0 1 1.225-.707m-7 0a1 1 0 0 1 .707 1.225l-.518 1.932a1 1 0 1 1-1.932-.518l.518-1.932a1 1 0 0 1 1.225-.707m3.885-1.449a1 1 0 0 1 .707 1.225l-.258.966a1 1 0 0 1-1.932-.518l.258-.966a1 1 0 0 1 1.225-.707m7 0a1 1 0 0 1 .707 1.225l-.258.966a1 1 0 0 1-1.932-.518l.258-.966a1 1 0 0 1 1.225-.707M11.5 2a6.5 6.5 0 0 1 6.086 4.212a6.002 6.002 0 0 1 3.214 9.389a1 1 0 0 1-1.6-1.202a4 4 0 0 0-2.545-6.346a1.01 1.01 0 0 1-.81-.732A4.5 4.5 0 0 0 7.027 9a1.01 1.01 0 0 1-.76 1.09a3.002 3.002 0 0 0-1.97 4.216l.103.193a1 1 0 1 1-1.731 1.002A5 5 0 0 1 5 8.416A6.5 6.5 0 0 1 11.5 2" /></g></svg>