<svg xmlns="http://www.w3.org/2000/svg" viewBox="0 0 24 24" width="48" height="48"><g fill="none"><path fill="currentColor" d="M4.222 11.293a1 1 0 0 0-1.414 1.414l1.414 1.414a3 3 0 0 0 4.242 0L10.586 12l7.778 7.778a1 1 0 0 0 1.414-1.414L12 10.586l.706-.707h.002l1.413-1.415a3 3 0 0 0 0-4.242l-1.414-1.414a1 1 0 1 0-1.414 1.414l1.414 1.414a1 1 0 0 1 0 1.414L12 7.757l-2.122-2.12A1 1 0 1 0 8.464 7.05l2.122 2.122l-1.414 1.413l-2.122-2.12a1 1 0 0 0-1.414 1.413L7.757 12l-.707.707a1 1 0 0 1-1.414 0z" /></g></svg>