<svg xmlns="http://www.w3.org/2000/svg" viewBox="0 0 24 24" width="48" height="48"><g fill="none"><path fill="currentColor" d="M3 9.5A1.5 1.5 0 0 1 4.5 11a5.5 5.5 0 0 0 5.279 5.496L10 16.5h2.382a1.5 1.5 0 0 1 2.065-2.164l.114.103l2.525 2.526a1.495 1.495 0 0 1 .07 1.99l-.097.108l-2.498 2.498a1.5 1.5 0 0 1-2.272-1.947l.093-.114H10A8.5 8.5 0 0 1 1.5 11A1.5 1.5 0 0 1 3 9.5M19 7a1 1 0 0 1 .898.56l.048.117l.13.378a3 3 0 0 0 1.684 1.8l.185.07l.378.129a1 1 0 0 1 .118 1.844l-.118.048l-.378.13a3 3 0 0 0-1.8 1.684l-.07.185l-.129.378a1 1 0 0 1-1.844.118l-.048-.118l-.13-.378a3 3 0 0 0-1.684-1.8l-.185-.07l-.378-.129a1 1 0 0 1-.118-1.844l.118-.048l.378-.13a3 3 0 0 0 1.8-1.684l.07-.185l.129-.378A1 1 0 0 1 19 7M7.44 2.44a1.5 1.5 0 0 1 2.27 1.946l-.092.114H12a8.46 8.46 0 0 1 4.787 1.475a3 3 0 0 0-.551.86l-.075.196l-.13.378a1 1 0 0 1-.516.58l-.106.043l-.379.129a3 3 0 0 0-.244.096a5.5 5.5 0 0 0-2.483-.749L12 7.5H9.618a1.5 1.5 0 0 1-2.065 2.164L7.44 9.56l-2.5-2.5a1.5 1.5 0 0 1-.103-2.008l.103-.114z" /></g></svg>