<svg xmlns="http://www.w3.org/2000/svg" viewBox="0 0 24 24" width="48" height="48"><g fill="none"><path fill="currentColor" d="M4 9a1 1 0 0 1 1 1v1a6 6 0 0 0 6 6h3.586l-.793-.793a1 1 0 0 1 1.414-1.414l2.5 2.5a1 1 0 0 1 .281.555l.012.162a1 1 0 0 1-.297.701l-2.496 2.496a1 1 0 0 1-1.414-1.414l.793-.793H11a8 8 0 0 1-8-8v-1a1 1 0 0 1 1-1m15-2a1 1 0 0 1 .898.56l.048.117l.13.378a3 3 0 0 0 1.684 1.8l.185.07l.378.129a1 1 0 0 1 .118 1.844l-.118.048l-.378.13a3 3 0 0 0-1.8 1.684l-.07.185l-.129.378a1 1 0 0 1-1.844.118l-.048-.118l-.13-.378a3 3 0 0 0-1.684-1.8l-.185-.07l-.378-.129a1 1 0 0 1-.118-1.844l.118-.048l.378-.13a3 3 0 0 0 1.8-1.684l.07-.185l.129-.378A1 1 0 0 1 19 7m0 3.196a5 5 0 0 1-.804.804q.448.355.804.804q.355-.449.804-.804a5 5 0 0 1-.804-.804m-8.793-7.403a1 1 0 0 1 0 1.414L9.414 5H13c1.225 0 2.389.276 3.43.77a1 1 0 0 1-.86 1.807A6 6 0 0 0 13 7H9.414l.793.793a1 1 0 0 1-1.414 1.414l-2.5-2.5a1 1 0 0 1 0-1.414l2.5-2.5a1 1 0 0 1 1.414 0" /></g></svg>