<svg xmlns="http://www.w3.org/2000/svg" viewBox="0 0 24 24" width="48" height="48"><g fill="none"><path fill="currentColor" d="M15.947 3.066c.027-.346.352-.557.631-.41l.306.164l.36.203l.198.117l.43.263l.229.147l.463.31l.21.147l.377.273l.315.24l.133.104c.236.188.225.566-.023.762l-.28.217l-.34.252l-.4.282l-.456.305l-.462.291l-.416.249l-.365.205l-.307.165c-.275.143-.572-.036-.598-.36l-.025-.347l-.024-.415l-.01-.23H7a2 2 0 0 0-1.995 1.85L5 8v8a2 2 0 0 0 1.85 1.995L7 18h10a2 2 0 0 0 1.995-1.85L19 16v-5a1 1 0 0 1 1.993-.117L21 11v5a4 4 0 0 1-3.8 3.995L17 20H7a4 4 0 0 1-3.995-3.8L3 16V8a4 4 0 0 1 3.8-3.995L7 4h8.893l.02-.415l.022-.36zM13 10.019V15a1 1 0 1 1-2 0v-3.134a1 1 0 0 1-1.055-1.698l1.485-.99a1.01 1.01 0 0 1 1.57.84Z" /></g></svg>