<svg xmlns="http://www.w3.org/2000/svg" viewBox="0 0 24 24" width="48" height="48"><g fill="none"><path fill="currentColor" d="M15.471 3.048c.056-.719.749-1.17 1.331-.865l.314.168l.368.209q.1.056.203.119l.439.269a21 21 0 0 1 .922.617l.385.28l.323.245l.137.107c.489.39.47 1.195-.05 1.606l-.136.107l-.32.242l-.38.275a22 22 0 0 1-1.152.758l-.426.255l-.375.211l-.316.17c-.577.3-1.207-.085-1.261-.756l-.04-.565H7a1.5 1.5 0 0 0-1.493 1.356L5.5 8v8a1.5 1.5 0 0 0 1.356 1.493L7 17.5h10a1.5 1.5 0 0 0 1.493-1.356L18.5 16v-5a1.5 1.5 0 0 1 2.993-.144L21.5 11v5a4.5 4.5 0 0 1-4.288 4.495L17 20.5H7a4.5 4.5 0 0 1-4.495-4.288L2.5 16V8a4.5 4.5 0 0 1 4.288-4.495L7 3.5h8.44zm-1.971 6.97V15a1.5 1.5 0 0 1-3 0v-2.5a1.5 1.5 0 0 1-.832-2.748l1.484-.99c1.004-.669 2.348.05 2.348 1.257Z" /></g></svg>