<svg xmlns="http://www.w3.org/2000/svg" viewBox="0 0 24 24" width="48" height="48"><g fill="none"><path fill="currentColor" d="M20 9.5a1.5 1.5 0 0 1 1.493 1.356L21.5 11v4a4.5 4.5 0 0 1-4.288 4.495L17 19.5H8.56l-.02.312l-.011.14c-.056.719-.749 1.17-1.331.865l-.314-.168l-.368-.209l-.203-.119l-.439-.269a21 21 0 0 1-.922-.617l-.385-.28l-.323-.245l-.137-.107c-.489-.39-.47-1.195.05-1.606l.136-.107l.32-.242l.38-.275l.438-.301a22 22 0 0 1 .714-.457l.426-.255l.375-.211l.316-.17c.577-.3 1.207.085 1.262.756l.038.565H17a1.5 1.5 0 0 0 1.493-1.356L18.5 15v-4A1.5 1.5 0 0 1 20 9.5m-3.198-6.317l.314.168l.368.209q.1.056.203.119l.439.269a21 21 0 0 1 .922.617l.385.28l.323.245l.137.107c.489.39.47 1.195-.05 1.606l-.136.107l-.32.242l-.38.275a22 22 0 0 1-1.152.758l-.426.255l-.375.211l-.316.17c-.577.3-1.207-.085-1.261-.756l-.04-.565H7A1.5 1.5 0 0 0 5.5 9v4a1.5 1.5 0 0 1-3 0V9A4.5 4.5 0 0 1 7 4.5h8.44l.031-.452c.056-.719.749-1.17 1.331-.865" /></g></svg>