<svg xmlns="http://www.w3.org/2000/svg" viewBox="0 0 24 24" width="48" height="48"><g fill="none"><path fill="currentColor" d="M18.541 1a1 1 0 0 1 .952.884L20 6.209a1 1 0 0 1-1.771.745A8 8 0 1 0 20 11.996a1 1 0 1 1 2 .002c-.007 4.567-3.16 8.686-7.804 9.733c-5.388 1.214-10.74-2.17-11.954-7.557S4.412 3.434 9.8 2.22a9.97 9.97 0 0 1 7.394 1.211l.327-1.628a1 1 0 0 1 1.021-.802m-4.778 6.5a1 1 0 1 1 0 2h-2.5v.696c.235-.043.489-.07.75-.07c1.896 0 3.188 1.458 3.188 3.187a3.188 3.188 0 0 1-6.11 1.275a1 1 0 0 1 1.78-.905l.053.104a1.188 1.188 0 0 0 2.277-.474c0-.688-.459-1.188-1.188-1.188a3 3 0 0 0-.887.168l-.208.075l-.203.087a1 1 0 0 1-1.452-.892V8.938c0-.794.644-1.438 1.438-1.438z" /></g></svg>