<svg xmlns="http://www.w3.org/2000/svg" viewBox="0 0 24 24" width="48" height="48"><g fill="none"><path fill="currentColor" d="M18.541 1a1 1 0 0 1 .933.773l.02.11l.505 4.326a1 1 0 0 1-1.771.745A8 8 0 1 0 20 11.996a1 1 0 1 1 2 .002c-.007 4.567-3.16 8.686-7.804 9.733c-5.388 1.214-10.74-2.17-11.954-7.557S4.412 3.434 9.8 2.22a9.96 9.96 0 0 1 7.112 1.046l.282.165l.327-1.628a1 1 0 0 1 1.021-.802m-3.54 6.5a2.5 2.5 0 0 1 2.5 2.5v4a2.5 2.5 0 0 1-5 0v-4A2.5 2.5 0 0 1 15 7.5m-6.222 0a2.72 2.72 0 0 1 2.073 4.484a2.7 2.7 0 0 1-1.88 4.448l-.171.006h-.3a2.3 2.3 0 0 1-2.04-1.243l-.073-.156l-.093-.22a1 1 0 0 1 1.789-.887l.052.105l.094.221c.037.087.112.15.202.171l.069.009h.3a.7.7 0 0 0 .555-1.125l-.077-.086l-.062-.057a.64.64 0 0 0-.336-.163L8.786 13a1 1 0 0 1-.117-1.993L8.786 11a.56.56 0 0 0 .328-.106l.067-.057l.106-.105a.72.72 0 0 0-.41-1.225L8.78 9.5H8.5a.3.3 0 0 0-.237.12l-.034.06l-.094.22a1 1 0 0 1-1.88-.67l.039-.11l.094-.221a2.3 2.3 0 0 1 1.94-1.392L8.5 7.5zM15 9.5a.5.5 0 0 0-.5.5v4a.5.5 0 0 0 1 0v-4a.5.5 0 0 0-.5-.5" /></g></svg>