<svg xmlns="http://www.w3.org/2000/svg" viewBox="0 0 24 24" width="48" height="48"><g fill="none"><path fill="currentColor" d="m17.56 1.44l2.484 2.482c.95.952.277 2.578-1.068 2.578H6A1.5 1.5 0 0 0 4.5 8v8A1.5 1.5 0 0 0 6 17.5h12a1.5 1.5 0 0 0 1.5-1.5v-5a1.5 1.5 0 0 1 3 0v5a4.5 4.5 0 0 1-4.5 4.5H6A4.5 4.5 0 0 1 1.5 16V8A4.5 4.5 0 0 1 6 3.5h9.323l-.165-.33a1.5 1.5 0 0 1 2.403-1.73m-1.987 5.558a1.5 1.5 0 0 1 0 3h-1.565v.178h.032c2.025 0 3.416 1.577 3.416 3.416a3.416 3.416 0 0 1-3.416 3.416c-.44 0-.905-.103-1.282-.225c-.361-.117-.836-.315-1.213-.626a1.5 1.5 0 0 1 1.889-2.331l.063.031l.117.048l.142.046l.137.032l.147.025c.23 0 .416-.186.416-.416a.44.44 0 0 0-.105-.312c-.042-.043-.126-.104-.31-.104l-1.533.004a1.5 1.5 0 0 1-1.5-1.5V8.898c0-1.05.85-1.9 1.9-1.9zm-7.905.254A1.5 1.5 0 0 1 9.992 8.35L10 8.5v7a1.5 1.5 0 0 1-2.993.144L7 15.5V11a1.499 1.499 0 0 1-.949-2.662l.117-.086z" /></g></svg>