<svg xmlns="http://www.w3.org/2000/svg" viewBox="0 0 24 24" width="48" height="48"><g fill="none"><path fill="currentColor" d="M5.825 4.134a2 2 0 0 1 2.45-1.414l11.591 3.105a2 2 0 0 1 1.414 2.45l-3.105 11.591a2 2 0 0 1-2.45 1.414L4.133 18.175a2 2 0 0 1-1.414-2.45zM4.651 16.243l11.592 3.105l3.105-11.59L7.758 4.65zm5.081-8.17a1 1 0 0 1 .759-.1l4.83 1.293a1 1 0 0 1 .707 1.225l-1.295 4.83a1 1 0 0 1-1.224.707l-4.83-1.295a1 1 0 0 1-.707-1.224l1.294-4.83l.03-.094a1 1 0 0 1 .436-.513m.43 4.987l2.898.777l.777-2.898l-2.898-.776z" /></g></svg>