<svg xmlns="http://www.w3.org/2000/svg" viewBox="0 0 24 24" width="48" height="48"><g fill="none" fill-rule="evenodd"><path fill="currentColor" d="M19.374 3.292a1.1 1.1 0 0 1 1.334 1.334l-1.105 4.42a5 5 0 0 1-1.315 2.323l-4.581 4.58v2.208a1.5 1.5 0 0 1-.44 1.06l-1.729 1.73a1.254 1.254 0 0 1-1.995-.3a25 25 0 0 0-1.342-2.25a2 2 0 0 1-.444.674c-.78.781-4.066 1.591-4.242 1.414c-.177-.176.633-3.461 1.414-4.242c.198-.199.428-.347.673-.444a25 25 0 0 0-2.249-1.342a1.254 1.254 0 0 1-.3-1.995l1.73-1.73a1.5 1.5 0 0 1 1.06-.44H8.05l4.58-4.58a5 5 0 0 1 2.324-1.315zm-1.997 5.994a6.3 6.3 0 0 0-1.134-1.528a6.3 6.3 0 0 0-1.529-1.135a3 3 0 0 0-.67.504l-.985.986c.398.1 1.07.36 1.77 1.059c.699.699.958 1.37 1.058 1.769l.986-.986q.3-.301.504-.67Z" /></g></svg>