<svg xmlns="http://www.w3.org/2000/svg" viewBox="0 0 24 24" width="48" height="48"><g fill="none" fill-rule="evenodd"><path fill="currentColor" d="m17.668 11.989l.62-.62a5 5 0 0 0 1.315-2.323l1.105-4.42a1.1 1.1 0 0 0-1.334-1.334l-4.42 1.105a5 5 0 0 0-2.323 1.315l-4.58 4.58H5.842a1.5 1.5 0 0 0-1.06.44l-1.73 1.73a1.254 1.254 0 0 0 .3 1.995c.482.255 1.388.758 2.25 1.342a2 2 0 0 0-.674.444c-.781.78-1.591 4.066-1.414 4.242c.176.177 3.461-.633 4.242-1.414c.199-.198.347-.428.444-.673c.584.86 1.087 1.767 1.342 2.249a1.254 1.254 0 0 0 1.995.3l1.73-1.73a1.5 1.5 0 0 0 .439-1.06V15.95l3.938-3.938zm.736-6.393l-2.965.742q-.383.096-.725.285a6.3 6.3 0 0 1 1.529 1.135a6.3 6.3 0 0 1 1.134 1.528a3 3 0 0 0 .285-.725zm-2.517 5.345c-.1-.398-.36-1.07-1.059-1.77c-.699-.699-1.371-.958-1.77-1.058l-3.74 3.74a1.5 1.5 0 0 1-1.06.44H6.05l-.882.882c.984.566 2.383 1.448 3.296 2.36c.913.913 1.795 2.313 2.361 3.297l.882-.882v-2.207c0-.398.158-.78.44-1.061z" /></g></svg>