<svg xmlns="http://www.w3.org/2000/svg" viewBox="0 0 24 24" width="48" height="48"><g fill="none"><path fill="currentColor" d="M14.46 1.916c.879.064 1.794.306 2.485.8c.726.519 1.234 1.358 1.043 2.424l.003.001l-.435 3.04A5.61 5.61 0 0 1 13 12.91v2.364c.283-.207.577-.403.852-.562c.534-.308 1.223-.61 1.807-.804c.288-.096.595-.179.868-.215c.515-.069 1.063.061 1.342.545c.28.483.12 1.024-.198 1.436a5 5 0 0 1-.621.643c-.46.41-1.066.854-1.6 1.163c-.535.309-1.224.61-1.808.805c-.211.07-.432.133-.642.177V21a1 1 0 0 1-2 0v-.76c-.385-.76-.695-1.297-1.119-1.635a3.5 3.5 0 0 1-1.086.15c-.705-.008-1.517-.187-2.13-.54s-1.173-.969-1.533-1.576c-.409-.69-.679-1.593-.248-2.34s1.348-.964 2.15-.955c.706.008 1.518.187 2.131.54s1.173.969 1.533 1.576c.116.196.22.412.302.638V12.91a5.61 5.61 0 0 1-4.555-4.73L6.01 5.14a2.4 2.4 0 0 1-.012-.623c.039-.358.17-.854.562-1.302c.815-.93 2.31-1.209 4.635-.696q.272-.14.55-.244c.856-.317 1.823-.426 2.715-.36" /></g></svg>