<svg xmlns="http://www.w3.org/2000/svg" viewBox="0 0 24 24" width="48" height="48"><g fill="none"><path fill="currentColor" d="M5.631 7.23a1.5 1.5 0 0 1 1.967-.446l.122.077l1.566 1.097a1.497 1.497 0 0 1 .5 2.048l-.078.118l-1.128 1.612a1.5 1.5 0 0 1-2.648-.373a7 7 0 0 0-.73.305a3.3 3.3 0 0 0-.553.332c.27.209.746.46 1.461.698c1.439.48 3.521.802 5.89.802s4.451-.322 5.89-.802c.716-.239 1.193-.49 1.462-.7l-.135-.095a4 4 0 0 0-.305-.178c-.686-.36-1.764-.702-3.157-.933a1.5 1.5 0 0 1 .49-2.96c1.57.26 2.992.674 4.066 1.24c.946.498 2.189 1.427 2.189 2.928c0 1.07-.652 1.852-1.279 2.346c-.643.507-1.481.898-2.383 1.198c-1.819.607-4.236.956-6.838.956s-5.02-.35-6.838-.956c-.902-.3-1.74-.691-2.383-1.198C2.152 13.852 1.5 13.07 1.5 12c0-.8.371-1.448.808-1.916c.43-.46.986-.82 1.567-1.107c.451-.223.96-.421 1.514-.595A1.5 1.5 0 0 1 5.63 7.23ZM12 3.5a1.5 1.5 0 0 1 1.493 1.356L13.5 5v7h-3V5A1.5 1.5 0 0 1 12 3.5M10.5 18v1a1.5 1.5 0 0 0 3 0v-1z" /></g></svg>