<svg xmlns="http://www.w3.org/2000/svg" viewBox="0 0 24 24" width="48" height="48"><g fill="none"><path fill="currentColor" d="M12 1.5c1.07 0 1.852.652 2.346 1.279c.507.643.898 1.481 1.198 2.383c.607 1.819.956 4.236.956 6.838s-.35 5.02-.956 6.838c-.3.902-.691 1.74-1.198 2.383c-.494.627-1.275 1.279-2.346 1.279c-1.501 0-2.43-1.243-2.929-2.19c-.565-1.073-.979-2.495-1.239-4.065a1.5 1.5 0 1 1 2.96-.49c.23 1.393.572 2.471.933 3.157q.099.186.178.305l.096.136c.209-.27.46-.747.7-1.463c.479-1.439.801-3.521.801-5.89s-.322-4.451-.802-5.89c-.238-.715-.49-1.191-.698-1.461c-.093.12-.207.3-.332.553a7 7 0 0 0-.305.73a1.5 1.5 0 0 1 .373 2.647l-1.611 1.13a1.5 1.5 0 0 1-1.099.276a1.5 1.5 0 0 1-.987-.58L6.86 7.72a1.5 1.5 0 0 1 1.522-2.33c.174-.554.372-1.063.595-1.514c.286-.58.647-1.137 1.107-1.567C10.552 1.871 11.2 1.5 12 1.5m0 9v3H5a1.5 1.5 0 0 1 0-3zm6 0h1a1.5 1.5 0 0 1 0 3h-1z" /></g></svg>