<svg xmlns="http://www.w3.org/2000/svg" viewBox="0 0 24 24" width="48" height="48"><g fill="none"><path fill="currentColor" d="m7.433 7.271l1.58 1.106a1 1 0 0 1 .29 1.455L8.17 11.45a1 1 0 0 1-1.803-.75a8.6 8.6 0 0 0-1.387.52c-.422.208-.692.408-.844.571c-.188.201-.09.352.074.497l.116.095c.33.26.87.539 1.626.79C7.454 13.674 9.592 14 12 14s4.546-.327 6.048-.827c.756-.252 1.296-.53 1.626-.79l.124-.101c.157-.135.258-.275.088-.468c-.13-.148-.365-.333-.74-.53c-.751-.396-1.887-.75-3.31-.985a1 1 0 1 1 .327-1.974c1.541.256 2.906.657 3.914 1.189C21.002 10 22 10.803 22 12c0 .852-.519 1.505-1.088 1.953c-.581.458-1.36.826-2.232 1.117c-1.755.585-4.117.93-6.68.93s-4.925-.345-6.68-.93c-.873-.29-1.651-.66-2.232-1.117C2.518 13.505 2 12.853 2 12c0-.636.295-1.168.674-1.575c.374-.4.873-.729 1.422-1c.565-.278 1.232-.52 1.974-.72A1 1 0 0 1 7.433 7.27ZM12 4a1 1 0 0 1 1 1v8h-2V5a1 1 0 0 1 1-1m-1 15v-2h2v2a1 1 0 1 1-2 0" /></g></svg>