<svg xmlns="http://www.w3.org/2000/svg" viewBox="0 0 24 24" width="48" height="48"><g fill="none"><path fill="currentColor" d="M12 9a1 1 0 0 1 1 1v4h6a2 2 0 0 1 2 2v3a2 2 0 0 1-2 2H5a2 2 0 0 1-2-2v-3a2 2 0 0 1 2-2h6v-4a1 1 0 0 1 1-1M6.662 3.959A1 1 0 0 1 6.75 5.37A6.97 6.97 0 0 0 5 10q0 .446.054.876a1 1 0 0 1-1.984.248A9 9 0 0 1 3 10a8.97 8.97 0 0 1 2.25-5.953a1 1 0 0 1 1.412-.088m12.088.088A8.97 8.97 0 0 1 21 10q0 .57-.07 1.124a1 1 0 1 1-1.984-.248q.053-.43.054-.876a6.97 6.97 0 0 0-1.75-4.63a1 1 0 1 1 1.5-1.323M9.662 6.604a1 1 0 0 1 .088 1.412a3 3 0 0 0-.727 2.36a1 1 0 0 1-1.984.248A5 5 0 0 1 8.25 6.693a1 1 0 0 1 1.41-.089Zm6.088.088a4.98 4.98 0 0 1 1.211 3.932a1 1 0 0 1-1.984-.248a3 3 0 0 0-.726-2.36a1 1 0 1 1 1.499-1.324" /></g></svg>