<svg xmlns="http://www.w3.org/2000/svg" viewBox="0 0 24 24" width="48" height="48"><g fill="none" fill-rule="evenodd"><path fill="currentColor" d="M18 3a3 3 0 0 1 2.995 2.824L21 6v12a3 3 0 0 1-2.824 2.995L18 21H6a3 3 0 0 1-2.995-2.824L3 18V6a3 3 0 0 1 2.824-2.995L6 3zM8.5 14a1.5 1.5 0 1 0 0 3a1.5 1.5 0 0 0 0-3M8 10.5a1 1 0 1 0 0 2a3.5 3.5 0 0 1 3.5 3.5a1 1 0 1 0 2 0A5.5 5.5 0 0 0 8 10.5M8.5 7q-.285 0-.566.019a1 1 0 0 0 .132 1.995a6.5 6.5 0 0 1 6.92 6.92a1 1 0 1 0 1.995.132A8.5 8.5 0 0 0 8.5 7" /></g></svg>