<svg xmlns="http://www.w3.org/2000/svg" viewBox="0 0 24 24" width="48" height="48"><g fill="none" fill-rule="evenodd"><path fill="currentColor" d="M12 2a1 1 0 0 1 .993.883L13 3v1.062a7.96 7.96 0 0 1 3.646 1.425l.26.193l.75-.751a1 1 0 0 1 1.498 1.32l-.083.094l-.751.751a7.96 7.96 0 0 1 1.57 3.571l.048.335H21a1 1 0 0 1 .117 1.993L21 13h-1.062a7.96 7.96 0 0 1-1.425 3.646l-.193.26l.751.75a1 1 0 0 1-1.32 1.498l-.094-.083l-.751-.751a7.96 7.96 0 0 1-3.571 1.57l-.335.048V21a1 1 0 0 1-1.993.117L11 21v-1.062a7.96 7.96 0 0 1-3.646-1.425l-.26-.193l-.75.751a1 1 0 0 1-1.498-1.32l.083-.094l.751-.751a7.96 7.96 0 0 1-1.57-3.571L4.063 13H3a1 1 0 0 1-.117-1.993L3 11h1.062a7.96 7.96 0 0 1 1.425-3.646l.193-.26l-.751-.75a1 1 0 0 1 1.32-1.498l.094.083l.751.751a7.96 7.96 0 0 1 3.571-1.57L11 4.063V3a1 1 0 0 1 1-1m-1.293 12.708L8.523 16.89A6 6 0 0 0 11 17.917v-3.088a3 3 0 0 1-.293-.121m2.586 0l-.144.064l-.149.057v3.088a6 6 0 0 0 2.231-.86l.246-.166zM9.171 13H6.083a6 6 0 0 0 1.026 2.477l2.183-2.184A3 3 0 0 1 9.171 13m8.746 0h-3.088q-.053.15-.121.293l2.183 2.184A6 6 0 0 0 17.917 13m-1.026-4.477l-2.183 2.184l.064.144l.057.149h3.088a6 6 0 0 0-.86-2.231zm-9.782 0A6 6 0 0 0 6.083 11h3.088q.053-.15.121-.293L7.11 8.523ZM13 6.083v3.088q.15.053.293.121l2.184-2.183A6 6 0 0 0 13 6.083m-2 0a6 6 0 0 0-2.477 1.026l2.184 2.183q.143-.068.293-.121z" /></g></svg>