<svg xmlns="http://www.w3.org/2000/svg" viewBox="0 0 24 24" width="48" height="48"><g fill="none" fill-rule="evenodd"><path fill="currentColor" d="M13 2a3 3 0 0 1 .64 5.932l-.171.032l1.436 2.297l1.724-.69a1 1 0 0 1 .848 1.808l-.106.05l-1.723.689a2 2 0 0 1-2.343-.657l-.096-.14l-.163-.26l-.606 2.424a2 2 0 0 1-.256.595l-.09.13l1.653 1.228a2 2 0 0 1 .766 1.202l.029.182l.353 3.178H15a1 1 0 0 1 .117 1.993L15 22h-.91a1.1 1.1 0 0 1-1.074-.861l-.02-.117l-.442-3.979l-3.15-2.34a1 1 0 0 1-.154-.14a2 2 0 0 1-.723-1.891l.033-.157l.794-3.177l-1.57.47l-.835 2.508a1 1 0 0 1-1.928-.52l.03-.112l.836-2.508a2 2 0 0 1 1.17-1.23l.153-.053l3.437-1.031A3 3 0 0 1 13 2M8.2 15.4a1 1 0 0 1 1.669 1.095L9.8 16.6l-1.216 1.622a1.5 1.5 0 0 1-1.906.424l-.126-.076l-1.93-1.287a1 1 0 0 1-1.412-1.396l.083-.094l.494-.494a1.01 1.01 0 0 1 1.162-.191l.113.064l2.206 1.471zM13 4a1 1 0 1 0 0 2a1 1 0 0 0 0-2" /></g></svg>