<svg xmlns="http://www.w3.org/2000/svg" viewBox="0 0 24 24" width="48" height="48"><g fill="none" fill-rule="evenodd"><path fill="currentColor" d="M11 2.05a9.95 9.95 0 0 0-5.33 2.206l.319.318A1 1 0 0 1 4.575 5.99l-.318-.319A9.95 9.95 0 0 0 2.049 11h.45a1 1 0 0 1 0 2h-.45A10 10 0 0 0 11 21.95v-.45a1 1 0 0 1 2 0v.45a9.95 9.95 0 0 0 5.33-2.207l-.319-.318a1 1 0 1 1 1.415-1.415l.318.319a9.95 9.95 0 0 0 2.208-5.33H21.5a1 1 0 1 1 0-2h.45A10 10 0 0 0 13 2.05v.45a1 1 0 1 1-2 0zm5.466 4.794l-5.693 3.622a1 1 0 0 0-.307.307l-3.622 5.693c-.287.45.239.977.69.69l5.693-3.623a1 1 0 0 0 .306-.306l3.623-5.693c.287-.451-.24-.977-.69-.69" /></g></svg>