<svg xmlns="http://www.w3.org/2000/svg" viewBox="0 0 24 24" width="48" height="48"><g fill="none" fill-rule="evenodd"><path fill="currentColor" d="M11.298 2.195a2 2 0 0 1 1.232-.055l.172.055l7 2.625a2 2 0 0 1 1.291 1.708l.007.165v5.363a9 9 0 0 1-4.709 7.911l-.266.139l-3.354 1.677a1.5 1.5 0 0 1-1.198.062l-.144-.062l-3.354-1.677a9 9 0 0 1-4.97-7.75l-.005-.3V6.693a2 2 0 0 1 1.145-1.808l.153-.065zm4.135 6.434l-4.598 4.598l-1.768-1.768a1 1 0 0 0-1.414 1.415l2.404 2.404a1.1 1.1 0 0 0 1.556 0l5.234-5.235a1 1 0 1 0-1.414-1.414" /></g></svg>