<svg xmlns="http://www.w3.org/2000/svg" viewBox="0 0 24 24" width="48" height="48"><g fill="none" fill-rule="evenodd"><path fill="currentColor" d="M8.828 3a3 3 0 0 0-2.12.879l-3.001 3a3 3 0 0 0 0 4.242l3.485 3.485a3.82 3.82 0 0 0 1.1 3.101a3.82 3.82 0 0 0 3.102 1.101l1.399 1.4a1 1 0 0 0 1.414-1.415l-.809-.809q.16-.129.31-.277l.292-.293l1.293 1.293a1 1 0 0 0 1.414-1.414L15.414 16l.586-.586l1.793 1.793a1 1 0 0 0 1.414-1.414L17.414 14l2.879-2.879a3 3 0 0 0 0-4.242l-3-3A3 3 0 0 0 15.172 3zm10.05 6.707a1 1 0 0 0 0-1.414l-3-3A1 1 0 0 0 15.172 5H8.829a1 1 0 0 0-.707.293l-3 3a1 1 0 0 0 0 1.414l2.895 2.894q.128-.16.277-.308L10.586 10L9.293 8.707a1 1 0 0 1 1.414-1.414L12 8.586l2.293-2.293a1 1 0 1 1 1.414 1.414l-6 6a1.828 1.828 0 0 0 2.586 2.586z" /></g></svg>