<svg xmlns="http://www.w3.org/2000/svg" viewBox="0 0 24 24" width="48" height="48"><g fill="none" fill-rule="evenodd"><path fill="currentColor" d="M6 2.5a4.5 4.5 0 0 1 4.287 5.87l2.57 1.8l6.198-4.338a2.5 2.5 0 0 1 3.481.613l.287.41l-5.927 4.15A1 1 0 1 1 17 13l-.11-.006l5.933 4.154l-.287.41a2.5 2.5 0 0 1-3.482.614l-6.196-4.34l-2.57 1.8a4.5 4.5 0 1 1-4.5-3.127L6 12.5l.135.002a1 1 0 0 1 0-1.004L6 11.5a4.5 4.5 0 0 1 0-9m0 13a1.5 1.5 0 1 0 0 3a1.5 1.5 0 0 0 0-3m2.471-4.739a4.5 4.5 0 0 1-.865.444a.998.998 0 0 1 0 1.59q.462.177.868.445l1.769-1.238l-1.772-1.24ZM3 11a1 1 0 1 1 0 2a1 1 0 0 1 0-2m18 0a1 1 0 1 1 0 2a1 1 0 0 1 0-2m-4.9.562l-.627.44l.63.441a1 1 0 0 1-.002-.88ZM6 5.5a1.5 1.5 0 1 0 0 3a1.5 1.5 0 0 0 0-3" /></g></svg>