<svg xmlns="http://www.w3.org/2000/svg" viewBox="0 0 24 24" width="48" height="48"><g fill="none" fill-rule="evenodd"><path fill="currentColor" d="m7.383 1.337l6 10.394a6 6 0 0 1 8.196 2.196l.107.186a5.786 5.786 0 0 1-2.118 7.903a3.214 3.214 0 0 1-4.39-1.176L12 15.336L8.822 20.84a3.214 3.214 0 0 1-4.39 1.176a5.786 5.786 0 0 1-2.118-7.903l.107-.186a6 6 0 0 1 7.242-2.641L6.035 5.002a2.5 2.5 0 0 1 .915-3.415zm-2.364 14.09l-.107.186a2.786 2.786 0 0 0 1.02 3.805c.102.06.233.024.292-.078l2.893-5.01a3 3 0 0 0-4.098 1.097m9.864-1.098l2.893 5.01c.059.103.19.138.292.08a2.786 2.786 0 0 0 1.02-3.806l-.107-.186a3 3 0 0 0-4.098-1.098m1.734-12.992l.433.25a2.5 2.5 0 0 1 .996 3.264l-.08.151l-3.084 5.34l-1.732-3z" /></g></svg>