<svg xmlns="http://www.w3.org/2000/svg" viewBox="0 0 24 24" width="48" height="48"><g fill="none"><path fill="currentColor" d="M19 3a2 2 0 0 1 2 2v14a2 2 0 0 1-2 2H5a2 2 0 0 1-2-2V5a2 2 0 0 1 2-2zm-7 2H5v14h7zm7 0h-5v14h5zm-9 10a1 1 0 1 1 0 2H7a1 1 0 1 1 0-2zm6.306-1.999l.213-.001c.565 0 1.017.028 1.301.053c.168.014.27.173.2.31a12.4 12.4 0 0 1-1.318 2.025c-.093.113-.277.109-.374-.011l-.162-.207a13 13 0 0 1-1.155-1.822c-.068-.134.019-.278.176-.292l.244-.02c.232-.016.528-.03.875-.035M10 11a1 1 0 1 1 0 2H7a1 1 0 1 1 0-2zm6.701-2.39l.164.207a12.5 12.5 0 0 1 1.156 1.818c.07.136-.033.295-.2.31l-.284.02a15 15 0 0 1-1.017.032l-.416-.005c-.391-.01-.706-.032-.917-.05c-.157-.015-.244-.159-.176-.293l.196-.364a12.6 12.6 0 0 1 1.121-1.665c.097-.12.281-.124.373-.01M10 7a1 1 0 1 1 0 2H7a1 1 0 0 1 0-2z" /></g></svg>