<svg xmlns="http://www.w3.org/2000/svg" viewBox="0 0 24 24" width="48" height="48"><g fill="none" fill-rule="evenodd"><path fill="currentColor" d="M12 3v18H5a2 2 0 0 1-2-2V5a2 2 0 0 1 2-2zM6 15a1 1 0 1 0 0 2h3a1 1 0 1 0 0-2zm0-4a1 1 0 1 0 0 2h3a1 1 0 1 0 0-2zm0-4a1 1 0 0 0 0 2h3a1 1 0 0 0 0-2zm13-4a2 2 0 0 1 2 2v14a2 2 0 0 1-2 2h-5V3zm-1.246 10.002L17.52 13c-.585 0-1.05.03-1.332.056c-.157.014-.245.159-.176.293l.196.364a12.6 12.6 0 0 0 1.121 1.664c.097.12.281.124.373.01l.164-.207a12.5 12.5 0 0 0 1.156-1.818c.07-.136-.033-.293-.2-.308l-.284-.022c-.215-.014-.48-.026-.783-.03m-.053-4.393c-.092-.113-.276-.108-.373.011l-.162.207a12.7 12.7 0 0 0-1.155 1.822c-.068.135.019.278.175.292l.392.03a16 16 0 0 0 2.242-.027c.168-.014.27-.173.2-.31l-.12-.228a12 12 0 0 0-.478-.799a12 12 0 0 0-.72-.998" /></g></svg>