<svg xmlns="http://www.w3.org/2000/svg" viewBox="0 0 24 24" width="48" height="48"><g fill="none" fill-rule="evenodd"><path fill="currentColor" d="M6 8a6 6 0 1 1 8.861 5.275a.3.3 0 0 0-.105.093l-.011.024L14.86 15H18a3 3 0 0 1 3 3v2a2 2 0 0 1-2 2H5a2 2 0 0 1-2-2v-2a3 3 0 0 1 3-3h3.14l.115-1.608l-.01-.024a.3.3 0 0 0-.106-.093A6 6 0 0 1 6 8m6-4a4 4 0 0 0-1.906 7.518c.66.358 1.222 1.095 1.156 2.015l-.115 1.61A2 2 0 0 1 9.14 17H6a1 1 0 0 0-1 1v2h14v-2a1 1 0 0 0-1-1h-3.14a2 2 0 0 1-1.995-1.857l-.115-1.61c-.066-.92.497-1.657 1.156-2.015A4 4 0 0 0 12 4" /></g></svg>