<svg xmlns="http://www.w3.org/2000/svg" viewBox="0 0 24 24" width="48" height="48"><g fill="none"><path fill="currentColor" d="M17 10.5a6.5 6.5 0 1 0-13 0a6.5 6.5 0 0 0 13 0m-4.732-3.182a1 1 0 1 1 1.414 1.414L11.914 10.5l1.768 1.768l.069.076a1 1 0 0 1-1.407 1.407l-.076-.07l-1.768-1.767l-1.768 1.768a1 1 0 1 1-1.414-1.414L9.086 10.5L7.318 8.732l-.069-.076A1 1 0 0 1 8.656 7.25l.076.07L10.5 9.085zM19 10.5a8.46 8.46 0 0 1-1.826 5.26l3.654 3.654a1.001 1.001 0 0 1-1.414 1.415l-3.654-3.655A8.46 8.46 0 0 1 10.5 19a8.5 8.5 0 1 1 8.5-8.5" /></g></svg>