<svg xmlns="http://www.w3.org/2000/svg" viewBox="0 0 24 24" width="48" height="48"><g fill="none"><path fill="currentColor" d="M10.5 2a8.5 8.5 0 0 1 8.5 8.5a8.46 8.46 0 0 1-1.826 5.26l3.654 3.654a1.001 1.001 0 0 1-1.414 1.415l-3.654-3.655A8.46 8.46 0 0 1 10.5 19a8.5 8.5 0 0 1 0-17m0 2a6.5 6.5 0 1 0 0 13a6.5 6.5 0 0 0 0-13m0 2.5a1 1 0 0 1 .946.677l.13.378c.3.879.99 1.57 1.87 1.87l.377.129a1 1 0 0 1 0 1.892l-.378.13c-.879.3-1.57.99-1.87 1.87l-.129.377a1 1 0 0 1-1.892 0l-.13-.378a3 3 0 0 0-1.87-1.87l-.377-.129a1 1 0 0 1 0-1.892l.378-.13c.879-.3 1.57-.99 1.87-1.87l.129-.377l.062-.146A1 1 0 0 1 10.5 6.5m0 3.196a5 5 0 0 1-.804.804q.449.355.804.803q.356-.447.803-.803a5 5 0 0 1-.803-.804" /></g></svg>