<svg xmlns="http://www.w3.org/2000/svg" viewBox="0 0 24 24" width="48" height="48"><g fill="none"><path fill="currentColor" d="M10 3a7 7 0 0 1 5.605 11.191l5.102 5.102a1 1 0 1 1-1.414 1.414l-5.102-5.102A7 7 0 1 1 10 3m0 2a5 5 0 1 0 0 10a5 5 0 0 0 0-10m.05 2.068l.165.364a5.63 5.63 0 0 0 2.133 2.365l.273.161c.046.032.046.052 0 .084l-.273.161a5.64 5.64 0 0 0-2.133 2.365l-.166.364c-.046.09-.067.09-.113 0l-.165-.364a5.64 5.64 0 0 0-2.133-2.365l-.274-.161c-.045-.032-.045-.052 0-.084l.274-.161A5.64 5.64 0 0 0 9.77 7.432l.165-.364c.046-.09.067-.09.113 0m7.783-4.78l.133-.256c.026-.043.042-.043.068 0l.133.256c.353.652.91 1.2 1.602 1.576l.212.113c.025.017.025.029 0 .046l-.212.113a3.96 3.96 0 0 0-1.602 1.576l-.133.256c-.026.043-.042.043-.068 0l-.133-.256a3.96 3.96 0 0 0-1.602-1.576l-.212-.113c-.025-.017-.025-.029 0-.046l.212-.113a3.96 3.96 0 0 0 1.602-1.576" /></g></svg>