<svg xmlns="http://www.w3.org/2000/svg" viewBox="0 0 24 24" width="48" height="48"><g fill="none"><path fill="currentColor" d="M3.468 16.745c.495-.958 1.54-1.6 2.804-1.441a34 34 0 0 1 3.97.726c2.01.502 3.771 1.467 5.073 2.348l.44.306l.4.295l.358.276l.314.254l.267.226l.22.192c.843.751.27 1.978-.685 2.068l-.112.005H7.923c-1.682 0-3.08-.845-4.104-2.126c-.774-.967-.84-2.183-.35-3.129ZM19 2c.893 0 1.278.84 1.467 1.61l.06.268l.024.128c.144.797.221 1.842.252 2.916c.06 2.125-.062 4.602-.327 5.795c-.462 2.082-1.14 3.529-1.952 4.401c-.826.89-1.942 1.291-2.971.776c-.789-.394-1.26-1.331-1.518-2.13a5.73 5.73 0 0 1 .017-3.58c.21-.632.588-1.142 1.004-1.627l.363-.411c.442-.495.885-.99 1.187-1.593c.44-.88.56-1.843.597-2.81l.014-.58l.009-.56l.006-.138l.02-.28C17.347 3.107 17.716 2 19 2" /></g></svg>