<svg xmlns="http://www.w3.org/2000/svg" viewBox="0 0 24 24" width="48" height="48"><g fill="none"><path fill="currentColor" d="M1.5 12c0-4.79 3.204-8.825 7.581-10.09a1.5 1.5 0 1 1 .832 2.882a7.504 7.504 0 0 0 .007 14.415a1.5 1.5 0 1 1-.831 2.883C4.707 20.829 1.5 16.791 1.5 11.999m14.127 6.566a1.5 1.5 0 1 1 1.447 2.628a10.6 10.6 0 0 1-2.152.892a1.5 1.5 0 0 1-.838-2.88a7.6 7.6 0 0 0 1.543-.64m3.58-4.489a1.5 1.5 0 0 1 2.882.835a10.6 10.6 0 0 1-.89 2.154a1.5 1.5 0 0 1-2.63-1.445a7.6 7.6 0 0 0 .638-1.544m-.05-7.742a1.5 1.5 0 0 1 2.036.59a10.6 10.6 0 0 1 .893 2.152a1.5 1.5 0 0 1-2.88.838a7.6 7.6 0 0 0-.64-1.543a1.5 1.5 0 0 1 .59-2.037m-6.102-3.401a1.5 1.5 0 0 1 1.858-1.023a10.6 10.6 0 0 1 2.152.89a1.5 1.5 0 1 1-1.444 2.63a7.6 7.6 0 0 0-1.544-.639a1.5 1.5 0 0 1-1.022-1.858" /></g></svg>