<svg xmlns="http://www.w3.org/2000/svg" viewBox="0 0 24 24" width="48" height="48"><g fill="none"><path fill="currentColor" d="M2 12c0-4.7 3.243-8.642 7.612-9.713a1.001 1.001 0 0 1 .477 1.943a8.004 8.004 0 0 0 0 15.541a1 1 0 1 1-.477 1.942C5.242 20.644 2 16.702 2 12.002m14.145 6.844a1 1 0 0 1 1.033 1.713a10 10 0 0 1-2.788 1.155a1 1 0 0 1-.48-1.942a8 8 0 0 0 2.235-.926m3.625-4.934a1 1 0 1 1 1.942.48a10 10 0 0 1-1.155 2.788a1 1 0 0 1-1.712-1.034a8 8 0 0 0 .925-2.234m-.586-7.427a1 1 0 0 1 1.373.34a10 10 0 0 1 1.155 2.788a1 1 0 0 1-1.942.48a8 8 0 0 0-.925-2.235a1 1 0 0 1 .339-1.373M13.179 3.02a1 1 0 0 1 1.21-.73a10 10 0 0 1 2.789 1.155a1 1 0 1 1-1.033 1.712a8 8 0 0 0-2.236-.926a1 1 0 0 1-.73-1.21" /></g></svg>