<svg xmlns="http://www.w3.org/2000/svg" viewBox="0 0 24 24" width="48" height="48"><g fill="none"><path fill="currentColor" d="M16.28 3a3 3 0 0 1 2.935 2.376l.031.175l1.707 11.3a4.5 4.5 0 0 1-4.242 5.144L16.5 22h-9a4.5 4.5 0 0 1-4.48-4.936l.026-.213l1.708-11.3a3 3 0 0 1 2.789-2.546L7.72 3zm.22 12h-9a2.5 2.5 0 0 0-.164 4.995L7.5 20h9a2.5 2.5 0 0 0 .164-4.995zm-.5 1.5a1 1 0 1 1 0 2h-4a1 1 0 1 1 0-2zm-8 0a1 1 0 1 1 0 2a1 1 0 0 1 0-2M16.28 5H7.72a1 1 0 0 0-.989.85l-1.148 7.578A4.5 4.5 0 0 1 7.5 13h9c.686 0 1.336.153 1.917.428L17.27 5.85a1 1 0 0 0-.99-.85" /></g></svg>