<svg xmlns="http://www.w3.org/2000/svg" viewBox="0 0 24 24" width="48" height="48"><g fill="none" fill-rule="evenodd"><path fill="currentColor" d="M14.41 2.293a10 10 0 0 1 2.75 1.14a1 1 0 0 1 .47 1.019c-.113.689.059 1.216.38 1.538c.322.322.85.493 1.538.38a1 1 0 0 1 1.02.47a10 10 0 0 1 1.14 2.75a1 1 0 0 1-.388 1.054c-.568.407-.82.9-.82 1.356s.252.95.82 1.357a1 1 0 0 1 .388 1.053a10 10 0 0 1-1.14 2.75a1 1 0 0 1-1.02.47c-.689-.113-1.215.059-1.537.38c-.322.322-.494.85-.38 1.538a1 1 0 0 1-.47 1.02a10 10 0 0 1-2.752 1.14a1 1 0 0 1-1.053-.388c-.406-.568-.9-.82-1.356-.82c-.455 0-.95.252-1.356.82a1 1 0 0 1-1.053.388a10 10 0 0 1-2.752-1.14a1 1 0 0 1-.47-1.02c.114-.688-.057-1.215-.38-1.537c-.321-.322-.848-.494-1.537-.38a1 1 0 0 1-1.019-.47a10 10 0 0 1-1.14-2.752a1 1 0 0 1 .388-1.053c.567-.406.82-.9.82-1.356c0-.455-.253-.95-.82-1.356a1 1 0 0 1-.388-1.053a10 10 0 0 1 1.14-2.751a1 1 0 0 1 1.019-.47c.689.113 1.216-.058 1.538-.38s.493-.85.38-1.538a1 1 0 0 1 .47-1.019a10 10 0 0 1 2.75-1.14a1 1 0 0 1 1.054.388c.407.567.9.82 1.356.82s.95-.253 1.357-.82a1 1 0 0 1 1.053-.388m.102 2.11C13.855 5.06 12.992 5.5 12 5.5s-1.855-.439-2.512-1.098a8 8 0 0 0-1.084.45c.001.93-.299 1.85-1 2.552c-.701.701-1.622 1.001-2.552 1q-.264.523-.45 1.084C5.061 10.145 5.5 11.008 5.5 12s-.439 1.855-1.098 2.512q.187.562.45 1.085c.93-.002 1.85.298 2.552 1c.701.7 1.001 1.621 1 2.551q.522.264 1.084.45c.657-.659 1.52-1.098 2.512-1.098s1.855.44 2.512 1.098a8 8 0 0 0 1.085-.45c-.002-.93.298-1.85 1-2.552c.7-.701 1.621-1 2.551-1q.264-.522.45-1.084c-.659-.657-1.098-1.52-1.098-2.512s.44-1.855 1.098-2.512a8 8 0 0 0-.45-1.084c-.93.001-1.85-.299-2.552-1c-.701-.701-1-1.622-1-2.552a8 8 0 0 0-1.084-.45ZM12 8a4 4 0 1 1 0 8a4 4 0 0 1 0-8m0 2a2 2 0 1 0 0 4a2 2 0 0 0 0-4" /></g></svg>