<svg xmlns="http://www.w3.org/2000/svg" viewBox="0 0 24 24" width="48" height="48"><g fill="none"><path fill="currentColor" d="M14.41 2.293a10 10 0 0 1 2.75 1.14a1 1 0 0 1 .47 1.019c-.113.689.058 1.216.38 1.538s.85.493 1.538.38a1 1 0 0 1 1.019.47a10 10 0 0 1 1.14 2.75a1 1 0 0 1-.388 1.054c-.567.407-.82.9-.82 1.356s.253.95.82 1.357a1 1 0 0 1 .388 1.053a10 10 0 0 1-1.14 2.75a1 1 0 0 1-1.019.47c-.689-.113-1.216.059-1.538.38c-.322.322-.493.85-.38 1.538a1 1 0 0 1-.47 1.02a10 10 0 0 1-2.75 1.14a1 1 0 0 1-1.054-.388c-.407-.568-.9-.82-1.356-.82s-.95.252-1.357.82a1 1 0 0 1-1.053.388a10 10 0 0 1-2.75-1.14a1 1 0 0 1-.47-1.02c.113-.688-.059-1.215-.38-1.537c-.323-.322-.85-.494-1.538-.38a1 1 0 0 1-1.02-.47a10 10 0 0 1-1.14-2.752a1 1 0 0 1 .388-1.053c.568-.406.82-.9.82-1.356c0-.455-.252-.95-.82-1.356a1 1 0 0 1-.388-1.053a10 10 0 0 1 1.14-2.751a1 1 0 0 1 1.02-.47c.688.113 1.215-.058 1.537-.38s.494-.85.38-1.538a1 1 0 0 1 .47-1.019a10 10 0 0 1 2.751-1.14a1 1 0 0 1 1.053.388c.407.567.901.82 1.357.82s.95-.253 1.356-.82a1 1 0 0 1 1.053-.388ZM12 7a5 5 0 1 0 0 10a5 5 0 0 0 0-10m0 2a3 3 0 1 1 0 6a3 3 0 0 1 0-6" /></g></svg>