<svg xmlns="http://www.w3.org/2000/svg" viewBox="0 0 24 24" width="48" height="48"><g fill="none" fill-rule="evenodd"><path fill="currentColor" d="M13 3a1 1 0 1 0-2 0v1.062a8 8 0 0 0-2.104.562l-.53-.918a1 1 0 0 0-1.732 1l.531.92c-.58.44-1.098.959-1.54 1.54l-.92-.532a1 1 0 0 0-1 1.732l.92.53A8 8 0 0 0 4.061 11H3a1 1 0 1 0 0 2h1.062c.092.737.284 1.443.562 2.104l-.918.53a1 1 0 1 0 1 1.732l.92-.531c.44.58.959 1.098 1.54 1.54l-.532.92a1 1 0 1 0 1.732 1l.53-.92a8 8 0 0 0 2.104.563V21a1 1 0 1 0 2 0v-1.062a8 8 0 0 0 2.104-.562l.53.918a1 1 0 1 0 1.732-1l-.531-.92a8 8 0 0 0 1.54-1.54l.92.532a1 1 0 1 0 1-1.732l-.92-.53A8 8 0 0 0 19.938 13H21a1 1 0 1 0 0-2h-1.062a8 8 0 0 0-.562-2.104l.918-.53a1 1 0 1 0-1-1.732l-.92.531a8 8 0 0 0-1.54-1.54l.532-.92a1 1 0 1 0-1.732-1l-.53.92A8 8 0 0 0 13 4.061zm-2 8.423l-4.625 2.67a6 6 0 0 0 1.001 1.731L12 13.154l4.624 2.67a6 6 0 0 0 1-1.731L13 11.423v-5.34a6 6 0 0 0-2 0z" /></g></svg>