<svg xmlns="http://www.w3.org/2000/svg" viewBox="0 0 24 24" width="48" height="48"><g fill="none" fill-rule="evenodd"><path fill="currentColor" d="M12 2a1 1 0 0 1 1 1v1.062a8 8 0 0 1 2.104.562l.53-.918a1 1 0 1 1 1.732 1l-.531.92c.58.44 1.098.959 1.54 1.54l.92-.532a1 1 0 1 1 1 1.732l-.92.53c.279.661.471 1.367.563 2.104H21a1 1 0 1 1 0 2h-1.062a8 8 0 0 1-.562 2.104l.918.53a1 1 0 1 1-1 1.732l-.92-.531a8 8 0 0 1-1.54 1.54l.532.92a1 1 0 1 1-1.732 1l-.53-.92a8 8 0 0 1-2.104.563V21a1 1 0 1 1-2 0v-1.062a8 8 0 0 1-2.104-.562l-.53.918a1 1 0 1 1-1.732-1l.531-.92a8 8 0 0 1-1.54-1.54l-.92.532a1 1 0 1 1-1-1.732l.92-.53A8 8 0 0 1 4.061 13H3a1 1 0 1 1 0-2h1.062a8 8 0 0 1 .562-2.104l-.918-.53a1 1 0 0 1 1-1.732l.92.531c.44-.58.959-1.098 1.54-1.54l-.532-.92a1 1 0 0 1 1.732-1l.53.92A8 8 0 0 1 11 4.061V3a1 1 0 0 1 1-1m0 11.155l-4.624 2.67a6 6 0 0 0 1.588 1.351l.073.043A6 6 0 0 0 12 18c.97 0 1.886-.23 2.697-.639l.34-.185a6 6 0 0 0 1.587-1.352zm-1-7.072a6 6 0 0 0-1.703.559l-.26.14l-.073.042a6 6 0 0 0-1.978 1.88l-.162.26l-.042.073A6 6 0 0 0 6 12c0 .63.097 1.24.278 1.81l.097.283L11 11.423zm2 0v5.34l4.625 2.67A6 6 0 0 0 18 12c0-.97-.23-1.886-.639-2.697l-.143-.266l-.032-.055l-.01-.018a6 6 0 0 0-1.88-1.978l-.333-.205a6 6 0 0 0-1.664-.64z" /></g></svg>