<svg xmlns="http://www.w3.org/2000/svg" viewBox="0 0 24 24" width="48" height="48"><g fill="none" fill-rule="evenodd"><path fill="currentColor" d="M9.965 2.809a1.51 1.51 0 0 0-1.401-.203a10 10 0 0 0-2.982 1.725a1.51 1.51 0 0 0-.524 1.313c.075.753-.058 1.48-.42 2.106c-.361.627-.925 1.106-1.615 1.417a1.51 1.51 0 0 0-.875 1.113a10 10 0 0 0 0 3.44c.093.537.46.926.875 1.114c.69.31 1.254.79 1.616 1.416c.361.627.494 1.353.419 2.106c-.045.452.107.964.524 1.313a10 10 0 0 0 2.982 1.725a1.51 1.51 0 0 0 1.4-.203c.615-.442 1.312-.691 2.036-.691s1.42.249 2.035.691c.37.266.89.39 1.401.203a10 10 0 0 0 2.982-1.725c.417-.349.57-.86.524-1.313c-.075-.753.057-1.48.42-2.106c.361-.627.925-1.105 1.615-1.416c.414-.187.782-.577.875-1.114a10 10 0 0 0 0-3.44a1.51 1.51 0 0 0-.875-1.113c-.69-.311-1.254-.79-1.616-1.417c-.362-.626-.494-1.353-.419-2.106a1.51 1.51 0 0 0-.524-1.313a10 10 0 0 0-2.982-1.725a1.51 1.51 0 0 0-1.4.203C13.42 3.25 12.723 3.5 12 3.5s-1.42-.249-2.035-.691M9 12a3 3 0 1 1 6 0a3 3 0 0 1-6 0" /></g></svg>