<svg xmlns="http://www.w3.org/2000/svg" viewBox="0 0 24 24" width="48" height="48"><g fill="none"><path fill="currentColor" d="M10.114 4.491c.076-.795.906-1.45 1.743-.972c1.74 1.019 3.382 2.18 4.97 3.421c1.96 1.548 3.533 3.007 4.647 4.172c.483.507.438 1.308-.024 1.792a42 42 0 0 1-3.495 3.228c-1.938 1.587-3.945 3.125-6.13 4.358c-.741.418-1.544-.06-1.687-.801l-.017-.113l-.227-3.574c-1.816.038-3.574.662-4.98 1.823l-.265.222l-.128.104l-.247.192l-.12.088l-.23.16a5 5 0 0 1-.218.135l-.206.111C2.534 19.314 2 18.892 2 17c0-4.404 3.245-8.323 7.632-8.917l.259-.031zm1.909 1.474l-.192 3.472a.5.5 0 0 1-.447.47l-1.361.142c-3.065.366-5.497 2.762-5.948 5.894a9.95 9.95 0 0 1 5.135-1.912l.397-.023l1.704-.036a.5.5 0 0 1 .51.472l.197 3.596c1.603-1.021 3.131-2.196 4.664-3.45a44 44 0 0 0 2.857-2.595l-.258-.256l-.556-.533a48 48 0 0 0-3.134-2.693a46 46 0 0 0-3.568-2.548" /></g></svg>