<svg xmlns="http://www.w3.org/2000/svg" viewBox="0 0 24 24" width="48" height="48"><g fill="none"><path fill="currentColor" d="m10.114 4.491l-.203 3.144l-.02.417l-.09.01C5.363 8.582 2 12.366 2 17q0 .686.102 1.357c.279 1.845.489 2.024 1.772.498a9 9 0 0 1 1.04-1.03a7.96 7.96 0 0 1 4.754-1.818l.226-.005l.061 1.229l.166 2.345c.08.804.926 1.353 1.704.914c.352-.198.695-.41 1.04-.62c1.787-1.118 3.46-2.403 5.09-3.738c.96-.8 1.8-1.558 2.516-2.248c.33-.323.66-.646.979-.98c.462-.484.508-1.285.024-1.792c-1.114-1.165-2.688-2.624-4.647-4.172c-1.588-1.242-3.23-2.402-4.97-3.421c-.837-.477-1.667.177-1.743.972" /></g></svg>