<svg xmlns="http://www.w3.org/2000/svg" viewBox="0 0 24 24" width="48" height="48"><g fill="none" fill-rule="evenodd"><path fill="currentColor" d="M15.847 3c.172 0 .344.003.508.065a2 2 0 0 1 1.472 2.218l-.158 1.104l1.059.264A3 3 0 0 1 21 9.561V18a3 3 0 0 1-3 3H6a3 3 0 0 1-3-3V9.562a3 3 0 0 1 2.272-2.91l1.059-.265l-.158-1.104a2 2 0 0 1 1.472-2.218C7.81 3.003 7.981 3 8.153 3zM12 7.4L13.92 5h-3.84zm3.71-1.436L13.553 8.66l1.652 1.826l.503-4.52Zm-7.42 0l.504 4.521l1.652-1.826l-2.155-2.695ZM16 14a1 1 0 1 0 0 2h1a1 1 0 1 0 0-2z" /></g></svg>