<svg xmlns="http://www.w3.org/2000/svg" viewBox="0 0 24 24" width="48" height="48"><g fill="none"><path fill="currentColor" d="M18.026 3.902a1 1 0 0 0-.717-.489c-.41 0-.853.324-1.327.673q-.176.13-.357.258c-.542.377-1.164.72-1.696.828c-.83.17-1.783-.069-2.547-.41c-.87-.401-1.373.522-1.762 1.236c-.073.133-.142.26-.208.369c-.29.473-.655 1.037-1.07 1.606a1 1 0 0 0-1.04 1.313q-.462.567-.877 1.087A1 1 0 0 0 5.29 11.84c-1.072 1.433-1.81 2.598-2.236 3.635c-.36.88-.514 1.703-.447 2.542c.067.827.342 1.597.727 2.376c.522 1.055 1.802 1.344 2.739.803l14.722-8.5a2 2 0 0 0 .732-2.732l-.5-.866l-6.062 3.5a1 1 0 0 1-1-1.732l6.062-3.5z" /></g></svg>