<svg xmlns="http://www.w3.org/2000/svg" viewBox="0 0 24 24" width="48" height="48"><g fill="none" fill-rule="evenodd"><path fill="currentColor" d="M18.026 3.902c-.152-.263-.448-.492-.716-.492c-.48 0-1.097.48-1.47.771c-.559.435-1.211.848-1.911.992c-.518.105-1.136.026-1.682-.117c-.09-.023-.864-.294-.864-.294c-1.072-.495-1.548.912-1.971 1.605c-.29.473-.655 1.037-1.07 1.606a1 1 0 0 0-1.04 1.314q-.462.565-.877 1.086A1 1 0 0 0 5.29 11.84c-1.072 1.433-1.81 2.598-2.236 3.635c-.36.88-.514 1.703-.447 2.542c.067.827.342 1.598.727 2.376c.522 1.055 1.802 1.344 2.739.803l14.722-8.5a2 2 0 0 0 .732-2.732zm.268 4.464l-1.419-2.457c-.764.546-1.617 1.033-2.545 1.223c-.954.195-1.919.034-2.587-.14c-.411-.107-.404.057-.625.418c-.252.413-.564.899-.92 1.406l.111.055a1 1 0 1 1-.886 1.793l-.473-.234q-.357.436-.68.84a1 1 0 0 1-.945 1.76l-.312-.154c-1.086 1.437-1.752 2.487-2.11 3.358c-.265.647-.34 1.154-.303 1.623c.037.466.192.964.498 1.592l14.696-8.485l-.5-.866l-4.33 2.5a1 1 0 0 1-1-1.732z" /></g></svg>