<svg xmlns="http://www.w3.org/2000/svg" viewBox="0 0 24 24" width="48" height="48"><g fill="none" fill-rule="evenodd"><path fill="currentColor" d="M12.41 3.653a4.304 4.304 0 0 1 5.571-.66l.18.128l.323.242a3.79 3.79 0 0 1 1.51 2.809l.006.223V21a1 1 0 0 1-1.993.117L18 21V6.395a1.8 1.8 0 0 0-.586-1.325l-.13-.107l-.323-.242a2.3 2.3 0 0 0-2.584-.123l-.153.103l.758.438a4 4 0 0 1 1.566 5.277l-.102.187l-.5.866a1 1 0 0 1-1.261.418l-.105-.052l-8.66-5a1 1 0 0 1-.418-1.262l.052-.104l.5-.866a4 4 0 0 1 5.277-1.566l.187.102zM6.75 15.397a1 1 0 0 1 .366 1.366l-.5.866a1 1 0 1 1-1.732-1l.5-.866a1 1 0 0 1 1.366-.366m2.232.134a1 1 0 0 1 1.785.896l-.053.104l-.5.866a1 1 0 0 1-1.784-.896l.052-.104zm-3.83-3.366a1 1 0 0 1 .366 1.366l-.5.866a1 1 0 0 1-1.732-1l.5-.866a1 1 0 0 1 1.366-.366m3.598-.232a1 1 0 0 1 .366 1.366l-.5.866a1 1 0 1 1-1.732-1l.5-.866a1 1 0 0 1 1.366-.366m2.232.134a1 1 0 0 1 1.785.895l-.053.105l-.5.866a1 1 0 0 1-1.784-.896l.052-.104zM7.152 8.7a1 1 0 0 1 .366 1.366l-.5.866a1 1 0 0 1-1.732-1l.5-.866A1 1 0 0 1 7.152 8.7m.634-3.098l6.928 4a2 2 0 0 0-.732-2.732l-3.464-2a2 2 0 0 0-2.732.732" /></g></svg>