<svg xmlns="http://www.w3.org/2000/svg" viewBox="0 0 24 24" width="48" height="48"><g fill="none"><path fill="currentColor" d="M17.578 3.655c-.28-.146-.604.065-.631.411c-.02.252-.04.567-.054.934h-.42A5 5 0 0 0 12 7.764l-1 2l-1-2A5 5 0 0 0 5.528 5H4a1 1 0 1 0 0 2h1.528A3 3 0 0 1 8.21 8.658L9.882 12l-1.67 3.342A3 3 0 0 1 5.527 17H4a1 1 0 1 0 0 2h1.528A5 5 0 0 0 10 16.236l1-2l1 2A5 5 0 0 0 16.472 19h.421c.016.396.038.732.06.992c.026.324.322.503.597.36c.368-.192.906-.492 1.55-.91a20 20 0 0 0 1.476-1.056c.248-.196.259-.574.023-.762a19 19 0 0 0-1.498-1.074a19 19 0 0 0-1.523-.895c-.28-.146-.604.065-.631.411c-.02.252-.04.567-.054.934h-.42a3 3 0 0 1-2.684-1.658L12.118 12l1.67-3.342A3 3 0 0 1 16.473 7h.421c.016.396.038.732.06.992c.026.324.322.503.597.36c.368-.192.906-.492 1.55-.91a20 20 0 0 0 1.476-1.056c.248-.196.259-.574.023-.762a19 19 0 0 0-1.498-1.074a19 19 0 0 0-1.523-.895Z" /></g></svg>