<svg xmlns="http://www.w3.org/2000/svg" viewBox="0 0 24 24" width="48" height="48"><g fill="none"><path fill="currentColor" d="M17.802 3.183c-.582-.305-1.274.146-1.33.865q-.017.201-.032.452a5.5 5.5 0 0 0-4.887 3.04L11 8.646l-.553-1.106a5.5 5.5 0 0 0-4.92-3.04H4a1.5 1.5 0 1 0 0 3h1.528a2.5 2.5 0 0 1 2.236 1.382L9.323 12l-1.56 3.118A2.5 2.5 0 0 1 5.529 16.5H4a1.5 1.5 0 1 0 0 3h1.528a5.5 5.5 0 0 0 4.92-3.04L11 15.354l.553 1.106a5.5 5.5 0 0 0 4.885 3.04q.018.321.039.565c.054.671.684 1.056 1.26.755c.38-.198.933-.506 1.591-.934a20 20 0 0 0 1.515-1.083c.52-.411.539-1.216.05-1.606a20 20 0 0 0-1.533-1.1a19 19 0 0 0-1.558-.914c-.582-.305-1.274.146-1.33.865q-.017.201-.032.452a2.5 2.5 0 0 1-2.204-1.382L12.677 12l1.56-3.118a2.5 2.5 0 0 1 2.2-1.382q.02.322.04.565c.054.671.684 1.056 1.26.755a20 20 0 0 0 1.591-.934c.66-.428 1.173-.812 1.515-1.083c.52-.411.539-1.216.05-1.606a20 20 0 0 0-1.533-1.1a19 19 0 0 0-1.558-.914" /></g></svg>