<svg xmlns="http://www.w3.org/2000/svg" viewBox="0 0 24 24" width="48" height="48"><g fill="none"><path fill="currentColor" d="M6.301 6a4 4 0 0 1 3.312 1.756l.118.186l4.253 7.087a2 2 0 0 0 1.553.965L15.7 16h1.194l.02-.415l.022-.36l.012-.159c.027-.346.352-.557.631-.41l.306.164l.36.203l.198.117l.43.263l.229.147l.463.31l.21.147l.377.273l.315.24l.133.104c.236.188.225.566-.023.762l-.28.217l-.34.252l-.4.282l-.456.305l-.462.291l-.416.249l-.365.205l-.307.165c-.275.143-.572-.036-.598-.36l-.025-.347l-.024-.415l-.01-.23H15.7a4 4 0 0 1-3.312-1.756l-.118-.186l-4.253-7.087a2 2 0 0 0-1.553-.965L6.3 8H4a1 1 0 0 1-.117-1.993L4 6zm3.714 7.643a1 1 0 0 1 .342 1.371l-.626 1.044A4 4 0 0 1 6.301 18H4a1 1 0 1 1 0-2h2.301a2 2 0 0 0 1.715-.971l.627-1.043a1 1 0 0 1 1.371-.344Zm7.563-8.988l.306.165l.36.203l.198.117l.43.263l.229.147l.463.31l.21.147l.377.273l.315.24l.133.104c.236.188.225.566-.023.762l-.28.217l-.34.252q-.186.135-.4.282l-.456.305l-.462.291l-.416.249l-.365.206l-.307.164c-.275.143-.572-.036-.598-.36l-.025-.347l-.024-.415l-.01-.23H15.7a2 2 0 0 0-1.627.836l-.088.135l-.626 1.043a1 1 0 0 1-1.77-.925l.055-.104l.626-1.043a4 4 0 0 1 3.209-1.936l.22-.006h1.195l.02-.415l.022-.36l.012-.159c.027-.346.352-.557.631-.41Z" /></g></svg>