<svg xmlns="http://www.w3.org/2000/svg" viewBox="0 0 24 24" width="48" height="48"><g fill="none"><path fill="currentColor" d="M6.301 5.5a4.5 4.5 0 0 1 3.732 1.985l.127.2l4.252 7.087a1.5 1.5 0 0 0 1.13.72l.157.008h.741l.02-.312l.011-.14c.056-.719.749-1.17 1.331-.865l.314.168l.368.209a21 21 0 0 1 1.564 1.005l.385.28l.323.245l.137.107c.489.39.47 1.195-.05 1.606l-.136.107l-.32.242l-.38.275l-.438.301a22 22 0 0 1-.714.457l-.426.255l-.375.211l-.316.17c-.577.3-1.207-.085-1.261-.756l-.04-.565H15.7a4.5 4.5 0 0 1-3.732-1.985l-.127-.2l-4.252-7.087a1.5 1.5 0 0 0-1.13-.72L6.301 8.5H4a1.5 1.5 0 0 1-.144-2.993L4 5.5zm1.007 9.612L7.42 15a1.5 1.5 0 1 1 2.237 2a4.5 4.5 0 0 1-3.113 1.494l-.242.006H4a1.5 1.5 0 0 1-.144-2.993L4 15.5h2.301a1.5 1.5 0 0 0 1.007-.388m10.494-10.93l.314.17l.368.208q.197.114.417.248l.459.29q.375.246.688.467l.385.28l.323.245l.137.107c.489.39.47 1.195-.05 1.606l-.136.107l-.32.242l-.38.275l-.438.301a22 22 0 0 1-.714.457l-.426.255l-.375.211l-.316.17c-.577.3-1.207-.085-1.261-.756l-.04-.565H15.7a1.5 1.5 0 0 0-1.007.388L14.58 9a1.5 1.5 0 1 1-2.237-2a4.5 4.5 0 0 1 3.113-1.494l.242-.006h.741l.031-.452c.056-.719.749-1.17 1.331-.865Z" /></g></svg>