<svg xmlns="http://www.w3.org/2000/svg" viewBox="0 0 24 24" width="48" height="48"><g fill="none"><path fill="currentColor" d="M13.852 2.918a1.5 1.5 0 0 1-.705 2.916c-2.424-.586-4.822.081-6.204 1.671c-1.964 2.26-1.872 5.97 1.75 8.863c2.075 1.659 3.462 2.39 5.58 2.693a1.5 1.5 0 0 1-.425 2.97c-2.83-.405-4.707-1.463-7.029-3.319c-4.677-3.738-5.44-9.376-2.14-13.175c2.25-2.588 5.872-3.418 9.173-2.619M21.43 9.42c.467 1.113.936 2.4.978 3.696c.045 1.396-.407 2.76-1.64 3.905c-1.27 1.177-2.91 1.49-4.37 1.42c-1.464-.069-2.918-.524-4.07-1.1a1.5 1.5 0 0 1 1.343-2.682c.849.425 1.895.74 2.868.787c.976.046 1.71-.181 2.187-.625c.544-.504.703-1.005.684-1.609c-.023-.704-.293-1.553-.745-2.63A1.5 1.5 0 1 1 21.43 9.42m-.298-6.55a1.5 1.5 0 0 1 0 2.12l-9.9 9.9a1.5 1.5 0 1 1-2.12-2.121l9.899-9.9a1.5 1.5 0 0 1 2.12 0" /></g></svg>