<svg xmlns="http://www.w3.org/2000/svg" viewBox="0 0 24 24" width="48" height="48"><g fill="none" fill-rule="evenodd"><path fill="currentColor" d="M16.239 4.79c-.595.127-1.456.478-2.55 1.085c-2.034 1.127-4.763 3.294-7.949 6.798a1 1 0 1 1-1.48-1.346c3.276-3.603 6.172-5.934 8.458-7.202c1.16-.643 2.225-1.104 3.107-1.29c.778-.166 1.942-.211 2.541.768c.271.443.313.948.265 1.404c-.048.461-.197.965-.417 1.499c-.44 1.069-1.232 2.42-2.397 4.07c-1.362 1.93-2.103 3.241-2.437 4.09a4 4 0 0 0-.163.5q.157-.032.378-.105c.555-.185 1.235-.525 1.89-.918c.64-.384 1.22-.662 1.722-.74c.263-.04.609-.043.946.126c.369.185.576.497.673.793c.143.439.078.913-.024 1.352c-.165.713-.443 1.395-.621 2.104q.163-.069.372-.172a1 1 0 0 1 .894 1.788c-.65.325-1.265.552-1.81.55a1.57 1.57 0 0 1-.934-.29a1.47 1.47 0 0 1-.54-.798c-.136-.481-.049-1.007.033-1.372c.13-.592.337-1.162.514-1.74c-.804.457-1.6.92-2.483 1.215a4.3 4.3 0 0 1-1.16.237c-.374.015-.873-.04-1.29-.38c-.452-.366-.603-.892-.602-1.376c0-.463.134-.971.344-1.506c.423-1.076 1.276-2.544 2.664-4.51c1.13-1.6 1.824-2.811 2.181-3.68c.13-.316.264-.66.283-1.006c-.083 0-.213.011-.408.053Z" /></g></svg>