<svg xmlns="http://www.w3.org/2000/svg" viewBox="0 0 24 24" width="48" height="48"><g fill="none"><path fill="currentColor" d="M14.772 3.715a1 1 0 0 1-.675 1.883c-2.812-1.01-5.837-.37-7.531 1.58c-2.187 2.517-1.984 6.548 1.813 9.582c2.117 1.691 3.585 2.476 5.823 2.796a1 1 0 0 1-.283 1.98c-2.712-.387-4.507-1.391-6.788-3.214C2.63 14.725 1.978 9.408 5.056 5.865c2.335-2.687 6.282-3.382 9.716-2.15m5.743 4.957c1.46 2.66 1.597 5.761.031 7.849c-1.125 1.5-2.807 1.981-4.476 1.913c-1.65-.068-3.394-.668-4.908-1.462a1.001 1.001 0 0 1 .93-1.77c1.352.71 2.801 1.183 4.06 1.235c1.24.05 2.184-.304 2.795-1.118c.943-1.258 1.034-3.463-.186-5.685a1 1 0 0 1 1.754-.962m.263-5.45a1 1 0 0 1 0 1.414l-9.9 9.9a1 1 0 1 1-1.414-1.415l9.9-9.9a1 1 0 0 1 1.414 0" /></g></svg>