<svg xmlns="http://www.w3.org/2000/svg" viewBox="0 0 24 24" width="48" height="48"><g fill="none" fill-rule="evenodd"><path fill="currentColor" d="M12 2c5.523 0 10 4.477 10 10s-4.477 10-10 10S2 17.523 2 12S6.477 2 12 2M9.793 12.793a1 1 0 0 0 0 1.414l.793.793l-.793.793a1 1 0 1 0 1.414 1.414l.793-.793l.793.793a1 1 0 0 0 1.414-1.414L13.414 15l.793-.793a1 1 0 0 0-1.414-1.414l-.793.793l-.793-.793a1 1 0 0 0-1.414 0M8.5 8a1.5 1.5 0 1 0 0 3a1.5 1.5 0 0 0 0-3m7 0a1.5 1.5 0 1 0 0 3a1.5 1.5 0 0 0 0-3" /></g></svg>