<svg xmlns="http://www.w3.org/2000/svg" viewBox="0 0 24 24" width="48" height="48"><g fill="none" fill-rule="evenodd"><path fill="currentColor" d="M12 2c5.523 0 10 4.477 10 10l-.005.314l.005.186q0 .368-.073.715C21.327 18.165 17.112 22 12 22C6.477 22 2 17.523 2 12S6.477 2 12 2M7 9a3 3 0 1 0 0 6c1.689 0 3.148-.812 4.608-1.919l.257-.198l1.129 1.095l.324.308C11.633 15.63 9.57 17 7 17c-.486 0-.955-.07-1.4-.198A7.99 7.99 0 0 0 12 20a8 8 0 0 0 6.946-4.028A4 4 0 0 1 18.5 16c-1.21 0-2.273-.602-3.18-1.302c-.626-.482-1.257-1.075-1.873-1.673l-1.06-1.027l-.458-.43C10.33 10.096 8.786 9 7 9m5-5a7.99 7.99 0 0 0-6.4 3.198A5 5 0 0 1 7 7c2.43 0 4.4 1.396 6.008 2.843l.412.378l.395.375l1.3 1.259c.495.474.961.902 1.425 1.26c.795.612 1.42.885 1.96.885a1.5 1.5 0 0 0 1.453-1.125q.028-.26.04-.526A1.5 1.5 0 0 0 18.5 11c-.586 0-1.23.251-2.012.767q-.235-.21-.483-.445l-.997-.964q.186-.132.37-.255C16.297 9.497 17.339 9 18.5 9c.337 0 .664.048.972.137A8 8 0 0 0 12 4" /></g></svg>