<svg xmlns="http://www.w3.org/2000/svg" viewBox="0 0 24 24" width="48" height="48"><g fill="none" fill-rule="evenodd"><path fill="currentColor" d="M17 3a4 4 0 0 1 3.995 3.8L21 7v10a4 4 0 0 1-3.8 3.995L17 21H7a4 4 0 0 1-3.995-3.8L3 17V7a4 4 0 0 1 3.8-3.995L7 3zm-5 2a7 7 0 1 0 0 14a7 7 0 0 0 0-14M8.5 9.9c1.35 0 2.501.894 3.717 2.047l.537.52c.513.5 1.044 1.017 1.57 1.422c.635.49 1.38.911 2.226.911q.159 0 .312-.02A5.6 5.6 0 0 1 12 17.6a5.59 5.59 0 0 1-4.48-2.239q.468.137.98.139c1.799 0 3.243-.959 4.422-1.9l-.337-.322l-.68-.66C10.824 13.463 9.753 14.1 8.5 14.1a2.1 2.1 0 1 1 0-4.2M12 6.4a5.6 5.6 0 0 1 5.23 3.596a2.5 2.5 0 0 0-.68-.096c-.83 0-1.588.368-2.263.824l-.181.127l.385.374l.441.421q.106.1.21.191c.548-.361.998-.537 1.408-.537a1.05 1.05 0 1 1 0 2.1c-.379 0-.816-.191-1.372-.62c-.303-.234-.608-.51-.929-.816l-1.008-.975l-.34-.32l-.357-.322C11.45 9.387 10.121 8.5 8.5 8.5q-.512.001-.98.139A5.6 5.6 0 0 1 12 6.4" /></g></svg>