<svg xmlns="http://www.w3.org/2000/svg" viewBox="0 0 24 24" width="48" height="48"><g fill="none"><path fill="currentColor" d="M7 9c1.786 0 3.33 1.096 4.929 2.568l.458.43l.691.669c.733.714 1.49 1.453 2.241 2.031c.908.7 1.972 1.302 3.181 1.302a3.5 3.5 0 0 0 3.427-2.785C21.327 18.165 17.112 22 12 22C6.477 22 2 17.523 2 12a5 5 0 0 0 5 5c2.57 0 4.633-1.37 6.318-2.714l-.325-.308l-1.128-1.095C10.32 14.089 8.788 15 7 15a3 3 0 1 1 0-6m5-7c5.523 0 10 4.477 10 10l-.005.314A3.5 3.5 0 0 0 18.5 9c-1.162 0-2.204.497-3.121 1.103a13 13 0 0 0-.371.255l.745.723l.497.47q.12.111.238.216c.783-.516 1.426-.767 2.012-.767a1.5 1.5 0 0 1 0 3c-.54 0-1.165-.273-1.96-.886c-.464-.357-.93-.785-1.425-1.259l-1.3-1.26l-.395-.374l-.412-.378C11.4 8.396 9.43 7 7 7a5 5 0 0 0-4.995 4.783L2 11.937l.003-.217C2.152 6.327 6.57 2 12 2" /></g></svg>