<svg xmlns="http://www.w3.org/2000/svg" viewBox="0 0 24 24" width="48" height="48"><g fill="none" fill-rule="evenodd"><path fill="currentColor" d="M13.457 3.604a5.002 5.002 0 0 1 6.939 6.939a2.5 2.5 0 0 1-.132 3.082l-.132.143l-.707.707c-.81.81-2.039.948-2.991.413l-.156-.095l-1.485 1.485a2.5 2.5 0 0 1-.19 3.008l-.128.139l-.707.707a2.5 2.5 0 0 1-3.225.264a5.002 5.002 0 0 1-6.939-6.939a2.5 2.5 0 0 1 .132-3.082l.132-.143l.707-.707a2.5 2.5 0 0 1 2.99-.413l.157.095l1.485-1.485a2.5 2.5 0 0 1 .19-3.008l.128-.139l.707-.707a2.5 2.5 0 0 1 3.225-.264m-.396 13.7a.5.5 0 0 0-.638-.059l-.07.058l-.707.707a.5.5 0 0 0 .638.765l.07-.057l.707-.708a.5.5 0 0 0 0-.707Zm4.95-5.657l-.708.707a.5.5 0 1 0 .707.707l.707-.707a.5.5 0 1 0-.707-.707Zm-11.314-.708a.5.5 0 0 0-.638-.057l-.07.057l-.707.707a.5.5 0 0 0 .638.765l.07-.057l.707-.707a.5.5 0 0 0 0-.708m4.95-5.656l-.708.707a.5.5 0 0 0 .707.707l.708-.707a.5.5 0 0 0-.708-.707Z" /></g></svg>