<svg xmlns="http://www.w3.org/2000/svg" viewBox="0 0 24 24" width="48" height="48"><g fill="none"><path fill="currentColor" d="m20.43 5.865l.078.699l.072.767l.036.448l.051.75l.03.55l.038.894l.019.641l.012.675l.004.707l-.004.707l-.012.675l-.019.641l-.024.606l-.028.569l-.05.78l-.035.47l-.09.986l-.079.698a1.332 1.332 0 0 1-1.844 1.065l-.49-.213l-.846-.386l-.62-.298l-.458-.226l-.748-.381l-.538-.283l-.566-.306l-.594-.329l-.619-.353l-.615-.36l-.582-.349l-.809-.5l-.73-.47l-.443-.292l-.406-.274l-.54-.373l-.587-.42l-.43-.319a1.332 1.332 0 0 1 .002-2.13l.325-.242l.422-.306l.517-.363l.607-.414l.694-.458l.51-.327l.546-.342l.581-.355l.617-.366l.32-.186q.312-.18.613-.349l.588-.326l.563-.304l.793-.414l.725-.365l.442-.215l.597-.283l.802-.362l.355-.154a1.332 1.332 0 0 1 1.846 1.065ZM6 5a1 1 0 0 1 .993.883L7 6v12a1 1 0 0 1-.883.993L6 19H5a1 1 0 0 1-.993-.883L4 18V6a1 1 0 0 1 .883-.993L5 5z" /></g></svg>