<svg xmlns="http://www.w3.org/2000/svg" viewBox="0 0 24 24" width="48" height="48"><g fill="none"><path fill="currentColor" d="M3.569 5.865A1.332 1.332 0 0 1 5.415 4.8l.646.283l.511.233l.597.283l.676.331l.49.249l.793.414l.564.304l.588.326l.613.349l.633.37l.599.361l.564.349l.778.496l.694.458l.607.414l.517.363l.541.394l.206.154c.71.535.71 1.594.001 2.13l-.43.319l-.273.198l-.664.465l-.595.404l-.443.292l-.73.47l-.81.5l-.581.35l-.615.36l-.62.352l-.593.33l-.566.305l-.538.283l-.748.381l-.673.331l-.773.364l-.744.332l-.224.096a1.332 1.332 0 0 1-1.844-1.065l-.08-.698l-.071-.767l-.053-.689l-.05-.78l-.028-.57l-.024-.605l-.019-.64l-.015-1.026v-.715l.015-1.024l.03-.948l.026-.587l.03-.55l.052-.75l.054-.657l.07-.722zM19 5a1 1 0 0 1 .993.883L20 6v12a1 1 0 0 1-.883.993L19 19h-1a1 1 0 0 1-.993-.883L17 18V6a1 1 0 0 1 .883-.993L18 5z" /></g></svg>