<svg xmlns="http://www.w3.org/2000/svg" viewBox="0 0 24 24" width="48" height="48"><g fill="none"><path fill="currentColor" d="M13 3a1 1 0 1 0-2 0v.962l-.654-.346a1 1 0 1 0-.935 1.768l1.589.84v1.902a4 4 0 0 0-1.854 1.072l-1.648-.952l.067-1.796a1 1 0 0 0-1.999-.074l-.027.739l-.833-.48a1 1 0 1 0-1 1.731l.833.481l-.627.394a1 1 0 0 0 1.064 1.693l1.522-.956l1.647.951a4 4 0 0 0 0 2.142l-1.647.95l-1.522-.955a1 1 0 0 0-1.064 1.693l.627.394l-.833.48a1 1 0 1 0 1 1.733l.832-.481l.028.74a1 1 0 1 0 1.999-.075l-.067-1.796l1.648-.952A4 4 0 0 0 11 15.874v1.902l-1.589.84a1 1 0 0 0 .935 1.768l.654-.346V21a1 1 0 1 0 2 0v-.962l.654.346a1 1 0 0 0 .935-1.768L13 17.776v-1.902a4 4 0 0 0 1.854-1.071l1.648.951l-.067 1.796a1 1 0 1 0 1.999.075l.027-.74l.833.481a1 1 0 1 0 1-1.732l-.832-.48l.626-.394a1 1 0 0 0-1.064-1.694l-1.522.956l-1.647-.95a4 4 0 0 0 0-2.143l1.647-.951l1.522.956a1 1 0 0 0 1.064-1.694l-.627-.393l.833-.481a1 1 0 1 0-1-1.732l-.833.48l-.027-.739a1 1 0 1 0-1.999.075l.067 1.796l-1.648.951A4 4 0 0 0 13 8.126V6.224l1.589-.84a1 1 0 0 0-.935-1.768L13 3.962z" /></g></svg>