<svg xmlns="http://www.w3.org/2000/svg" viewBox="0 0 24 24" width="48" height="48"><g fill="none"><path fill="currentColor" d="M12 2a5 5 0 0 1 4.33 7.5c.427.337.814.722 1.152 1.147l.197.26l1.614-1.614a1 1 0 0 1 1.497 1.32l-.083.094l-2 2l-.07.064a7 7 0 1 1-13.275 0l-.07-.064l-2-2a1 1 0 0 1 1.32-1.497l.095.083l1.614 1.614A7 7 0 0 1 7.669 9.5A5 5 0 0 1 12 2m0 2a3 3 0 0 0-2.18 5.062a1 1 0 0 1-.24 1.562a5 5 0 1 0 4.841 0a1 1 0 0 1-.242-1.562A3 3 0 0 0 12 4m0 12a1 1 0 1 1 0 2a1 1 0 0 1 0-2m0-3a1 1 0 1 1 0 2a1 1 0 0 1 0-2m1.207-6.207a1 1 0 0 1 .083 1.32l-.083.094l-.5.5a1 1 0 0 1-1.497-1.32l.083-.094l.5-.5a1 1 0 0 1 1.414 0" /></g></svg>