<svg xmlns="http://www.w3.org/2000/svg" viewBox="0 0 24 24" width="48" height="48"><g fill="none" fill-rule="evenodd"><path fill="currentColor" d="M12 2a1 1 0 0 1 1 1v.962l.654-.346a1 1 0 0 1 .935 1.768L13 6.224v1.902c.715.184 1.352.56 1.854 1.071l1.648-.951l-.067-1.796a1 1 0 0 1 1.999-.075l.027.74l.833-.481a1 1 0 1 1 1 1.732l-.833.48l.627.394a1 1 0 1 1-1.064 1.694l-1.522-.956l-1.647.95a4 4 0 0 1 0 2.143l1.647.951l1.522-.956a1 1 0 0 1 1.064 1.694l-.626.393l.832.481a1 1 0 1 1-1 1.732l-.832-.48l-.028.739a1 1 0 0 1-1.999-.075l.067-1.796l-1.648-.951c-.502.51-1.14.887-1.854 1.071v1.902l1.589.84a1 1 0 0 1-.935 1.768L13 20.038V21a1 1 0 1 1-2 0v-.962l-.654.346a1 1 0 1 1-.935-1.768l1.589-.84v-1.902a4 4 0 0 1-1.854-1.072l-1.648.952l.067 1.796a1 1 0 0 1-1.999.074l-.027-.739l-.833.48a1 1 0 1 1-1-1.731l.833-.481l-.627-.394a1 1 0 0 1 1.064-1.693l1.522.956l1.647-.951a4 4 0 0 1 0-2.142l-1.647-.95l-1.522.955a1 1 0 0 1-1.064-1.693l.627-.394l-.833-.48a1 1 0 0 1 1-1.733l.833.481l.027-.74a1 1 0 0 1 1.999.075l-.067 1.796l1.648.952A4 4 0 0 1 11 8.126V6.224l-1.589-.84a1 1 0 0 1 .935-1.768l.654.346V3a1 1 0 0 1 1-1m0 12a2 2 0 1 0 0-4a2 2 0 0 0 0 4" /></g></svg>