<svg xmlns="http://www.w3.org/2000/svg" viewBox="0 0 24 24" width="48" height="48"><g fill="none"><path fill="currentColor" d="M11.5 2a6.5 6.5 0 0 1 6.086 4.212a6.002 6.002 0 0 1 .733 11.323a3 3 0 0 0 .549-3.035A3 3 0 0 0 15 10.632a3 3 0 0 0-3 .518a3 3 0 0 0-3-.518A3 3 0 0 0 5.132 14.5a3 3 0 0 0-.145 1.594a3 3 0 0 0-.994.562l-.196.183A5 5 0 0 1 5 8.416A6.5 6.5 0 0 1 11.5 2M8.646 12.732l.354.354l.354-.354a1 1 0 0 1 1.414 1.414l-.354.354l.354.354a1 1 0 0 1-1.414 1.414L9 15.914l-.354.354a1 1 0 0 1-1.414-1.415l.354-.353l-.354-.354a1 1 0 1 1 1.414-1.414m6 0l.354.354l.354-.354a1 1 0 0 1 1.414 1.414l-.354.354l.354.354a1 1 0 0 1-1.415 1.414L15 15.914l-.354.354a1 1 0 0 1-1.414-1.415l.354-.353l-.354-.354a1 1 0 0 1 1.414-1.414m-5.878 5.5a1 1 0 0 1 0 1.414L8.414 20l.354.354a1 1 0 0 1-1.414 1.414L7 21.414l-.354.354a1 1 0 0 1-1.414-1.415L5.586 20l-.354-.354a1 1 0 1 1 1.414-1.414l.354.354l.354-.354a1 1 0 0 1 1.414 0m6 1.414a1 1 0 0 0-1.415-1.414l-.353.354l-.354-.354a1 1 0 0 0-1.414 1.414l.354.354l-.354.354a1 1 0 0 0 1.414 1.414l.354-.354l.354.354a1 1 0 0 0 1.414-1.415L14.414 20z" /></g></svg>