<svg xmlns="http://www.w3.org/2000/svg" viewBox="0 0 24 24" width="48" height="48"><g fill="none"><path fill="currentColor" d="M12 19.5a1 1 0 0 1 1 1v.5a1 1 0 1 1-2 0v-.5a1 1 0 0 1 1-1m5.657-3.257l2.121 2.121a1 1 0 0 1-1.414 1.415l-2.121-2.122a1 1 0 1 1 1.414-1.414m-9.9 0a1 1 0 0 1 0 1.414l-2.12 2.12a1 1 0 0 1-1.415-1.413l2.121-2.122a1 1 0 0 1 1.414 0M12.004 5.47a1 1 0 0 1 .944.67a8.03 8.03 0 0 0 4.92 4.92a1 1 0 0 1 0 1.888a8.03 8.03 0 0 0-4.92 4.92a1 1 0 0 1-1.888 0a8.03 8.03 0 0 0-4.92-4.92a1 1 0 0 1 0-1.888a8.02 8.02 0 0 0 4.92-4.92a1 1 0 0 1 .944-.67M21 11a1 1 0 1 1 0 2h-.5a1 1 0 1 1 0-2zM3.5 11a1 1 0 1 1 0 2H3a1 1 0 1 1 0-2zm16.278-6.778a1 1 0 0 1 .084 1.32l-.084.094l-2.12 2.121a1 1 0 0 1-1.498-1.32l.083-.094l2.121-2.121a1 1 0 0 1 1.414 0M5.542 4.138l.094.084l2.121 2.12a1 1 0 0 1-1.32 1.498l-.094-.083l-2.121-2.121A1 1 0 0 1 5.44 4.069zM12 2a1 1 0 0 1 .993.883L13 3v.5a1 1 0 0 1-1.993.117L11 3.5V3a1 1 0 0 1 1-1" /></g></svg>