<svg xmlns="http://www.w3.org/2000/svg" viewBox="0 0 24 24" width="48" height="48"><g fill="none"><path fill="currentColor" d="m6.173 13.004l.17.371a8.7 8.7 0 0 0 3.3 3.638l.265.155a.181.181 0 0 1 0 .316a8.7 8.7 0 0 0-3.565 3.793l-.17.372a.19.19 0 0 1-.346 0l-.17-.372a8.7 8.7 0 0 0-3.565-3.793a.181.181 0 0 1 0-.316l.265-.155a8.7 8.7 0 0 0 3.3-3.638l.17-.371a.19.19 0 0 1 .346 0M15.078 2.73a15.2 15.2 0 0 0 6.536 7.288a.317.317 0 0 1 0 .553a15.2 15.2 0 0 0-6.536 7.289a.331.331 0 0 1-.605 0a15.2 15.2 0 0 0-6.536-7.289a.317.317 0 0 1 0-.553a15.2 15.2 0 0 0 6.536-7.288a.331.331 0 0 1 .605 0" /></g></svg>