<svg xmlns="http://www.w3.org/2000/svg" viewBox="0 0 24 24" width="48" height="48"><g fill="none"><path fill="currentColor" d="M14 6.24c.335 0 .588.141.777.342c.305.324.434.801.624 1.196a11.7 11.7 0 0 0 4.429 4.91l.434.257c.393.239.735.518.736 1.053c.001.732-.636.986-1.17 1.313a11.7 11.7 0 0 0-4.429 4.91c-.19.396-.32.873-.624 1.197c-.188.201-.442.342-.777.342s-.589-.141-.777-.342c-.176-.187-.292-.422-.395-.662l-.15-.36a4 4 0 0 0-.079-.174a11.7 11.7 0 0 0-4.429-4.91l-.321-.191c-.433-.26-.85-.556-.849-1.123c.002-.73.637-.982 1.17-1.309a11.7 11.7 0 0 0 4.429-4.91c.19-.396.32-.873.624-1.197c.188-.2.442-.342.777-.342m-7.253-.415c.149.183.238.39.34.601c.274.57.688 1.06 1.201 1.422l.198.13c.856.525.888 1.41.12 1.964l-.12.08a3.7 3.7 0 0 0-1.4 1.552l-.114.242c-.097.2-.21.391-.406.518c-.315.202-.817.202-1.132 0c-.265-.17-.39-.488-.52-.76a3.7 3.7 0 0 0-1.4-1.552c-.178-.11-.348-.213-.495-.367a1.08 1.08 0 0 1 .001-1.312c.15-.156.31-.252.495-.365a3.7 3.7 0 0 0 1.399-1.552c.104-.216.187-.414.34-.6a1.07 1.07 0 0 1 1.493 0ZM10 2a1 1 0 0 1 1 1a1 1 0 1 1 0 2a1 1 0 1 1-2 0a1 1 0 1 1 0-2a1 1 0 0 1 1-1" /></g></svg>