<svg xmlns="http://www.w3.org/2000/svg" viewBox="0 0 24 24" width="48" height="48"><g fill="none" fill-rule="evenodd"><path fill="currentColor" d="M5.827 13.004a.19.19 0 0 1 .346 0l.17.371a8.7 8.7 0 0 0 3.3 3.638l.265.155a.181.181 0 0 1 0 .316l-.265.155a8.7 8.7 0 0 0-3.3 3.638l-.17.372a.19.19 0 0 1-.346 0l-.17-.372a8.7 8.7 0 0 0-3.3-3.638l-.265-.155a.181.181 0 0 1 0-.316l.265-.155a8.7 8.7 0 0 0 3.47-4.01Zm.17 3.486l-.175.206q-.187.21-.385.41l-.2.198l-.027.024l.227.223l.195.203l.19.208l.175.205l.175-.205q.187-.21.385-.411l.227-.223l-.027-.024q-.203-.195-.395-.4l-.19-.208zm8.476-13.76a.331.331 0 0 1 .605 0l.15.336l.148.314l.195.39l.226.42l.112.196a15.2 15.2 0 0 0 3.895 4.437l.427.317a15 15 0 0 0 1.383.878a.317.317 0 0 1 0 .553a15 15 0 0 0-1.082.67l-.36.251a15.2 15.2 0 0 0-4.263 4.71l-.131.232a15 15 0 0 0-.402.775l-.147.314l-.15.336a.331.331 0 0 1-.606 0l-.15-.336l-.148-.314l-.196-.39l-.225-.42l-.113-.196a15.2 15.2 0 0 0-3.894-4.437l-.428-.316a15 15 0 0 0-1.382-.88a.317.317 0 0 1 0-.552a15 15 0 0 0 1.082-.669l.36-.252a15.2 15.2 0 0 0 4.262-4.71l.132-.232q.211-.38.402-.775l.147-.314zm.302 3.615a17.2 17.2 0 0 1-3.663 3.95a17.2 17.2 0 0 1 3.663 3.95a17.2 17.2 0 0 1 3.663-3.95a17.2 17.2 0 0 1-3.663-3.95" /></g></svg>