<svg xmlns="http://www.w3.org/2000/svg" viewBox="0 0 24 24" width="48" height="48"><g fill="none" fill-rule="evenodd"><path fill="currentColor" d="M13 3a1 1 0 1 0-2 0v.5a1 1 0 1 0 2 0zm-8.5 9a1 1 0 0 1-1 1H3a1 1 0 1 1 0-2h.5a1 1 0 0 1 1 1M22 12a1 1 0 0 1-1 1h-.5a1 1 0 1 1 0-2h.5a1 1 0 0 1 1 1m-10 7.5a1 1 0 0 1 1 1v.5a1 1 0 1 1-2 0v-.5a1 1 0 0 1 1-1m7.778-13.864a1 1 0 0 0-1.414-1.414l-2.121 2.12a1 1 0 1 0 1.414 1.415zM7.758 16.243a1 1 0 0 1 0 1.414L5.635 19.78a1 1 0 0 1-1.414-1.415l2.121-2.12a1 1 0 0 1 1.414 0M5.635 4.222a1 1 0 0 0-1.414 1.414l2.12 2.121a1 1 0 0 0 1.415-1.414zm10.607 12.021a1 1 0 0 1 1.414 0l2.121 2.121a1 1 0 1 1-1.414 1.415l-2.121-2.122a1 1 0 0 1 0-1.414M12.948 6.14a1 1 0 0 0-1.888 0a8.02 8.02 0 0 1-4.92 4.92a1 1 0 0 0 0 1.888a8.03 8.03 0 0 1 4.92 4.92a1 1 0 0 0 1.888 0a8.03 8.03 0 0 1 4.92-4.92a1 1 0 0 0 0-1.888a8.03 8.03 0 0 1-4.92-4.92m-.944 9.094a10.05 10.05 0 0 0-3.23-3.23a10.05 10.05 0 0 0 3.23-3.23a10.05 10.05 0 0 0 3.23 3.23a10.05 10.05 0 0 0-3.23 3.23" /></g></svg>