<svg xmlns="http://www.w3.org/2000/svg" viewBox="0 0 24 24" width="48" height="48"><g fill="none"><path fill="currentColor" d="M7.67 8.993a2 2 0 0 1 2.664-.973l.706.33a2 2 0 0 1 .217.12l.034.009l3.287.999l3.28-.468a1 1 0 0 1 .284 1.98l-3.5.5a1 1 0 0 1-.433-.033l-2.117-.645l-.85 3.488l1.278.092a2 2 0 0 1 1.613 2.952l-1.552 2.843A1 1 0 0 1 12 22h-1a1 1 0 0 1-.878-1.479l2.255-4.134l-3.094-.222a1 1 0 0 1-.201-.035l-.14-.006c-2.134-.09-3.493-2.315-2.598-4.254zm.49 3.715a1 1 0 0 0 .865 1.418l.198.009l.97-3.974l-.706-.33zM12 5a1 1 0 1 0-2 0a1 1 0 0 0 2 0m2 0a3 3 0 1 1-6 0a3 3 0 0 1 6 0" /></g></svg>