<svg xmlns="http://www.w3.org/2000/svg" viewBox="0 0 24 24" width="48" height="48"><g fill="none"><path fill="currentColor" d="M6.883 8.69a3 3 0 0 1 3.263.38l1.605 1.336l1.507-.376a1 1 0 1 1 .484 1.94l-2 .5a1 1 0 0 1-.883-.201L10 11.552V14h.434a1.5 1.5 0 0 1 1.488 1.687l-.43 3.437a1 1 0 1 1-1.984-.248L9.868 16H8.795l-.274 1.917a2 2 0 0 1-.316.826l-1.874 2.812a1 1 0 1 1-1.664-1.11l1.874-2.811l.236-1.66A1 1 0 0 1 6 15v-3.633l-.598.299l-.416 2.498a1 1 0 0 1-1.972-.328l.458-2.75l.04-.174a1.5 1.5 0 0 1 .768-.92zM20 16a1 1 0 0 1 1 1v4a1 1 0 0 1-1 1h-9a1 1 0 1 1 0-2h1a1 1 0 0 1 1-1h1a1 1 0 0 1 1-1h1a1 1 0 0 1 1-1h1a1 1 0 0 1 1-1zm-2 3a1 1 0 0 1-1 1h2v-1zM10 5a1 1 0 1 0-2 0a1 1 0 0 0 2 0m2 0a3 3 0 1 1-6 0a3 3 0 0 1 6 0" /></g></svg>