<svg xmlns="http://www.w3.org/2000/svg" viewBox="0 0 24 24" width="48" height="48"><g fill="none" fill-rule="evenodd"><path fill="currentColor" d="M12.633 2.108c.79-.06 1.45.389 1.783.99l1.22 2.21c1.742-.112 3.082.532 4.048 1.398c1.059.95 1.652 2.144 1.93 2.824c.3.733.078 1.5-.39 2.002l-1.726 1.844c.646 1.622.447 3.095-.078 4.282c-.576 1.3-1.529 2.233-2.09 2.708c-.604.512-1.402.538-2.024.247l-2.287-1.071c-1.343 1.115-2.806 1.381-4.096 1.248c-1.415-.145-2.597-.763-3.222-1.15c-.674-.417-.945-1.168-.86-1.849l.312-2.506c-1.476-.933-2.181-2.242-2.454-3.51c-.298-1.39-.076-2.705.099-3.42c.188-.769.818-1.26 1.492-1.389l2.48-.478c.431-1.691 1.458-2.767 2.58-3.417c1.23-.714 2.55-.909 3.283-.963m.057 2.001c-.6.054-1.522.22-2.336.691c-.814.473-1.543 1.258-1.743 2.682a1 1 0 0 1-.801.843l-3.09.595c-.135.587-.263 1.515-.065 2.435c.197.92.72 1.856 2.012 2.486a1 1 0 0 1 .554 1.023l-.39 3.123c.517.31 1.36.717 2.296.814c.937.096 1.988-.11 2.987-1.145a1 1 0 0 1 1.143-.211l2.85 1.335c.455-.396 1.103-1.071 1.484-1.932c.381-.86.509-1.925-.166-3.194a1 1 0 0 1 .153-1.153l2.15-2.298c-.236-.554-.678-1.38-1.38-2.008c-.7-.628-1.672-1.078-3.088-.829a1 1 0 0 1-1.05-.501z" /></g></svg>