<svg xmlns="http://www.w3.org/2000/svg" viewBox="0 0 24 24" width="48" height="48"><g fill="none" fill-rule="evenodd"><path fill="currentColor" d="M13.08 2.868a1.25 1.25 0 0 0-2.16 0L8.126 7.665L2.697 8.842a1.25 1.25 0 0 0-.667 2.054l3.7 4.141l-.56 5.525a1.25 1.25 0 0 0 1.748 1.27L12 19.592l5.082 2.24a1.25 1.25 0 0 0 1.748-1.27l-.56-5.525l3.7-4.14a1.25 1.25 0 0 0-.667-2.055l-5.428-1.176zM12 17.523c.172 0 .344.035.504.106l4.206 1.854l-.463-4.573a1.25 1.25 0 0 1 .312-.959l3.062-3.427l-4.492-.973a1.25 1.25 0 0 1-.816-.592L12 4.987z" /></g></svg>