<svg xmlns="http://www.w3.org/2000/svg" viewBox="0 0 24 24" width="48" height="48"><g fill="none"><path fill="currentColor" d="M16.5 3a5.5 5.5 0 1 1 0 11l-.215-.006l-4.287 2.572a3.499 3.499 0 0 1-6.436 1.832l-3.01-1.503A1 1 0 0 1 2 16v-3a1 1 0 0 1 1.447-.895l3.05 1.525a3.5 3.5 0 0 1 1.935-.628l2.573-4.288L11 8.5A5.5 5.5 0 0 1 16.5 3M4 14.618v.764l2.72 1.36l.135.082q.146.105.247.254l.061.103a1.5 1.5 0 1 0 .334-1.796l-.11.11a1 1 0 0 1-1.189.223zm7.775-3.302l-1.354 2.258c.4.263.741.605 1.004 1.004l2.258-1.354a5.5 5.5 0 0 1-1.908-1.908M16.5 5a3.5 3.5 0 1 0 0 7a3.5 3.5 0 0 0 0-7m0 1.5a2 2 0 1 1 0 4a2 2 0 0 1 0-4" /></g></svg>