<svg xmlns="http://www.w3.org/2000/svg" viewBox="0 0 24 24" width="48" height="48"><g fill="none"><path fill="currentColor" d="m4.224 8.47l12.305 12.305a8.95 8.95 0 0 1-4.177 1.218L12 22A9 9 0 0 1 4.224 8.47m14.8-3.493a1 1 0 0 1 .068 1.337l-.069.077l-.458.457A8.97 8.97 0 0 1 21 13c0 1.868-.57 3.603-1.545 5.041l1.752 1.752a1 1 0 0 1-.53 1.691l-.118.014h-.118a1 1 0 0 1-.648-.291l-16.5-16.5a1 1 0 0 1 .766-1.705l.117.014c.195.034.38.127.531.277l2.251 2.25A8.95 8.95 0 0 1 11 4.058V4h-1a1 1 0 0 1 0-2h4a1 1 0 0 1 .117 1.993L14 4h-1v.057a8.95 8.95 0 0 1 4.041 1.487l.568-.567l.076-.069a1 1 0 0 1 1.338.069M12 8a1 1 0 0 0-1 1v.586l2 2V9a1 1 0 0 0-1-1" /></g></svg>