<svg xmlns="http://www.w3.org/2000/svg" viewBox="0 0 24 24" width="48" height="48"><g fill="none"><path fill="currentColor" d="M19 13a6.98 6.98 0 0 0-2.38-5.258a1 1 0 0 1-.262-.218A6.97 6.97 0 0 0 12 6c-1.649 0-3.163.57-4.36 1.524q-.025.032-.054.062a1 1 0 0 1-.206.156A7 7 0 1 0 19 13m-8-4a1 1 0 1 1 2 0v3.586l1.707 1.707a1 1 0 1 1-1.414 1.414l-2-2A1 1 0 0 1 11 13zm10 4A9 9 0 1 1 5.434 6.848l-.457-.457A1 1 0 1 1 6.39 4.977l.567.567A8.95 8.95 0 0 1 11 4.057V4h-1a1 1 0 0 1 0-2h4a1 1 0 1 1 0 2h-1v.057a8.95 8.95 0 0 1 4.041 1.487l.568-.567a1 1 0 1 1 1.414 1.414l-.458.457A8.97 8.97 0 0 1 21 13" /></g></svg>