<svg xmlns="http://www.w3.org/2000/svg" viewBox="0 0 24 24" width="48" height="48"><g fill="none"><path fill="currentColor" d="M4.224 8.47L5.7 9.948a7 7 0 0 0 9.354 9.353l1.475 1.475A9 9 0 0 1 4.223 8.47M14 2a1 1 0 1 1 0 2h-1v.057a8.95 8.95 0 0 1 4.041 1.487l.568-.567a1 1 0 1 1 1.414 1.414l-.458.457A8.97 8.97 0 0 1 21 13c0 1.868-.573 3.6-1.548 5.038l1.755 1.755a1 1 0 0 1-1.414 1.414l-16.5-16.5a1 1 0 1 1 1.414-1.414l2.251 2.25A8.95 8.95 0 0 1 11 4.058V4h-1a1 1 0 0 1 0-2zm-2 4a6.96 6.96 0 0 0-3.593.993L11 9.586V9a1 1 0 1 1 2 0v2.586l5.006 5.006A6.96 6.96 0 0 0 19 13a6.98 6.98 0 0 0-2.38-5.258a1 1 0 0 1-.206-.156l-.056-.062A6.97 6.97 0 0 0 12 6" /></g></svg>