<svg xmlns="http://www.w3.org/2000/svg" viewBox="0 0 24 24" width="48" height="48"><g fill="none"><path fill="currentColor" d="M19 11.5a1.5 1.5 0 0 1 .144 2.993L19 14.5h-1.272q.086.198.155.405c1.06 3.18-1.238 6.461-4.55 6.591l-.203.004h-1.702a6.24 6.24 0 0 1-5.462-3.224l-.117-.224l-.178-.355a1.5 1.5 0 0 1-.157-.902a1.499 1.499 0 0 1 2.725-.64l.062.098l.231.458a3.24 3.24 0 0 0 2.692 1.783l.204.006h1.701a2.01 2.01 0 0 0 1.054-3.723l-.154-.086l-.383-.191H5a1.5 1.5 0 0 1-.144-2.993L5 11.5zm-6.428-9a6.24 6.24 0 0 1 5.462 3.224l.117.224l.176.352a1.501 1.501 0 0 1-2.582 1.522l-.053-.087l-.224-.446a3.24 3.24 0 0 0-2.692-1.783l-.204-.006h-1.701a2.01 2.01 0 0 0-1.054 3.723l.154.086l1.383.691H6.522a5 5 0 0 1-.405-.905c-1.06-3.18 1.238-6.461 4.55-6.591l.204-.004z" /></g></svg>