<svg xmlns="http://www.w3.org/2000/svg" viewBox="0 0 24 24" width="48" height="48"><g fill="none"><path fill="currentColor" d="M19 12a1 1 0 0 1 .117 1.993L19 14h-2.11q.327.492.518 1.063c.953 2.859-1.109 5.809-4.083 5.933L13.13 21h-1.702a5.74 5.74 0 0 1-5.02-2.958l-.112-.213l-.182-.365a1 1 0 0 1-.105-.6a1 1 0 0 1 1.817-.427l.042.066l.217.431a3.74 3.74 0 0 0 3.131 2.06l.212.006h1.701a2.51 2.51 0 0 0 1.297-4.66l-.174-.096l-.488-.244H5a1 1 0 0 1-.117-1.993L5 12zm-6.428-9a5.74 5.74 0 0 1 5.132 3.171l.18.363a1.002 1.002 0 0 1-1.405 1.32a1 1 0 0 1-.316-.306l-.035-.058l-.213-.424A3.74 3.74 0 0 0 12.572 5h-1.701a2.51 2.51 0 0 0-1.123 4.756L12.236 11H8.013A4.5 4.5 0 0 1 6.59 8.937C5.618 6.017 7.791 3 10.871 3z" /></g></svg>