<svg xmlns="http://www.w3.org/2000/svg" viewBox="0 0 24 24" width="48" height="48"><g fill="none" fill-rule="evenodd"><path fill="currentColor" d="M9.879 4.222a4 4 0 0 1 1.147 2.388c.873.096 1.72.479 2.388 1.148a4 4 0 0 1 1.148 2.387a4.002 4.002 0 0 1 3.006 6.008l2.21 2.211a1 1 0 1 1-1.414 1.414l-2.21-2.21a4.002 4.002 0 0 1-6.008-3.006a4 4 0 0 1-2.388-1.148a4 4 0 0 1-1.148-2.388a4 4 0 1 1 3.27-6.804Zm2.828 8.485a2 2 0 1 0 2.829 2.828a2 2 0 0 0-2.829-2.828M12 9.172a2 2 0 1 0-1.571 3.408c.195-.468.483-.907.864-1.287c.38-.381.819-.669 1.287-.864A2 2 0 0 0 12 9.172M8.465 5.636a2 2 0 1 0-1.571 3.408a4 4 0 0 1 .864-1.286a4 4 0 0 1 1.286-.864a2 2 0 0 0-.58-1.258Z" /></g></svg>