<svg xmlns="http://www.w3.org/2000/svg" viewBox="0 0 24 24" width="48" height="48"><g fill="none"><path fill="currentColor" d="M12 10a6 6 0 0 1 5.197 9H20a1 1 0 1 1 0 2H4a1 1 0 1 1 0-2h2.803A6 6 0 0 1 12 10m0 2a4 4 0 0 0-2.808 6.849l.163.15h5.29A4 4 0 0 0 12 12m9 3a1 1 0 0 1 .117 1.993L21 17h-1a1 1 0 0 1-.117-1.993L20 15zM4 15a1 1 0 0 1 .117 1.993L4 17H3a1 1 0 0 1-.117-1.993L3 15zm2.343-6.071l.707.707a1 1 0 0 1-1.414 1.414l-.707-.707a1 1 0 0 1 1.414-1.414m11.314 0a1 1 0 0 1 1.497 1.32l-.083.094l-.707.707a1 1 0 0 1-1.497-1.32l.083-.094zM12 1.879a1 1 0 0 1 .993.884L13 2.88v2.706l.414-.415a1 1 0 0 1 1.498 1.32l-.084.095l-2.12 2.121a1 1 0 0 1-1.32.083l-.095-.083l-2.121-2.121a1 1 0 0 1 1.32-1.498l.094.083l.414.415V2.88a1 1 0 0 1 1-1Z" /></g></svg>