<svg xmlns="http://www.w3.org/2000/svg" viewBox="0 0 24 24" width="48" height="48"><g fill="none" fill-rule="evenodd"><path fill="currentColor" d="M12 2c2.106 0 4.06.65 5.67 1.762c-.169.244-.35.519-.527.814l-.096.164l-.203.365C16.431 5.882 16 6.927 16 8c0 1.97 1.563 4 4 4c.752 0 1.421-.193 1.987-.519Q22 11.739 22 12c0 5.523-4.477 10-10 10S2 17.523 2 12S6.477 2 12 2m0 12H9a1 1 0 1 0 0 2h3a1 1 0 1 0 0-2m-3-4H6a1 1 0 1 0 0 2h3a1 1 0 1 0 0-2m6 0h-3a1 1 0 1 0 0 2h3a1 1 0 1 0 0-2m5.05-5.94l.238.3l.205.272C21.085 5.44 22 6.872 22 8c0 1-.797 2-2 2s-2-1-2-2c0-.845.515-1.862 1.022-2.66l.215-.326l.205-.293l.187-.253l.223-.288l.098-.12a.064.064 0 0 1 .1 0" /></g></svg>