<svg xmlns="http://www.w3.org/2000/svg" viewBox="0 0 24 24" width="48" height="48"><g fill="none" fill-rule="evenodd"><path fill="currentColor" d="M19.071 3.93a1 1 0 0 1 .993.883l.007.116v5.657a1 1 0 0 1-.315.729l-.09.075l-7.198 5.32l.946.947a1 1 0 0 1 .084 1.32l-.084.094L12 20.485a1 1 0 0 1-1.036.238l-.118-.05l-2.184-1.092l-1.612 1.612a1 1 0 0 1-1.32.083l-.094-.083l-2.828-2.829a1 1 0 0 1-.083-1.32l.083-.094l1.611-1.612l-1.091-2.183a1 1 0 0 1 .102-1.059L3.515 12l1.414-1.414a1 1 0 0 1 1.32-.083l.094.083l.947.947l5.32-7.198a1 1 0 0 1 .687-.399l.117-.007h5.657ZM5.636 12.706l-.197.198l1.092 2.184a1 1 0 0 1-.188 1.154L4.93 17.657l1.414 1.414l1.415-1.414a1 1 0 0 1 1.154-.187l2.184 1.092l.197-.198l-5.657-5.657ZM18.071 5.93H13.92l-5.2 7.033l2.318 2.317l7.033-5.198z" /></g></svg>