<svg xmlns="http://www.w3.org/2000/svg" viewBox="0 0 24 24" width="48" height="48"><g fill="none"><path fill="currentColor" d="M12 2q.563 0 1.11.061a1 1 0 0 1-.22 1.988a8 8 0 1 0 7.061 7.061a1 1 0 1 1 1.988-.22q.06.547.061 1.11c0 5.523-4.477 10-10 10S2 17.523 2 12S6.477 2 12 2m-.032 5.877a1 1 0 0 1-.719 1.217A3.002 3.002 0 0 0 12 15a3 3 0 0 0 2.906-2.25a1 1 0 0 1 1.936.5A5.002 5.002 0 0 1 7 12a5 5 0 0 1 3.75-4.842a1 1 0 0 1 1.218.719m6.536-5.75a1 1 0 0 1 .617.923v1.83h1.829a1 1 0 0 1 .707 1.707L18.12 10.12a1 1 0 0 1-.707.293H15l-1.828 1.829a1 1 0 0 1-1.415-1.415L13.586 9V6.586a1 1 0 0 1 .293-.707l3.535-3.536a1 1 0 0 1 1.09-.217m-1.383 3.337L15.586 7v1.414H17l1.536-1.535h-.415a1 1 0 0 1-1-1z" /></g></svg>