<svg xmlns="http://www.w3.org/2000/svg" viewBox="0 0 24 24" width="48" height="48"><g fill="none" fill-rule="evenodd"><path fill="currentColor" d="M3 3a1 1 0 0 0 0 2c.493 0 .934.166 1.479.498c.279.17.564.371.897.607l.022.015c.32.226.677.478 1.068.726c.377.238.796.438 1.27.602a7 7 0 1 0 8.527 0a6 6 0 0 0 1.27-.602c.392-.248.75-.5 1.069-.726l.022-.015c.333-.236.618-.436.897-.607C20.066 5.166 20.507 5 21 5a1 1 0 1 0 0-2c-1.007 0-1.816.36-2.521.791c-.346.212-.686.452-1.009.68l-.007.005c-.33.233-.65.46-.997.678C15.7 5.638 14.472 6 12 6s-3.7-.362-4.466-.846a22 22 0 0 1-.997-.678l-.007-.005a18 18 0 0 0-1.009-.68C4.816 3.361 4.007 3 3 3m4 10a5 5 0 1 1 10 0a5 5 0 0 1-10 0" /></g></svg>