<svg xmlns="http://www.w3.org/2000/svg" viewBox="0 0 24 24" width="48" height="48"><g fill="none" fill-rule="evenodd"><path fill="currentColor" d="M21.84 6.056a1.5 1.5 0 0 0-2.063-1.626l-17.1 7.2c-1.192.502-1.253 2.226 0 2.746a57 57 0 0 0 3.774 1.418c1.168.386 2.442.743 3.463.844c.279.334.63.656.988.95c.547.45 1.205.913 1.885 1.357c1.362.89 2.873 1.741 3.891 2.295c1.217.66 2.674-.1 2.892-1.427zM4.594 12.993l15.124-6.368l-2.118 12.84c-.999-.543-2.438-1.356-3.72-2.194a20 20 0 0 1-1.709-1.229a8 8 0 0 1-.426-.374l3.961-3.96a1 1 0 0 0-1.414-1.415L9.955 14.63c-.734-.094-1.756-.366-2.878-.736a49 49 0 0 1-2.482-.902Z" /></g></svg>