<svg xmlns="http://www.w3.org/2000/svg" viewBox="0 0 24 24" width="48" height="48"><g fill="none"><path fill="currentColor" d="M14.21 14.287a2 2 0 0 0 1.705-.14l5.196-3a2 2 0 0 0 .732-2.732l-2.5-4.33a2 2 0 0 0-2.732-.732l-5.196 3a2 2 0 0 0-1 1.751a2 2 0 0 0-.232.115l-4.33 2.5a2 2 0 0 0-1 1.751a2 2 0 0 0-.232.115l-1.732 1a2 2 0 0 0-.732 2.732l.5.866a2 2 0 0 0 2.732.732l1.732-1q.113-.066.215-.143a2 2 0 0 0 2.017.01l1.817-1.05l-2.09 4.874a1 1 0 1 0 1.84.788L13 16.539l2.08 4.855a1 1 0 0 0 1.84-.788z" /></g></svg>