<svg xmlns="http://www.w3.org/2000/svg" viewBox="0 0 24 24" width="48" height="48"><g fill="none"><path fill="currentColor" d="m19.705 15.854l-.56 3.362c-.137.82-.61 1.792-1.688 2.15l-.284.089l-.155.043l-.342.085q-.361.083-.809.156l-.472.07c-.662.086-1.452.15-2.395.177V20a1 1 0 1 0-2 0v1.986a24 24 0 0 1-2.395-.178l-.472-.069q-.448-.072-.81-.156l-.34-.085l-.303-.087l-.137-.044c-1.078-.359-1.55-1.332-1.687-2.15l-.56-3.363c.372.146.741.261 1.065.354C7.102 16.706 9.45 17 12 17s4.898-.294 6.639-.792a12 12 0 0 0 1.066-.354M12 2a1 1 0 0 1 1 1c0 1.39 1.01 2.137 1.947 2.606c.298.149.615.279.938.405l.65.251c.649.256 1.287.536 1.81.965c.302.246.655.663.655 1.273c0 .494-.198.88-.47 1.18l.45.128l.32.1l.33.114c1.16.422 2.37 1.122 2.37 2.405c0 1.189-1.048 1.907-2.123 2.357l-.323.127l-.16.058l-.313.105l-.3.092l-.142.042C16.898 15.706 14.55 16 12 16c-2.381 0-4.584-.257-6.283-.695l-.499-.139l-.3-.092l-.313-.105l-.16-.058l-.322-.127C3.048 14.334 2 13.616 2 12.427c0-1.283 1.21-1.983 2.37-2.405l.33-.114l.32-.1l.45-.128A1.7 1.7 0 0 1 5 8.5c0-.61.353-1.027.654-1.273c.522-.427 1.16-.708 1.809-.963l.65-.252c.323-.126.64-.257.94-.406c.89-.445 1.846-1.143 1.94-2.402L11 3a1 1 0 0 1 1-1" /></g></svg>