<svg xmlns="http://www.w3.org/2000/svg" viewBox="0 0 24 24" width="48" height="48"><g fill="none"><path fill="currentColor" d="M20 16.5a1.5 1.5 0 0 1 0 3h-8a1.5 1.5 0 0 1 0-3zM5.404 5.282l5.657 5.657a1.5 1.5 0 0 1 0 2.122l-5.657 5.657a1.5 1.5 0 1 1-2.121-2.122L7.879 12L3.283 7.404a1.5 1.5 0 0 1 2.12-2.122M18 2a1 1 0 0 1 .947.677l.129.378a3 3 0 0 0 1.87 1.87l.377.129a1 1 0 0 1 0 1.892l-.378.13a3 3 0 0 0-1.87 1.869l-.128.378a1 1 0 0 1-1.893 0l-.13-.378a3 3 0 0 0-1.869-1.87l-.378-.129a1 1 0 0 1 0-1.892l.378-.13a3 3 0 0 0 1.87-1.869l.129-.378A1 1 0 0 1 18 2" /></g></svg>