<svg xmlns="http://www.w3.org/2000/svg" viewBox="0 0 24 24" width="48" height="48"><g fill="none"><path fill="currentColor" d="M12 3a1 1 0 1 1 0 2H5v14h14v-6a1 1 0 1 1 2 0v6a2 2 0 0 1-2 2H5a2 2 0 0 1-2-2V5a2 2 0 0 1 2-2zm4 11a1 1 0 1 1 0 2h-2a1 1 0 1 1 0-2zM9.05 8.465l2.829 2.828a1 1 0 0 1 0 1.414L9.05 15.535a1.001 1.001 0 0 1-1.415-1.414L9.758 12L7.636 9.879A1 1 0 0 1 9.05 8.465M19 1a1 1 0 0 1 .946.677l.13.378c.3.879.99 1.57 1.87 1.87l.377.129a1 1 0 0 1 0 1.892l-.378.13c-.879.3-1.57.99-1.87 1.87l-.129.377a1 1 0 0 1-1.892 0l-.13-.378a3 3 0 0 0-1.87-1.87l-.377-.129a1 1 0 0 1 0-1.892l.378-.13c.879-.3 1.57-.99 1.87-1.87l.129-.377C18.222 1.285 18.552 1 19 1m0 3.196a5 5 0 0 1-.804.804q.449.355.804.803q.356-.447.803-.803A5 5 0 0 1 19 4.196" /></g></svg>