<svg xmlns="http://www.w3.org/2000/svg" viewBox="0 0 24 24" width="48" height="48"><g fill="none"><path fill="currentColor" d="M18 2a1 1 0 0 1 .946.677l.13.378c.3.879.99 1.57 1.87 1.87l.377.129a1 1 0 0 1 0 1.892l-.378.13c-.879.3-1.57.99-1.87 1.87l-.129.377a1 1 0 0 1-1.892 0l-.13-.378a3 3 0 0 0-1.87-1.87l-.377-.129a1 1 0 0 1 0-1.892l.378-.13c.879-.3 1.57-.99 1.87-1.87l.129-.377C17.222 2.285 17.552 2 18 2m0 3.196a5 5 0 0 1-.804.804q.448.355.804.803A5 5 0 0 1 18.803 6A5 5 0 0 1 18 5.196m-12.95.44l5.657 5.657a1 1 0 0 1 0 1.414L5.05 18.364a1 1 0 0 1-1.414-1.414L8.586 12l-4.95-4.95A1 1 0 1 1 5.05 5.636M20 17a1 1 0 1 1 0 2h-8a1 1 0 1 1 0-2z" /></g></svg>