<svg xmlns="http://www.w3.org/2000/svg" viewBox="0 0 24 24" width="48" height="48"><g fill="none"><path fill="currentColor" d="M12 2c5.523 0 10 4.477 10 10s-4.477 10-10 10S2 17.523 2 12S6.477 2 12 2m0 9a3 3 0 0 0-3 3v1a3 3 0 1 0 6 0v-1a3 3 0 0 0-3-3m0 2a1 1 0 0 1 1 1v1a1 1 0 1 1-2 0v-1a1 1 0 0 1 1-1M8.422 7.276c-.46.115-.895.383-1.245.733s-.618.785-.733 1.245c-.11.437-.113 1.091.38 1.583c.492.493 1.146.489 1.583.38c.46-.115.894-.383 1.245-.733c.35-.35.618-.785.732-1.245c.11-.437.114-1.091-.379-1.584c-.492-.492-1.146-.488-1.583-.379m5.573.38c-.493.492-.489 1.146-.38 1.583c.115.46.383.895.733 1.245s.785.618 1.245.733c.437.109 1.091.113 1.584-.38c.492-.492.488-1.146.379-1.583c-.115-.46-.383-.895-.733-1.245s-.785-.618-1.245-.733c-.437-.109-1.09-.113-1.583.38" /></g></svg>