<svg xmlns="http://www.w3.org/2000/svg" viewBox="0 0 24 24" width="48" height="48"><g fill="none"><path fill="currentColor" d="M7 3a1 1 0 0 1 1 1h8a1 1 0 0 1 1-1h3a1 1 0 0 1 1 1v3a1 1 0 0 1-1 1v8a1 1 0 0 1 1 1v3a1 1 0 0 1-1 1h-3a1 1 0 0 1-1-1H8a1 1 0 0 1-1 1H4a1 1 0 0 1-1-1v-3a1 1 0 0 1 1-1V8a1 1 0 0 1-1-1V4a1 1 0 0 1 1-1zm12 15h-1v1h1zM6 18H5v1h1zm6-11a1.71 1.71 0 0 0-1.556 1.002l-.054.133l-2.332 6.529a1 1 0 0 0 1.838.78l.046-.108l.477-1.336h3.162l.477 1.336a1 1 0 0 0 1.917-.56l-.033-.112l-2.332-6.53A1.71 1.71 0 0 0 12 7m0 2.573L12.867 12h-1.734zM6 5H5v1h1zm13 0h-1v1h1z" /></g></svg>