<svg xmlns="http://www.w3.org/2000/svg" viewBox="0 0 24 24" width="48" height="48"><g fill="none"><path fill="currentColor" d="M12 3c.768 0 1.47.289 2 .764a3 3 0 0 1 1.772-.755L16 3h1a1 1 0 0 1 .117 1.993L17 5h-1a1 1 0 0 0-.993.883L15 6v12a1 1 0 0 0 .883.993L16 19h1a1 1 0 0 1 .117 1.993L17 21h-1c-.768 0-1.47-.289-2-.764a3 3 0 0 1-1.772.755L12 21h-1a1 1 0 0 1-.117-1.993L11 19h1a1 1 0 0 0 .993-.883L13 18V6a1 1 0 0 0-.883-.993L12 5h-1a1 1 0 0 1-.117-1.993L11 3zm7 4a2 2 0 0 1 1.995 1.85L21 9v6a2 2 0 0 1-1.85 1.995L19 17h-3v-2h3V9h-3V7zM5 13v2h7v2H5a2 2 0 0 1-1.995-1.85L3 15v-2zm1-9a1 1 0 0 1 .898.56l.048.117l.13.378a3 3 0 0 0 1.684 1.8l.185.07l.378.129a1 1 0 0 1 .117 1.844l-.117.048l-.378.13a3 3 0 0 0-1.8 1.684l-.07.185l-.129.378a1 1 0 0 1-1.844.118l-.048-.118l-.13-.378a3 3 0 0 0-1.684-1.8l-.185-.07l-.378-.129a1 1 0 0 1-.117-1.844l.117-.048l.378-.13a3 3 0 0 0 1.8-1.684l.07-.185l.129-.378A1 1 0 0 1 6 4m0 3.196A5 5 0 0 1 5.196 8q.448.355.804.804q.355-.449.804-.804A5 5 0 0 1 6 7.196" /></g></svg>