<svg xmlns="http://www.w3.org/2000/svg" viewBox="0 0 24 24" width="48" height="48"><g fill="none"><path fill="currentColor" d="M1.5 12c0-4.788 3.205-8.826 7.584-10.09a1.5 1.5 0 0 1 .831 2.883a7.5 7.5 0 1 0 9.293 9.287a1.5 1.5 0 0 1 2.883.83C20.829 19.294 16.79 22.5 12 22.5C6.201 22.5 1.5 17.8 1.5 12m17.656-5.665a1.5 1.5 0 0 1 2.037.591a10.6 10.6 0 0 1 .893 2.152a1.5 1.5 0 0 1-2.88.838a7.6 7.6 0 0 0-.64-1.543a1.5 1.5 0 0 1 .59-2.038m-6.101-3.4a1.5 1.5 0 0 1 1.858-1.023a10.6 10.6 0 0 1 2.152.89a1.5 1.5 0 1 1-1.444 2.63a7.6 7.6 0 0 0-1.544-.64a1.5 1.5 0 0 1-1.022-1.858" /></g></svg>