<svg xmlns="http://www.w3.org/2000/svg" viewBox="0 0 24 24" width="48" height="48"><g fill="none"><path fill="currentColor" d="M2 12c0-4.7 3.243-8.642 7.612-9.713a1.001 1.001 0 0 1 .477 1.943a8 8 0 1 0 9.682 9.682a1 1 0 0 1 1.942.475c-1.07 4.37-5.012 7.614-9.713 7.614c-5.523 0-10-4.478-10-10m17.184-5.517a1 1 0 0 1 1.373.34a10 10 0 0 1 1.155 2.788a1 1 0 0 1-1.942.48a8 8 0 0 0-.38-1.152a8 8 0 0 0-.545-1.083a1 1 0 0 1 .339-1.373M13.179 3.02a1 1 0 0 1 1.21-.73a10 10 0 0 1 2.789 1.155a1 1 0 1 1-1.033 1.712a8 8 0 0 0-2.236-.926a1 1 0 0 1-.73-1.21" /></g></svg>