<svg xmlns="http://www.w3.org/2000/svg" viewBox="0 0 24 24" width="48" height="48"><g fill="none" fill-rule="evenodd"><path fill="currentColor" d="M9.5 2.5c1.356 0 2.294.852 2.895 2.053c.522 1.045.571 2.3.597 3.447h4.834a3 3 0 0 1 2.99 3.25l-.361 4.331A7 7 0 0 1 13.479 22h-1.512a6.96 6.96 0 0 1-4.642-1.762a1.24 1.24 0 0 0-1.009-.298A5.5 5.5 0 0 1 5.5 20c-1.108 0-2.028-.62-2.624-1.608C2.296 17.432 2 16.107 2 14.5s.297-2.931.876-3.891C3.472 9.62 4.392 9 5.5 9c.281 0 .579.05.877.134c.458-1.2.784-2.437.63-3.735C6.835 3.954 8.016 2.5 9.5 2.5" /></g></svg>