<svg xmlns="http://www.w3.org/2000/svg" viewBox="0 0 24 24" width="48" height="48"><g fill="none" fill-rule="evenodd"><path fill="currentColor" d="M9.5 21.5c1.356 0 2.294-.852 2.895-2.053c.522-1.044.571-2.3.597-3.447h4.834a3 3 0 0 0 2.99-3.25l-.361-4.331A7 7 0 0 0 13.479 2h-1.512A6.94 6.94 0 0 0 6.9 4.179a5.5 5.5 0 0 0-1.4-.18c-1.108 0-2.028.622-2.624 1.61c-.58.96-.876 2.284-.876 3.89s.297 2.932.876 3.892C3.472 14.38 4.392 15 5.5 15c.281 0 .579-.05.877-.134c.458 1.2.784 2.437.63 3.735C6.835 20.046 8.016 21.5 9.5 21.5" /></g></svg>