<svg xmlns="http://www.w3.org/2000/svg" viewBox="0 0 24 24" width="48" height="48"><g fill="none" fill-rule="evenodd"><path fill="currentColor" d="M10.975 3.002a1 1 0 0 1-.754 1.196a8 8 0 0 0-.583.156a1 1 0 0 1-.59-1.911q.36-.112.73-.195a1 1 0 0 1 1.197.754m2.05 0a1 1 0 0 1 1.196-.754c4.454 1.01 7.78 4.992 7.78 9.752c0 5.523-4.478 10-10 10c-4.761 0-8.743-3.325-9.753-7.779a1 1 0 0 1 1.95-.442a8 8 0 1 0 9.58-9.58a1 1 0 0 1-.753-1.197M6.614 4.72a1 1 0 0 1-.053 1.414q-.222.205-.427.426A1 1 0 0 1 4.668 5.2q.255-.276.532-.533a1 1 0 0 1 1.414.053M12 6a1 1 0 0 1 1 1v4.586l2.707 2.707a1 1 0 0 1-1.414 1.414l-3-3A1 1 0 0 1 11 12V7a1 1 0 0 1 1-1M3.693 8.388a1 1 0 0 1 .661 1.25a8 8 0 0 0-.156.583a1 1 0 0 1-1.95-.442q.084-.37.195-.73a1 1 0 0 1 1.25-.661" /></g></svg>