<svg xmlns="http://www.w3.org/2000/svg" viewBox="0 0 24 24" width="48" height="48"><g fill="none" fill-rule="evenodd"><path fill="currentColor" d="M11.463 2.891a1.5 1.5 0 0 1-1.131 1.795q-.277.063-.546.146A1.5 1.5 0 1 1 8.9 1.965q.378-.117.767-.205a1.5 1.5 0 0 1 1.795 1.131m1.074 0a1.5 1.5 0 0 1 1.795-1.13C19.008 2.82 22.5 7 22.5 12c0 5.799-4.701 10.5-10.5 10.5c-4.999 0-9.179-3.492-10.24-8.168a1.5 1.5 0 0 1 2.926-.664a7.5 7.5 0 1 0 8.982-8.982a1.5 1.5 0 0 1-1.13-1.795M6.98 4.381A1.5 1.5 0 0 1 6.9 6.5a8 8 0 0 0-.4.4a1.5 1.5 0 1 1-2.2-2.04q.27-.29.56-.56a1.5 1.5 0 0 1 2.12.08M12 5.5A1.5 1.5 0 0 1 13.5 7v4.379l2.56 2.56a1.5 1.5 0 1 1-2.12 2.122l-3-3A1.5 1.5 0 0 1 10.5 12V7A1.5 1.5 0 0 1 12 5.5M3.84 7.91a1.5 1.5 0 0 1 .992 1.876a8 8 0 0 0-.146.546a1.5 1.5 0 0 1-2.926-.664q.088-.39.205-.767a1.5 1.5 0 0 1 1.876-.991" /></g></svg>