<svg xmlns="http://www.w3.org/2000/svg" viewBox="0 0 24 24" width="48" height="48"><g fill="none" fill-rule="evenodd"><path fill="currentColor" d="M8.232 2.36a1 1 0 0 1 1.14-.288l.107.05l11 6a1 1 0 0 1-.366 1.872L20 10h-2v2.994a.3.3 0 0 0 .057.085c.058.067.146.142.26.216l.122.072A3 3 0 1 1 14 16a1 1 0 0 1 1.993-.117L16 16a1 1 0 1 0 1.479-.878a3.4 3.4 0 0 1-.94-.741a2.15 2.15 0 0 1-.53-1.192L16 13v-3h-4v11a1 1 0 0 1-.883.993L11 22H7a1 1 0 0 1-.993-.883L6 21V10H4a1 1 0 0 1-.844-1.537l.076-.103zM10 17.618l-2 1V20h2zm0-4l-2 1v1.764l2-1zM10 10H8v2.382l2-1zM8 5.762L6.135 8H8zm2-1.077V8h6.078z" /></g></svg>