<svg xmlns="http://www.w3.org/2000/svg" viewBox="0 0 24 24" width="48" height="48"><g fill="none" fill-rule="evenodd"><path fill="currentColor" d="M9 2.5a1.5 1.5 0 0 1 1.493 1.356L10.5 4v.5H14a1.5 1.5 0 0 1 .144 2.993L14 7.5h-.617c-.284 1.826-1.078 3.571-2.284 5.12q.419.333.882.643l.315.203l1.836-4.082a1.5 1.5 0 0 1 2.67-.13l.066.13l4.5 10a1.5 1.5 0 0 1-2.67 1.36l-.066-.128l-.952-2.116h-4.36l-.952 2.116a1.5 1.5 0 0 1-2.789-1.097l.053-.134l1.423-3.163a16 16 0 0 1-2.057-1.445a16.6 16.6 0 0 1-4.441 2.616a1.5 1.5 0 1 1-1.114-2.786a13.6 13.6 0 0 0 3.459-1.986a12.2 12.2 0 0 1-1.512-2.515a1.5 1.5 0 1 1 2.745-1.212A9 9 0 0 0 9 10.414c.583-.831 1-1.706 1.244-2.584l.083-.33H4a1.5 1.5 0 0 1-.145-2.993L4 4.5h3.5V4A1.5 1.5 0 0 1 9 2.5m6.5 11.155l-.83 1.845h1.66z" /></g></svg>