<svg xmlns="http://www.w3.org/2000/svg" viewBox="0 0 24 24" width="48" height="48"><g fill="none"><path fill="currentColor" d="M8.56 11.9a1.5 1.5 0 0 1 0 2.12l-.974.976H16a1.5 1.5 0 0 1 0 3H7.586l.975.974a1.5 1.5 0 1 1-2.122 2.122l-3.535-3.536a1.5 1.5 0 0 1 0-2.121l3.535-3.536a1.5 1.5 0 0 1 2.122 0Zm6.88-9a1.5 1.5 0 0 1 2.007-.104l.114.103l3.535 3.536a1.5 1.5 0 0 1 .103 2.007l-.103.114l-3.535 3.536a1.5 1.5 0 0 1-2.225-2.008l.103-.114l.975-.974H8a1.5 1.5 0 0 1-.144-2.994L8 5.996h8.414l-.975-.975a1.5 1.5 0 0 1 0-2.122Z" /></g></svg>