<svg xmlns="http://www.w3.org/2000/svg" viewBox="0 0 24 24" width="48" height="48"><g fill="none" fill-rule="evenodd"><path fill="currentColor" d="m12.707 2.293l4 4a1 1 0 0 1 .175 1.178c-.247.463-.633.775-1.01.987l2.835 2.835a1 1 0 0 1 0 1.414c-.478.478-1.082.77-1.634.952l2.634 2.634a1 1 0 0 1-.392 1.656c-.692.229-1.405.389-2.119.532c-.542.108-1.175.216-1.88.306l.633 1.897A1 1 0 0 1 15 22H9a1 1 0 0 1-.949-1.316l.633-1.897a27 27 0 0 1-1.88-.306a23 23 0 0 1-1.591-.378l-.53-.154a1 1 0 0 1-.39-1.656l2.634-2.634c-.552-.181-1.156-.474-1.634-.952a1 1 0 0 1 0-1.414l2.835-2.835c-.377-.212-.763-.524-1.01-.987a1 1 0 0 1 .175-1.178l4-4a1 1 0 0 1 1.414 0m.562 16.675a26 26 0 0 1-2.123.018l-.415-.018L10.387 20h3.226zM12 4.414L9.528 6.886l.1.029l.187.043l.276.046c.383.04.717.29.85.655a1 1 0 0 1-.234 1.048L7.63 11.784c.423.13.905.216 1.372.216a1 1 0 0 1 .705 1.707l-2.76 2.761l.514.103C8.639 16.793 10.218 17 12 17a24.7 24.7 0 0 0 4.26-.378l.544-.103l.25-.051l-2.761-2.76a1 1 0 0 1 .588-1.7l.118-.008a5 5 0 0 0 1.371-.216l-3.077-3.077a1 1 0 0 1 .488-1.683l.323-.05l.172-.036q.094-.02.196-.052z" /></g></svg>