<svg xmlns="http://www.w3.org/2000/svg" viewBox="0 0 24 24" width="48" height="48"><g fill="none" fill-rule="evenodd"><path fill="currentColor" d="M4.293 4.793C6.046 3.04 8.438 2.55 10.316 3.176c.946.316 1.787.926 2.302 1.828q.141.245.243.51c1.385-.737 2.916-.834 4.248-.322c2.13.82 3.456 3.082 2.872 6.004a1 1 0 0 1-1.232.772l-.12-.04l-4.724-1.889c.635 2.269.7 4.579.593 6.395a25 25 0 0 1-.193 1.962l-.078.524l-.038.233c-.062.365-.13.73-.219 1.09a1 1 0 0 1-.857.75L13 21H9.5a1 1 0 0 1-.85-.474c-.26-.419-.112-.847.07-1.26l.165-.365q.027-.06.05-.12l.138-.374a16 16 0 0 0 .516-1.76c.322-1.38.526-3.08.283-4.834l-.059-.377l-4.533 2.912a1 1 0 0 1-1.53-.703c-.376-2.693.716-5.091 2.57-6.352l.129-.086l.13-.08l-1.915-.685a1 1 0 0 1-.371-1.649m7.552 5.339l-.232.149c.624 2.53.351 4.988-.077 6.821c-.17.734-.37 1.378-.552 1.898h1.201l.07-.407l.07-.479q.018-.127.035-.264l.065-.573q.046-.453.077-.96c.107-1.832.017-4.084-.657-6.185M10.48 8.63c-1.133-.45-2.207-.248-3.037.316c-.762.519-1.376 1.386-1.635 2.48l-.05.238zm2.775-1.004l4.856 1.942c-.088-1.341-.845-2.172-1.72-2.51c-.885-.34-2.065-.244-3.136.568M7.181 5.217l3.918 1.4a1.9 1.9 0 0 0-.217-.62c-.235-.412-.644-.739-1.198-.923c-.71-.237-1.617-.22-2.503.143" /></g></svg>