<svg xmlns="http://www.w3.org/2000/svg" viewBox="0 0 24 24" width="48" height="48"><g fill="none" fill-rule="evenodd"><path fill="currentColor" d="M17.834 4.625A2 2 0 0 1 20 4.473l.144.088l.91.607a1 1 0 0 1-1.008 1.723l-.1-.059l-.912-.607l-2.603 1.952l.568.485l.509.45l.669.613l.19.178c.259.246.635.369.95.523a3 3 0 0 1 1.676 2.494l.007.2V15a3 3 0 0 1-2.824 2.995L18 18h-2.17a3.001 3.001 0 0 1-5.592.172L10.17 18H3v-2h7.17a3.001 3.001 0 0 1 5.591-.172l.067.172H18a1 1 0 0 0 .993-.883L19 15v-1.88a1 1 0 0 0-.56-.897l-.438-.212c-.362-.179-.713-.373-1.01-.656l-.455-.423l-.3-.273l-.34-.303l-.373-.325l-.4-.34l-.207-.171c-.926-.762-1.908-1.483-2.67-1.856c-.668-.326-1.534-.415-2.358-.46l-.896-.043l-.278-.016a68 68 0 0 0-4.902-.143l-.794.01l-.038-2a72 72 0 0 1 5.064.088l1.79.11c1.123.07 2.324.186 3.29.657c.426.209.88.486 1.334.796l.34.238zM13.014 16h-.028a1 1 0 1 0 .028 0" /></g></svg>