<svg xmlns="http://www.w3.org/2000/svg" viewBox="0 0 24 24" width="48" height="48"><g fill="none" fill-rule="evenodd"><path fill="currentColor" d="m19.668 7.248l-.617-.411l-1.82 1.365a45 45 0 0 1 1.48 1.338c.218.207.56.307.826.436a3.5 3.5 0 0 1 1.963 3.145V15a3.5 3.5 0 0 1-3.5 3.5h-1.837a3.5 3.5 0 0 1-6.326 0H3v-3h6.837a3.5 3.5 0 0 1 6.326 0H18a.5.5 0 0 0 .5-.5v-1.88a.5.5 0 0 0-.28-.45c-.557-.271-1.117-.52-1.573-.953A41 41 0 0 0 14.6 9.906c-.87-.715-1.745-1.607-2.874-1.883c-.99-.243-2.032-.31-3.046-.38a68 68 0 0 0-5.651-.131l-.058-3c1.882-.036 4.054.01 5.917.139c1.432.099 3.139.124 4.456.767c.467.228.959.53 1.445.865l2.745-2.058a2.5 2.5 0 0 1 2.887-.08l.911.607a1.5 1.5 0 1 1-1.664 2.496M13 16.5a.5.5 0 1 0 0 1a.5.5 0 0 0 0-1" /></g></svg>