<svg xmlns="http://www.w3.org/2000/svg" viewBox="0 0 24 24" width="48" height="48"><g fill="none" fill-rule="evenodd"><path fill="currentColor" d="M12 1a1 1 0 0 1 .993.883L13 2v2.17a3 3 0 0 1 1.222 4.846l-.137.141l.785 2.748A5 5 0 0 1 17 16a5 5 0 0 1-.759 2.65l-.136.205l1.727 2.59a1 1 0 0 1-1.594 1.203l-.07-.093l-1.535-2.303a5 5 0 0 1-1.342.58l-.29.068V22a1 1 0 0 1-1.994.117L11 22v-1.1a5 5 0 0 1-1.381-.502l-.251-.146l-1.536 2.303a1 1 0 0 1-1.723-1.009l.06-.1l1.726-2.59A5 5 0 0 1 7 16c0-1.609.76-3.04 1.94-3.955l.19-.14l.785-2.748a3 3 0 0 1 .913-4.92L11 4.172V2a1 1 0 0 1 1-1m2.961 15.483c-.79.256-1.86.517-2.96.517c-1.103 0-2.171-.26-2.962-.517a3 3 0 0 0 5.922 0M12.001 13a3 3 0 0 0-2.597 1.496c.713.25 1.68.504 2.596.504s1.883-.254 2.596-.504A3 3 0 0 0 12 13Zm.242-3.01a3 3 0 0 1-.324.009l-.162-.009l-.296 1.039c.265-.029.54-.036.81-.022l.269.022zM12 6a1 1 0 1 0 0 2a1 1 0 0 0 0-2" /></g></svg>