<svg xmlns="http://www.w3.org/2000/svg" viewBox="0 0 24 24" width="48" height="48"><g fill="none"><path fill="currentColor" d="M20 2a1 1 0 0 1 1 1v9a1 1 0 0 1-.2.6l-3 4q-.078.101-.176.18l-2.499 2.001A1 1 0 0 1 14.5 19h-3.086l-2.707 2.707A1 1 0 0 1 7 21v-2H4a1 1 0 0 1-1-1V6l.005-.099a1 1 0 0 1 .288-.608l3-3A1 1 0 0 1 7 2zM6 5.414l-1 1V17h2a1 1 0 0 1-1-1zM19 4H8v11h2a1 1 0 0 1 1 1v.364l1.36-1.133A1 1 0 0 1 13 15h3.501L19 11.667zm-7 2.5a1 1 0 0 1 1 1V11a1 1 0 1 1-2 0V7.5a1 1 0 0 1 1-1m4 0a1 1 0 0 1 1 1V11a1 1 0 1 1-2 0V7.5a1 1 0 0 1 1-1" /></g></svg>