<svg xmlns="http://www.w3.org/2000/svg" viewBox="0 0 24 24" width="48" height="48"><g fill="none" fill-rule="evenodd"><path fill="currentColor" d="M14 2c2.397 0 4.6.844 6.323 2.252l.985.804c.455.372.16 1.108-.425 1.063l-1.268-.096a8.2 8.2 0 0 0-2.159.126A7.98 7.98 0 0 1 20 12c0 5.523-4.477 10-10 10a9.97 9.97 0 0 1-6.322-2.251l-.985-.805c-.455-.372-.16-1.108.425-1.063l1.268.096c.72.054 1.464.01 2.159-.126A7.98 7.98 0 0 1 4 12C4 6.477 8.478 2 14 2m0 2a8 8 0 0 0-8 8a6 6 0 0 0 3.2 5.308l.719.38a.608.608 0 0 1-.028 1.085c-.731.34-1.472.662-2.249.874A8 8 0 0 0 18 12a6 6 0 0 0-3.199-5.308l-.719-.38a.608.608 0 0 1 .028-1.085c.731-.34 1.472-.662 2.249-.874A8 8 0 0 0 14 4m-2 5a3 3 0 1 1 0 6a3 3 0 0 1 0-6m0 2a1 1 0 1 0 0 2a1 1 0 0 0 0-2" /></g></svg>