<svg xmlns="http://www.w3.org/2000/svg" viewBox="0 0 24 24" width="48" height="48"><g fill="none" fill-rule="evenodd"><path fill="currentColor" d="M18.598 17.428a3 3 0 1 1-5.197 3a3 3 0 0 1 5.197-3m1.652-9.029A9 9 0 0 1 21 12a9 9 0 0 1-.75 3.6a1 1 0 1 1-1.832-.8A7 7 0 0 0 19 12c0-.997-.208-1.944-.582-2.8a1 1 0 0 1 1.832-.8M17.5 2.474a3 3 0 1 1-3 5.195a3 3 0 0 1 3-5.195M4.968 15.947a1 1 0 0 1 1.398.21a7 7 0 0 0 4.849 2.8a1 1 0 0 1-.222 1.987a9 9 0 0 1-6.234-3.598a1 1 0 0 1 .209-1.399M4 9a3 3 0 1 1 0 6a3 3 0 0 1 0-6m6.993-5.944a1 1 0 0 1 .222 1.988a7 7 0 0 0-4.849 2.8A1 1 0 0 1 4.76 6.655a9 9 0 0 1 6.234-3.6" /></g></svg>