<svg xmlns="http://www.w3.org/2000/svg" viewBox="0 0 24 24" width="48" height="48"><g fill="none"><path fill="currentColor" d="M18.598 17.428a3 3 0 1 1-5.196 3a3 3 0 0 1 5.196-3M6.367 16.156a7 7 0 0 0 4.848 2.8a1 1 0 0 1-.222 1.988a9 9 0 0 1-6.234-3.598a1 1 0 0 1 1.608-1.19m9.133 1.906a1 1 0 1 0 1 1.732a1 1 0 0 0-1-1.732M20.25 8.4A9 9 0 0 1 21 12a9 9 0 0 1-.75 3.601a1 1 0 1 1-1.832-.8A7 7 0 0 0 19 12c0-.998-.208-1.944-.582-2.8a1 1 0 1 1 1.832-.8M4 9a3 3 0 1 1 0 6a3 3 0 0 1 0-6m0 2a1 1 0 1 0 0 2a1 1 0 0 0 0-2m8.098-7.06a1 1 0 0 1-.883 1.104a7 7 0 0 0-4.848 2.8a1 1 0 1 1-1.608-1.189a9 9 0 0 1 6.234-3.6a1 1 0 0 1 1.105.884M17.5 2.473a3 3 0 1 1-3 5.196a3 3 0 0 1 3-5.196m-2.366 2.098a1 1 0 1 0 1.732 1a1 1 0 0 0-1.732-1" /></g></svg>