<svg xmlns="http://www.w3.org/2000/svg" viewBox="0 0 24 24" width="48" height="48"><g fill="none" fill-rule="evenodd"><path fill="currentColor" d="M12 2c5.523 0 10 4.477 10 10s-4.477 10-10 10S2 17.523 2 12S6.477 2 12 2m0 12a4.98 4.98 0 0 0-3.308 1.25a1 1 0 1 0 1.324 1.5A3 3 0 0 1 12 16c.761 0 1.455.282 1.984.75a1 1 0 1 0 1.324-1.5A4.98 4.98 0 0 0 12 14M9.164 9.45l-.058.102c-.162.324-.41.448-.606.448c-.17 0-.382-.095-.541-.336l-.065-.112a1 1 0 1 0-1.788.896C6.542 11.32 7.413 12 8.5 12s1.957-.68 2.394-1.552a1 1 0 0 0-1.73-.997Zm8.284-.344a1 1 0 0 0-1.284.345l-.058.101c-.162.324-.41.448-.606.448c-.17 0-.382-.095-.541-.336l-.065-.112a1 1 0 1 0-1.788.896C13.543 11.32 14.413 12 15.5 12s1.957-.68 2.394-1.552a1 1 0 0 0-.446-1.342" /></g></svg>