<svg xmlns="http://www.w3.org/2000/svg" viewBox="0 0 24 24" width="48" height="48"><g fill="none" fill-rule="evenodd"><path fill="currentColor" d="M12 2c5.523 0 10 4.477 10 10s-4.477 10-10 10S2 17.523 2 12S6.477 2 12 2m0 12a4.98 4.98 0 0 0-3.308 1.25a1 1 0 1 0 1.324 1.5A3 3 0 0 1 12 16c.761 0 1.455.282 1.984.75a1 1 0 1 0 1.324-1.5A4.98 4.98 0 0 0 12 14M8.707 8.293a1 1 0 0 0-1.497 1.32l.083.094l.293.293l-.293.293a1 1 0 0 0 1.32 1.497l.094-.083l.293-.293l.293.293a1 1 0 0 0 1.497-1.32l-.083-.094l-.293-.293l.293-.293a1 1 0 0 0-1.32-1.497l-.094.083L9 8.586zm4.586 0a1 1 0 0 0 0 1.414l.293.293l-.293.293a1 1 0 0 0 1.414 1.414l.293-.293l.293.293a1 1 0 0 0 1.414-1.414L16.414 10l.293-.293a1 1 0 0 0-1.414-1.414L15 8.586l-.293-.293a1 1 0 0 0-1.414 0" /></g></svg>