<svg xmlns="http://www.w3.org/2000/svg" viewBox="0 0 24 24" width="48" height="48"><g fill="none" fill-rule="evenodd"><path fill="currentColor" d="M6 7a5 5 0 1 1 10 0A5 5 0 0 1 6 7m-1.178 7.672C6.425 13.694 8.605 13 11 13q.671 0 1.316.07a1 1 0 0 1 .72 1.557A5.97 5.97 0 0 0 12 18c0 .92.207 1.79.575 2.567a1 1 0 0 1-.89 1.428Q11.345 22 11 22c-2.229 0-4.335-.14-5.913-.558c-.785-.208-1.524-.506-2.084-.956C2.41 20.01 2 19.345 2 18.5c0-.787.358-1.523.844-2.139c.494-.625 1.177-1.2 1.978-1.69ZM17.5 16a1.5 1.5 0 1 0 0 3a1.5 1.5 0 0 0 0-3M14 17.5a3.5 3.5 0 1 1 6.58 1.665l.834.835A1 1 0 1 1 20 21.414l-.835-.835A3.5 3.5 0 0 1 14 17.5" /></g></svg>