<svg xmlns="http://www.w3.org/2000/svg" viewBox="0 0 24 24" width="48" height="48"><g fill="none" fill-rule="evenodd"><path fill="currentColor" d="M6 7a5 5 0 1 1 10 0A5 5 0 0 1 6 7m5-3a3 3 0 1 0 0 6a3 3 0 0 0 0-6m.271 9.96a1 1 0 0 1-.934 1.061c-1.87.12-3.52.728-4.681 1.49c-.58.38-1.014.783-1.293 1.155c-.284.38-.363.666-.363.834l.005.062c.029.175.207.49 1.139.81c.995.34 2.467.532 4.258.6a1 1 0 1 1-.075 1.998c-1.842-.069-3.552-.268-4.832-.707C3.278 20.846 2 20.034 2 18.5c0-.744.32-1.443.763-2.033c.448-.598 1.068-1.151 1.796-1.629c1.456-.955 3.442-1.672 5.65-1.813a1 1 0 0 1 1.062.935m6.14 6.822a5.4 5.4 0 0 1-.822 0l-.087.325a1 1 0 0 1-1.932-.518l.09-.337q-.362-.18-.693-.42l-.26.259a1 1 0 0 1-1.414-1.414l.33-.331a5.4 5.4 0 0 1-.517-1.202a1 1 0 0 1 1.918-.568c.878 2.963 5.074 2.963 5.952 0a1 1 0 1 1 1.918.568c-.13.44-.306.841-.518 1.202l.331.33a1 1 0 0 1-1.414 1.415l-.26-.26q-.331.24-.693.421l.09.337a1 1 0 1 1-1.932.518z" /></g></svg>