<svg xmlns="http://www.w3.org/2000/svg" viewBox="0 0 24 24" width="48" height="48"><g fill="none" fill-rule="evenodd"><path fill="currentColor" d="M18.884 14.469a1 1 0 0 1 1.784.896l-.052.104l-.335.58a3 3 0 0 1 .482.782l.066.169h.671a1 1 0 0 1 .117 1.993L21.5 19h-.671a3 3 0 0 1-.41.776l-.138.174l.335.581a1 1 0 0 1-1.668 1.098l-.064-.098l-.335-.58c-.293.054-.59.063-.88.03l-.217-.032l-.336.582a1 1 0 0 1-1.784-.896l.052-.104l.335-.581a3 3 0 0 1-.482-.78l-.066-.17H14.5a1 1 0 0 1-.117-1.993L14.5 17h.672a3 3 0 0 1 .41-.776l.137-.174l-.335-.581a1 1 0 0 1 1.668-1.098l.064.098l.335.58c.293-.054.59-.063.88-.03l.217.031zM11 13q.671 0 1.316.07a1 1 0 0 1-.211 1.989Q11.564 15 11 15c-2.023 0-3.843.59-5.136 1.379c-.647.394-1.135.822-1.45 1.222c-.324.41-.414.72-.414.899c0 .122.037.251.255.426c.249.2.682.407 1.344.582C6.917 19.858 8.811 20 11 20l.658-.005a1 1 0 0 1 .027 2L11 22c-2.229 0-4.335-.14-5.913-.558c-.785-.208-1.524-.506-2.084-.956C2.41 20.01 2 19.345 2 18.5c0-.787.358-1.523.844-2.139c.494-.625 1.177-1.2 1.978-1.69C6.425 13.695 8.605 13 11 13m7 4a1 1 0 1 0 0 2a1 1 0 0 0 0-2M11 2a5 5 0 1 1 0 10a5 5 0 0 1 0-10m0 2a3 3 0 1 0 0 6a3 3 0 0 0 0-6" /></g></svg>