<svg xmlns="http://www.w3.org/2000/svg" viewBox="0 0 24 24" width="48" height="48"><g fill="none" fill-rule="evenodd"><path fill="currentColor" d="M11 13q.671 0 1.316.07a1 1 0 0 1-.211 1.989Q11.564 15 11 15c-2.023 0-3.843.59-5.136 1.379c-.647.394-1.135.822-1.45 1.222c-.324.41-.414.72-.414.899c0 .122.037.251.255.426c.249.2.682.407 1.344.582C6.917 19.858 8.811 20 11 20l.658-.005a1 1 0 0 1 .027 2L11 22c-2.229 0-4.335-.14-5.913-.558c-.785-.208-1.524-.506-2.084-.956C2.41 20.01 2 19.345 2 18.5c0-.787.358-1.523.844-2.139c.494-.625 1.177-1.2 1.978-1.69C6.425 13.695 8.605 13 11 13m7.5 0a2.5 2.5 0 0 1 2.495 2.336L21 15.5v.585c.538.19.935.678.993 1.266L22 17.5v3a1.5 1.5 0 0 1-1.356 1.493L20.5 22h-4a1.5 1.5 0 0 1-1.493-1.356L15 20.5v-3a1.5 1.5 0 0 1 .869-1.361l.131-.054V15.5a2.5 2.5 0 0 1 2.5-2.5m1.5 5h-3v2h3zm-1.5-3a.5.5 0 0 0-.5.5v.5h1v-.5a.5.5 0 0 0-.5-.5M11 2a5 5 0 1 1 0 10a5 5 0 0 1 0-10m0 2a3 3 0 1 0 0 6a3 3 0 0 0 0-6" /></g></svg>