<svg xmlns="http://www.w3.org/2000/svg" viewBox="0 0 24 24" width="48" height="48"><g fill="none"><path fill="currentColor" d="M11 2a5 5 0 1 0 0 10a5 5 0 0 0 0-10m0 11c-2.395 0-4.575.694-6.178 1.672c-.8.488-1.484 1.064-1.978 1.69C2.358 16.976 2 17.713 2 18.5c0 .845.411 1.511 1.003 1.986c.56.45 1.299.748 2.084.956C6.665 21.859 8.771 22 11 22l.685-.005a1 1 0 0 0 .89-1.428A6 6 0 0 1 12 18c0-1.252.383-2.412 1.037-3.373a1 1 0 0 0-.72-1.557Q11.671 13 11 13m4.5 1.691c.753-.439 1.679-.496 2.5-.046c.821-.45 1.747-.393 2.5.046c.916.534 1.526 1.59 1.5 2.788c-.036 1.57-1.248 2.798-2.886 3.771c-.343.203-.703.417-1.114.417c-.41 0-.771-.214-1.114-.417c-1.638-.973-2.85-2.202-2.885-3.77c-.027-1.198.583-2.255 1.499-2.789" /></g></svg>