<svg xmlns="http://www.w3.org/2000/svg" viewBox="0 0 24 24" width="48" height="48"><g fill="none" fill-rule="evenodd"><path fill="currentColor" d="M11 13q.671 0 1.316.07a1 1 0 0 1-.211 1.989Q11.564 15 11 15c-2.023 0-3.843.59-5.136 1.379c-.647.394-1.135.822-1.45 1.222c-.324.41-.414.72-.414.899c0 .122.037.251.255.426c.249.2.682.407 1.344.582C6.917 19.858 8.811 20 11 20l.658-.005a1 1 0 0 1 .027 2L11 22c-2.229 0-4.335-.14-5.913-.558c-.785-.208-1.524-.506-2.084-.956C2.41 20.01 2 19.345 2 18.5c0-.787.358-1.523.844-2.139c.494-.625 1.177-1.2 1.978-1.69C6.425 13.695 8.605 13 11 13m9.5 1.691c.916.534 1.526 1.59 1.5 2.788c-.036 1.57-1.248 2.798-2.886 3.771c-.342.204-.704.417-1.114.417s-.772-.213-1.114-.417c-1.638-.973-2.85-2.202-2.885-3.77c-.027-1.198.583-2.255 1.499-2.789c.753-.439 1.679-.496 2.5-.046c.821-.45 1.747-.393 2.5.046m-1.273 1.643l-.078.003a.6.6 0 0 0-.315.15l-.08.072c-.385.39-.998.418-1.416.084l-.093-.084c-.163-.165-.3-.211-.394-.222a.55.55 0 0 0-.344.082c-.265.154-.518.52-.507 1.015c.01.45.36 1.13 1.7 1.97l.3.182l.092-.055c1.512-.898 1.897-1.625 1.908-2.096c.01-.497-.242-.862-.507-1.016a.6.6 0 0 0-.266-.085M11 2a5 5 0 1 1 0 10a5 5 0 0 1 0-10m0 2a3 3 0 1 0 0 6a3 3 0 0 0 0-6" /></g></svg>