<svg xmlns="http://www.w3.org/2000/svg" viewBox="0 0 24 24" width="48" height="48"><g fill="none"><path fill="currentColor" d="M19.612 12a2 2 0 0 1 1.898 2.633l-1.562 4.683A1 1 0 0 1 19 20H7a1 1 0 1 1 0-2h3.28l1.43-4.291A2.5 2.5 0 0 1 14.08 12zM9 12a1 1 0 1 1 0 2c-1.773 0-2.88.545-3.605 1.27c-.75.748-1.187 1.788-1.414 2.926a1 1 0 0 1-1.961-.392c.272-1.362.834-2.822 1.96-3.948C5.13 12.705 6.774 12 9 12m5.081 2a.5.5 0 0 0-.474.342L12.387 18h5.892l1.333-4zm-3.08-7a2 2 0 1 0-4 0a2 2 0 0 0 4 0m8-4a1 1 0 0 1 .945.677l.193.561a1 1 0 0 0 .623.623l.561.193a1 1 0 0 1 0 1.892l-.561.193a1 1 0 0 0-.623.623l-.193.561a1 1 0 0 1-1.892 0l-.193-.561a1 1 0 0 0-.623-.623l-.561-.193a1 1 0 0 1 0-1.892l.561-.193a1 1 0 0 0 .623-.623l.193-.561C18.222 3.285 18.552 3 19 3m-6 4a4 4 0 1 1-8 0a4 4 0 0 1 8 0" /></g></svg>