<svg xmlns="http://www.w3.org/2000/svg" viewBox="0 0 24 24" width="48" height="48"><g fill="none"><path fill="currentColor" d="M19.613 12a2 2 0 0 1 1.897 2.633l-1.562 4.683A1 1 0 0 1 19 20H7a1 1 0 1 1 0-2h3.28l1.43-4.291A2.5 2.5 0 0 1 14.08 12zM9 12q.678.001 1.283.086a4.5 4.5 0 0 0-.471.99l-.86 2.582a.5.5 0 0 1-.475.342H7a3 3 0 0 0-3 3H3a1 1 0 0 1-.98-1.196c.272-1.362.835-2.822 1.96-3.948C5.13 12.705 6.774 12 9 12m0-9a4 4 0 1 1 0 8a4 4 0 0 1 0-8m10 0a1 1 0 0 1 .946.677l.193.561a1 1 0 0 0 .623.623l.561.193a1 1 0 0 1 0 1.892l-.561.193a1 1 0 0 0-.623.623l-.193.561a1 1 0 0 1-1.892 0l-.192-.561a1 1 0 0 0-.624-.623l-.561-.193a1 1 0 0 1 0-1.892l.561-.193a1 1 0 0 0 .624-.623l.192-.561C18.222 3.285 18.552 3 19 3" /></g></svg>