<svg xmlns="http://www.w3.org/2000/svg" viewBox="0 0 24 24" width="48" height="48"><g fill="none" fill-rule="evenodd"><path fill="currentColor" d="M20 3a2 2 0 0 1 1.995 1.85L22 5v14a2 2 0 0 1-1.85 1.995L20 21H4a2 2 0 0 1-1.995-1.85L2 19V5a2 2 0 0 1 1.85-1.995L4 3zm0 2H4v14h16zm-9.66 2.638l.518.23l.338.16l.387.19l.43.218l.47.25l.507.28l.266.152l.518.305l.474.292l.43.273l.38.253l.48.33l.364.263l.095.07a1.234 1.234 0 0 1 0 1.98l-.323.235l-.44.308l-.356.239l-.405.263l-.453.283l-.499.3l-.534.309l-.509.282l-.471.25l-.43.22l-.386.188l-.622.288l-.23.1a1.234 1.234 0 0 1-1.714-.99l-.058-.565l-.032-.374l-.042-.664l-.023-.508l-.015-.555l-.004-.294l-.002-.305q0-.31.006-.6l.015-.555l.023-.507l.027-.457l.03-.401l.075-.744a1.235 1.235 0 0 1 1.715-.992m.611 2.501l-.436-.218l-.029.487l-.022.551l-.013.61l-.002.325l.002.325l.013.609l.01.283l.026.52l.015.235l.434-.218l.487-.256l.535-.294l.284-.162l.551-.326l.494-.306l.436-.28l.196-.13l-.407-.27l-.466-.294a30 30 0 0 0-.803-.48l-.283-.161l-.534-.294z" /></g></svg>