<svg xmlns="http://www.w3.org/2000/svg" viewBox="0 0 24 24" width="48" height="48"><g fill="none"><path fill="currentColor" d="M2 19V5a2 2 0 0 1 2-2h9a1 1 0 1 1 0 2H4v14h16v-7a1 1 0 1 1 2 0v7a2 2 0 0 1-2 2H4a2 2 0 0 1-2-2M8.651 8.48a1.235 1.235 0 0 1 1.689-.842c.504.216 1.568.702 2.916 1.48a28 28 0 0 1 2.74 1.786c.661.495.665 1.483.001 1.98c-.437.326-1.383 1-2.742 1.784a28 28 0 0 1-2.915 1.481a1.234 1.234 0 0 1-1.715-.99a29 29 0 0 1-.176-3.265c0-1.551.112-2.719.176-3.264zM20 1a1 1 0 0 1 .946.677l.13.378c.3.879.99 1.57 1.87 1.87l.377.129a1 1 0 0 1 0 1.892l-.378.13c-.879.3-1.57.99-1.87 1.87l-.129.377a1 1 0 0 1-1.892 0l-.13-.378a3 3 0 0 0-1.87-1.87l-.377-.129a1 1 0 0 1 0-1.892l.378-.13c.879-.3 1.57-.99 1.87-1.87l.129-.377l.062-.146A1 1 0 0 1 20 1m0 3.196a5 5 0 0 1-.804.804q.449.355.804.803q.356-.447.803-.803A5 5 0 0 1 20 4.196m-9.55 7.698c0 .772.03 1.44.066 1.97a29 29 0 0 0 3.414-1.97a29 29 0 0 0-3.414-1.972a29 29 0 0 0-.067 1.972" /></g></svg>