<svg xmlns="http://www.w3.org/2000/svg" viewBox="0 0 24 24" width="48" height="48"><g fill="none" fill-rule="evenodd"><path fill="currentColor" d="M14.767 3a2.996 2.996 0 0 0 1.263 4.839l.378.129a1 1 0 0 1 .624.624l.13.378A2.995 2.995 0 0 0 22 10.233L21.999 19a2 2 0 0 1-2 2H4a2 2 0 0 1-2-2V5a2 2 0 0 1 2-2zM8.625 8.63l-.058.564a30 30 0 0 0-.116 2.395l-.002.305c0 1.55.112 2.719.176 3.264c.097.82.952 1.319 1.715.991l.365-.161c.57-.259 1.463-.692 2.55-1.32l.521-.307a27 27 0 0 0 2.221-1.477a1.234 1.234 0 0 0 0-1.98l-.325-.237a29 29 0 0 0-2.152-1.395l-.264-.154a28 28 0 0 0-2.916-1.48a1.235 1.235 0 0 0-1.715.992M20 1a1 1 0 0 1 .946.677l.13.378c.3.879.99 1.57 1.87 1.87l.377.129a1 1 0 0 1 0 1.892l-.378.13c-.879.3-1.57.99-1.87 1.87l-.129.377a1 1 0 0 1-1.892 0l-.13-.378a3 3 0 0 0-1.87-1.87l-.377-.129a1 1 0 0 1 0-1.892l.378-.13c.879-.3 1.57-.99 1.87-1.87l.129-.377A1 1 0 0 1 20 1" /></g></svg>