<svg xmlns="http://www.w3.org/2000/svg" viewBox="0 0 24 24" width="48" height="48"><g fill="none" fill-rule="evenodd"><path fill="currentColor" d="M7.527 6.595a1.5 1.5 0 0 1 .971 1.325l.014-.106a1.5 1.5 0 0 1 2.976.372l-.071.574a3 3 0 0 1 2.907-2.26h.176c.72 0 1.445.27 1.928.888c.47.602.56 1.344.4 1.98a1.5 1.5 0 0 1-2.567.638l-.05.4a.2.2 0 0 0 .121.211a3.2 3.2 0 0 1 1.96 2.999l2.303-6.143a1.5 1.5 0 0 1 2.893.34l1 8a1.5 1.5 0 1 1-2.976.373l-.086-.686h-.636l-.386 1.027a1.5 1.5 0 0 1-2.863-.18a3 3 0 0 1-2.364 1.153H13c-.51 0-1.37-.087-1.946-.82c-.377-.482-.453-1.025-.448-1.436l-.118.942a1.5 1.5 0 1 1-2.976-.372l.92-7.37l-.028.083l-3 8A1.5 1.5 0 0 1 2.5 16V9.415A1.5 1.5 0 0 1 3 6.5h1a1.5 1.5 0 0 1 1.483 1.273l.113-.3a1.5 1.5 0 0 1 1.93-.878Zm3.164 7.969a1.5 1.5 0 0 1 2.55-.57l.05-.401a.2.2 0 0 0-.122-.21a3.2 3.2 0 0 1-1.96-2.963z" /></g></svg>