<svg xmlns="http://www.w3.org/2000/svg" viewBox="0 0 24 24" width="48" height="48"><g fill="none"><path fill="currentColor" d="M17.68 14.175a6 6 0 0 1 2.112 4.093A9.98 9.98 0 0 1 12 22q-.813 0-1.59-.126a11 11 0 0 0 2.126-.946a10.97 10.97 0 0 0 5.145-6.754Zm-1.81-1.05a8.98 8.98 0 0 1-4.334 6.071a8.96 8.96 0 0 1-4.979 1.194a10 10 0 0 1-2.479-2.286a7.97 7.97 0 0 0 5.16-.988a7.97 7.97 0 0 0 3.544-4.265a5.97 5.97 0 0 1 3.088.274M4.244 5.688C4.084 6.433 4 7.207 4 8a10.97 10.97 0 0 0 3.277 7.832a6 6 0 0 1-4.605-.22A10 10 0 0 1 2 12c0-2.394.841-4.59 2.244-6.312m14.22 3.116a8.96 8.96 0 0 1 3.523 3.713a10 10 0 0 1-.739 3.294a7.97 7.97 0 0 0-3.436-3.977a7.97 7.97 0 0 0-5.467-.937a5.97 5.97 0 0 1-1.306-2.81a8.98 8.98 0 0 1 7.425.717m-7.789-6.717A7.97 7.97 0 0 0 8.95 7.05c0 1.986.725 3.804 1.922 5.202a5.97 5.97 0 0 1-1.78 2.537A8.98 8.98 0 0 1 6 7.999a8.96 8.96 0 0 1 1.456-4.91a9.9 9.9 0 0 1 3.22-1.002Zm2.859.03a10.01 10.01 0 0 1 7.815 6.325a11 11 0 0 0-1.885-1.37a10.97 10.97 0 0 0-8.421-1.079a6 6 0 0 1 2.49-3.876Z" /></g></svg>