<svg xmlns="http://www.w3.org/2000/svg" viewBox="0 0 24 24" width="48" height="48"><g fill="none" fill-rule="evenodd"><path fill="currentColor" d="M12 2c5.523 0 10 4.477 10 10s-4.477 10-10 10S2 17.523 2 12S6.477 2 12 2m5.065 11.72a10.96 10.96 0 0 1-4.92 6.28a8 8 0 0 0 6.892-4.19a5.96 5.96 0 0 0-1.972-2.089Zm-4.283-.87a7.97 7.97 0 0 1-3.544 4.266a8 8 0 0 1-2.479.928c.574.498 1.22.916 1.92 1.236a9 9 0 0 0 2.357-.95a8.97 8.97 0 0 0 4.177-5.404a6 6 0 0 0-2.43-.075Zm-7.78-4.726A7.96 7.96 0 0 0 4 12c0 1.536.433 2.97 1.183 4.19a5.96 5.96 0 0 0 2.795-.664a10.96 10.96 0 0 1-2.977-7.403Zm4.386-3.687a8 8 0 0 0-2.031 1.05A9 9 0 0 0 7 8c0 2.463.988 4.694 2.592 6.32a6 6 0 0 0 1.28-2.068A7.97 7.97 0 0 1 8.95 7.05c0-.915.154-1.794.437-2.614Zm1.808 4.319a6 6 0 0 0 1.15 2.142a7.97 7.97 0 0 1 5.467.937a8 8 0 0 1 2.044 1.684a8 8 0 0 0 .108-2.283a9 9 0 0 0-2-1.565a8.97 8.97 0 0 0-6.768-.915ZM12 4l-.22.003a5.96 5.96 0 0 0-.823 2.75a10.96 10.96 0 0 1 7.9 1.124A8 8 0 0 0 12 4" /></g></svg>