<svg xmlns="http://www.w3.org/2000/svg" viewBox="0 0 24 24" width="48" height="48"><g fill="none" fill-rule="evenodd"><path fill="currentColor" d="m4.596 8l2 2H4v4h2.68a2 2 0 0 1 1.162.373L13 18.057v-1.653l2 2v1.402a1.1 1.1 0 0 1-1.74.895L6.68 16H4a2 2 0 0 1-2-2v-4a2 2 0 0 1 2-2zm8.665-4.7a1.1 1.1 0 0 1 1.733.78l.006.114v9.392l1.113 1.113a1 1 0 0 1 .132-1.119l.088-.089c.41-.368.667-.899.667-1.491a2 2 0 0 0-.548-1.376l-.119-.115a1 1 0 1 1 1.334-1.49A4 4 0 0 1 19 12a4 4 0 0 1-1.333 2.981a1 1 0 0 1-1.007.196l-.123-.054l1.47 1.47a1 1 0 0 1 .326-.866A5 5 0 0 0 20 12c0-1.48-.642-2.81-1.667-3.727a1 1 0 1 1 1.334-1.49A7 7 0 0 1 22 12a7 7 0 0 1-2.333 5.217a1 1 0 0 1-.669.255l-.119-.007l1.606 1.606a1 1 0 0 1-1.32 1.497l-.094-.083L3.515 4.93a1 1 0 0 1 1.32-1.497l.094.083L8.275 6.86l4.986-3.562ZM13 5.942L9.709 8.294L13 11.586z" /></g></svg>