<svg xmlns="http://www.w3.org/2000/svg" viewBox="0 0 24 24" width="48" height="48"><g fill="none"><path fill="currentColor" d="M13.26 3.3a1.1 1.1 0 0 1 1.734.78l.006.114v15.612a1.1 1.1 0 0 1-1.643.957l-.096-.062L6.68 16H4a2 2 0 0 1-1.995-1.85L2 14v-4a2 2 0 0 1 1.85-1.995L4 8h2.68zm6.407 3.483A7 7 0 0 1 22 12a7 7 0 0 1-2.333 5.217a1 1 0 1 1-1.334-1.49A5 5 0 0 0 20 12c0-1.48-.642-2.81-1.667-3.727a1 1 0 1 1 1.334-1.49m-2 2.236A4 4 0 0 1 19 11.999a4 4 0 0 1-1.333 2.982a1 1 0 0 1-1.422-1.4l.088-.09c.41-.368.667-.899.667-1.491a2 2 0 0 0-.548-1.376l-.119-.115a1 1 0 1 1 1.334-1.49" /></g></svg>