<svg xmlns="http://www.w3.org/2000/svg" viewBox="0 0 24 24" width="48" height="48"><g fill="none"><path fill="currentColor" d="M4.596 8L15 18.404v1.402a1.1 1.1 0 0 1-1.74.895L6.68 16H4a2 2 0 0 1-2-2v-4a2 2 0 0 1 2-2zM15 4.194v9.392l1.113 1.113a1 1 0 0 1 .132-1.119l.088-.089c.41-.368.667-.899.667-1.491a2 2 0 0 0-.548-1.376l-.119-.115a1 1 0 0 1 1.334-1.49A4 4 0 0 1 19 12a4 4 0 0 1-1.333 2.981a1 1 0 0 1-1.13.142l1.47 1.47a1 1 0 0 1 .326-.866A5 5 0 0 0 20 12c0-1.48-.642-2.81-1.667-3.727a1 1 0 1 1 1.334-1.49A7 7 0 0 1 22 12a7 7 0 0 1-2.333 5.217a1 1 0 0 1-.788.248l1.606 1.606a1 1 0 0 1-1.414 1.414L3.515 4.93a1 1 0 1 1 1.414-1.414L8.275 6.86l4.986-3.562A1.1 1.1 0 0 1 15 4.194" /></g></svg>