<svg xmlns="http://www.w3.org/2000/svg" viewBox="0 0 24 24" width="48" height="48"><g fill="none" fill-rule="evenodd"><path fill="currentColor" d="M15.28 2.307A1 1 0 0 1 16.6 2.2l4 3a1 1 0 0 1 .4.8v12a1 1 0 0 1-.4.8l-4 3a1 1 0 0 1-1.32-.107l-6.357-6.61l-3.29 2.691a1 1 0 0 1-1.188.058l-1.5-1a1 1 0 0 1-.166-1.525L5.96 12L2.78 8.693a1 1 0 0 1 .166-1.525l1.5-1a1 1 0 0 1 1.188.058l3.29 2.692zm-4.804 7.881l.635.52L15 7.526V5.483zM17 5v14l2-1.5v-11zm-2 13.517v-2.043L5.788 8.937zm0-4.627v-3.78L12.69 12zm-7.654-.447l-1.558 1.62l1.744-1.427z" /></g></svg>