<svg xmlns="http://www.w3.org/2000/svg" viewBox="0 0 24 24" width="48" height="48"><g fill="none" fill-rule="evenodd"><path fill="currentColor" d="M12 2a3 3 0 0 1 .866 5.873l-.17.046l2.427 2.775l1.824.912a1 1 0 0 1-.787 1.835l-.107-.047l-1.824-.912a2 2 0 0 1-.476-.332l-.135-.14l-1.018-1.163l-.66 2.638a2 2 0 0 1-.306.669l-.11.142l1.928 1.763a2 2 0 0 1 .544.83l.047.16l.738 2.951H15a1 1 0 0 1 .117 1.993L15 22h-.922a1.1 1.1 0 0 1-1.03-.714l-.037-.12l-.908-3.631l-3.01-2.752a2 2 0 0 1-1.067-2.105l.034-.163l.513-2.052l-.323.23l-1.393 2.322a1 1 0 0 1-1.769-.926l.054-.104l1.393-2.321a2 2 0 0 1 .423-.498l.13-.1L9.85 7.091A3 3 0 0 1 12 2M8.05 16.184a1 1 0 0 1 1.928.52l-.03.112l-.426 1.276a2 2 0 0 1-.358.645l-.125.137l-1.657 1.657a1 1 0 0 1-1.496 1.26l-.094-.084l-.493-.493a1.01 1.01 0 0 1-.084-1.333l.084-.095l2.326-2.326zM12 4a1 1 0 1 0 0 2a1 1 0 0 0 0-2" /></g></svg>