<svg xmlns="http://www.w3.org/2000/svg" viewBox="0 0 24 24" width="48" height="48"><g fill="none" fill-rule="evenodd"><path fill="currentColor" d="M5 4a3 3 0 0 0-3 3v10a3 3 0 0 0 3 3h14a3 3 0 0 0 3-3V7a3 3 0 0 0-3-3zm15 4.17V7a1 1 0 0 0-1-1H5a1 1 0 0 0-1 1v1.17c.313-.11.65-.17 1-.17h14c.35 0 .687.06 1 .17M4 11v1h5q.042 0 .084.004a1 1 0 0 1 1.03.663a2.001 2.001 0 0 0 3.772 0a1 1 0 0 1 1.03-.663q.041-.005.084-.004h5v-1a1 1 0 0 0-1-1H5a1 1 0 0 0-1 1m11.465 3A4 4 0 0 1 12 16a4 4 0 0 1-3.465-2H4v3a1 1 0 0 0 1 1h14a1 1 0 0 0 1-1v-3z" /></g></svg>