<svg xmlns="http://www.w3.org/2000/svg" viewBox="0 0 24 24" width="48" height="48"><g fill="none"><path fill="currentColor" d="m8.55 12.02l1.45.828v-1.619zM13 5a1 1 0 1 0-2 0a1 1 0 0 0 2 0m5 16a1 1 0 1 1-2 0v-4l-5.055-.003l-.882 2.06c-.186.435-.52.79-.944 1.002l-3.672 1.835a1 1 0 0 1-.894-1.788l3.673-1.837l1.355-3.163a1 1 0 0 1 .088-.164a1 1 0 0 1-.165-.074l-2.723-1.556a1.5 1.5 0 0 1 .027-2.619L10.5 8.678A2 2 0 0 1 14 10v5h2.5a1.5 1.5 0 0 1 1.5 1.5zM15 5a3 3 0 1 1-6 0a3 3 0 0 1 6 0" /></g></svg>