<svg xmlns="http://www.w3.org/2000/svg" viewBox="0 0 24 24" width="48" height="48"><g fill="none"><path fill="currentColor" d="M14.472 2a1 1 0 0 1 1.028.972l.5 17.5a1 1 0 0 1-2 .056l-.18-6.304l-3.036-.117l.982 1.717a2 2 0 0 1 .25.772l.478 4.294a1 1 0 0 1-1.988.22l-.477-4.294l-1.763-3.087q-.049-.027-.096-.058l-3.248 7.717a1 1 0 0 1-1.844-.776l3.943-9.365A2.5 2.5 0 0 1 9.595 9.06l4.082.158l-.177-6.19A1 1 0 0 1 14.472 2M20 12a1 1 0 1 0-2 0a1 1 0 0 0 2 0m-10.482-.94a.499.499 0 1 0-.038.997l4.02.154v-1zM22 12a3 3 0 1 1-6 0a3 3 0 0 1 6 0" /></g></svg>