<svg xmlns="http://www.w3.org/2000/svg" viewBox="0 0 24 24" width="48" height="48"><g fill="none"><path fill="currentColor" d="M9.952 8.1c.418.047.837.089 1.254.142l5.922.766a1.001 1.001 0 0 1-.256 1.984l-3.94-.51q-.005.053-.013.104l-.694 3.776l1.858-.209a2.5 2.5 0 0 1 2.706 1.878l1.18 4.727a1 1 0 1 1-1.939.484l-1.181-4.725a.5.5 0 0 0-.541-.376c-1.658.187-3.314.391-4.972.573l-.744 2.603a2 2 0 0 1-1.135 1.29l-3.063 1.312a1 1 0 1 1-.788-1.838L6.67 18.77l.757-2.653a2.49 2.49 0 0 1-.764-2.573l1.144-4.005a2 2 0 0 1 2.146-1.437m-1.367 5.993a.5.5 0 0 0 .543.634l1.02-.128l.803-4.373l-1.222-.138zM12 5a1 1 0 1 0-2 0a1 1 0 0 0 2 0m2 0a3 3 0 1 1-6 0a3 3 0 0 1 6 0" /></g></svg>