<svg xmlns="http://www.w3.org/2000/svg" viewBox="0 0 24 24" width="48" height="48"><g fill="none" fill-rule="evenodd"><path fill="currentColor" d="M12 8a2 2 0 0 1 2 2v5h2.5a1.5 1.5 0 0 1 1.5 1.5V21a1 1 0 1 1-2 0v-4l-5.055-.003l-.882 2.06c-.186.435-.521.79-.944 1.002l-3.672 1.835a1 1 0 0 1-.895-1.788l3.673-1.837l1.356-3.163q.037-.087.09-.164a1 1 0 0 1-.167-.074L6.78 13.312a1.5 1.5 0 0 1 .026-2.619L10.5 8.678a2 2 0 0 1 1.396-.673zm-2 3.229l-1.45.79l1.45.829zM12 2a3 3 0 1 1 0 6a3 3 0 0 1 0-6" /></g></svg>