<svg xmlns="http://www.w3.org/2000/svg" viewBox="0 0 24 24" width="48" height="48"><g fill="none" fill-rule="evenodd"><path fill="currentColor" d="M12 3c-2.281 0-4.387.288-5.955.778c-.778.243-1.48.553-2.01.945c-.785.58-1.172 1.465-1.023 2.43l1.535 9.981c.339 2.199 1.904 4.16 4.247 4.567c.962.167 2.077.299 3.206.299s2.244-.132 3.206-.299c2.343-.406 3.909-2.368 4.247-4.567l1.535-9.982c.149-.964-.238-1.85-1.022-2.43c-.53-.39-1.233-.701-2.01-.944C16.385 3.288 14.281 3 12 3M6.641 7.313C7.97 7.728 9.863 8 12.001 8c2.136 0 4.03-.272 5.358-.687c1.642-.513 1.785-1.068 0-1.626C16.032 5.272 14.137 5 12 5s-4.031.272-5.359.687C4.856 6.245 5 6.8 6.641 7.313m12.045 1.65C16.594 9.804 14.232 10 12 10s-4.594-.197-6.686-1.036l1.21 7.866c.232 1.507 1.262 2.666 2.612 2.9c.888.155 1.883.27 2.864.27s1.977-.115 2.864-.27c1.35-.234 2.38-1.393 2.612-2.9z" /></g></svg>