<svg xmlns="http://www.w3.org/2000/svg" viewBox="0 0 24 24" width="48" height="48"><g fill="none" fill-rule="evenodd"><path fill="currentColor" d="M8.831 3.45A2 2 0 0 1 10.754 2h2.492a2 2 0 0 1 1.923 1.45l.792 2.775l.002.004A6.99 6.99 0 0 1 19 12a6.99 6.99 0 0 1-3.037 5.771l-.002.004l-.792 2.774A2 2 0 0 1 13.246 22h-2.492a2 2 0 0 1-1.923-1.45l-.793-2.775v-.004A6.99 6.99 0 0 1 5 12a6.99 6.99 0 0 1 3.038-5.775zm1.586 1.73a7 7 0 0 1 3.166 0L13.246 4h-2.492zm0 13.64l.337 1.18h2.492l.337-1.18a7 7 0 0 1-3.166 0M12 7a5 5 0 1 0 0 10a5 5 0 0 0 0-10m0 1a1 1 0 0 1 1 1v2.586l1.207 1.207a1 1 0 0 1-1.414 1.414l-1.5-1.5A1 1 0 0 1 11 12V9a1 1 0 0 1 1-1" /></g></svg>