<svg xmlns="http://www.w3.org/2000/svg" viewBox="0 0 24 24" width="48" height="48"><g fill="none"><path fill="currentColor" d="M18.147 6.733a10.6 10.6 0 0 0-5.244.528l-.346.132a13.6 13.6 0 0 1-7.16.84c-1.038-.16-2.12-.418-3.068-.891a1.5 1.5 0 0 1 1.202-2.745l.132.058c.682.32 1.45.499 2.19.613c1.344.206 3.183.22 5.244-.529l.346-.132a13.6 13.6 0 0 1 7.16-.84c1.038.16 2.119.419 3.066.89a1.514 1.514 0 0 1 .672 2.014c-.369.738-1.122.907-2.005.674l-2.19-.612Zm0 6a10.6 10.6 0 0 0-5.244.528l-.346.132a13.6 13.6 0 0 1-7.16.84c-1.038-.16-2.12-.418-3.068-.891a1.5 1.5 0 0 1 1.202-2.745l.132.058c.682.32 1.45.499 2.19.613c1.344.206 3.183.22 5.244-.529l.346-.132a13.6 13.6 0 0 1 7.16-.84c1.038.16 2.119.419 3.066.89a1.514 1.514 0 0 1 .672 2.014c-.369.739-1.122.907-2.005.674l-2.19-.612Zm-5.954 6.8l.364-.14a10.6 10.6 0 0 1 5.59-.66l2.19.612c.882.233 1.635.065 2.005-.674a1.514 1.514 0 0 0-.673-2.013c-.947-.472-2.028-.73-3.066-.89a13.6 13.6 0 0 0-6.797.7l-.363.14c-2.202.88-4.172.878-5.59.66c-.634-.098-1.29-.243-1.893-.484l-.297-.13a1.5 1.5 0 0 0-1.334 2.688c.947.473 2.03.731 3.068.89c1.752.27 4.143.28 6.796-.7Z" /></g></svg>