<svg xmlns="http://www.w3.org/2000/svg" viewBox="0 0 24 24" width="48" height="48"><g fill="none"><path fill="currentColor" d="M12 15.5c.8 0 1.56.02 2.262.053l-.012.03l1.575.945c.373.224.594.58.7.992l.456 2.284a1 1 0 0 1-1.962.392l-.413-2.066l-2.008-1.205A2.5 2.5 0 0 1 12 17c-.207 0-.407-.028-.599-.075L9.394 18.13l-.414 2.066a1 1 0 0 1-1.96-.392l.456-2.283c.105-.412.326-.769.699-.993l1.574-.945l-.013-.03A49 49 0 0 1 12 15.5M13.172 9a3 3 0 0 1 2.121.879l3.014 3.014l.596.08l.097.014V12a1 1 0 1 1 2 0v4a1 1 0 1 1-2 0v-1.002l-.085-.003l-.777-.108q-.274-.036-.64-.078l-.598-.064A50 50 0 0 0 12 14.5c-1.809 0-3.41.104-4.61.217l-.905.094c-.813.093-1.295.171-1.32.175Q5.082 15 5 14.998V16a1 1 0 1 1-2 0v-4a1 1 0 1 1 2 0v.987l.714-.097l.548-.066l2.38-2.776A3 3 0 0 1 10.92 9zm-2.252 2c-.292 0-.57.128-.76.35l-1.058 1.234c.441-.025.91-.046 1.398-.06zm2.16 0l.42 1.523q.735.023 1.398.061L13.84 11.35a1 1 0 0 0-.76-.35M12 3a3 3 0 1 1 0 6a3 3 0 0 1 0-6" /></g></svg>