<svg xmlns="http://www.w3.org/2000/svg" viewBox="0 0 24 24" width="48" height="48"><g fill="none"><path fill="currentColor" d="M2 18V6a2 2 0 0 1 2-2h9a1 1 0 0 1 0 2H4v5.826l1.942-1.046c1.853-.998 3.927.899 3.098 2.833c-.03.07-.025.114-.018.141a.24.24 0 0 0 .08.118a.24.24 0 0 0 .13.057c.028.003.072 0 .136-.043l1.077-.718a1 1 0 0 1 1.11 1.664l-1.078.718c-1.84 1.226-4.147-.693-3.276-2.725a.2.2 0 0 0 .018-.137a.24.24 0 0 0-.073-.115a.24.24 0 0 0-.12-.062a.2.2 0 0 0-.135.03L4 14.096V18h16v-7a1 1 0 0 1 2 0v7a2 2 0 0 1-2 2H4a2 2 0 0 1-2-2M17.802 3.664a2.5 2.5 0 0 1 3.536 3.535l-4.075 4.075c-.18.18-.405.313-.65.383l-2.838.806a1 1 0 0 1-.981-.254h-.001a1 1 0 0 1-.255-.983l.807-2.837l.063-.18c.075-.175.183-.335.319-.47zm2.122 1.414a.5.5 0 0 0-.707 0L15.232 9.06l-.28.988l.986-.28l3.986-3.983a.5.5 0 0 0 0-.707" /></g></svg>