<svg xmlns="http://www.w3.org/2000/svg" viewBox="0 0 24 24" width="48" height="48"><g fill="none"><path fill="currentColor" d="m14.637 4l-2.325 2.325a3.56 3.56 0 0 0-.89 1.516l-.839 2.985c-.038.153-.06.305-.077.461c-.15 2.014 1.757 3.686 3.816 3.101l2.837-.808c.564-.21 1.084-.457 1.518-.891L22 9.366V18a2 2 0 0 1-2 2H4a2 2 0 0 1-2-2v-2.827l4.89-2.633a.2.2 0 0 1 .135-.029a.24.24 0 0 1 .121.062a.24.24 0 0 1 .073.115c.007.03.01.072-.018.136c-.87 2.033 1.437 3.952 3.276 2.726a1 1 0 0 0-1.008-1.723l-.1.059c-.065.043-.109.045-.138.043a.24.24 0 0 1-.13-.057a.24.24 0 0 1-.079-.117a.2.2 0 0 1 .001-.094l.017-.048c.828-1.934-1.245-3.83-3.098-2.833L2 12.903V6a2 2 0 0 1 2-2zm6.7-.337a2.5 2.5 0 0 1 0 3.537l-4.074 4.075c-.186.186-.407.295-.65.381l-2.838.808a1.003 1.003 0 0 1-1.267-1.097l.837-2.978c.072-.253.21-.456.382-.65l4.075-4.076a2.5 2.5 0 0 1 3.536 0" /></g></svg>