<svg xmlns="http://www.w3.org/2000/svg" viewBox="0 0 24 24" width="48" height="48"><g fill="none"><path fill="currentColor" d="M12 17a1 1 0 1 1 0 2a1 1 0 0 1 0-2m0-4c1.38 0 2.632.56 3.536 1.464a1 1 0 0 1-1.415 1.415A3 3 0 0 0 12 15c-.829 0-1.577.335-2.121.879a1 1 0 0 1-1.415-1.415A5 5 0 0 1 12 13m0-4a8.98 8.98 0 0 1 6.364 2.636a1 1 0 0 1-1.414 1.414A6.98 6.98 0 0 0 12 11a6.98 6.98 0 0 0-4.95 2.05a1 1 0 0 1-1.414-1.414A8.98 8.98 0 0 1 12 9m0-4c3.59 0 6.84 1.456 9.192 3.808a1 1 0 0 1-1.414 1.414A10.96 10.96 0 0 0 12 7a10.96 10.96 0 0 0-7.778 3.222a1 1 0 0 1-1.414-1.414A12.96 12.96 0 0 1 12 5" /></g></svg>