<svg xmlns="http://www.w3.org/2000/svg" viewBox="0 0 24 24" width="48" height="48"><g fill="none"><path fill="currentColor" d="M3.868 2.868a1.5 1.5 0 0 1 2.008-.103l.114.103l2.182 2.183A13.5 13.5 0 0 1 12 4.5c3.727 0 7.105 1.513 9.546 3.954a1.5 1.5 0 1 1-2.122 2.121a10.46 10.46 0 0 0-8.295-3.04l-.428.044l.928.928a9.48 9.48 0 0 1 7.089 2.775a1.5 1.5 0 1 1-2.122 2.122a7 7 0 0 0-.398-.367l-.21-.17l4.144 4.143a1.5 1.5 0 0 1-2.008 2.225l-.114-.103L3.868 4.99a1.5 1.5 0 0 1 0-2.122M12 16.5l.144.007a1.5 1.5 0 1 1-.288 0zm-1.966-3.638l2.769 2.77A2.5 2.5 0 0 0 12 15.5c-.622 0-1.189.225-1.627.601l-.14.131a1.5 1.5 0 0 1-2.122-2.121a5.5 5.5 0 0 1 1.653-1.137zM7.057 9.886l2.213 2.213a6.5 6.5 0 0 0-1.866 1.305a1.5 1.5 0 1 1-2.122-2.121a9.5 9.5 0 0 1 1.775-1.397M4.172 7l2.16 2.16c-.636.408-1.225.883-1.757 1.415a1.5 1.5 0 1 1-2.121-2.12A13.3 13.3 0 0 1 4.172 7" /></g></svg>