<svg xmlns="http://www.w3.org/2000/svg" viewBox="0 0 24 24" width="48" height="48"><g fill="none"><path fill="currentColor" d="m12.232 15.002l.445 1.659a1.5 1.5 0 1 1-1.932.518l-.556-2.076q.68-.076 1.36-.096L12 15zM12 4c2.48 0 4.416.282 5.884.647l.499.132q.24.067.46.137l.423.14l.432.154l.193.073l.342.136l.29.124l.127.058l.221.108l.182.097l.077.045l.132.083l.19.139l.173.146a1 1 0 0 1 .311 1.132l-3 8a1.01 1.01 0 0 1-1.256.596c-1.741-.565-3.615-.918-5.448-.945l-1.595-5.954a1 1 0 0 0-1.932.517l1.483 5.538c-1.12.125-2.238.358-3.313.673l-.559.173a1 1 0 0 1-1.252-.598l-3-8a1 1 0 0 1 .311-1.132c.677-.541 1.553-.883 2.359-1.163q.405-.141.883-.277l.5-.132C7.583 4.282 9.52 4 12 4" /></g></svg>