<svg xmlns="http://www.w3.org/2000/svg" viewBox="0 0 24 24" width="48" height="48"><g fill="none" fill-rule="evenodd"><path fill="currentColor" fill-rule="nonzero" d="M12 2c5.523 0 10 4.477 10 10s-4.477 10-10 10S2 17.523 2 12S6.477 2 12 2m7.194 13.505A17.9 17.9 0 0 1 12 17c-2.556 0-4.99-.534-7.193-1.495A8 8 0 0 0 12 20a8 8 0 0 0 7.194-4.495m.238-6.473A14.94 14.94 0 0 1 12 11c-2.703 0-5.24-.716-7.432-1.968a8 8 0 0 0-.52 3.856A15.9 15.9 0 0 0 12 15c2.896 0 5.61-.769 7.951-2.112a8 8 0 0 0-.52-3.855ZM12 4a7.99 7.99 0 0 0-6.462 3.283A12.94 12.94 0 0 0 12 9a12.94 12.94 0 0 0 6.462-1.717A7.99 7.99 0 0 0 12 4" /></g></svg>