<svg xmlns="http://www.w3.org/2000/svg" viewBox="0 0 24 24" width="48" height="48"><g fill="none"><path fill="currentColor" d="M21.43 15.335A10 10 0 0 1 12 22c-4.353 0-8.057-2.782-9.43-6.665A17.9 17.9 0 0 0 12 18c3.458 0 6.688-.975 9.43-2.665m-.304-7.43a9.96 9.96 0 0 1 .862 4.596A15.93 15.93 0 0 1 12 16c-3.778 0-7.25-1.31-9.988-3.5a9.96 9.96 0 0 1 .862-4.595A14.94 14.94 0 0 0 12 11c3.434 0 6.598-1.154 9.126-3.095M12 2a9.99 9.99 0 0 1 8.116 4.156A12.95 12.95 0 0 1 12 9C8.93 9 6.108 7.936 3.884 6.156A9.99 9.99 0 0 1 12 2" /></g></svg>