<svg xmlns="http://www.w3.org/2000/svg" viewBox="0 0 24 24" width="48" height="48"><g fill="none"><path fill="currentColor" d="M12 9.235c2.907 2.946 4.956 6.4 6.668 10.217A9.96 9.96 0 0 1 12 22a9.96 9.96 0 0 1-6.668-2.548C7.044 15.635 9.092 12.181 12 9.235M5.509 4.393a28 28 0 0 1 5.033 3.472c-2.886 2.934-4.96 6.314-6.667 9.966A9.95 9.95 0 0 1 2 12a9.98 9.98 0 0 1 3.509-7.607m12.982 0A9.98 9.98 0 0 1 22 12c0 2.176-.695 4.19-1.875 5.83c-1.707-3.651-3.781-7.03-6.667-9.965a28 28 0 0 1 5.033-3.472M12 2c1.675 0 3.254.412 4.641 1.14A29.5 29.5 0 0 0 12 6.483A29.5 29.5 0 0 0 7.359 3.14A9.96 9.96 0 0 1 12 2" /></g></svg>