<svg xmlns="http://www.w3.org/2000/svg" viewBox="0 0 24 24" width="48" height="48"><g fill="none" fill-rule="evenodd"><path fill="currentColor" d="M12 2c5.523 0 10 4.477 10 10s-4.477 10-10 10S2 17.523 2 12S6.477 2 12 2m0 7.235c-2.414 2.446-4.237 5.244-5.767 8.31A7.98 7.98 0 0 0 12 20a7.98 7.98 0 0 0 5.767-2.455c-1.53-3.067-3.353-5.864-5.767-8.31m-4.642-3.75A7.99 7.99 0 0 0 4 12c0 1.345.332 2.613.919 3.726c1.502-2.848 3.3-5.499 5.623-7.86a27 27 0 0 0-3.184-2.382Zm9.284 0a27 27 0 0 0-3.184 2.38c2.323 2.362 4.12 5.013 5.623 7.861A8 8 0 0 0 20 12a7.99 7.99 0 0 0-3.358-6.516ZM12 4c-.914 0-1.793.153-2.611.436q1.398.975 2.611 2.048a29 29 0 0 1 2.611-2.048A8 8 0 0 0 12 4" /></g></svg>