<svg xmlns="http://www.w3.org/2000/svg" viewBox="0 0 24 24" width="48" height="48"><g fill="none"><path fill="currentColor" d="M10 5a1.5 1.5 0 0 1 0 3h-.954l2.426 3.153l1.69-1.408A1.5 1.5 0 0 1 14 7h4.5a1.5 1.5 0 0 1 0 3h-.957L12.5 14.202V15.5H15a1.5 1.5 0 0 1 0 3H8a1.5 1.5 0 0 1 0-3h1.5v-1.99L5.262 8H3a1.5 1.5 0 1 1 0-3zm9.61 11.466l.01.002a1 1 0 0 1-.232 1.983l-.126-.015a1 1 0 0 1 .347-1.97m.635-6.488l.985.173l.104.025a1 1 0 0 1 .679 1.255l-1.188 3.852a1 1 0 0 1-1.954-.344l.202-4.027a1 1 0 0 1 1.172-.934" /></g></svg>