<svg xmlns="http://www.w3.org/2000/svg" viewBox="0 0 24 24" width="48" height="48"><g fill="none"><path fill="currentColor" d="m19.508 16.453l.101.013l.01.002a1 1 0 1 1-.348 1.97l-.01-.002l-.099-.023a1 1 0 0 1 .346-1.96M10 5.5a1 1 0 1 1 0 2H8.031l3.362 4.37l2.844-2.37H14a1 1 0 1 1 0-2h5a1 1 0 1 1 0 2h-1.637L12 13.969V16h3a1 1 0 1 1 0 2H8a1 1 0 1 1 0-2h2v-2.66L5.508 7.5H3a1 1 0 0 1 0-2zm9.448 4.68c.224-.178.516-.252.798-.202l.985.173l.104.025a1 1 0 0 1 .678 1.255l-1.188 3.852a1 1 0 0 1-1.954-.344l.202-4.027l.011-.106a1 1 0 0 1 .364-.625" /></g></svg>