<svg xmlns="http://www.w3.org/2000/svg" viewBox="0 0 24 24" width="48" height="48"><g fill="none"><path fill="currentColor" d="M12 2a3 3 0 0 1 .43 5.97c.334.014.656.048.935.101c.885.168 1.697.63 2.293 1.325l1.576 1.84c.26.304.58.552.936.73l2.278 1.14a1 1 0 0 1-.895 1.789l-2.277-1.14a5 5 0 0 1-1.56-1.218l-.382-.445l.489 3.177a1 1 0 0 0 .582.761l1.647.732a2.796 2.796 0 0 1 1.262 3.992a2.2 2.2 0 0 1-2.416 1l-2.252-.562a5 5 0 0 1-1.862-.91l.96-.8c.99-.12 1.757-.96 1.757-1.982c0-1-.896-1.5-2-1.5l-.254.005c-1.297.052-1.629.495.254.495a1 1 0 0 1 0 2a.38.38 0 0 0-.245.088l-1.914 1.595a5 5 0 0 1-1.988 1.01l-2.252.562a2.2 2.2 0 0 1-2.416-1.001a2.796 2.796 0 0 1 1.262-3.992l1.647-.732a1 1 0 0 0 .582-.761l.489-3.177l-.381.445c-.434.506-.965.92-1.56 1.219l-2.278 1.139a1 1 0 0 1-.895-1.79l2.278-1.138c.357-.179.676-.427.936-.73l1.576-1.84a4 4 0 0 1 2.3-1.328c.28-.053.6-.087.93-.102A2.996 2.996 0 0 1 9 5a3 3 0 0 1 3-3" /></g></svg>