<svg xmlns="http://www.w3.org/2000/svg" viewBox="0 0 24 24" width="48" height="48" fill="none" stroke="currentColor" stroke-linecap="round" stroke-linejoin="round"><g fill="none" stroke="currentColor" stroke-width="1.5"><path stroke-linecap="round" stroke-linejoin="round" d="m6 18.01l.01-.011M6 6.01l.01-.011" /><path d="M2 9.4V2.6a.6.6 0 0 1 .6-.6h18.8a.6.6 0 0 1 .6.6v6.8a.6.6 0 0 1-.6.6H2.6a.6.6 0 0 1-.6-.6Zm0 12v-6.8a.6.6 0 0 1 .6-.6h18.8a.6.6 0 0 1 .6.6v6.8a.6.6 0 0 1-.6.6H2.6a.6.6 0 0 1-.6-.6Z" /></g></svg>