<svg xmlns="http://www.w3.org/2000/svg" viewBox="0 0 16 16" width="48" height="48"><path fill="currentColor" d="M5.75 2c-.82 0-1.5.68-1.5 1.5S4.93 5 5.75 5s1.5-.68 1.5-1.5S6.57 2 5.75 2m4.5 0c-.82 0-1.5.68-1.5 1.5S9.43 5 10.25 5s1.5-.68 1.5-1.5s-.68-1.5-1.5-1.5m-4.5 4.5c-.82 0-1.5.68-1.5 1.5s.68 1.5 1.5 1.5s1.5-.68 1.5-1.5s-.68-1.5-1.5-1.5m4.5 0c-.82 0-1.5.68-1.5 1.5s.68 1.5 1.5 1.5s1.5-.68 1.5-1.5s-.68-1.5-1.5-1.5M5.75 11c-.82 0-1.5.68-1.5 1.5s.68 1.5 1.5 1.5s1.5-.68 1.5-1.5s-.68-1.5-1.5-1.5m4.5 0c-.82 0-1.5.68-1.5 1.5s.68 1.5 1.5 1.5s1.5-.68 1.5-1.5s-.68-1.5-1.5-1.5" /></svg>