<svg xmlns="http://www.w3.org/2000/svg" viewBox="0 0 24 24" width="48" height="48"><g fill="none"><path fill="#fff" d="M18.5 5.5h5v-2L21 .5H8L5.5 3v14.5h-2l-3 3l3 3h12l3-3z" /><path fill="#bbd8ff" d="M12.5 20.5H.5l3 3h12l3-3zm6-15h5v-2L21 .5L18.5 3z" /><path stroke="#092f63" stroke-linecap="round" stroke-linejoin="round" stroke-miterlimit="10" d="M8.5 5.5h6m-6 3h6m-6 3h6m-6 3h4m-7 3V3L8 .5h13" /><path stroke="#092f63" stroke-linecap="round" stroke-linejoin="round" stroke-miterlimit="10" d="M15.5 23.5h-12l-3-3l3-3h12l-3 3zm0 0l3-3V3L21 .5l2.5 3v2h-5" /></g></svg>