<svg xmlns="http://www.w3.org/2000/svg" viewBox="0 0 24 24" width="48" height="48" fill="none" stroke="currentColor" stroke-width="1" stroke-linecap="round" stroke-linejoin="round"><path fill="none" stroke="currentColor" stroke-linejoin="round" d="M8.5 7c1.6 0 2.537 1 3.5 1s2.4-1 4-1c1.135 0 2.592.644 3.64 1.933c-.58.382-1.742 1.524-1.742 4.067c0 1.97 1.657 3.523 2.486 3.823c-.901 2.986-2.66 5.677-4.384 5.677c-1.5 0-2.5-1-4-1s-2 1-3.5 1c-2.465 0-5-5.5-5-9.5s3-6 5-6ZM12 6q0-4.5 4.5-4.5Q16.5 6 12 6Z" /></svg>