<svg xmlns="http://www.w3.org/2000/svg" viewBox="0 0 24 24" width="48" height="48" fill="none" stroke="currentColor" stroke-width="1" stroke-linecap="round" stroke-linejoin="round"><g fill="none" stroke="currentColor" stroke-linejoin="round"><path d="M8.5 13.75a3.5 2.25 0 1 0 7 0a3.5 2.25 0 1 0-7 0" /><path d="M12 21c5.799 0 10.5-3.246 10.5-7.25S17.799 6.5 12 6.5c-2.938 0-5.594.833-7.5 2.176V3h-3v10.75C1.5 17.754 6.201 21 12 21Z" /><path d="M4.25 13.75a7.75 5.25 0 1 0 15.5 0a7.75 5.25 0 1 0-15.5 0" /></g></svg>