<svg xmlns="http://www.w3.org/2000/svg" viewBox="0 0 24 24" width="48" height="48" fill="none" stroke="currentColor" stroke-width="1" stroke-linecap="round" stroke-linejoin="round"><g fill="none" stroke="currentColor" stroke-linejoin="round"><path d="m7 15l-2.5-2.5l7-7L14 8zm2.5 2.5L7 15l4.5-4.5L14 13zm2 2l-2-2L12 15l2.5 2.5l-2 2z" /><path d="m10.465 3.043l-8.329 8.329a2.17 2.17 0 0 0 0 3.07l6.514 6.514c.407.408.96.637 1.535.637h3.63c.576 0 1.128-.23 1.535-.637l6.514-6.513a2.17 2.17 0 0 0 0-3.071l-8.329-8.329a2.17 2.17 0 0 0-3.07 0Z" /></g></svg>