<svg xmlns="http://www.w3.org/2000/svg" viewBox="0 0 24 24" width="48" height="48" fill="none" stroke="currentColor" stroke-width="1" stroke-linecap="round" stroke-linejoin="round"><g fill="none" stroke="currentColor" stroke-linejoin="round"><path d="M1.5 9.5a5 5 0 1 0 10 0a5 5 0 1 0-10 0" /><path d="M17.5 3L13 14l-1.868-2.615a5.01 5.01 0 0 1-3.709 3.03L13 18l10-8z" /><path d="m5.374 14.373l.04.041l6.172 6.172a2 2 0 0 0 2.828 0l6.172-6.172a2 2 0 0 0 .178-2.625M10.5 6.5l1.086-1.086a2 2 0 0 1 2.828 0l1.49 1.49" /></g></svg>