<svg xmlns="http://www.w3.org/2000/svg" viewBox="0 0 24 24" width="48" height="48" fill="none" stroke="currentColor" stroke-width="1" stroke-linecap="round" stroke-linejoin="round"><g fill="none" stroke="currentColor"><path d="M13.5 4.5h-3a1 1 0 0 0-1 1v3a1 1 0 0 0 1 1h3a1 1 0 0 0 1-1v-3a1 1 0 0 0-1-1Zm-1 10.5h-3a1 1 0 0 0-1 1v3a1 1 0 0 0 1 1h3a1 1 0 0 0 1-1v-3a1 1 0 0 0-1-1Zm-6 0h-4a1 1 0 0 0-1 1v3a1 1 0 0 0 1 1h4" /><path stroke-linejoin="round" d="M16 20.5V16a1 1 0 0 1 1-1h5.5v5.5" /><path d="M19.25 15v5.5" /><path stroke-linejoin="round" d="M1 12h4.5a1 1 0 0 0 1-1V5.5a1 1 0 0 0-1-1h-3a1 1 0 0 0-1 1v3a1 1 0 0 0 1 1H5M17 12h4.5a1 1 0 0 0 1-1V5.5a1 1 0 0 0-1-1h-3a1 1 0 0 0-1 1v3a1 1 0 0 0 1 1H21" /></g></svg>