<svg xmlns="http://www.w3.org/2000/svg" viewBox="0 0 24 24" width="48" height="48" fill="none" stroke="currentColor" stroke-width="1" stroke-linecap="round" stroke-linejoin="round"><path fill="none" stroke="currentColor" stroke-linecap="round" stroke-linejoin="round" d="M2.5 10a1 1 0 0 1 1 1v2a1 1 0 1 1-2 0v-2a1 1 0 0 1 1-1M12 7.5a1 1 0 0 1 1 1v7a1 1 0 1 1-2 0v-7a1 1 0 0 1 1-1m-5 7a1 1 0 0 1 1 1v2a1 1 0 1 1-2 0v-2a1 1 0 0 1 1-1m5 4a1 1 0 0 1 1 1v2a1 1 0 1 1-2 0v-2a1 1 0 0 1 1-1M7 6a1 1 0 0 1 1 1v4.5a1 1 0 1 1-2 0V7a1 1 0 0 1 1-1m14.5 4a1 1 0 0 1 1 1v2a1 1 0 1 1-2 0v-2a1 1 0 0 1 1-1M17 5.5a1 1 0 0 1 1 1v2a1 1 0 1 1-2 0v-2a1 1 0 0 1 1-1m-5-4a1 1 0 0 1 1 1v2a1 1 0 1 1-2 0v-2a1 1 0 0 1 1-1m5 10a1 1 0 0 1 1 1V17a1 1 0 1 1-2 0v-4.5a1 1 0 0 1 1-1" clip-rule="evenodd" /></svg>