<svg xmlns="http://www.w3.org/2000/svg" viewBox="0 0 24 24" width="48" height="48" fill="none" stroke="currentColor" stroke-width="1" stroke-linecap="round" stroke-linejoin="round"><g fill="none" stroke="currentColor" stroke-linejoin="round"><path d="M1.5 18a3 3 0 1 0 6 0a3 3 0 1 0-6 0" /><path stroke-linecap="round" d="M13.5 2.401A3 3 0 0 1 14.6 6.5l-7.5 13a3 3 0 0 1-5.198-2.998l7.5-13A3 3 0 0 1 13.5 2.4Zm7.572 6.544a3 3 0 0 1 .983 4.127l-4 6.5a3 3 0 1 1-5.11-3.144l4-6.5a3 3 0 0 1 4.127-.983" clip-rule="evenodd" /></g></svg>