<svg xmlns="http://www.w3.org/2000/svg" viewBox="0 0 24 24" width="48" height="48" fill="none" stroke="currentColor" stroke-width="1" stroke-linecap="round" stroke-linejoin="round"><g fill="none" stroke="currentColor" stroke-linejoin="round"><path d="M17 14.25a2.75 2.75 0 1 0 5.5 0a2.75 2.75 0 1 0-5.5 0" /><path stroke-linecap="round" d="M4.5 1.5A1.5 1.5 0 0 1 6 3v10.879l6.44-6.44a1.5 1.5 0 0 1 2.12 2.122l-4.13 4.13l4.318 6.477a1.5 1.5 0 0 1-2.496 1.664l-3.985-5.978L6 18.122V21a1.5 1.5 0 0 1-3 0V3a1.5 1.5 0 0 1 1.5-1.5" clip-rule="evenodd" /></g></svg>