<svg xmlns="http://www.w3.org/2000/svg" viewBox="0 0 24 24" width="48" height="48" fill="none" stroke="currentColor" stroke-width="1" stroke-linecap="round" stroke-linejoin="round"><g fill="none" stroke="currentColor" stroke-linecap="round" stroke-linejoin="round"><path d="M12 15a3 3 0 1 0 0-6a3 3 0 0 0 0 6" /><path d="M12 4.24a7 7 0 0 0-.913.054A4.47 4.47 0 0 1 12 1.5c-1.37.457-7.76 4.109-7.76 10.5a7.77 7.77 0 0 0 8.673 7.706A4.47 4.47 0 0 1 12 22.5c1.37-.456 7.76-4.109 7.76-10.5A7.77 7.77 0 0 0 12 4.24" /></g></svg>