<svg xmlns="http://www.w3.org/2000/svg" viewBox="0 0 24 24" width="48" height="48" fill="none" stroke="currentColor" stroke-width="1" stroke-linecap="round" stroke-linejoin="round"><path fill="none" stroke="currentColor" stroke-linejoin="round" d="M18.5 2.5a1 1 0 1 0 2 0a1 1 0 1 0-2 0m0 3.8a1 1 0 1 0 2 0a1 1 0 1 0-2 0m0 3.8a1 1 0 1 0 2 0a1 1 0 1 0-2 0m0 3.8a1 1 0 1 0 2 0a1 1 0 1 0-2 0m0 3.8a1 1 0 1 0 2 0a1 1 0 1 0-2 0m0 3.8a1 1 0 1 0 2 0a1 1 0 1 0-2 0M7 13.121V21.5H4.5v-13c0-4.5 3.5-6 6-6c2.971 0 5.5 2.735 5.5 5.735c0 4.628-3.784 5.9-7.476 7.469L7 13.12Zm0 0V8.5c0-1.222 1-3 3-3c2.5 0 3 1.5 3 3c0 1.81-2.242 2.99-6 4.621Z" /></svg>