<svg version="1.1" xmlns="http://www.w3.org/2000/svg"
 width="340px" height="100px" viewBox="47.60 28.10 750.00 254.90"
 preserveAspectRatio="xMidYMid meet">

<defs>
  <style>
    @import url('https://fonts.googleapis.com/css2?family=Nunito:wght@800&amp;display=swap');
    .text-viconic {
      font-family: 'Nunito', sans-serif;
      font-size: 125px;
      font-weight: 800;
      fill: #000000;
    }
  </style>
</defs>

<g transform="translate(0.000000,311.000000) scale(0.100000,-0.100000)" fill="#000000">
  <path d="M1505 2776 c-22 -12 -188 -103 -370 -201 -181 -98 -348 -188 -370 -200 -22 -12 -79 -43 -127 -69 -142 -77 -128 6 -128 -750 0 -750 -8 -688 101 -745 35 -19 181 -97 324 -174 473 -256 630 -337 649 -337 23 0 85 33 866 457 85 47 164 93 175 104 20 19 20 35 23 683 2 653 2 663 -18 689 -11 14 -109 74 -218 133 -108 59 -300 163 -427 232 -126 68 -262 142 -301 163 -83 45 -121 48 -179 15z m297 -197 c123 -67 322 -175 443 -241 121 -66 224 -123 228 -128 8 -7 -840 -476 -882 -487 -15 -4 -131 55 -393 197 -205 112 -406 221 -446 243 -40 22 -70 43 -65 47 4 4 91 53 193 108 102 56 300 164 440 241 140 76 256 139 257 140 1 1 102 -54 225 -120z m-971 -580 c112 -61 287 -156 389 -211 102 -55 213 -116 248 -135 l62 -34 0 -589 c0 -325 -2 -590 -4 -590 -4 0 -897 479 -904 485 -1 1 -2 217 -2 481 0 686 0 704 3 704 2 0 96 -50 208 -111z"/>
  <path d="M755 1758 c4 -17 55 -208 114 -422 l106 -391 75 -42 c79 -45 98 -51 105 -30 2 6 49 140 105 296 55 157 99 289 97 295 -7 17 -128 79 -137 69 -4 -4 -38 -98 -75 -208 -37 -110 -70 -206 -74 -213 -7 -13 -27 56 -117 410 l-47 188 -74 40 c-41 22 -77 40 -80 40 -2 0 -1 -14 2 -32z"/>
</g>

<text x="300" y="195" class="text-viconic">Viconic</text>

</svg>
