<svg xmlns="http://www.w3.org/2000/svg" viewBox="0 0 48 48" width="48" height="48"><g fill="currentColor"><path d="M46 35c0 6.075-4.925 11-11 11s-11-4.925-11-11s4.925-11 11-11s11 4.925 11 11m-5 0a1 1 0 0 0-1-1h-4v-6a1 1 0 1 0-2 0v7a1 1 0 0 0 1 1h5a1 1 0 0 0 1-1" /><path d="M39.75 22.895A13 13 0 0 0 35 22c-2.268 0-4.4.58-6.256 1.602q.005-.051.006-.102c0-.69-.56-1.25-1.25-1.25h-7a1.25 1.25 0 1 0 0 2.5h6.509A12.97 12.97 0 0 0 22 35c0 2.472.69 4.782 1.888 6.75H15.5a7.25 7.25 0 0 1-7.25-7.25V17.75h31.5zm-.5-16.645a2.5 2.5 0 0 1 2.5 2.5v4a2.5 2.5 0 0 1-2.5 2.5H8.75a2.5 2.5 0 0 1-2.5-2.5v-4a2.5 2.5 0 0 1 2.5-2.5z" /></g></svg>