<svg xmlns="http://www.w3.org/2000/svg" viewBox="0 0 48 48" width="48" height="48"><g fill="currentColor"><path d="M46 35c0 6.075-4.925 11-11 11s-11-4.925-11-11s4.925-11 11-11s11 4.925 11 11m-5 0a1 1 0 0 0-1-1h-4v-6a1 1 0 1 0-2 0v7a1 1 0 0 0 1 1h5a1 1 0 0 0 1-1" /><path d="M38 6.25A3.75 3.75 0 0 1 41.75 10v4a3.75 3.75 0 0 1-2 3.317v5.578a13 13 0 0 0-2.5-.7V17.75h-26.5V34.5a4.75 4.75 0 0 0 4.75 4.75h7.21c.305.88.701 1.717 1.178 2.5H15.5a7.25 7.25 0 0 1-7.25-7.25V17.317a3.75 3.75 0 0 1-2-3.317v-4A3.75 3.75 0 0 1 10 6.25zm-28 2.5c-.69 0-1.25.56-1.25 1.25v4c0 .69.56 1.25 1.25 1.25h28c.69 0 1.25-.56 1.25-1.25v-4c0-.69-.56-1.25-1.25-1.25z" /><path d="M27.5 22.25c.69 0 1.25.56 1.25 1.25q0 .051-.006.102c-.61.335-1.19.722-1.735 1.148H20.5a1.25 1.25 0 1 1 0-2.5z" /></g></svg>