<svg xmlns="http://www.w3.org/2000/svg" viewBox="0 0 640 640" width="48" height="48"><path fill="currentColor" d="M128 480c-17.7 0-32 14.3-32 32s14.3 32 32 32s32-14.3 32-32s-14.3-32-32-32M256 96c-17.7 0-32 14.3-32 32s14.3 32 32 32s32-14.3 32-32s-14.3-32-32-32m128 384c-17.7 0-32 14.3-32 32s14.3 32 32 32s32-14.3 32-32s-14.3-32-32-32m-128 64c17.7 0 32-14.3 32-32s-14.3-32-32-32s-32 14.3-32 32s14.3 32 32 32M384 96c-17.7 0-32 14.3-32 32s14.3 32 32 32s32-14.3 32-32s-14.3-32-32-32m128 448c17.7 0 32-14.3 32-32s-14.3-32-32-32s-32 14.3-32 32s14.3 32 32 32m0-384c17.7 0 32-14.3 32-32s-14.3-32-32-32s-32 14.3-32 32s14.3 32 32 32M128 96c-17.7 0-32 14.3-32 32s14.3 32 32 32s32-14.3 32-32s-14.3-32-32-32m384 320c17.7 0 32-14.3 32-32s-14.3-32-32-32s-32 14.3-32 32s14.3 32 32 32M128 224c-17.7 0-32 14.3-32 32s14.3 32 32 32s32-14.3 32-32s-14.3-32-32-32m0 192c17.7 0 32-14.3 32-32s-14.3-32-32-32s-32 14.3-32 32s14.3 32 32 32m384-192c-17.7 0-32 14.3-32 32s14.3 32 32 32s32-14.3 32-32s-14.3-32-32-32" /></svg>