<svg xmlns="http://www.w3.org/2000/svg" viewBox="0 0 640 640" width="48" height="48"><path fill="currentColor" d="M128 128c0-17.7-14.3-32-32-32s-32 14.3-32 32v336c0 44.2 35.8 80 80 80h400c17.7 0 32-14.3 32-32s-14.3-32-32-32H144c-8.8 0-16-7.2-16-16zm96 0c-17.7 0-32 14.3-32 32s14.3 32 32 32h96c17.7 0 32-14.3 32-32s-14.3-32-32-32zm64 112c-17.7 0-32 14.3-32 32s14.3 32 32 32h128c17.7 0 32-14.3 32-32s-14.3-32-32-32zm160 112c-17.7 0-32 14.3-32 32s14.3 32 32 32h64c17.7 0 32-14.3 32-32s-14.3-32-32-32z" /></svg>