<svg xmlns="http://www.w3.org/2000/svg" viewBox="0 0 640 640" width="48" height="48"><path fill="currentColor" d="M96 128c0-17.7 14.3-32 32-32h96c17.7 0 32 14.3 32 32s-14.3 32-32 32h-16v112h224V160h-16c-17.7 0-32-14.3-32-32s14.3-32 32-32h96c17.7 0 32 14.3 32 32s-14.3 32-32 32h-16v320h16c17.7 0 32 14.3 32 32s-14.3 32-32 32h-96c-17.7 0-32-14.3-32-32s14.3-32 32-32h16V336H208v144h16c17.7 0 32 14.3 32 32s-14.3 32-32 32h-96c-17.7 0-32-14.3-32-32s14.3-32 32-32h16V160h-16c-17.7 0-32-14.3-32-32" /></svg>