<svg xmlns="http://www.w3.org/2000/svg" viewBox="0 0 20 20" width="48" height="48"><g fill="none"><path fill="url(#SVGV6imtets)" d="M14 6a4 4 0 0 1 .2 7.995L14 14h-2a.75.75 0 0 1-.102-1.493L12 12.5h2a2.5 2.5 0 0 0 .164-4.995L14 7.5h-2a.75.75 0 0 1-.102-1.493L12 6zM8 6a.75.75 0 0 1 .102 1.493L8 7.5H6a2.5 2.5 0 0 0-.164 4.995L6 12.5h2a.75.75 0 0 1 .102 1.493L8 14H6a4 4 0 0 1-.2-7.995L6 6zM6.25 9.25h7.5a.75.75 0 0 1 .102 1.493l-.102.007h-7.5a.75.75 0 0 1-.102-1.493zh7.5z" /><defs><linearGradient id="SVGV6imtets" x1="-3.143" x2="3.203" y1="2.5" y2="21.585" gradientUnits="userSpaceOnUse"><stop stop-color="#36dff1" /><stop offset="1" stop-color="#2764e7" /></linearGradient></defs></g></svg>