<svg xmlns="http://www.w3.org/2000/svg" viewBox="0 0 48 48" width="48" height="48"><defs><mask id="SVGJNybLe6r"><g fill="none"><path fill="#fff" stroke="#fff" stroke-width="4" d="M9 7a3 3 0 0 1 3-3h24a3 3 0 0 1 3 3v34a3 3 0 0 1-3 3H12a3 3 0 0 1-3-3z" /><path fill="currentColor" stroke="currentColor" stroke-linejoin="round" stroke-width="4" d="M24 29a7 7 0 1 0 0-14a7 7 0 0 0 0 14Z" /><rect width="4" height="4" x="30" y="8" fill="currentColor" rx="2" /><path stroke="currentColor" stroke-linecap="round" stroke-linejoin="round" stroke-width="4" d="M27 36h2m-10 0h2" /></g></mask></defs><path fill="currentColor" d="M0 0h48v48H0z" mask="url(#SVGJNybLe6r)" /></svg>