<svg xmlns="http://www.w3.org/2000/svg" viewBox="0 0 48 48" width="48" height="48" fill="none" stroke="currentColor" stroke-width="1" stroke-linecap="round" stroke-linejoin="round"><rect width="7.348" height="7.348" x="5.5" y="5.5" fill="none" stroke="currentColor" stroke-linecap="round" stroke-linejoin="round" rx="2" ry="2" /><rect width="7.348" height="7.348" x="15.384" y="5.5" fill="none" stroke="currentColor" stroke-linecap="round" stroke-linejoin="round" rx="2" ry="2" /><rect width="7.348" height="7.348" x="25.268" y="5.5" fill="none" stroke="currentColor" stroke-linecap="round" stroke-linejoin="round" rx="2" ry="2" /><rect width="7.348" height="7.348" x="35.153" y="5.5" fill="none" stroke="currentColor" stroke-linecap="round" stroke-linejoin="round" rx="2" ry="2" /><rect width="7.348" height="7.348" x="15.384" y="15.384" fill="none" stroke="currentColor" stroke-linecap="round" stroke-linejoin="round" rx="2" ry="2" /><rect width="7.348" height="7.348" x="25.268" y="15.384" fill="none" stroke="currentColor" stroke-linecap="round" stroke-linejoin="round" rx="2" ry="2" /><rect width="7.348" height="7.348" x="35.153" y="15.384" fill="none" stroke="currentColor" stroke-linecap="round" stroke-linejoin="round" rx="2" ry="2" /><rect width="7.348" height="7.348" x="5.5" y="15.384" fill="none" stroke="currentColor" stroke-linecap="round" stroke-linejoin="round" rx="2" ry="2" /><rect width="7.348" height="7.348" x="15.384" y="25.268" fill="none" stroke="currentColor" stroke-linecap="round" stroke-linejoin="round" rx="2" ry="2" /><rect width="7.348" height="7.348" x="25.268" y="25.268" fill="none" stroke="currentColor" stroke-linecap="round" stroke-linejoin="round" rx="2" ry="2" /><rect width="7.348" height="7.348" x="35.153" y="25.268" fill="none" stroke="currentColor" stroke-linecap="round" stroke-linejoin="round" rx="2" ry="2" /><rect width="7.348" height="7.348" x="5.5" y="25.268" fill="none" stroke="currentColor" stroke-linecap="round" stroke-linejoin="round" rx="2" ry="2" /><rect width="7.348" height="7.348" x="15.384" y="35.153" fill="none" stroke="currentColor" stroke-linecap="round" stroke-linejoin="round" rx="2" ry="2" /><rect width="7.348" height="7.348" x="25.268" y="35.153" fill="none" stroke="currentColor" stroke-linecap="round" stroke-linejoin="round" rx="2" ry="2" /><rect width="7.348" height="7.348" x="35.153" y="35.153" fill="none" stroke="currentColor" stroke-linecap="round" stroke-linejoin="round" rx="2" ry="2" /><rect width="7.348" height="7.348" x="5.5" y="35.153" fill="none" stroke="currentColor" stroke-linecap="round" stroke-linejoin="round" rx="2" ry="2" /></svg>