<svg xmlns="http://www.w3.org/2000/svg" viewBox="0 0 48 48" width="48" height="48" fill="none" stroke="currentColor" stroke-width="1" stroke-linecap="round" stroke-linejoin="round"><g fill="none" stroke="currentColor" stroke-linecap="round" stroke-linejoin="round"><path d="M5.5 14.75a9.25 9.25 0 1 1 18.5 0a9.25 9.25 0 0 1-18.5 0m18.5 0a9.25 9.25 0 1 1 18.5 0a9.25 9.25 0 0 1-18.5 0" /><path d="M24 33.25a9.25 9.25 0 1 1 18.5 0a9.25 9.25 0 0 1-18.5 0" /><path d="M5.5 14.75h27.75v18.5H5.5" /><path d="M5.5 33.25a9.25 9.25 0 1 1 18.5 0a9.25 9.25 0 0 1-18.5 0" /></g></svg>