<svg xmlns="http://www.w3.org/2000/svg" viewBox="0 0 48 48" width="48" height="48" fill="none" stroke="currentColor" stroke-width="1" stroke-linecap="round" stroke-linejoin="round"><path fill="none" stroke="currentColor" stroke-linecap="round" stroke-linejoin="round" d="M16 5.5c3.324 0 6 2.676 6 6V22H11.5c-3.324 0-6-2.676-6-6c0-5.799 4.701-10.5 10.5-10.5m16 0c-3.324 0-6 2.676-6 6V22h10.5c3.324 0 6-2.676 6-6c0-5.799-4.701-10.5-10.5-10.5m-16 37c3.324 0 6-2.676 6-6V26H11.5c-3.324 0-6 2.676-6 6c0 5.799 4.701 10.5 10.5 10.5m16 0c-3.324 0-6-2.676-6-6V26h10.5c3.324 0 6 2.676 6 6c0 5.799-4.701 10.5-10.5 10.5" /></svg>