<svg xmlns="http://www.w3.org/2000/svg" viewBox="0 0 48 48" width="48" height="48" fill="none" stroke="currentColor" stroke-width="1" stroke-linecap="round" stroke-linejoin="round"><path fill="none" stroke="currentColor" stroke-linecap="round" stroke-linejoin="round" d="M33.071 17.852a3.425 3.425 0 0 1-6.85 0V6.925a3.425 3.425 0 0 1 6.85 0zm-15.219-2.923a3.425 3.425 0 0 1 0 6.85H6.925a3.425 3.425 0 0 1 0-6.85zm-2.923 15.219a3.425 3.425 0 0 1 6.85 0v10.927a3.425 3.425 0 0 1-6.85 0zm15.219 2.923a3.425 3.425 0 0 1 0-6.85h10.927a3.425 3.425 0 0 1 0 6.85z" /><circle cx="24" cy="24" r="2.437" fill="none" stroke="currentColor" stroke-linecap="round" stroke-linejoin="round" /></svg>