<svg xmlns="http://www.w3.org/2000/svg" viewBox="0 0 48 48" width="48" height="48" fill="none" stroke="currentColor" stroke-width="1" stroke-linecap="round" stroke-linejoin="round"><path fill="none" stroke="currentColor" stroke-linecap="round" stroke-linejoin="round" d="M14.75 7.5v.625a2 2 135 0 1-2 2h-.625a2 2 135 0 0-2 2v.625a2 2 135 0 1-2 2H7.5a2 2 135 0 0-2 2v14.5a2 2 45 0 0 2 2h.625a2 2 45 0 1 2 2v.625a2 2 45 0 0 2 2h.625a2 2 45 0 1 2 2v.625a2 2 45 0 0 2 2h14.5a2 2 135 0 0 2-2v-.625a2 2 135 0 1 2-2h.625a2 2 135 0 0 2-2v-.625a2 2 135 0 1 2-2h.625a2 2 135 0 0 2-2v-14.5a2 2 45 0 0-2-2h-.625a2 2 45 0 1-2-2v-.625a2 2 45 0 0-2-2h-.625a2 2 45 0 1-2-2V7.5a2 2 45 0 0-2-2h-14.5a2 2 135 0 0-2 2" /></svg>