<svg xmlns="http://www.w3.org/2000/svg" viewBox="0 0 48 48" width="48" height="48"><g fill="none" stroke-linecap="round" stroke-linejoin="round" stroke-width="4"><path fill="#2F88FF" fill-rule="evenodd" stroke="currentColor" d="M4 6C4 4.89543 4.89543 4 6 4H42C43.1046 4 44 4.89543 44 6V38C44 39.1046 43.1046 40 42 40H6C4.89543 40 4 39.1046 4 38V6Z" clip-rule="evenodd" /><path stroke="currentColor" d="M16 40H8V44H16V40Z" /><path stroke="currentColor" d="M40 40H32V44H40V40Z" /><path stroke="#fff" d="M21 16H27" /><path stroke="#fff" d="M10 34H12" /><path stroke="#fff" d="M19 34H29" /><path stroke="#fff" d="M4 25H44" /><path stroke="#fff" d="M4 10H44" /><path stroke="#fff" d="M36 34H38" /><path stroke="currentColor" d="M4 6V14" /><path stroke="currentColor" d="M44 6V14" /><path stroke="currentColor" d="M4 21V29" /><path stroke="currentColor" d="M44 21V29" /></g></svg>