<svg xmlns="http://www.w3.org/2000/svg" viewBox="0 0 48 48" width="48" height="48"><g fill="none" stroke-linecap="round" stroke-linejoin="round" stroke-width="4"><rect width="38" height="20" x="5" y="5" fill="#2F88FF" stroke="currentColor" rx="2" /><path stroke="#fff" d="M14 5V25" /><path stroke="#fff" d="M34 5V25" /><path stroke="currentColor" d="M30 5H38" /><path stroke="#fff" d="M5 11L43 11" /><path stroke="#fff" d="M5 19L43 19" /><path stroke="currentColor" d="M5 21V9" /><path stroke="currentColor" d="M43 21V9" /><path stroke="currentColor" d="M10 5H18" /><path stroke="currentColor" d="M30 25H38" /><path stroke="currentColor" d="M10 25H18" /><path stroke="currentColor" d="M32 25C32 29.4183 28.4183 33 24 33C19.5817 33 16 29.4183 16 25" /><path stroke="currentColor" d="M28 32L27 37V44" /><path stroke="currentColor" d="M20 32L21 37V44" /></g></svg>