<svg xmlns="http://www.w3.org/2000/svg" viewBox="0 0 17 17" width="48" height="48"><g fill="none" fill-rule="evenodd"><path fill="currentColor" d="M12 9h1.953v-.929H12V6.067h-.959v2.004H6.937V6.065h-.9v2.006H4.029V9h2.008v2.048H4V12h2.037v2h.9v-2h4.104v1.998H12V12h1.957v-.952H12zm-.975 2.048H6.968V9h4.057z" /><path fill="currentColor" d="M14.77 1.051H13V2h-1v-.949H6V2H5v-.949H3.23C1.998 1.051 1 2.061 1 3.306v10.322c0 1.244.998 2.255 2.23 2.255h11.539c1.232 0 2.23-1.011 2.23-2.255V3.306c.001-1.245-.997-2.255-2.229-2.255M16 14c0 1.067.027 1-1 1H3c-1.027 0-1 .067-1-1V5h14zM5 0h.979v1H5zm7 0h1v1h-1z" /></g></svg>