<svg xmlns="http://www.w3.org/2000/svg" viewBox="0 0 17 17" width="48" height="48"><g fill="none" fill-rule="evenodd" transform="translate(1 3)"><path fill="currentColor" d="M14.654 0h-.347l-.843 1.954H2.61L1.756 0h-.36C.65 0 .046.624.046 1.392L.001 9.608c0 .768.604 1.392 1.35 1.392h13.32c.746 0 1.285-.624 1.285-1.392L16 1.392C16.002.624 15.398 0 14.654 0M4.5 9a2.5 2.5 0 1 1 .001-5.001A2.5 2.5 0 0 1 4.5 9m7 0a2.5 2.5 0 1 1 0-5a2.5 2.5 0 0 1 0 5" /><path fill="currentColor" d="M3.529.908h8.707L12.927 0H3.033z" /><ellipse cx="4.453" cy="6.469" fill="currentColor" rx="1.453" ry="1.469" /><ellipse cx="11.453" cy="6.469" fill="currentColor" rx="1.453" ry="1.469" /></g></svg>