<svg xmlns="http://www.w3.org/2000/svg" viewBox="0 0 17 17" width="48" height="48"><g fill="none" fill-rule="evenodd"><path fill="currentColor" d="M11.969 3.985L9 1.032L6.031 3.985h1.985V6.97h1.937V3.985z" /><path fill="currentColor" d="M16.304 5.059h-5.242v3.004H6.959V5.059H1.701a.65.65 0 0 0-.648.648v8.617a.65.65 0 0 0 .648.648h14.603a.65.65 0 0 0 .649-.648V5.707a.65.65 0 0 0-.649-.648m-1.398 8.987l-2.884-3.403l-3.009 2.545l-3.058-2.618l-2.862 3.477H1.847l3.189-4.353l-3.07-2.6l-.029-1.281l7.076 5.531l7.049-5.62v1.37l-3.017 2.6l3.124 4.338z" /></g></svg>