<svg xmlns="http://www.w3.org/2000/svg" viewBox="0 0 17 17" width="48" height="48"><g fill="none" fill-rule="evenodd"><path fill="currentColor" d="M6.031 4.017L9 6.97l2.969-2.953H9.984V1.032H8.047v2.985z" /><path fill="currentColor" d="M16.304 5.059h-3.242l-4 4.004l-4.103-4.004H1.701a.65.65 0 0 0-.648.648v8.617a.65.65 0 0 0 .648.648h14.603a.65.65 0 0 0 .649-.648V5.707a.65.65 0 0 0-.649-.648m-1.398 8.987l-2.884-3.403l-3.009 2.545l-3.058-2.618l-2.862 3.477H1.847l3.189-4.353l-3.07-2.6l-.029-1.281l7.076 5.531l7.049-5.62v1.37l-3.017 2.6l3.124 4.338z" /></g></svg>