<svg xmlns="http://www.w3.org/2000/svg" viewBox="0 0 17 17" width="48" height="48"><g fill="none" fill-rule="evenodd"><path fill="currentColor" d="M12.901.016H3.16C2.002.016 1 .907 1 2.005V13c0 1.099.871 1.989 2.028 1.989h.012V16H5v-1.011h6V16h2v-1.012c1.152-.005 1.998-.894 1.998-1.988V2.005c0-1.099-.938-1.989-2.097-1.989m1.138 12.979c0 .672-.497 1.047-1.06 1.047h-9.94c-.56 0-1.06-.32-1.06-1.004V2.017c0-.685.431-1.038 1.038-1.038H13c.499 0 1.038.467 1.038 1.035z" /><path fill="currentColor" d="M3 13h10V2H3zm5-7a2 2 0 0 1 2 2h1v1H9.723c-.347.595-.984 1-1.723 1a2 2 0 0 1 0-4" /></g></svg>