<svg xmlns="http://www.w3.org/2000/svg" viewBox="0 0 17 17" width="48" height="48"><g fill="none" fill-rule="evenodd"><path fill="currentColor" d="M16.922 9.938s-.449-.919-.651-.938l-6.515.062l-1.085-2.373c.487-.69.396-1.905-.304-3.036c-.343-.557-.799-1.021-1.278-1.312c-.643-.385-1.284-.434-1.762-.134c-.862.545-.881 2.031-.044 3.386c.342.556.796 1.022 1.279 1.311c.36.216.716.313 1.048.317l.796 1.854l-1.714.016c-.152-.311-.613-1.062-.994-1.289c-.482-.291-1.105-.639-1.757-.678c-1.572-.094-2.852.788-2.913 1.799c-.031.551.311 1.085.945 1.465c.483.289 1.107.47 1.757.509c1.267.075 2.331-.229 2.733-.935l2.367-.005l1.31 3h1.396l-1.34-3.003zM8.078 5.812c-.05.176-.137.319-.272.404c-.126.081-.291.093-.47.057c-.453-.087-1.01-.501-1.38-1.098c-.534-.866-.587-1.852-.113-2.149c.235-.148.583-.106.954.115c.333.201.651.529.896.927c.386.62.515 1.298.385 1.744M5.429 9.668c-.353.318-.973.511-1.659.467c-.99-.062-1.855-.669-1.823-1.248c.034-.615.93-1.078 1.957-1.012c.473.031.922.171 1.264.393c.179.117.315.25.41.389a.75.75 0 0 1 .148.469c-.012.202-.124.387-.297.542M10 13h1.984v1H10zm-4 0h1.984v.969H6zm8 0h1.984v.969H14zM2 13h1.984v.969H2z" /></g></svg>