<svg xmlns="http://www.w3.org/2000/svg" viewBox="0 0 24 24" width="48" height="48"><mask id="SVGrX5MMegh" width="18" height="20" x="3" y="1" fill="currentColor" maskUnits="userSpaceOnUse"><path fill="#fff" d="M3 1h18v20H3z" /><path d="m12.394 3.169l5.924 2.539a1 1 0 0 1 .6 1.03l-.651 5.862a6 6 0 0 1-2.122 3.946l-3.505 2.92a1 1 0 0 1-1.28 0l-3.505-2.92A6 6 0 0 1 5.733 12.6l-.651-5.863a1 1 0 0 1 .6-1.03l5.924-2.538a1 1 0 0 1 .788 0" /></mask><g fill="none"><path fill="currentColor" fill-opacity=".25" d="m12.394 3.169l5.924 2.539a1 1 0 0 1 .6 1.03l-.651 5.862a6 6 0 0 1-2.122 3.946l-3.505 2.92a1 1 0 0 1-1.28 0l-3.505-2.92A6 6 0 0 1 5.733 12.6l-.651-5.863a1 1 0 0 1 .6-1.03l5.924-2.538a1 1 0 0 1 .788 0" /><path stroke="currentColor" stroke-linecap="round" stroke-width="2.4" d="m12.394 3.169l5.924 2.539a1 1 0 0 1 .6 1.03l-.651 5.862a6 6 0 0 1-2.122 3.946l-3.505 2.92a1 1 0 0 1-1.28 0l-3.505-2.92A6 6 0 0 1 5.733 12.6l-.651-5.863a1 1 0 0 1 .6-1.03l5.924-2.538a1 1 0 0 1 .788 0Z" mask="url(#SVGrX5MMegh)" /></g></svg>