<svg xmlns="http://www.w3.org/2000/svg" viewBox="0 0 24 24" width="48" height="48"><mask id="SVGk33K9cMQ" width="18" height="22" x="3" y="1" fill="currentColor" maskUnits="userSpaceOnUse"><path fill="#fff" d="M3 1h18v22H3z" /><path d="M19 14.571C19 18.121 15.866 21 12 21s-7-2.878-7-6.429c0-4.52 4.644-9.353 6.367-10.99a.913.913 0 0 1 1.266 0C14.356 5.217 19 10.05 19 14.57" /></mask><g fill="none" stroke="currentColor"><path stroke-width="4" d="M19 14.571C19 18.121 15.866 21 12 21s-7-2.878-7-6.429c0-4.52 4.644-9.353 6.367-10.99a.913.913 0 0 1 1.266 0C14.356 5.217 19 10.05 19 14.57Z" mask="url(#SVGk33K9cMQ)" /><path stroke-linecap="round" stroke-width="2" d="M12 18a4 4 0 0 1-4-4" /></g></svg>