<svg xmlns="http://www.w3.org/2000/svg" viewBox="0 0 24 24" width="48" height="48"><mask id="SVGNzYcbbPI" fill="#fff"><path d="m11.106 12.553l-6.081-3.04A1.854 1.854 0 0 1 5.855 6h12.29a1.854 1.854 0 0 1 .83 3.512l-6.08 3.04a2 2 0 0 1-1.79 0" /></mask><g fill="none" stroke="currentColor"><rect width="16" height="12" x="4" y="6" stroke-width="1.2" rx="2" /><path stroke-width="1.2" d="m4 9l7.106 3.553a2 2 0 0 0 1.788 0L20 9" /><path fill="currentColor" fill-opacity=".25" stroke-width="2.4" d="m11.106 12.553l-6.081-3.04A1.854 1.854 0 0 1 5.855 6h12.29a1.854 1.854 0 0 1 .83 3.512l-6.08 3.04a2 2 0 0 1-1.79 0Z" mask="url(#SVGNzYcbbPI)" /></g></svg>