<svg xmlns="http://www.w3.org/2000/svg" viewBox="0 0 24 24" width="48" height="48" fill="none" stroke="currentColor" stroke-width="1" stroke-linecap="round" stroke-linejoin="round"><g fill="none" stroke="currentColor" stroke-linecap="round" stroke-linejoin="round"><path d="M5.5 5.5a1 1 0 0 1 1-1h11a1 1 0 0 1 1 1v13a1 1 0 0 1-1 1h-11a1 1 0 0 1-1-1z" /><circle cx="12" cy="10" r="3.5" /><path d="M12 6.5c.26 0 .631.225.967.896c.32.64.533 1.56.533 2.604s-.213 1.964-.533 2.605c-.336.67-.706.895-.967.895c-.26 0-.631-.225-.967-.896c-.32-.64-.533-1.56-.533-2.604s.213-1.964.533-2.604c.336-.671.706-.896.967-.896" /></g></svg>