<svg xmlns="http://www.w3.org/2000/svg" viewBox="0 0 24 24" width="48" height="48"><defs><path id="SVGVMnuzcqq" d="M9 5c0-.943 0-1.414.293-1.707S10.057 3 11 3h2c.943 0 1.414 0 1.707.293S15 4.057 15 5v1H9z" /><path id="SVGvvd0ferX" d="M9 19c0 .943 0 1.414.293 1.707S10.057 21 11 21h2c.943 0 1.414 0 1.707-.293S15 19.943 15 19v-1H9z" /></defs><mask id="SVGF2BX2roZ" width="8" height="5" x="8" y="2" fill="currentColor" maskUnits="userSpaceOnUse"><path fill="#fff" d="M8 2h8v5H8z" /><use href="#SVGVMnuzcqq" /></mask><mask id="SVGtHHJbeaR" width="8" height="5" x="8" y="17" fill="currentColor" maskUnits="userSpaceOnUse"><path fill="#fff" d="M8 17h8v5H8z" /><use href="#SVGvvd0ferX" /></mask><g fill="none" stroke="currentColor"><rect width="11" height="11" x="6.5" y="6.5" rx="2.5" /><use href="#SVGVMnuzcqq" stroke-width="2" mask="url(#SVGF2BX2roZ)" /><use href="#SVGvvd0ferX" stroke-width="2" mask="url(#SVGtHHJbeaR)" /></g></svg>