<svg xmlns="http://www.w3.org/2000/svg" viewBox="0 0 24 24" width="48" height="48"><path fill="currentColor" d="M12.006 3.02q1.736-.02 2.682 1.303q.945 1.323 1.648 2.985q.612 1.46 1.208 3.288t1.265 3.68q.645 1.782 1.382 3.345t1.703 2.643q.123.148.118.323t-.13.284q-.141.129-.31.135t-.31-.117q-1.745-1.627-2.933-3.434q-1.189-1.807-2.296-3.02q-.85-.95-1.823-1.51q-.972-.56-2.204-.54q-1.233-.02-2.205.54t-1.822 1.51q-1.108 1.213-2.296 3.02T2.75 20.889q-.14.123-.31.117t-.311-.135q-.123-.11-.129-.284t.117-.323q.967-1.06 1.704-2.633t1.382-3.354q.67-1.853 1.265-3.681t1.207-3.288q.704-1.662 1.649-2.985t2.682-1.304m0 1q-1.298 0-2.035 1.1q-.736 1.1-1.275 2.343q-.842 1.977-1.508 4.128q-.667 2.15-1.522 4.275l1.03-1.348q.51-.669 1.084-1.267q.918-.875 1.936-1.37t2.29-.495t2.29.495t1.936 1.37q.574.598 1.084 1.267l1.03 1.348q-.855-2.125-1.522-4.275q-.666-2.151-1.509-4.128q-.538-1.243-1.274-2.343q-.737-1.1-2.035-1.1m0 7.366" /></svg>