<svg xmlns="http://www.w3.org/2000/svg" viewBox="0 0 24 24" width="48" height="48"><path fill="currentColor" d="M12 21q-1.864 0-3.506-.701t-2.867-1.926t-1.926-2.867T3 12t.701-3.506t1.926-2.857T8.494 3.71T12 3t3.506.71t2.857 1.927q1.216 1.215 1.926 2.857Q21 10.137 21 12t-.71 3.506q-.711 1.642-1.926 2.867q-1.216 1.225-2.858 1.926T12 21m0-1q3.325 0 5.663-2.328T20 12q0-3.325-2.337-5.663T12 4Q8.656 4 6.328 6.338T4 12q0 3.344 2.328 5.672T12 20m-2.346-4.827l.688-.708L8.396 12.5h7.227l-1.946 1.966l.708.707L17.519 12l-3.134-3.154l-.708.708l1.946 1.946H8.396l1.946-1.946l-.688-.708L6.5 12z" /></svg>