<svg xmlns="http://www.w3.org/2000/svg" viewBox="0 0 24 24" width="48" height="48"><path fill="currentColor" d="M11.998 15.289q-1.363 0-2.325-.959q-.961-.958-.961-2.327t.958-2.32t2.327-.952t2.32.954t.952 2.317t-.954 2.325t-2.317.961M12.002 21q-1.865 0-3.508-.701t-2.867-1.926t-1.926-2.866T3 12.002t.701-3.508t1.926-2.857T8.493 3.71T11.998 3t3.509.709t2.859 1.922t1.925 2.857t.709 3.509t-.71 3.509t-1.926 2.867t-2.856 1.926t-3.506.701m-.011-1q3.334 0 5.672-2.328T20 12.009t-2.337-5.671T12 4Q8.656 4 6.328 6.338T4 12q0 3.344 2.328 5.672T11.991 20M12 16.288q1.787 0 3.028-1.254T16.269 12q0-1.787-1.241-3.028T12 7.731T8.962 8.972T7.712 12t1.254 3.038T12 16.288" /></svg>