<svg xmlns="http://www.w3.org/2000/svg" viewBox="0 0 24 24" width="48" height="48"><path fill="currentColor" d="m9.377 15.15l-1.386 2.875l-4.708 3.008l-.335-.439l3.758-3.496l.679-3.867l2.17-4.697q.299-.626.948-.819t1.276.118l3.375 1.673l4.415-.145l-.34-1.273q-.5-.1-.96-.427q-.46-.328-.857-.882q-.293-.385-.54-.883q-.249-.498-.574-1.254q-.273-.652.043-1.284q.317-.633 1.019-.82l1.51-.405q.701-.187 1.288.204t.673 1.1q.125.78.147 1.352t-.034 1.063q-.08.684-.305 1.19t-.62.85l.966 3.627l-.796.221l-.487-1.752l-4.839.787l-1.811-.794l-2.34 3.323l5.719 7.333l-.377.396zm3.565-8.996q-.651 0-1.114-.463t-.462-1.114t.462-1.115T12.942 3t1.105.462t.453 1.115t-.453 1.114q-.453.463-1.105.463m6.495 1.08q.2-.05.326-.237t.245-.628q.138-.55.145-1.216t-.118-1.632q-.05-.321-.334-.504q-.284-.182-.605-.094l-1.51.412q-.32.088-.481.387t-.022.615q.35.863.704 1.438t.773.98q.325.312.5.415q.177.103.377.065" /></svg>