<svg xmlns="http://www.w3.org/2000/svg" viewBox="0 0 24 24" width="48" height="48"><path fill="currentColor" d="M19.5 20h-15q-.213 0-.356-.144T4 19.499t.144-.356T4.5 19h15q.213 0 .356.144t.144.357t-.144.356T19.5 20M5.866 15.75q0 .214-.144.357t-.356.143H4.5q-.213 0-.356-.144T4 15.749t.144-.356t.356-.143h.865q.213 0 .357.144t.143.357m2.693.499q-.343 0-.576-.232t-.232-.576V8.558q0-.343.232-.576t.576-.232h6.884q.344 0 .576.232t.232.576v6.884q0 .344-.232.576t-.576.232zm10.942 0h-.865q-.213 0-.357-.144t-.143-.357t.143-.356t.357-.143h.865q.213 0 .356.144t.144.357t-.144.356t-.356.143M5.866 12q0 .214-.144.357t-.356.143H4.5q-.213 0-.356-.144T4 11.999t.144-.356t.356-.143h.865q.213 0 .357.144t.143.357M19.5 12.5h-.865q-.213 0-.357-.144t-.143-.357t.143-.356t.357-.143h.865q.213 0 .356.144t.144.357t-.144.356t-.356.143M5.866 8.25q0 .214-.144.357t-.356.143H4.5q-.213 0-.356-.144T4 8.249t.144-.356t.356-.143h.865q.213 0 .357.144t.143.357M19.5 8.75h-.865q-.213 0-.357-.144t-.143-.357t.143-.356t.357-.143h.865q.213 0 .356.144t.144.357t-.144.356t-.356.143m0-3.75h-15q-.213 0-.356-.144T4 4.499t.144-.356T4.5 4h15q.213 0 .356.144t.144.357t-.144.356T19.5 5" /></svg>