<svg xmlns="http://www.w3.org/2000/svg" viewBox="0 0 24 24" width="48" height="48"><path fill="currentColor" d="M17.846 15.154q-1.306 0-2.23-.924T14.692 12t.924-2.23t2.23-.924t2.23.924T21 12t-.923 2.23t-2.23.924m-11.693 0q-1.307 0-2.23-.924Q3 13.306 3 12t.924-2.23t2.23-.924t2.23.924t.924 2.23t-.924 2.23t-2.23.924m-.002-1q.896 0 1.526-.628q.63-.627.63-1.524t-.628-1.526t-1.524-.63t-1.526.628T4 11.998t.628 1.526t1.524.63M12 21q-1.306 0-2.23-.923q-.924-.924-.924-2.23q0-1.308.924-2.231q.924-.924 2.23-.924t2.23.924t.924 2.23t-.924 2.23T12 21m-.002-1q.896 0 1.526-.628t.63-1.524t-.628-1.526t-1.524-.63t-1.526.628t-.63 1.524t.628 1.526t1.524.63M12 9.308q-1.306 0-2.23-.91t-.924-2.224t.924-2.245Q10.694 3 12 3t2.23.93t.924 2.244t-.924 2.224t-2.23.91m-.002-1q.896 0 1.526-.624q.63-.623.63-1.514t-.628-1.53T12.002 4t-1.526.64t-.63 1.53t.628 1.514t1.524.624" /></svg>