<svg xmlns="http://www.w3.org/2000/svg" viewBox="0 0 24 24" width="48" height="48"><path fill="currentColor" d="M10.152 15.096q.179 0 .302-.126t.123-.304v-2.043h1.175l1.433 2.294q.061.087.141.133t.191.046q.247 0 .376-.208t-.024-.419l-1.294-2.06q.623-.217.938-.645q.314-.43.314-1.058q0-.933-.575-1.377t-1.733-.445h-.99q-.348 0-.578.23t-.23.578v4.999q0 .178.126.292t.305.113m.425-3.229V9.706l.887-.006q.707-.006 1.092.275q.385.28.385.786q0 .531-.384.819t-1.082.287zM3 17.384V8.27q0-1.361.973-2.325q.973-.963 2.354-.963h11.346q1.38 0 2.354.963Q21 6.908 21 8.27v9.116q0 .67-.472 1.143q-.472.472-1.143.472H4.615q-.67 0-1.143-.472Q3 18.056 3 17.385" /></svg>