<svg xmlns="http://www.w3.org/2000/svg" viewBox="0 0 24 24" width="48" height="48"><path fill="currentColor" d="M12 5.442L10 2.77h4zm0 10.825q3.35 0 5.675-1.203T20 12.136T17.675 9.2T12 7.985T6.325 9.199T4 12.136t2.325 2.928Q8.65 16.267 12 16.267m4.27.39v2.747q0 .666-.475 1.14t-1.141.475H9.327q-.667 0-1.141-.474t-.475-1.141v-2.746q-2.12-.666-3.416-1.851T3 12.133Q3 9.99 5.62 8.486t6.376-1.505t6.38 1.505T21 12.133q0 1.488-1.295 2.674t-3.436 1.85m-5.071-1.984h2.198q.166 0 .27-.103q.103-.103.103-.267t-.104-.27t-.269-.106h-1.833V9.942q0-.153-.115-.269q-.115-.115-.27-.115q-.153 0-.268.115q-.116.116-.116.27v4.326q0 .162.122.283q.12.121.282.121" /></svg>