<svg xmlns="http://www.w3.org/2000/svg" viewBox="0 0 24 24" width="48" height="48"><path fill="currentColor" d="M12 21q-1.306 0-2.23-.923q-.924-.924-.924-2.23q0-1.308.924-2.231q.924-.924 2.23-.924t2.23.924t.924 2.23t-.924 2.23T12 21m0-11.692q-1.306 0-2.23-.924t-.924-2.23t.924-2.23T12 3t2.23.924t.924 2.23t-.924 2.23t-2.23.924m-.002-1q.896 0 1.526-.628q.63-.627.63-1.524t-.628-1.526T12.002 4t-1.526.628t-.63 1.524t.628 1.526t1.524.63m-5.844 6.846q-1.307 0-2.23-.924Q3 13.306 3 12t.924-2.23t2.23-.924t2.23.924t.924 2.23t-.924 2.23t-2.23.924m-.002-1q.896 0 1.526-.628q.63-.627.63-1.524t-.628-1.526t-1.524-.63t-1.526.628T4 11.998t.628 1.526t1.524.63m11.674 1q-1.314 0-2.224-.924t-.91-2.23t.91-2.23t2.224-.924t2.245.924T21 12t-.93 2.23t-2.244.924m.004-1q.891 0 1.53-.628q.64-.627.64-1.524t-.64-1.526t-1.53-.63q-.89 0-1.514.628q-.624.627-.624 1.524t.624 1.526t1.514.63" /></svg>