<svg xmlns="http://www.w3.org/2000/svg" viewBox="0 0 24 24" width="48" height="48"><path fill="currentColor" d="M16.27 14.658v2.727q0 .666-.475 1.14T14.654 19H9.327q-.667 0-1.141-.475t-.475-1.14v-2.727q-2.12-.666-3.416-1.851T3 10.133Q3 7.99 5.62 6.486t6.376-1.505t6.38 1.505T21 10.133q0 1.488-1.295 2.674t-3.436 1.85m-5.517-1.891q.154 0 .27-.116q.114-.115.114-.27v-1.626h.912l1.13 1.83q.05.082.133.132t.185.05q.23 0 .335-.199q.105-.198-.037-.384l-1.04-1.637q.5-.194.762-.53t.263-.843q0-.73-.469-1.127q-.468-.396-1.377-.396h-1.164q-.16 0-.281.121q-.12.121-.12.283v4.327q0 .154.115.269t.269.116m.385-2.685V8.37h.717q.573 0 .852.213t.279.625q0 .439-.27.656q-.269.216-.848.216z" /></svg>