<svg xmlns="http://www.w3.org/2000/svg" viewBox="0 0 24 24" width="48" height="48"><path fill="currentColor" d="M12 9.308q-1.306 0-2.23-.924q-.924-.923-.924-2.23t.924-2.23T12 3t2.23.924q.924.923.924 2.23t-.924 2.23t-2.23.924M12 21q-1.306 0-2.23-.923q-.924-.924-.924-2.23q0-1.308.924-2.231q.924-.924 2.23-.924t2.23.924t.924 2.23t-.924 2.23T12 21m-.002-1q.896 0 1.526-.628t.63-1.524t-.628-1.526t-1.524-.63t-1.526.628t-.63 1.524t.628 1.526t1.524.63m5.848-4.846q-1.306 0-2.23-.924T14.692 12t.924-2.23t2.23-.924t2.23.924T21 12t-.923 2.23t-2.23.924m-.003-1q.896 0 1.526-.628t.63-1.524t-.628-1.526t-1.524-.63t-1.526.628t-.63 1.524t.628 1.526t1.524.63m-11.67 1q-1.315 0-2.245-.924Q3 13.306 3 12t.93-2.23t2.244-.924t2.224.924t.91 2.23t-.91 2.23t-2.224.924m-.004-1q.89 0 1.514-.628q.624-.627.624-1.524t-.624-1.526t-1.514-.63t-1.53.628T4 11.998t.64 1.526t1.53.63" /></svg>