<svg xmlns="http://www.w3.org/2000/svg" viewBox="0 0 24 24" width="48" height="48"><path fill="currentColor" d="M8.66 14.289v-4.96q0-.173-.131-.3t-.3-.125q-.173 0-.3.126t-.125.299v4.979q0 .343.232.575t.575.232h2.581q.182 0 .298-.115t.116-.296t-.116-.298t-.298-.118zm5.71-4.558v4.96q0 .172.13.298t.3.126q.173 0 .299-.126t.126-.299V9.73h1.52q.181 0 .297-.114q.116-.115.116-.296t-.116-.299t-.298-.117h-3.913q-.182 0-.298.115t-.116.296t.116.299t.298.117zM3 17.384V8.27q0-1.356.977-2.322t2.35-.966h11.346q1.373 0 2.35.966T21 8.269v9.116q0 .666-.474 1.14T19.385 19H4.615q-.666 0-1.14-.475T3 17.386M4.616 18h14.769q.269 0 .442-.173t.173-.442V8.269q0-.96-.683-1.624q-.684-.664-1.644-.664H6.327q-.96 0-1.643.664Q4 7.31 4 8.27v9.116q0 .269.173.442t.443.173m0 0H4h16z" /></svg>