<svg xmlns="http://www.w3.org/2000/svg" viewBox="0 0 24 24" width="48" height="48"><path fill="currentColor" d="M13.589 14.337v-.056l1.34-1.202q.806-.742 1.145-1.31t.34-1.219q0-.802-.526-1.264t-1.402-.463q-.492 0-.92.174t-.792.553q-.13.104-.11.259q.019.155.137.274q.107.119.251.111t.27-.111q.276-.23.55-.335q.272-.106.603-.106q.483 0 .777.266q.294.265.294.704q0 .501-.279.938t-1.038 1.19l-1.635 1.566q-.05.03-.111.268v.221q0 .153.124.267t.272.115h3.34q.179 0 .306-.124t.127-.305t-.127-.296t-.306-.115zm-5.43.013V9.396q0-.169-.13-.3t-.3-.13q-.173 0-.3.13t-.125.3v4.973q0 .344.232.576t.575.232h2.581q.182 0 .298-.115t.116-.296t-.116-.299t-.298-.117zM3 17.384V8.27q0-1.356.977-2.322t2.35-.966h11.346q1.373 0 2.35.966T21 8.269v9.116q0 .666-.474 1.14T19.385 19H4.615q-.666 0-1.14-.475T3 17.386" /></svg>