<svg xmlns="http://www.w3.org/2000/svg" viewBox="0 0 24 24" width="48" height="48"><path fill="currentColor" d="M12 5.442L10 2.77h4zm0 10.825q3.35 0 5.675-1.203T20 12.136T17.675 9.2T12 7.985T6.325 9.199T4 12.136t2.325 2.928Q8.65 16.267 12 16.267m4.27.39v4.362H7.711v-4.361q-2.121-.666-3.417-1.851T3 12.133Q3 9.99 5.62 8.486t6.376-1.505t6.38 1.505T21 12.133q0 1.488-1.295 2.674t-3.436 1.85m-5.902-1.891h.77v-2.012h.911l1.242 2.012h.893l-1.43-2.215q.5-.199.763-.534t.263-.844q0-.73-.469-1.127q-.468-.396-1.377-.396h-1.566zm.77-2.685v-1.71h.717q.573 0 .852.213t.278.624q0 .44-.269.656t-.848.217z" /></svg>