<svg xmlns="http://www.w3.org/2000/svg" viewBox="0 0 24 24" width="48" height="48"><path fill="currentColor" d="M7.57 15.154q.181 0 .312-.126q.132-.126.132-.3v-2.047h1.175l1.432 2.275q.06.09.14.144t.193.054q.246 0 .376-.218t-.024-.428l-1.294-2.04q.623-.218.937-.645t.315-1.054q0-.938-.561-1.382q-.56-.445-1.724-.445H7.966q-.344 0-.576.233q-.232.232-.232.575v4.979q0 .173.116.299q.117.126.297.126m.448-3.229L8 9.758h.933q.707 0 1.072.277q.364.278.364.784q0 .531-.357.819t-1.008.287zm6.873 3.229q.174 0 .3-.126q.125-.126.125-.3V9.77h1.52q.182 0 .297-.115q.116-.115.116-.296t-.116-.298t-.297-.118h-3.908q-.182 0-.298.115t-.115.297q0 .18.115.298q.116.117.298.117h1.533v4.96q0 .173.13.299q.131.126.3.126M3 17.384V8.27q0-1.356.977-2.322t2.35-.966h11.346q1.373 0 2.35.966T21 8.269v9.116q0 .666-.474 1.14T19.385 19H4.615q-.666 0-1.14-.475T3 17.386M4.616 18h14.769q.269 0 .442-.173t.173-.442V8.269q0-.96-.683-1.624q-.684-.664-1.644-.664H6.327q-.96 0-1.643.664Q4 7.31 4 8.27v9.116q0 .269.173.442t.443.173m0 0H4h16z" /></svg>