<svg xmlns="http://www.w3.org/2000/svg" viewBox="0 0 24 24" width="48" height="48"><path fill="currentColor" d="M12 5.442L10 2.77h4zm0 10.825q3.35 0 5.675-1.203T20 12.136T17.675 9.2T12 7.985T6.325 9.199T4 12.136t2.325 2.928Q8.65 16.267 12 16.267m4.27.39v2.747q0 .666-.475 1.14t-1.141.475H9.327q-.667 0-1.141-.474t-.475-1.141v-2.746q-2.12-.666-3.416-1.851T3 12.133Q3 9.99 5.62 8.486t6.376-1.505t6.38 1.505T21 12.133q0 1.488-1.295 2.674t-3.436 1.85m-5.517-1.891q.154 0 .27-.116q.114-.116.114-.27v-1.626h.912l1.13 1.836q.05.081.133.128q.082.047.185.047q.23 0 .335-.198t-.037-.384l-1.04-1.637q.5-.194.762-.53t.263-.843q0-.73-.469-1.127q-.468-.396-1.377-.396h-1.164q-.16 0-.281.121q-.12.121-.12.283v4.327q0 .154.115.269t.269.116m.385-2.685v-1.71h.717q.573 0 .852.213t.279.625q0 .439-.27.656q-.269.216-.848.216z" /></svg>