<svg xmlns="http://www.w3.org/2000/svg" viewBox="0 0 24 24" width="48" height="48"><path fill="currentColor" d="M6.808 20v-3q0-1.852 1.135-3.285T10.853 12q-1.774-.3-2.91-1.724T6.808 7V4H5.5q-.213 0-.356-.144T5 3.499t.144-.356T5.5 3h13q.213 0 .356.144t.144.357t-.144.356T18.5 4h-1.308v3q0 1.777-1.075 3.146t-2.746 1.675q.289.02.76.145t.99.451q-.373.154-.679.34t-.576.445q-.404-.223-.882-.347T12 12.73q-1.765 0-2.979 1.254Q7.808 15.239 7.808 17v3h4.108q.078.28.19.521q.113.24.246.479H5.5q-.213 0-.356-.144T5 20.499t.144-.356T5.5 20zM12 11.27q1.766 0 2.979-1.255T16.192 7V4H7.808v3q0 1.766 1.213 3.017Q10.234 11.27 12 11.27m6 10.789q-1.671 0-2.835-1.165Q14 19.73 14 18.058t1.165-2.836T18 14.058t2.836 1.164T22 18.058q0 1.67-1.164 2.835Q19.67 22.058 18 22.058m-.7-3.097l-1.121-1.12q-.112-.112-.27-.122q-.157-.01-.288.121t-.13.28t.13.278l1.114 1.113q.242.243.565.243t.566-.243l2.513-2.513q.111-.112.121-.27q.01-.157-.121-.288t-.279-.13t-.279.13z" /></svg>