<svg xmlns="http://www.w3.org/2000/svg" viewBox="0 0 24 24" width="48" height="48"><path fill="currentColor" d="M5.5 21q-.213 0-.357-.143T5 20.5t.143-.357T5.5 20h1.308v-3q0-1.852 1.135-3.285T10.853 12q-1.774-.3-2.91-1.724T6.808 7V4H5.5q-.213 0-.357-.143T5 3.5t.143-.357T5.5 3h13q.214 0 .357.143T19 3.5t-.143.357T18.5 4h-1.308v3q0 1.777-1.075 3.146t-2.746 1.675q.018.089.267.36q.249.273.606.808q-1.238.842-1.933 2.182t-.695 2.887q0 .786.19 1.523T12.352 21zM18 22.058q-1.671 0-2.835-1.165Q14 19.73 14 18.058t1.165-2.836T18 14.058t2.836 1.164T22 18.058q0 1.67-1.164 2.835Q19.67 22.058 18 22.058m-.7-3.097l-1.121-1.12q-.112-.112-.27-.122q-.157-.01-.288.121t-.13.28t.13.278l1.114 1.113q.242.243.565.243t.566-.243l2.513-2.513q.111-.112.121-.27q.01-.157-.121-.288t-.279-.13t-.279.13z" /></svg>