<svg xmlns="http://www.w3.org/2000/svg" viewBox="0 0 24 24" width="48" height="48"><path fill="currentColor" d="M16.846 16.885v-1H21v1zm-2-4.385v-1H21v1zm-2-4.384v-1H21v1zm-4.61 3.461q-.928 0-1.582-.65Q6 10.279 6 9.352q0-.928.65-1.582q.649-.654 1.576-.654t1.582.65t.654 1.577t-.65 1.581t-1.577.654M3 16.884v-1.323q0-.326.164-.621q.163-.296.44-.475q1.048-.598 2.199-.916t2.428-.318t2.428.318t2.199.917q.276.178.44.474q.164.295.164.621v1.323zm5.23-2.653q-1.082 0-2.143.298q-1.062.298-2.052.855v.5h8.392v-.5q-.99-.557-2.052-.855q-1.061-.298-2.144-.298m0-3.654q.502 0 .866-.365q.365-.364.365-.866t-.365-.866t-.866-.365t-.866.365Q7 8.844 7 9.346t.365.867t.866.364m0 5.308" /></svg>