<svg xmlns="http://www.w3.org/2000/svg" viewBox="0 0 24 24" width="48" height="48"><path fill="currentColor" d="M17.346 16.885q-.212 0-.356-.144t-.144-.357t.144-.356t.356-.144H20.5q.213 0 .356.145t.144.356t-.144.356t-.356.144zm-2-4.385q-.212 0-.356-.144t-.144-.357t.144-.356t.356-.143H20.5q.213 0 .356.144t.144.357t-.144.356t-.356.143zm-2-4.384q-.212 0-.356-.144t-.144-.357t.144-.356t.356-.143H20.5q.213 0 .356.143q.144.144.144.357t-.144.356t-.356.144zm-5.11 3.461q-.928 0-1.582-.65Q6 10.279 6 9.352q0-.928.65-1.582q.649-.654 1.576-.654t1.582.65t.654 1.577t-.65 1.581t-1.577.654m-4.427 5.308q-.343 0-.576-.232Q3 16.42 3 16.077v-.516q0-.326.164-.621q.163-.296.44-.474q1.048-.599 2.199-.917t2.428-.318t2.428.318t2.199.917q.276.178.44.474q.164.295.164.622v.515q0 .343-.233.576q-.232.232-.575.232z" /></svg>