<svg xmlns="http://www.w3.org/2000/svg" viewBox="0 0 24 24" width="48" height="48"><path fill="currentColor" d="m15.875 7.794l-1.7-4.848q-.067-.188.03-.38q.099-.193.287-.26t.381.028t.26.283l2.244 6.39l2.296-2.013q.223-.198.486-.269t.553-.021t.51.2t.36.387l.11.207l-1.955 6.112q-.189.596-.471 1.134q-.283.539-.65 1.045V14.05q0-.04-.003-.078t-.01-.078l1.886-5.913q.038-.115-.058-.183t-.192.01l-2.414 2.136l-.115-.135q-.049-.057-.116-.13zm-5.371-2.898l-.808-1.39q-.104-.177-.049-.378t.232-.305t.378-.049t.305.232l.894 1.519q-.256.05-.485.123t-.467.248M9.46 8.567l-.923-.16l-1.554-2.226q-.11-.177-.086-.372t.201-.311t.388-.088t.326.204l1.573 2.35q.007.132.017.255t.04.256zm5.617 11.618L5.592 21.75q-.194.037-.365-.085q-.171-.123-.208-.336t.086-.372t.335-.196l9.576-1.59q.484-.088.782-.482q.298-.393.298-.903v-6.015l-4.061-4.513l-.27.134l.633 3.164q.087.429-.214.727t-.73.217l-6.942-1.308q-.214-.036-.333-.2q-.12-.165-.083-.379q.037-.213.21-.322q.175-.11.388-.074l6.666 1.244l-.602-2.978q-.056-.29.006-.56t.259-.498q.179-.229.423-.359q.245-.13.516-.104l.238.005l4.275 4.718q.298.348.47.761q.17.413.17.873v5.473q0 .894-.584 1.572q-.585.678-1.454.82M3.729 18.039q-.213.031-.36-.11q-.146-.14-.177-.353t.11-.36t.354-.177l4.615-.38q.214-.031.375.125q.162.155.162.375q0 .188-.138.326t-.326.168zm-.985-3.923q-.213-.006-.347-.161q-.133-.156-.128-.37q.006-.213.15-.343q.143-.131.356-.125l5.539.18q.188.006.34.146q.154.14.154.354t-.156.36t-.37.14zm9.718-.58" /></svg>