<svg xmlns="http://www.w3.org/2000/svg" viewBox="0 0 24 24" width="48" height="48"><path fill="currentColor" d="m15.875 7.794l-1.852-5.317l.939-.323l2.415 6.854l2.939-2.583l1.413.97l-1.992 6.215q-.189.596-.471 1.134q-.283.539-.65 1.045V14.05q0-.04-.003-.078t-.01-.078l1.886-5.913q.038-.115-.058-.183t-.192.01l-2.414 2.136l-.115-.135q-.049-.057-.116-.13zm-5.371-2.898L9.452 3.08l.86-.506l1.144 1.952zM9.5 8.585l-.963-.177l-1.835-2.623l.823-.593l1.86 2.772zm5.577 11.6l-9.965 1.644l-.171-.995l10.075-1.663q.484-.088.782-.482q.298-.393.298-.903v-6.015L11.65 6.854l.966 4.863l-8.599-1.604l.177-.994l7.166 1.343l-.818-4.281l1.35-.56l4.583 5.063q.298.349.47.762q.17.413.17.873v5.473q0 .894-.584 1.572q-.585.678-1.454.82m-6.27-2.568l-5.578.459l-.073-1l5.652-.46zm0-3.295l-6.563-.211l.031-1.02l6.533.231zm3.655.458" /></svg>