<svg xmlns="http://www.w3.org/2000/svg" viewBox="0 0 24 24" width="48" height="48"><path fill="currentColor" d="m5.112 21.829l-.171-.995l3.867-.638v-2.58l-5.58.459l-.072-1l5.652-.46v-2.294l-6.564-.211l.031-1.02l6.533.231v-2.307l-4.79-.9l.176-.995l7.166 1.343l-.818-4.281l1.35-.56l4.583 5.063q.298.349.47.762q.17.413.17.873v5.473q0 .894-.584 1.572q-.585.678-1.454.82zm13.503-6.04v-3.47q0-.78-.254-1.42q-.255-.64-.767-1.22l-1.719-1.885l-1.852-5.317l.939-.323l2.415 6.854l2.939-2.583l1.413.97l-1.992 6.215q-.189.596-.471 1.134q-.283.539-.65 1.045M9.5 8.585l-.963-.177l-1.835-2.623l.823-.593l1.86 2.772zm1.004-3.689L9.452 3.08l.86-.506l1.144 1.952z" /></svg>