<svg xmlns="http://www.w3.org/2000/svg" viewBox="0 0 24 24" width="48" height="48"><path fill="currentColor" d="M5.592 21.75q-.194.037-.365-.085q-.171-.123-.208-.336t.086-.372t.335-.196l3.368-.565v-2.58l-5.08.423q-.213.03-.359-.11t-.177-.354t.11-.36t.354-.177l5.152-.423v-2.294l-6.064-.206q-.213-.006-.347-.161q-.134-.156-.128-.37q.006-.213.15-.344q.142-.13.356-.125l6.033.206v-2.308l-4.297-.82q-.213-.037-.332-.202q-.12-.164-.083-.378q.037-.213.21-.323q.175-.11.388-.073l6.666 1.244l-.602-2.978q-.056-.29.006-.56t.259-.498q.179-.229.423-.359q.245-.13.516-.104l.238.005l4.275 4.718q.298.348.47.761q.17.413.17.873v5.473q0 .894-.584 1.572q-.585.678-1.454.82zm13.023-5.962V12.32q0-.78-.255-1.42q-.254-.64-.766-1.22l-1.719-1.885l-1.7-4.848q-.067-.188.03-.38q.099-.193.287-.26t.381.028t.26.283l2.244 6.39l2.296-2.013q.223-.198.486-.269t.553-.021t.51.2t.36.387l.11.207l-1.955 6.112q-.189.596-.471 1.134q-.283.539-.65 1.045M9.46 8.567l-.924-.16l-1.553-2.226q-.11-.177-.086-.372q.024-.196.201-.311q.177-.134.388-.098q.21.037.326.214l1.572 2.35q.008.132.018.255t.04.256zm1.044-3.67l-.808-1.391q-.104-.177-.049-.378t.232-.305t.378-.049t.305.232l.894 1.519q-.256.05-.485.123t-.467.248" /></svg>