<svg xmlns="http://www.w3.org/2000/svg" viewBox="0 0 24 24" width="48" height="48"><path fill="currentColor" d="M9 15.808h6q.343 0 .576-.233t.232-.575V9q0-.343-.233-.575T15 8.192H9q-.343 0-.575.232T8.192 9v6q0 .343.232.576t.576.232m.192-1V9.192h5.616v5.616zM12.002 21q-1.865 0-3.508-.701t-2.867-1.926t-1.926-2.866T3 12.002t.701-3.508t1.926-2.857T8.493 3.71T11.998 3t3.509.709t2.859 1.922t1.925 2.857t.709 3.509t-.71 3.509t-1.926 2.867t-2.856 1.926t-3.506.701m-.011-1q3.334 0 5.672-2.328T20 12.009t-2.337-5.671T12 4Q8.656 4 6.328 6.338T4 12q0 3.344 2.328 5.672T11.991 20M12 12" /></svg>