<svg xmlns="http://www.w3.org/2000/svg" viewBox="0 0 24 24" width="48" height="48"><path fill="currentColor" d="M17.5 11.23q-.31 0-.52-.21q-.21-.209-.21-.52t.21-.52q.209-.21.52-.21t.52.21q.21.209.21.52t-.21.52q-.209.21-.52.21M17 8V4h1v4zM8.764 20q-1.658 0-2.826-1.164Q4.768 17.67 4.768 16q0-1.084.544-1.987t1.456-1.475V6q0-.846.577-1.423T8.77 4t1.423.577T10.77 6v6.539q.912.57 1.446 1.474q.535.903.554 1.987q-.019 1.671-1.184 2.836Q10.422 20 8.764 20M7.77 10h2V6q0-.425-.287-.712T8.769 5t-.712.288T7.769 6z" /></svg>