<svg xmlns="http://www.w3.org/2000/svg" viewBox="0 0 24 24" width="48" height="48"><path fill="currentColor" d="M7.096 14.866h9.789L12 6.73zm1.775-1L12 8.689l3.104 5.177zM12 21q-1.864 0-3.506-.701t-2.867-1.926t-1.926-2.867T3 12t.701-3.506t1.926-2.857T8.494 3.71T12 3t3.506.71t2.857 1.927q1.216 1.215 1.926 2.857Q21 10.137 21 12t-.71 3.506q-.711 1.642-1.926 2.867q-1.216 1.225-2.858 1.926T12 21m0-1q3.325 0 5.663-2.328T20 12q0-3.325-2.337-5.663T12 4Q8.656 4 6.328 6.338T4 12q0 3.344 2.328 5.672T12 20m0-8" /></svg>