<svg xmlns="http://www.w3.org/2000/svg" viewBox="0 0 24 24" width="48" height="48"><path fill="currentColor" d="M8.525 14.866h6.93q.463 0 .704-.407t-.003-.815l-3.46-5.757q-.246-.385-.698-.385t-.694.385l-3.478 5.739q-.245.407-.004.823q.241.417.703.417m.346-1L12 8.689l3.104 5.177zM12.001 21q-1.864 0-3.507-.701t-2.867-1.926t-1.926-2.866T3 12.002t.701-3.508t1.926-2.857Q6.852 4.42 8.493 3.71Q10.133 3 11.998 3t3.509.709t2.859 1.922t1.925 2.857t.709 3.509t-.71 3.509t-1.926 2.867t-2.856 1.926t-3.506.701m-.011-1q3.334 0 5.672-2.328T20 12.009t-2.337-5.671T12 4Q8.656 4 6.328 6.338T4 12q0 3.344 2.328 5.672T11.991 20M12 12" /></svg>