<svg xmlns="http://www.w3.org/2000/svg" viewBox="0 0 24 24" width="48" height="48"><path fill="currentColor" d="M12 18.23q-3.048 0-5.567-1.504t-3.904-4.01q-.137-.268-.202-.548t-.065-.572t.065-.572t.202-.547q1.327-2.448 3.846-3.972T12 4.98q3.067 0 5.567 1.514t3.885 4.001q.137.267.212.547t.075.573t-.066.572t-.202.546q-1.327 2.449-3.846 3.973T12 18.23m-7.01 1.284q-.115.14-.32.18q-.204.04-.437-.137q-.58-.433-1.075-.954q-.496-.521-.88-1.131q-.134-.196-.07-.376q.065-.18.236-.284q.172-.104.37-.076t.355.247q.347.543.797 1q.451.458.969.849q.177.146.174.344t-.118.338m6.003 1.96q-.03.183-.19.323q-.158.14-.438.104q-.81-.08-1.598-.26q-.787-.178-1.553-.461q-.269-.098-.342-.297t-.006-.375t.232-.286t.384-.03q.76.282 1.541.458t1.586.257q.219.03.317.207t.067.36M12 15.461q1.587 0 2.716-1.13t1.13-2.715q0-1.606-1.13-2.726T12 7.77T9.284 8.89t-1.13 2.726q0 1.586 1.13 2.716T12 15.462m0-.896q-1.24 0-2.095-.865t-.855-2.085q0-1.241.855-2.096T12 8.666t2.095.854t.855 2.096q0 1.22-.855 2.085T12 14.565m1.014 6.91q-.031-.183.063-.36q.094-.176.339-.207q.803-.081 1.572-.26q.77-.179 1.53-.461q.213-.074.377.036q.165.11.232.287q.067.176-.009.374q-.076.199-.35.302q-.766.283-1.55.45q-.785.166-1.595.266q-.28.037-.43-.104t-.18-.323m5.985-1.954q-.134-.16-.128-.35q.007-.192.19-.338q.548-.396 1.007-.878q.46-.482.812-1.074q.115-.177.31-.177q.196 0 .361.11q.166.109.217.307q.052.198-.125.462q-.376.598-.849 1.083q-.472.484-1.026.892q-.232.177-.433.15t-.336-.187" /></svg>