<svg xmlns="http://www.w3.org/2000/svg" viewBox="0 0 24 24" width="48" height="48"><path fill="currentColor" d="M6.751 10.5q-.191 0-.317-.125q-.126-.126-.126-.317v-.116q0-.191.125-.317q.125-.125.316-.125q.192 0 .317.125q.126.126.126.317v.116q0 .191-.125.317q-.125.125-.316.125m10.5 0q-.191 0-.317-.125q-.126-.126-.126-.317v-.116q0-.191.125-.317q.125-.125.316-.125q.192 0 .317.125q.126.126.126.317v.116q0 .191-.125.317q-.125.125-.316.125m-8.443 1.558v-3.25l.884.884v2.366q0 .191-.125.317q-.125.125-.316.125t-.317-.125t-.126-.317m2.75 2v-2.5l.884.884v1.616q0 .191-.125.317q-.125.125-.316.125t-.317-.125t-.126-.317m.441-8.558q.192 0 .317.125q.126.126.126.317v2.581q0 .226-.14.331q-.139.106-.3.106q-.162 0-.303-.113t-.141-.324v-2.58q0-.192.125-.318q.125-.125.316-.125m2.75 2q.192 0 .317.125q.126.126.126.317v3.331q0 .226-.14.331q-.139.106-.3.106t-.303-.113t-.141-.324v-3.33q0-.192.125-.318q.125-.125.316-.125M21 4.616v11.623q0 .212-.143.356t-.353.144q-.187 0-.345-.125q-.159-.125-.159-.375V4.616q0-.27-.173-.443T19.385 4H7.064q-.25 0-.375-.155t-.125-.341t.125-.345T7.064 3h12.32q.691 0 1.154.463T21 4.616M6.077 17l-1.704 1.704q-.379.379-.876.171T3 18.133V4.416L1.361 2.777q-.14-.14-.15-.344t.15-.364t.354-.16t.354.16l18.554 18.554q.14.14.153.342t-.157.37q-.155.156-.35.156t-.353-.16L15.572 17zM4 5.416v12.228L5.65 16h8.935z" /></svg>