<svg xmlns="http://www.w3.org/2000/svg" viewBox="0 0 24 24" width="48" height="48"><path fill="currentColor" d="M12 14.498q-.161 0-.298-.053t-.267-.184l-1.87-1.869q-.14-.14-.15-.344t.156-.37q.14-.14.338-.14q.199 0 .345.14l1.246 1.184V9.539q0-.214.143-.357T12 9.039t.357.143t.143.357v3.323l1.246-1.183q.146-.14.335-.15q.188-.01.354.156q.14.14.14.354t-.14.353l-1.87 1.87q-.13.13-.267.183q-.136.053-.298.053M10.73 4h2.54zm0 16h2.54zm0 1q-.341 0-.61-.205t-.372-.547l-.632-2.214q-.131-.423-.396-.81q-.264-.388-.707-.765q-.965-.809-1.489-1.965T6 12q0-1.313.524-2.47t1.49-1.99q.442-.402.706-.786q.264-.385.395-.788l.633-2.214q.104-.342.372-.547T10.73 3h2.54q.342 0 .61.205t.372.547l.633 2.214q.13.423.395.81q.264.388.707.765q.965.809 1.489 1.965T18 12q0 1.314-.524 2.47t-1.49 1.99q-.442.402-.706.786q-.264.385-.395.789l-.633 2.213q-.104.343-.372.547t-.61.205zM12 17q2.075 0 3.538-1.463T17 12t-1.463-3.537T12 7T8.463 8.463T7 12t1.463 3.538T12 17M10.061 6.327q.52-.164.992-.248q.472-.085.947-.085t.947.085t.991.248L13.27 4h-2.538zM10.731 20h2.538l.67-2.327q-.52.164-.992.236T12 17.98t-.947-.072t-.991-.236z" /></svg>