<svg xmlns="http://www.w3.org/2000/svg" viewBox="0 0 24 24" width="48" height="48"><path fill="currentColor" d="m9.962 21l-1.12-3.934q-1.258-.739-2.05-2.087T6 12t.792-2.979t2.05-2.087L9.962 3h4.077l1.119 3.935q1.258.738 2.05 2.086T18 12t-.792 2.979t-2.05 2.087L14.038 21zM12 17q2.075 0 3.538-1.463T17 12t-1.463-3.537T12 7T8.463 8.463T7 12t1.463 3.538T12 17m0-2.039q.262 0 .439-.177q.176-.176.176-.438t-.177-.438T12 13.73t-.438.177t-.177.438q0 .262.177.438q.177.177.438.177m-.5-2.461h1V8.654h-1z" /></svg>