<svg xmlns="http://www.w3.org/2000/svg" viewBox="0 0 24 24" width="48" height="48"><path fill="currentColor" d="m11.989 12.496l2.494 4.096q.129.197.297.212t.322-.083t.206-.263t-.077-.362L12.552 11.8l2.467-3.946q.123-.171.074-.334t-.203-.241t-.312-.063t-.282.192l-2.283 3.738L9.75 7.408q-.129-.197-.294-.212t-.325.083t-.209.254q-.049.155.08.351l2.454 3.922l-2.717 4.34q-.123.171-.074.334t.202.241t.313.06q.159-.017.282-.189zM12 21q-1.864 0-3.506-.701t-2.867-1.926t-1.926-2.867T3 12t.701-3.506t1.926-2.857T8.494 3.71T12 3t3.506.71t2.857 1.927q1.216 1.215 1.926 2.857Q21 10.137 21 12t-.71 3.506q-.711 1.642-1.926 2.867q-1.216 1.225-2.858 1.926T12 21m0-1q3.325 0 5.663-2.328T20 12q0-3.325-2.337-5.663T12 4Q8.656 4 6.328 6.338T4 12q0 3.344 2.328 5.672T12 20m0-8" /></svg>