<svg xmlns="http://www.w3.org/2000/svg" viewBox="0 0 24 24" width="48" height="48"><path fill="currentColor" d="M11.546 13.612v3.467q0 .195.133.327q.132.133.328.133q.195 0 .327-.133q.132-.132.132-.327v-3.512l2.759-5.155q.104-.197.042-.359t-.22-.236q-.16-.073-.326-.045q-.165.028-.269.224L12 12.6L9.566 7.996q-.106-.2-.276-.229t-.33.05t-.225.254t.046.371zM12.002 21q-1.865 0-3.508-.701t-2.867-1.926t-1.926-2.866T3 12.002t.701-3.508t1.926-2.857T8.493 3.71T11.998 3t3.509.709t2.859 1.922t1.925 2.857t.709 3.509t-.71 3.509t-1.926 2.867t-2.856 1.926t-3.506.701" /></svg>