<svg xmlns="http://www.w3.org/2000/svg" viewBox="0 0 15 15" width="48" height="48"><path fill="currentColor" d="M1.5 13a.5.5 0 1 1 0 1a.5.5 0 0 1 0-1m2 0a.5.5 0 1 1 0 1a.5.5 0 0 1 0-1m2 0a.5.5 0 1 1 0 1a.5.5 0 0 1 0-1m2 0a.5.5 0 1 1 0 1a.5.5 0 0 1 0-1m2 0a.5.5 0 1 1 0 1a.5.5 0 0 1 0-1m2 0a.5.5 0 1 1 0 1a.5.5 0 0 1 0-1m2 0a.5.5 0 1 1 0 1a.5.5 0 0 1 0-1m-.398-8.995A1 1 0 0 1 14 5v5l-.005.102a1 1 0 0 1-.893.893L13 11H2l-.103-.005a1 1 0 0 1-.892-.893L1 10V5a1 1 0 0 1 .897-.995L2 4h11zM2 10h11V5H2zm-.5-9a.5.5 0 1 1 0 1a.5.5 0 0 1 0-1m2 0a.5.5 0 1 1 0 1a.5.5 0 0 1 0-1m2 0a.5.5 0 1 1 0 1a.5.5 0 0 1 0-1m2 0a.5.5 0 1 1 0 1a.5.5 0 0 1 0-1m2 0a.5.5 0 1 1 0 1a.5.5 0 0 1 0-1m2 0a.5.5 0 1 1 0 1a.5.5 0 0 1 0-1m2 0a.5.5 0 1 1 0 1a.5.5 0 0 1 0-1" /></svg>