<svg xmlns="http://www.w3.org/2000/svg" viewBox="0 0 26 26" width="48" height="48"><g fill="none"><defs><mask id="SVG1qNyQbyE"><path fill="#fff" d="M0 0h26v26H0z" /><path fill="currentColor" fill-rule="evenodd" d="M5 11.5a.5.5 0 0 1 .5-.5h11.308a.5.5 0 0 1 0 1H5.5a.5.5 0 0 1-.5-.5m0-4a.5.5 0 0 1 .5-.5h15a.5.5 0 0 1 0 1h-15a.5.5 0 0 1-.5-.5m0 8a.5.5 0 0 1 .5-.5h15a.5.5 0 0 1 0 1h-15a.5.5 0 0 1-.5-.5m0 4a.5.5 0 0 1 .5-.5h11.308a.5.5 0 0 1 0 1H5.5a.5.5 0 0 1-.5-.5" clip-rule="evenodd" /></mask></defs><circle cx="13" cy="13" r="13" fill="currentColor" mask="url(#SVG1qNyQbyE)" /></g></svg>