<svg xmlns="http://www.w3.org/2000/svg" viewBox="0 0 14 14" width="48" height="48"><g fill="none"><path fill="#d7e0ff" d="M7 13.158c4 0 6.25-2.25 6.25-6.25S11 .658 7 .658S.75 2.908.75 6.908S3 13.158 7 13.158" /><path stroke="#4147d5" stroke-linecap="round" stroke-linejoin="round" d="M7 13.158c4 0 6.25-2.25 6.25-6.25S11 .658 7 .658S.75 2.908.75 6.908S3 13.158 7 13.158" /><path stroke="#4147d5" stroke-linecap="round" stroke-linejoin="round" d="M9.556 4.533C6.924 5.06 5.462 5.588 4.13 6.532a.46.46 0 0 0 0 .752c1.332.944 2.794 1.471 5.426 1.999" /></g></svg>