<svg xmlns="http://www.w3.org/2000/svg" viewBox="0 0 14 14" width="48" height="48" fill="none" stroke="currentColor" stroke-width="1" stroke-linecap="round" stroke-linejoin="round"><path fill="none" stroke="#4147d5" stroke-linecap="round" stroke-linejoin="round" d="M7 3.481v7.038M4.054 5.414v3.171m5.892-3.171v3.171m.061-7.642q.555.06 1.102.125a2.09 2.09 0 0 1 1.833 1.836l.12 1.095m-3.055 9.058q.555-.06 1.102-.125a2.09 2.09 0 0 0 1.833-1.836l.12-1.095M3.993.943q-.555.06-1.102.125a2.09 2.09 0 0 0-1.833 1.836l-.12 1.095m3.055 9.058q-.555-.06-1.102-.125a2.09 2.09 0 0 1-1.833-1.836l-.12-1.095" /></svg>