<svg xmlns="http://www.w3.org/2000/svg" viewBox="0 0 48 48" width="48" height="48" fill="none" stroke="currentColor" stroke-width="1" stroke-linecap="round" stroke-linejoin="round"><path fill="none" stroke="currentColor" stroke-linecap="round" stroke-linejoin="round" d="m14.28 22.2l4-2.2m0 0v16m12.225-8h-2.6c-2.2 0-4 1.8-4 4h0c0 2.2 1.8 4 4 4h2.6c2.2 0 4-1.8 4-4h0c0-2.2-1.8-4-4-4m0 0c2.2 0 4-1.8 4-4h0c0-2.2-1.8-4-4-4h-2.6c-2.2 0-4 1.8-4 4h0c0 2.2 1.8 4 4 4" /><g fill="none" stroke="currentColor" stroke-linecap="round" stroke-linejoin="round"><rect width="35" height="36" x="6.5" y="7.5" rx="4" ry="4" /><path d="M33.5 4.5v6m-19-6v6" /></g></svg>