<svg xmlns="http://www.w3.org/2000/svg" viewBox="0 0 48 48" width="48" height="48" fill="none" stroke="currentColor" stroke-width="1" stroke-linecap="round" stroke-linejoin="round"><path fill="none" stroke="currentColor" stroke-linecap="round" stroke-linejoin="round" d="M14.5 4.5h19a4 4 0 0 1 4 4h0a4 4 0 0 1-4 4h-19a4 4 0 0 1-4-4h0a4 4 0 0 1 4-4m0 16.5h17a4 4 0 0 1 4 4h0a4 4 0 0 1-4 4h-17a4 4 0 0 1-4-4h0a4 4 0 0 1 4-4" /><path fill="none" stroke="currentColor" stroke-linecap="round" stroke-linejoin="round" d="M14.5 4.5c2.216 0 4 1.784 4 4V21m0 8v10.5c0 2.216-1.784 4-4 4s-4-1.784-4-4v-31" /></svg>