<svg xmlns="http://www.w3.org/2000/svg" viewBox="0 0 48 48" width="48" height="48" fill="none" stroke="currentColor" stroke-width="1" stroke-linecap="round" stroke-linejoin="round"><path fill="none" stroke="currentColor" stroke-linecap="round" stroke-linejoin="round" d="M5.5 5.5h7.75v7.75H5.5zm9.75 0H23v7.75h-7.75zm9.75 0h7.75v7.75H25zm9.75 0h7.75v7.75h-7.75zM5.5 15.25h7.75V23H5.5zm19.5 0h7.75V23H25zm9.75 0h7.75V23h-7.75zM5.5 25h7.75v7.75H5.5zm9.75 0H23v7.75h-7.75zM25 25h7.75v7.75H25zm9.75 0h7.75v7.75h-7.75zM5.5 34.75h7.75v7.75H5.5zm9.75 0H23v7.75h-7.75zm9.75 0h7.75v7.75H25zm9.75 0h7.75v7.75h-7.75z" /></svg>