<svg xmlns="http://www.w3.org/2000/svg" viewBox="0 0 16 16" width="48" height="48"><path fill="currentColor" d="M10 4a.5.5 0 0 1 .465.314l1 2.5a.5.5 0 0 1-.367.676l-1.149.23l-.033.057l-2 3a.5.5 0 0 1-.84-.011L4.723 7H4c-.676.01-.676-1.01 0-1h2c.676-.01.676 1.01 0 1h-.098l.284.453l4.127-.826L9.663 5H8.5c-.676.01-.676-1.01 0-1zM8.568 7.996l-1.816.363l.762 1.22zM11.5 8c1.375 0 2.5 1.125 2.5 2.5S12.875 13 11.5 13A2.51 2.51 0 0 1 9 10.5C9 9.125 10.125 8 11.5 8m-8 0C4.875 8 6 9.125 6 10.5S4.875 13 3.5 13A2.51 2.51 0 0 1 1 10.5C1 9.125 2.125 8 3.5 8m8 1c-.834 0-1.5.666-1.5 1.5s.666 1.5 1.5 1.5s1.5-.666 1.5-1.5S12.334 9 11.5 9m-8 0C2.666 9 2 9.666 2 10.5S2.666 12 3.5 12S5 11.334 5 10.5S4.334 9 3.5 9" /></svg>