<svg xmlns="http://www.w3.org/2000/svg" viewBox="0 0 16 16" width="48" height="48"><path fill="currentColor" d="M7.5 2A5.5 5.5 0 0 0 2 7.5A5.5 5.5 0 0 0 7.5 13A5.5 5.5 0 0 0 13 7.5A5.5 5.5 0 0 0 7.5 2m0 .773a.727.727 0 0 1 .727.727a.727.727 0 0 1-.727.727a.727.727 0 0 1-.727-.727a.727.727 0 0 1 .727-.727m-2 1a.727.727 0 0 1 .727.727a.727.727 0 0 1-.727.727a.727.727 0 0 1-.727-.727a.727.727 0 0 1 .727-.727m2 1a.727.727 0 0 1 .727.727a.727.727 0 0 1-.727.727a.727.727 0 0 1-.727-.727a.727.727 0 0 1 .727-.727" /></svg>