<svg xmlns="http://www.w3.org/2000/svg" viewBox="0 0 16 16" width="48" height="48"><path fill="currentColor" d="M9 7a1 1 0 0 1 .8.4l1.27 1.694l2.125.426a1 1 0 0 1 .805.98v1.502A1.995 1.995 0 0 1 12 14a1.996 1.996 0 0 1-1.937-1.5H5.937A1.996 1.996 0 0 1 4 14c-1.108 0-2-.89-2-1.998V10q0-.123.03-.242l.5-2A1 1 0 0 1 3.5 7zm3 4c-.554 0-1 .446-1 1s.446 1 1 1s1-.446 1-1s-.446-1-1-1m-8 0c-.554 0-1 .446-1 1s.446 1 1 1s1-.446 1-1s-.446-1-1-1M7 1v.5c0 .277-.223.5-.5.5H5c-.554 0-1 .446-1 1h7c0-.554-.446-1-1-1H8.5a.5.5 0 0 1-.5-.5V1zm-.994 3.418l-.166 1a.5.5 0 1 0 .986.164l.168-1a.5.5 0 1 0-.988-.164m2.412-.412a.5.5 0 0 0-.412.576l.168 1a.5.5 0 1 0 .986-.164l-.166-1a.5.5 0 0 0-.576-.412m-4.365.271l-.5 1a.5.5 0 0 0 .894.446l.5-1a.5.5 0 0 0-.894-.446m6.224-.224a.5.5 0 0 0-.224.67l.5 1a.5.5 0 0 0 .894-.446l-.5-1a.5.5 0 0 0-.67-.224" /></svg>