<svg xmlns="http://www.w3.org/2000/svg" viewBox="0 0 16 16" width="48" height="48"><path fill="currentColor" d="M9 7a1 1 0 0 1 .8.4l1.27 1.694l2.125.426a1 1 0 0 1 .805.98v1.502A1.995 1.995 0 0 1 12 14a1.996 1.996 0 0 1-1.937-1.5H5.937A1.996 1.996 0 0 1 4 14c-1.108 0-2-.89-2-1.998V10q0-.123.03-.242l.5-2A1 1 0 0 1 3.5 7zm3 4c-.554 0-1 .446-1 1s.446 1 1 1s1-.446 1-1s-.446-1-1-1m-8 0c-.554 0-1 .446-1 1s.446 1 1 1s1-.446 1-1s-.446-1-1-1M12 .865A1.134 1.134 0 0 0 10.865 2a1 1 0 0 0 .016.17L8.81 3.205a1.13 1.13 0 0 0-.81-.34A1.134 1.134 0 0 0 6.865 4A1.134 1.134 0 0 0 8 5.135a1.13 1.13 0 0 0 .809-.34L10.88 5.83a1 1 0 0 0-.016.17A1.134 1.134 0 0 0 12 7.135A1.134 1.134 0 0 0 13.135 6A1.134 1.134 0 0 0 12 4.865a1.13 1.13 0 0 0-.809.34L9.12 4.17A1 1 0 0 0 9.135 4a1 1 0 0 0-.016-.17l2.07-1.035a1.13 1.13 0 0 0 .811.34A1.134 1.134 0 0 0 13.135 2A1.134 1.134 0 0 0 12 .865" /></svg>