<svg xmlns="http://www.w3.org/2000/svg" viewBox="0 0 16 16" width="48" height="48"><path fill="currentColor" d="M9 7a1 1 0 0 1 .8.4l1.27 1.694l2.125.426a1 1 0 0 1 .805.98v1.502A1.995 1.995 0 0 1 12 14a1.996 1.996 0 0 1-1.937-1.5H5.937A1.996 1.996 0 0 1 4 14c-1.108 0-2-.89-2-1.998V10q0-.123.03-.242l.5-2A1 1 0 0 1 3.5 7zm3 4c-.554 0-1 .446-1 1s.446 1 1 1s1-.446 1-1s-.446-1-1-1m-8 0c-.554 0-1 .446-1 1s.446 1 1 1s1-.446 1-1s-.446-1-1-1m7-9.5a2.5 2.5 0 0 1 1.652.625a.5.5 0 0 1-.33.875h-1.554l-.666 1l.666 1h1.554a.5.5 0 0 1 .33.875l-.017.016A2.496 2.496 0 0 1 8.71 5H2.5a.5.5 0 0 1-.5-.5v-1a.5.5 0 0 1 .5-.5h6.21C9.1 2.12 9.98 1.5 11 1.5" /></svg>