<svg xmlns="http://www.w3.org/2000/svg" viewBox="0 0 16 16" width="48" height="48"><path fill="currentColor" d="M4.5 1a1 1 0 0 0-.97.758l-.5 2Q3 3.877 3 4v1.502C3.001 6.332 3.67 7 4.5 7c.656 0 1.211-.416 1.416-1h3.168c.205.584.76 1 1.416 1c.83 0 1.499-.668 1.5-1.498V4a1 1 0 0 0-.758-.97l-1.625-.407l-.785-1.178A1 1 0 0 0 8 1zm0 3.793A.706.706 0 0 1 5 6a.706.706 0 0 1-1 0a.706.706 0 0 1 .5-1.207m6 0A.706.706 0 0 1 11 6a.706.706 0 0 1-1 0a.706.706 0 0 1 .5-1.207M4.5 8a1 1 0 0 0-.97.758l-.5 2Q3 10.877 3 11v1.502c.001.83.67 1.498 1.5 1.498c.656 0 1.211-.416 1.416-1h3.168c.205.584.76 1 1.416 1c.83 0 1.499-.668 1.5-1.498V11a1 1 0 0 0-.758-.97l-1.625-.407l-.785-1.178A1 1 0 0 0 8 8zm0 3.793A.706.706 0 0 1 5 13a.706.706 0 0 1-1 0a.706.706 0 0 1 .5-1.207m6 0A.706.706 0 0 1 11 13a.706.706 0 0 1-1 0a.706.706 0 0 1 .5-1.207" /></svg>