<svg xmlns="http://www.w3.org/2000/svg" viewBox="0 0 16 16" width="48" height="48"><path fill="currentColor" d="M9 7a1 1 0 0 1 .8.4l1.27 1.694l2.125.426a1 1 0 0 1 .805.98v1.502A1.995 1.995 0 0 1 12 14a1.996 1.996 0 0 1-1.937-1.5H5.937A1.996 1.996 0 0 1 4 14c-1.108 0-2-.89-2-1.998V10q0-.123.03-.242l.5-2A1 1 0 0 1 3.5 7zm3 4c-.554 0-1 .446-1 1s.446 1 1 1s1-.446 1-1s-.446-1-1-1m-8 0c-.554 0-1 .446-1 1s.446 1 1 1s1-.446 1-1s-.446-1-1-1m7-9a.5.5 0 0 0-.354.147L9.794 3H4a.5.5 0 0 0-.5.5V4a.5.5 0 0 0 .147.354l.5.5a.5.5 0 0 0 .707 0l.646-.647l.646.647a.5.5 0 0 0 .708 0l.646-.647l.646.647A.5.5 0 0 0 8.5 5h1.293l.854.854A.5.5 0 0 0 11 6h1a.5.5 0 0 0 .354-.146l.5-.5A.5.5 0 0 0 13 5V3a.5.5 0 0 0-.146-.353l-.5-.5A.5.5 0 0 0 12 2zm.5 1a.5.5 0 0 1 .5.5v1a.5.5 0 0 1-1 0v-1a.5.5 0 0 1 .5-.5" /></svg>