<svg xmlns="http://www.w3.org/2000/svg" viewBox="0 0 16 16" width="48" height="48"><path fill="currentColor" d="M9 8a1 1 0 0 1 .8.4l1.27 1.694l2.125.426a1 1 0 0 1 .805.98v1.502A1.995 1.995 0 0 1 12 15a1.996 1.996 0 0 1-1.937-1.5H5.937A1.996 1.996 0 0 1 4 15c-1.108 0-2-.89-2-1.998V11q0-.123.03-.242l.5-2A1 1 0 0 1 3.5 8zm3 4c-.554 0-1 .446-1 1s.446 1 1 1s1-.446 1-1s-.446-1-1-1m-8 0c-.554 0-1 .446-1 1s.446 1 1 1s1-.446 1-1s-.446-1-1-1" /><path fill="currentColor" d="M1.5 1a.5.5 0 0 0-.5.5v6a.5.5 0 0 0 1 0V6h12v1.5a.5.5 0 0 0 1 0v-4a.5.5 0 0 0-.187-.39s-.714-.563-1.975-.962a9.4 9.4 0 0 0-2.318-.412a11.5 11.5 0 0 0-3.13.276A.5.5 0 0 0 7 2.5V5H2V1.5a.5.5 0 0 0-.5-.5M4 2c-.554 0-1 .446-1 1s.446 1 1 1h1c.554 0 1-.446 1-1s-.446-1-1-1z" /></svg>