<svg xmlns="http://www.w3.org/2000/svg" viewBox="0 0 16 16" width="48" height="48"><path fill="currentColor" d="M3 1c-.554 0-1 .446-1 1v10c0 .554.446 1 1 1h5v-2c0-1.108.892-2 2-2h1V2c0-.554-.446-1-1-1zm3.93 3.242l1.5 2.5a.5.5 0 0 1 0 .516l-1.5 2.5a.5.5 0 0 1-.86 0l-1.5-2.5a.5.5 0 0 1 0-.516l1.5-2.5a.503.503 0 0 1 .86 0M10 10c-.554 0-1 .446-1 1v3c0 .554.446 1 1 1h3c.554 0 1-.446 1-1v-3c0-.554-.446-1-1-1zm.5.773a.727.727 0 1 1-.002 1.455a.727.727 0 0 1 .002-1.455m2 2a.727.727 0 1 1-.002 1.455a.727.727 0 0 1 .002-1.455" /></svg>