<svg xmlns="http://www.w3.org/2000/svg" viewBox="0 0 16 16" width="48" height="48"><path fill="currentColor" d="M3.156 2a.5.5 0 0 0-.36.152C1.646 3.341 1 4.891 1 6.5C1 10.106 4.16 13 8 13s7-2.894 7-6.5c0-1.61-.645-3.159-1.797-4.348a.5.5 0 0 0-.36-.152zM6.5 4a.727.727 0 1 1-1.028 1.03A.727.727 0 0 1 6.5 4m4 0a.727.727 0 1 1-1.028 1.03A.727.727 0 0 1 10.5 4M4 6a1 1 0 1 1 0 2a1 1 0 0 1 0-2m4 0a1 1 0 1 1 0 2a1 1 0 0 1 0-2m4 0a1 1 0 1 1 0 2a1 1 0 0 1 0-2M6 9a1 1 0 1 1 0 2a1 1 0 0 1 0-2m4 0a1 1 0 1 1 0 2a1 1 0 0 1 0-2" /></svg>