<svg xmlns="http://www.w3.org/2000/svg" viewBox="0 0 16 16" width="48" height="48"><path fill="currentColor" d="M2 3c-.554 0-1 .446-1 1v7c0 .554.446 1 1 1h11c.554 0 1-.446 1-1V4c0-.554-.446-1-1-1zm.5 2h2a.5.5 0 0 1 .5.5v2a.5.5 0 0 1-.5.5H3v1h1.5a.5.5 0 0 1 .5.5a.5.5 0 0 1-.5.5h-2a.5.5 0 0 1-.5-.5v-2a.5.5 0 0 1 .5-.5H4V6H2.5a.5.5 0 0 1-.5-.5a.5.5 0 0 1 .5-.5m6 0a.5.5 0 0 1 .5.5v4a.5.5 0 0 1-.5.5a.5.5 0 0 1-.5-.5v-4a.5.5 0 0 1 .5-.5m2 0h2a.5.5 0 0 1 .5.5v2a.5.5 0 0 1-.5.5H11v1h1.5a.5.5 0 0 1 .5.5a.5.5 0 0 1-.5.5h-2a.5.5 0 0 1-.5-.5v-2a.5.5 0 0 1 .5-.5H12V6h-1.5a.5.5 0 0 1-.5-.5a.5.5 0 0 1 .5-.5m-4 1a.499.499 0 1 1 0 1a.499.499 0 1 1 0-1m0 2a.499.499 0 1 1 0 1a.499.499 0 1 1 0-1" /></svg>