<svg xmlns="http://www.w3.org/2000/svg" viewBox="0 0 16 16" width="48" height="48"><path fill="currentColor" d="M3.5 2a.5.5 0 0 0-.5.5V5h10V2.5a.5.5 0 0 0-.5-.5zm4 1h1a.5.5 0 0 1 .5.5a.5.5 0 0 1-.5.5h-1a.5.5 0 0 1-.5-.5a.5.5 0 0 1 .5-.5M3 6v3h10V6zm4.5 1h1a.5.5 0 0 1 .5.5a.5.5 0 0 1-.5.5h-1a.5.5 0 0 1-.5-.5a.5.5 0 0 1 .5-.5M3 10v2.5a.5.5 0 0 0 .5.5H4v.5a.5.5 0 0 0 .5.5a.5.5 0 0 0 .5-.5V13h6v.5a.5.5 0 0 0 .5.5a.5.5 0 0 0 .5-.5V13h.5a.5.5 0 0 0 .5-.5V10zm4.5 1h1a.5.5 0 0 1 .5.5a.5.5 0 0 1-.5.5h-1a.5.5 0 0 1-.5-.5a.5.5 0 0 1 .5-.5" /></svg>