<svg xmlns="http://www.w3.org/2000/svg" viewBox="0 0 16 16" width="48" height="48"><path fill="currentColor" d="M2.5 2c-.277 0-.5.223-.5.5c.002 3.352-.004 6.705.002 10.057C2.032 13.36 2.688 14 3.5 14h8a1.5 1.5 0 0 0 1.496-1.432L13 8.5c0-.277-.223-.5-.5-.5H12v4.5a.499.499 0 1 1-1 0v-10c0-.277-.223-.5-.5-.5zm1 1h3c.277 0 .5.223.5.5v2c0 .277-.223.5-.5.5h-3a.5.5 0 0 1-.5-.5v-2c0-.277.223-.5.5-.5m0 4h4a.499.499 0 1 1 0 1h-4a.499.499 0 1 1 0-1m0 2h3a.499.499 0 1 1 0 1h-3a.499.499 0 1 1 0-1m0 2h4a.499.499 0 1 1 0 1h-4a.499.499 0 1 1 0-1" /></svg>