<svg xmlns="http://www.w3.org/2000/svg" viewBox="0 0 16 16" width="48" height="48"><path fill="currentColor" d="M6.469 2C6.209 2 6 2.223 6 2.5v2c0 .277.21.5.469.5H8.53c.261 0 .47-.223.47-.5v-2c0-.277-.21-.5-.469-.5zm4 4c-.26 0-.469.223-.469.5v2c0 .277.21.5.469.5h2.062c.26 0 .469-.223.469-.5v-2c0-.277-.21-.5-.469-.5zm-8 4c-.26 0-.469.223-.469.5v2c0 .277.21.5.469.5H4.53c.26 0 .469-.223.469-.5v-2c0-.277-.21-.5-.469-.5zm4 0c-.26 0-.469.223-.469.5v2c0 .277.21.5.469.5H8.53c.26 0 .469-.223.469-.5v-2c0-.277-.21-.5-.469-.5zm4 0c-.26 0-.469.223-.469.5v2c0 .277.21.5.469.5h2.062c.26 0 .469-.223.469-.5v-2c0-.277-.21-.5-.469-.5z" /></svg>