<svg xmlns="http://www.w3.org/2000/svg" viewBox="0 0 16 16" width="48" height="48"><path fill="currentColor" d="M5 3c-.554 0-1 .446-1 1v7c0 .554.446 1 1 1h8c.554 0 1-.446 1-1V4c0-.554-.446-1-1-1zm3.5 1h1c.277 0 .5.223.5.5v1c0 .277-.223.5-.5.5h-1a.5.5 0 0 1-.5-.5v-1c0-.277.223-.5.5-.5M8 7h1.5c.277 0 .5.223.5.5V10c.268 0 .5.232.5.5a.51.51 0 0 1-.5.5H8a.51.51 0 0 1-.5-.5c0-.268.232-.5.5-.5V8a.499.499 0 1 1 0-1" /><path fill="currentColor" d="M2.5 3c-.277 0-.5.223-.5.5v8a.499.499 0 1 0 1 0V10h1.5a.499.499 0 1 0 0-1H3V6h1.5a.499.499 0 1 0 0-1H3V3.5c0-.277-.223-.5-.5-.5" /></svg>