<svg xmlns="http://www.w3.org/2000/svg" viewBox="0 0 16 16" width="48" height="48"><path fill="currentColor" d="M8 1c-.554 0-1 .444-1 1c-.554 0-1 .446-1 1s.446 1 1 1v1H6c0-.554-.446-1-1-1s-1 .446-1 1c-.554 0-1 .446-1 1s.446 1 1 1c0 .554.446 1 1 1s1-.446 1-1h1v5c-.554 0-1 .446-1 1s.446 1 1 1c0 .556.446 1 1 1s1-.444 1-1c.554 0 1-.446 1-1s-.446-1-1-1V7h1c0 .554.446 1 1 1s1-.446 1-1c.554 0 1-.446 1-1s-.446-1-1-1c0-.554-.446-1-1-1s-1 .446-1 1H9V4c.554 0 1-.446 1-1s-.446-1-1-1c0-.556-.446-1-1-1" /></svg>