<svg xmlns="http://www.w3.org/2000/svg" viewBox="0 0 16 16" width="48" height="48"><path fill="currentColor" d="M7.5 2.5c-.275 0-.5.203-.5.5H5.5a.499.499 0 1 0 0 1H7v1h1V4h1.5a.499.499 0 1 0 0-1H8c0-.297-.225-.5-.5-.5M2.5 6c-.277 0-.5.214-.5.479v4.042c0 .265.223.479.5.479s.5-.214.5-.479V10h2v.521c0 .265.223.479.5.479h4c.277 0 .5-.214.5-.479V10h2v.521c0 .265.223.479.5.479s.5-.214.5-.479V6.478A.49.49 0 0 0 12.5 6c-.277 0-.5.214-.5.479V7h-2v-.521A.49.49 0 0 0 9.5 6h-4c-.277 0-.5.214-.5.479V7H3v-.521A.49.49 0 0 0 2.5 6" /></svg>