<svg xmlns="http://www.w3.org/2000/svg" viewBox="0 0 16 16" width="48" height="48"><path fill="currentColor" d="M4 14.5q0-.127.057-.233L5.691 11H3a.5.5 0 0 1-.323-.882L5.148 8H3a.5.5 0 0 1-.323-.882L5.148 5H3a.5.5 0 0 1-.323-.882l3.496-2.996A.5.5 0 0 1 6.5 1h2a.5.5 0 0 1 .328.122l3.495 2.996A.499.499 0 0 1 12 5H9.852l2.47 2.118A.499.499 0 0 1 12 8H9.852l2.47 2.118A.499.499 0 0 1 12 11H9.309l1.634 3.267q.055.106.057.233a.5.5 0 0 1-.952.214L9.69 14H5.309l-.357.714A.5.5 0 0 1 4 14.5M6 10V8.587L4.352 10zm3-1.413V10h1.648zM6 7V5.587L4.352 7zm3-1.413V7h1.648zM6 4V2.587L4.352 4zm3-1.413V4h1.648zM8 8H7v2h1zm-2.191 5h3.382l-1-2H6.809zM8 5H7v2h1zm0-3H7v2h1z" /></svg>