<svg xmlns="http://www.w3.org/2000/svg" viewBox="0 0 16 16" width="48" height="48"><path fill="currentColor" d="M6 9.404v-.729l-3.888-4.86A.498.498 0 0 1 2.5 3c.097 0 .188.028.264.075L7.5 5.918l4.736-2.841a.5.5 0 0 1 .652.74L9 8.676v.728l1.96 4.9q.04.09.04.196a.5.5 0 0 1-.81.392L7.5 12.8l-2.69 2.092a.5.5 0 0 1-.77-.588zm2.859 2.34l-.545.423l1.037.806zM8.162 10H6.838l-.31.777l.972.756l.972-.756zm-2.513 2.973l1.037-.806l-.545-.424zM8 8.618l-.5-1l-.5 1V9h1zM4.628 5.36l1.774 2.217l.444-.886zm3.97 2.216l1.774-2.217l-2.218 1.33z" /></svg>