<svg xmlns="http://www.w3.org/2000/svg" viewBox="0 0 16 16" width="48" height="48"><path fill="currentColor" d="M4 14.5q0-.127.057-.233L5.691 11H3a.5.5 0 0 1-.323-.882L6 7.27V5H3a.5.5 0 0 1-.323-.882l3.496-2.996A.5.5 0 0 1 6.5 1h2a.5.5 0 0 1 .5.5v2.77l3.323 2.848A.499.499 0 0 1 12 8H9v2.382l1.943 3.885q.055.106.057.233a.5.5 0 0 1-.952.214L9.69 14H5.309l-.357.714A.5.5 0 0 1 4 14.5m2-5.913L4.352 10H6zm3-3V7h1.648zm-3-3L4.352 4H6zM8 8H7v2h1zm-2.191 5h3.382l-1.016-2.032A.5.5 0 0 1 8 11H6.809zM8 5H7v2h1zm0-3H7v2h1z" /></svg>