<svg xmlns="http://www.w3.org/2000/svg" viewBox="0 0 16 16" width="48" height="48"><path fill="currentColor" d="M4 14.5q0-.127.057-.233L5.691 11H3.5a.5.5 0 0 1 0-1H6V9H3.5a.5.5 0 0 1 0-1H6V7H3.5a.5.5 0 0 1 0-1H6V5H3.5a.5.5 0 0 1 0-1h2.64l.882-2.647a.5.5 0 0 1 .956 0L8.86 4h2.64a.5.5 0 0 1 0 1H9v1h2.5a.5.5 0 0 1 0 1H9v1h2.5a.5.5 0 0 1 0 1H9v1h2.5a.5.5 0 0 1 0 1H9.309l1.634 3.267q.055.106.057.233a.5.5 0 0 1-.952.214L9.69 14H5.309l-.357.714A.5.5 0 0 1 4 14.5M7.5 3.081L7.194 4h.612zM8 9H7v1h1zm0-2H7v1h1zm0-2H7v1h1zm-2.191 8h3.382l-1-2H6.809z" /></svg>