<svg xmlns="http://www.w3.org/2000/svg" viewBox="0 0 16 16" width="48" height="48"><path fill="currentColor" d="M4 14.5q0-.127.057-.233L5.691 11H3.5a.5.5 0 0 1-.353-.854L6 7.293V6H2.5a.5.5 0 0 1-.295-.904l3.991-2.993A.5.5 0 0 1 6.5 2h2c.114 0 .22.038.304.103l3.991 2.993A.5.5 0 0 1 12.5 6H9v1.293l2.854 2.853A.499.499 0 0 1 11.5 11H9.309l1.634 3.267q.055.106.057.233a.5.5 0 0 1-.952.214L9.69 14H5.309l-.357.714A.5.5 0 0 1 4 14.5M6 10V8.707L4.707 10zm3-1.293V10h1.293zM6 5V3.5L4 5zm3-1.5V5h2zM8 8H7v2h1zm-2.191 5h3.382l-1-2H6.809zM8 6H7v1h1zm0-3H7v2h1z" /></svg>