<svg xmlns="http://www.w3.org/2000/svg" viewBox="0 0 16 16" width="48" height="48"><path fill="currentColor" d="M4 14.5q0-.127.057-.233L5.691 11H3.5a.5.5 0 0 1-.353-.854L5.293 8H2.5a.5.5 0 0 1-.295-.904L5 5H3.5a.5.5 0 0 1-.353-.854l3-3A.5.5 0 0 1 6.5 1h2c.138 0 .263.056.354.146l3 3A.499.499 0 0 1 11.5 5H10l2.795 2.097A.5.5 0 0 1 12.5 8H9.707l2.147 2.146A.498.498 0 0 1 11.5 11H9.309l1.634 3.267q.055.106.057.233a.5.5 0 0 1-.952.214L9.691 14H5.309l-.357.714A.5.5 0 0 1 4 14.5M6 10V8.707L4.707 10zm3-1.293V10h1.293zM6 7V5.5L4 7zm3-1.5V7h2zM6 4V2.707L4.707 4zm3-1.293V4h1.293zM8 8H7v2h1zm-2.191 5h3.382l-1-2H6.809zM8 5H7v2h1zm0-3H7v2h1z" /></svg>