<svg xmlns="http://www.w3.org/2000/svg" viewBox="0 0 16 16" width="48" height="48"><path fill="currentColor" d="M4.5 2a.5.5 0 0 1 .498.547L4.96 3h5.08l-.038-.453L10 2.5a.5.5 0 0 1 .999-.037l.044.537H12.5a.5.5 0 0 1 0 1h-1.373l.87 10.453l.003.047a.5.5 0 0 1-.999.037L10.123 4H4.877l-.878 10.537a.5.5 0 1 1-.997-.084L3.873 4H2.5a.5.5 0 1 1 0-1h1.457L4 2.463A.5.5 0 0 1 4.5 2m-2 2.5A.5.5 0 0 1 3 5v1a.5.5 0 0 1-1 0V5a.5.5 0 0 1 .5-.5m5 0A.5.5 0 0 1 8 5v1a.5.5 0 0 1-1 0V5a.5.5 0 0 1 .5-.5m5 0a.5.5 0 0 1 .5.5v1a.5.5 0 0 1-1 0V5a.5.5 0 0 1 .5-.5" /></svg>