<svg xmlns="http://www.w3.org/2000/svg" viewBox="0 0 16 16" width="48" height="48"><path fill="currentColor" d="M4 14.5q0-.127.057-.233L5.691 11H3a.5.5 0 0 1-.323-.882L6 7.27V6H3a.5.5 0 0 1-.323-.882l3.496-2.996A.5.5 0 0 1 6.5 2h2a.5.5 0 0 1 .328.122l3.495 2.996A.499.499 0 0 1 12 6H9v1.27l3.323 2.848A.499.499 0 0 1 12 11H9.309l1.634 3.267q.055.106.057.233a.5.5 0 0 1-.952.214L9.69 14H5.309l-.357.714A.5.5 0 0 1 4 14.5M6 10V8.587L4.352 10zm3-1.413V10h1.648zM6 5V3.587L4.352 5zm3-1.413V5h1.648zM8 8H7v2h1zm-2.191 5h3.382l-1-2H6.809zM8 6H7v1h1zm0-3H7v2h1z" /></svg>