<svg xmlns="http://www.w3.org/2000/svg" viewBox="0 0 16 16" width="48" height="48"><path fill="currentColor" d="M3.5 2a.5.5 0 0 1 .498.547L3.96 3h7.08l-.038-.453L11 2.5a.5.5 0 0 1 .999-.037l.044.537h.457a.5.5 0 0 1 0 1h-.373l.083 1h.29a.5.5 0 0 1 0 1h-.207l.084 1h.123a.5.5 0 0 1 0 1h-.04l.538 6.453l.002.047a.5.5 0 0 1-.999.037L11.457 8H3.543L3 14.537a.5.5 0 1 1-.997-.084L2.54 8H2.5a.5.5 0 0 1 0-1h.123l.084-1H2.5a.5.5 0 0 1 0-1h.29l.083-1H2.5a.5.5 0 0 1 0-1h.457L3 2.463A.5.5 0 0 1 3.5 2m7.79 4H3.71l-.083 1h7.746zm-.167-2H3.877l-.084 1h7.414zM5.5 8.5A.5.5 0 0 1 6 9v1a.5.5 0 0 1-1 0V9a.5.5 0 0 1 .5-.5m4 0a.5.5 0 0 1 .5.5v1a.5.5 0 0 1-1 0V9a.5.5 0 0 1 .5-.5" /></svg>