<svg xmlns="http://www.w3.org/2000/svg" viewBox="0 0 16 16" width="48" height="48"><path fill="currentColor" d="M4.5 2a.5.5 0 0 1 .5.5V3h5v-.5a.5.5 0 0 1 1 0V3h1.5a.5.5 0 0 1 0 1H11v1h1.5a.5.5 0 0 1 0 1H11v8.5a.5.5 0 0 1-1 0V12H5v2.5a.5.5 0 0 1-1 0V6H2.5a.5.5 0 0 1 0-1H4V4H2.5a.5.5 0 0 1 0-1H4v-.5a.5.5 0 0 1 .5-.5M10 6H5v5h5zm0-2H5v1h5zM2.5 6.5A.5.5 0 0 1 3 7v1a.5.5 0 0 1-1 0V7a.5.5 0 0 1 .5-.5m5 0A.5.5 0 0 1 8 7v1a.5.5 0 0 1-1 0V7a.5.5 0 0 1 .5-.5m5 0a.5.5 0 0 1 .5.5v1a.5.5 0 0 1-1 0V7a.5.5 0 0 1 .5-.5" /></svg>