<svg xmlns="http://www.w3.org/2000/svg" viewBox="0 0 16 16" width="48" height="48"><path fill="currentColor" d="m7.277 1.053l-4 2a.5.5 0 0 0-.224.224l-2 4a.5.5 0 0 0 0 .446l2 4a.5.5 0 0 0 .224.224l4 2a.5.5 0 0 0 .446 0l4-2a.5.5 0 0 0 .224-.224l2-4a.5.5 0 0 0 0-.446l-2-4a.5.5 0 0 0-.224-.224l-4-2a.5.5 0 0 0-.446 0m-.87 1.553l-.624 1.23l-1.06-.389zm2.188 0l1.683.841l-1.06.389zM7.5 2.654l.773 1.53l-.773.283l-.773-.283zM4.393 4.393l.935.343l-.2.393l-.392.2zm6.214 0l-.343.935l-.393-.2l-.2-.392zm-7.16.33l.389 1.06l-1.23.623zm8.106 0l.841 1.683l-1.23-.623zm-5.282.359l1.057.387a.5.5 0 0 0 .344 0l1.057-.387l.326.644a.5.5 0 0 0 .218.22l.645.325l-.387 1.057a.5.5 0 0 0 0 .344l.387 1.057l-.645.326a.5.5 0 0 0-.218.218l-.326.645l-1.057-.387a.5.5 0 0 0-.344 0l-1.057.387l-.326-.645a.5.5 0 0 0-.218-.218l-.645-.326l.387-1.057a.5.5 0 0 0 0-.344l-.387-1.057l.645-.326a.5.5 0 0 0 .218-.219zM7.5 6C6.678 6 6 6.678 6 7.5S6.678 9 7.5 9S9 8.322 9 7.5S8.322 6 7.5 6m-3.316.727l.283.773l-.283.773l-1.53-.773zm6.632 0l1.53.773l-1.53.773l-.283-.773zM7.5 7c.282 0 .5.218.5.5s-.218.5-.5.5a.493.493 0 0 1-.5-.5c0-.282.218-.5.5-.5M2.606 8.594l1.23.623l-.389 1.06zm9.789 0l-.842 1.683l-.389-1.06zM4.737 9.672l.393.2l.2.392l-.936.343zm5.528 0l.343.935l-.935-.343l.2-.393zm-2.764.862l.773.283l-.773 1.53l-.773-1.53zm-1.717.631l.623 1.23l-1.683-.841zm3.434 0l1.06.389l-1.683.841z" /></svg>