<svg xmlns="http://www.w3.org/2000/svg" viewBox="0 0 16 16" width="48" height="48"><path fill="currentColor" d="M1.418 8.006a.5.5 0 0 0-.412.576l1 6a.5.5 0 1 0 .988-.164L2.924 14h1.652l-.07.418a.5.5 0 1 0 .988.164l.5-3A.5.5 0 0 0 5.5 11H2.424l-.43-2.582a.503.503 0 0 0-.576-.412M4.5 8a.499.499 0 1 0 0 1H7v5.5a.499.499 0 1 0 1 0V9h2.5a.499.499 0 1 0 0-1zm8.506.418L12.576 11H9.498a.5.5 0 0 0-.492.582l.5 3a.5.5 0 1 0 .986-.164l-.07-.418h1.654l-.07.418a.5.5 0 1 0 .986.164l1-6a.5.5 0 1 0-.986-.164M7.342 1.025l-6 2a.5.5 0 0 0-.342.5V4.5a.5.5 45 0 0 .5.5a.5.5 134.999 0 0 .5-.5V4h11v.5a.5.5 45 0 0 .5.5a.5.5 134.999 0 0 .5-.5v-.965a.5.5 0 0 0-.342-.51l-6-2a.48.48 0 0 0-.316 0" /></svg>