<svg xmlns="http://www.w3.org/2000/svg" viewBox="0 0 16 16" width="48" height="48"><path fill="currentColor" d="M3.5 5a.5.5 0 0 0-.465.314l-2 5A.5.5 0 0 0 1.5 11h13a.5.5 0 0 0 .465-.686l-2-5A.5.5 0 0 0 12.5 5zm2 1h1c.277 0 .5.223.5.5v1c0 .277-.223.5-.5.5h-1a.5.5 0 0 1-.5-.5v-1c0-.277.223-.5.5-.5m4 0h1c.277 0 .5.223.5.5v1c0 .277-.223.5-.5.5h-1a.5.5 0 0 1-.5-.5v-1c0-.277.223-.5.5-.5m-6 2h1c.277 0 .5.223.5.5v1c0 .277-.223.5-.5.5h-1a.5.5 0 0 1-.5-.5v-1c0-.277.223-.5.5-.5m4 0h1c.277 0 .5.223.5.5v1c0 .277-.223.5-.5.5h-1a.5.5 0 0 1-.5-.5v-1c0-.277.223-.5.5-.5m4 0h1c.277 0 .5.223.5.5v1c0 .277-.223.5-.5.5h-1a.5.5 0 0 1-.5-.5v-1c0-.277.223-.5.5-.5" /></svg>