<svg xmlns="http://www.w3.org/2000/svg" viewBox="0 0 16 16" width="48" height="48"><path fill="currentColor" d="M4 2c-.554 0-1 .446-1 1v8c0 .554.446 1 1 1h8c.554 0 1-.446 1-1V3c0-.554-.446-1-1-1zm.5 2h7c.277 0 .5.223.5.5v3c0 .277-.223.5-.5.5h-7a.5.5 0 0 1-.5-.5v-3c0-.277.223-.5.5-.5m0 5h1c.277 0 .5.223.5.5v1c0 .277-.223.5-.5.5h-1a.5.5 0 0 1-.5-.5v-1c0-.277.223-.5.5-.5m6 0h1c.277 0 .5.223.5.5v1c0 .277-.223.5-.5.5h-1a.5.5 0 0 1-.5-.5v-1c0-.298.23-.5.5-.5M4 13v1H2.5a.499.499 0 1 0 0 1h11a.499.499 0 1 0 0-1H12v-1h-1v1H5v-1z" /></svg>