<svg xmlns="http://www.w3.org/2000/svg" viewBox="0 0 16 16" width="48" height="48"><path fill="currentColor" d="M5.156 1.844L6.313 3H5c-.554 0-1 .446-1 1v8c0 .554.446 1 1 1v.5a.499.499 0 1 0 1 0V13h4v.5a.499.499 0 1 0 1 0V13c.554 0 1-.446 1-1V4c0-.554-.446-1-1-1H9.688l1.156-1.156C11.14 1.532 10.92 1 10.5 1h-5c-.454 0-.68.533-.344.844M6.688 2h2.625l-1 1h-.626zM5.75 4h4.5c.415 0 .75.335.75.75v3.5c0 .415-.335.75-.75.75h-4.5A.75.75 0 0 1 5 8.25v-3.5c0-.415.335-.75.75-.75M8 10a1 1 0 1 1 0 2a1 1 0 0 1 0-2" /></svg>