<svg xmlns="http://www.w3.org/2000/svg" viewBox="0 0 16 16" width="48" height="48"><path fill="currentColor" d="M4.5 1a.5.5 0 0 0-.5.5v3.176c-.625.773-1 1.756-1 2.824s.375 2.051 1 2.824V13.5a.5.5 0 0 0 .5.5h6a.5.5 0 0 0 .5-.5v-3.176c.625-.773 1-1.756 1-2.824a4.48 4.48 0 0 0-1-2.824V1.5a.5.5 0 0 0-.5-.5zm3 3A3.5 3.5 0 0 1 11 7.5A3.5 3.5 0 0 1 7.5 11A3.5 3.5 0 0 1 4 7.5A3.5 3.5 0 0 1 7.5 4m0 1a.5.5 0 0 0-.5.5v2a.5.5 0 0 0 .146.354l1 1a.5.5 0 0 0 .707 0a.5.5 0 0 0 0-.707L8 7.292V5.5a.5.5 0 0 0-.5-.5m0 7a.5.5 0 0 1 .5.5a.5.5 0 0 1-.5.5a.5.5 0 0 1-.5-.5a.5.5 0 0 1 .5-.5" /></svg>