<svg xmlns="http://www.w3.org/2000/svg" width="48" height="48" viewBox="-0.5 0 25 25" fill="none">
<path d="M20 7.88C20 6.60962 19.4953 5.39128 18.597 4.49298C17.6987 3.59468 16.4804 3.09003 15.21 3.09003H8.79004C7.51965 3.09003 6.30131 3.59468 5.40302 4.49298C4.50472 5.39128 4 6.60962 4 7.88" stroke="currentColor" stroke-width="1.5" stroke-linecap="round" stroke-linejoin="round" />
<path d="M4.00023 7.88V20.4C3.97675 20.5986 4.02161 20.7992 4.12737 20.9689C4.23312 21.1385 4.39348 21.2671 4.58208 21.3335C4.77068 21.3999 4.97626 21.4 5.16496 21.3339C5.35367 21.2679 5.51427 21.1395 5.62029 20.97L7.39025 18.09C7.4548 17.972 7.54706 17.8714 7.65911 17.7969C7.77115 17.7225 7.89967 17.6764 8.03349 17.6627C8.16732 17.6489 8.30243 17.6678 8.42729 17.7179C8.55216 17.768 8.66299 17.8476 8.75023 17.95L11.2502 20.76C11.3441 20.8664 11.4595 20.9516 11.5888 21.01C11.7181 21.0684 11.8584 21.0986 12.0002 21.0986C12.1421 21.0986 12.2824 21.0684 12.4117 21.01C12.541 20.9516 12.6564 20.8664 12.7502 20.76L15.2502 17.95C15.3375 17.8476 15.4483 17.768 15.5732 17.7179C15.698 17.6678 15.8332 17.6489 15.967 17.6627C16.1008 17.6764 16.2293 17.7225 16.3414 17.7969C16.4534 17.8714 16.5457 17.972 16.6103 18.09L18.3802 20.97C18.4863 21.1395 18.6469 21.2679 18.8356 21.3339C19.0243 21.4 19.2298 21.3999 19.4184 21.3335C19.607 21.2671 19.7674 21.1385 19.8732 20.9689C19.9789 20.7992 20.0237 20.5986 20.0002 20.4V7.88" stroke="currentColor" stroke-width="1.5" stroke-linecap="round" stroke-linejoin="round" />
</svg>