<svg xmlns="http://www.w3.org/2000/svg" width="48" height="48" viewBox="-0.5 0 25 25" fill="none">
<path d="M18 3.91992H6C3.79086 3.91992 2 5.71078 2 7.91992V17.9199C2 20.1291 3.79086 21.9199 6 21.9199H18C20.2091 21.9199 22 20.1291 22 17.9199V7.91992C22 5.71078 20.2091 3.91992 18 3.91992Z" stroke="currentColor" stroke-width="1.5" stroke-linecap="round" stroke-linejoin="round" />
<path d="M12 16.9199C14.2091 16.9199 16 15.1291 16 12.9199C16 10.7108 14.2091 8.91992 12 8.91992C9.79086 8.91992 8 10.7108 8 12.9199C8 15.1291 9.79086 16.9199 12 16.9199Z" stroke="currentColor" stroke-width="1.5" stroke-linecap="round" stroke-linejoin="round" />
<path d="M15 6.91992H19" stroke="currentColor" stroke-width="1.5" stroke-linecap="round" stroke-linejoin="round" />
<path d="M5 18.9199H9" stroke="currentColor" stroke-width="1.5" stroke-linecap="round" stroke-linejoin="round" />
</svg>