<svg xmlns="http://www.w3.org/2000/svg" viewBox="0 0 25 25" width="48" height="48" fill="none" stroke="currentColor" stroke-linecap="round" stroke-linejoin="round"><path fill="none" stroke="currentColor" stroke-linecap="round" stroke-linejoin="round" stroke-width="1.5" d="M24.25 7a1 1 0 0 1-1 1h-15a1 1 0 0 1-1-1V6a1 1 0 0 1 1-1h15a1 1 0 0 1 1 1zm-3 6a1 1 0 0 1-1 1h-15a1 1 0 0 1-1-1v-1a1 1 0 0 1 1-1h15a1 1 0 0 1 1 1zm-3 6a1 1 0 0 1-1 1h-15a1 1 0 0 1-1-1v-1a1 1 0 0 1 1-1h15a1 1 0 0 1 1 1z" /></svg>