<svg xmlns="http://www.w3.org/2000/svg" viewBox="0 0 14 14" width="48" height="48" fill="none" stroke="currentColor" stroke-width="1" stroke-linecap="round" stroke-linejoin="round"><path fill="none" stroke="currentColor" stroke-linecap="round" stroke-linejoin="round" d="M1 7h4.5M1 11.719h9M8.5 7H13m0-4.719H4m-3 0c0 .96.54 1.5 1.5 1.5s1.5-.54 1.5-1.5s-.54-1.5-1.5-1.5s-1.5.54-1.5 1.5m9 9.438c0 .96.54 1.5 1.5 1.5s1.5-.54 1.5-1.5s-.54-1.5-1.5-1.5s-1.5.54-1.5 1.5M5.523 7c0 .96.54 1.5 1.5 1.5s1.5-.54 1.5-1.5s-.54-1.5-1.5-1.5s-1.5.54-1.5 1.5" /></svg>