<svg xmlns="http://www.w3.org/2000/svg" viewBox="0 0 24 24" width="48" height="48" fill="none" stroke="currentColor" stroke-width="1" stroke-linecap="round" stroke-linejoin="round"><g fill="none" stroke="currentColor" stroke-linecap="round" stroke-linejoin="round" stroke-miterlimit="10"><path d="M2.5 1.5V8l3 1.5l3-1.5V1.5" /><path d="M2.5 8v14l3 1.5l3-1.5V8m-3-5.5V7m-1 12.5h2m-2-7h2m2-11V8l3 1.5l3-1.5V1.5" /><path d="M8.5 8v14l3 1.5l3-1.5V8m-3-5.5V7m-1 12.5h2m-2-7h2m2-11V8l3 1.5l3-1.5V1.5" /><path d="M14.5 8v14l3 1.5l3-1.5V8m-3-5.5V7m-1 12.5h2m-2-7h2" /></g></svg>