<svg xmlns="http://www.w3.org/2000/svg" viewBox="0 0 24 24" width="48" height="48" fill="none" stroke="currentColor" stroke-width="1" stroke-linecap="round" stroke-linejoin="round"><g fill="none" stroke="currentColor" stroke-linecap="round" stroke-linejoin="round" stroke-miterlimit="10"><path d="M18.5 1.5h-14v22h14z" /><path d="M6.5 3.5H10L11.5 5L13 3.5h3.5v18H13L11.5 20L10 21.5H6.5zm12 0h2m-2 2.999h2m-2 3h2m-2 2.999h2m-2 3h2m-2 2.999h2m-2 3h2M2.5 3.5h2m-2 2.999h2m-2 3h2m-2 2.999h2m-2 3h2m-2 2.999h2m-2 3h2" /></g></svg>