<svg xmlns="http://www.w3.org/2000/svg" viewBox="0 0 24 24" width="48" height="48" fill="none" stroke="currentColor" stroke-linecap="round" stroke-linejoin="round"><g fill="none" stroke="currentColor" stroke-linejoin="round" stroke-width="1.5"><path stroke-linecap="round" d="M13.5 18a4 4 0 0 1-8 0V2h8v8" /><path d="m16 10.5l-.258.697c-.338.914-.507 1.371-.84 1.704c-.334.334-.791.503-1.705.841L12.5 14l.697.258c.914.338 1.371.507 1.704.84c.334.334.503.791.841 1.705L16 17.5l.258-.697c.338-.914.507-1.371.84-1.704c.334-.334.791-.503 1.705-.841L19.5 14l-.697-.258c-.914-.338-1.371-.507-1.704-.84c-.334-.334-.503-.791-.841-1.705z" /><path stroke-linecap="round" d="M4.5 2h10m-9 6h8" /></g></svg>