<svg xmlns="http://www.w3.org/2000/svg" viewBox="0 0 24 24" width="48" height="48" fill="none" stroke="currentColor" stroke-linecap="round" stroke-linejoin="round"><g fill="none" stroke="currentColor" stroke-linejoin="round" stroke-width="1.5"><path stroke-linecap="round" d="M2 22h20" /><path d="M14 4h-4c-1.655 0-2 .345-2 2v16h8V6c0-1.655-.345-2-2-2Zm-6 9H6c-1.655 0-2 .345-2 2v7h4zm10 0h-2v9h4v-7c0-1.655-.345-2-2-2Z" /><path stroke-linecap="round" d="M12 4V2m0 20v-4m-1-3h2m-2-3.5h2M11 8h2" /></g></svg>