<svg xmlns="http://www.w3.org/2000/svg" viewBox="0 0 24 24" width="48" height="48" fill="none" stroke="currentColor" stroke-linecap="round" stroke-linejoin="round"><g fill="none" stroke="currentColor" stroke-width="1.5"><circle cx="12" cy="12" r="6" /><path stroke-linecap="round" stroke-linejoin="round" d="m8 22l2.684-7.648C11.234 12.784 11.51 12 12 12s.765.784 1.316 2.352L16 22" /><path d="M14 4a2 2 0 1 1-4 0a2 2 0 0 1 4 0Zm5 6a2 2 0 1 1 0-4a2 2 0 0 1 0 4ZM7 16a2 2 0 1 1-4 0a2 2 0 0 1 4 0Zm0-8.25a2 2 0 1 1-4 0a2 2 0 0 1 4 0ZM21 16a2 2 0 1 1-4 0a2 2 0 0 1 4 0Z" /></g></svg>