<svg xmlns="http://www.w3.org/2000/svg" viewBox="0 0 24 24" width="48" height="48" fill="none" stroke="currentColor" stroke-linecap="round" stroke-linejoin="round"><path fill="none" stroke="currentColor" stroke-linejoin="round" stroke-width="1.5" d="M10.5 16.5v2a1 1 0 0 1-1 1h-7a1 1 0 0 1-1-1v-1a1 1 0 0 1 1-1h1a1 1 0 0 0 1-1v-10a1 1 0 0 1 1-1h1a1 1 0 0 1 1 1v1a1 1 0 0 0 1 1h1a1 1 0 0 1 1 1v1a1 1 0 0 0 1 1h1a1 1 0 0 0 1-1v-1a1 1 0 0 1 1-1h1a1 1 0 0 0 1-1v-1a1 1 0 0 1 1-1h1a1 1 0 0 1 1 1v10a1 1 0 0 0 1 1h1a1 1 0 0 1 1 1v1a1 1 0 0 1-1 1h-7a1 1 0 0 1-1-1v-2m-3 0h3m-3 0h-2a1 1 0 0 1-1-1v-1a1 1 0 0 1 1-1h1a1 1 0 0 1 1 1zm3 0h2a1 1 0 0 0 1-1v-1a1 1 0 0 0-1-1h-1a1 1 0 0 0-1 1z" /></svg>