<svg xmlns="http://www.w3.org/2000/svg" viewBox="0 0 24 24" width="48" height="48" fill="none" stroke="currentColor" stroke-linecap="round" stroke-linejoin="round"><g fill="none" stroke="currentColor" stroke-linecap="round" stroke-linejoin="round" stroke-width="1.5"><path d="M21.5 11.996a9.5 9.5 0 0 1-9.5 9.5a9.46 9.46 0 0 1-4.567-1.168c-.553-.304-1.205-.41-1.803-.21L3 20.993l.877-2.631c.2-.599.093-1.25-.21-1.803A9.46 9.46 0 0 1 2.5 11.996a9.5 9.5 0 0 1 9.5-9.5" /><path d="M18 9.496a3.5 3.5 0 1 0 0-7a3.5 3.5 0 0 0 0 7" /></g></svg>