<svg xmlns="http://www.w3.org/2000/svg" viewBox="0 0 24 24" width="48" height="48" fill="none" stroke="currentColor" stroke-linecap="round" stroke-linejoin="round"><g fill="none" stroke="currentColor" stroke-width="1.5"><path d="M2 12c0-2.482.518-3 3-3h2c2.482 0 3 .518 3 3s-.518 3-3 3H5c-2.482 0-3-.518-3-3Zm12-5c0-2.482.518-3 3-3h2c2.482 0 3 .518 3 3s-.518 3-3 3h-2c-2.482 0-3-.518-3-3Zm0 10c0-2.482.518-3 3-3h2c2.482 0 3 .518 3 3s-.518 3-3 3h-2c-2.482 0-3-.518-3-3Z" /><path stroke-linecap="round" stroke-linejoin="round" d="m14 7l-3 5l3 5" /></g></svg>