<svg xmlns="http://www.w3.org/2000/svg" viewBox="0 0 24 24" width="48" height="48" fill="none" stroke="currentColor" stroke-linecap="round" stroke-linejoin="round"><g fill="none" stroke="currentColor" stroke-linejoin="round" stroke-width="1.5"><path d="M11.538 7.253a.547.547 0 0 1 .924 0l.622.978a8.8 8.8 0 0 0 2.685 2.685l.978.622a.547.547 0 0 1 0 .924l-.978.622a8.8 8.8 0 0 0-2.685 2.685l-.622.978a.547.547 0 0 1-.924 0l-.622-.978a8.8 8.8 0 0 0-2.685-2.685l-.978-.622a.547.547 0 0 1 0-.924l.978-.622a8.8 8.8 0 0 0 2.685-2.685z" /><circle cx="12" cy="12" r="10" /></g></svg>