<svg xmlns="http://www.w3.org/2000/svg" viewBox="0 0 24 24" width="48" height="48" fill="none" stroke="currentColor" stroke-linecap="round" stroke-linejoin="round"><g fill="none" stroke="currentColor" stroke-linecap="round" stroke-linejoin="round" stroke-width="1.5"><path d="M14 8.5a5 5 0 1 0-10 0a5 5 0 0 0 10 0" /><path d="M16 20.5a7 7 0 1 0-14 0m17-6s3-1.323 3-3.472c0-.844-.632-1.528-1.5-1.528c-.71 0-1.184.294-1.5.882c-.316-.588-.79-.882-1.5-.882c-.868 0-1.5.684-1.5 1.528c0 2.149 3 3.472 3 3.472" /></g></svg>