<svg xmlns="http://www.w3.org/2000/svg" viewBox="0 0 24 24" width="48" height="48" fill="none" stroke="currentColor" stroke-linecap="round" stroke-linejoin="round"><path fill="none" stroke="currentColor" stroke-linecap="round" stroke-linejoin="round" stroke-width="1.5" d="M17 17a2.5 2.5 0 1 1 0-5a2.5 2.5 0 0 1 0 5m0 0a4.5 4.5 0 0 1 4.5 4.5M17 17a4.5 4.5 0 0 0-4.5 4.5M7 7.5a2.5 2.5 0 1 1 0-5a2.5 2.5 0 0 1 0 5m0 0a4.5 4.5 0 0 1 4.5 4.5M7 7.5A4.5 4.5 0 0 0 2.5 12m1 3.5c0 2.764 2.236 5 5 5l-.5-2m10.5-10c0-2.764-2.236-5-5-5l.5 2" /></svg>