<svg xmlns="http://www.w3.org/2000/svg" width="48" height="48" viewBox="-9 0 32 32" version="1.1">
    
    <title>arrow-up-down</title>
    <desc>Created with Sketch Beta.</desc>
    <defs>

</defs>
    <g id="Page-1" stroke="none" stroke-width="1" fill="none" fill-rule="evenodd">
        <g id="Icon-Set" transform="translate(-211.000000, -1191.000000)" fill="currentColor">
            <path d="M223.263,1215.38 L218.991,1219.63 L218.991,1194.37 L223.263,1198.62 C223.656,1199.02 224.293,1199.02 224.687,1198.62 C225.08,1198.23 225.08,1197.6 224.687,1197.2 L218.747,1191.28 C218.537,1191.07 218.259,1190.98 217.984,1191 C217.71,1190.98 217.432,1191.07 217.222,1191.28 L211.283,1197.2 C210.89,1197.6 210.89,1198.23 211.283,1198.62 C211.676,1199.02 212.313,1199.02 212.707,1198.62 L216.978,1194.37 L216.978,1219.63 L212.707,1215.38 C212.313,1214.98 211.676,1214.98 211.283,1215.38 C210.89,1215.77 210.89,1216.4 211.283,1216.8 L217.222,1222.72 C217.432,1222.93 217.71,1223.02 217.984,1223 C218.259,1223.02 218.537,1222.93 218.747,1222.72 L224.687,1216.8 C225.08,1216.4 225.08,1215.77 224.687,1215.38 C224.293,1214.98 223.656,1214.98 223.263,1215.38" id="arrow-up-down">

</path>
        </g>
    </g>
</svg>