<svg xmlns="http://www.w3.org/2000/svg" width="48" height="48" viewBox="0 -4 32 32" version="1.1">
    
    <title>cloud</title>
    <desc>Created with Sketch Beta.</desc>
    <defs>

</defs>
    <g id="Page-1" stroke="none" stroke-width="1" fill="none" fill-rule="evenodd">
        <g id="Icon-Set" transform="translate(-517.000000, -779.000000)" fill="currentColor">
            <path d="M539,801 L525,801 C525,801 518.963,800.381 519,795 C519.021,791.964 521.688,789.183 525,789 C525,784.858 527.65,781 532,781 C535.433,781 537.723,783.096 538.538,786.014 C543.493,785.798 546.844,789.718 547,793 C547.21,797.413 542.601,801 539,801 L539,801 Z M540.067,784.028 C538.599,781.053 535.543,779 532,779 C527.251,779 523.37,782.682 523.033,787.345 C519.542,788.34 517,791.39 517,795 C517,799.26 520.54,802.731 525,802.977 C525,802.977 538.831,803 539,803 C544.247,803 549,798.747 549,793.5 C549,788.444 545.049,784.323 540.067,784.028 L540.067,784.028 Z" id="cloud">

</path>
        </g>
    </g>
</svg>