<svg xmlns="http://www.w3.org/2000/svg" width="48" height="48" viewBox="-0.5 0 28 28" version="1.1">
    
    <title>cocktail</title>
    <desc>Created with Sketch Beta.</desc>
    <defs>

</defs>
    <g id="Page-1" stroke="none" stroke-width="1" fill="none" fill-rule="evenodd">
        <g id="Icon-Set" transform="translate(-518.000000, -413.000000)" fill="currentColor">
            <path d="M532,428 L521.093,415 L541.983,415 L532,428 L532,428 Z M544.652,414.753 C544.86,414.569 545,414.306 545,414 C545,413.569 544.734,413.21 544.366,413.069 C544.222,413.008 544.068,412.99 543.914,413 L519.054,413 C518.776,412.982 518.494,413.07 518.281,413.283 C517.89,413.676 517.89,414.313 518.281,414.707 L531,430 L531,439 L527,439 C526.447,439 526,439.448 526,440 C526,440.553 526.447,441 527,441 L537,441 C537.553,441 538,440.553 538,440 C538,439.448 537.553,439 537,439 L533,439 L533,430 L544.652,414.753 L544.652,414.753 Z" id="cocktail">

</path>
        </g>
    </g>
</svg>