<svg xmlns="http://www.w3.org/2000/svg" width="48" height="48" viewBox="-1 0 32 32" version="1.1">
    
    <title>folder</title>
    <desc>Created with Sketch Beta.</desc>
    <defs>

</defs>
    <g id="Page-1" stroke="none" stroke-width="1" fill="none" fill-rule="evenodd">
        <g id="Icon-Set-Filled" transform="translate(-311.000000, -153.000000)" fill="currentColor">
            <path d="M340.641,155.359 L335,161 L317,161 L311.359,155.359 C311.133,155.861 311,156.414 311,157 L311,181 C311,183.209 312.791,185 315,185 L337,185 C339.209,185 341,183.209 341,181 L341,157 C341,156.414 340.867,155.861 340.641,155.359 L340.641,155.359 Z M334,159 L339.28,153.72 C338.633,153.269 337.849,153 337,153 L315,153 C314.151,153 313.367,153.269 312.72,153.72 L318,159 L334,159 L334,159 Z" id="folder">

</path>
        </g>
    </g>
</svg>