<svg xmlns="http://www.w3.org/2000/svg" width="48" height="48" viewBox="-6 0 32 32" version="1.1">
    
    <title>mouse</title>
    <desc>Created with Sketch Beta.</desc>
    <defs>

</defs>
    <g id="Page-1" stroke="none" stroke-width="1" fill="none" fill-rule="evenodd">
        <g id="Icon-Set-Filled" transform="translate(-108.000000, -517.000000)" fill="currentColor">
            <path d="M119,530 C119,530.553 118.552,531 118,531 C117.448,531 117,530.553 117,530 L117,526 C117,525.447 117.448,525 118,525 C118.552,525 119,525.447 119,526 L119,530 L119,530 Z M124,521 L119,521 L119,517 L115,517 C114.448,517 114,517.448 114,518 C114,518.553 114.448,519 115,519 L117,519 L117,521 L112,521 C109.791,521 108,522.791 108,525 L108,545 C108,547.209 109.791,549 112,549 L124,549 C126.209,549 128,547.209 128,545 L128,525 C128,522.791 126.209,521 124,521 L124,521 Z" id="mouse">

</path>
        </g>
    </g>
</svg>