<svg xmlns="http://www.w3.org/2000/svg" viewBox="0 0 14 14" width="48" height="48"><g fill="none"><path fill="#d7e0ff" d="M3.5 6.5a3 3 0 1 0 0-6a3 3 0 0 0 0 6m7 0a2 2 0 1 0 0-4a2 2 0 0 0 0 4" /><path stroke="#4147d5" stroke-linecap="round" stroke-linejoin="round" d="M3.5 6.5a3 3 0 1 0 0-6a3 3 0 0 0 0 6m7 0a2 2 0 1 0 0-4a2 2 0 0 0 0 4" /><path fill="#d7e0ff" d="M10 9H4.5a1 1 0 0 0-1 1v2.5a1 1 0 0 0 1 1H10a1 1 0 0 0 1-1V10a1 1 0 0 0-1-1" /><path stroke="#4147d5" stroke-linecap="round" stroke-linejoin="round" d="M10 9H4.5a1 1 0 0 0-1 1v2.5a1 1 0 0 0 1 1H10a1 1 0 0 0 1-1V10a1 1 0 0 0-1-1m3.5 1v2.5" /></g></svg>