<svg xmlns="http://www.w3.org/2000/svg" viewBox="0 0 14 14" width="48" height="48"><g fill="none"><path fill="#d7e0ff" d="M6.998.56a6.44 6.44 0 0 0-5.36 10.006L.558 13.44l3.617-.653A6.44 6.44 0 1 0 6.998.56" /><path stroke="#4147d5" stroke-linecap="round" stroke-linejoin="round" d="M6.998.56a6.44 6.44 0 0 0-5.36 10.006L.558 13.44l3.617-.653A6.44 6.44 0 1 0 6.998.56" /><path stroke="#4147d5" stroke-linecap="round" stroke-linejoin="round" d="M7.002 7.25a.25.25 0 0 1 0-.5m0 .5a.25.25 0 0 0 0-.5m-2.75.5a.25.25 0 0 1 0-.5m0 .5a.25.25 0 0 0 0-.5m5.5.5a.25.25 0 0 1 0-.5m0 .5a.25.25 0 1 0 0-.5" /></g></svg>