<svg xmlns="http://www.w3.org/2000/svg" viewBox="0 0 14 14" width="48" height="48"><g fill="none"><path fill="#d7e0ff" d="M3.36 13.5a2.6 2.6 0 1 0 0-5.2a2.6 2.6 0 0 0 0 5.2m7.28-1.04a2.6 2.6 0 1 0 0-5.2a2.6 2.6 0 0 0 0 5.2" /><path stroke="#4147d5" stroke-linecap="round" stroke-linejoin="round" d="M3.36 13.5a2.6 2.6 0 1 0 0-5.2a2.6 2.6 0 0 0 0 5.2m7.28-1.04a2.6 2.6 0 1 0 0-5.2a2.6 2.6 0 0 0 0 5.2" /><path stroke="#4147d5" stroke-linecap="round" stroke-linejoin="round" d="M9.41 7.57A10.36 10.36 0 0 1 6 .5a13.8 13.8 0 0 0-2.6 7.8M3.36.5h5.2" /></g></svg>