<svg xmlns="http://www.w3.org/2000/svg" viewBox="0 0 14 14" width="48" height="48"><g fill="none"><path fill="#d7e0ff" d="M3.25 6a2.75 2.75 0 1 0 0-5.5a2.75 2.75 0 0 0 0 5.5m7.5 0a2.75 2.75 0 1 0 0-5.5a2.75 2.75 0 0 0 0 5.5m-7.5 7.5a2.75 2.75 0 1 0 0-5.5a2.75 2.75 0 0 0 0 5.5m7.5 0a2.75 2.75 0 1 0 0-5.5a2.75 2.75 0 0 0 0 5.5" /><path stroke="#4147d5" stroke-linecap="round" stroke-linejoin="round" d="M3.25 6a2.75 2.75 0 1 0 0-5.5a2.75 2.75 0 0 0 0 5.5m7.5 0a2.75 2.75 0 1 0 0-5.5a2.75 2.75 0 0 0 0 5.5m-7.5 7.5a2.75 2.75 0 1 0 0-5.5a2.75 2.75 0 0 0 0 5.5m7.5 0a2.75 2.75 0 1 0 0-5.5a2.75 2.75 0 0 0 0 5.5" /></g></svg>