<svg xmlns="http://www.w3.org/2000/svg" viewBox="0 0 14 14" width="48" height="48"><g fill="none"><path fill="#d7e0ff" d="M12.5 1h-11a1 1 0 0 0-1 1v4a1 1 0 0 0 1 1h11a1 1 0 0 0 1-1V2a1 1 0 0 0-1-1" /><path stroke="#4147d5" stroke-linecap="round" stroke-linejoin="round" d="M3.5 4.5a.5.5 0 1 0 0-1a.5.5 0 0 0 0 1m4-.5H11" /><path fill="#d7e0ff" d="M1.5 7a1 1 0 0 0-1 1v4a1 1 0 0 0 1 1h11a1 1 0 0 0 1-1V8a1 1 0 0 0-1-1" /><path stroke="#4147d5" stroke-linecap="round" stroke-linejoin="round" d="M12.5 1h-11a1 1 0 0 0-1 1v4a1 1 0 0 0 1 1h11a1 1 0 0 0 1-1V2a1 1 0 0 0-1-1m-11 6a1 1 0 0 0-1 1v4a1 1 0 0 0 1 1h11a1 1 0 0 0 1-1V8a1 1 0 0 0-1-1" /><path stroke="#4147d5" stroke-linecap="round" stroke-linejoin="round" d="M3.5 10.5a.5.5 0 1 0 0-1a.5.5 0 0 0 0 1m4-.5H11" /></g></svg>