<svg xmlns="http://www.w3.org/2000/svg" viewBox="0 0 14 14" width="48" height="48"><g fill="none"><path fill="#d7e0ff" d="M2.5.5h9s2 0 2 2v9s0 2-2 2h-9s-2 0-2-2v-9s0-2 2-2" /><path stroke="#4147d5" stroke-linecap="round" stroke-linejoin="round" d="M2.5.5h9s2 0 2 2v9s0 2-2 2h-9s-2 0-2-2v-9s0-2 2-2" /><path stroke="#4147d5" stroke-linecap="round" stroke-linejoin="round" d="M9 3.5a.5.5 0 1 0 1 0a.5.5 0 1 0-1 0m-5 0a.5.5 0 1 0 1 0a.5.5 0 1 0-1 0m5 7a.5.5 0 1 0 1 0a.5.5 0 1 0-1 0M9 7a.5.5 0 1 0 1 0a.5.5 0 1 0-1 0m-5 3.5a.5.5 0 1 0 1 0a.5.5 0 1 0-1 0M4 7a.5.5 0 1 0 1 0a.5.5 0 1 0-1 0" /></g></svg>