<svg xmlns="http://www.w3.org/2000/svg" viewBox="0 0 14 14" width="48" height="48"><g fill="none"><path fill="#d7e0ff" d="M7 13.5a6.5 6.5 0 1 0 0-13a6.5 6.5 0 0 0 0 13" /><path stroke="#4147d5" stroke-linecap="round" stroke-linejoin="round" d="M7 13.5a6.5 6.5 0 1 0 0-13a6.5 6.5 0 0 0 0 13" /><path stroke="#4147d5" stroke-linecap="round" stroke-linejoin="round" d="M4 7.25a.25.25 0 0 1 0-.5m0 .5a.25.25 0 0 0 0-.5m3 .5a.25.25 0 0 1 0-.5m0 .5a.25.25 0 0 0 0-.5m3 .5a.25.25 0 0 1 0-.5m0 .5a.25.25 0 1 0 0-.5" /></g></svg>