<svg xmlns="http://www.w3.org/2000/svg" viewBox="0 0 14 14" width="48" height="48"><g fill="none"><path fill="#fff" d="M8.5 9.5V12a1.5 1.5 0 0 1-3 0V9.5" /><path stroke="#4147d5" stroke-linecap="round" stroke-linejoin="round" d="M8.5 9.5V12a1.5 1.5 0 0 1-3 0V9.5" /><path fill="#d7e0ff" d="M10 .5H4a1 1 0 0 0-1 1v7a1 1 0 0 0 1 1h6a1 1 0 0 0 1-1v-7a1 1 0 0 0-1-1" /><path stroke="#4147d5" stroke-linecap="round" stroke-linejoin="round" d="M10 .5H4a1 1 0 0 0-1 1v7a1 1 0 0 0 1 1h6a1 1 0 0 0 1-1v-7a1 1 0 0 0-1-1M5.5 3v3.5m3-3.5v3.5" /></g></svg>