<svg xmlns="http://www.w3.org/2000/svg" viewBox="0 0 14 14" width="48" height="48"><g fill="none"><path fill="#d7e0ff" fill-rule="evenodd" d="M13.5 7a6.5 6.5 0 1 1-13 0a6.5 6.5 0 0 1 13 0m-5-1a1.5 1.5 0 1 1-3 0a1.5 1.5 0 0 1 3 0" clip-rule="evenodd" /><path fill="#fff" d="M7 7.5a1.5 1.5 0 1 0 0-3a1.5 1.5 0 0 0 0 3" /><path stroke="#4147d5" stroke-linecap="round" stroke-linejoin="round" d="M7 13.5a6.5 6.5 0 1 0 0-13a6.5 6.5 0 0 0 0 13" /><path stroke="#4147d5" stroke-linecap="round" stroke-linejoin="round" d="M7 7.5a1.5 1.5 0 1 0 0-3a1.5 1.5 0 0 0 0 3m0 0v2" /></g></svg>