<svg xmlns="http://www.w3.org/2000/svg" viewBox="0 0 14 14" width="48" height="48"><g fill="none"><path fill="#d7e0ff" fill-rule="evenodd" d="M13.5 7a6.5 6.5 0 1 1-13 0a6.5 6.5 0 0 1 13 0M9 6.5a2.5 2.5 0 1 1-5 0a2.5 2.5 0 0 1 5 0" clip-rule="evenodd" /><path fill="#fff" d="M6.5 9a2.5 2.5 0 1 0 0-5a2.5 2.5 0 0 0 0 5" /><path stroke="#4147d5" stroke-linecap="round" stroke-linejoin="round" d="M6.5 9a2.5 2.5 0 1 0 0-5a2.5 2.5 0 0 0 0 5" /><path stroke="#4147d5" stroke-linecap="round" stroke-linejoin="round" d="M7 13.5a6.5 6.5 0 1 0 0-13a6.5 6.5 0 0 0 0 13m3-3.5L8.27 8.27" /></g></svg>