<svg xmlns="http://www.w3.org/2000/svg" viewBox="0 0 14 14" width="48" height="48"><defs><path id="SVG63oOqedL" fill="#fff" d="M8.5.5v4h4" /></defs><g fill="none"><use href="#SVG63oOqedL" /><use href="#SVG63oOqedL" /><path fill="#d7e0ff" d="M12.5 12.5a1 1 0 0 1-1 1h-9a1 1 0 0 1-1-1v-11a1 1 0 0 1 1-1H9L12.5 4z" /><path fill="#fff" d="M8.5 4.5v-4H9L12.5 4v.5z" /><path stroke="#4147d5" stroke-linecap="round" stroke-linejoin="round" d="M12.5 12.5a1 1 0 0 1-1 1h-9a1 1 0 0 1-1-1v-11a1 1 0 0 1 1-1H9L12.5 4z" /><path stroke="#4147d5" stroke-linecap="round" stroke-linejoin="round" d="M8.5.5v4h4" /></g></svg>