<svg xmlns="http://www.w3.org/2000/svg" viewBox="0 0 14 14" width="48" height="48"><g fill="none"><path fill="#d7e0ff" fill-rule="evenodd" d="M2.5.5h9a1 1 0 0 1 1 1v11a1 1 0 0 1-1 1h-9a1 1 0 0 1-1-1v-11a1 1 0 0 1 1-1M10 6a3 3 0 1 1-6 0a3 3 0 0 1 6 0" clip-rule="evenodd" /><path fill="#fff" d="M7 9a3 3 0 1 0 0-6a3 3 0 0 0 0 6" /><path stroke="#4147d5" stroke-linecap="round" stroke-linejoin="round" d="M7 9a3 3 0 1 0 0-6a3 3 0 0 0 0 6" /><path stroke="#4147d5" stroke-linecap="round" stroke-linejoin="round" d="M11.5.5h-9a1 1 0 0 0-1 1v11a1 1 0 0 0 1 1h9a1 1 0 0 0 1-1v-11a1 1 0 0 0-1-1M4 6h6M7 9V3" /></g></svg>