<svg xmlns="http://www.w3.org/2000/svg" viewBox="0 0 14 14" width="48" height="48"><g fill="none"><path fill="#d7e0ff" d="M7.354 13.384a1 1 0 0 1-.715 0A9.49 9.49 0 0 1 .55 4.516V1.542A.99.99 0 0 1 1.542.55h10.91a.99.99 0 0 1 .991.992v2.975a9.49 9.49 0 0 1-6.09 8.866" /><path stroke="#4147d5" stroke-linecap="round" stroke-linejoin="round" d="M7.354 13.384a1 1 0 0 1-.715 0v0A9.49 9.49 0 0 1 .55 4.516V1.542A.99.99 0 0 1 1.542.55h10.91a.99.99 0 0 1 .991.992v2.975a9.49 9.49 0 0 1-6.09 8.866" /></g></svg>