<svg xmlns="http://www.w3.org/2000/svg" viewBox="0 0 14 14" width="48" height="48"><g fill="none"><path fill="#d7e0ff" d="M7 13.5a6.5 6.5 0 1 0 0-13a6.5 6.5 0 0 0 0 13" /><path stroke="#4147d5" stroke-linecap="round" stroke-linejoin="round" d="M7 13.5a6.5 6.5 0 1 0 0-13a6.5 6.5 0 0 0 0 13" /><path stroke="#4147d5" stroke-linecap="round" stroke-linejoin="round" d="m7.231 7.001l.447.097a.858.858 0 0 1 .36 1.503l-.37.3l.37.3a.858.858 0 0 1-.36 1.504l-.447.097M4.75 5.5a.25.25 0 0 1 0-.5m0 .5a.25.25 0 0 0 0-.5m4.5.5a.25.25 0 0 1 0-.5m0 .5a.25.25 0 0 0 0-.5" /></g></svg>