<svg xmlns="http://www.w3.org/2000/svg" viewBox="0 0 14 14" width="48" height="48"><g fill="none"><path fill="#d7e0ff" d="M11 8.5a2.5 2.5 0 0 0-1.5.5A4.5 4.5 0 1 0 5 13.5h6a2.5 2.5 0 0 0 0-5" /><path stroke="#4147d5" stroke-linecap="round" stroke-linejoin="round" d="M11 8.5a2.5 2.5 0 0 0-1.5.5A4.5 4.5 0 1 0 5 13.5h6a2.5 2.5 0 0 0 0-5" /><path fill="#fff" d="M11.25 5a2.25 2.25 0 1 0 0-4.5a2.25 2.25 0 0 0 0 4.5" /><path stroke="#4147d5" stroke-linecap="round" stroke-linejoin="round" d="M11.25 5a2.25 2.25 0 1 0 0-4.5a2.25 2.25 0 0 0 0 4.5" /></g></svg>