<svg xmlns="http://www.w3.org/2000/svg" viewBox="0 0 14 14" width="48" height="48"><g fill="none"><path fill="#d7e0ff" d="M12.5.5h-11a1 1 0 0 0-1 1v11a1 1 0 0 0 1 1h11a1 1 0 0 0 1-1v-11a1 1 0 0 0-1-1" /><path stroke="#4147d5" stroke-linecap="round" stroke-linejoin="round" d="M12.5.5h-11a1 1 0 0 0-1 1v11a1 1 0 0 0 1 1h11a1 1 0 0 0 1-1v-11a1 1 0 0 0-1-1" /><path stroke="#4147d5" stroke-linecap="round" stroke-linejoin="round" d="M3.846 10.78L6.17 3.808A.875.875 0 0 1 7 3.21v0c.377 0 .711.241.83.598l2.324 6.972M4.687 8.257h4.626" /></g></svg>