<svg xmlns="http://www.w3.org/2000/svg" viewBox="0 0 14 14" width="48" height="48"><g fill="none"><path fill="#fff" d="M10.5 2.5h-7a1 1 0 0 0-1 1v7a1 1 0 0 0 1 1h7a1 1 0 0 0 1-1v-7a1 1 0 0 0-1-1" /><path fill="#d7e0ff" d="M9.5 2.5v-1a1 1 0 0 0-1-1h-3a1 1 0 0 0-1 1v1m5 9v1a1 1 0 0 1-1 1h-3a1 1 0 0 1-1-1v-1" /><path stroke="#4147d5" stroke-linecap="round" stroke-linejoin="round" d="M9.5 2.5v-1a1 1 0 0 0-1-1h-3a1 1 0 0 0-1 1v1m5 9v1a1 1 0 0 1-1 1h-3a1 1 0 0 1-1-1v-1m6-9h-7a1 1 0 0 0-1 1v7a1 1 0 0 0 1 1h7a1 1 0 0 0 1-1v-7a1 1 0 0 0-1-1" /></g></svg>