<svg xmlns="http://www.w3.org/2000/svg" viewBox="0 0 16 16" width="48" height="48"><path fill="currentColor" fill-rule="evenodd" d="M8.96 2.66a.42.42 0 0 1 .45-.153a.44.44 0 0 1 .317.367l.773 5.65l.003.086a.44.44 0 0 1-.087.239l-3.38 4.49l-.043.049a.42.42 0 0 1-.345.116l-.062-.012a.45.45 0 0 1-.304-.303l-.014-.064l-.773-5.65a.44.44 0 0 1 .084-.326l3.38-4.49zM6.52 7.57l.556 4.06l2.4-3.2l-.557-4.06z" clip-rule="evenodd" /><path fill="currentColor" fill-rule="evenodd" d="M8 0c4.42 0 8 3.58 8 8s-3.58 8-8 8s-8-3.58-8-8s3.58-8 8-8m0 1C4.13 1 1 4.13 1 8s3.13 7 7 7s7-3.13 7-7s-3.13-7-7-7" clip-rule="evenodd" /></svg>