<svg xmlns="http://www.w3.org/2000/svg" viewBox="0 0 24 24" width="48" height="48"><g fill="none" stroke-width="1.5"><path fill="#d7e0ff" d="M2.842 7.65C5.2 3.264 10.19 5.083 12 7.05c1.81-1.967 6.8-3.786 9.158.6C23.928 12.807 16.08 22 16.08 22L12 19.546L7.92 22S.072 12.807 2.842 7.65" /><path stroke="#4147d5" d="M15.846 2C12 2.77 12 5.846 12 5.846v1.279" /><path stroke="#4147d5" stroke-linecap="round" d="M2.842 7.65C5.2 3.264 10.19 5.083 12 7.05c1.81-1.967 6.8-3.786 9.158.6C23.928 12.807 16.08 22 16.08 22L12 19.546L7.92 22S.072 12.807 2.842 7.65Z" /></g></svg>