<svg xmlns="http://www.w3.org/2000/svg" viewBox="0 0 24 24" width="48" height="48"><g fill="none" stroke-width="1.5"><path stroke="#4147d5" d="M1 12h6.5m9 0H23" /><path fill="#d7e0ff" d="M10 12a2 2 0 1 0 4 0a2 2 0 1 0-4 0" /><path stroke="#4147d5" d="M8.5 4H23" /><path fill="#d7e0ff" d="M2 4a2 2 0 1 0 4 0a2 2 0 1 0-4 0" /><path stroke="#4147d5" d="M1 20h14.5" /><path fill="#d7e0ff" d="M18 20a2 2 0 1 0 4 0a2 2 0 1 0-4 0" /><path stroke="#4147d5" d="M10 12a2 2 0 1 0 4 0a2 2 0 1 0-4 0M2 4a2 2 0 1 0 4 0a2 2 0 1 0-4 0m16 16a2 2 0 1 0 4 0a2 2 0 1 0-4 0" /></g></svg>