<svg xmlns="http://www.w3.org/2000/svg" viewBox="0 0 24 24" width="48" height="48"><g fill="none" stroke-width="1.5"><path fill="#d7e0ff" d="M7 3a5 5 0 0 0-1.835 9.653A4.5 4.5 0 0 0 9 20.743V3.416A5 5 0 0 0 7 3m10 0a5 5 0 0 1 1.835 9.653A4.5 4.5 0 0 1 15 20.743V3.416A5 5 0 0 1 17 3" /><path stroke="#4147d5" d="M7 3a5 5 0 0 0-1.835 9.653A4.5 4.5 0 0 0 9 20.743V3.416A5 5 0 0 0 7 3Zm10 0a5 5 0 0 1 1.835 9.653A4.5 4.5 0 0 1 15 20.743V3.416A5 5 0 0 1 17 3Zm-5-1.5v3M12 6v3m0 1.5v3m0 1.5v3m0 1.5v3" /></g></svg>