<svg xmlns="http://www.w3.org/2000/svg" viewBox="0 0 24 24" width="48" height="48" fill="none" stroke="currentColor" stroke-linecap="round" stroke-linejoin="round"><g fill="none"><path stroke="currentColor" stroke-linecap="square" stroke-width="2" d="M21 15v-3.5M3 15V3h9.5m2.929 16.75c0 1.243 1.023 2.25 2.285 2.25S20 20.993 20 19.75s-1.023-2.25-2.286-2.25c-1.262 0-2.285 1.007-2.285 2.25Zm.582-1.5L7.81 10h-.003zm-7.44 1.5c0 1.243-1.023 2.25-2.285 2.25S4 20.993 4 19.75s1.023-2.25 2.286-2.25c1.262 0 2.285 1.007 2.285 2.25Zm-.582-1.5L16.191 10h.002z" /><path stroke="currentColor" stroke-width="2" d="m19.25 3l.52 1.23l1.23.52l-1.23.52l-.52 1.23l-.52-1.23l-1.23-.52l1.23-.52z" /></g></svg>