<svg xmlns="http://www.w3.org/2000/svg" viewBox="0 0 24 24" width="48" height="48" fill="none" stroke="currentColor" stroke-linecap="round" stroke-linejoin="round"><g fill="none"><path stroke="currentColor" stroke-width="2" d="M5.822 10.6c1.038-.474 2.153-.774 3.044-1.666c.917-.916 1.207-2.053 1.692-3.1m-4.736 4.767c-.365.167-.72.355-1.053.6m1.053-.6a3.5 3.5 0 1 0 4.736-4.766m.574-.999a5.7 5.7 0 0 0-.574.999m0 0l-.001-.001m7.322 12.112c-5.155 5.155-12.847 4.082-14.847-.703c-1.188-2.843.012-4.782 1.736-6.043c1.282-.937 2.893-1.06 4.098-2.266c1.22-1.22 1.33-2.829 2.267-4.098C12.368 3.162 14.32 1.95 17.174 3.1c4.834 1.95 6.214 9.336.705 14.845Z" /></g></svg>