<svg xmlns="http://www.w3.org/2000/svg" viewBox="0 0 24 24" width="48" height="48" fill="none" stroke="currentColor" stroke-linecap="round" stroke-linejoin="round"><g fill="none"><path stroke="currentColor" stroke-linecap="square" stroke-width="2" d="m13.188 4.683l3.068 3.069m-3.068-3.07c-.723-.722-.815-1.01.593-1.527c3.934-1.44 8.422 2.84 7.391 6.9c-.598 2.357-2.214 4.812-4.209 6.889c-2.076 1.994-4.531 3.61-6.889 4.209c-4.06 1.03-8.34-3.458-6.899-7.391c.516-1.408.804-1.317 1.527-.594m8.486-8.485c-2.28-2.279-6.862 1.623-4.71 3.776m0 0l3.536 3.535M8.478 8.46c-2.152-2.153-6.054 2.43-3.776 4.709m0 0l3.07 3.069" /></g></svg>