<svg xmlns="http://www.w3.org/2000/svg" viewBox="0 0 24 24" width="48" height="48" fill="none" stroke="currentColor" stroke-linecap="round" stroke-linejoin="round"><g fill="none"><path stroke="currentColor" stroke-linecap="square" stroke-width="2" d="m11.4 12.6l-1.52 1.522m-6.364 3.535l2.828 2.828c.707-.707 4.224-3.875 6.081-3.252q.215.072.395.152c-.107-.887.092-1.816.595-2.556L12 13.414l-.354-1.06l-1.06-.354l-.707-.707c-1.19.502-2.457.365-3.536-.29c.169 1.264-1.6 5.426-2.828 6.654Z" /><path stroke="currentColor" stroke-linecap="square" stroke-width="2" d="M11.293 4.221c.115-.149.1-.256.427-.583c1.673-1.674 4.35-1.712 5.976-.084c1.092 1.091 1.434 2.654 1.036 4.07l-.036.108m-7.403-3.51c-1.639-1.458-4.143-1.514-5.758.1c-1.673 1.674-1.711 4.35-.084 5.977q.417.417.892.705c1.08.655 2.346.79 3.536.29l.707.706l1.06.354l.354 1.06l1.414 1.415c-.502.74-.702 1.67-.595 2.557c.092.768.415 1.504.969 2.058c1.356 1.356 3.585 1.324 4.98-.07a3.58 3.58 0 0 0 .898-3.632a4.4 4.4 0 0 0 1.257-.88c1.674-1.674 1.712-4.35.084-5.977a4.07 4.07 0 0 0-2.31-1.153m-7.404-3.51q.09.079.176.165c.942.943 1.126 1.79 1.238 2.663m4.95.707s.511-.101 1.04-.025" /></g></svg>