<svg xmlns="http://www.w3.org/2000/svg" viewBox="0 0 24 24" width="48" height="48" fill="none" stroke="currentColor" stroke-linecap="round" stroke-linejoin="round"><g fill="none"><path stroke="currentColor" stroke-linecap="square" stroke-width="2" d="M3 19.999h18m-9-14h-1.999a7 7 0 0 0-.001 14h5a5 5 0 0 0 5-5c0-2.917-2.575-5.216-5.436-4.98l-.092.008c-2.527.25-4.472 2.38-4.472 4.972m9.395-10.52s-.49-1.98-1.967-1.543s-.957 2.224-.672 3.286l-2.192 3.796a5 5 0 0 1 2.9.629l1.741-3.01c1.054-.283 2.875-.736 2.51-2.226s-2.32-.931-2.32-.931Z" /></g></svg>