<svg xmlns="http://www.w3.org/2000/svg" viewBox="0 0 24 24" width="48" height="48" fill="none" stroke="currentColor" stroke-linecap="round" stroke-linejoin="round"><g fill="none"><path stroke="currentColor" stroke-linecap="square" stroke-width="2" d="m18.061 4.503l.435-1.803m-.435 1.803a4.5 4.5 0 0 0-.762-.195c-2.451-.408-5.007 1.206-5.177 3.7l-.01.163C11.42 18.725 4 20.501 4 20.501s8.126 2.873 13-2c2.282-2.283 3.457-6 3.823-8A63 63 0 0 0 21 9.484a4.5 4.5 0 0 0-2.939-4.982ZM12.6 8.05l1.396-.349l1 1.5l1.5-1l1 1.5l1.5-1L20.3 9.985" /></g></svg>