<svg xmlns="http://www.w3.org/2000/svg" viewBox="0 0 24 24" width="48" height="48" fill="none" stroke="currentColor" stroke-linecap="round" stroke-linejoin="round"><g fill="none"><path stroke="currentColor" stroke-linecap="square" stroke-width="2" d="m19 9l-2.634 1.953M5 9l2.634 1.953m8.774 3.747c1.18 1.526 4.176 6.026-1.308 6.288m-2.268-7.355s1.75-1.133 2.796-2.133c1.872-2 .738-4.697.738-4.697S15.522 5.365 15 5c0-1-.6-3-3-3S9 4 9 5c-.523.366-1.368 1.797-1.368 1.797S6.5 9.5 8.372 11.5c1.047 1 2.797 2.133 2.797 2.133l-.418 1.323S9.195 17.914 9 18.5s-.23 1.688.419 2.5c.458.572 1.257 1 2.581 1s2.123-.428 2.581-1c.65-.812.614-1.914.419-2.5s-1.75-3.544-1.75-3.544zm0 0l-.578-1.133m1.683 2.267L16 14.198s6-2.02 6-5.198c0-3.27-3.527-2.74-5-2.377m-6.937 8.144L8 14.198S2 12.179 2 9c0-3.28 3.53-2.748 5-2.383m.592 8.083c-1.18 1.526-4.176 6.026 1.308 6.288M12 6v6m-2-4l1.75 1.75M14 8l-1.75 1.75m-.523 2.75l-.577 1.133" /></g></svg>