<svg xmlns="http://www.w3.org/2000/svg" viewBox="0 0 24 24" width="48" height="48" fill="none" stroke="currentColor" stroke-linecap="round" stroke-linejoin="round"><g fill="none"><path stroke="currentColor" stroke-linecap="square" stroke-width="2" d="M22 12V2h-3.889l-1.458 1.885M2 12V2h3.333l1.945 1.885M22 12.588C22 17.786 17.523 22 12 22S2 17.786 2 12.588s4.477-9.412 10-9.412s10 4.214 10 9.412Z" /><path stroke="currentColor" stroke-linecap="square" stroke-width="2" d="M8 10v1m8-1v1m-.686 3.704c-1.057.72-2.509.405-3.313-1.204c-.804 1.609-2.256 1.924-3.313 1.204m5.228.596c-.38 1.026-1.176 2.7-1.915 2.7s-1.536-1.674-1.916-2.7" /></g></svg>