<svg xmlns="http://www.w3.org/2000/svg" viewBox="0 0 24 24" width="48" height="48" fill="none" stroke="currentColor" stroke-linecap="round" stroke-linejoin="round"><g fill="none"><path stroke="currentColor" stroke-linecap="square" stroke-width="2" d="M5.5 22c-1.54.04-1.5-2-1.5-2s-2.033.033-2-1.5c.034-1.534 1.91-1.5 3-1.5l1.945-1.94a7.8 7.8 0 0 0 1.97 2.03L7 19c0 1.1.04 2.96-1.5 3Z" /><path stroke="currentColor" stroke-linecap="square" stroke-width="2" d="M10.1 14a7 7 0 0 1-1.84-3.1m.655 6.19a7.8 7.8 0 0 1-1.971-2.029C6.117 13.814 5.906 12.593 6.5 12l1.638-1.61a7 7 0 1 1 5.788 5.528l-1.77 1.739c-.621.622-1.936.358-3.241-.568Z" /></g></svg>