<svg xmlns="http://www.w3.org/2000/svg" viewBox="0 0 24 24" width="48" height="48" fill="none" stroke="currentColor" stroke-linecap="round" stroke-linejoin="round"><g fill="none"><path stroke="currentColor" stroke-linecap="square" stroke-width="2" d="M12 22C6.477 22 2 17.523 2 12S6.477 2 12 2s10 4.477 10 10a9.97 9.97 0 0 1-2.859 7A9.97 9.97 0 0 1 12 22Zm0 0h11" /><path stroke="currentColor" stroke-linecap="square" stroke-width="2" d="M10 7a2 2 0 1 1 4 0a2 2 0 0 1-4 0Zm5 5a2 2 0 1 1 4 0a2 2 0 0 1-4 0ZM5 12a2 2 0 1 1 4 0a2 2 0 0 1-4 0Zm5 5a2 2 0 1 1 4 0a2 2 0 0 1-4 0Z" /></g></svg>