<svg xmlns="http://www.w3.org/2000/svg" viewBox="0 0 24 24" width="48" height="48" fill="none" stroke="currentColor" stroke-linecap="round" stroke-linejoin="round"><g fill="none"><path stroke="currentColor" stroke-linecap="square" stroke-width="2" d="M14.75 21.703c5.79 1.06 7.558-2.33 7.204-5.659C21.313 9.458 13.65 9.207 13.65 2l-4 2.5s.6 1.069.568 2.082C8.58 10.594 2 10.594 2 17.002C2 19.667 3.851 22 6.648 22a7.7 7.7 0 0 0 2.402-.408M13.649 10c0 2.5 1.112 3.062 1.887 5.531s.008 5.285-1.508 6.02c-.66.32-1.47.449-2.38.449c-1 0-1.68-.27-2.14-.582c-1.878-1.279-2.79-4.716-.56-9.608c.592-1.504.928-2.718 1.105-3.71q.036-.206.064-.4l.007-.05" /></g></svg>