<svg xmlns="http://www.w3.org/2000/svg" viewBox="0 0 24 24" width="48" height="48" fill="none" stroke="currentColor" stroke-linecap="round" stroke-linejoin="round"><defs><path id="SVGwwyqN1xl" d="M21 20.146h-7.217l-.532-3.173l5.83-1.784H21zm-18 0h7.217l.532-3.173l-5.83-1.784H3z" /></defs><g fill="none"><use href="#SVGwwyqN1xl" /><g stroke="currentColor" stroke-linecap="square" stroke-width="2"><path d="m5.602 6.337l1.757 3.59l-2.44 5.262l5.83 1.785l1.184-7.06c.052-.203.084-.413.058-.622a2.56 2.56 0 0 0-.73-1.495L7.743 4.28a1.454 1.454 0 0 0-2.371 1.588c.067.16.158.311.23.47Z" /><path d="m18.398 6.337l-1.757 3.59l2.44 5.262l-5.83 1.785l-1.184-7.06a1.7 1.7 0 0 1-.058-.622a2.56 2.56 0 0 1 .73-1.495l3.517-3.518a1.454 1.454 0 0 1 2.371 1.588c-.067.16-.158.311-.23.47Z" /><use href="#SVGwwyqN1xl" /></g></g></svg>