<svg xmlns="http://www.w3.org/2000/svg" viewBox="0 0 24 24" width="48" height="48" fill="none" stroke="currentColor" stroke-linecap="round" stroke-linejoin="round"><g fill="none"><path stroke="currentColor" stroke-linecap="square" stroke-width="2" d="M10.244 16.351V7.566a1.756 1.756 0 0 1 3.512 0v3.954h2.158a1.76 1.76 0 0 1 .885.24l3.625 2.115a1.76 1.76 0 0 1 .781 2.073l-1.782 5.35a1.76 1.76 0 0 1-1.667 1.202h-7.085c-.546 0-1.06-.254-1.393-.686L5.416 16.79l.544-.816a.88.88 0 0 1 .922-.37zM17.499 6.2h2.985l.002-3.7M6.498 6.2H3.513V2.5M4 5.056C8.547.983 15.454.984 20 5.059" /></g></svg>