<svg xmlns="http://www.w3.org/2000/svg" viewBox="0 0 24 24" width="48" height="48" fill="none" stroke="currentColor" stroke-linecap="round" stroke-linejoin="round"><g fill="none"><path stroke="currentColor" stroke-linecap="square" stroke-width="2" d="M10.914 4.462a3.2 3.2 0 0 0-1.561-.403a3.176 3.176 0 1 0 0 6.353m10.195 2.668c.258.46.393 1.002.393 1.567a3.176 3.176 0 0 1-5.29 2.371c-1.556-1.388-1.358-3.908.421-5.018m1.785-4.95c1.32-1.503 2.73-2.828 4.643-3.55m-15 5.946a3.17 3.17 0 0 0-2.441 3.083c0 .92.39 1.749 1.015 2.329a3.17 3.17 0 0 0 3.026.729m1.75-1.533a3.16 3.16 0 0 0-1.556 2.71a3.176 3.176 0 0 0 3.177 3.177a3.18 3.18 0 0 0 3.107-2.441M4.55 15.108A3.15 3.15 0 0 0 3 17.823A3.176 3.176 0 0 0 6.176 21c.994 0 1.888-.497 2.474-1.232m4.45-5.172c-.973.177-2-.12-2.727-.793a3.17 3.17 0 0 1-1.02-2.332c0-1.184.64-2.203 1.599-2.746M13.588 3a3.177 3.177 0 0 1 3.177 3.176c0 .498-.146.969-.35 1.388a3.2 3.2 0 0 0-1.452 1.466c-.416.2-.882.323-1.375.323a3.177 3.177 0 0 1 0-6.353ZM21 10.412a3.177 3.177 0 1 0-6.353 0a3.177 3.177 0 0 0 6.353 0Z" /></g></svg>