<svg xmlns="http://www.w3.org/2000/svg" viewBox="0 0 24 24" width="48" height="48" fill="none" stroke="currentColor" stroke-linecap="round" stroke-linejoin="round"><defs><path id="SVGS9q3IkIf" d="M21.5 11v10h-19V11z" /></defs><g fill="none"><use href="#SVGS9q3IkIf" /><path stroke="currentColor" stroke-linecap="square" stroke-width="2" d="M21 11.003h-.176L19.001 5.67L3.354 11.003L3 11m-.5.004H3L14.146 2.1l2.817 3.95" /><g stroke="currentColor" stroke-linecap="square" stroke-width="2"><path d="M14.5 16a2.5 2.5 0 1 1-5 0a2.5 2.5 0 0 1 5 0Z" /><use href="#SVGS9q3IkIf" /><path d="M2.5 11h2a2 2 0 0 1-2 2zm19 0h-2a2 2 0 0 0 2 2zm-19 10h2.002A2 2 0 0 0 2.5 18.998zm19 0h-2a2 2 0 0 1 2-2z" /></g></g></svg>