<svg xmlns="http://www.w3.org/2000/svg" viewBox="0 0 24 24" width="48" height="48" fill="none" stroke="currentColor" stroke-linecap="round" stroke-linejoin="round"><g fill="none"><path stroke="currentColor" stroke-width="2" d="M11.066 2.398C11.536 4.958 13.803 7 16.5 7c1.739 0 3.29-.761 4.297-2.02M22 11.206A5.5 5.5 0 0 0 20.5 11c-2.927 0-5.33 2.387-5.5 5.27" /><g stroke="currentColor" stroke-width="2"><path d="M5 14c1.975-1.268 4.26-3.455 4.26-3.455l4.195 4.194S11.268 17.025 10 19c-.575.96-2.464 4.536-6 1s.042-5.424 1-6Z" /><path d="M7.5 4.5C6.524 5.476 6.293 6.586 7 8c.325.65 1.3 1.652 2.26 2.545l4.195 4.195c1.526 1.639 3.806 4 6.045 1.76c1.361-1.361 2.218-3.261 2.5-5.293c.365-2.63-.237-5.444-2-7.207c-3.124-3.124-9.376-2.624-12.5.5Z" /></g></g></svg>