<svg xmlns="http://www.w3.org/2000/svg" viewBox="0 0 24 24" width="48" height="48" fill="none" stroke="currentColor" stroke-linecap="round" stroke-linejoin="round"><g fill="none"><path stroke="currentColor" stroke-linecap="square" stroke-width="2" d="M6.71 7.4c-3.665 3.873-5.242 9.068-2.21 12.1c3.034 3.033 8.233 1.453 12.108-2.218M17.6 6.287c-.044-.04.029.029.015.015m-.015-.015l.009.009m-.01-.009l.016.015m0 0l-.006-.006m.006.006q.003.003 0 0Zm0 0C18.207 5.578 19.068 4.295 19.5 3m-1.885 3.302c-.378.461-.822.905-1.373 1.455m1.367-1.461c-2.118-2.3-7.047-4.172-9.852-1.367L6.343 6.343l6.364 6.364h2.828v2.828l2.122 2.122l1.414-1.414c2.824-2.825.934-7.73-1.462-9.947Z" /></g></svg>