<svg xmlns="http://www.w3.org/2000/svg" viewBox="0 0 24 24" width="48" height="48" fill="none" stroke="currentColor" stroke-linecap="round" stroke-linejoin="round"><g fill="none"><path stroke="currentColor" stroke-width="2" d="m6.998 18l-.954-3.325S4.498 14 1.998 14l1 3.999zm0 0l4 .002m-4-.002l-2-6.988c2.5 0 4.933.946 4.933.946c.852 3.47 1.067 6.044 1.067 6.044m0 0l6-.002s0-1.723-.15-2.999C16.412 11.278 14.7 6 7.998 6c2.5 6 3 12.002 3 12.002Zm10-.001l1-6s-3.425.656-5.15 3c.15 1.276.15 2.999.15 2.999z" /></g></svg>