<svg xmlns="http://www.w3.org/2000/svg" viewBox="0 0 24 24" width="48" height="48" fill="none" stroke="currentColor" stroke-linecap="round" stroke-linejoin="round"><g fill="none"><path stroke="currentColor" stroke-width="2" d="M22 11.464c-.14 2.079-1.522 3.627-3.726 4.221c-1.86.502-3.955-.498-5.39.704c-1.437 1.2-1.202 2.666-.558 3.692c.42.666 1.182 1.816-.674 1.816C6.13 21.897 2 17.523 2 12S6.477 2 12 2s10.37 3.953 10 9.464Z" /><path stroke="currentColor" stroke-width="2" d="M11.75 8.004a1 1 0 1 1 0-2a1 1 0 0 1 0 2Zm-4.72 3a1 1 0 1 1 0-2a1 1 0 0 1 0 2Zm9.488 0a1 1 0 1 1 0-2a1 1 0 0 1 0 2Z" /></g></svg>