<svg xmlns="http://www.w3.org/2000/svg" viewBox="0 0 24 24" width="48" height="48" fill="none" stroke="currentColor" stroke-linecap="round" stroke-linejoin="round"><g fill="none"><path stroke="currentColor" stroke-linecap="square" stroke-width="2" d="M15 2c-1.588 0-2.327 2.208-2.501 3.383C12.444 2 10 2 10 2m2.608 19.5q-.308.26-.608.5c-2.5-1-9-4-9-10s5-7 7-7c.82 0 1.68.152 2.504.474C13.669 5.149 15.776 4.729 18 6c3.5 2 4 6 2.5 9c-1.307 3.016-6.106 5.811-7.892 6.5Zm0 0c2.35-1.993 4.852-4.9 4.392-9.5c-.323-3.23-1.913-5.217-3.81-6.213" /></g></svg>