<svg xmlns="http://www.w3.org/2000/svg" viewBox="0 0 24 24" width="48" height="48" fill="none" stroke="currentColor" stroke-linecap="round" stroke-linejoin="round"><g fill="none"><path stroke="currentColor" stroke-linecap="square" stroke-width="2" d="M12 8a2 2 0 1 0 0-4m0 4a2 2 0 1 1 0-4m0 4v6m0-10l-.002-2M12 14a3 3 0 0 0-3 3c0 .763.255 1.426.754 1.989c.198.223.428.417.684.573M12 14a3 3 0 0 1 1.56 5.563m-3.122-.001L9.001 22H9zm0 0c.455.278.99.438 1.562.438a3 3 0 0 0 1.56-.437m0 0L14.999 22H15z" /></g></svg>