<svg xmlns="http://www.w3.org/2000/svg" viewBox="0 0 24 24" width="48" height="48" fill="none" stroke="currentColor" stroke-linecap="round" stroke-linejoin="round"><g fill="none"><path stroke="currentColor" stroke-linecap="square" stroke-width="2" d="M11.913 5c-2.203.03-3.671 1.102-4.135 1.412c-1.878 4.14.157 12.078 1.41 13.647c.312.47.938.941 2.816.941c1.879 0 2.505-.47 2.818-.941c1.252-1.569 3.286-9.506 1.408-13.647C15.76 6.098 14.258 5 12.004 5zm0 0c-.11-.833-.357-1.666-.912-2.5m.912 2.5C12 5.668 12 6.335 12 7m3.3 13.059h1.87c3.286 0 5.24-9.235 3.83-12.059c-1.033-2.07-3.391-2.207-4.5-1.732m-7.8 13.79H6.83c-3.287 0-5.24-9.234-3.831-12.058c1.033-2.07 3.391-2.207 4.5-1.732" /></g></svg>