<svg xmlns="http://www.w3.org/2000/svg" viewBox="0 0 24 24" width="48" height="48" fill="none" stroke="currentColor" stroke-linecap="round" stroke-linejoin="round"><g fill="none"><path stroke="currentColor" stroke-width="2" d="M16 21.81V14H8v7.81m-5.909-4.518C2.964 12.62 6.675 6.374 9.748 3.086C10.425 2.362 11.212 2 12 2s1.575.362 2.252 1.086c3.073 3.288 6.784 9.534 7.657 14.206c.263 1.405 0 2.537-1.351 3.551c-.771.58-4.506 1.147-8.558 1.157c-4.052-.01-7.787-.578-8.558-1.157c-1.35-1.014-1.614-2.146-1.35-3.551Z" /><path stroke="currentColor" stroke-width="2" d="M9.296 10.187h.003v.004h-.003zm2.702-4.059h.004v.004h-.004zm2.702 4.06h.004v.003h-.003z" /></g></svg>