<svg xmlns="http://www.w3.org/2000/svg" viewBox="0 0 24 24" width="48" height="48" fill="none" stroke="currentColor" stroke-linecap="round" stroke-linejoin="round"><g fill="none"><path stroke="currentColor" stroke-linecap="square" stroke-width="2" d="M12 15a3 3 0 1 0 0-6a3 3 0 0 0 0 6Zm0 0v4.779M4.222 4.223A10.97 10.97 0 0 0 1 12c0 3.037 1.231 5.787 3.222 7.778M7.05 7.051A6.98 6.98 0 0 0 5 12c0 1.933.784 3.683 2.05 4.95m9.9-9.9A6.98 6.98 0 0 1 19 12a6.98 6.98 0 0 1-2.05 4.95m2.827-12.728A10.97 10.97 0 0 1 23 12c0 3.037-1.231 5.787-3.222 7.778" /></g></svg>