<svg xmlns="http://www.w3.org/2000/svg" viewBox="0 0 24 24" width="48" height="48" fill="none" stroke="currentColor" stroke-linecap="round" stroke-linejoin="round"><g fill="none"><path stroke="currentColor" stroke-linecap="square" stroke-width="2" d="m10.5 21.98l2.522-4h-4l2.478-4m3.937-2.658h.075a4.6 4.6 0 0 1 2.773.919a5.5 5.5 0 0 0 2.712-4.277q-.238.021-.48.021A5.505 5.505 0 0 1 15.032 2a5.51 5.51 0 0 0-5.003 4.985h.078c.465 0 .917.056 1.347.162c2.05.506 3.63 2.14 3.983 4.175Z" /><path stroke="currentColor" stroke-linecap="square" stroke-width="2" d="M4.002 19.636C2.815 19.068 2 17.889 2 16.526c0-1.648 1.193-3.027 2.793-3.381q-.09-.466-.09-.956c0-2.874 2.42-5.205 5.405-5.205c.465 0 .916.057 1.347.163c2.049.507 3.629 2.14 3.983 4.175h.074c.819 0 1.586.21 2.247.577c1.35.75 2.258 2.153 2.258 3.76c0 1.779-1.112 3.308-2.703 3.977" /></g></svg>