<svg xmlns="http://www.w3.org/2000/svg" viewBox="0 0 24 24" width="48" height="48" fill="none" stroke="currentColor" stroke-linecap="round" stroke-linejoin="round"><g fill="none"><path stroke="currentColor" stroke-linecap="square" stroke-width="2" d="M9.5 3L12 5.513L14.69 3m.959 2.687l-.352.512c-1.589 2.314-5.005 2.314-6.594 0l-.352-.512M12 5.514s-2.553-.752-4-.338C5.113 6 3 8.004 3 12.5s4 9.244 7.557 8.4c.902-.214.867-.299 1.443-.299s.541.085 1.443.3c3.575.847 7.56-3.899 7.557-8.4c-.002-4.503-2.183-6.497-5-7.325c-1.444-.425-4 .338-4 .338Z" /></g></svg>