<svg xmlns="http://www.w3.org/2000/svg" viewBox="0 0 24 24" width="48" height="48" fill="none" stroke="currentColor" stroke-linecap="round" stroke-linejoin="round"><g fill="none"><path stroke="currentColor" stroke-linecap="square" stroke-width="2" d="m8.29 13.963l2.445 2.444M8.29 13.963l-2.085-2.085a1.388 1.388 0 0 1 1.963-1.963m.122 4.048a1.386 1.386 0 1 0-1.96 1.96l4.32 4.32a6.19 6.19 0 0 0 8.754 0l.844-.845a6.19 6.19 0 0 0 .969-7.498L18.99 8.089a1.146 1.146 0 0 0-2.095.874l.667 2.491q0 .006-.003.004L12.093 5.99a1.388 1.388 0 1 0-1.963 1.963M8.168 9.915l4.53 4.53m-4.53-4.53L6.8 8.55a1.388 1.388 0 1 1 1.962-1.963l1.367 1.367m0 0l4.53 4.53M2.866 5.585a11.1 11.1 0 0 1 2.829-2.828" /></g></svg>