<svg xmlns="http://www.w3.org/2000/svg" viewBox="0 0 24 24" width="48" height="48" fill="none" stroke="currentColor" stroke-linecap="round" stroke-linejoin="round"><g fill="none"><path stroke="currentColor" stroke-linecap="square" stroke-width="2" d="m15.71 13.963l-2.445 2.444m2.445-2.444l2.085-2.085a1.388 1.388 0 1 0-1.963-1.963m-.122 4.048a1.386 1.386 0 1 1 1.96 1.96l-4.32 4.32a6.19 6.19 0 0 1-8.754 0l-.844-.845a6.19 6.19 0 0 1-.969-7.498L5.01 8.089a1.146 1.146 0 0 1 2.095.874l-.667 2.491q0 .006.003.004l5.467-5.467a1.388 1.388 0 1 1 1.962 1.963m1.962 1.962l-4.53 4.53m4.53-4.53L17.2 8.55a1.388 1.388 0 0 0-1.962-1.963L13.87 7.953m0 0l-4.53 4.53m11.794-6.898a11.1 11.1 0 0 0-2.829-2.828" /></g></svg>