<svg xmlns="http://www.w3.org/2000/svg" viewBox="0 0 24 24" width="48" height="48" fill="none" stroke="currentColor" stroke-linecap="round" stroke-linejoin="round"><path fill="none" stroke="currentColor" stroke-linecap="round" stroke-linejoin="round" stroke-width="1.5" d="M15.751 17.251H18a1.5 1.5 0 0 0 1.5-1.5v-1.5H21a1.5 1.5 0 0 0 1.5-1.5v-1.5a1.5 1.5 0 0 0-1.5-1.5h-1.5v-1.5a1.5 1.5 0 0 0-1.5-1.5h-2.25m-9.75 0H3a1.5 1.5 0 0 0-1.5 1.5v7.5a1.5 1.5 0 0 0 1.5 1.5h3m6.001-11.25l-6 6.75h3v5.25l6-6.75h-3z" /></svg>