<svg xmlns="http://www.w3.org/2000/svg" viewBox="0 0 24 24" width="48" height="48" fill="none" stroke="currentColor" stroke-linecap="round" stroke-linejoin="round"><path fill="none" stroke="currentColor" stroke-linecap="round" stroke-linejoin="round" stroke-width="1.5" d="M1.75.75h7.231s1 0 1 1v7.231s0 1-1 1H1.75s-1 0-1-1V1.75s0-1 1-1m13.269 0h7.231s1 0 1 1v7.231s0 1-1 1h-7.231s-1 0-1-1V1.75s0-1 1-1M1.75 14.019h7.231s1 0 1 1v7.231s0 1-1 1H1.75s-1 0-1-1v-7.231s0-1 1-1m16.885 1.154v6.923m3.461-3.461h-6.923" /></svg>