<svg xmlns="http://www.w3.org/2000/svg" viewBox="0 0 24 24" width="48" height="48" fill="none" stroke="currentColor" stroke-linecap="round" stroke-linejoin="round"><g fill="none" stroke="currentColor" stroke-linecap="round" stroke-linejoin="round" stroke-width="1.5"><path d="M7.029 1.242h-.484a2 2 0 0 0-2 2l-.001 6.77a2 2 0 0 1-2 2h-.595m15.026-10.77h.484a2 2 0 0 1 2 2l.001 6.77a2 2 0 0 0 2 2h.595" /><path d="M7.029 22.758h-.484a2 2 0 0 1-2-2l-.001-6.77a2 2 0 0 0-2-1.999h-.595m15.026 10.769h.484a2 2 0 0 0 2-2l.001-6.77a2 2 0 0 1 2-1.999h.595" /></g></svg>