<svg xmlns="http://www.w3.org/2000/svg" viewBox="0 0 24 24" width="48" height="48" fill="none" stroke="currentColor" stroke-linecap="round" stroke-linejoin="round"><path fill="none" stroke="currentColor" stroke-linecap="round" stroke-linejoin="round" stroke-width="1.5" d="M15.75 19a3.25 3.25 0 1 0 6.5 0a3.25 3.25 0 0 0-6.5 0m-14-14a3.25 3.25 0 1 0 6.5 0a3.25 3.25 0 0 0-6.5 0m1.56 18.25a.75.75 0 0 1-.53-.25L1 21.22a.75.75 0 0 1 0-1.06L20.16 1a.75.75 0 0 1 1.06 0L23 2.78a.75.75 0 0 1 0 1.06L3.84 23a.75.75 0 0 1-.53.25" /></svg>