<svg xmlns="http://www.w3.org/2000/svg" viewBox="0 0 24 24" width="48" height="48" fill="none" stroke="currentColor" stroke-linecap="round" stroke-linejoin="round"><path fill="none" stroke="currentColor" stroke-linecap="round" stroke-linejoin="round" stroke-width="1.5" d="M12 .75a5.39 5.39 0 0 1 5.11 5.63A5.39 5.39 0 0 1 12 12zM23.25 12a5.39 5.39 0 0 1-5.62 5.11A5.39 5.39 0 0 1 12 12zM12 23.25a5.39 5.39 0 0 1-5.11-5.63A5.39 5.39 0 0 1 12 12zM.75 12a5.39 5.39 0 0 1 5.62-5.11A5.39 5.39 0 0 1 12 12z" /></svg>