<svg xmlns="http://www.w3.org/2000/svg" viewBox="0 0 24 24" width="48" height="48" fill="none" stroke="currentColor" stroke-linecap="round" stroke-linejoin="round"><g fill="none" stroke="currentColor" stroke-width="1.5"><path stroke-linecap="round" stroke-linejoin="round" d="M14.75.75h-5.5a3 3 0 0 0-3 3v16.5a3 3 0 0 0 3 3h5.5a3 3 0 0 0 3-3V3.75a3 3 0 0 0-3-3m-8.5 11.5h11.5" /><path d="M14.25 9a.5.5 0 0 1 0-1m0 1a.5.5 0 0 0 0-1m-4.5 1a.5.5 0 0 1 0-1m0 1a.5.5 0 0 0 0-1m0 8.25a.5.5 0 0 1 0-1m0 1a.5.5 0 0 0 0-1m0 4.5a.5.5 0 0 1 0-1m0 1a.5.5 0 0 0 0-1" /><path stroke-linecap="round" stroke-linejoin="round" d="M10.5 4.25h3M14.25 16v3" /></g></svg>