<svg xmlns="http://www.w3.org/2000/svg" viewBox="0 0 24 24" width="48" height="48" fill="none" stroke="currentColor" stroke-linecap="round" stroke-linejoin="round"><g fill="none" stroke="currentColor" stroke-width="1.5"><path stroke-miterlimit="10" d="M5.75 10.25a1.75 1.75 0 1 0 0 3.5a1.75 1.75 0 0 0 0-3.5Zm12.5 0a1.75 1.75 0 1 0 0 3.5a1.75 1.75 0 0 0 0-3.5Zm-6.25 0a1.75 1.75 0 1 0 0 3.5a1.75 1.75 0 0 0 0-3.5Z" /><path stroke-linecap="round" stroke-linejoin="round" d="M.75 12a11.25 11.25 0 1 0 22.5 0a11.25 11.25 0 0 0-22.5 0" /></g></svg>