<svg xmlns="http://www.w3.org/2000/svg" viewBox="0 0 24 24" width="48" height="48" fill="none" stroke="currentColor" stroke-linecap="round" stroke-linejoin="round"><g fill="none" stroke="currentColor" stroke-linecap="round" stroke-linejoin="round" stroke-width="1.5"><path d="M21.805 7.266a1 1 0 0 1 1 1v13.538a1 1 0 0 1-1 1H8.017a1 1 0 0 1-1-1v-5.203a1 1 0 0 1 1-1H14.6a1 1 0 0 0 1-1V8.266a1 1 0 0 1 1-1z" /><path stroke-dasharray="3 3" d="M10.398 15.602H2.195a1 1 0 0 1-1-1V2.195a1 1 0 0 1 1-1h12.407a1 1 0 0 1 1 1v8.203" /></g></svg>