<svg xmlns="http://www.w3.org/2000/svg" viewBox="0 0 24 24" width="48" height="48" fill="none" stroke="currentColor" stroke-linecap="round" stroke-linejoin="round"><g fill="none" stroke="currentColor" stroke-linecap="round" stroke-linejoin="round" stroke-width="1.5"><path d="M16.5 21.75a1.5 1.5 0 1 0 3 0a1.5 1.5 0 0 0-3 0m-14.25 0a1.5 1.5 0 1 0 3 0a1.5 1.5 0 0 0-3 0M.75 18h15.93a1.5 1.5 0 0 0 1.49-1.31l1.91-14.63A1.5 1.5 0 0 1 21.57.75h1.68" /><path d="M4.5 3.75h9s1.5 0 1.5 1.5v8.25s0 1.5-1.5 1.5h-9S3 15 3 13.5V5.25s0-1.5 1.5-1.5" /><path d="M10.75 8.75h-3.5v-5h3.5z" /></g></svg>