<svg xmlns="http://www.w3.org/2000/svg" viewBox="0 0 14 14" width="48" height="48" fill="none" stroke="currentColor" stroke-width="1" stroke-linecap="round" stroke-linejoin="round"><path fill="none" stroke="currentColor" stroke-linecap="round" stroke-linejoin="round" d="M7 4.5H2.707a.5.5 0 0 1-.353-.146l-1.5-1.5a.5.5 0 0 1 0-.708l1.5-1.5A.5.5 0 0 1 2.707.5H7m0 7h4.293a.5.5 0 0 0 .353-.146l1.5-1.5a.5.5 0 0 0 0-.708l-1.5-1.5a.5.5 0 0 0-.353-.146H7m0 7H2.707a.5.5 0 0 1-.353-.146l-1.5-1.5a.5.5 0 0 1 0-.708l1.5-1.5a.5.5 0 0 1 .353-.146H7m0-6v13" /></svg>