<svg xmlns="http://www.w3.org/2000/svg" viewBox="0 0 24 24" width="48" height="48" fill="none" stroke="currentColor" stroke-linecap="round" stroke-linejoin="round"><path fill="none" stroke="currentColor" stroke-linecap="round" stroke-linejoin="round" stroke-miterlimit="10" stroke-width="1.5" d="M2 2v17.6A2.4 2.4 0 0 0 4.4 22h2.2A2.4 2.4 0 0 0 9 19.6V2H1m15 3v14.6a2.4 2.4 0 0 1-2.4 2.4H6.4m7 0h7.2a2.4 2.4 0 0 0 2.4-2.4V5h-8m-6 6h7M5 6h1M5 9h1m-1 3h1m-1 3h1m-1 3h1m13-6h1m-1-3h1m-1 6h1m-1 3h1m-8 0h1m-1-3h1" /></svg>