<svg xmlns="http://www.w3.org/2000/svg" viewBox="0 0 24 24" width="48" height="48" fill="none" stroke="currentColor" stroke-linecap="round" stroke-linejoin="round"><path fill="none" stroke="currentColor" stroke-linejoin="round" stroke-miterlimit="10" stroke-width="1.5" d="M12 14a2 2 0 1 0 0-4a2 2 0 0 0 0 4Zm-7 0a2 2 0 1 0 0-4a2 2 0 0 0 0 4Zm14 0a2 2 0 1 0 0-4a2 2 0 0 0 0 4Zm-7-7a2 2 0 1 0 0-4a2 2 0 0 0 0 4ZM5 7a2 2 0 1 0 0-4a2 2 0 0 0 0 4Zm14 0a2 2 0 1 0 0-4a2 2 0 0 0 0 4Zm-7 14a2 2 0 1 0 0-4a2 2 0 0 0 0 4Zm-7 0a2 2 0 1 0 0-4a2 2 0 0 0 0 4Zm14 0a2 2 0 1 0 0-4a2 2 0 0 0 0 4Z" /></svg>