<svg xmlns="http://www.w3.org/2000/svg" viewBox="0 0 40 40" width="48" height="48"><path fill="currentColor" d="M12.991 20.4c0-.743-.516-1.187-1.439-1.187c-.359 0-.611.024-.743.06v2.387c.156.036.336.048.611.048c.972 0 1.571-.491 1.571-1.308" /><path fill="currentColor" d="M30.918 15.983h-.678v-3.271a.4.4 0 0 0-.006-.061a.55.55 0 0 0-.131-.359L24.66 6.075l-.004-.004a.6.6 0 0 0-.11-.092l-.036-.022a.6.6 0 0 0-.109-.046l-.03-.01a.5.5 0 0 0-.127-.016H10.867c-.611 0-1.107.497-1.107 1.107v8.99h-.678c-.874 0-1.582.708-1.582 1.582v8.228c0 .873.708 1.582 1.582 1.582h.678v5.632c0 .61.496 1.107 1.107 1.107h18.266c.61 0 1.107-.497 1.107-1.107v-5.632h.678c.874 0 1.582-.708 1.582-1.582v-8.228c0-.873-.709-1.581-1.582-1.581m-20.051-8.99H23.69v5.664c0 .306.248.554.554.554h4.89v2.773H10.867zm6.781 16.538v2.435H15.97v-8.084h2.135l.919 1.623l.759 1.34c.479.852.947 1.858 1.319 2.771h.023c-.107-1.067-.144-2.159-.144-3.382v-2.351h1.679v8.084h-1.918l-.725-1.309l-.994-1.794l-.008-.015c-.479-.876-1.02-1.907-1.403-2.855h-.048c.06 1.078.084 2.218.084 3.537m-6.839-.468v2.902H8.998V17.99c.563-.096 1.354-.168 2.47-.168c1.128 0 1.932.216 2.471.66c.528.395.864 1.067.864 1.858c0 .804-.252 1.476-.744 1.919c-.623.576-1.547.852-2.626.852a3 3 0 0 1-.624-.048m18.324 9.645H10.867v-5.333h18.266zm1.869-7.114c-.564.192-1.631.456-2.698.456c-1.476 0-2.543-.372-3.286-1.079c-.732-.708-1.14-1.764-1.14-2.951c.012-2.687 1.967-4.222 4.617-4.222c1.044 0 1.847.204 2.243.384l-.384 1.476c-.444-.204-.983-.348-1.871-.348c-1.523 0-2.687.863-2.687 2.614c0 1.68 1.056 2.65 2.555 2.65c.407 0 .743-.048.888-.107v-1.703h-1.248v-1.428h3.011z" /></svg>